<svg xmlns="http://www.w3.org/2000/svg" viewBox="0 0 180 180" style="enable-background:new 0 0 180 180" xml:space="preserve"><path d="M43.2 159.6h94.2c.5-6.1-3.6-11.7-12.3-17-16.5-12.6-23.9-30-25.8-51.2h-18c-1.8 21.2-9.3 38.6-25.8 51.2-8.7 5.4-12.8 11-12.3 17z" style="fill:#fff"/><path d="M125.3 135.2c-13.2-10.3-18.7-25.2-21.4-41.1h-5.6c1.7 19.3 8.6 35.1 23.6 46.5 8 4.9 11.7 10 11.3 15.6H46.8c-.5-5.6 3.2-10.7 11.3-15.6 15-11.4 21.8-27.3 23.6-46.5h-5.6c-2.8 16-8.1 30.9-21.4 41.1-9.2 5.9-14.8 11.9-14.3 21v6.3h99.2v-6.4c.3-9-5.3-15-14.3-20.9z" style="fill:#040000"/><path d="M76.1 38.4h28.6v43.5H76.1zM60 82h60v12.2H60z" style="fill:#fff;stroke:#231815;stroke-width:5;stroke-miterlimit:10"/></svg>