<svg version="1.1" id="Layer_1" xmlns="http://www.w3.org/2000/svg" x="0" y="0" viewBox="0 0 180 180" style="enable-background:new 0 0 180 180" xml:space="preserve"><defs><style>.st0{fill:#fff}</style></defs><path class="st0" d="m127 128.4 3.4 1.3.6-3.6c1.9-11 6.5-23 13.9-35.4l7.1-12-26.5 18.6-11.4-55.8-24 50-24.1-50-11.4 55.8-26.3-18.5 6.8 11.8c7.4 12.8 12 24.7 13.9 35.5l.6 3.6 3.4-1.3c4.1-1.6 8.1-2.9 12-4v.4c-4.3 1.2-8.7 2.7-13.3 4.5l-2 .8.1 2.2c.6 7.7-.6 15.5-3.5 22.7l-1.7 4.1h90.8l-1.5-4.1c-2.9-7.2-4.1-15-3.5-22.7l.1-2.2-2-.8c-4.3-1.7-9.6-3.5-15.4-5v-.4c4.5 1.1 9.1 2.6 13.9 4.5z"/><path style="fill:none" d="M0 0h180v180H0z"/><path d="M154.7 62.5h-.6c-6.2 0-11.2 5-11.2 11.2-.1 2.2.6 4.3 1.8 6.1l-16.8 11.9-8.6-41.7c7.2-3.5 7.5-11.2 3.7-16.6-3.4-4.9-10.2-6-15.1-2.6-.2.2-.5.3-.7.5-4.8 3.8-5.6 10.9-1.8 15.7.5.6 1 1.2 1.6 1.7L90 84 73 48.7c4.7-4 5.4-11 1.4-15.8-.5-.6-1-1.1-1.6-1.5-4.6-3.8-11.4-3.2-15.2 1.4-.2.2-.4.5-.5.7-3.9 5.4-3.6 13.1 3.7 16.6l-8.6 41.7-16.8-12c1.2-1.8 1.8-3.9 1.8-6.1 0-6.2-5.1-11.2-11.3-11.2s-11.2 5.1-11.2 11.3S19.7 85 25.9 85c.4 0 .9-.1 1.6-.2C44.3 110.4 53 136.1 40 162.5h100c-13-26.4-4.4-52 12.4-77.7.7.1 1.2.2 1.6.2 6.2.2 11.4-4.7 11.6-10.9.2-6.2-4.7-11.4-10.9-11.6zm-26.6 63.1c-8.6-3.3-17.6-5.9-26.6-7.2v6.5c8.9 1.4 17.9 4.2 25.8 7.2-.1.9-.1 1.7-.1 2.6l-10.2 6.2 11.5 7.4c.6 2.7 1.4 5.3 2.5 7.9l-41-.1H49c1.1-2.6 1.9-5.4 2.5-8.1v.3l11.5-7.4-10.2-6.2c0-.9 0-1.7-.1-2.6 7.2-2.9 15.3-5.4 23.4-6.9l-3.8-3.8c-.5-.5-.9-1.1-1.3-1.8-6.5 1.4-12.9 3.5-19.2 5.9-2-12-7.3-24.4-14.2-36.4l18.9 13.3L67.1 51 90 98.5l22.9-47.6 10.5 51.5 18.9-13.3c-7.1 12.1-12.2 24.5-14.2 36.5z"/><path d="M86.9 107.5h6.5c.9 0 1.6.7 1.6 1.6v28.7h6.1c.9 0 1.6.7 1.6 1.6v6.5c0 .9-.7 1.6-1.6 1.6H79.2c-.9 0-1.7-.7-1.7-1.6v-6.4c0-1 .8-1.7 1.7-1.7h6.1v-15.6l-.6.6c-.6.5-1.6.4-2.1-.2l-4.5-4.5c-.6-.6-.6-1.7 0-2.4l7.8-7.8c.2-.3.6-.4 1-.4"/><path class="st0" d="M25.9 68.4c-3.5 0-5.3 1.8-5.3 5.3s1.8 5.3 5.3 5.3 5.4-1.8 5.4-5.3-1.8-5.3-5.4-5.3zm128.2 0c-3.6 0-5.4 1.8-5.4 5.3s1.8 5.3 5.4 5.3 5.3-1.8 5.3-5.3-1.7-5.3-5.3-5.3zm-39.9-33.8c-3.5 0-5.3 1.8-5.3 5.3s1.8 5.3 5.3 5.3 5.3-1.8 5.3-5.3-1.8-5.3-5.3-5.3zm-48.4 0c-3.5 0-5.3 1.8-5.3 5.3s1.8 5.3 5.3 5.3 5.3-1.8 5.3-5.3-1.8-5.3-5.3-5.3z"/></svg>