<svg version="1.1" id="Layer_1" xmlns="http://www.w3.org/2000/svg" x="0" y="0" viewBox="0 0 180 180" style="enable-background:new 0 0 180 180" xml:space="preserve"><style>.st0{fill:#fff}.st1{fill:#040000}</style><g id="Layer_2"><g id="Layer_1-2"><path class="st0" d="M48.9 129.1c-.6-13.1 3.4-24.5 13-32.7 6.1-1.7 8.9-4.2 10.7-7.9 1.6-3.4 3.6-6.6 6.1-9.4-8.3-8.6-16.9-2.1-22.5-.2-3.7 1.5-5.8 2.3-7.8 4.6l-3 3.5-5.3-4 6.1-5.1-9.8-8.7-5 3.2-1.3-12.2 28.6-18.8c2.3-5.3 16.1-13.1 26.4-19.6l3.9-5.4 4.6 10.4c18.6 8.3 25.6 19.8 30.9 32.9 4.1 15 3.4 25.5 2.5 35.6-.9 10.1-2.2 20 1.5 33.8H48.9z"/><path class="st1" d="m38.7 59.7 2.5-.3 2.8 2.3-3.5 4.1-4.3-2 2.5-4.1zm42.6-14.8-15.9-.1 8.7-7.5c3-2.5 10.6 7.6 7.2 7.6zm-21.8-2.3-3.4-4.5c.3-1.9 3.2-4.6 8.7-8.1s10.9-7 16.5-10.7l8.6-11.5L97 24c34.1 17.2 40.1 40.7 35.9 76.4-1.4 10.9.2 21.9 4.6 32H44.6c-.9-17.7 3.2-29 16.6-40.3 7.8-1.6 10.9-8.7 12.7-11.7-11.7-2.1-19.1-.6-21.8 4.5-2.7 5.1-4.2 7.6-4.2 7.6l-16.2-9.1 8.6-6.1-3.8-3.7-9.2 6.4-.9-22.3L56.1 38s2.9-1 3.5-.3c.5.8-.1 4.9-.1 4.9l-27.4 18 .3 9.4 4.8-3.1 10.3 10.8-5.8 4.9 3.5 2.1 2.9-3.4c2.2-2.4 5-4.3 8.1-5.4 5.4-1.8 18.6-4.8 26.6 3.5-2.7 3-5 6.3-6.8 9.9-1.7 3.5-5.5 6.1-11.3 7.7-9.2 7.9-15.1 17.4-14.5 29.9h76.2c-3.5-13.2-2.4-22.7-1.4-32.5s1.6-19.8-2.4-34.2c-5.1-12.6-11.7-23.6-29.7-31.6l-4.4-9.9-3.6 5.1C75 30 61.6 37.5 59.5 42.6z"/><path class="st1" d="M78.7 76.2c-.8.9.8 3.6 4 3.1 1.3-.2 1.9-1.1 2.8-1 .8.1 1.7.1 2.5-.1 7.8-1.1 13.3-9.7 13.5-18.7l-1.4-5C97.3 66.4 92.7 72.8 86 73.7c-1 .1-2.2.3-3.4.4-1.4.3-2.8 1-3.9 2.1z"/><path class="st0" d="M29.2 171.3h22.5v-16.7h28.7v16.7h22.2v-16.7h28.6v16.7h22.4l-1.8-29.9-17-11.5H48.2l-17.1 11.5z"/><path style="fill:none;stroke:#040000;stroke-width:5;stroke-miterlimit:10" d="m134.8 130.8 17 11.4 1.8 30h-22.4v-16.7h-28.6v16.7H80.4v-16.7H51.7v16.7H29.2l1.9-30 17.1-11.4z"/></g></g></svg>