<svg version="1.1" id="Layer_1" xmlns="http://www.w3.org/2000/svg" x="0" y="0" viewBox="0 0 180 180" style="enable-background:new 0 0 180 180" xml:space="preserve"><style>.st0{fill:#fff}.st1{fill:#040000}</style><g id="Layer_2"><g id="Layer_1-2"><path class="st0" d="m64.2 124.8.9.8 1.2-.4c7.7-2.5 15.7-3.7 23.8-3.5 8.1-.2 16.1 1 23.8 3.5l1.2.4.9-.8c11.3-10.8 15.6-21.4 12.7-31.7-3.6-11.6-15.8-24-37.4-38l-1.1-.8-1.2.7C67.2 69.1 55 81.6 51.5 93.1c-3 10.3 1.3 20.9 12.7 31.7z"/><path class="st0" d="m113.8 128-1.3-.4c-7.2-2.4-14.8-3.6-22.4-3.4-7.6-.2-15.2.9-22.5 3.4l-1.3.5v1.4c-.2 4.3-1 8.6-2.5 12.6l-.8 2.6h54.1l-.9-2.6c-1.4-4.1-2.2-8.3-2.4-12.6V128zM90 38.8c3.7 0 5.6 1.5 5.5 4.7.1 3.8-1.7 5.7-5.5 5.7s-5.7-1.9-5.5-5.7c0-3.2 1.8-4.7 5.5-4.7z"/><path class="st1" d="M94.1 110.6V96.4h8.1v-7.6h-8.1v-8.9H86v8.9h-8.1v7.6H86v14.2z"/><path class="st1" d="M122.3 74.1c-4.9-5.3-13.7-12.3-26.7-21.1 1.8-1.3 6.4-3.7 6.4-9.9 0-6.6-5.5-11.5-12.1-11.5-6.8 0-12.1 4.9-12.1 11.5 0 6.2 4.5 8.6 6.4 9.9-12.9 8.8-21.9 15.8-26.8 21.1-4.4 4.7-7.9 10.2-10.1 16.3-4.8 13.6 1.4 24.7 14.4 38.3-.4 7-2.5 13.7-6.2 19.6H100v.1h6.5v-.1h17.8c-3.6-5.9-5.8-12.7-6.2-19.6 6.5-6.8 11.2-13.2 13.9-19.2 5.5-11.9 0-24.7-9.7-35.4zm-56.6 68c1.5-4.3 2.3-8.7 2.5-13.2 7-2.4 14.4-3.5 21.8-3.2 7.4-.2 14.8.9 21.8 3.3.2 4.5 1 9 2.5 13.2l-48.6-.1zm48.7-19.3c-7.9-2.6-16.1-3.8-24.4-3.6-8.3-.2-16.6 1-24.4 3.6-10.9-10.3-14.9-20.2-12.2-29.7C56.7 82 69 69.8 90 56.1c21 13.6 33.2 25.9 36.6 37 2.7 9.6-1.4 19.5-12.2 29.7z"/></g></g></svg>