<svg version="1.1" id="Layer_1" xmlns="http://www.w3.org/2000/svg" x="0" y="0" viewBox="0 0 180 180" style="enable-background:new 0 0 180 180" xml:space="preserve"><style>.st0{fill:#fff}.st1{fill:#040000}</style><path class="st0" d="m48.6 118.9.9.8 1.1-.4c7.7-2.5 15.7-3.7 23.8-3.5 8.1-.2 16.1 1 23.8 3.5l1.2.4.9-.8c11.3-10.8 15.6-21.4 12.7-31.7-3.6-11.6-15.8-24-37.4-38l-1.2-.7-1.1.7c-21.7 14.1-33.9 26.5-37.5 38-2.9 10.3 1.4 21 12.8 31.7z"/><path class="st0" d="m98.2 122.1-1.3-.4c-7.2-2.4-14.8-3.6-22.4-3.3-7.6-.2-15.2.9-22.5 3.4l-1.3.5v1.4c-.2 4.3-1 8.6-2.5 12.6l-.8 2.6h54.1l-.9-2.6c-1.4-4.1-2.2-8.3-2.4-12.6v-1.6zM74.4 32.9c3.7 0 5.6 1.5 5.5 4.7.1 3.8-1.7 5.7-5.5 5.7s-5.7-1.9-5.5-5.7c-.1-3.1 1.7-4.7 5.5-4.7z"/><path class="st1" d="M78.4 104.7V90.5h8.2v-7.6h-8.2V74h-8.1v8.9h-8.1v7.6h8.1v14.2z"/><path class="st1" d="M106.7 68.2C101.8 62.9 93 55.9 80 47.1c1.8-1.3 6.4-3.7 6.4-9.9 0-6.6-5.5-11.5-12.1-11.5-6.8 0-12.1 4.9-12.1 11.5 0 6.2 4.5 8.6 6.4 9.9-12.9 8.8-21.9 15.8-26.8 21.1-4.4 4.7-7.9 10.2-10.1 16.3-4.8 13.6 1.4 24.7 14.4 38.3-.4 7-2.5 13.7-6.2 19.6h68.8c-3.6-5.9-5.8-12.7-6.2-19.6 6.5-6.8 11.2-13.2 13.9-19.2 5.4-11.9-.1-24.7-9.7-35.4zm-56.6 68c1.5-4.3 2.3-8.7 2.5-13.2 7-2.4 14.4-3.5 21.8-3.2 7.4-.2 14.8.9 21.8 3.3.2 4.5 1 9 2.5 13.2l-48.6-.1zm48.7-19.3c-7.9-2.6-16.1-3.8-24.4-3.6-8.3-.2-16.6 1-24.4 3.6-10.9-10.3-14.9-20.2-12.2-29.7 3.2-11 15.5-23.3 36.5-37 21 13.6 33.2 25.9 36.6 37 2.7 9.6-1.3 19.5-12.1 29.7z"/><path class="st0" d="m79.8 130.8.9.9 1.2-.5c7.7-2.6 15.7-3.8 23.9-3.6 8.2-.2 16.2 1.1 23.9 3.5l1.2.5.9-.9c11.3-10.7 15.6-21.4 12.7-31.7-3.6-11.6-15.9-24.2-37.6-38.2l-1.1-.8-1.1.8c-21.8 14-34 26.6-37.6 38.1-3 10.5 1.2 21.1 12.7 31.9z"/><path class="st0" d="m129.5 134-1.4-.5c-7.3-2.4-14.8-3.6-22.5-3.3-7.7-.2-15.3.9-22.5 3.3l-1.4.5v1.4c-.2 4.4-1.1 8.6-2.4 12.7l-.8 2.6h54.2l-.9-2.7c-1.5-4.1-2.3-8.3-2.4-12.7l.1-1.3zm-23.8-89.4c3.6 0 5.6 1.5 5.4 4.7.2 3.8-1.7 5.7-5.4 5.7-3.8 0-5.7-1.8-5.6-5.7.1-3.2 1.7-4.7 5.6-4.7z"/><path class="st1" d="M109.7 116.5v-14.1h8.1v-7.7h-8.1v-8.9h-8v8.9h-8.2v7.7h8.2v14.1z"/><path class="st1" d="M138.1 79.9c-4.8-5.3-13.7-12.4-26.7-21.1 1.8-1.2 6.5-3.6 6.5-9.8-.2-6.5-5.4-11.6-11.9-11.5h-.2c-6.8 0-12.1 4.8-12.1 11.5 0 6.2 4.5 8.6 6.5 9.8-13 8.8-22.1 15.9-26.9 21.1-4.4 4.7-7.9 10.3-10.1 16.3-4.8 13.6 1.4 24.8 14.5 38.4-.5 6.9-2.6 13.7-6.2 19.6h68.7c-3.6-5.9-5.7-12.7-6.2-19.6 5.7-5.6 10.4-12.1 13.9-19.2 5.3-11.9-.2-24.7-9.8-35.5zm-56.8 68.2c1.5-4.2 2.3-8.8 2.6-13.3 7.1-2.4 14.5-3.5 21.9-3.3 7.4-.2 14.8.9 21.8 3.3.2 4.5 1.1 8.9 2.6 13.3H81.3zm48.8-19.2c-7.9-2.6-16.2-3.8-24.5-3.6-8.3-.2-16.6 1.1-24.5 3.6-11-10.3-15.1-20.2-12.2-29.8 3.3-11 15.6-23.4 36.7-37 21 13.6 33.2 26 36.7 37.2 2.7 9.3-1.4 19.3-12.2 29.6z"/></svg>