<svg version="1.1" id="Layer_1" xmlns="http://www.w3.org/2000/svg" x="0" y="0" viewBox="0 0 180 180" style="enable-background:new 0 0 180 180" xml:space="preserve"><style>.st0{fill:#fff}.st1{fill:#040000}</style><g id="Layer_2"><g id="Layer_1-2"><path class="st0" d="M44.1 164.4c-.8-16.3 4.2-30.5 16.1-40.6 7.6-2.2 11.1-5.2 13.3-9.8 2-4.2 4.5-8.2 7.6-11.7-10.4-10.7-20.9-2.6-27.9-.3-4.6 1.8-7.2 2.9-9.6 5.8l-3.8 4.3-6.6-5.1 7.6-6.3-12.3-10.8-6.2 4-1.6-15.2 35.5-23.4C59 48.7 76.2 39 89 31l4.8-6.7 5.7 12.9c23.1 10.4 31.8 24.6 38.3 40.9 5.1 18.7 4.2 31.7 3.1 44.3-1.1 12.6-2.7 24.9 1.8 42H44.1z"/><path class="st1" d="m31.5 77.1 3.1-.4 3.4 2.9-4.3 5.1-5.3-2.4 3.1-5.2zm52.9-18.5-19.7-.2 10.8-9.3c3.7-3 13.1 9.5 8.9 9.5zm-27.1-2.8L53 50.3c.4-2.4 4-5.8 10.8-10S77.4 31.6 84.2 27l10.6-14.3 8.9 20.2c42.4 21.3 49.9 50.6 44.6 94.9-1.8 13.5.2 27.3 5.8 39.7H38.7c-1.1-22 3.9-36 20.6-50.1 9.7-2 13.6-10.8 15.8-14.5-14.6-2.6-23.7-.7-27.1 5.6-3.4 6.3-5.2 9.5-5.2 9.5l-20.2-11.3L33.3 99l-4.7-4.7-11.4 8-1.1-27.6L53 50.3s3.7-1.2 4.3-.4 0 5.9 0 5.9L23.2 78.2l.4 11.6 6-3.8 12.8 13.4-7.3 6 4.3 2.6 3.6-4.2c2.7-3 6.2-5.4 10-6.7 6.7-2.2 23.1-6 33.1 4.3-3.3 3.7-6.2 7.8-8.4 12.3-2.2 4.3-6.9 7.5-14.1 9.6-11.4 9.8-18.8 21.6-18 37.2h94.7c-4.3-16.4-3-28.3-1.8-40.3s2-24.6-3-42.5c-6.3-15.6-14.6-29.3-36.9-39.2l-5.5-12.4-4.5 6.4c-12.1 7.7-28.6 17-31.3 23.3z"/><path class="st1" d="M79.8 96.5c-1 1.1 1 4.6 5.1 4 1.6-.2 2.5-1.4 3.5-1.3 1 .1 2.1.1 3.1-.1 9.9-1.4 16.9-12.3 17.2-23.8l-1.8-6.4c-3.5 15.2-9.4 23.3-17.9 24.4-1.3.2-2.8.4-4.3.5-1.8.4-3.5 1.3-4.9 2.7z"/><path class="st0" d="M65.5 125.8c4.6-11.1 12.5-19 24-21.9 6 1.1 9.3.1 12.3-2.2 2.7-2.2 5.7-4 8.9-5.3-3.8-10.6-13.8-8.6-19.3-9.3-3.8-.3-5.9-.5-8.5.7l-4 1.7-3-5.6 7.3-1.7-5.1-11.3-5.5.6 3.7-10.7 32-4c4-3.5 19.1-4.3 30.5-5.5l5.4-2.9v10.5c12.9 14.5 14.4 26.8 13.8 39.9-2.3 14.2-7 22.5-11.8 30.6s-9.8 15.7-11.9 28.7l-68.8-32.3z"/><path class="st1" d="M83.8 64 80 66.5l2.9 3.4 4.6-2.1-1.5-3zm39.4-4.2-10.5 2.7 13.7 6.5c2.9 1.4.3-10.1-3.2-9.2zm-14.6-1.7c.4-.7 2-3.2 1.8-3.8-.2-.7-3.1-1.1-3.1-1.1l1.2 5.1.1-.2z"/><path class="st1" d="M149.3 136.2c17.6-27.9 21.6-49.9-1.2-78.1l.1-16.4-11.9 6.1c-6.2.8-12.3 1.6-18.4 2.2-6.1.6-9.7 1.7-10.7 3.2 0 0 2.9.4 3.1 1.1s-1.4 3.2-1.8 3.9c4.1-3.3 18.3-4 29.1-5.1l5.2-2.8-.1 10c12.4 14 13.8 25.8 13.3 38.3-2.2 13.6-6.6 21.7-11.3 29.4s-9.1 14.9-11.3 27l6.9 9.5.4.2c.1-10.2 3.1-20.1 8.6-28.5z"/><path class="st1" d="M91.7 105.5c5.7 1 9.9.4 12.8-1.8 3-2.2 6.3-4.1 9.8-5.4-3.7-10.1-16.3-13-21.7-13.7-3.1-.3-6.2.1-9.1 1.2l-3.8 1.6-2.2-3.2 7-1.7-4.8-13.2-5.4.7 3.4-7.9 30.8-3.8c0-.1.1-.1.1-.2l-.2.1-1.2-5.1-33.3 4.3L66 76.3l10.4-1.6 1.8 4.7-9.8 1.6 10.5 14s2.3-1.5 6.6-4.6 11.3-1.4 20.6 5.1c-2.7 1.7-8.2 6.4-15.6 4.5-15.8 3.9-23.7 11.4-29.8 26l6.9-2.2c4.5-10.3 13.2-15.6 24.1-18.3z"/><path class="st1" d="M112 94c-1.1.4-.7 3.3 2.3 4.2 1.2.4 2.2-.1 2.8.3.7.4 1.4.7 2.2.9 7.2 2.2 15.3-2.6 19-10l.7-4.7c-7 8.8-13.6 12.2-19.7 10.2-1-.3-2-.6-3.1-1.1-1.4-.3-2.9-.3-4.2.2z"/><path style="fill:none;stroke:#040000;stroke-width:6;stroke-miterlimit:10" d="m60.7 124.9 79.6 34.5"/></g></g></svg>