<svg version="1.1" id="Layer_1" xmlns="http://www.w3.org/2000/svg" x="0" y="0" viewBox="0 0 180 180" style="enable-background:new 0 0 180 180" xml:space="preserve"><defs><style>.cls-1{fill:none}.cls-2{fill:#fff}</style></defs><path class="cls-1" d="M0 0h180v180H0z"/><path class="cls-1" d="M0 0h180v180H0z"/><path class="cls-2" d="m130.44 129.74-3.44-1.31c-13.84-5.29-25.95-7.87-37-7.87s-23.16 2.58-37 7.87l-3.41 1.3-.61-3.6c-1.86-10.81-6.52-22.74-13.88-35.45l-6.84-11.82 26.27 18.52 11.41-55.77L90 91.6l24-50 11.41 55.77L152 78.66l-7.15 12c-7.38 12.45-12 24.36-13.85 35.4Z"/><path class="cls-2" d="M135.43 159.15H44.57l1.65-4.15a51.12 51.12 0 0 0 3.48-22.7l-.13-2.18 2-.8c14.22-5.6 27.14-8.44 38.41-8.44 13.9 0 28.55 4.59 38.4 8.44l2 .8-.15 2.2a50.57 50.57 0 0 0 3.55 22.68Z"/><path d="M154.06 62.51a11.27 11.27 0 0 0-11.24 11.23 10.06 10.06 0 0 0 1.81 6.09l-16.81 11.92-8.58-41.68c7.21-3.52 7.47-11.23 3.69-16.64a10.82 10.82 0 0 0-15.78-2.05A11.15 11.15 0 0 0 107 48.7L90 84 73 48.7a11.2 11.2 0 0 0-.17-17.32 10.82 10.82 0 0 0-15.78 2.05c-3.86 5.41-3.6 13.12 3.69 16.64l-8.56 41.68-16.8-11.92a10.76 10.76 0 0 0 1.79-6.09A11.24 11.24 0 1 0 25.94 85c.43 0 .94-.09 1.63-.17C44.29 110.45 53 136.09 40 162.5h100c-13-26.41-4.38-52 12.43-77.69.69.08 1.2.17 1.63.17a11.24 11.24 0 1 0 0-22.47ZM90 156.15H49a50.62 50.62 0 0 0 2.52-8.15v.28L63 140.89l-10.2-6.17c0-.86 0-1.71-.1-2.58 11.3-4.46 24.7-8.23 37.3-8.23 12.43 0 25.9 3.77 37.3 8.23-.06.87-.09 1.73-.11 2.59L117 140.89l11.49 7.38a52.93 52.93 0 0 0 2.47 7.88Zm38.08-30.52c-12.35-4.72-25.39-8.07-38.08-8.07s-25.73 3.35-38.08 8.07c-2.05-12-7.29-24.45-14.23-36.45l18.86 13.29L67.1 50.93 90 98.52l22.9-47.59 10.54 51.54 18.87-13.29c-7.11 12-12.26 24.44-14.23 36.45Z"/><path d="M78.08 138.75 90 146.21l11.92-7.21L90 131.63l-11.92 7.12z"/><path class="cls-2" d="M154.14 68.42c-3.59 0-5.39 1.8-5.39 5.32s1.8 5.32 5.39 5.32 5.32-1.8 5.32-5.32-1.8-5.32-5.32-5.32Zm-39.96-33.79c-3.52 0-5.31 1.81-5.31 5.32s1.79 5.32 5.31 5.32 5.32-1.8 5.32-5.32-1.8-5.32-5.32-5.32Zm-48.37 0c-3.51 0-5.31 1.81-5.31 5.32s1.8 5.32 5.31 5.32 5.33-1.8 5.33-5.32-1.81-5.32-5.33-5.32ZM25.85 68.42c-3.51 0-5.31 1.8-5.31 5.32s1.8 5.32 5.31 5.32 5.4-1.8 5.4-5.32-1.79-5.32-5.4-5.32Z"/></svg>