<svg xmlns="http://www.w3.org/2000/svg" viewBox="0 0 180 180" style="enable-background:new 0 0 180 180" xml:space="preserve"><path style="fill:none" d="M0 0h180v180H0z"/><path d="M160.5 111.9c-.2 0-.4 0-.6.1l-40.5 7.8c-1.7.4-2.9 2-2.8 3.7l.1 3.9v1.6l-1.6.2c-1.1.1-2.3.3-3.6.4l-2 .2v-27.5l2.1.4c3.6.7 7.3 1.3 11 1.9 9 1.3 18.1 2 27.2 2.2h.2l3-68.6h-.1c-10.8 0-25-4-42.3-12l-1-.5v-4.9c.1-3.2-2.5-5.8-5.7-5.9-2.3 0-4.4 1.3-5.3 3.3l-.8 1.6-1.6-.9c-4.5-2.4-7.2-4-7.2-4.1l-.3-.2L83 44.3l-.4 2-1.9-.6c-3.1-1.1-6.7-2.5-10.7-4.3l-6-2.8v-7.5c.1-3.2-2.3-5.9-5.5-6s-5.9 2.3-6 5.5V33l-2.6-1.4c-9.1-4.9-11.1-6.7-11.2-6.8l-.3-.2-16 74.2.1.1c9.7 5.7 30.8 13.1 30.8 13.1l-.1 1.9v12.8l4.3 2-2-.3c-2.9-.4-5.6-.9-8-1.4-5.1-1.1-11.7-3.1-13.9-6.3-.8-1-.9-2.3-.4-3.5.5-1.4.3-3-.5-4.3-.7-1.2-2-2-3.3-2.3-.7-.1-1.4-.2-2.2-.2-4.6 0-8.5 2.7-11 7.5-1.7 3.6-2.4 7.6-2 11.6.4 4.8 1.9 9.4 4.5 13.5 3.2 5.3 7.9 9.5 13.4 12.3 6.6 3.4 14.5 5.1 23.6 5.1h82.2c2.9-.3 5.6-3.1 7.2-5.9v-.1l.1-.1 10.4-14.9.2-.3.4-.2 5.6-3 .2-.1.1-.1c1.1-.9 1.7-2.3 1.7-3.7v-17c-.2-1.5-1.5-3-3.3-3.1zm-62.2 19.4-33.7-1.6.1-15 22.7 1.4 1.8-19.3 9.4 2.6-.3 31.9z" style="fill:#fff"/><path d="M161.2 109h-1.3l-40.8 7.9h-.3l-.5.2c-2.9 1-4.7 3.7-4.6 6.7v2.8c-.4 0-.8.1-1.2.1V106c11.5 2.1 23.3 3.4 35.1 3.8l5.3.5 3.3-74.6-5.2-.3c-9.8-.5-22.4-4.2-37.6-10.9l-.8-.4v-3.2c0-4.8-3.9-8.7-8.8-8.7-3 0-5.6 1.5-7.2 3.8-1.6-.9-2.8-1.5-3.6-2l-6.2-3.6-7 32.2c-4.5-1.7-8.4-3.3-12-5.1l-1.2-.6V31c-.2-4.4-3.7-8-8.2-8.3h-.5c-3.6 0-6.7 2.2-8 5.4-2.4-1.3-4.8-2.7-7.2-4.1l-6.2-3.6-17.6 80.3 3.4 1.8c8.2 4.6 17.2 8.3 26.7 11.1l.2.1v11.2c-9.8-2-12.6-4.3-13.4-5.4-.1-.2-.2-.3-.2-.3 0-.1 0-.2.1-.4.2-.3.3-.8.4-1.4.3-2.1-.1-4-1.2-5.6-1.1-1.8-2.9-3-5.1-3.5h-.3c-.8-.1-1.6-.2-2.6-.2-3.4 0-9.6 1.2-13.6 9.1-3.9 7.6-2.8 19.1 2.6 27.9 4.2 7 15 18.9 39.5 18.9H138c3.6-.4 6.8-2.9 9.4-7.4l10.2-14.7 5.5-3 .5-.2.3-.2c1.8-1.4 2.8-3.6 2.8-6v-17c-.1-3.4-2.4-6.1-5.5-6.5zm-11.6-67.3-2.7 61.5c-11.5-.4-23-1.7-34.2-3.9V31c14.5 6.5 26.9 10 36.9 10.7zm-45.8-23.1c1.3 0 2.4 1.1 2.4 2.3v.2h-.1v83.6h.1v22.5c-1.1.1-2.2.2-3.3.2-.4 0-.9 0-1.3.1V20.3c.3-1 1.2-1.7 2.2-1.7zm-12.6 1.7c1.2.7 2.5 1.4 3.9 2.1v1.7h.1V95c-6.6-2-12.9-4.6-18.5-7.7L86 44.7l5.2-24.4zM66.7 44c3.6 1.6 7.4 3.2 11.7 4.8l-2.2 10.3-6.4 29.2-.5 2.4 2.1 1.2c4.7 2.6 9.6 4.9 14.7 6.8l-.6 14.5c-6-.3-12.3-1-18.8-2.2V44zM26.2 97.2l14.7-67c2.8 1.6 5.6 3.2 8.3 4.7v71.9c-8.1-2.4-15.8-5.6-23-9.6zm29.4-65.9v-.2c.1-1.2 1.1-2.1 2.3-2.1h.2c1.2.1 2.1 1 2.1 2.1v95.2c-1.5-.2-3.1-.3-4.6-.6v-10.5h.1l-.1-83.9zm11 86.2c6.8 1.2 13.4 1.9 19.7 2.2l5.4.5.8-19.4c.8.3 1.6.5 2.5.8l.3.1v26.1h-1.9c-10.8 0-19.6-.3-26.7-.9v-9.4h-.1zm93.6 14.7c0 .3-.1.6-.3.9l-6.7 3.7-11.1 16-.2.2c-1.4 2.5-3.1 4.1-4.4 4.3h-82c-21.4 0-30.5-9.9-34.1-15.8-4.3-7-5.3-16.1-2.4-21.7 1.9-3.7 4.6-5.6 7.9-5.6.4 0 .9.1 1.5.1.5.1.8.4 1 .7.2.3.3.6.3 1.2l-.1.4c-.3 1.1-1.1 3.7 1 6.5 5.4 7.4 26.5 11.1 62.7 11.1h1.9v.1l5.4-.3c.3 0 .7 0 1-.1 5.5-.3 10.7-.8 15.8-1.5l2.8-.4-.1-8.5v-.1c0-.1 0-.1.1-.2l40-7.7v16.7z"/></svg>