
<svg version="1.1" id="Layer_1" xmlns="http://www.w3.org/2000/svg" xmlns:xlink="http://www.w3.org/1999/xlink" x="0px" y="0px"
   viewBox="0 0 180 180" style="enable-background:new 0 0 180 180;" xml:space="preserve">

<style type="text/css">
  .st0{fill:#fff;}
  .st1{opacity:0.2;fill:#040000;enable-background:new    ;}
  .st2{opacity:0.2;fill:#FFFFFF;enable-background:new    ;}
  .st3{fill:#1A1A1A;}
</style>
<title>alpha</title>
<g>
  <g id="Layer_1-2">
    <path class="st0" d="M122.7,132.7c-17.6-11.1-19.4-24.8-20-30.7H77c-0.5,5.8-2.3,19.5-20,30.7c-8,5-12.7,14.7-12.7,26.4v2h91v-2
      C135.4,147.4,130.7,137.7,122.7,132.7z"/>
    <path class="st1" d="M115,127.7c-10.8-7.5-11.5-22.2-12.2-25.5h0.1l-0.3-0.2H76.8v0.4h0.1c0,0,13.2,13.3,24.2,23.7
      c10.5,9.9,26.5,11.3,26.5,11.3S120.5,131.5,115,127.7z"/>
    <path class="st2" d="M46.3,159c4.3-14.3,10.5-16.1,21.8-24.4c7.5-5.5,8.5-22,8.5-22c0.2-0.9-3.8,6.7-8.1,10.4
      c-1.4,1.2-11,7.8-15.1,12.2C46.4,142.6,45.5,161.8,46.3,159z"/>
    <path class="st3" d="M123.9,130.2c-14.8-9.3-17.9-20.5-18.8-26.9l-4.4-3.7v0.3c0.5,4.6,0.8,20.9,21.1,33.7
      c7.5,4.7,11.8,13.7,11.8,24.7h-87c0-11,4.3-20,11.7-24.7c20.3-12.7,20.6-29.1,21-33.7l0.1-0.8l-4.8,3.8h0.3
      c-2.5,17-14.3,24.4-18.8,27.3c-8.6,5.4-13.6,15.6-13.6,28.1v4h95v-4C137.5,145.9,132.5,135.7,123.9,130.2z"/>
    <path class="st0" d="M102.9,46.7h11.2l0.6,1l0.4,0.7c1.4,2.1,2,4.5,2,6.9v1.1l-0.9,0.6l-11.9,7.9c9.9,7.9,11.6,22.4,3.7,32.3
      c-4.3,5.5-10.9,8.7-17.9,8.7l0,0c-12.7,0-23-10.4-22.9-23.1c0-7,3.2-13.6,8.7-17.9L64,57l-1-0.5v-1.1c0-2.5,0.6-4.9,2-6.9l0.4-0.7
      l0.6-1h11.3v-0.2L102.9,46.7C102.9,46.6,102.9,46.7,102.9,46.7z"/>
    <path class="st1" d="M100.8,64.8L100.8,64.8z"/>
    <path class="st1" d="M112.5,77.6c2.9,24-16.1,27.3-16.1,27.3c8.6-4.3,15.1-18.9,7.3-29.8c-5.5-7.8-16.3-10.2-16.3-10.2h13.3
      l0.1-0.1h2.7C103.6,64.8,111.8,71.6,112.5,77.6z"/>
    <path class="st1" d="M103.1,46.3h10.8l3.9,9c0,0-11.3,9.2-17,9.4c1-1.1,8.8-10.2-0.2-16H65.2l0.5-2.5h11.4l0,0L103.1,46.3
      C103.1,46.2,103.1,46.3,103.1,46.3z"/>
    <path class="st2" d="M75.1,55.4c0.6,4.5,4.1,9.5,4.2,9.5l-16.8-9.5H75.1z"/>
    <path class="st2" d="M92.2,103.9c-8-0.7-20.8-10.3-22.3-30c0,0-8.1,11.6,3.1,24.4C81.7,108.4,92.2,103.9,92.2,103.9z"/>
    <path class="st3" d="M79.3,48.9H67c-1.4,2.7-2.2,3.6-2.2,6.7L79.2,65l-1.1,0.7c-9.6,6.6-12,19.6-5.4,29.2
      c3.9,5.7,10.3,9.1,17.2,9.1l0,0c11.6-0.1,20.9-9.6,20.8-21.2c-0.1-6.8-3.4-13.2-9-17.1l-1.1-0.8l14.4-9.3c0-3.1-0.7-4-2.2-6.7
      h-12.3l0.1-0.7l4.7-3.3h10l1.1,2.1l0.4,0.7c1.5,2.3,2.3,5.1,2.2,7.9v2.1l-1.8,1.2l-9.7,6.5c9.8,9.7,9.9,25.6,0.1,35.4
      c-4.7,4.7-11,7.4-17.7,7.4l0,0C76.1,108,65,96.8,65.1,83c0-6.6,2.7-12.9,7.3-17.6l-9.7-6.5l-1.8-1.2v-2.1c0-2.8,0.7-5.5,2.2-7.9
      l0.4-0.7l1.1-2.1h9.6l5.1,3.7V48.9z"/>
    <rect x="73.7" y="44.9" class="st3" width="33.3" height="4.1"/>
  </g>
</g>


</svg>
