
<svg version="1.1" id="Layer_1" xmlns="http://www.w3.org/2000/svg" xmlns:xlink="http://www.w3.org/1999/xlink" x="0px" y="0px"
   viewBox="0 0 180 180" style="enable-background:new 0 0 180 180;" xml:space="preserve">

<style type="text/css">
  .st0{fill:#fff;}
  .st1{opacity:0.2;}
  .st2{fill:#FFFFFF;}
  .st3{fill:#1A1A1A;}
  .st4{opacity:0.2;fill:#040000;enable-background:new    ;}
  .st5{opacity:0.3;fill:#FFFFFF;enable-background:new    ;}
</style>
<title>e</title>
<g id="Layer_2">
  <g id="Layer_1-2">
    <rect x="63.4" y="111" class="st0" width="58.8" height="8.4"/>
    <path class="st0" d="M129.7,113.8c0.4-1.5,0.9-3.4,1.5-5.5c2.4-8.6,5.8-20.3,5.8-28c0-18.1-5.7-33.3-16.6-43.9
      c-9.2-8.9-21.3-14.3-34.1-15.2L74.9,9.7l-0.5-0.5h-0.8c-2.5,0-5,2.3-5.7,5.2l-1.3,6.4c-1.2,2.9-3.3,5-6.6,7.7
      c-2.6,2.1-4.5,4.9-5.6,8L54.1,37c-0.8,2.1-1.4,4-2,5.6c-1.2,4.2-3.1,8.3-5.7,11.9L35.7,69.6c-3.4,4.2-3,9.9,0.9,13.2
      s13.3,5.8,16.6,5.8c0.8,0.1,1.6-0.2,2.2-0.8c1.3-1.4,2.5-2.9,3.4-4.5c2.1-3.3,3.7-5.7,9.2-5.8c8.1,0.1,15.1-7.3,18.4-10.8l0,0
      l2-2.3c1.4,2.2,2.9,5.7,1.9,9.4c-0.5,1.6-1.2,3.1-2.1,4.4c-2.1,2.8-4.6,5.3-7.4,7.4l-0.2,0.1c-7,5.6-18.5,14.9-20.4,28"/>
    <g class="st1">
      <path class="st2" d="M71.1,27.7c7.5-4.6,2.4-16.7,2.4-16.7c-2.2,0-4.2,1.5-4.6,3.7l-1.4,6.4c-1.3,3.1-3.4,5.3-6.9,8.1
        c-2.5,2-4.3,4.6-5.3,7.6l-0.1,0.4c-0.8,2.1-1.4,3.9-2,5.6C52,47.2,50,51.3,47.5,55L36.7,70.2c-0.1,0.1-0.3,0.3-0.4,0.4
        c-2,1.8-2.4,4.9-0.9,7.2c0,0,17.6-21.7,19.9-24.7C59.4,47.5,56.8,36.6,71.1,27.7z"/>
    </g>
    <path class="st3" d="M72.2,36.5c-4.8,2-6.1,10.3-6.1,10.3c4.7-4.1,7,0.6,11.7-3.1C81.7,40.6,76.9,34.6,72.2,36.5z"/>
    <path class="st4" d="M94.5,51.6c-1.7,3.2-5.9,9.8-5.9,9.8s-0.4,1.3-1,3.2c0,0,1.9-0.2,2.3,5.9c0.1,1.6,0.9,7.2,1.9,4.8
      c2.8-6.9,4.8-15.2,4.8-18C96.5,54.4,96.2,48.4,94.5,51.6z"/>
    <path class="st4" d="M85.5,23c0,0,37.8,4.7,37.8,40.8c0,24.2-16.1,31-20.4,47.2c0,0,17.9,0.1,25.8,3.9c0,0,8.5-23,8.5-36.6
      C137.2,64.3,126.7,21.9,85.5,23z"/>
    <path class="st4" d="M71.6,75.8c-8.4-4.1-10.6-9.1-13.8,0.7c-3.1,9.4-7.9,11-4.7,12s7.2-9.7,9.9-9.9
      C65.8,78.4,74.7,77.3,71.6,75.8z"/>
    <path class="st3" d="M82,89c3-2.2,5.6-4.8,7.8-7.8c1.1-1.5,1.9-3.2,2.4-5c1.7-5.9-2.1-11.2-3.5-12.8l-3.5,4.1
      c-3.6,3.7-9.9,10.3-17.1,10.3c-9.3,0-9.5,6.6-13.9,10.8c-0.3,0.2-0.6,0.2-0.9,0.2c-3,0-12-2.5-15.4-5.4c-3-2.5-3.4-7.2-0.6-10.7
      L48,57.5c4.8-7,5.1-10.8,7.8-17.9c1-3,2.8-5.7,5.2-7.7c3.5-2.9,5.8-5.2,7.2-8.6l1.4-6.5c0.5-2,2.2-3.8,3.9-3.8l0,0l0,0l0,0
      L85.5,25c23.4,1.6,49.5,18.6,49.5,57.4c0,10-6.1,28.1-7.6,34.2l4.6-2.1h-0.1c0.3-1.1,0.7-2.4,1-3.7c2.5-8.7,5.8-20.5,5.8-28.5
      c0-39-25.7-58.6-51.6-60.9l-11-11l-1.1-1.1h-1.5c-3.4,0-6.6,2.9-7.5,6.7v0.1l-1.3,6.1c-1.1,2.5-2.9,4.3-6,6.8
      c-2.8,2.3-5,5.3-6.2,8.8l-0.1,0.4c-0.9,2.2-1.5,4-2,5.7c-1.2,4.1-3,8-5.4,11.5l-10.7,15c-3.9,5-3.5,11.8,1.1,15.7
      c4.3,3.6,14.2,6.2,17.8,6.2c1.3,0.1,2.5-0.4,3.5-1.2c1.4-1.5,2.7-3.1,3.7-4.8c2-3.2,3.1-4.9,7.6-4.9c8.9,0,16.2-7.7,19.8-11.5
      l0.1-0.1l0.1-0.1l0.2-0.3c0.8,1.7,0.9,3.7,0.5,5.6c-0.4,1.4-1,2.7-1.9,3.9c-2,2.7-4.4,5-7,7l-0.2,0.1
      c-6.9,5.6-18.2,14.7-20.8,27.8l3.2,3.1C63.2,104.1,75.2,94.6,82,89z"/>
    <path class="st0" d="M129.3,117.1c8.7,3.1,13.1,8.3,14.2,16.8v0.1l2,23.5l0.1,1.5l-1.4,0.7c-5.5,2.9-11.6,4.4-17.8,4.4h-1.7
      l-0.6-1.6l-6.1-17.2h-5.8l-3.4,19.8l-0.3,1.7l-1.7,0.2c-4.2,0.6-8.4,0.9-12.6,1c-4.2-0.1-8.4-0.4-12.6-1l-1.7-0.2l-0.3-1.7
      l-3.4-19.8h-5.8l-6.1,17.2l-0.6,1.6h-1.6c-6.2,0-12.3-1.5-17.7-4.4l-1.4-0.7l0.1-1.5L45,134v-0.1c1.2-8.4,5.6-13.7,14.2-16.8"/>
    <path class="st5" d="M58.6,163.9c-12.8-8.6-8-40.8-8-40.8c-8.2,2.6-8,37.1-8,37.1S62.2,166.3,58.6,163.9z"/>
    <path class="st5" d="M98.1,166.4c-14.3-2.6-19.8-22.9-19.8-22.9c1,15.2,4.2,24,4.2,24S102.1,167.1,98.1,166.4z"/>
    <path class="st5" d="M136.1,162.2c-9.3-4.8-16.4-18.7-16.4-18.7c-0.5,5,6.5,22.2,6.5,22.2S139.6,164,136.1,162.2z"/>
    <path class="st4" d="M128.6,115.8c0,0,4.4,4,6,4c12.7-0.3,10.4,38.3,10.4,38.3l-7.6,4.7c-2.1-12.3-4.8-31.5-10.9-36.7
      c-5.6-4.8-9-6-9.9-6.2c-1.6,0.2-3.4,0.4-5.3,0.5c-17.3,1.5-42.4-3.3-42.4-3.3"/>
    <path class="st3" d="M61,113.1L61,113.1c11,1.6,22.1,2.6,33.2,2.9c11.1-0.3,22.2-1.3,33.1-2.9v-0.4l4.7,1.1l0,0
      c8.5,3.6,12.9,9.6,14.1,18.7v0.3l2.1,24.5l0.3,3.2l-2.8,1.5c-5.8,3.2-12.4,4.9-19,4.8h-3.8L122,163l-3.5-15.7h-6.3l-2.1,18.2
      l-0.4,3.6l-3.6,0.6c-3.9,0.6-7.9,1-11.9,1.1c-4-0.1-8-0.4-11.9-1.1l-3.6-0.6l-0.4-3.6l-2.1-18.2h-6.2L66.3,163l-0.9,3.8h-3.8
      c-6.6,0-13.2-1.6-19-4.8l-2.8-1.5l0.2-3.2l2-24.4v-0.3c1.2-9.1,5.6-15,14.1-18.7v-0.1L61,113.1L61,113.1z M46.9,133.3L46.9,133.3
      l-2,24.4c5.1,2.8,10.9,4.3,16.8,4.2l4.3-19.5h14.4l2.5,22.5c3.7,0.6,7.4,0.9,11.2,1c3.7-0.1,7.4-0.4,11.1-1l2.6-22.5h14.5
      l4.3,19.5c5.9,0,11.7-1.4,16.8-4.2l-2-24.4c-0.9-7-4-12.1-12.6-15.4c-11.5,1.8-23,2.8-34.6,3.1c-11.6-0.3-23.1-1.3-34.6-3.1
      C50.9,121.1,47.8,126.3,46.9,133.3z"/>
  </g>
</g>
</svg>
