
<svg version="1.1" id="Layer_1" xmlns="http://www.w3.org/2000/svg" xmlns:xlink="http://www.w3.org/1999/xlink" x="0px" y="0px"
   viewBox="0 0 180 180" style="enable-background:new 0 0 180 180;" xml:space="preserve">

<style type="text/css">
  .st0{fill:#fff;}
  .st1{opacity:0.2;fill:#FFFFFF;enable-background:new    ;}
  .st2{opacity:0.2;fill:#040000;enable-background:new    ;}
  .st3{fill:#1A1A1A;}
</style>
<title>s</title>
<g id="Layer_2">
  <g id="Layer_1-2">
    <path class="st0" d="M61.1,47.6c-1,8.6-5.7,48.9-7,58.4C39.6,109.5,39.7,119,39.7,130v3.6h101.6V130c0-11,0.1-20.5-14.5-23.9
      c-1.2-9.6-5.9-49.9-6.9-58.4"/>
    <path class="st1" d="M90.5,111.6c43.1,0,47.5,4.8,47.5,4.8h0.6c-1.9-10.2-24.4-11.3-24.4-11.3H67c0,0-23.4,0.8-24.7,11.3H43
      C43,116.3,47.4,111.6,90.5,111.6z"/>
    <path class="st2" d="M69.2,47.6c0,0,21.4-1.3,32.3,12.4s12,43.4,12,43.4c7.2,1.3,12.5,2.8,12.5,2.8l-6.7-57.4"/>
    <path class="st3" d="M140.7,114.5c-2.2-4.7-6.2-7.7-12.5-9.5c-1.3-10.9-5.4-45-6.6-55.5h0.1l-2.9-3.2c-9.5-1.4-19.1-2.3-28.7-2.5
      c-9.6,0.3-19.2,1.1-28.7,2.5l-3.2,3.2l0.2,0.1c-1.2,10.5-5.2,44.7-6.6,55.5c-6.3,1.7-10.3,4.8-12.5,9.5c-2.2,4.7-2.1,9.9-2.1,16.1
      v5.6h105.6v-5.6C142.8,124.5,142.8,119.1,140.7,114.5z M62.4,50.2L62.4,50.2c9.1-1.4,18.4-2.2,27.6-2.4c9.2,0.2,18.5,1.1,27.6,2.4
      c1.2,10.3,4.9,41.9,6.4,54c-0.7-0.1-1.4-0.2-2.1-0.3c-10.6-1.2-21.2-1.8-31.9-1.7c-10.6-0.1-21.3,0.5-31.8,1.7
      c-0.8,0.1-1.5,0.2-2.1,0.3C57.5,92.1,61.2,60.5,62.4,50.2z M138.8,132.2L138.8,132.2H41.2c0-11.8-0.7-20.3,12.7-23.5l0.3-0.1
      l1-0.2c1-0.2,2.2-0.4,3.4-0.6c10.4-1.2,20.9-1.7,31.4-1.6c10.5-0.1,21,0.5,31.4,1.6c1.2,0.2,2.3,0.3,3.3,0.5l1.1,0.2h0.2
      C139.5,111.9,138.8,120.4,138.8,132.2L138.8,132.2z"/>
  </g>
</g>
</svg>
