
<svg version="1.1" id="Layer_1" xmlns="http://www.w3.org/2000/svg" xmlns:xlink="http://www.w3.org/1999/xlink" x="0px" y="0px"
   viewBox="0 0 180 180" style="enable-background:new 0 0 180 180;" xml:space="preserve">

<style type="text/css">
	.st0{fill:none;}
	.st1{fill:#BF3B43;}
	.st2{opacity:0.2;fill:#FFFFFF;}
	.st3{fill:#1A1A1A;}
	.st4{opacity:0.2;enable-background:new    ;}
	.st5{opacity:0.2;fill:#FFFFFF;enable-background:new    ;}
</style>
<title>u</title>
<g>
	<rect class="st0" width="180" height="180"/>
	<g>
		<path class="st1" d="M142.6,101.4c-0.8-0.3-1.6-0.3-2.3-0.3c1.6-5.9,9.3-10.3,18.7-10.2c0.1-6.9-8.2-12.6-18.5-12.8
			c-0.6,0-1.2,0.1-1.7,0.2c1.2-5.4,7-10.6,14.8-12.7c-1.8-6.7-11.4-9.8-21.4-7.1c-0.5,0.1-0.9,0.3-1.3,0.5c0-5.2,3.6-11.4,9.8-15.7
			c-4-5.7-14-5.4-22.5,0.5c-0.9,0.6-1.6,1.5-2,2.4c-1.2-5,0.7-11.8,5.4-17.5c-5.3-4.4-15-1.6-21.6,6.3c-5.9,7,8.2,20.2,16.2,18
			c1.7,5.4,6.5,11,11.2,12.1c-0.8,6.1,2.3,14.5,7.1,16.9c-3.3,6-2.5,17.1,2.7,20.2c-6.7,4.5-10.3,20.1-2.4,22.8
			c2.2-6.5,12-9.2,21.8-5.8C158.6,112.7,152.4,104.7,142.6,101.4z"/>
		<g>
			<path class="st2" d="M142.6,101.4c-7.6-2.6-14.2,11.2-12.1,19c1.4-6.9,6.4-13.9,12.1-12c6.4,2.1,11.2,6.3,13.2,10.7
				c0.2,0.1,0.4,0.1,0.6,0.2C158.6,112.7,152.4,104.7,142.6,101.4z"/>
			<path class="st2" d="M132.7,94.4c0.8-5,3.4-9.3,7.7-9.2c6.6,0.1,12.3,2.5,15.6,5.9c1-0.1,1.9-0.1,2.9-0.1
				c0.1-6.9-8.2-12.6-18.5-12.8C134.2,78,131.5,87.1,132.7,94.4z"/>
			<path class="st2" d="M149.3,67.2c1.3-0.6,2.7-1.1,4.2-1.5c-1.8-6.7-11.4-9.8-21.4-7.1c-4.5,1.2-5.6,6.8-4.6,12.3
				c0.6-2.6,2.1-4.7,4.6-5.3C138.8,63.7,145.2,64.5,149.3,67.2z"/>
			<path class="st2" d="M136.3,47.1c1.3-1.3,2.7-2.6,4.3-3.7c-4-5.7-14-5.4-22.5,0.5c-2.8,2-3.1,5.6-1.9,9.3c0.4-0.9,1-1.7,1.9-2.3
				C124.3,46.5,131.4,45.3,136.3,47.1z"/>
			<path class="st2" d="M121.6,28.8c-5.3-4.4-15-1.6-21.6,6.3c-1.8,2.2-1.7,4.9-0.5,7.6c0.1-0.2,0.3-0.4,0.5-0.6
				c5.4-6.4,12.8-9.5,18.2-8.1C119,32.3,120.2,30.5,121.6,28.8z"/>
		</g>
		<path class="st3" d="M154.7,80.4c-3.5-2.4-8.1-3.9-13.1-4.2c2.1-3.7,6.7-7.1,12.4-8.6c1.1-0.3,1.7-1.4,1.4-2.5
			c-1.1-3.9-4.2-6.9-8.9-8.4c-4-1.3-8.6-1.5-13.3-0.5c0.1-0.5,0.3-1,0.5-1.5c1.4-3.6,4.3-7,8-9.7c0.4-0.3,0.7-0.8,0.8-1.3
			s0-1.1-0.3-1.5c-4.5-6.5-15.1-6.6-24.5-0.5c0,0,0-0.1,0-0.1c0.4-3.8,2.3-7.9,5.3-11.4c0.3-0.4,0.5-0.9,0.5-1.5
			c0-0.5-0.3-1-0.7-1.4c-6.2-5.2-17-2.4-24.5,6.5c-2,2.4-2.4,5.6-1.1,9c1,2.7,3.1,5.5,5.9,7.8c3.2,2.7,7.4,4.7,11.1,4.7
			c0.2,0,0.4,0,0.6,0c0.6,1.5,1.5,3,2.4,4.4c2.1,3,4.9,5.6,8,6.9c-0.1,5.4,2.1,11.8,5.6,15.3c0.3,0.3,0.7,0.6,1,0.9
			c-0.9,2.3-1.4,5-1.4,7.6c-0.1,4.4,1,9,3.5,11.8c-2,2.1-3.6,4.9-4.6,7.8c-2.2,6.6-1.7,14.7,4.6,16.9c0.2,0.1,0.4,0.1,0.6,0.1
			c0.3,0,0.6-0.1,0.9-0.2c0.5-0.2,0.8-0.6,1-1.2c0.8-2.5,3.2-4.4,6.7-5.3c3.7-1,8.2-0.7,12.6,0.7c0.5,0.2,1.1,0.1,1.5-0.1
			c0.5-0.2,0.8-0.6,1-1.2c2.6-7.7-4-16.7-15-20.4c0,0-0.1,0-0.1,0c2.5-3.8,8.5-6.5,15.3-6.5c0.1,0,0.3,0,0.4,0c1.1,0,2-0.9,2-2
			C161,86.9,158.8,83.2,154.7,80.4z M105.8,47.6c-2.2-1.9-3.9-4.1-4.7-6.2c-0.8-2-0.6-3.7,0.4-5c4.1-4.9,9.5-7.7,13.9-7.7
			c1.2,0,2.3,0.2,3.2,0.6c-2.7,3.7-4.3,7.8-4.8,11.8c-0.2,1.8-0.1,3.5,0.2,5c-0.6,1.6-0.6,3.4-0.3,5.2
			C111.2,51.2,108.2,49.7,105.8,47.6z M120.5,57.4c-0.7-1-1.4-2.2-1.9-3.3c0.7-0.4,1.3-1,1.9-1.7c0.3-0.4,0.5-0.9,0.5-1.5
			c0-0.5-0.3-1-0.7-1.4c-1-0.8-1.7-1.9-2.1-3.2c0.3-0.4,0.6-0.7,1-1c4-2.8,8.5-4.2,12.2-4.2c2.4,0,4.6,0.6,6.2,1.8
			c-3.5,2.9-6.2,6.4-7.6,10.1c-0.6,1.6-1,3.2-1.1,4.7c-1.4,1.1-2.4,2.6-3,4.5C124,61.4,122,59.6,120.5,57.4z M133.7,79.1
			c-2.6-2.6-4.4-7.5-4.4-11.7c1.5,0,3-0.5,4.4-1.4c0.4-0.3,0.7-0.8,0.8-1.3s0-1.1-0.3-1.5c-0.6-0.8-1-1.8-1.1-2.9
			c2.1-0.6,4.3-0.9,6.3-0.9c2.1,0,4.2,0.3,6,0.9c2.6,0.9,4.5,2.2,5.5,3.9c-7.1,2.5-12.2,7.3-13.8,12.5c-1.2,0.6-2.2,1.4-3.1,2.5
			C133.8,79.3,133.8,79.2,133.7,79.1z M154.8,116.7c-4.4-1.1-8.8-1.2-12.7-0.2c-3.8,1-6.7,3-8.4,5.7c-2.1-2.1-2-6.7-0.6-10.9
			c0.9-2.7,2.4-5.2,4.1-6.8c0.8,0.3,1.7,0.5,2.7,0.5c0,0,0,0,0,0c0.5,0,1-0.2,1.4-0.6c0.4-0.3,0.6-0.8,0.6-1.3c0,0,0,0,0,0
			C149.6,105.9,155,111.6,154.8,116.7z M138.8,99.3c-0.5,0.1-1,0.3-1.5,0.6c-1.9-1.9-2.9-5.6-2.8-9.4c0-2.1,0.4-4.2,1-5.9
			c0.6,0.1,1.2,0.2,1.7,0.2c0.7,0,1.4-0.1,2.1-0.3c1.1-0.3,1.7-1.4,1.4-2.5c-0.2-0.6-0.2-1.3-0.2-2c4.6,0.1,8.8,1.3,12,3.5
			c2.2,1.5,3.7,3.4,4.2,5.3C148,89.5,141,93.6,138.8,99.3z"/>
	</g>
	<g>
		<path class="st1" d="M73.1,20.3h-0.8c-2.7,0-5.4,2.5-6.2,5.6l-1.4,6.9c-1.3,3.1-3.5,5.4-7.1,8.3c-2.8,2.3-4.9,5.3-6.1,8.7
			l-0.2,0.4c-0.9,2.3-1.6,4.3-2.2,6.1c-1.3,4.6-3.4,8.9-6.1,12.9L31.4,85.5c-3.6,4.5-3.2,10.8,0.9,14.3s14.4,6.3,17.9,6.3
			c0.9,0.1,1.7-0.2,2.4-0.8c1.4-1.5,2.7-3.1,3.7-4.8c2.3-3.6,4-6.2,9.9-6.2c8.7,0,16.3-7.9,19.9-11.8l0,0l0,0l2.2-2.5
			c1.5,2.3,3.1,6.1,2,10.1c-0.5,1.7-1.3,3.3-2.3,4.8c-2.3,3-5,5.7-8,8l-0.2,0.2c-7.5,6.1-20,16.2-22.1,30.3
			c-13.3,3.6-13.3,12.9-13.3,23.6v3.6h101.6v-3.6c0-10.7,0.1-20-13.3-23.6c0.4-1.6,1-3.6,1.6-5.9c2.6-9.2,6.2-21.9,6.2-30.2
			c0-19.6-6.2-36-17.9-47.5c-9.9-9.6-23-15.5-36.8-16.5L73.7,20.8L73.1,20.3z"/>
		<g>
			<path class="st3" d="M70.8,49.8c-5.2,2.1-6.6,11.1-6.6,11.1c5.1-4.4,7.5,0.7,12.6-3.4C81,54.2,75.9,47.7,70.8,49.8z"/>
			<g>
				<path class="st4" d="M94.9,66.1c-1.8,3.5-6.3,10.6-6.3,10.6s-0.5,1.4-1.1,3.5c0,0,2.1-0.2,2.5,6.4c0.1,1.7,0.9,7.8,2,5.2
					c3-7.4,5.2-16.4,5.1-19.5S96.7,62.6,94.9,66.1z"/>
				<path class="st4" d="M85.2,35.2c0,0,40.8,5.1,40.8,44.1c0,26.1-17.4,33.4-22,51c0,0,19.3,0.1,27.9,4.2c0,0,9.2-24.8,9.2-39.6
					C141.1,79.8,129.6,34,85.2,35.2z"/>
				<path class="st4" d="M70.1,92.2c-9.1-4.5-11.4-9.8-14.9,0.7c-3.4,10.2-8.5,11.9-5.1,13s7.7-10.4,10.8-10.6S73.5,93.9,70.1,92.2z
					"/>
			</g>
			<g>
				<path class="st5" d="M95.7,138.4c43.1,0,47.5,4.8,47.5,4.8h0.6c-1.9-10.2-24.5-11.3-24.5-11.3H72.2c0,0-23.4,0.8-24.7,11.3h0.6
					C48.2,143.2,52.6,138.4,95.7,138.4z"/>
				<path class="st2" d="M69.6,40.2c8.1-5,2.6-18,2.6-18c-2.4,0-4.5,1.6-5,4l-1.5,6.9c-1.4,3.4-3.7,5.7-7.5,8.8
					c-2.7,2.1-4.7,5-5.8,8.3l-0.2,0.4c-0.9,2.3-1.5,4.2-2.1,6c-1.3,4.7-3.4,9.1-6.2,13.1L32.4,86.1c-0.2,0.2-0.3,0.3-0.4,0.5
					c-2.2,2-2.6,5.3-1,7.7c0,0,19-23.4,21.5-26.7C57,61.6,54.2,49.8,69.6,40.2z"/>
			</g>
			<path class="st3" d="M72.2,22.3l12.9,12.9c25.3,1.7,53.5,20.1,53.5,62c0,11.1-7,31.5-8.3,37.6c14.4,3.1,13.7,11.6,13.7,23.8H46.5
				c0-12-0.7-20.5,13.1-23.6c1.4-14.2,14.4-24.5,21.7-30.5c3.2-2.4,6-5.2,8.4-8.4c1.1-1.6,2-3.5,2.6-5.4c1.8-6.4-2.3-12.1-3.8-13.9
				l-3.8,4.4C80.8,85.1,74,92.2,66.2,92.2c-10,0.1-10.3,7.1-15,11.7c-0.3,0.2-0.7,0.2-1,0.2c-3.3,0-12.9-2.7-16.6-5.8
				c-3.2-2.7-3.6-7.8-0.6-11.5l11.7-16.5c5.2-7.6,5.5-11.7,8.5-19.3c1-3.3,3-6.1,5.6-8.3c3.8-3.2,6.3-5.6,7.8-9.3l1.5-7
				C68.6,24.2,70.5,22.3,72.2,22.3 M73.9,18.3h-1.7c-3.7,0-7.2,3.1-8.1,7.2v0.1l-1.4,6.6c-1.2,2.7-3.1,4.6-6.5,7.4
				c-3.1,2.5-5.4,5.8-6.7,9.5l-0.2,0.4c-0.9,2.3-1.6,4.4-2.2,6.2C46,60.1,44,64.2,41.4,68L29.8,84.3c-4.3,5.3-3.8,12.8,1.2,17
				c4.6,3.9,15.4,6.8,19.2,6.8c1.4,0.1,2.8-0.4,3.8-1.3c1.5-1.6,2.9-3.3,4-5.2c2.2-3.4,3.4-5.3,8.3-5.3c9.6,0,17.5-8.4,21.3-12.4
				l0.1-0.1l0.1-0.1l0.3-0.3c0.8,1.9,1,4,0.5,6c-0.4,1.5-1.1,2.9-2,4.2c-2.2,2.9-4.7,5.4-7.6,7.6l-0.2,0.2
				c-7.5,6.1-19.8,16.1-22.6,30.3c-5.8,1.8-9.6,5-11.6,9.5s-2,9.7-1.9,15.7v5.6h105.5v-5.6c0-6.1,0-11.3-2-15.9
				c-2-4.3-5.4-7.3-10.8-9.1c0.3-1.2,0.7-2.6,1.1-4c2.7-9.4,6.3-22.2,6.3-30.8C142.7,55,115,33.8,87,31.3L75.1,19.4L73.9,18.3
				L73.9,18.3z"/>
		</g>
		<path class="st3" d="M95.7,132.4c10.5-0.1,21,0.4,31.4,1.6c1.7,0.2,3.5,0.6,5.2,1l0.7-4c-1.8-0.4-3.5-0.8-5.3-1
			c-10.6-1.2-21.2-1.8-31.9-1.7l0,0c-10.6-0.1-21.3,0.5-31.9,1.7c-1.9,0.2-3.7,0.6-5.6,1l0.8,3.9c1.7-0.4,3.5-0.8,5.3-1
			C74.8,132.8,85.2,132.3,95.7,132.4z"/>
	</g>
</g>
</svg>
