
<svg version="1.1" id="Layer_1" xmlns="http://www.w3.org/2000/svg" xmlns:xlink="http://www.w3.org/1999/xlink" x="0px" y="0px"
   viewBox="0 0 180 180" style="enable-background:new 0 0 180 180;" xml:space="preserve">

<style type="text/css">
  .st0{fill:#fff;}
  .st1{opacity:0.2;fill:#FFFFFF;enable-background:new    ;}
  .st2{opacity:0.2;fill:#040000;enable-background:new    ;}
  .st3{fill:#1A1A1A;}
</style>
<title>z</title>
<g>
  <path class="st0" d="M55.6,97.6c-0.7,5.9-4,33.8-4.8,40.4c-10,2.4-10,9-10,16.5v2.5h70.2v-2.5c0-7.6,0-14.1-10-16.5
    c-0.8-6.6-4.1-34.4-4.8-40.4"/>
  <path class="st1" d="M75.8,141.7c29.7,0,32.8,3.3,32.8,3.3h0.4c-1.3-7.1-16.9-7.8-16.9-7.8H59.7c0,0-16.1,0.6-17.1,7.7H43
    C43,144.9,46.1,141.7,75.8,141.7z"/>
  <path class="st2" d="M61.2,97.5c0,0,14.8-0.9,22.3,8.6c7.5,9.5,8.3,30,8.3,30c4.9,0.9,8.6,2,8.6,2l-4.6-39.7"/>
  <path class="st3" d="M110.5,143.8c-1.5-3.2-4.2-5.3-8.7-6.5c-0.9-7.5-3.7-31.1-4.5-38.4l0,0l-2-2.3c-6.6-1-13.2-1.6-19.8-1.8
    C69,95,62.4,95.6,55.8,96.6l-2.2,2.2l0.2,0.1c-0.8,7.3-3.6,30.8-4.5,38.4c-4.3,1.2-7.2,3.3-8.7,6.5c-1.5,3.2-1.5,6.9-1.5,11.1v4h73
    V155C112.1,150.6,112.1,146.9,110.5,143.8z M56.5,99.3L56.5,99.3c6.3-0.9,12.7-1.5,19-1.7c6.4,0.2,12.7,0.8,19,1.7
    c0.8,7.2,3.4,28.9,4.4,37.2c-0.5-0.1-0.9-0.2-1.5-0.2c-7.3-0.8-14.6-1.2-22-1.1c-7.4-0.1-14.7,0.3-22,1.1c-0.5,0.1-1,0.1-1.5,0.2
    C53.1,128.2,55.7,106.4,56.5,99.3z M109.2,156L109.2,156H41.9c0-8.2-0.5-14.1,8.8-16.2l0.2-0.1l0.7-0.2c0.7-0.2,1.5-0.3,2.4-0.4
    c7.2-0.8,14.4-1.2,21.7-1.1c7.3-0.1,14.4,0.3,21.7,1.1c0.8,0.1,1.6,0.2,2.3,0.4l0.8,0.2h0.2C109.7,141.9,109.2,147.7,109.2,156
    L109.2,156z"/>
  <path class="st0" d="M94.7,94.6c4.8-4.1,11.3-12.7,11.3-27.1c0-14.1-9.3-24.8-15.3-30.7l-1.2-1.3l-0.9,1.5c-1,1.8-6.1,10-6.3,30.8
    h-9.4C73.2,36.7,85.3,25,85.4,24.9l0.5-0.5l-0.1-0.7c-0.4-4.6-4.2-8.3-8.9-8.3l0,0c-4.9,0-9,4-9,9c0,2.3,0.8,4.4,2.4,6
    c-3.7,3-7,6.3-10,9.9c-7.5,8.9-11.5,18.3-11.5,27.1c0,14.3,6.5,23,11.3,27.1"/>
  <path class="st2" d="M96,43.5c15.7,38.1-18.7,49.6-18.7,49.6l17.4,1.4c-1.7,1.3,11-3.6,11-28.6C105.7,57.5,102.2,49.3,96,43.5z"/>
  <path class="st1" d="M72.4,30.5c-1.9-0.8-19.8,14.2-22.7,29.6c-2.7,14.3,2.2,18.4,1.9,18.2c0-0.1,1.9-31.6,22.6-47.1
    C74.3,31.4,73.5,31,72.4,30.5z"/>
  <path class="st1" d="M78.1,16.8c-3,0.3-8.1,4.6-8.6,10.6c0,0-4.1-3.9,0-8.6C72.8,15,78.1,16.8,78.1,16.8z"/>
  <path class="st2" d="M76,43.2c1.3-3.5,9.7-20.1,9.7-20.1L82,16.8h-2c6.3,7.7-12.4,25.6-12.4,38.9c0,4,0.9,11.9,3.9,13.3
    C71.4,69.1,73.4,50.4,76,43.2z"/>
  <path class="st3" d="M63.5,95.9c-3.5-1.6-14.1-10-14.1-28.2c0-20.7,22.2-36.9,22.2-36.9c-3.4-2.5-4.1-7.2-1.7-10.6
    s7.2-4.1,10.6-1.7c1.8,1.3,3,3.4,3.1,5.6c0,0-12.9,12.3-12.9,45.3h12.3c0-20.7,4.8-29.2,6.1-31.5c6.5,6.5,14.9,16.6,14.9,29.8
    c0,18-10.5,26.4-14,28.1l7.4-2.4c4.5-4.8,9.4-13.3,9.4-25.8c0-10.8-5.1-21.2-15.7-31.8l-2.6-2.4l-1.8,3.1c-4,6.7-6.2,17.1-6.5,30.2
    h-6.7c0.4-14.8,3.5-24.9,6-30.7c3-6.8,6-9.7,6-9.7l0.9-0.9L86.4,24c-0.4-5.4-4.9-9.5-10.3-9.5l0,0c-5.7,0-10.3,4.6-10.3,10.3
    c0,2.1,0.7,4.1,1.9,5.9c-3.3,2.8-6.3,5.8-9.1,9.1c-7.7,9.1-11.8,18.9-11.8,28c0,12.4,4.7,20.7,9.1,25.6L63.5,95.9L63.5,95.9z"/>
  <path class="st3" d="M76.7,96.4c6.2,0,11.9,0.2,17,0.7l1.3-2.6c-5.3-0.5-11.3-0.8-18.3-0.8l0,0c-7.1,0-13.1,0.3-18.5,0.8l0.8,2.7
    C64.3,96.5,70.2,96.4,76.7,96.4z"/>

    <rect x="56.5" y="90.4" transform="matrix(0.7506 -0.6608 0.6608 0.7506 -47.5571 61.5646)" class="st3" width="2.5" height="6.7"/>

    <rect x="91.8" y="92.6" transform="matrix(0.7071 -0.7071 0.7071 0.7071 -38.4906 94.7395)" class="st3" width="6.7" height="2.5"/>
</g>
<g>
  <path class="st0" d="M84.6,104.3c-0.6,5.9-3.9,33.8-4.9,40.4c-10,2.3-10,8.9-10,16.6v2.5h70.1v-2.5c0-7.7,0-14.1-10-16.6
    c-0.8-6.6-4.1-34.4-4.9-40.4"/>
  <path class="st1" d="M104.8,148.4c29.7,0,32.9,3.3,32.9,3.3h0.3c-1.3-7-16.9-7.8-16.9-7.8H88.5c0,0-16.1,0.6-17.1,7.8h0.5
    C71.9,151.7,75.1,148.4,104.8,148.4z"/>
  <path class="st2" d="M90.1,104.3c0,0,14.7-0.9,22.4,8.6s8.3,29.9,8.3,29.9c5,0.9,8.6,1.9,8.6,1.9l-4.7-39.7"/>
  <path class="st3" d="M139.5,150.5c-1.6-3.3-4.2-5.3-8.6-6.6c-0.9-7.5-3.8-31.1-4.5-38.3l0,0l-2-2.2c-6.6-0.9-13.1-1.6-19.9-1.7
    c-6.6,0.2-13.3,0.8-19.9,1.7l-2.2,2.2h0.2c-0.8,7.4-3.6,30.8-4.5,38.3c-4.4,1.3-7.2,3.3-8.6,6.6c-1.6,3.3-1.6,6.9-1.4,11.1v3.9
    h72.9v-3.9C140.9,157.4,140.9,153.6,139.5,150.5z M85.4,106L85.4,106c6.3-0.9,12.7-1.6,19.1-1.7c6.4,0.2,12.7,0.8,19.1,1.7
    c0.8,7,3.4,28.9,4.4,37.2c-0.5-0.2-0.9-0.2-1.4-0.2c-7.4-0.8-14.7-1.3-22.1-1.1c-7.4,0-14.7,0.3-22.1,1.1l-1.4,0.2
    C82.1,135,84.6,113.2,85.4,106z M138.1,162.7L138.1,162.7H70.8c0-8.1-0.5-14.1,8.8-16.3h0.3l0.6-0.2c0.6-0.2,1.6-0.3,2.3-0.3
    c7.2-0.8,14.4-1.3,21.8-1.1c7.2,0,14.4,0.3,21.6,1.1c0.8,0.2,1.6,0.2,2.3,0.3l0.8,0.2h0.2C138.7,148.6,138.3,154.5,138.1,162.7
    L138.1,162.7z"/>
  <path class="st0" d="M123.6,101.2c4.9-4.1,11.4-12.7,11.4-27.1c0-14.1-9.4-24.9-15.3-30.8l-1.3-1.3l-0.9,1.6
    c-1.1,1.7-6.1,10-6.3,30.8h-9.4c0.3-31.1,12.4-42.9,12.7-42.9l0.5-0.5v-0.6c-0.3-4.7-4.2-8.3-8.9-8.3l0,0c-5,0-8.9,4.1-8.9,8.9
    c0,2.2,0.8,4.4,2.3,6.1c-3.6,3-7,6.3-10,9.9C81.9,56,78,65.3,78,74.1c0,14.4,6.6,23,11.4,27.1"/>
  <path class="st2" d="M125,50.3c15.6,38-18.8,49.6-18.8,49.6l17.4,1.4c-1.7,1.3,11.1-3.6,11.1-28.6C134.7,64.1,131.2,56.1,125,50.3z
    "/>
  <path class="st1" d="M101.3,37.3c-1.9-0.8-19.7,14.2-22.7,29.6c-2.8,14.4,2.2,18.3,1.9,18.3c0-0.2,1.9-31.6,22.7-47.1
    C103.2,38.1,102.4,37.8,101.3,37.3z"/>
  <path class="st1" d="M107,23.6c-3,0.3-8.1,4.5-8.6,10.6c0,0-4.1-3.9,0-8.6C101.8,21.7,107,23.6,107,23.6z"/>
  <path class="st2" d="M104.9,49.9c1.3-3.4,9.7-20,9.7-20l-3.8-6.4h-2c6.4,7.8-12.5,25.5-12.5,39c0,3.9,0.9,11.9,3.8,13.3
    C100.4,75.8,102.3,57.2,104.9,49.9z"/>
  <path class="st3" d="M92.4,102.6c-3.4-1.6-13.9-10-13.9-28.2c0-20.8,22.2-36.8,22.2-36.8c-3.4-2.5-4.2-7.2-1.7-10.5
    c2.5-3.4,7.2-4.2,10.5-1.7c1.7,1.3,3,3.3,3.1,5.5c0,0-13,12.2-13,45.4h12.2c0-20.7,4.9-29.3,6.1-31.5c6.6,6.6,14.9,16.6,14.9,29.7
    c0,18-10.5,26.4-13.9,28.2l7.4-2.3c4.5-4.9,9.4-13.3,9.4-25.8c0-10.8-5.2-21.3-15.6-31.8l-2.5-2.5l-1.7,3.1
    c-3.9,6.7-6.3,17.1-6.4,30.2h-6.7c0.3-14.9,3.4-24.9,6.1-30.8c3-6.7,5.9-9.7,6.1-9.7l0.9-0.9l-0.2-1.3c-0.5-5.3-4.9-9.5-10.3-9.5
    l0,0c-5.6,0-10.3,4.5-10.3,10.3c0,2,0.6,4.2,1.9,5.9c-3.3,2.8-6.4,5.8-9.2,9.2c-7.7,9.2-11.7,18.9-11.7,28
    c0,12.4,4.7,20.7,9.2,25.5L92.4,102.6L92.4,102.6z"/>
  <path class="st3" d="M105.6,103.1c6.3,0,11.9,0.2,16.9,0.6l1.3-2.7c-5.3-0.5-11.3-0.8-18.3-0.8l0,0c-7,0-13.1,0.3-18.5,0.8l0.8,2.7
    C93.2,103.2,99.2,103.1,105.6,103.1z"/>

    <rect x="85.5" y="97.1" transform="matrix(0.7506 -0.6608 0.6608 0.7506 -44.7161 82.3973)" class="st3" width="2.5" height="6.7"/>

    <rect x="120.7" y="99.3" transform="matrix(0.7071 -0.7071 0.7071 0.7071 -34.7512 117.2016)" class="st3" width="6.7" height="2.5"/>
</g>

</svg>
