
<svg version="1.1" id="Layer_1" xmlns="http://www.w3.org/2000/svg" xmlns:xlink="http://www.w3.org/1999/xlink" x="0px" y="0px"
   viewBox="0 0 180 180" style="enable-background:new 0 0 180 180;" xml:space="preserve">

<style type="text/css">
  .st0{fill:#BF3B43;}
  .st1{opacity:0.2;fill:#FFFFFF;enable-background:new    ;}
  .st2{opacity:0.2;}
  .st3{fill:#FFFFFF;}
  .st4{fill:#1A1A1A;}
  .st5{opacity:0.2;fill:#040000;enable-background:new    ;}
</style>
<title>a</title>
<g id="Layer_2">
  <g id="Layer_1-2">
    <path class="st0" d="M62,30.5h-0.8c-2.7,0-5.4,2.5-6.2,5.6L53.6,43c-1.3,3.1-3.5,5.4-7.1,8.3c-2.8,2.3-4.9,5.3-6.1,8.7l-0.2,0.4
      c-0.9,2.3-1.6,4.3-2.2,6.1c-1.3,4.6-3.4,8.9-6.1,12.9L20.3,95.8c-3.6,4.6-3.2,10.8,0.9,14.3s14.4,6.3,17.9,6.3
      c0.9,0.1,1.7-0.2,2.4-0.8c1.4-1.5,2.7-3.1,3.7-4.8c2.3-3.6,4-6.2,9.9-6.2c8.7,0,16.3-8,19.9-11.8l0,0l2.2-2.5
      c1.5,2.3,3.1,6.1,2,10.1c-0.5,1.7-1.3,3.3-2.3,4.8c-2.3,3-5,5.7-8,8l-0.2,0.2c-7.5,6.1-20,16.1-22.1,30.3
      c-13.3,3.6-13.3,12.9-13.3,23.6v3.6H135v-3.6c0-10.7,0.1-20-13.3-23.6c0.4-1.6,1-3.6,1.6-5.9c2.6-9.2,6.2-21.9,6.2-30.2
      c0-19.6-6.2-36-17.9-47.5c-9.9-9.6-23-15.5-36.8-16.5L62.6,31.1L62,30.5z"/>
    <path class="st1" d="M84.6,148.7c43.1,0,47.5,4.8,47.5,4.8h0.6c-1.9-10.2-24.5-11.3-24.5-11.3H61.2c0,0-23.4,0.8-24.7,11.3h0.6
      C37.1,153.4,41.6,148.7,84.6,148.7z"/>
    <g class="st2">
      <path class="st3" d="M58.6,50.5c8.1-5,2.6-18,2.6-18c-2.4,0-4.5,1.6-5,4l-1.5,6.9c-1.4,3.4-3.7,5.7-7.5,8.8
        c-2.7,2.1-4.7,5-5.8,8.3l-0.2,0.4c-0.9,2.3-1.5,4.2-2.1,6C37.8,71.5,35.7,76,33,80L21.3,96.4c-0.2,0.2-0.3,0.3-0.4,0.5
        c-2.2,2-2.6,5.3-1,7.7c0,0,19-23.5,21.5-26.7C45.9,71.9,43.1,60.1,58.6,50.5z"/>
    </g>
    <path class="st4" d="M59.7,60c-5.2,2.1-6.6,11.1-6.6,11.1c5.1-4.4,7.5,0.7,12.6-3.4C69.9,64.4,64.8,57.9,59.7,60z"/>
    <path class="st5" d="M83.8,76.3c-1.8,3.5-6.3,10.6-6.3,10.6s-0.5,1.4-1,3.5c0,0,2.1-0.2,2.5,6.4c0.1,1.7,0.9,7.8,2,5.2
      c3-7.4,5.2-16.4,5.1-19.5S85.6,72.8,83.8,76.3z"/>
    <path class="st5" d="M74.1,45.4c0,0,40.8,5.1,40.8,44.1c0,26.1-17.4,33.4-22,51c0,0,19.3,0.1,27.9,4.2c0,0,9.2-24.8,9.2-39.6
      C130,90.1,118.5,44.3,74.1,45.4z"/>
    <path class="st5" d="M59,102.5c-9.1-4.5-11.4-9.8-14.9,0.7c-3.4,10.2-8.5,11.9-5.1,13s7.8-10.5,10.8-10.6S62.5,104.1,59,102.5z"/>
    <path class="st4" d="M61.2,32.5l12.9,12.9c25.3,1.7,53.5,20.1,53.5,62c0,11.1-7,31.5-8.3,37.6c14.4,3.1,13.7,11.6,13.7,23.8H35.5
      c0-12-0.7-20.5,13.1-23.6c1.4-14.2,14.4-24.5,21.7-30.5c3.2-2.4,6-5.2,8.4-8.4c1.1-1.6,2-3.5,2.6-5.4c1.8-6.4-2.3-12.1-3.8-13.9
      l-3.8,4.4c-3.9,4-10.7,11.1-18.5,11.1c-10,0-10.3,7.1-15,11.7c-0.3,0.2-0.7,0.2-1,0.2c-3.3,0-12.9-2.7-16.6-5.8
      c-3.2-2.7-3.6-7.8-0.6-11.5l11.7-16.4c5.2-7.6,5.5-11.7,8.5-19.3c1-3.3,3-6.1,5.6-8.3c3.8-3.2,6.3-5.6,7.8-9.3l1.5-7
      C57.5,34.5,59.4,32.5,61.2,32.5 M62.9,28.5h-1.7c-3.7,0-7.2,3.1-8.1,7.2v0.1l-1.4,6.6c-1.2,2.7-3.1,4.6-6.5,7.4
      c-3.1,2.5-5.4,5.8-6.7,9.5l-0.2,0.4c-0.9,2.3-1.6,4.4-2.2,6.2c-1.3,4.4-3.2,8.6-5.9,12.4L18.7,94.6c-4.2,5.3-3.8,12.8,1.2,17
      c4.6,3.9,15.4,6.8,19.2,6.8c1.4,0.1,2.8-0.4,3.8-1.3c1.5-1.6,2.9-3.3,4-5.2c2.2-3.4,3.4-5.3,8.2-5.3c9.6,0,17.5-8.4,21.4-12.4
      l0.1-0.1l0.1-0.1l0.3-0.3c0.8,1.9,1,4,0.5,6c-0.4,1.5-1.1,2.9-2,4.2c-2.2,2.9-4.7,5.4-7.6,7.6l-0.2,0.2
      c-7.5,6.1-19.8,16.1-22.6,30.3c-5.8,1.8-9.6,5-11.6,9.5s-2,9.7-1.9,15.7v5.6H137v-5.6c0-6.1,0-11.3-2-15.9
      c-2-4.3-5.4-7.3-10.8-9.1c0.3-1.2,0.7-2.6,1.1-4c2.7-9.4,6.3-22.2,6.3-30.7c0-42.1-27.7-63.3-55.7-65.8L64,29.7L62.9,28.5
      L62.9,28.5z"/>
    <path class="st4" d="M84.6,142.7c10.5-0.1,21,0.4,31.4,1.6c1.7,0.2,3.5,0.6,5.2,1l0.7-4c-1.8-0.4-3.5-0.8-5.3-1
      c-10.6-1.2-21.2-1.8-31.9-1.7l0,0c-10.6-0.1-21.3,0.5-31.8,1.7c-1.9,0.2-3.7,0.6-5.6,1l0.8,3.9c1.7-0.4,3.5-0.8,5.3-1
      C63.7,143.1,74.2,142.5,84.6,142.7z"/>
    <path class="st0" d="M123.9,73.7l28.5-12.6c2.9,1.9,6.8,1.5,9.2-1c2.7-2.9,2.6-7.5-0.3-10.2c-2.9-2.6-7.4-2.5-10.2,0.3
      c-0.8,1-1.4,2.2-1.6,3.4l-11.9,0.7l13.1-15.2c2.8,1.2,6.1,0.6,8.1-1.7c2.9-3,2.8-7.7-0.1-10.6l-0.1-0.1c-3-2.9-7.8-2.7-10.7,0.3
      c-1.5,1.6-2.2,3.8-1.9,6l-16,8.3l7.4-16.4c2.2,0.2,4.4-0.6,5.9-2.2c2.9-3,2.7-7.8-0.3-10.7c-3-2.9-7.7-2.8-10.6,0.1l-0.1,0.1
      c-2.2,2.2-2.6,5.5-1.2,8.2l-14.5,13.9l0.1-11.9c1.3-0.3,2.4-0.9,3.3-1.8c2.6-2.9,2.6-7.4-0.2-10.2c-2.9-2.8-7.4-2.7-10.2,0.2
      c0,0,0,0,0,0l0,0c-2.3,2.6-2.6,6.4-0.6,9.3L98.1,49.1"/>
    <path class="st5" d="M120.7,13.3c-0.4,4.4-6,3.4-6.1,7.3l1,16.4l1.7-14.9c0,0,2.8-1.3,3.8-3.4C123.4,14.1,120.7,13.3,120.7,13.3z"
      />
    <path class="st1" d="M120.4,12.3c-2-1.6-6.7-2.2-11.2,1.3c-0.4,0.2-0.3-3.8,5.3-4.3C116.9,8.9,119.3,10.1,120.4,12.3z"/>
    <path class="st1" d="M161.9,51.7c-2-1.5-6.7-2.2-11.2,1.3c-0.3,0.3-0.3-3.8,5.3-4.4C158.4,48.3,160.8,49.5,161.9,51.7z"/>
    <path class="st1" d="M143.4,13.7c-2.1-1.6-7.4-2.2-12.2,2.3c0,0,0.6-4.7,6.2-5.3C139.9,10.4,142.3,11.6,143.4,13.7z"/>
    <path class="st1" d="M158.8,28.3c-2.1-1.6-7.4-2.2-12.2,2.3c0,0,0.6-4.6,6.2-5.3C155.3,25,157.7,26.1,158.8,28.3z"/>
    <path class="st5" d="M127.7,63.2c-12,0.8-17.7-5-17.7-5l13.8,15.3l28.4-12.4c0,0,2.3,1.7,6.2,0.6c5.8-1.6,4-8.4,4-8.4
      c-0.1,2.9-2.8,5.3-5,5.3s-4.1-1.6-6.3-0.7C151.2,58,139.1,62.4,127.7,63.2z"/>
    <path class="st5" d="M159.9,29.8c-0.9,6.7-7.6,2.8-10.7,6.7l-13.9,19l15.3-16.2c0,0,6,1.3,8.2-1.8
      C162.5,32.7,159.9,29.8,159.9,29.8z"/>
    <path class="st5" d="M135.4,22.3l-7.4,21.3l9.5-18.6c0,0,3.9-0.8,5.8-2.9c2.1-1.9,2.5-5.1,1.1-7.5
      C143.6,21.6,137.6,17.6,135.4,22.3z"/>
    <path class="st4" d="M161.6,48.9c-3.3-3-8.5-2.8-11.6,0.3c-0.8,0.9-1.4,2-1.7,3.1l-8.7,0.5l11.1-12.8c3,1,6.4,0.2,8.6-2.2
      c3.3-3.4,3.2-8.7-0.2-12l-0.1-0.1c-3.5-3.3-8.9-3.1-12.2,0.3c-1.6,1.7-2.4,3.9-2.2,6.2l-12.7,6.6l5.9-13c2.3,0,4.4-0.9,6-2.5
      c3.3-3.4,3.1-8.9-0.3-12.1c-3.4-3.2-8.7-3.2-12,0.1l-0.1,0.2c-2.3,2.3-2.9,5.7-1.7,8.7l-12.2,11.6v-8.7c1.1-0.4,2.2-1,3-1.9
      c3-3.3,2.9-8.4-0.2-11.6c-3.3-3.1-8.5-3-11.7,0.3c-2.6,2.8-3,6.9-1,10.1L97.1,47.4l0,0l-0.7,2c0.6,0.3,1.1,0.7,1.7,1.1l0.2,0.2
      c4.3,3.3,8.5,6.9,12.4,10.7c3.9,3.7,7.6,7.6,11,11.7c0.5,0.6,0.9,1.2,1.3,1.8l1.9-0.8l-0.1-0.1l26.8-11.9
      c3.3,1.8,7.4,1.2,10.1-1.5C165,57.3,164.9,52.1,161.6,48.9z M152.1,59.7L152.1,59.7l-28.2,12.5l-0.2-0.3c-3.5-4.2-7.3-8.2-11.4-12
      c-4-3.9-8.2-7.5-12.7-10.9c-0.2-0.2-0.5-0.3-0.7-0.5L110,19.6c-2.1-2-2.1-6,0.1-8.3c2.3-2.5,6.2-2.6,8.7-0.3c0,0,0,0,0,0l0,0
      c2.4,2.4,2.4,6.2,0.2,8.7c-1,0.9-2.3,1.5-3.6,1.7l-0.1,15.2l16.9-16.2c-1.7-2.4-1.4-5.6,0.6-7.7c2.4-2.6,6.5-2.8,9.1-0.4
      c0,0.1,0.1,0.1,0.2,0.2c2.6,2.5,2.7,6.6,0.2,9.2l0,0c-1.5,1.6-3.7,2.2-5.8,1.7l-9,19.8l19.4-10c-0.6-2.1,0-4.3,1.4-5.9
      c2.5-2.6,6.6-2.7,9.2-0.2c0,0,0,0,0,0c2.6,2.4,2.8,6.5,0.4,9.1c0,0,0,0,0,0l-0.1,0.1c-2,2.1-5.2,2.6-7.6,1l-15.3,17.7l15.2-0.9
      c0.1-1.4,0.6-2.6,1.5-3.7c2.4-2.4,6.2-2.5,8.7-0.3c2.5,2.3,2.6,6.2,0.3,8.7c0,0,0,0,0,0l0,0C158.2,61.5,154.2,61.6,152.1,59.7z"/>
  </g>
</g>
</svg>
