
<svg version="1.1" id="Layer_1" xmlns="http://www.w3.org/2000/svg" xmlns:xlink="http://www.w3.org/1999/xlink" x="0px" y="0px"
   viewBox="0 0 180 180" style="enable-background:new 0 0 180 180;" xml:space="preserve">

<style type="text/css">
  .st0{fill:none;}
  .st1{fill:#BF3B43;}
  .st2{opacity:0.2;}
  .st3{fill:#1A1A1A;}
  .st4{opacity:0.2;fill:#BF3B43;enable-background:new    ;}
</style>
<title>c</title>
<g id="camel_neo">
  <rect class="st0" width="180" height="180"/>
  <g>
    <g id="camel">
      <path class="st1" d="M22.4,63.4L22.4,63.4c4.4,0.8,10-0.8,11.4-1.2c0.2,0,0.2,0,0.2,0h-0.2C32.4,62.6,26.8,64.2,22.4,63.4
        L22.4,63.4c-3.4-0.6-6-2.6-4.8-7.8c1.8-8,13.4-7.2,13.4-7.2c4.4-7.6,6.6-7.2,17-5.8c8.6,1.2,20,4.2,28.2,1.2c8.2-2.8,20,0,20,0
        s11.4-8.8,14.6-6.4c3.2,2.6,2.8,16-2.6,20.4c-2,1.6,7.8,29.4,23.8,50.2v50.4H93C83,142,73.8,119.2,71.8,89.6
        c-0.2-3.6,1.8-8-9.2-11c-11-3.2-17-1.6-20.6-9.8c0,0-7,2-14.2,4.2C7.4,79.2,18.6,66.4,22.4,63.4z"/>
      <g class="st2">
        <path d="M22.4,63.4L22.4,63.4c0.2,0,0.2,0,0.4,0c-2.8,4.2-3.2,8.4,10.4,4.2c7.2-2.2,14.2-4.2,14.2-4.2c3.4,8.2,9.4,6.6,20.6,9.8
          c11,3.2,8.8,7.4,9.2,11v0.2c3.6,1.2,5.6,2.2,5.6,2.2s1.6,4.6,0.4,5.8c-1.4,1.4-2.8,0-5.4-1.6c3.2,27.2,15,52.4,24.2,67.4h-9
          C83,141.8,73.8,119,71.8,89.4c0-0.4,0-1,0-1.4c-0.2,0-0.2,0-0.4-0.2l-4-6.2c1,0.2,2,0.4,3,0.8c-1.2-1.4-3.6-2.8-7.8-4
          c-11-3.2-17-1.6-20.6-9.8c0,0-7,2-14.2,4.2C7.4,79.2,18.6,66.4,22.4,63.4z"/>
      </g>
      <g>
        <g class="st2">
          <path class="st1" d="M48,42.4c8.6,1.2,20,4.2,28.2,1.2c8.2-2.8,20,0,20,0s11.4-8.8,14.6-6.4c3.2,2.6,2.8,16-2.6,20.4
            c-2,1.6,7.8,29.4,23.8,50.2v11.6c-19.2-21.2-31.2-54.8-29-56.6c5.4-4.6,8.4-20.6,5.2-23.2C105,37,93.6,46,93.6,46
            s-11.8-2.8-20,0S54,45.8,45.4,44.8C39.8,44,34,46.2,31.6,47.2C35.6,40.8,38,41.2,48,42.4z"/>
        </g>
        <g class="st2">
          <path class="st1" d="M25.8,51c0,0-4.2,2.4-8,4c2-5.8,9.2-6.6,12.2-6.6C28.6,49.4,27.4,48.4,25.8,51z"/>
        </g>
      </g>
      <g>
        <g>
          <path d="M92,52c-1,4.8-6.4,8.2-11.2,7.2c-4.8-1-8.4-6-7.6-11L92,52z"/>
          <path d="M106.2,43.6c1.6,4.6,0.4,10.2-3,13.6c-1-3-3.2-5.4-6.2-6.6C99.4,47.6,102.6,45.2,106.2,43.6z"/>
          <path d="M32.4,46.8c0.6-1,10-1.6,10.2-1c0.4,1.2-0.4,2.4-1.4,3.2c-1.8,1.6-4.4,2.4-6.8,2.4c-2.4-0.2-4.8-1.2-6.6-2.8L32.4,46.8
            z"/>
        </g>
        <g>
          <g>
            <path d="M80.4,89.4c-0.4,0-0.6,0-1-0.2c0,0-4.4-2.4-11.2-4.4c-1-0.2-1.6-1.4-1.4-2.4s1.4-1.6,2.4-1.4c7.4,2,12,4.6,12.2,4.8
              c1,0.6,1.2,1.8,0.8,2.8C81.8,89,81.2,89.4,80.4,89.4z"/>
          </g>
          <g>
            <path d="M20,65.4c-1,0-2,0-3-0.2S15.2,64,15.2,63c0.2-1,1.2-1.8,2.2-1.8c5,0.6,16.2-1,16.2-1c1-0.2,2.2,0.6,2.2,1.6
              c0.2,1-0.6,2.2-1.6,2.2C34,64.2,26,65.4,20,65.4z"/>
          </g>
        </g>
      </g>
      <path d="M109.2,37c0.6,0,1.2,0.2,1.6,0.4c3.2,2.6,2.8,16-2.6,20.4c-2,1.6,7.8,29.4,23.8,50.2v50.4H93
        C83,142,73.8,119.2,71.8,89.6c-0.2-3.6,1.8-8-9.2-11c-11-3.2-17-1.6-20.6-9.8c0,0-7,2-14.2,4.2c-3.8,1.2-6.6,1.6-8.6,1.6
        c-8,0,0-8.8,3.2-11.2c-3.4-0.6-6-2.6-4.8-7.8c1.6-6.8,10.2-7.2,12.8-7.2c0.4,0,0.6,0,0.6,0c3-5.2,4.8-6.6,9-6.6
        c2,0,4.6,0.4,8,0.8c6,0.8,13.2,2.4,20,2.4c3,0,5.8-0.4,8.2-1.2c2.8-1,5.8-1.2,8.8-1.2c6,0,11.2,1.2,11.2,1.2S105,37,109.2,37
        L109.2,37z M109.2,33c-4.4,0-10.8,4.2-14,6.6c-2.2-0.4-6-1-10.2-1c-3.8,0-7.2,0.6-10.2,1.4c-1.8,0.6-4.2,1-7,1
        c-4.4,0-9-0.8-13.6-1.6c-2-0.4-4-0.6-6-1h-0.6c-3.2-0.4-5.8-0.8-7.8-0.8c-5.6,0-8.4,2.4-11.4,6.6c-8,0.4-13.6,4.2-15,10.2
        c-0.8,3.4-0.4,6.2,1,8.6c0.2,0.4,0.6,0.8,1,1.2c-2.4,2.8-4.8,6.6-3.6,10c0.6,1.6,2.2,4.2,7.2,4.2c2.4,0,5.6-0.6,9.6-1.8l11.2-3.4
        c3.4,5.2,8.4,6,14,7.2c2.2,0.4,4.8,1,7.6,1.8c6.4,1.8,6.4,3,6.2,5.4c0,0.6,0,1.4,0,2.2c1.8,26,9,49.8,21.8,70.6
        c0.8,1.2,2,2,3.4,2H132c2.2,0,4-1.8,4-4v-50.2c0-0.8-0.2-1.8-0.8-2.4c-14-18.4-22.2-40.4-23-46c3.6-4,4.8-10.4,4.8-15.2
        c0-3.4-0.6-8-3.6-10.2C112.4,33.6,111.2,33,109.2,33L109.2,33z"/>
    </g>
    <g id="base_8_">
      <g>
        <path class="st1" d="M44.6,160.6V157c0-10.8,0-20.2,13.8-23.8l0,0c1.6-0.4,3.4-0.8,5.4-1c8.8-1.2,19.2-1.6,31.6-1.6
          s22.8,0.6,31.6,1.6c2,0.2,3.8,0.6,5.6,1l0,0c13.8,3.6,13.6,13,13.6,23.8v3.6H44.6z"/>
        <path class="st3" d="M148,162.6H42.6V157c0-10.2,0-20.8,13.4-25.2l0,0l2-0.6c1.6-0.4,3.6-0.8,5.6-1c9-1.2,19.4-1.6,31.8-1.6
          c12.6,0,23,0.6,31.8,1.6c2,0.2,4,0.6,5.8,1l2,0.4l0,0c13.4,4.4,13.2,15,13.2,25.2L148,162.6z M46.6,158.6H144V157
          c0-10.8,0-18.6-12.2-21.8l-0.6-0.2c-1.4-0.4-3-0.6-4.6-0.8c-8.8-1.2-19-1.6-31.4-1.6s-22.6,0.6-31.4,1.6
          c-1.6,0.2-3.2,0.4-4.6,0.8l-0.6,0.2c-12.4,3.2-12.2,11-12.2,21.8L46.6,158.6z"/>
      </g>
      <path class="st4" d="M95.4,138.4c-43,0-47.6,4.8-47.6,4.8h-0.6c2-10.2,24.4-11.2,24.4-11.2h47c0,0,23.4,0.8,24.6,11.2h-0.6
        C142.8,143.2,138.4,138.4,95.4,138.4z"/>
      <g>
        <path class="st3" d="M148,162.6H42.6V157c0-10.2,0-20.8,13.4-25.2l0,0l2-0.6c1.6-0.4,3.6-0.8,5.6-1c9-1.2,19.4-1.6,31.8-1.6
          c12.6,0,23,0.6,31.8,1.6c2,0.2,4,0.6,5.8,1l2,0.4l0,0c13.4,4.4,13.2,15,13.2,25.2L148,162.6z M46.6,158.6H144V157
          c0-10.8,0-18.6-12.2-21.8l-0.6-0.2c-1.4-0.4-3-0.6-4.6-0.8c-8.8-1.2-19-1.6-31.4-1.6s-22.6,0.6-31.4,1.6
          c-1.6,0.2-3.2,0.4-4.6,0.8l-0.6,0.2c-12.4,3.2-12.2,11-12.2,21.8L46.6,158.6z"/>
      </g>
    </g>
  </g>
</g>
</svg>
