
<svg version="1.1" id="Layer_1" xmlns="http://www.w3.org/2000/svg" xmlns:xlink="http://www.w3.org/1999/xlink" x="0px" y="0px"
   viewBox="0 0 180 180" style="enable-background:new 0 0 180 180;" xml:space="preserve">

<style type="text/css">
	.st0{fill:none;}
	.st1{fill:#fff;}
	.st2{opacity:0.2;fill:#FFFFFF;}
	.st3{fill:#1A1A1A;}
	.st4{opacity:0.2;enable-background:new    ;}
	.st5{opacity:0.2;fill:#FFFFFF;enable-background:new    ;}
	.st6{opacity:0.2;}
	.st7{fill:#FFFFFF;}
</style>
<title>Delta</title>
<g>
	<rect class="st0" width="180" height="180"/>
	<g id="dragon_bishop">
		<g id="wings">
			<g>
				<path class="st1" d="M70,81.1C70,51.5,40,42.5,45,24.5c-36,1-36,58.3-36,126.6c0-14.4,7.1-19.8,16-17.1
					c0.9-11.2,6.1-16.6,14.6-13.5c4-19.7,12.8-24.9,30.5-24.9V81.1z"/>
				<path class="st2" d="M44.7,25.6c0.1-0.4,0.1-0.7,0.2-1.1c-36,1-36,58.3-36,126.6c0-9,2.8-14.5,7-16.7
					C16.1,78.5,18.5,33.1,44.7,25.6z"/>
				<path class="st3" d="M56,45.9c-6.3-7.4-11.2-13.3-9.2-20.8c0,0,0,0,0,0c0,0,0,0,0,0c0,0,0,0,0,0c0,0,0-0.1,0-0.1
					c0-0.1,0-0.1,0-0.2c0,0,0,0,0-0.1c0,0,0-0.1,0-0.1c0,0,0,0,0,0c0-0.1,0-0.1,0-0.2c0,0,0-0.1,0-0.1c0-0.1,0-0.1,0-0.2
					c0,0,0-0.1,0-0.1c0,0,0,0,0-0.1c0,0,0,0,0-0.1c0,0,0-0.1-0.1-0.1c0,0,0-0.1,0-0.1c0,0,0,0,0,0c0,0,0-0.1-0.1-0.1
					c0,0,0-0.1-0.1-0.1c0,0,0-0.1,0-0.1c0,0,0,0,0,0c0,0,0,0,0,0c0,0-0.1-0.1-0.1-0.1c0,0-0.1-0.1-0.1-0.1c0,0,0,0,0,0c0,0,0,0,0,0
					c-0.1-0.1-0.1-0.1-0.2-0.1c0,0-0.1-0.1-0.1-0.1c0,0,0,0,0,0c0,0,0,0-0.1,0c0,0,0,0,0,0c-0.1,0-0.1-0.1-0.2-0.1
					c-0.1,0-0.1,0-0.2-0.1c0,0,0,0-0.1,0c0,0-0.1,0-0.1,0c0,0-0.1,0-0.1,0c0,0-0.1,0-0.1,0c0,0,0,0-0.1,0c-38,1.1-38,60.1-38,128.6
					c0,1.1,0.9,2,2,2s2-0.9,2-2c0-6.9,1.7-11.9,4.9-14.3c2.8-2.1,6.1-1.6,8.5-0.9c0,0,0.1,0,0.1,0c0.1,0,0.2,0,0.3,0
					c0.1,0,0.1,0,0.2,0c0,0,0.1,0,0.1,0c0.1,0,0.1,0,0.2,0c0.1,0,0.1,0,0.2,0c0.1,0,0.2,0,0.3-0.1c0,0,0.1,0,0.1,0
					c0.1-0.1,0.3-0.1,0.4-0.2c0,0,0,0,0,0c0,0,0,0,0,0c0.1-0.1,0.2-0.2,0.3-0.2c0,0,0.1-0.1,0.1-0.1c0.1-0.1,0.1-0.1,0.2-0.2
					c0,0,0.1-0.1,0.1-0.1c0-0.1,0.1-0.2,0.1-0.2c0-0.1,0-0.1,0-0.2c0-0.1,0-0.2,0-0.3c0,0,0-0.1,0-0.1c0.4-5.8,2.1-9.9,4.7-11.6
					c1.8-1.2,4.3-1.3,7.2-0.2c0,0,0.1,0,0.1,0c0.1,0,0.2,0,0.3,0.1c0.1,0,0.1,0,0.2,0c0,0,0.1,0,0.1,0c0,0,0.1,0,0.1,0c0,0,0,0,0,0
					c0.1,0,0.1,0,0.1,0c0.1,0,0.2,0,0.3-0.1c0,0,0.1,0,0.1,0c0.1,0,0.2-0.1,0.2-0.1c0,0,0,0,0.1,0c0,0,0.1,0,0.1-0.1
					c0.1,0,0.1-0.1,0.2-0.1c0,0,0.1-0.1,0.1-0.1c0.1-0.1,0.1-0.1,0.2-0.2c0,0,0.1-0.1,0.1-0.1c0-0.1,0.1-0.1,0.1-0.2
					c0,0,0-0.1,0.1-0.1c0-0.1,0.1-0.2,0.1-0.2c0,0,0-0.1,0-0.1C45,103.3,51.9,97.6,70,97.6c1.1,0,2-0.9,2-2V81.1
					C72,64.8,63.2,54.3,56,45.9z M13.4,133.6c-0.8,0.6-1.7,1.4-2.5,2.5c0.1-27.9,0.7-53.8,4.5-73.1c4-20.3,11.2-31.8,22.4-35.3
					C21.3,45.1,22.1,87,22.7,118.5c0.1,4.6,0.2,8.9,0.2,13C19.3,130.9,16.1,131.6,13.4,133.6z M29.4,119.2c-1,0.7-1.9,1.5-2.7,2.6
					c0-1.1,0-2.2-0.1-3.4c-0.6-30.8-1.4-71.9,14-88.1c-4.2,15.2-5.3,44.5-3.3,87.5C33.7,117.2,31.1,118.2,29.4,119.2z M68,93.6
					C53.7,94,45.7,98.3,41,108.7c-1.5-40.2,0.2-62.1,2.7-73.9c1.9,4.7,5.5,9.1,9.3,13.6c7,8.4,15,17.8,15,32.7V93.6z"/>
			</g>
			<g>
				<path class="st1" d="M110,81.1c0-29.6,30.1-38.6,25.1-56.6c36,1,36,58.3,36,126.6c0-14.4-7.1-19.8-16-17.1
					c-0.9-11.2-6.1-16.6-14.6-13.5c-4-19.7-12.8-24.9-30.5-24.9V81.1z"/>
				<path class="st2" d="M135.3,25.6c-0.1-0.4-0.1-0.7-0.2-1.1c36,1,36,58.3,36,126.6c0-9-2.8-14.5-7-16.7
					C163.9,78.5,161.5,33.1,135.3,25.6z"/>
				<path class="st3" d="M135.1,22.5C135.1,22.5,135,22.5,135.1,22.5c-0.2,0-0.3,0-0.4,0c0,0-0.1,0-0.1,0c-0.1,0-0.1,0-0.2,0.1
					c0,0-0.1,0-0.1,0c0,0-0.1,0-0.1,0c0,0,0,0,0,0c0,0,0,0,0,0c0,0-0.1,0.1-0.1,0.1c-0.1,0-0.1,0.1-0.2,0.1c0,0,0,0,0,0
					c-0.1,0-0.1,0.1-0.1,0.1c0,0-0.1,0.1-0.1,0.1c0,0,0,0,0,0c0,0,0,0,0,0c0,0,0,0,0,0.1c0,0,0,0,0,0.1c0,0-0.1,0.1-0.1,0.1
					c0,0,0,0,0,0c0,0,0,0.1,0,0.1c0,0,0,0.1-0.1,0.1c0,0,0,0,0,0c0,0.1-0.1,0.2-0.1,0.3c0,0,0,0.1,0,0.1c0,0.1,0,0.2,0,0.3
					c0,0,0,0.1,0,0.1c0,0,0,0,0,0.1c0,0.1,0,0.2,0.1,0.4c0,0,0,0,0,0c0,0,0,0,0,0c0,0,0,0,0,0c0,0,0,0,0,0c0,0,0,0,0,0
					c2.1,7.5-2.9,13.4-9.2,20.8c-7.1,8.4-16,18.9-16,35.3v14.5c0,1.1,0.9,2,2,2c18.1,0,25,5.7,28.6,23.3c0,0,0,0.1,0,0.1
					c0,0.1,0,0.2,0.1,0.3c0,0,0,0.1,0.1,0.1c0,0.1,0.1,0.1,0.1,0.2c0,0,0.1,0.1,0.1,0.1c0.1,0.1,0.1,0.1,0.2,0.2
					c0,0,0.1,0.1,0.1,0.1c0.1,0.1,0.1,0.1,0.2,0.1c0,0,0.1,0,0.1,0.1c0,0,0,0,0.1,0c0.1,0,0.2,0.1,0.2,0.1c0,0,0.1,0,0.1,0.1
					c0.1,0,0.2,0,0.2,0c0.1,0,0.1,0,0.2,0c0,0,0,0,0,0c0,0,0.1,0,0.1,0c0,0,0.1,0,0.1,0c0.1,0,0.1,0,0.2,0c0.1,0,0.2,0,0.3-0.1
					c0,0,0.1,0,0.1,0c2.9-1,5.3-1,7.2,0.2c2.6,1.7,4.3,5.7,4.7,11.6c0,0,0,0.1,0,0.1c0,0.1,0,0.2,0,0.3c0,0.1,0,0.1,0,0.2
					c0,0.1,0.1,0.2,0.1,0.2c0,0,0,0.1,0.1,0.1c0.1,0.1,0.1,0.2,0.2,0.2c0,0,0.1,0.1,0.1,0.1c0.1,0.1,0.2,0.2,0.3,0.3c0,0,0,0,0,0
					c0,0,0,0,0,0c0.1,0.1,0.2,0.1,0.4,0.2c0,0,0.1,0,0.1,0c0.1,0,0.2,0.1,0.3,0.1c0.1,0,0.1,0,0.2,0c0.1,0,0.1,0,0.2,0
					c0,0,0.1,0,0.1,0c0.1,0,0.1,0,0.2,0c0.1,0,0.2,0,0.3,0c0,0,0.1,0,0.1,0c2.3-0.7,5.7-1.1,8.5,0.9c3.2,2.3,4.9,7.4,4.9,14.3
					c0,1.1,0.9,2,2,2s2-0.9,2-2C173.1,82.6,173.1,23.6,135.1,22.5z M112,93.6V81.1c0-14.9,8-24.3,15-32.7c3.8-4.5,7.4-8.8,9.3-13.6
					c2.5,11.8,4.2,33.6,2.7,73.9C134.3,98.3,126.3,94,112,93.6z M150.6,119.2c-1.6-1.1-4.2-2-7.9-1.4c2-42.9,0.9-72.3-3.3-87.5
					c15.4,16.1,14.6,57.2,14,88.1c0,1.1,0,2.2-0.1,3.4C152.5,120.8,151.6,119.9,150.6,119.2z M166.6,133.6c-2.1-1.5-4.5-2.3-7.2-2.3
					c-0.7,0-1.5,0.1-2.3,0.2c0-4,0.1-8.4,0.2-13c0.6-31.5,1.4-73.4-15.1-90.9c11.2,3.5,18.4,14.9,22.4,35.3
					c3.8,19.4,4.4,45.2,4.5,73.1C168.2,135,167.4,134.2,166.6,133.6z"/>
			</g>
		</g>
		<g id="bishop">
			<path class="st1" d="M89.1,16.9c-7.1,0-12.9,5.8-12.9,12.9c0,3.3,1.2,6.4,3.4,8.8c-5.3,4.3-10.1,9-14.5,14.2
				C54.3,65.8,48.6,79.4,48.6,92.2c0,20.8,9.4,33.3,16.4,39.2c-2.3,0.2-4.5,0.4-6.6,0.7c-19.2,2.4-19.2,12.8-19.2,24.7v3.6h101.6
				v-3.6c0-12,0.1-22.3-19.2-24.7c-2.1-0.3-4.3-0.5-6.6-0.7c7-5.8,16.4-18.4,16.4-39.2c0-20.5-13.5-35.9-22.1-44.5l-1.8-1.8
				l-1.3,2.2c-1.5,2.5-8.8,14.5-9.1,44.6H83.3c0.5-45,18-62,18.2-62.2l0.7-0.6l-0.1-0.9C101.5,22.1,95.9,16.9,89.1,16.9L89.1,16.9z"
				/>
			<path class="st4" d="M117,57.6c22.7,55.1-27.1,71.8-27.1,71.8l25.1,1.9c-2.4,1.9,16-5.2,16-41.4C131.1,77.7,126,66,117,57.6z"/>
			<path class="st5" d="M82.8,38.8c-2.7-1.2-28.6,20.6-32.9,42.9c-4,20.8,3.2,26.6,2.8,26.4c0-0.1,2.8-45.8,32.8-68.1
				C85.5,40,84.3,39.5,82.8,38.8z"/>
			<path class="st5" d="M91,18.8c-4.3,0.4-11.8,6.7-12.4,15.4c0,0-6-5.6,0.1-12.5C83.4,16.2,91,18.8,91,18.8z"/>
			<path class="st5" d="M90,138.4c43.1,0,47.5,4.8,47.5,4.8h0.6c-1.9-10.2-24.5-11.3-24.5-11.3H66.5c0,0-23.4,0.8-24.7,11.3h0.6
				C42.5,143.2,46.9,138.4,90,138.4z"/>
			<path class="st4" d="M88,57c1.8-5.1,14.1-29,14.1-29l-5.5-9.2l-2.9,0.1c9.2,11.3-18,37-18,56.4c0,5.7,1.4,17.2,5.5,19.3
				C81.3,94.7,84.2,67.5,88,57z"/>
			<path class="st3" d="M89.1,18.9c5.7,0,10.5,4.4,10.9,10.1c0,0-18.7,17.7-18.7,65.6H99c0-29.9,7-42.4,8.9-45.6
				c9.5,9.4,21.5,24,21.5,43.1c0,26.2-15.3,38.4-20.3,40.8c4.3,0.3,8.4,0.6,12.3,1.1c18.3,2.3,17.4,11.3,17.4,24.4H41.2
				c0-13.1-0.8-22.1,17.4-24.4c3.8-0.5,8-0.9,12.3-1.1c-5-2.4-20.3-14.5-20.3-40.8c0-30.1,32.1-53.4,32.1-53.4
				c-4.9-3.5-6-10.4-2.5-15.3C82.3,20.6,85.6,18.9,89.1,18.9L89.1,18.9z M89.1,14.9c-8.2,0-14.9,6.7-14.9,14.9c0,3,0.9,6,2.7,8.5
				c-4.8,4-9.2,8.5-13.2,13.3c-11.1,13.3-17,27.3-17,40.5c0,18.4,7.2,30.6,13.9,37.6l-2.3,0.3c-21,2.7-21,14.4-20.9,26.7v5.6h105.6
				v-5.6c0-12.4,0.1-24.1-20.9-26.7c-0.8-0.1-1.6-0.2-2.3-0.3c6.7-7,13.9-19.3,13.9-37.6c0-15.7-7.4-30.7-22.7-46l-3.7-3.6l-2.6,4.5
				c-5.8,9.8-9,24.8-9.4,43.6h-9.7c0.5-21.5,5-36,8.8-44.5c4.3-9.8,8.7-14.1,8.7-14.1l1.3-1.3l-0.1-1.9
				C103.4,21,96.9,14.9,89.1,14.9L89.1,14.9z"/>
			<path class="st3" d="M90,132.4c9,0,17.2,0.3,24.6,0.9l1.9-3.8c-7.7-0.7-16.4-1.1-26.5-1.1l0,0c-10.2,0-19,0.4-26.7,1.1l1.2,3.9
				C72.1,132.7,80.6,132.4,90,132.4z"/>
		</g>
		<g id="claws">
			<g>
				<g>
					<path class="st1" d="M44.2,160.5c0,5-5,9-5,9s-5-4-5-9s2.2-9,5-9S44.2,155.5,44.2,160.5z"/>
					<path class="st1" d="M54.2,160.5c0,5-5,9-5,9s-5-4-5-9s2.2-9,5-9S54.2,155.5,54.2,160.5z"/>
					<path class="st1" d="M64.2,160.5c0,5-5,9-5,9s-5-4-5-9s2.2-9,5-9S64.2,155.5,64.2,160.5z"/>
				</g>
				<g>
					<path class="st1" d="M125.8,160.5c0,5-5,9-5,9s-5-4-5-9s2.2-9,5-9C123.5,151.5,125.8,155.5,125.8,160.5z"/>
					<path class="st1" d="M135.8,160.5c0,5-5,9-5,9s-5-4-5-9s2.2-9,5-9C133.5,151.5,135.8,155.5,135.8,160.5z"/>
					<path class="st1" d="M145.8,160.5c0,5-5,9-5,9s-5-4-5-9s2.2-9,5-9C143.5,151.5,145.8,155.5,145.8,160.5z"/>
				</g>
			</g>
			<g class="st6">
				<path class="st7" d="M39.2,151.5c-2.8,0-5,4-5,9h10C44.2,155.5,42,151.5,39.2,151.5z"/>
				<path class="st7" d="M49.2,151.5c-2.8,0-5,4-5,9h10C54.2,155.5,52,151.5,49.2,151.5z"/>
				<path class="st7" d="M59.2,151.5c-2.8,0-5,4-5,9h10C64.2,155.5,62,151.5,59.2,151.5z"/>
				<path class="st7" d="M120.8,151.5c-2.8,0-5,4-5,9h10C125.8,155.5,123.5,151.5,120.8,151.5z"/>
				<path class="st7" d="M130.8,151.5c-2.8,0-5,4-5,9h10C135.8,155.5,133.5,151.5,130.8,151.5z"/>
				<path class="st7" d="M140.8,151.5c-2.8,0-5,4-5,9h10C145.8,155.5,143.5,151.5,140.8,151.5z"/>
			</g>
			<g>
				<g>
					<g>
						<path class="st3" d="M39.2,172l-1.3-1c-0.2-0.2-5.7-4.7-5.7-10.6c0-6.3,3-11,7-11s7,4.7,7,11c0,5.9-5.5,10.4-5.7,10.6
							L39.2,172z M39.2,153.5c-1.2,0-3,2.8-3,7c0,2.5,1.7,4.9,3,6.2c1.3-1.4,3-3.7,3-6.2C42.2,156.2,40.4,153.5,39.2,153.5z"/>
					</g>
					<g>
						<path class="st3" d="M49.2,172l-1.3-1c-0.2-0.2-5.7-4.7-5.7-10.6c0-6.3,3-11,7-11s7,4.7,7,11c0,5.9-5.5,10.4-5.7,10.6
							L49.2,172z M49.2,153.5c-1.2,0-3,2.8-3,7c0,2.5,1.7,4.9,3,6.2c1.3-1.4,3-3.7,3-6.2C52.2,156.2,50.4,153.5,49.2,153.5z"/>
					</g>
					<g>
						<path class="st3" d="M59.2,172l-1.3-1c-0.2-0.2-5.7-4.7-5.7-10.6c0-6.3,3-11,7-11s7,4.7,7,11c0,5.9-5.5,10.4-5.7,10.6
							L59.2,172z M59.2,153.5c-1.2,0-3,2.8-3,7c0,2.5,1.7,4.9,3,6.2c1.3-1.4,3-3.7,3-6.2C62.2,156.2,60.4,153.5,59.2,153.5z"/>
					</g>
				</g>
				<g>
					<g>
						<path class="st3" d="M120.8,172l-1.3-1c-0.2-0.2-5.7-4.7-5.7-10.6c0-6.3,3-11,7-11s7,4.7,7,11c0,5.9-5.5,10.4-5.7,10.6
							L120.8,172z M120.8,153.5c-1.2,0-3,2.8-3,7c0,2.5,1.7,4.9,3,6.2c1.3-1.4,3-3.7,3-6.2C123.8,156.2,122,153.5,120.8,153.5z"/>
					</g>
					<g>
						<path class="st3" d="M130.8,172l-1.3-1c-0.2-0.2-5.7-4.7-5.7-10.6c0-6.3,3-11,7-11s7,4.7,7,11c0,5.9-5.5,10.4-5.7,10.6
							L130.8,172z M130.8,153.5c-1.2,0-3,2.8-3,7c0,2.5,1.7,4.9,3,6.2c1.3-1.4,3-3.7,3-6.2C133.8,156.2,132,153.5,130.8,153.5z"/>
					</g>
					<g>
						<path class="st3" d="M140.8,172l-1.3-1c-0.2-0.2-5.7-4.7-5.7-10.6c0-6.3,3-11,7-11s7,4.7,7,11c0,5.9-5.5,10.4-5.7,10.6
							L140.8,172z M140.8,153.5c-1.2,0-3,2.8-3,7c0,2.5,1.7,4.9,3,6.2c1.3-1.4,3-3.7,3-6.2C143.8,156.2,142,153.5,140.8,153.5z"/>
					</g>
				</g>
			</g>
		</g>
	</g>
</g>
</svg>
