
<svg version="1.1" id="Layer_1" xmlns="http://www.w3.org/2000/svg" xmlns:xlink="http://www.w3.org/1999/xlink" x="0px" y="0px"
   viewBox="0 0 180 180" style="enable-background:new 0 0 180 180;" xml:space="preserve">

<style type="text/css">
	.st0{fill:none;}
	.st1{fill:#BF3B43;}
	.st2{fill:#1A1A1A;}
	.st3{fill-opacity:0.2;}
	.st4{fill:#BF3B43;stroke:#1A1A1A;stroke-width:4;stroke-miterlimit:10;}
	.st5{opacity:0.2;fill:#FFFFFF;}
	.st6{fill:none;stroke:#1A1A1A;stroke-width:4;stroke-miterlimit:10;}
	.st7{fill:#FFFFFF;fill-opacity:0.2;}
	.st8{fill:none;stroke:#1A1A1A;stroke-width:1.1252;stroke-linecap:round;}
</style>
<title>g</title>
<g>
	<rect class="st0" width="180" height="180"/>
	<g transform="matrix(1.209103 0 0 1.209103 -80.15058099999999 -24.390652)">
		<g>
			<path class="st1" d="M114.4,129.3c-1.1,0-2-0.6-2.4-1.5c-0.2-0.5-0.5-2,1.4-3.7c1.2-1.1,1.8-3.2,2.4-4.9c0.7-2.3,1.5-4.8,3.8-5.2
				c3.5-0.7,11.8-2.3,13.3-5.7c0.5-1.1,0.2-2.5-0.8-4.3l-1.2-1.9l2.4-0.6l0.3,0c0.2,0,0.5,0,0.9,0.1c0.8,0.1,2.3,0.3,4.2,0.3l0.5,0
				l1.4,0l0.2,1.4c0.8,5.3-1.8,12.4-18.9,16.6l-0.3,0.1c-1,0.3-1.2,0.6-1.2,2.6c0,1.3,0,3-1.2,4.2
				C117.6,128.4,115.8,129.3,114.4,129.3z"/>
			<path class="st2" d="M133.6,103.2c0.5,0,2.3,0.4,5.1,0.4c0.2,0,0.3,0,0.5,0c1.5,10.3-14.8,14.1-17.9,14.8c-4,1-1.4,5.5-3.2,7.2
				c-1.6,1.5-2.9,2.1-3.7,2.1c-1.1,0-1.3-1.1,0.1-2.4c3.2-3,2.7-9.2,5.4-9.7C128.9,113.9,138.3,111.2,133.6,103.2
				C133.5,103.2,133.5,103.2,133.6,103.2 M133.6,99.9c-0.3,0-0.6,0-0.8,0.1l-4.4,1.1l2.3,3.9c0.5,0.9,1.1,2,0.7,2.8
				c-0.8,1.7-4.8,3.3-12.1,4.7c-3.3,0.6-4.3,3.8-5,6.3c-0.5,1.6-1,3.4-1.9,4.2c-2.6,2.4-2.1,4.7-1.8,5.6c0.6,1.6,2.1,2.5,3.9,2.5
				c1.9,0,3.9-1,6-3c1.7-1.7,1.7-3.9,1.8-5.4c0-0.3,0-0.8,0-1.1l0.2,0c1.9-0.5,7-1.7,11.6-4.3c8.1-4.6,9.1-10.2,8.5-14.2l-0.4-2.9
				l-2.9,0c-0.2,0-0.3,0-0.4,0c-1.8,0-3.1-0.2-3.9-0.3C134.2,99.9,133.9,99.9,133.6,99.9L133.6,99.9z"/>
		</g>
		<path class="st3" d="M118.9,121.1c-0.1,0.9,0,2.6-0.2,3.3l-0.3,0c0.1-1.2,0-2.5,0.2-3.2C118.7,121.2,118.9,121.1,118.9,121.1
			L118.9,121.1z"/>
		<g>
			<path class="st1" d="M161.7,131.5c-1.1,0-2.2-0.4-2.9-1.1c-1.9-1.8-3.6-2.4-5.7-3l-1.3-0.4l0.1-1.4c0.9-8.5,2.5-40.5,1.7-50.3
				c-1,3-2,8.2-2.8,12.1c-2.4,12.2-3.8,17.6-6.7,18.4c-1,0.3-2.5,0.7-4.1,0.7c-1.6,0-3-0.4-4.2-1.1c-1.3-0.8-1.3-2.7-1-4.6
				c1.1-6.9,11-35.8,16-37.1c0.7-0.2,1.5-0.3,2.3-0.3c2.8,0,5.7,1,7.3,2.6c0.9,0.9,1.4,2,1.4,3.2c0,4.9-0.8,11.9-1.8,20
				c-1.3,11.1-2.8,23.7-2.4,33c0.3,1,4.5,3.2,6.6,3.8c1.7,0.5,2.2,1.7,2.1,2.6C166,130.3,163.7,131.5,161.7,131.5z"/>
			<path class="st2" d="M153.1,64.9c3.2,0,7,1.7,7,4.2c0,11.5-4.9,37-4.2,53c0.1,2.2,6.1,4.8,7.8,5.3c2.1,0.6-0.1,2.4-2.1,2.4
				c-0.6,0-1.3-0.2-1.8-0.6c-2.1-2-4.1-2.7-6.4-3.4c0.8-7.7,3.4-53.4,0.9-54.1c-0.1,0-0.1,0-0.2,0c-3.8,0-6.2,31.4-10.5,32.6
				c-0.9,0.3-2.3,0.6-3.7,0.6c-1.1,0-2.3-0.2-3.3-0.9v0c-2.7-1.7,10.6-37.8,14.5-38.8C151.8,65,152.4,64.9,153.1,64.9 M153.1,61.6
				c-1,0-1.9,0.1-2.7,0.3c-1.5,0.4-4,1-10.3,16.8c-2.8,7.1-6.1,16.5-6.9,21.7c-0.2,1.5-0.7,4.8,1.7,6.3c1.5,0.9,3.2,1.4,5.1,1.4
				c1.9,0,3.5-0.5,4.5-0.7l0.1,0c3.6-1,5-5.8,7.5-17.9c-0.3,13.2-1.3,30.2-1.9,35.9l-0.3,2.7l2.6,0.8c2,0.6,3.4,1.1,5,2.6
				c1,1,2.5,1.6,4,1.6c2.7,0,5.9-1.7,6.2-4.4c0.2-1.7-0.7-3.7-3.3-4.4c-1.4-0.4-4.4-1.9-5.4-2.8c-0.4-9.1,1.1-21.3,2.4-32.2
				c1-8.2,1.8-15.2,1.8-20.2c0-1.6-0.7-3.1-1.9-4.4C159.7,62.9,156.4,61.6,153.1,61.6L153.1,61.6z"/>
		</g>
		<path class="st3" d="M136.6,103.9c-2.7-1.7,10.6-37.8,14.5-38.8c3.4-0.9,8.9,0.9,8.9,3.9c0,11.5-4.9,37-4.2,53
			c0.1,2.2,6.1,4.8,7.8,5.3c2.8,0.8-1.9,3.6-3.9,1.7c-2.1-2-4.1-2.7-6.4-3.4c0.8-7.7,3.4-53.4,0.9-54.1c-3.9-1.2-6.3,31.3-10.7,32.6
			C142,104.6,139,105.5,136.6,103.9L136.6,103.9z"/>
		<g id="base_8_">
			<path class="st4" d="M98.2,152.9l0-3c0-9,0-16.7,11.4-19.6l0,0c1.3-0.3,2.8-0.6,4.5-0.8c7.3-0.9,15.9-1.4,26.1-1.4
				c10.3,0,18.8,0.5,26.1,1.4c1.7,0.2,3.2,0.5,4.6,0.8l0,0c11.3,2.9,11.3,10.7,11.3,19.6l0,3H98.2z"/>
			<path class="st5" d="M140.2,134.7c-35.6,0-39.3,3.9-39.3,3.9h-0.5c1.6-8.4,20.3-9.3,20.3-9.3h39c0,0,19.3,0.7,20.4,9.3h-0.5
				C179.5,138.6,175.8,134.7,140.2,134.7z"/>
			<path class="st6" d="M98.2,152.9l0-3c0-9,0-16.7,11.4-19.6l0,0c1.3-0.3,2.8-0.6,4.5-0.8c7.3-0.9,15.9-1.4,26.1-1.4
				c10.3,0,18.8,0.5,26.1,1.4c1.7,0.2,3.2,0.5,4.6,0.8l0,0c11.3,2.9,11.3,10.7,11.3,19.6l0,3H98.2z"/>
		</g>
		<g>
			<path class="st1" d="M125.9,115.6c-6.3,0-11.5-0.7-15.8-2.1l-1.2-0.4l0.1-1.3c0.5-7.1,0.5-15.8-3.3-20.1l-1.4-1.6l1.9-1
				c5-2.5,12.3-3.7,22.2-3.7c12,0,25.2,1.8,34.8,3.1c4.5,0.6,8.1,1.1,10.3,1.2c11.1,0.7,11.9,7.4,11.8,9.5c-0.1,5.6-5,11-10.2,11.1
				c-5.7,0.1-12.8,1.2-20.3,2.3C145.2,114.1,135.2,115.6,125.9,115.6z"/>
			<path class="st2" d="M128.4,87.1c17.6,0,38,4,45,4.4c16.8,1,9.8,17.1,1.7,17.3c-13,0.3-32.7,5.2-49.3,5.2c-5.6,0-10.8-0.5-15.3-2
				c0.5-7.1,0.6-16.4-3.7-21.3C112.2,88,120,87.1,128.4,87.1 M128.4,83.8v3.3V83.8L128.4,83.8c-10.2,0-17.7,1.3-23,3.9l-3.8,1.9
				l2.8,3.2c3.8,4.4,3.1,14.9,2.9,18.9l-0.2,2.6l2.4,0.8c4.5,1.5,9.8,2.2,16.3,2.2c9.4,0,19.5-1.5,29.3-2.9
				c7.5-1.1,14.5-2.1,20.1-2.3c6-0.2,11.7-6.2,11.8-12.7c0.1-5-3.4-10.6-13.4-11.2c-2.1-0.1-5.9-0.6-10.2-1.2
				C153.8,85.6,140.6,83.8,128.4,83.8L128.4,83.8z"/>
		</g>
		<path class="st3" d="M183.6,100.8c-0.9-0.2-4.4,6.2-10.9,6.5c-3.2,0.1-24.2,4.3-23.1,4.6c4.1-0.7,17.9-2.5,21.2-2.8
			c2.5-0.1,5.6,0.2,6.5-0.7C182.6,106.2,183.3,101.9,183.6,100.8L183.6,100.8z"/>
		<g>
			<path class="st1" d="M136.9,102.9c-4.9,0-8.7-0.3-11.7-1l-2-0.4l0.9-1.9c0.7-1.6,2.1-7.6-0.2-11.9l-0.6-1l0.8-0.9
				c2.1-2.3,6.9-3.4,15.1-3.4c19.7,0,52,6.4,58.9,8c5.4,1.2,6.3,3.3,6.1,4.9c-0.3,2.4-3.5,4.1-7.9,4.1c-0.2,0-0.3,0-0.5,0
				c-0.9,0-1.9,0-2.9,0c-8.2,0-18.3,0.9-28.1,1.8C155.1,102,145,102.9,136.9,102.9z"/>
			<path class="st2" d="M139.2,84.2c18.7,0,49.7,5.9,58.5,7.9c8.3,1.9,4.7,5.7-1.4,5.7c-0.1,0-0.3,0-0.4,0c-0.9,0-1.9,0-2.9,0
				c-16.4,0-39.9,3.6-56.1,3.6c-4.4,0-8.3-0.3-11.3-0.9c0.9-2,2.4-8.6-0.2-13.3C127.2,85,132.4,84.2,139.2,84.2 M139.2,80.9v3.3
				V80.9c-8.8,0-13.8,1.2-16.3,3.9l-1.6,1.7l1.1,2.1c1.9,3.4,0.9,8.8,0.1,10.4l-1.7,3.7l4,0.9c3.1,0.7,7,1,12,1
				c8.2,0,18.4-0.9,28.2-1.8c9.7-0.9,19.8-1.8,27.9-1.8c1,0,1.9,0,2.8,0c0.2,0,0.4,0,0.5,0c5.3,0,9.1-2.2,9.5-5.5
				c0.2-2.2-0.8-5.2-7.4-6.7C191.5,87.3,159.1,80.9,139.2,80.9L139.2,80.9z"/>
		</g>
		<path class="st7" d="M125.4,87c0.3,0.7,0.4,0.4,0.7,1.5c1.8-3.4,48.9-0.2,71,3.5c-5.2-1.9-38.1-6.9-43.3-7
			c-5.6-0.6-15.2-1-18.1-0.8C126.9,84.8,125.7,86.7,125.4,87z"/>
		<g>
			<path class="st1" d="M164.8,131.4c-1.1,0-2.1-0.4-2.8-1.1c-1.8-1.7-3.4-2.3-5.4-2.9l-1.3-0.4l0.2-1.4c0.9-8.2,2.7-38.4,2.1-48.4
				c-0.9,2.9-1.9,7.8-2.7,11.4c-2.5,12.1-3.8,17.1-6.6,17.9c-1,0.3-2.5,0.7-4.1,0.7c-1.5,0-2.9-0.4-4-1.1c-1.3-0.8-1.2-2.6-1-4.3
				c1-6.5,10.8-35.1,15.6-36.4c0.7-0.2,1.5-0.3,2.3-0.3c2.7,0,5.4,1,6.9,2.5c0.9,0.9,1.4,2,1.4,3.1c-0.1,4.7-0.9,11.5-1.9,19.4
				c-1.3,10.8-2.9,23-2.5,32c0.3,0.9,4.3,3,6.2,3.5c1.7,0.5,2.2,1.7,2,2.6C169.1,130.2,166.8,131.4,164.8,131.4z"/>
			<path class="st2" d="M157.2,66.9c3.1,0,6.7,1.6,6.6,4c-0.1,11.2-5,35.9-4.4,51.5c0.1,2.1,5.8,4.6,7.4,5.1c2,0.5-0.1,2.3-2,2.3
				c-0.6,0-1.2-0.2-1.7-0.6c-2-1.9-3.9-2.6-6.1-3.3c0.8-7.5,3.7-51.8,1.2-52.5c-0.1,0-0.1,0-0.2,0c-3.7,0-6.1,30.5-10.3,31.7
				c-0.9,0.3-2.2,0.6-3.6,0.6c-1,0-2.1-0.2-3.1-0.8l0,0c-2.6-1.6,10.5-36.7,14.2-37.7C155.9,67,156.5,66.9,157.2,66.9 M157.2,63.6
				L157.2,63.6c-1,0-1.9,0.1-2.8,0.3c-1.5,0.4-3.9,1-10.1,16.6c-2.8,7-6,16.2-6.7,21.1c-0.2,1.3-0.7,4.5,1.7,6
				c1.4,0.9,3.1,1.4,4.9,1.4c1.8,0,3.5-0.5,4.5-0.8l0.1,0c3.3-1,4.8-5.2,7-15.9c-0.4,12.5-1.4,27.9-2,33.1l-0.3,2.8l2.7,0.8
				c1.9,0.6,3.2,1,4.7,2.5c1,1,2.4,1.5,4,1.5c2.7,0,5.8-1.7,6.1-4.4c0.2-1.7-0.7-3.7-3.2-4.4c-1.2-0.3-4.1-1.7-5-2.6
				c-0.3-8.8,1.2-20.7,2.5-31.2c1-7.9,1.8-14.8,1.9-19.6c0-1.6-0.6-3.1-1.8-4.3C163.1,64.4,159.7,63.6,157.2,63.6L157.2,63.6z"/>
		</g>
		<path class="st3" d="M145,105.7c1-0.1,3.2-0.1,4.3-2.2c2.5-6.6,4-16.5,5.1-20.5c-0.4-1.9-3.5,9.7-5.6,15.7
			C147.3,103,144.1,105.3,145,105.7z"/>
		<g>
			<path class="st1" d="M111.5,129.6c-1.1,0-2-0.6-2.4-1.5c-0.2-0.5-0.5-2,1.4-3.7c1.2-1.1,1.8-3.2,2.4-4.9c0.7-2.3,1.5-4.8,3.8-5.2
				c4.2-0.8,11.9-2.3,13.3-5.5c0.5-1.1,0.2-2.5-0.8-4.2c-0.2-0.4-0.3-0.8-0.2-1.3c0.2-0.7,0.9-1.3,1.6-1.3c0.1,0,0.2,0,0.4,0
				c0.5,0,1.8,0.2,4.2,0.2c0.3,0,1.1,0,1.1,0c0.8,0,1.5,0.6,1.6,1.4c0.8,5.3-1.8,12.4-18.9,16.6l-0.3,0.1c-1,0.3-1.2,0.6-1.2,2.6
				c0,1.3,0,3-1.2,4.2C114.6,128.7,112.9,129.6,111.5,129.6z M113.1,112.3c-1,0-2.4-0.4-3.6-2.1c-0.2-0.3-0.4-0.7-0.3-1.1
				c1.1-14.2-4.4-18.5-4.6-18.7c-1.5-1.1-1.3-2.3-1.2-2.8c0.3-0.9,0.9-3,13.5-3c2,0,3.6,0.1,4.5,0.2c1.7,0.3,3,1.6,3.8,3.7
				c1.5,4.1,1,11-2.6,15.2c-0.5,0.6-1.1,1.3-1.6,2.1C118.7,108.9,116.1,112.3,113.1,112.3z"/>
			<path class="st2" d="M116.9,86.3c1.9,0,3.5,0.1,4.2,0.2c3.8,0.6,4.7,11,0.2,16.2c-2.3,2.8-5.4,7.9-8.3,7.9
				c-0.8,0-1.6-0.4-2.3-1.4c1-13.3-3.5-18.8-5.2-20.1h0C102.6,87,111.2,86.3,116.9,86.3 M130.6,103.7c0.2,0,1.5,0.2,4.6,0.2
				c0.3,0,0.7,0,1.1,0c1.5,10.3-14.8,14.1-17.9,14.8c-4,1-1.4,5.5-3.2,7.2c-1.6,1.5-2.9,2.1-3.7,2.1c-1.1,0-1.3-1.1,0.1-2.4
				c3.2-3,2.7-9.2,5.4-9.7C125.9,114.1,135.4,111.7,130.6,103.7C130.6,103.7,130.6,103.7,130.6,103.7 M116.9,83
				c-2.9,0-5.8,0.2-8,0.4c-3,0.4-6.2,1-7.1,3.7c-0.2,0.6-0.7,2.8,1.7,4.6c0.3,0.2,5,4.3,3.9,17.2c-0.1,0.8,0.2,1.6,0.7,2.2
				c1.7,2.2,3.6,2.7,5,2.7c0.3,0,0.6,0,0.8-0.1c-1.4,1.3-2.1,3.4-2.6,5.1c-0.5,1.6-1,3.4-1.9,4.2c-2.6,2.4-2.1,4.7-1.8,5.6
				c0.6,1.6,2.1,2.5,3.9,2.5c1.9,0,3.9-1,6-3c1.7-1.7,1.7-3.9,1.8-5.4c0-0.3,0-0.8,0-1.1l0.2,0c1.9-0.5,7-1.7,11.6-4.3
				c8.1-4.6,9.1-10.2,8.5-14.2c-0.2-1.6-1.6-2.8-3.3-2.8c0,0,0,0,0,0c-0.4,0-0.7,0-1.1,0c-2.3,0-3.5-0.1-4-0.1c-0.3,0-0.5,0-0.5,0
				c-1.5,0-2.9,1.1-3.2,2.5c-0.2,0.9,0,1.8,0.4,2.5c0.4,0.7,1,1.9,0.7,2.6c-1,2.2-7.9,3.7-11.3,4.4c1.9-1.4,3.6-3.6,5.2-5.6
				c0.6-0.7,1.1-1.5,1.6-2c4-4.7,4.6-12.2,2.9-16.8c-1.4-3.7-3.8-4.6-5.1-4.8C120.4,83,118.1,83,116.9,83L116.9,83z"/>
		</g>
		<path class="st7" d="M106,87.4c-0.3,0.1-1.5,0.5-0.9,1.4c0.9,0.8,0.9,0.7,2.4,2.6c1.2,1.5,13.4-3.1,16.1-2.3
			c-1.1-2.7-2.4-2.6-4.4-2.7C115.4,86.3,108.8,86.5,106,87.4z"/>
		<g>
			<path class="st1" d="M100.1,125.9c-0.9,0-1.6-0.2-2.3-0.5c-10.6-5.3-16.4-12.8-18.1-23.6c-0.8-4.6,0.6-8.4,4.4-12.1
				c2.2-2.2,6.4-3.6,10.6-3.6c3.1,0,6.1,0.7,8.8,2.1c10.1,5.2,5.8,29.7,4.4,33.2C107.1,123.6,103.1,125.9,100.1,125.9
				C100.1,125.9,100.1,125.9,100.1,125.9z"/>
			<path class="st2" d="M94.7,87.8c2.6,0,5.3,0.5,8,1.9c8.7,4.5,4.9,27.8,3.7,31.1c-0.5,1.4-3.8,3.4-6.3,3.4c-0.6,0-1.1-0.1-1.5-0.3
				c-10-5-15.5-11.9-17.2-22.4h0c-0.6-3.5,0-6.8,3.9-10.7C86.9,89.3,90.5,87.8,94.7,87.8 M94.7,84.5L94.7,84.5
				c-4.7,0-9.3,1.6-11.8,4.1c-4.2,4.2-5.7,8.3-4.9,13.6c1.8,11.3,7.9,19.2,19,24.8c0.9,0.5,1.9,0.7,3,0.7c3.7,0,8.3-2.7,9.4-5.5
				c0.9-2.2,2.1-9.3,2.1-16.3c0-10-2.5-16.4-7.4-19C101.3,85.3,98.1,84.5,94.7,84.5L94.7,84.5L94.7,84.5z"/>
		</g>
		<path class="st2" d="M92.4,107.3c-2,0.3-4.6,0-6.2-3.6c-1.6-3.6-1.1-7.3,1.2-8.1c4.1-1.4,5.7,1.2,6.9,3.4
			C95.8,101.7,96.6,106.6,92.4,107.3z"/>
		<path class="st7" d="M91.4,87.8c-5.7,1.4-5.9,2.7-6.8,3.6c8.7-3.1,22.6,2.2,19.7-0.8c-0.5-0.6-0.1-0.3-1.7-1.3
			C99.3,87.5,94.3,87.1,91.4,87.8z"/>
		<path class="st8" d="M80.8,102.1c-2.2-10.5-0.2-22.6,20.1-26.3 M79.6,100.2c-2.2-10.5-0.3-21.9,20.9-26.4"/>
	</g>
</g>

</svg>
