
<svg version="1.1" id="Layer_1" xmlns="http://www.w3.org/2000/svg" xmlns:xlink="http://www.w3.org/1999/xlink" x="0px" y="0px"
   viewBox="0 0 180 180" style="enable-background:new 0 0 180 180;" xml:space="preserve">

<style type="text/css">
  .st0{fill:#fff;}
  .st1{fill:#040000;}
  .st2{opacity:0.2;}
  .st3{fill:#FFFFFF;}
  .st4{fill:#1A1A1A;}
  .st5{opacity:0.2;fill:#040000;enable-background:new    ;}
</style>
<title>h</title>
<g id="Layer_2">
  <g id="Layer_1-2">
    <path class="st0" d="M80.7,135.3l-1.7,2.1c-2.1,2.7-4.8,4.9-7.8,6.5c-1.5,0.8-3.4,1.4-7.9,1.2c-5.5-0.2-15.6-3.9-25.8-3.9
      c-6.4,0.1-12.6,1.8-18.2,5l7.1,14.6c2.9-1.7,9.9-3.8,12.5-3.8c11,0,19.4,3.8,29.3,3.8c4.7-0.1,9.3-1.7,13.1-4.5
      c3.8-2.8,5.6-4,7.1-10.2l1.5-5.9l1.5,5.9c1.5,6.2,3.3,7.4,7.1,10.2c3.8,2.8,8.4,4.4,13.1,4.5c9.9,0,18.3-3.8,29.3-3.8
      c2.6,0,9.6,2.1,12.5,3.8l7.1-14.6c-5.5-3.2-11.8-4.9-18.2-5c-10.2,0-20.3,3.8-25.8,3.9c-4.4,0.1-6.4-0.4-7.9-1.2
      c-3-1.6-5.7-3.8-7.8-6.5l-1.6-2.1h-0.1"/>
    <path class="st1" d="M161.5,144.4c-5.8-3.3-12.3-5.1-19-5.2c-6.2,0-12.5,1.4-17.5,2.5c-2.7,0.7-5.5,1.2-8.3,1.4
      c-4.4,0.1-6-0.4-7.1-1.1c-2.9-1.5-5.4-3.6-7.3-6.1h0.1l-3.1-1.2l0,0l-1,0.8l1.7,2.1c2.2,2.9,5,5.2,8.3,6.9c2,1.2,4.5,1.6,8.7,1.4
      c3-0.3,6-0.8,8.9-1.5c4.9-1.1,11-2.4,16.9-2.4c5.6,0.1,11.2,1.5,16.2,4.1l-5.8,12c-3.6-1.6-9.3-3.2-11.8-3.2
      c-5.3,0.1-10.5,0.8-15.7,2c-4.5,1.1-9,1.7-13.6,1.9c-4.4-0.1-8.7-1.6-12.3-4.2c-3.7-2.7-5.1-3.7-6.5-9.4l-3-11.4l-3,11.5
      c-1.4,5.6-2.8,6.6-6.5,9.3c-3.6,2.6-7.9,4.1-12.3,4.2c-4.6-0.1-9.2-0.7-13.6-1.8c-5.1-1.2-10.4-1.9-15.7-2
      c-2.5,0-8.3,1.6-11.8,3.2l-5.8-12c5-2.6,10.6-4,16.2-4.1c5.9,0,12,1.3,16.9,2.4c2.9,0.8,5.9,1.3,8.9,1.5c4.2,0.1,6.6-0.3,8.6-1.4
      c3.2-1.7,6.1-4,8.3-6.9l3.3-4.2h-0.3l-5.4,2.4h0c-2,2.5-4.5,4.6-7.3,6.1c-1.1,0.6-2.7,1.1-7.1,1c-2.8-0.3-5.6-0.7-8.3-1.4
      c-5-1.1-11.3-2.5-17.5-2.5c-6.7,0.1-13.2,1.9-19,5.2l-1.1,0.7l8.4,17.3l1.4-0.8c2.7-1.6,9.4-3.6,11.8-3.6
      C44,158.2,49,158.8,54,160c4.7,1.1,9.5,1.7,14.3,1.8c5-0.1,9.9-1.8,14-4.8c3.9-2.8,6-4.3,7.7-11l0.1-0.3l0.1,0.3
      c1.7,6.7,3.8,8.2,7.7,11.1c4.1,3,9,4.6,14,4.8c4.8-0.1,9.5-0.7,14.2-1.8c5-1.1,10-1.8,15.1-1.9c2.4,0,9.1,2,11.8,3.6l1.4,0.8
      l8.4-17.3L161.5,144.4z"/>
    <rect x="59.6" y="127.6" class="st0" width="70.2" height="5.7"/>
    <path class="st0" d="M132.5,130.6c0.4-1.6,1-3.6,1.6-5.9c2.6-9.2,6.2-21.9,6.2-30.2c0-19.6-6.2-36-17.9-47.5
      c-9.9-9.6-23-15.4-36.8-16.4L73.4,18.2l-0.6-0.6h-0.8c-2.7,0-5.4,2.5-6.2,5.6l-1.4,6.9c-1.3,3.1-3.5,5.4-7.1,8.3
      c-2.8,2.3-4.9,5.3-6.1,8.7L51,47.5c-0.9,2.3-1.6,4.3-2.2,6.1c-1.3,4.6-3.4,8.9-6.1,12.9L31,82.8c-3.6,4.5-3.2,10.8,0.9,14.3
      s14.4,6.3,17.9,6.3c0.9,0.1,1.8-0.2,2.4-0.8c1.4-1.5,2.7-3.1,3.7-4.8c2.3-3.6,4-6.2,9.9-6.2c8.7,0.1,16.3-7.9,19.9-11.7l0,0
      l2.2-2.5c1.5,2.3,3.1,6.1,2,10.1c-0.5,1.7-1.3,3.3-2.3,4.8c-2.3,3-5,5.7-8,8l-0.2,0.2c-7.5,6.1-20,16.2-22.1,30.3"/>
    <g class="st2">
      <path class="st3" d="M69.4,37.6c8.1-5,2.6-18,2.6-18c-2.4,0-4.5,1.6-5,4l-1.5,6.9c-1.4,3.4-3.7,5.7-7.5,8.8
        c-2.7,2.2-4.7,5-5.8,8.3l-0.2,0.4c-0.9,2.3-1.5,4.2-2.1,6c-1.3,4.7-3.4,9.1-6.2,13.1L32.1,83.5c-0.1,0.2-0.3,0.3-0.4,0.5
        c-2.2,2-2.6,5.3-1,7.7c0,0,19-23.5,21.5-26.7C56.7,59,53.8,47.2,69.4,37.6z"/>
    </g>
    <path class="st4" d="M70.5,47.1c-5.2,2.1-6.6,11.1-6.6,11.1c5.1-4.4,7.5,0.7,12.6-3.4C80.7,51.5,75.6,45,70.5,47.1z"/>
    <path class="st5" d="M94.5,63.4C92.7,66.9,88.2,74,88.2,74s-0.5,1.4-1,3.5c0,0,2.1-0.2,2.5,6.4c0.1,1.7,0.9,7.8,2,5.2
      c3-7.4,5.2-16.4,5.1-19.5S96.4,59.9,94.5,63.4z"/>
    <path class="st5" d="M84.8,32.5c0,0,40.8,5.1,40.8,44.1c0,26.1-17.4,33.4-22,51c0,0,19.3,0.2,27.9,4.2c0,0,9.2-24.8,9.2-39.6
      C140.7,77.2,129.3,31.3,84.8,32.5z"/>
    <path class="st5" d="M69.8,89.6c-9.1-4.5-11.4-9.8-14.9,0.7c-3.4,10.2-8.5,11.9-5.1,13s7.7-10.5,10.8-10.7S73.2,91.2,69.8,89.6z"
      />
    <path class="st4" d="M81,103.9c3.2-2.4,6-5.2,8.4-8.4c1.1-1.6,2-3.5,2.6-5.4c1.8-6.4-2.3-12.1-3.8-13.9l-3.8,4.4
      c-3.9,4-10.7,11.1-18.5,11.1c-10,0-10.3,7.1-15,11.7c-0.3,0.2-0.7,0.2-1,0.2c-3.3,0-12.9-2.7-16.6-5.8c-3.2-2.7-3.6-7.8-0.6-11.5
      l11.7-16.4c5.2-7.6,5.5-11.6,8.5-19.3c1-3.3,3-6.2,5.6-8.3c3.8-3.2,6.3-5.6,7.8-9.3l1.5-7c0.5-2.1,2.4-4.1,4.2-4.1l0,0l0,0l0,0
      l12.9,12.9c25.3,1.7,53.5,20.1,53.5,62c0,10.8-6.6,30.4-8.2,37l4.9-2.3H135c0.3-1.2,0.7-2.6,1.1-4c2.7-9.4,6.3-22.2,6.3-30.8
      c0-42.1-27.7-63.3-55.7-65.8L74.7,19l-1.2-1.2h-1.7c-3.7,0-7.2,3.1-8.1,7.2v0.1l-1.4,6.6c-1.2,2.7-3.1,4.6-6.5,7.4
      c-3.1,2.5-5.4,5.8-6.7,9.5L49.1,49c-0.9,2.3-1.6,4.4-2.2,6.2c-1.3,4.4-3.2,8.6-5.9,12.4L29.4,83.8c-4.2,5.3-3.8,12.8,1.2,17
      c4.6,3.9,15.4,6.8,19.2,6.8c1.4,0.1,2.8-0.4,3.8-1.3c1.5-1.6,2.9-3.3,4-5.2c2.2-3.4,3.4-5.3,8.2-5.3c9.6,0,17.5-8.4,21.3-12.4
      l0.1-0.1l0.1-0.1l0.3-0.3c0.8,1.9,1,4,0.5,6c-0.4,1.5-1.1,2.9-2,4.2c-2.2,2.9-4.7,5.4-7.6,7.6l-0.2,0.2
      c-7.5,6.1-19.7,15.9-22.5,30l3.5,3.4C60.8,120.1,73.7,109.8,81,103.9z"/>
    <path class="st4" d="M93.2,136.2c12.8-0.3,25.5-1.2,38.2-2.8l4.2-3.6l-0.1-0.1v-0.1L130,129l0,0l0,0c-12.2,1.5-24.6,2.5-36.9,2.7
      c-12.3-0.3-24.6-1.2-36.8-2.7v-0.2l-1.5,4.6C67.6,135,80.4,135.9,93.2,136.2z"/>
  </g>
</g>
</svg>
