
<svg version="1.1" id="Layer_1" xmlns="http://www.w3.org/2000/svg" xmlns:xlink="http://www.w3.org/1999/xlink" x="0px" y="0px"
   viewBox="0 0 180 180" style="enable-background:new 0 0 180 180;" xml:space="preserve">

<style type="text/css">
  .st0{fill:#BF3B43;}
  .st1{opacity:0.2;fill:#040000;enable-background:new    ;}
  .st2{opacity:0.2;fill:#FFFFFF;enable-background:new    ;}
  .st3{fill:#1A1A1A;}
</style>
<title>j</title>
<g>
  <path class="st0" d="M97.6,142.1c7-5.8,16.4-18.4,16.4-39.2c0-20.5-13.5-35.9-22.1-44.5l-1.8-1.8l-1.3,2.2
    c-1.5,2.5-8.8,14.5-9.1,44.6H65.9c0.5-45,18-62,18.2-62.2l0.7-0.6l-0.1-0.9c-0.5-6.7-6.1-12-12.9-12v-0.1
    c-7.1,0-12.9,5.8-12.9,12.9c0,3.3,1.2,6.4,3.4,8.8c-5.3,4.3-10.2,9.1-14.6,14.3c-10.8,12.9-16.5,26.5-16.5,39.3
    c0,20.8,9.4,33.3,16.4,39.2"/>
  <path class="st1" d="M99.6,68.3c22.7,55.1-27.1,71.8-27.1,71.8l25.1,2c-2.4,1.8,16-5.2,16-41.4C113.7,88.4,108.6,76.6,99.6,68.3z"
    />
  <path class="st2" d="M65.3,49.4c-2.6-1.2-28.6,20.7-32.9,43c-4,20.8,3.2,26.6,2.8,26.4c0-0.1,2.8-45.8,32.8-68.1
    C68,50.7,66.9,50.1,65.3,49.4z"/>
  <path class="st2" d="M73.5,29.5c-4.3,0.4-11.8,6.7-12.4,15.3c0,0-6-5.6,0.1-12.5C65.9,26.9,73.5,29.5,73.5,29.5z"/>
  <path class="st1" d="M70.6,67.7c1.8-5.1,14.1-29,14.1-29l-5.6-9.2l-2.9,0.1c9.2,11.3-18,37-18,56.4c0,5.7,1.4,17.2,5.5,19.3
    C63.9,105.3,66.8,78.2,70.6,67.7z"/>
  <path class="st3" d="M52.5,144.1c-5-2.3-20.3-14.5-20.3-40.7C32.2,73.3,64.3,50,64.3,50c-4.9-3.5-6-10.4-2.5-15.3
    c3.5-4.9,10.4-6,15.3-2.5c2.6,1.9,4.3,4.9,4.5,8.1c0,0-18.7,17.7-18.7,65.6h17.7c0-29.9,7-42.4,8.9-45.6c9.5,9.4,21.5,24,21.5,43.1
    c0,26.1-15.1,38.3-20.2,40.7l10.6-3.4c6.6-7,13.6-19.2,13.6-37.4c0-15.7-7.4-30.7-22.7-46l-3.7-3.6L86,58.2
    c-5.8,9.8-9,24.8-9.4,43.6h-9.7c0.5-21.5,5-36,8.8-44.6c4.3-9.8,8.7-14.1,8.7-14.1l1.3-1.3l-0.1-1.9C85,32.1,78.5,26.1,70.7,26l0,0
    c-8.2,0-14.9,6.7-14.9,14.9c0,3.1,0.9,6,2.7,8.5c-4.8,4-9.2,8.5-13.2,13.3c-11.1,13.3-17,27.3-17,40.6c0,17.8,6.8,29.8,13.3,37
    L52.5,144.1L52.5,144.1z"/>
  <path class="st3" d="M71.5,144.7c9,0,17.1,0.3,24.6,0.9l1.9-3.8c-7.7-0.7-16.4-1.1-26.5-1.1l0,0c-10.2,0-19,0.4-26.7,1.1l1.2,3.9
    C53.6,145,62.1,144.7,71.5,144.7z"/>
  <rect x="42.4" y="136" transform="matrix(0.7506 -0.6608 0.6608 0.7506 -82.0747 64.338)" class="st3" width="3.5" height="9.7"/>

    <rect x="93.4" y="139.3" transform="matrix(0.7071 -0.7071 0.7071 0.7071 -70.9372 110.7711)" class="st3" width="9.7" height="3.5"/>
</g>
<g>
  <path class="st0" d="M134.4,150.3c7-5.8,16.5-18.5,16.5-39.4c0-20.5-13.6-36-22.2-44.6l-1.9-1.9l-1.4,2.2
    c-1.5,2.5-8.8,14.4-9.2,44.8h-13.7c0.5-45.1,18-62.1,18.2-62.3l0.7-0.7v-0.8c-0.5-6.8-6.1-12-12.9-12l0,0
    c-7.1,0-12.9,5.8-12.9,13.1c0,3.2,1.2,6.4,3.4,8.8c-5.3,4.2-10.2,9-14.6,14.3c-10.9,12.9-16.6,26.6-16.6,39.4
    c0,20.9,9.5,33.4,16.5,39.4"/>
  <path class="st1" d="M136.4,76.5c22.7,55.3-27.1,71.9-27.1,71.9l25.1,1.9c-2.4,1.9,16.1-5.3,16.1-41.4
    C150.5,96.5,145.4,84.8,136.4,76.5z"/>
  <path class="st2" d="M102.2,57.5c-2.7-1.2-28.7,20.7-32.9,43.1c-4.1,20.9,3.2,26.6,2.7,26.5c0-0.2,2.7-46,32.9-68.2
    C104.9,58.9,103.7,58.2,102.2,57.5z"/>
  <path class="st2" d="M110.3,37.7c-4.4,0.3-11.9,6.6-12.4,15.4c0,0-5.9-5.6,0-12.6C102.7,34.9,110.3,37.7,110.3,37.7z"/>
  <path class="st1" d="M107.4,75.8c1.9-5.1,14.1-29,14.1-29l-5.6-9.2H113c9.2,11.4-18,37.2-18,56.5c0,5.8,1.4,17.3,5.6,19.3
    C100.6,113.5,103.5,86.4,107.4,75.8z"/>
  <path class="st3" d="M89.3,152.5c-5.1-2.4-20.4-14.6-20.4-40.9c0-30.2,32.2-53.6,32.2-53.6c-4.9-3.6-6.1-10.3-2.5-15.3
    c3.6-4.9,10.3-6.1,15.3-2.5c2.7,1.9,4.2,4.9,4.6,8.1c0,0-18.8,17.8-18.8,65.8h17.8c0-30,7-42.4,8.8-45.6
    c9.5,9.5,21.5,24.1,21.5,43.3c0,26.1-15.1,38.3-20.4,40.9l10.7-3.4c6.6-7.1,13.6-19.3,13.6-37.5c0-15.8-7.5-30.9-22.7-46.1
    l-3.7-3.7l-2.4,4.6c-5.8,9.8-9,24.9-9.5,43.8h-9.7c0.5-21.5,4.9-36.1,8.8-44.6c4.4-9.8,8.7-14.1,8.8-14.1l1.4-1.4l-0.2-1.9
    c-0.5-7.8-7.1-13.9-14.9-13.9l0,0c-8.3,0-14.9,6.6-15.1,14.9c0,3.1,0.8,6.1,2.7,8.7C90.4,62.1,86,66.5,82,71.2
    C70.8,84.5,65,98.6,65,112c0,17.8,6.8,29.9,13.2,37L89.3,152.5L89.3,152.5z"/>
  <path class="st3" d="M108.3,153c9,0,17.1,0.3,24.6,0.8l1.9-3.9c-7.6-0.7-16.5-1-26.6-1l0,0c-10.2,0-19,0.3-26.8,1.2l1.2,3.9
    C90.3,153.4,98.8,153,108.3,153z"/>
  <rect x="79" y="144.4" transform="matrix(0.7506 -0.6608 0.6608 0.7506 -78.4457 90.6269)" class="st3" width="3.6" height="9.7"/>

    <rect x="130.3" y="147.6" transform="matrix(0.7071 -0.7071 0.7071 0.7071 -66.0389 139.2839)" class="st3" width="9.7" height="3.6"/>
</g>

</svg>
