
<svg version="1.1" id="Layer_1" xmlns="http://www.w3.org/2000/svg" xmlns:xlink="http://www.w3.org/1999/xlink" x="0px" y="0px"
   viewBox="0 0 180 180" style="enable-background:new 0 0 180 180;" xml:space="preserve">

<style type="text/css">
  .st0{fill:none;}
  .st1{fill:#fff;}
  .st2{opacity:0.2;}
  .st3{opacity:0.2;fill:#fff;enable-background:new    ;}
  .st4{fill:#1A1A1A;}
</style>
<title>l</title>
<g id="camel_rider_neo">
  <rect class="st0" width="180" height="180"/>
  <g>
    <g id="camel_7_">
      <path class="st1" d="M22.4,63.4L22.4,63.4c4.3,0.8,10-0.7,11.4-1.1c0.2-0.1,0.3-0.1,0.3-0.1s-0.1,0-0.3,0.1
        C32.5,62.7,26.8,64.2,22.4,63.4L22.4,63.4c-3.5-0.6-6-2.6-4.8-7.8c1.9-7.9,13.4-7.2,13.4-7.2c4.4-7.6,6.5-7.2,17-5.8
        c8.6,1.1,19.9,4.1,28.2,1.3c8.2-2.8,19.9,0,19.9,0s11.4-8.9,14.6-6.3c3.2,2.5,2.8,16-2.5,20.5c-2,1.6,7.7,29.4,23.7,50.3v50.3H93
        c-10-16.3-19.3-39.1-21.2-68.9c-0.3-3.6,1.9-7.9-9.2-11.1c-11.1-3.2-17.1-1.6-20.6-9.8c0,0-7,2.1-14.2,4.2
        C7.3,79.1,18.6,66.4,22.4,63.4z"/>
      <g class="st2">
        <path d="M22.4,63.4L22.4,63.4c0.1,0,0.2,0,0.3,0c-2.9,4.2-3.2,8.3,10.3,4.3c7.2-2.1,14.2-4.2,14.2-4.2c3.5,8.2,9.5,6.6,20.6,9.8
          s8.9,7.5,9.2,11.1c0,0.1,0,0.2,0,0.3c3.6,1.3,5.6,2.2,5.6,2.2s1.5,4.7,0.4,5.8c-1.4,1.4-2.8,0.1-5.4-1.6
          c3.3,27.2,15,52.3,24.3,67.5h-9c-10-16.3-19.3-39.1-21.2-68.9c0-0.4,0-0.9,0-1.4c-0.1,0-0.3-0.1-0.4-0.1l-4-6.2
          c1.1,0.2,2.1,0.5,3.1,0.7c-1.2-1.5-3.5-2.8-7.8-4.1C51.5,75.4,45.5,77,42,68.8c0,0-7,2.1-14.2,4.2C7.3,79.1,18.6,66.4,22.4,63.4
          z"/>
      </g>
      <g>
        <g class="st2">
          <path class="st1" d="M48.1,42.5c8.6,1.1,19.9,4.1,28.2,1.3c8.2-2.8,19.9,0,19.9,0s11.4-8.9,14.6-6.3c3.2,2.5,2.8,16-2.5,20.5
            c-2,1.6,7.7,29.4,23.7,50.3v11.6c-19.1-21.1-31.2-54.8-29-56.6c5.4-4.5,8.3-20.6,5.2-23.1c-3.2-2.5-14.6,6.3-14.6,6.3
            s-11.7-2.8-19.9,0s-19.6-0.2-28.2-1.3c-5.6-0.7-11.4,1.5-13.9,2.3C35.7,40.7,38,41.2,48.1,42.5z"/>
        </g>
        <g class="st2">
          <path class="st1" d="M25.8,51c0,0-4.2,2.4-7.9,3.9c1.9-5.8,9.3-6.5,12.1-6.6C28.6,49.3,27.3,48.3,25.8,51z"/>
        </g>
      </g>
      <g>
        <path d="M81,59.3c4.8,0.9,10-2.5,11.1-7.3l-18.7-3.6C72.6,53.2,76.2,58.4,81,59.3z"/>
        <path d="M97.1,50.8c2.9,1.2,5.2,3.6,6.1,6.6c3.4-3.5,4.7-9.1,3-13.7C102.6,45.3,99.5,47.6,97.1,50.8z"/>
        <path d="M135.2,106c-14-18.4-22.2-40.5-23.1-46c3.5-4,4.8-10.3,4.7-15.3c0-3.4-0.7-7.9-3.5-10.2c-0.8-0.8-2.1-1.5-4.1-1.5
          c-4.4,0-10.7,4.1-14,6.5c-2.2-0.4-6-1-10.2-1c-3.9,0-7.3,0.5-10.1,1.5c-1.9,0.7-4.2,1-6.9,1c-4.3,0-9-0.8-13.5-1.5
          c-2.1-0.3-4-0.7-5.9-0.9L48,38.5c-3.2-0.4-5.7-0.7-7.8-0.7c-5.5,0-8.5,2.3-11.3,6.7c-8,0.4-13.6,4.2-15.1,10.3
          c-0.8,3.4-0.5,6.3,1,8.6c0.3,0.4,0.6,0.8,1,1.2c-2.4,2.8-4.7,6.7-3.5,10.1c0.5,1.5,2.2,4.1,7.1,4.1c2.4,0,5.6-0.6,9.7-1.8
          l11.1-3.3c3.4,5.1,8.4,6.1,13.9,7.2c2.2,0.4,4.7,0.9,7.5,1.7c6.4,1.8,6.3,3.1,6.3,5.4c0,0.7,0,1.4,0,2.2
          c1.7,25.9,9,49.7,21.8,70.6c0.7,1.2,2,1.9,3.4,1.9H132c2.2,0,4-1.8,4-4v-50.3C136,107.5,135.7,106.7,135.2,106z M131.9,158.6H93
          c-10-16.3-19.3-39.1-21.2-68.9c-0.1-1.2,0.1-2.5-0.1-3.8c4.9,1.6,7.8,3.2,7.8,3.2c0.3,0.2,0.7,0.3,1,0.3c0.7,0,1.3-0.4,1.7-1.1
          c0.6-0.9,0.3-2.2-0.7-2.7c-0.2-0.1-4.7-2.7-12.2-4.7c-0.4-0.1-0.7-0.1-1.1,0c-1.3-0.8-3.1-1.6-5.6-2.3
          C51.5,75.4,45.5,77,42,68.8c0,0-7,2.1-14.2,4.2c-3.9,1.2-6.6,1.6-8.5,1.6c-6.5,0-2.5-5.7,0.9-9.2c5.8,0,13.8-1.2,14.3-1.2
          c1.1-0.2,1.9-1.2,1.7-2.3C36,60.8,35,60,33.9,60.2c-0.2,0-10.2,1.5-15.6,1.2c-1-1.2-1.4-3.1-0.7-5.8c1.3-5.3,6.9-6.7,10.4-7.1
          c1.8,1.6,4.1,2.7,6.5,2.8c2.4,0.1,4.9-0.7,6.8-2.3c0.9-0.8,1.8-2,1.4-3.2c-0.2-0.7-9.6-0.2-10.2,0.9L32,46.9
          c2.5-3.9,4.4-5.1,8.2-5.1c2,0,4.5,0.3,8,0.8c6,0.8,13.3,2.5,19.9,2.5c2.9,0,5.7-0.3,8.2-1.2c2.7-0.9,5.9-1.3,8.8-1.3
          c5.9,0,11.1,1.3,11.1,1.3s8.7-6.9,13-6.9c0.6,0,1.1,0.1,1.5,0.5c3.2,2.5,2.8,16-2.5,20.5c-2,1.6,7.7,29.4,23.7,50.3V158.6z"/>
      </g>
    </g>
    <g id="camel_8_">
      <path class="st1" d="M50.8,88.2L50.8,88.2c3.2,0.6,7.5-0.5,8.5-0.8c0.1,0,0.2-0.1,0.2-0.1s-0.1,0-0.2,0.1
        C58.3,87.6,54.1,88.7,50.8,88.2L50.8,88.2c-2.6-0.5-4.5-2-3.6-5.9c1.4-5.9,10.1-5.4,10.1-5.4c3.3-5.7,4.9-5.4,12.8-4.4
        c6.4,0.8,15,3.1,21.1,0.9c6.2-2.1,15,0,15,0s8.5-6.6,10.9-4.7c2.4,1.9,2.1,12-1.9,15.4c-1.5,1.2,5.8,22,17.8,37.7v37.7h-29.1
        c-7.5-12.3-14.5-29.3-15.9-51.6c-0.2-2.7,1.4-5.9-6.9-8.3c-8.3-2.4-12.8-1.2-15.4-7.4c0,0-5.3,1.6-10.7,3.2
        C39.5,100,47.9,90.4,50.8,88.2z"/>
      <g class="st2">
        <path d="M50.8,88.2L50.8,88.2c0.1,0,0.2,0,0.3,0c-2.2,3.1-2.4,6.2,7.8,3.2c5.4-1.6,10.7-3.2,10.7-3.2c2.6,6.2,7.1,5,15.4,7.4
          c8.3,2.4,6.7,5.6,6.9,8.3c0,0.1,0,0.1,0,0.2c2.7,0.9,4.2,1.7,4.2,1.7s1.1,3.5,0.3,4.3c-1,1-2.1,0-4-1.2
          c2.5,20.4,11.3,39.3,18.2,50.6h-6.7c-7.5-12.3-14.5-29.3-15.9-51.6c0-0.3,0-0.7,0-1c-0.1,0-0.2-0.1-0.3-0.1l-3-4.7
          c0.8,0.2,1.6,0.3,2.3,0.5c-0.9-1.1-2.6-2.1-5.8-3c-8.3-2.4-12.8-1.2-15.4-7.4c0,0-5.3,1.6-10.7,3.2
          C39.5,100,47.9,90.4,50.8,88.2z"/>
      </g>
      <g>
        <g class="st2">
          <path class="st1" d="M70,72.5c6.4,0.8,15,3.1,21.1,0.9c6.2-2.1,15,0,15,0s8.5-6.6,10.9-4.7c2.4,1.9,2.1,12-1.9,15.4
            c-1.5,1.2,5.8,22,17.8,37.7v8.7c-14.3-15.9-23.4-41.1-21.7-42.5c4-3.4,6.3-15.4,3.9-17.3c-2.4-1.9-10.9,4.7-10.9,4.7
            s-8.8-2.1-15,0s-14.7-0.1-21.1-0.9c-4.2-0.5-8.6,1.1-10.4,1.8C60.7,71.2,62.5,71.5,70,72.5z"/>
        </g>
        <g class="st2">
          <path class="st1" d="M53.3,78.8c0,0-3.1,1.8-6,3c1.4-4.3,7-4.9,9.1-4.9C55.4,77.6,54.5,76.9,53.3,78.8z"/>
        </g>
      </g>
      <g>
        <path d="M94.6,85.1c3.7,0.7,7.6-1.9,8.4-5.5l-14.1-2.7C88.3,80.6,91,84.4,94.6,85.1z"/>
        <path d="M106.8,78.7c2.2,0.9,3.9,2.8,4.6,5c2.5-2.7,3.5-6.9,2.2-10.3C110.9,74.6,108.6,76.4,106.8,78.7z"/>
        <path d="M135.2,119.9c-10.5-13.8-16.6-30.4-17.3-34.5c2.7-3,3.6-7.7,3.5-11.5c0-2.5-0.5-5.9-2.6-7.6c-0.4-0.4-1.4-0.9-2.9-0.9
          c-3.3,0-8,3.1-10.5,4.9c-1.6-0.3-4.5-0.7-7.6-0.7c-2.9,0-5.5,0.4-7.6,1.1c-1.4,0.5-3.1,0.7-5.2,0.7c-3.2,0-6.7-0.6-10.1-1.1
          c-1.6-0.3-3-0.5-4.4-0.7L70,69.5c-2.4-0.3-4.3-0.6-5.9-0.6c-4.2,0-6.4,1.7-8.5,5c-6,0.3-10.2,3.2-11.3,7.7
          c-0.6,2.5-0.4,4.7,0.8,6.4c0.1,0.2,0.3,0.4,0.5,0.6c0,0.1,0.1,0.2,0.2,0.3c-1.8,2.1-3.4,5-2.7,7.5c0.4,1.2,1.6,3.1,5.3,3.1
          c1.8,0,4.2-0.4,7.2-1.4l8.3-2.5c2.6,3.8,6.3,4.6,10.5,5.4c1.7,0.3,3.5,0.7,5.6,1.3c4.8,1.4,4.7,2.3,4.7,4c0,0.5,0,1,0,1.6
          c1.3,19.4,6.8,37.3,16.4,53c0.5,0.9,1.5,1.4,2.6,1.4h29.1c1.7,0,3-1.3,3-3v-37.7C135.8,121,135.6,120.4,135.2,119.9z M133,159.5
          h-29.1c-7.5-12.3-14.5-29.3-15.9-51.6c-0.1-0.9,0.1-1.8,0-2.7c3.5,1.2,5.6,2.3,5.6,2.3c0.2,0.1,0.4,0.2,0.7,0.2
          c0.6,0,1.1-0.3,1.3-0.8c0.4-0.7,0.1-1.6-0.6-2c-0.2-0.1-3.6-2-9.2-3.5c-0.1,0-0.3,0-0.4,0c-1-0.6-2.4-1.2-4.3-1.8
          c-8.3-2.4-12.8-1.2-15.4-7.4c0,0-5.3,1.6-10.7,3.2c-2.9,0.9-5,1.2-6.4,1.2c-4.8,0-1.9-4.3,0.7-6.9c4.4,0,10.2-0.9,10.5-0.9
          c0.9-0.1,1.4-0.9,1.3-1.7c-0.1-0.9-0.9-1.4-1.7-1.3c-0.1,0-7.5,1.1-11.5,0.9c-0.8-0.9-1.1-2.3-0.6-4.4c0.9-3.9,4.9-5,7.6-5.3
          c1.3,1.2,3,2,4.8,2.1c1.8,0.1,3.7-0.5,5.1-1.7c0.8-0.6,1.4-1.5,1.1-2.4c-0.1-0.5-7.1-0.1-7.6,0.7l-0.2,0.1
          c1.9-3,3.4-3.9,6.1-3.9c1.5,0,3.4,0.3,6,0.6c4.5,0.6,10,1.8,15,1.8c2.2,0,4.3-0.2,6.2-0.9c2.1-0.7,4.4-0.9,6.6-0.9
          c4.4,0,8.3,0.9,8.3,0.9s6.4-5,9.6-5c0.5,0,0.9,0.1,1.2,0.3c2.4,1.9,2.1,12-1.9,15.4c-1.5,1.2,5.8,22,17.8,37.7V159.5z"/>
      </g>
    </g>
    <g id="base_1_">
      <path class="st1" d="M44.5,160.5v-3.6c0-10.8-0.1-20.2,13.8-23.8l0,0c1.6-0.4,3.4-0.7,5.4-1c8.8-1.1,19.2-1.7,31.6-1.7
        c12.4,0,22.8,0.5,31.6,1.7c2,0.3,3.9,0.6,5.5,1l0,0c13.7,3.6,13.7,12.9,13.7,23.7v3.6H44.5V160.5z"/>
      <path class="st3" d="M95.3,138.5c-43.1,0-47.5,4.8-47.5,4.8h-0.6c1.9-10.2,24.5-11.3,24.5-11.3h47.1c0,0,23.4,0.8,24.7,11.3h-0.6
        C142.9,143.2,138.4,138.5,95.3,138.5z"/>
      <path class="st4" d="M148.1,162.5H42.6v-5.6c0-10.2-0.1-20.8,13.4-25.1v-0.1l1.9-0.5c1.7-0.4,3.6-0.8,5.6-1
        c8.9-1.1,19.3-1.7,31.9-1.7c12.5,0,22.9,0.6,31.9,1.7c2.1,0.3,4,0.6,5.8,1.1l1.9,0.5v0.1c13.3,4.4,13.3,14.9,13.3,25.1
        L148.1,162.5z M46.5,158.5h97.6v-1.6c0-10.8,0-18.6-12.2-21.8l-0.7-0.2c-1.4-0.3-2.9-0.6-4.6-0.8c-8.8-1.1-19-1.7-31.4-1.7
        c-12.3,0-22.6,0.5-31.4,1.7c-1.7,0.2-3.2,0.5-4.6,0.8l-0.6,0.2c-12.3,3.2-12.3,11-12.3,21.8L46.5,158.5z"/>
    </g>
  </g>
</g>
</svg>
