
<svg version="1.1" id="Layer_1" xmlns="http://www.w3.org/2000/svg" xmlns:xlink="http://www.w3.org/1999/xlink" x="0px" y="0px"
   viewBox="0 0 180 180" style="enable-background:new 0 0 180 180;" xml:space="preserve">

<style type="text/css">
  .st0{fill:#fff;}
  .st1{opacity:0.2;fill:#FFFFFF;enable-background:new    ;}
  .st2{opacity:0.2;}
  .st3{fill:#FFFFFF;}
  .st4{fill:#1A1A1A;}
  .st5{opacity:0.2;fill:#040000;enable-background:new    ;}
  .st6{opacity:0.3;fill:#FFFFFF;enable-background:new    ;}
</style>
<title>m</title>
<g id="Layer_2">
  <g id="Layer_1-2">
    <path class="st0" d="M58.1,24.3h-0.8c-2.7,0-5.4,2.5-6.2,5.6l-1.5,6.9c-1.3,3.1-3.5,5.4-7.1,8.3c-2.8,2.3-4.9,5.3-6.1,8.7
      l-0.2,0.4c-0.9,2.3-1.6,4.3-2.2,6.1c-1.3,4.6-3.4,8.9-6.1,12.8L16.4,89.5c-3.6,4.6-3.2,10.8,0.9,14.3s14.4,6.3,17.9,6.3
      c0.9,0.1,1.7-0.2,2.4-0.8c1.4-1.5,2.7-3.1,3.7-4.8c2.3-3.6,4-6.2,9.9-6.2c8.7,0,16.3-8,19.9-11.8l0,0l2.2-2.5
      c1.5,2.3,3.1,6.1,2,10.1c-0.5,1.7-1.3,3.3-2.3,4.8c-2.3,3-5,5.7-8,8l-0.2,0.2c-7.5,6.1-20,16.2-22.1,30.3
      c-13.3,3.6-13.3,12.9-13.3,23.6v3.6h101.6v-3.6c0-10.7,0.1-20-13.3-23.6c0.4-1.6,1-3.6,1.6-5.9c2.6-9.2,6.2-21.9,6.2-30.2
      c0-19.6-6.2-36-17.9-47.5c-9.9-9.6-23-15.4-36.8-16.4L58.7,24.9L58.1,24.3z"/>
    <path class="st1" d="M80.8,142.5c43.1,0,47.5,4.8,47.5,4.8h0.6c-1.9-10.2-24.5-11.3-24.5-11.3H57.3c0,0-23.4,0.8-24.7,11.3h0.6
      C33.2,147.2,37.7,142.5,80.8,142.5z"/>
    <g class="st2">
      <path class="st3" d="M54.7,44.2c8.1-5,2.6-18,2.6-18c-2.4,0-4.5,1.6-5,4l-1.5,6.9c-1.4,3.4-3.7,5.7-7.5,8.8
        c-2.7,2.2-4.7,5-5.8,8.3l-0.2,0.4c-0.9,2.3-1.5,4.2-2.1,6c-1.3,4.7-3.4,9.1-6.2,13.1L17.5,90.2c-0.1,0.2-0.3,0.3-0.4,0.5
        c-2.2,2-2.6,5.3-1,7.7c0,0,19-23.5,21.5-26.7C42,65.7,39.2,53.9,54.7,44.2z"/>
    </g>
    <path class="st4" d="M55.8,53.8c-5.2,2.1-6.6,11.1-6.6,11.1c5.1-4.4,7.5,0.7,12.6-3.4C66,58.2,60.9,51.7,55.8,53.8z"/>
    <path class="st5" d="M79.9,70.1c-1.8,3.5-6.3,10.6-6.3,10.6s-0.5,1.4-1,3.5c0,0,2.1-0.2,2.5,6.4c0.1,1.7,0.9,7.8,2,5.2
      c3-7.4,5.2-16.4,5.1-19.5S81.7,66.6,79.9,70.1z"/>
    <path class="st5" d="M70.2,39.2c0,0,40.8,5.1,40.8,44.1c0,26.1-17.4,33.4-22,51c0,0,19.3,0.2,27.9,4.2c0,0,9.2-24.8,9.2-39.6
      C126.1,83.9,114.7,38,70.2,39.2z"/>
    <path class="st5" d="M55.2,96.2c-9.1-4.5-11.4-9.8-14.9,0.7c-3.4,10.2-8.5,11.9-5.1,13s7.8-10.5,10.8-10.6S58.6,97.9,55.2,96.2z"
      />
    <path class="st4" d="M57.3,26.3l12.9,12.9c25.3,1.7,53.5,20.1,53.5,62c0,11.1-7,31.5-8.3,37.6c14.4,3,13.7,11.6,13.7,23.8H31.6
      c0-12-0.7-20.5,13.1-23.6c1.4-14.2,14.4-24.5,21.7-30.5c3.2-2.4,6-5.2,8.4-8.4c1.1-1.6,2-3.5,2.6-5.4c1.8-6.4-2.3-12.1-3.8-13.9
      l-3.8,4.4c-3.9,4-10.7,11.1-18.5,11.1c-10,0-10.3,7.1-15,11.7c-0.3,0.2-0.7,0.2-1,0.2c-3.3,0-12.9-2.7-16.6-5.8
      c-3.2-2.7-3.6-7.8-0.6-11.5l11.7-16.5c5.2-7.6,5.5-11.7,8.5-19.3c1-3.3,3-6.1,5.6-8.3c3.8-3.2,6.3-5.6,7.8-9.3l1.5-7
      C53.6,28.2,55.5,26.3,57.3,26.3 M59,22.3h-1.7c-3.7,0-7.2,3.1-8.1,7.2v0.1l-1.4,6.6c-1.2,2.7-3.1,4.6-6.5,7.4
      c-3.1,2.5-5.4,5.8-6.7,9.5l-0.2,0.4c-0.9,2.3-1.6,4.4-2.2,6.2C31,64.1,29,68.3,26.4,72L14.8,88.3c-4.2,5.3-3.8,12.8,1.2,17
      c4.6,3.9,15.4,6.8,19.2,6.8c1.4,0.1,2.8-0.4,3.8-1.3c1.5-1.6,2.9-3.3,4-5.2c2.2-3.4,3.4-5.3,8.2-5.3c9.6,0,17.5-8.4,21.4-12.4
      l0.1-0.1l0.1-0.1l0.3-0.3c0.8,1.9,1,4,0.5,6c-0.4,1.5-1.1,2.9-2,4.2c-2.2,2.9-4.7,5.4-7.6,7.6l-0.2,0.2
      c-7.6,6.1-19.8,16.1-22.6,30.3c-5.8,1.8-9.6,5-11.6,9.5s-2,9.7-1.9,15.7v5.6h105.5v-5.6c0-6.1,0-11.3-2-15.9
      c-2-4.3-5.4-7.3-10.8-9.1c0.3-1.2,0.7-2.6,1.1-4c2.7-9.4,6.3-22.2,6.3-30.8c0-42.1-27.7-63.3-55.7-65.8L60.1,23.5L59,22.3L59,22.3
      z"/>
    <path class="st4" d="M80.8,136.5c10.5-0.1,21,0.5,31.4,1.7c1.7,0.2,3.5,0.6,5.2,1l0.7-4c-1.8-0.4-3.5-0.8-5.3-1
      c-10.6-1.2-21.2-1.8-31.9-1.7l0,0c-10.6-0.1-21.3,0.4-31.8,1.6c-1.9,0.2-3.7,0.6-5.6,1l0.8,3.9c1.7-0.4,3.5-0.8,5.3-1
      C59.8,136.9,70.3,136.4,80.8,136.5z"/>
    <path class="st0" d="M162.9,65.6c0.7-4.6-0.5-9.3-3.4-13c-2.6-3.7-6.1-6.5-10.2-8.2l4.6-5.4l3.8,5l7.8-5.8l-3.9-5.2l5.2-3.9
      l-5.8-7.8l-5.2,3.9l-3.9-5.1l-7.8,5.8l3.8,5l-6.5,2.9c-0.5-4.4-2.2-8.7-5-12.2c-2.7-3.8-6.8-6.3-11.4-7c-4.7-0.5-9.5,0.9-13.2,3.8
      c-5.9,4.4-6.8,10.9-7.8,17.3c-0.6,3.9-1.2,7.9-2.8,11.6l23.8,31.9c3.9-0.6,8,0,11.9,0.6c6.3,0.9,12.9,1.9,18.8-2.5
      C159.5,74.4,162.1,70.2,162.9,65.6z M119.2,49.5c-0.9-1.1-1.6-1.9-2.8-3.2c1.5-5.4,0.8-11.3,3.3-13.8c4.1-4.1,8.1,0.9,8.1,0.9
      c2.1,2.8,2.2,8.1,2.2,8.1L119.2,49.5z M144.4,65.5c-3.1,1.7-8.6-0.6-14.2-0.8c-0.9-1.5-1.5-2.4-2.3-3.6l10.8-8
      c0,0,5.1,1.6,7.1,4.4C145.9,57.5,149.4,62.7,144.4,65.5z"/>
    <polygon class="st6" points="163.8,39.5 158.6,32.6 161,32.8 165.2,38.4     "/>
    <polygon class="st6" points="163.8,28.7 160.6,24.4 155.4,28.2 151.5,23 147.2,26.3 144.1,25.8 151.9,20 155.8,25.2 161,21.3
      166.8,29.1     "/>
    <path class="st1" d="M138.4,26.5c0,0-3.7-11.5-14.8-12c-15.4-0.7-17.9,14.9-17.9,14.9C111.9,15.8,129.1,12.8,138.4,26.5z"/>
    <path class="st5" d="M144.2,76.4l-22.5-3.2l3.2,6c4.3-0.4,8.7-0.2,13,0.6c7.3,1.2,12,1.7,18.8-3.3c5-3.7,5.3-7.9,5.5-11.5
      C162.1,64.9,155.7,78.1,144.2,76.4z"/>
    <path class="st4" d="M127.1,33.9c1.4,1.9,2,4.3,1.9,6.6l-9.7,7.2l-1.7-2c0.5-2.1,0.8-4.1,1.1-5.8c0.6-3.7,1.1-6.4,2.5-7.4
      C123.5,30.7,125.7,32.1,127.1,33.9 M128.8,32.6c-2.2-3-5.8-4.2-8.9-1.9s-2.8,8-4.7,15.5c0,0,2.9,3.5,3.7,4.5l12.1-9
      C131.4,38.5,130.7,35.3,128.8,32.6L128.8,32.6z"/>
    <path class="st4" d="M113.3,62.9c3.4,4.5,6.6,9.2,9.4,14.1c0.5,0.8,0.9,1.7,1.3,2.6l2-1c-0.4-0.9-0.8-1.8-1.3-2.6
      c-2.9-5-6.1-9.8-9.6-14.3l0,0c-3.4-4.6-7.1-9.1-11-13.3c-0.7-0.7-1.4-1.4-2.2-2.1l-1.5,1.6c0.8,0.6,1.5,1.3,2.1,2
      C106.3,54,110,58.4,113.3,62.9z"/>
    <path class="st4" d="M136.3,80.8c6.6,1,13.3,2,19.6-2.7c8.8-6.6,10.6-17.5,4.2-26.1c-2.5-3.3-5.5-6.1-9-8.3l2.5-2.9l3.6,4.8
      l9.5-7.1l-3.9-5.2l5.2-3.9l0,0l-7.1-9.5l-5.2,3.9l-3.9-5.2l-9.5,7.1l3.6,4.8l-3.4,1.5c-1.2-4-3-7.7-5.5-11
      c-6.4-8.5-17.4-10-26.2-3.4c-6.2,4.6-7.2,11.4-8.2,18c-0.3,3.4-1.1,6.7-2.2,9.9l0.7,3.5c5.6-9.9,1.5-22.6,10.9-29.6
      c8-5.9,17.6-4.5,23.2,3c2.8,3.7,4.7,8,5.7,12.6l8.3-3.7l-3.9-5.2l6.1-4.5l3.9,5.2l5.2-3.9L165,29l0,0l-5.2,3.9l3.9,5.2l-6.1,4.5
      l-3.9-5.2l-6,7c4.2,2.1,7.8,5.2,10.6,9c5.6,7.5,4.2,17.2-3.8,23.1c-9.4,7-20.5-0.5-31.6,2l0,0l3.1,1.7
      C129.6,80,133,80.2,136.3,80.8z"/>
    <path class="st4" d="M145.1,58.1c1.4,1.8,2,4.4-0.3,6.1c-1.4,1.1-4.1,0.8-7.9,0.3c-1.8-0.2-3.7-0.5-5.9-0.6l-1.5-2.2l9.7-7.2
      C141.5,54.9,143.6,56.2,145.1,58.1 M146.8,56.8c-2-2.5-4.9-4.2-8.1-4.7l-12.1,9c0.8,1.1,3.2,4.8,3.2,4.8
      c7.8,0.3,13.1,2.3,16.2-0.1C149.2,63.5,149.1,59.8,146.8,56.8z"/>
  </g>
</g>
</svg>
