
<svg version="1.1" id="Layer_1" xmlns="http://www.w3.org/2000/svg" xmlns:xlink="http://www.w3.org/1999/xlink" x="0px" y="0px"
   viewBox="0 0 180 180" style="enable-background:new 0 0 180 180;" xml:space="preserve">

<defs>
  <style>
    .cls-1{fill:#fff;}
    .cls-2{fill:#fff;opacity:0.3;}
    .cls-3{opacity:0.2;}
    .cls-4{fill:#1a1a1a;}
  </style>
</defs>
<title>r</title>
<g>
  <path class="cls-1" d="M160.55,111.93a3.08,3.08,0,0,0-.61.06l-40.46,7.8h0a3.67,3.67,0,0,0-2.8,3.73l.09,3.9,0,1.58-1.57.2c-1.11.14-2.26.27-3.63.42l-2,.21V102.33l2.1.41c3.61.72,7.33,1.35,11.05,1.89a217,217,0,0,0,27.17,2.2h.24l3-68.56H153c-10.75,0-25-4-42.31-12l-1-.47V20.94a5.77,5.77,0,0,0-11-2.55L97.85,20l-1.6-.86c-4.46-2.4-7.2-4.05-7.23-4.07l-.3-.18L83,44.63l-.39,2L80.69,46C77.58,44.91,74,43.47,70,41.69l-6-2.8V31.34a5.79,5.79,0,1,0-11.57,0v1.89l-2.58-1.36C40.73,27,38.71,25.14,38.64,25.1l-.31-.18-16,74.16.15.08c9.7,5.66,30.77,13.06,30.77,13.06l-.08,1.86V126.9l4.31,2-2-.28c-2.94-.41-5.64-.89-8-1.41-5.11-1.13-11.68-3.12-13.95-6.25a3.44,3.44,0,0,1-.44-3.5,5.14,5.14,0,0,0-.48-4.26,4.9,4.9,0,0,0-3.35-2.29,13.54,13.54,0,0,0-2.18-.18c-4.63,0-8.54,2.65-11,7.48a22.08,22.08,0,0,0-2,11.63,30.76,30.76,0,0,0,4.45,13.46A33.46,33.46,0,0,0,31.91,155.6c6.56,3.38,14.51,5.1,23.63,5.1h0l82,0h.18c2.94-.28,5.61-3.12,7.16-5.93l0-.08.06-.07,10.4-14.89v0l.24-.34.36-.2,5.58-3,.18-.1.15-.12a4.73,4.73,0,0,0,1.73-3.71v-17A3.22,3.22,0,0,0,160.55,111.93ZM98.27,131.3l-33.71-1.55.08-15,22.69,1.39,1.78-19.31,9.39,2.56Z"/>
  <path class="cls-2" d="M27.8,78.33c1.89,13.21,4.91,25.29,12.45,28.68l-18-7.93Z"/>
  <path class="cls-2" d="M78.75,67.76C80.64,81,83.66,93.05,91.21,96.44l-18-7.93Z"/>
  <path class="cls-2" d="M30.53,113.37c-7.32,1.8-8.8,2.65-14.1,8.8,0,0,.66-9.14,5.62-10.28A10.94,10.94,0,0,1,30.53,113.37Z"/>
  <path class="cls-2" d="M113.4,129.39l5.52,0S119,129,119,131s-4.3,3.75-8.86,4.08S75,137.32,53.37,133.32s-22.46-12.64-22.46-12.64l13.39,6.48,21.26,2.67,35.16.67Z"/>
  <polygon class="cls-2" points="118.03 125.45 164.29 116.41 162.03 112.19 118.03 120.17 118.03 125.45"/>
  <path class="cls-2" d="M62.3,28.49C51.75,30.18,52.83,51,52.83,51L53,26.79S66.2,27.86,62.3,28.49Z"/>
  <path class="cls-2" d="M108.56,17.94C98,19.63,99.09,40.49,99.09,40.49l.16-24.24S112.46,17.31,108.56,17.94Z"/>
  <path class="cls-3" d="M160.55,134.18s-13.76,9.29-38.94,11.37-55.29,5.58-82.28-1.82-22.46-22.84-22.46-22.84S4,152.3,45.35,160.31l92.42.4s7.13-4.16,10.89-10.85S160.55,134.18,160.55,134.18Z"/>
  <path class="cls-3" d="M112.94,27.64c-1.35-.56-2.65-1.11-3.89-1.65V67.08h-.16V101.5l7.61,1.81V80.07c8.75,11,19.47,18.54,33.07,26l3.89-66.54S127.82,33.82,112.94,27.64Z"/>
  <path class="cls-3" d="M98.66,21.24c-6-2.91-9.3-4.81-9.3-4.81a305.06,305.06,0,0,0,9.3,37.43Z"/>
  <g>
    <path class="cls-3" d="M76,89.45v0h-.19l-3.68-1.06,9.26-41.76L64,38.32V94.4H63v19.5l6.77.95v-14c6.33,4.62,17.85,12.78,17.85,12.78l1.09-19Z"/>
    <path class="cls-3" d="M52.46,32.83,40,26.91S38.7,61.83,52.46,84.12Z"/>
  </g>
  <path class="cls-4" d="M160.55,110.18a5,5,0,0,0-1,.09l-40.45,7.8h-.09a5.42,5.42,0,0,0-4.18,5.48l.09,3.9c-1.22.15-2.41.28-3.6.41V104.47c4,.78,7.73,1.41,11.14,1.89a218.5,218.5,0,0,0,27.42,2.23h.32a1.67,1.67,0,0,0,1.67-1.61L155,38.25a1.67,1.67,0,0,0-1.67-1.74H153c-12.71,0-28.82-5.95-41.58-11.79v-3.6a7.66,7.66,0,0,0-7.13-7.71,7.55,7.55,0,0,0-7.16,4.2c-4.36-2.35-7-4-7.15-4l-.41-.25A1.68,1.68,0,0,0,87,14.45L81.25,44.3a146.11,146.11,0,0,1-15.77-6.67V31.31a7.65,7.65,0,0,0-7.18-7.7,7.54,7.54,0,0,0-7.78,6.26c-6.38-3.51-10.84-6.2-11-6.27l-.41-.25a1.67,1.67,0,0,0-2.51,1.11L20.54,98.8a1.68,1.68,0,0,0,.8,1.76l.2.12a126.34,126.34,0,0,0,28.86,12V126c-.91-.17-1.78-.34-2.63-.53-9.52-2.09-12.19-4.59-12.9-5.57a1.74,1.74,0,0,1-.19-1.92,6.87,6.87,0,0,0-.65-5.71,6.63,6.63,0,0,0-4.56-3.11A14.89,14.89,0,0,0,27,109c-5.32,0-9.79,3-12.58,8.45A23.82,23.82,0,0,0,12.29,130,32.56,32.56,0,0,0,17,144.24a35.1,35.1,0,0,0,14.11,12.92c6.8,3.51,15,5.29,24.43,5.29h.05l82,0,.33,0c3.53-.33,6.7-3.49,8.53-6.82l10.4-14.89v0l5.58-3,.31-.17.28-.23a6.51,6.51,0,0,0,2.39-5.08v-17A5,5,0,0,0,160.55,110.18Zm-9.68-69.71L148,104.54a224.27,224.27,0,0,1-36.64-4.18V29.14C127.15,36.21,140.42,40,150.87,40.47Zm-47-23.06a3.54,3.54,0,0,1,3.53,3.53V128.27c-2.42.22-4.78.38-7.06.49V20.94A3.54,3.54,0,0,1,103.83,17.41ZM65.48,116.17l1.08.19a140.89,140.89,0,0,0,22,2.24h1.93l.76-19.4q2.53.84,5.07,1.59V128.9l-2.93,0c-10.62,0-19.93-.32-27.88-1ZM90.32,18.45c1.45.83,3.49,2,6,3.29V96.6a106.19,106.19,0,0,1-21.11-8.69ZM80.49,48.23,70.7,90l1.23.71A99.14,99.14,0,0,0,87.26,97.8l-.65,16.74a154.49,154.49,0,0,1-21.13-2.47v-70A139.56,139.56,0,0,0,80.49,48.23ZM24.79,97.92,39.94,28.49c2.29,1.34,6,3.48,10.46,5.9V108.5A121.31,121.31,0,0,1,24.79,97.92ZM54.41,31.14a3.54,3.54,0,0,1,7.07,0v96.45c-2.52-.25-4.87-.55-7.07-.88Zm107,101.09a2.5,2.5,0,0,1-.88,2l-6.25,3.38a2.88,2.88,0,0,0-.72.89l-10.53,15.08c-1.19,2.27-3.24,4.72-5.49,4.93h-82c-36.25,0-43.31-27.92-37.55-39.19,2.58-5,6.12-6.26,9-6.26a11.43,11.43,0,0,1,1.81.15,2.77,2.77,0,0,1,2.06,3.63c-1.06,3.26-4.5,16.16,62.49,16.16a189.58,189.58,0,0,0,25.17-1.9.65.65,0,0,0,.51-.69l-.15-6.87a1.44,1.44,0,0,1,1-1.48l40.47-7.8.17,0a1,1,0,0,1,.88,1Z"/>
</g>
</svg>
