
<svg version="1.1" id="Layer_1" xmlns="http://www.w3.org/2000/svg" xmlns:xlink="http://www.w3.org/1999/xlink" x="0px" y="0px"
   viewBox="0 0 180 180" style="enable-background:new 0 0 180 180;" xml:space="preserve">

<style type="text/css">
  .st0{fill:#BF3B43;}
  .st1{opacity:0.2;fill:#FFFFFF;enable-background:new    ;}
  .st2{opacity:0.2;fill:#040000;enable-background:new    ;}
  .st3{fill:#1A1A1A;}
</style>
<title>t</title>
<g>
  <path class="st0" d="M44.1,39.2c-1,8.6-5.7,48.9-7,58.4c-14.5,3.5-14.5,13-14.5,24v3.6h101.6v-3.6c0-11,0.1-20.5-14.5-23.9
    c-1.2-9.6-5.9-49.9-6.9-58.4"/>
  <path class="st1" d="M73.4,103.2c43.1,0,47.5,4.8,47.5,4.8h0.6c-1.9-10.2-24.4-11.3-24.4-11.3H50c0,0-23.4,0.8-24.7,11.3h0.6
    C25.9,107.9,30.4,103.2,73.4,103.2z"/>
  <path class="st2" d="M52.2,39.2c0,0,21.4-1.3,32.3,12.4s12,43.4,12,43.4c7.2,1.3,12.5,2.8,12.5,2.8l-6.8-57.4"/>
  <path class="st3" d="M123.6,106.1c-2.2-4.7-6.2-7.7-12.5-9.4c-1.3-10.9-5.4-45-6.6-55.5h0.1l-2.9-3.2c-9.5-1.4-19.1-2.3-28.7-2.5
    c-9.6,0.3-19.2,1.1-28.7,2.5l-3.2,3.1l0.2,0.1c-1.2,10.5-5.2,44.7-6.6,55.5c-6.3,1.7-10.3,4.8-12.5,9.4c-2.2,4.7-2.1,9.9-2.1,16.1
    v5.6h105.6v-5.6C125.8,116.1,125.8,110.7,123.6,106.1z M45.4,41.8L45.4,41.8c9.1-1.4,18.4-2.2,27.6-2.4c9.2,0.2,18.5,1.1,27.6,2.4
    c1.2,10.3,4.9,41.9,6.4,54c-0.7-0.1-1.4-0.2-2.1-0.3c-10.6-1.2-21.2-1.8-31.9-1.7c-10.6-0.1-21.3,0.5-31.8,1.7
    c-0.8,0.1-1.5,0.2-2.1,0.3C40.5,83.7,44.1,52.1,45.4,41.8z M121.8,123.8L121.8,123.8H24.2c0-11.9-0.7-20.3,12.7-23.5l0.3-0.1l1-0.2
    c1-0.2,2.2-0.4,3.4-0.6C52,98.2,62.5,97.7,73,97.8c10.5-0.1,21,0.5,31.4,1.6c1.2,0.2,2.3,0.3,3.3,0.5l1.1,0.2h0.2
    C122.4,103.5,121.8,112,121.8,123.8L121.8,123.8z"/>
</g>
<g>
  <path class="st0" d="M78.1,56c-1,8.5-5.7,48.7-7,58.3c-14.4,3.4-14.4,12.9-14.4,23.8v3.6h101.4v-3.6c0-10.9,0-20.4-14.4-23.8
    c-1.3-9.5-5.9-49.7-6.9-58.3"/>
  <path class="st1" d="M107.4,119.9c43,0,47.5,4.8,47.5,4.8h0.6c-2-10.1-24.4-11.2-24.4-11.2H84c0,0-23.3,0.8-24.7,11.2h0.6
    C59.9,124.5,64.4,119.9,107.4,119.9z"/>
  <path class="st2" d="M86.1,56c0,0,21.3-1.3,32.2,12.3s12,43.3,12,43.3c7.1,1.3,12.5,2.8,12.5,2.8l-6.7-57.3"/>
  <path class="st3" d="M157.6,122.8c-2.2-4.6-6.2-7.7-12.5-9.4c-1.4-10.9-5.3-45-6.6-55.5l0,0l-2.8-3.2c-9.5-1.4-19-2.2-28.7-2.5
    c-9.5,0.3-19.2,1.1-28.6,2.5l-3.1,3.1l0.3,0.1c-1.3,10.5-5.2,44.5-6.6,55.5c-6.3,1.7-10.2,4.8-12.5,9.4c-2.2,4.6-2.1,9.9-2.1,16.1
    v5.6h105.5v-5.6C159.7,132.6,159.7,127.5,157.6,122.8z M79.4,58.6L79.4,58.6c9.1-1.4,18.3-2.1,27.6-2.4c9.2,0.3,18.3,1.1,27.6,2.4
    c1.3,10.2,4.9,41.7,6.4,53.9c-0.7-0.1-1.4-0.3-2.1-0.3c-10.5-1.3-21.1-1.8-31.8-1.7c-10.6-0.1-21.3,0.4-31.8,1.7
    c-0.7,0.1-1.4,0.1-2.1,0.3C74.5,100.4,78.1,68.9,79.4,58.6z M155.6,140.5L155.6,140.5H58.3c0-11.9-0.7-20.3,12.6-23.5l0.3-0.1
    l1-0.3c1-0.3,2.1-0.4,3.4-0.6c10.4-1.1,20.9-1.7,31.4-1.7c10.5-0.1,20.9,0.4,31.2,1.7c1.1,0.1,2.2,0.3,3.4,0.6l1.1,0.3h0.3
    C156.3,120.2,155.6,128.6,155.6,140.5z"/>
</g>
</svg>
