
<svg version="1.1" id="Layer_1" xmlns="http://www.w3.org/2000/svg" xmlns:xlink="http://www.w3.org/1999/xlink" x="0px" y="0px"
   viewBox="0 0 180 180" style="enable-background:new 0 0 180 180;" xml:space="preserve">

<style type="text/css">
  .st0{fill:#fff;}
  .st1{opacity:0.2;fill:#FFFFFF;enable-background:new    ;}
  .st2{opacity:0.2;fill:#040000;enable-background:new    ;}
  .st3{fill:#1A1A1A;}
</style>
<title>y</title>
<g id="Layer_2">
  <g id="Layer_1-2">
    <path class="st0" d="M69.9,101c-0.7,6-4,34-4.9,40.7c-10.1,2.4-10.1,9-10,16.7v2.5h70.7v-2.5c0-7.7,0-14.3-10.1-16.7
      c-0.8-6.6-4.1-34.7-4.8-40.7"/>
    <path class="st1" d="M90.3,145.5c30,0,33.1,3.3,33.1,3.3h0.4c-1.3-7.1-17-7.9-17-7.9H74c0,0-16.3,0.6-17.2,7.8h0.4
      C57.3,148.8,60.4,145.5,90.3,145.5z"/>
    <path class="st2" d="M75.5,101c0,0,14.9-0.9,22.5,8.6s8.4,30.2,8.4,30.2c5,0.9,8.7,1.9,8.7,1.9l-4.7-40"/>
    <path class="st3" d="M125.3,147.6c-1.5-3.3-4.3-5.4-8.7-6.6c-0.9-7.6-3.7-31.3-4.6-38.7h0l-2-2.3c-6.6-1-13.3-1.6-20-1.8
      c-6.7,0.2-13.3,0.8-20,1.8l-2.2,2.2l0.2,0.1c-0.8,7.3-3.6,31.1-4.6,38.7c-4.4,1.2-7.2,3.3-8.7,6.6c-1.5,3.3-1.5,6.9-1.5,11.2v3.9
      h73.5v-3.9C126.8,154.5,126.8,150.8,125.3,147.6z M70.8,102.8L70.8,102.8c6.4-0.9,12.8-1.5,19.2-1.7c6.4,0.2,12.8,0.7,19.2,1.7
      c0.8,7.2,3.4,29.2,4.5,37.6c-0.5-0.1-1-0.2-1.5-0.2c-7.4-0.9-14.8-1.2-22.2-1.2c-7.4-0.1-14.8,0.3-22.2,1.2
      c-0.5,0.1-1,0.1-1.5,0.2C67.4,132,69.9,110,70.8,102.8z M124,159.9L124,159.9H56.1c0-8.2-0.5-14.1,8.8-16.4l0.2-0.1l0.7-0.1
      c0.7-0.2,1.5-0.3,2.3-0.4c7.3-0.8,14.5-1.2,21.8-1.1c7.3-0.1,14.6,0.3,21.8,1.1c0.8,0.1,1.6,0.2,2.3,0.4l0.8,0.2h0.2
      C124.4,145.8,124,151.7,124,159.9L124,159.9z"/>
    <path class="st0" d="M109.3,98c4.9-4.1,11.4-12.8,11.4-27.3c0-14.2-9.4-25-15.4-31l-1.2-1.3l-0.9,1.5c-1,1.8-6.1,10.1-6.4,31.1
      h-9.5c0.3-31.3,12.5-43.2,12.7-43.3l0.5-0.5l0-0.6c-0.4-4.7-4.3-8.3-9-8.4v0c-5,0-9,4-9,9c0,2.3,0.9,4.5,2.4,6.1
      c-3.7,3-7.1,6.3-10.1,9.9c-7.5,9-11.5,18.4-11.5,27.3c0,14.5,6.6,23.2,11.4,27.3"/>
    <path class="st2" d="M110.7,46.6c15.8,38.4-18.8,50-18.8,50l17.5,1.4c-1.7,1.3,11.1-3.6,11.1-28.8
      C120.5,60.7,116.9,52.5,110.7,46.6z"/>
    <path class="st1" d="M86.8,33.5C85,32.7,66.9,47.9,63.9,63.4c-2.8,14.5,2.2,18.5,1.9,18.4c0-0.1,1.9-31.9,22.9-47.4
      C88.7,34.4,87.9,34,86.8,33.5z"/>
    <path class="st1" d="M92.5,19.7c-3,0.3-8.2,4.6-8.6,10.7c0,0-4.2-3.9,0-8.7C87.3,17.8,92.5,19.7,92.5,19.7z"/>
    <path class="st2" d="M90.5,46.2c1.3-3.5,9.8-20.2,9.8-20.2l-3.9-6.4l-2,0c6.4,7.8-12.5,25.8-12.5,39.3c0,4,1,12,3.8,13.4
      C85.8,72.4,87.9,53.6,90.5,46.2z"/>
    <path class="st3" d="M77.9,99.4C74.4,97.8,63.7,89.3,63.7,71c0-20.9,22.4-37.2,22.4-37.2c-3.4-2.4-4.2-7.2-1.8-10.6
      S91.5,19,95,21.5c1.8,1.3,3,3.4,3.2,5.6c0,0-13,12.4-13,45.7h12.3c0-20.8,4.9-29.5,6.2-31.7c6.6,6.6,15,16.7,15,30
      c0,18.2-10.5,26.6-14.1,28.3l7.4-2.3c4.6-4.9,9.5-13.4,9.5-26c0-10.9-5.2-21.4-15.8-32l-2.5-2.5l-1.8,3.1
      c-4,6.8-6.3,17.2-6.5,30.4h-6.8c0.3-14.9,3.5-25.1,6.1-31c3-6.8,6.1-9.8,6.1-9.8l0.9-0.9l-0.1-1.3c-0.4-5.4-4.9-9.6-10.4-9.6l0,0
      c-5.7,0-10.4,4.6-10.4,10.4c0,2.1,0.6,4.2,1.9,5.9c-3.3,2.8-6.4,5.9-9.2,9.2C65,52.1,60.9,61.8,60.9,71c0,12.4,4.7,20.8,9.2,25.7
      L77.9,99.4L77.9,99.4z"/>
    <path class="st3" d="M91.1,99.8c6.3,0,11.9,0.2,17.1,0.6l1.3-2.7c-5.3-0.5-11.4-0.8-18.4-0.8l0,0c-7.1,0-13.2,0.3-18.6,0.8
      l0.8,2.7C78.7,100,84.6,99.8,91.1,99.8z"/>
    <rect x="70.9" y="93.8" transform="matrix(0.7506 -0.6608 0.6608 0.7506 -46.2461 71.88)" class="st3" width="2.5" height="6.7"/>

      <rect x="106.4" y="96.1" transform="matrix(0.7071 -0.7071 0.7071 0.7071 -36.6559 106.113)" class="st3" width="6.7" height="2.5"/>
  </g>
</g>
</svg>
