<svg xmlns="http://www.w3.org/2000/svg" viewBox="0 0 180 180" style="enable-background:new 0 0 180 180" xml:space="preserve"><path d="M61.1 47.6c-1 8.6-5.7 48.9-7 58.4-14.5 3.5-14.4 13-14.4 24v3.6h101.6V130c0-11 .1-20.5-14.5-23.9-1.2-9.6-5.9-49.9-6.9-58.4" style="fill:#fff"/><path d="M90.5 111.6c43.1 0 47.5 4.8 47.5 4.8h.6c-1.9-10.2-24.4-11.3-24.4-11.3H67s-23.4.8-24.7 11.3h.7c0-.1 4.4-4.8 47.5-4.8z" style="opacity:.2;fill:#fff;enable-background:new"/><path d="M69.2 47.6s21.4-1.3 32.3 12.4 12 43.4 12 43.4c7.2 1.3 12.5 2.8 12.5 2.8l-6.7-57.4" style="opacity:.2;fill:#040000;enable-background:new"/><path d="M140.7 114.5c-2.2-4.7-6.2-7.7-12.5-9.5-1.3-10.9-5.4-45-6.6-55.5h.1l-2.9-3.2c-9.5-1.4-19.1-2.3-28.7-2.5-9.6.3-19.2 1.1-28.7 2.5l-3.2 3.2.2.1c-1.2 10.5-5.2 44.7-6.6 55.5-6.3 1.7-10.3 4.8-12.5 9.5-2.2 4.7-2.1 9.9-2.1 16.1v5.6h105.6v-5.6c0-6.2 0-11.6-2.1-16.2zM62.4 50.2c9.1-1.4 18.4-2.2 27.6-2.4 9.2.2 18.5 1.1 27.6 2.4 1.2 10.3 4.9 41.9 6.4 54l-2.1-.3c-10.6-1.2-21.2-1.8-31.9-1.7-10.6-.1-21.3.5-31.8 1.7-.8.1-1.5.2-2.1.3 1.4-12.1 5.1-43.7 6.3-54zm76.4 82H41.2c0-11.8-.7-20.3 12.7-23.5l.3-.1 1-.2c1-.2 2.2-.4 3.4-.6 10.4-1.2 20.9-1.7 31.4-1.6 10.5-.1 21 .5 31.4 1.6 1.2.2 2.3.3 3.3.5l1.1.2h.2c13.5 3.4 12.8 11.9 12.8 23.7z" style="fill:#1a1a1a"/></svg>