<svg version="1.1" id="Layer_1" xmlns="http://www.w3.org/2000/svg" x="0" y="0" viewBox="0 0 180 180" style="enable-background:new 0 0 180 180" xml:space="preserve"><style>.st0{fill:#fff}.st1,.st2{opacity:.2;fill:#fff;enable-background:new}.st2{fill:#040000}.st3{fill:#1a1a1a}</style><path class="st0" d="M44.1 39.2c-1 8.6-5.7 48.9-7 58.4-14.5 3.5-14.5 13-14.5 24v3.6h101.6v-3.6c0-11 .1-20.5-14.5-23.9-1.2-9.6-5.9-49.9-6.9-58.4"/><path class="st1" d="M73.4 103.2c43.1 0 47.5 4.8 47.5 4.8h.6c-1.9-10.2-24.4-11.3-24.4-11.3H50s-23.4.8-24.7 11.3h.6c0-.1 4.5-4.8 47.5-4.8z"/><path class="st2" d="M52.2 39.2s21.4-1.3 32.3 12.4 12 43.4 12 43.4c7.2 1.3 12.5 2.8 12.5 2.8l-6.8-57.4"/><path class="st3" d="M123.6 106.1c-2.2-4.7-6.2-7.7-12.5-9.4-1.3-10.9-5.4-45-6.6-55.5h.1l-2.9-3.2c-9.5-1.4-19.1-2.3-28.7-2.5-9.6.3-19.2 1.1-28.7 2.5l-3.2 3.1.2.1c-1.2 10.5-5.2 44.7-6.6 55.5-6.3 1.7-10.3 4.8-12.5 9.4-2.2 4.7-2.1 9.9-2.1 16.1v5.6h105.6v-5.6c.1-6.1.1-11.5-2.1-16.1zM45.4 41.8c9.1-1.4 18.4-2.2 27.6-2.4 9.2.2 18.5 1.1 27.6 2.4 1.2 10.3 4.9 41.9 6.4 54l-2.1-.3c-10.6-1.2-21.2-1.8-31.9-1.7-10.6-.1-21.3.5-31.8 1.7-.8.1-1.5.2-2.1.3 1.4-12.1 5-43.7 6.3-54zm76.4 82H24.2c0-11.9-.7-20.3 12.7-23.5l.3-.1 1-.2c1-.2 2.2-.4 3.4-.6C52 98.2 62.5 97.7 73 97.8c10.5-.1 21 .5 31.4 1.6 1.2.2 2.3.3 3.3.5l1.1.2h.2c13.4 3.4 12.8 11.9 12.8 23.7z"/><path class="st0" d="M78.1 56c-1 8.5-5.7 48.7-7 58.3-14.4 3.4-14.4 12.9-14.4 23.8v3.6h101.4v-3.6c0-10.9 0-20.4-14.4-23.8-1.3-9.5-5.9-49.7-6.9-58.3"/><path class="st1" d="M107.4 119.9c43 0 47.5 4.8 47.5 4.8h.6c-2-10.1-24.4-11.2-24.4-11.2H84s-23.3.8-24.7 11.2h.6c0-.2 4.5-4.8 47.5-4.8z"/><path class="st2" d="M86.1 56s21.3-1.3 32.2 12.3 12 43.3 12 43.3c7.1 1.3 12.5 2.8 12.5 2.8l-6.7-57.3"/><path class="st3" d="M157.6 122.8c-2.2-4.6-6.2-7.7-12.5-9.4-1.4-10.9-5.3-45-6.6-55.5l-2.8-3.2c-9.5-1.4-19-2.2-28.7-2.5-9.5.3-19.2 1.1-28.6 2.5l-3.1 3.1.3.1c-1.3 10.5-5.2 44.5-6.6 55.5-6.3 1.7-10.2 4.8-12.5 9.4-2.2 4.6-2.1 9.9-2.1 16.1v5.6h105.5v-5.6c-.2-6.3-.2-11.4-2.3-16.1zM79.4 58.6c9.1-1.4 18.3-2.1 27.6-2.4 9.2.3 18.3 1.1 27.6 2.4 1.3 10.2 4.9 41.7 6.4 53.9-.7-.1-1.4-.3-2.1-.3-10.5-1.3-21.1-1.8-31.8-1.7-10.6-.1-21.3.4-31.8 1.7-.7.1-1.4.1-2.1.3 1.3-12.1 4.9-43.6 6.2-53.9zm76.2 81.9H58.3c0-11.9-.7-20.3 12.6-23.5l.3-.1 1-.3c1-.3 2.1-.4 3.4-.6 10.4-1.1 20.9-1.7 31.4-1.7 10.5-.1 20.9.4 31.2 1.7 1.1.1 2.2.3 3.4.6l1.1.3h.3c13.3 3.3 12.6 11.7 12.6 23.6z"/></svg>