<svg version="1.1" id="Layer_1" xmlns="http://www.w3.org/2000/svg" x="0" y="0" viewBox="0 0 180 180" style="enable-background:new 0 0 180 180" xml:space="preserve"><style>.st0{fill:#fff}.st1,.st2{opacity:.2;fill:#fff;enable-background:new}.st2{fill:#040000}.st3{fill:#1a1a1a}</style><path class="st0" d="M55.6 97.6c-.7 5.9-4 33.8-4.8 40.4-10 2.4-10 9-10 16.5v2.5H111v-2.5c0-7.6 0-14.1-10-16.5-.8-6.6-4.1-34.4-4.8-40.4"/><path class="st1" d="M75.8 141.7c29.7 0 32.8 3.3 32.8 3.3h.4c-1.3-7.1-16.9-7.8-16.9-7.8H59.7s-16.1.6-17.1 7.7h.4s3.1-3.2 32.8-3.2z"/><path class="st2" d="M61.2 97.5s14.8-.9 22.3 8.6 8.3 30 8.3 30c4.9.9 8.6 2 8.6 2l-4.6-39.7"/><path class="st3" d="M110.5 143.8c-1.5-3.2-4.2-5.3-8.7-6.5-.9-7.5-3.7-31.1-4.5-38.4l-2-2.3c-6.6-1-13.2-1.6-19.8-1.8-6.5.2-13.1.8-19.7 1.8l-2.2 2.2.2.1c-.8 7.3-3.6 30.8-4.5 38.4-4.3 1.2-7.2 3.3-8.7 6.5-1.5 3.2-1.5 6.9-1.5 11.1v4h73V155c0-4.4 0-8.1-1.6-11.2zm-54-44.5c6.3-.9 12.7-1.5 19-1.7 6.4.2 12.7.8 19 1.7.8 7.2 3.4 28.9 4.4 37.2-.5-.1-.9-.2-1.5-.2-7.3-.8-14.6-1.2-22-1.1-7.4-.1-14.7.3-22 1.1-.5.1-1 .1-1.5.2 1.2-8.3 3.8-30.1 4.6-37.2zm52.7 56.7H41.9c0-8.2-.5-14.1 8.8-16.2l.2-.1.7-.2c.7-.2 1.5-.3 2.4-.4 7.2-.8 14.4-1.2 21.7-1.1 7.3-.1 14.4.3 21.7 1.1.8.1 1.6.2 2.3.4l.8.2h.2c9 2.2 8.5 8 8.5 16.3z"/><path class="st0" d="M94.7 94.6c4.8-4.1 11.3-12.7 11.3-27.1 0-14.1-9.3-24.8-15.3-30.7l-1.2-1.3-.9 1.5c-1 1.8-6.1 10-6.3 30.8h-9.4c.3-31.1 12.4-42.8 12.5-42.9l.5-.5-.1-.7c-.4-4.6-4.2-8.3-8.9-8.3-4.9 0-9 4-9 9 0 2.3.8 4.4 2.4 6-3.7 3-7 6.3-10 9.9-7.5 8.9-11.5 18.3-11.5 27.1 0 14.3 6.5 23 11.3 27.1"/><path class="st2" d="M96 43.5c15.7 38.1-18.7 49.6-18.7 49.6l17.4 1.4c-1.7 1.3 11-3.6 11-28.6 0-8.4-3.5-16.6-9.7-22.4z"/><path class="st1" d="M72.4 30.5c-1.9-.8-19.8 14.2-22.7 29.6-2.7 14.3 2.2 18.4 1.9 18.2 0-.1 1.9-31.6 22.6-47.1.1.2-.7-.2-1.8-.7zm5.7-13.7c-3 .3-8.1 4.6-8.6 10.6 0 0-4.1-3.9 0-8.6 3.3-3.8 8.6-2 8.6-2z"/><path class="st2" d="M76 43.2c1.3-3.5 9.7-20.1 9.7-20.1L82 16.8h-2c6.3 7.7-12.4 25.6-12.4 38.9 0 4 .9 11.9 3.9 13.3-.1.1 1.9-18.6 4.5-25.8z"/><path class="st3" d="M63.5 95.9c-3.5-1.6-14.1-10-14.1-28.2 0-20.7 22.2-36.9 22.2-36.9-3.4-2.5-4.1-7.2-1.7-10.6s7.2-4.1 10.6-1.7c1.8 1.3 3 3.4 3.1 5.6 0 0-12.9 12.3-12.9 45.3H83c0-20.7 4.8-29.2 6.1-31.5 6.5 6.5 14.9 16.6 14.9 29.8 0 18-10.5 26.4-14 28.1l7.4-2.4c4.5-4.8 9.4-13.3 9.4-25.8 0-10.8-5.1-21.2-15.7-31.8l-2.6-2.4-1.8 3.1c-4 6.7-6.2 17.1-6.5 30.2h-6.7c.4-14.8 3.5-24.9 6-30.7 3-6.8 6-9.7 6-9.7l.9-.9V24c-.4-5.4-4.9-9.5-10.3-9.5-5.7 0-10.3 4.6-10.3 10.3 0 2.1.7 4.1 1.9 5.9-3.3 2.8-6.3 5.8-9.1 9.1-7.7 9.1-11.8 18.9-11.8 28 0 12.4 4.7 20.7 9.1 25.6l7.6 2.5z"/><path class="st3" d="M76.7 96.4c6.2 0 11.9.2 17 .7l1.3-2.6c-5.3-.5-11.3-.8-18.3-.8-7.1 0-13.1.3-18.5.8l.8 2.7c5.3-.7 11.2-.8 17.7-.8z"/><path transform="rotate(-41.359 57.77 93.775)" class="st3" d="M56.5 90.4H59v6.7h-2.5z"/><path transform="rotate(-45.001 95.115 93.834)" class="st3" d="M91.8 92.6h6.7v2.5h-6.7z"/><path class="st0" d="M84.6 104.3c-.6 5.9-3.9 33.8-4.9 40.4-10 2.3-10 8.9-10 16.6v2.5h70.1v-2.5c0-7.7 0-14.1-10-16.6-.8-6.6-4.1-34.4-4.9-40.4"/><path class="st1" d="M104.8 148.4c29.7 0 32.9 3.3 32.9 3.3h.3c-1.3-7-16.9-7.8-16.9-7.8H88.5s-16.1.6-17.1 7.8h.5s3.2-3.3 32.9-3.3z"/><path class="st2" d="M90.1 104.3s14.7-.9 22.4 8.6 8.3 29.9 8.3 29.9c5 .9 8.6 1.9 8.6 1.9l-4.7-39.7"/><path class="st3" d="M139.5 150.5c-1.6-3.3-4.2-5.3-8.6-6.6-.9-7.5-3.8-31.1-4.5-38.3l-2-2.2c-6.6-.9-13.1-1.6-19.9-1.7-6.6.2-13.3.8-19.9 1.7l-2.2 2.2h.2c-.8 7.4-3.6 30.8-4.5 38.3-4.4 1.3-7.2 3.3-8.6 6.6-1.6 3.3-1.6 6.9-1.4 11.1v3.9H141v-3.9c-.1-4.2-.1-8-1.5-11.1zM85.4 106c6.3-.9 12.7-1.6 19.1-1.7 6.4.2 12.7.8 19.1 1.7.8 7 3.4 28.9 4.4 37.2-.5-.2-.9-.2-1.4-.2-7.4-.8-14.7-1.3-22.1-1.1-7.4 0-14.7.3-22.1 1.1l-1.4.2c1.1-8.2 3.6-30 4.4-37.2zm52.7 56.7H70.8c0-8.1-.5-14.1 8.8-16.3h.3l.6-.2c.6-.2 1.6-.3 2.3-.3 7.2-.8 14.4-1.3 21.8-1.1 7.2 0 14.4.3 21.6 1.1.8.2 1.6.2 2.3.3l.8.2h.2c9.2 2.2 8.8 8.1 8.6 16.3z"/><path class="st0" d="M123.6 101.2c4.9-4.1 11.4-12.7 11.4-27.1 0-14.1-9.4-24.9-15.3-30.8l-1.3-1.3-.9 1.6c-1.1 1.7-6.1 10-6.3 30.8h-9.4c.3-31.1 12.4-42.9 12.7-42.9l.5-.5v-.6c-.3-4.7-4.2-8.3-8.9-8.3-5 0-8.9 4.1-8.9 8.9 0 2.2.8 4.4 2.3 6.1-3.6 3-7 6.3-10 9.9C81.9 56 78 65.3 78 74.1c0 14.4 6.6 23 11.4 27.1"/><path class="st2" d="M125 50.3c15.6 38-18.8 49.6-18.8 49.6l17.4 1.4c-1.7 1.3 11.1-3.6 11.1-28.6 0-8.6-3.5-16.6-9.7-22.4z"/><path class="st1" d="M101.3 37.3c-1.9-.8-19.7 14.2-22.7 29.6-2.8 14.4 2.2 18.3 1.9 18.3 0-.2 1.9-31.6 22.7-47.1 0 0-.8-.3-1.9-.8zm5.7-13.7c-3 .3-8.1 4.5-8.6 10.6 0 0-4.1-3.9 0-8.6 3.4-3.9 8.6-2 8.6-2z"/><path class="st2" d="M104.9 49.9c1.3-3.4 9.7-20 9.7-20l-3.8-6.4h-2c6.4 7.8-12.5 25.5-12.5 39 0 3.9.9 11.9 3.8 13.3.3 0 2.2-18.6 4.8-25.9z"/><path class="st3" d="M92.4 102.6c-3.4-1.6-13.9-10-13.9-28.2 0-20.8 22.2-36.8 22.2-36.8-3.4-2.5-4.2-7.2-1.7-10.5 2.5-3.4 7.2-4.2 10.5-1.7 1.7 1.3 3 3.3 3.1 5.5 0 0-13 12.2-13 45.4h12.2c0-20.7 4.9-29.3 6.1-31.5 6.6 6.6 14.9 16.6 14.9 29.7 0 18-10.5 26.4-13.9 28.2l7.4-2.3c4.5-4.9 9.4-13.3 9.4-25.8 0-10.8-5.2-21.3-15.6-31.8l-2.5-2.5-1.7 3.1c-3.9 6.7-6.3 17.1-6.4 30.2h-6.7c.3-14.9 3.4-24.9 6.1-30.8 3-6.7 5.9-9.7 6.1-9.7l.9-.9-.2-1.3c-.5-5.3-4.9-9.5-10.3-9.5-5.6 0-10.3 4.5-10.3 10.3 0 2 .6 4.2 1.9 5.9-3.3 2.8-6.4 5.8-9.2 9.2-7.7 9.2-11.7 18.9-11.7 28 0 12.4 4.7 20.7 9.2 25.5l7.1 2.3z"/><path class="st3" d="M105.6 103.1c6.3 0 11.9.2 16.9.6l1.3-2.7c-5.3-.5-11.3-.8-18.3-.8s-13.1.3-18.5.8l.8 2.7c5.4-.5 11.4-.6 17.8-.6z"/><path transform="rotate(-41.359 86.785 100.428)" class="st3" d="M85.5 97.1H88v6.7h-2.5z"/><path transform="rotate(-45.001 124.099 100.551)" class="st3" d="M120.7 99.3h6.7v2.5h-6.7z"/></svg>