
<svg version="1.1" id="Layer_1" xmlns="http://www.w3.org/2000/svg" xmlns:xlink="http://www.w3.org/1999/xlink" x="0px" y="0px"
   viewBox="0 0 180 180" style="enable-background:new 0 0 180 180;" xml:space="preserve">

<style type="text/css">
.wst0{fill:none;}.wst1{fill:#5D686E;}.wst2{fill:#7D868B;}.wst3{opacity:0.2;}.wst4{fill:#FFFFFF;}.wst5{opacity:0.2;enable-background:new    ;}</style>
<title>
k</title>
<rect class="wst0" width="180" height="180"/>
<rect class="wst1" width="180" height="180"/>
<g>
<g>
<path class="wst2" d="M16.4,1.8C22.6,1.3,28.9,1.5,35,2.1c2.7,0.3,5.8,0.9,7.3,3.2c1,1.5,1.2,3.4,1.2,5.3c0.2,7.6-1.4,16.2-7.6,20.5c-3.4,2.4-7.6,3.1-11.7,3.8c-2.8,0.5-5.9,0.9-8.5-0.5c-2.4-1.3-3.7-4-4.7-6.6C8,19.2,2.8,2.7,16.4,1.8z"/>
<path class="wst2" d="M77.7,1c3.7-0.1,8,0.2,9.9,3.4c1,1.6,1,3.6,0.9,5.5c-0.2,7-1.4,14.3-5.3,20.2s-10.9,10.1-17.9,9c-3.7-0.6-7-2.5-10.3-4.4c-2.5-1.5-5-3-6.6-5.4c-2.8-4.1-2.5-9.8-2.4-14.5c0.2-3.2,0-7.8,2.2-10.3c2.9-3.3,8.4-3,12.4-3.1C66.3,1.3,72,1.2,77.7,1z"/>
<path class="wst2" d="M98.5,3.3c3.4-1.8,7.3-1.8,11.1-1.8c5.4,0,11.2,0.2,15.5,3.5c3.1,2.4,4.8,6.1,6.5,9.7c3.8,8.4,7.6,17,9.3,26.1c0.4,1.9,0.6,3.9-0.1,5.6c-1.2,2.9-4.6,4-7.6,4.8c-5.5,1.5-11.1,3.1-16.8,3.3c-5.7,0.2-11.7-1.1-16.2-4.6c-4.6-3.7-7.1-9.3-8.3-15.1c-1.2-6.2-0.9-12.5,0.7-18.6C93.8,11.4,93.4,5.9,98.5,3.3z"/>
<path class="wst2" d="M139.3,1.4c9.4,0,18.9,0.1,28.3,0.2c2.4,0,4.9,0.1,6.7,1.7c3,2.6,2.1,7.3,2.1,11.2c0,5.7,2.3,12-1,16.7c-2,2.8-5.6,4.1-8.9,5.2c-4,1.3-8.1,2.6-12.1,3.9c-1.6,0.5-3.3,1.1-5,0.6c-2.3-0.6-3.7-2.8-4.8-4.8c-3.6-6.4-6.6-13.2-8.9-20.2C133.8,10.2,130.1,1.4,139.3,1.4z"/>
<path class="wst2" d="M171.7,36.8c-4.8,2.4-9.5,4.7-14.3,7.1c-3,1.5-6.3,3.5-6.6,6.8c-0.1,1.9,0.9,3.8,1.9,5.4c4.7,8,9.4,15.9,14.8,23.5c1.1,1.5,2.2,3,3.8,3.9s3.8,1,5.2-0.2s1.3-3.3,1.5-5.2c1.1-10.1,0.6-36.9,0.2-39.5C177.5,34.5,174.4,35.5,171.7,36.8z"/>
<path class="wst2" d="M163.8,88.9c-3,1-25.7,14.3-26.2,25.1c-0.2,3.2,1.1,6.2,3.4,8.2c8.1,7,20.3,7,30.6,3.9c2.4-0.7,4.9-1.7,6.1-3.9c1-1.7,0.9-3.7,0.9-5.7c-0.2-7.5-0.2-15-0.6-22.4c-0.2-3.5-1.4-3.8-4.7-4.8C170,88.3,167.1,88,163.8,88.9z"/>
<path class="wst2" d="M156.5,132.2c-2.2,0.3-4.5,0.7-6,2.2c-1.8,1.8-2,4.7-1.9,7.3c0,5.7,0.1,11.4,0.3,17c0.1,4.3,0.5,8.9,3,12.4c2.7,3.7,7.5,5.3,12.1,6c2.7,0.4,5.5,0.5,8.3,0.7c2.9,0.3,5.5-1.9,5.6-4.9c0.4-9.8,1.2-28.8,1.2-31.1c0-3,0.2-6.3-0.3-9.3c-0.4-2.8-0.9-3-3.8-2.8C168.8,130.3,162.6,131.4,156.5,132.2z"/>
<path class="wst2" d="M20,47.2c0.1-2.2,0.3-4.6,1.6-6.3c1-1.3,2.6-2.1,4.1-2.7c9-3.6,19.4-3.2,28.1,1c3,1.4,6,3.6,6.8,6.9c0.6,2.5-0.3,5.1-1.1,7.5c-1,3-2.1,6-3.1,8.9c-1.5,4.4-3.1,8.8-6,12.5c-3.8,4.8-9.8,7.9-15.9,8.2c-5.4,0.2-15.8-2.1-15.8-8.6C18.7,65.5,19.5,56.3,20,47.2z"/>
<path class="wst2" d="M61.8,53.3c1.3-3,2.8-5.9,5.1-8.2c4.9-4.8,12.9-5.6,19.3-3.1c6.4,2.5,11.3,7.9,14.8,13.8c2.2,3.8,3.9,7.9,4.4,12.3s-0.4,9-3.1,12.5c-2.1,2.8-5.1,4.8-8.2,6.3c-3.9,2-8.2,3.6-12.5,3.7c-9,0.4-19.2-5.3-25.5-11.5c-3.2-3.2-1-7.3,0.2-11.2C57.8,63,59.6,58.1,61.8,53.3z"/>
<path class="wst2" d="M107.9,73.9c0.1-3.7,0.8-7.6,3.2-10.4c2.4-2.8,6-4,9.5-5.2c6.2-2.1,12.5-4.2,18.7-6.2c1.6-0.5,3.4-1.1,5.1-0.5c1.3,0.5,2.2,1.6,3.1,2.7c5.6,7.2,10.6,15,14.8,23.1c1.3,2.5,2.5,5.5,1.1,7.9c-0.7,1.3-2,2.1-3.3,2.9c-8.1,4.9-16.1,9.9-24.2,14.8c-1.8,1.1-3.8,2.2-5.9,1.9c-2.8-0.4-4.5-3.1-6-5.5c-3.1-4.7-6.9-8.8-11.4-12.1c-1.6-1.2-3.2-1.9-4-3.8C107.5,80.9,107.8,76.7,107.9,73.9z"/>
<path class="wst2" d="M80.6,105.6c0.6-3,1.2-6.1,2.9-8.6c2.8-4.1,7.9-5.8,12.6-7.3c3.6-1.1,7.5-2.2,11-0.7c2.1,0.9,3.7,2.7,5.2,4.4c4,4.5,7.9,9,11.8,13.5c1.8,2.1,3.7,4.6,3.1,7.3c-0.6,2.7-3.4,4.2-5.9,5.5c-5.8,3.1-11.1,7.3-15.5,12.3c-2.2,2.5-4.3,5.3-7,7.2c-4.1,2.8-9.6,3.5-14.2,1.6c-5-2-9.4-6.9-8.6-12.3C77.4,120.8,79.1,113.2,80.6,105.6z"/>
<path class="wst2" d="M104.2,137.3c2-1.8,14.6-15.2,20.7-17.1c6.5-2,13.5,2.4,16.8,8.4c3.3,5.9,3.6,13,4,19.7c0.2,3.6,0.3,7.3,0.5,10.9c0.1,1.9,0.2,3.9-0.6,5.6c-0.9,2.3-3.1,3.8-5.4,4.7c-4.9,1.8-10.6,0.7-15.2-1.8c-4.6-2.5-8.4-6.2-12.1-10c-3.4-3.5-7-7-10.2-10.7C99.7,143.5,100.8,140.3,104.2,137.3z"/>
<path class="wst2" d="M33.1,96.8c-0.3-2.1-0.5-4.3,0.3-6.3c1.2-2.9,4.3-4.3,7.2-5.5c3.7-1.5,7.5-3.1,11.5-2.8c3.1,0.2,6.1,1.6,8.8,3.2c4.3,2.4,8.4,5.2,11.6,9c3.2,3.7,5.4,8.4,5.5,13.4c0.1,5.1-2,10-4.1,14.6c-1,2.2-2.1,4.5-4.2,5.8c-2.6,1.6-5.8,1-8.8,0.4c-5.2-1.1-10.3-2.1-15.5-3.2c-2.7-0.6-5.8-1-7.8-3.1c-2.4-2.5-2.3-6.7-2.7-9.9C34.4,107.3,33.1,101.9,33.1,96.8z"/>
<path class="wst2" d="M10.1,82.3c6.4-2.8,14.7,0.1,18,6.2c1.7,3.1,2.1,6.7,2.5,10.2c0.8,6.7,1.5,13.3,2.3,20c0.3,2.2,0.5,4.6-0.2,6.7c-1,2.9-3.7,4.9-6.3,6.7c-2.7,1.9-5.6,3.9-9,4.2c-3.3,0.2-6.4-1.4-9.4-2.9c-2.3-1.2-4.7-2.5-5.8-4.9c-0.8-1.7-0.8-3.7-0.7-5.7c0.3-8,0.9-16.1,0.6-24.1C1.7,92.1,3.4,85.3,10.1,82.3z"/>
<path class="wst2" d="M72.2,172.2c0-0.8,0.2-1.5,0.4-2.3l4.2-11.2c1.4-3.7,2.9-7.5,5.5-10.4c2.7-2.9,6.9-4.8,10.6-3.6c2.2,0.7,3.9,2.3,5.6,3.8l20,18.6c1.2,1.2,1.8,2.9,1.2,4.5c-1.8,5-6.9,5-9,5.4c-7.7,1.3-15.5,1.7-23.3,1.4C82.8,178.3,72.4,179.2,72.2,172.2z"/>
<path class="wst2" d="M49.6,177.7c-4.8,0.2-9.9-0.6-14-3.1c-5-3-8.4-8.3-10.3-13.9c-1.9-5.6-2.4-11.5-2.9-17.3c-0.2-1.9-0.3-4.1,1-5.5c1.5-1.7,7.9-6.7,9.5-8c1.7-1.4,4.3-1.2,6.5-0.9c9.2,1.2,18.4,2.5,27.6,3.7c1.6,0.2,3.2,0.4,4.5,1.2c1.4,0.8,2.4,2.1,3.4,3.4c2.1,2.7,4.3,5.7,4.3,9.1c0,2.9-1.5,5.5-3,8c-3.6,6-7.2,12-10.8,18.1c-1.8,3.1-2.9,3.2-6.4,3.9C56,177,52.8,177.6,49.6,177.7z"/>
<path class="wst2" d="M13.6,138c5.7,4.1,7.1,11.8,8,18.8c0.4,3.2,0.9,6.4,1.3,9.5c0.2,1.3,0.3,2.7-0.3,3.9c-0.6,1.2-2,1.9-3.2,2.5c-3,1.4-6.1,2.9-9.1,4.3c-2.3,1.1-5.3,2.1-7.1,0.4c-1.2-1.2-1.4-3.1-1.4-4.8c-0.1-9.8-0.6-19.6-0.4-29.3C1.5,135.7,7.1,133.3,13.6,138z"/>
<path class="wst2" d="M7.1,34.7c2.5-0.2,5.1,0.9,6.6,2.9c1.7,2.3,1.9,5.2,2.1,8c0.7,9.5,1.3,19.2-1.6,28.3c-0.8,2.7-2.1,5.4-4.3,7c-2.3,1.7-4.8,1.9-6.7-0.1c-1.5-1.6-1.7-3.9-1.8-6.1c-0.3-8.1-0.4-16-0.1-24.2C1.5,44.8-1,35.5,7.1,34.7z"/>
<path class="wst2" d="M145.5,173.7c0.8,0.4,1.7,0.9,2.2,1.6c0.5,0.8,0.5,1.9-0.1,2.5c-0.5,0.4-1.1,0.5-1.7,0.6c-4.7,0.5-9.5,0.7-14.3,0.6c-2.1-0.1-11.3,0.5-9-3.4c1.5-2.6,8.4-3.6,11-3.9C137.6,171.3,141.8,171.9,145.5,173.7z"/>
<path class="wst2" d="M25,173.1c3.1,0,6.2,0.8,8.8,2.4c1.2,0.7,0.7,2.5-0.6,2.5c-5,0.2-10.3,0.5-15.1-0.1C10.3,177.1,22.2,173.1,25,173.1z"/>
<path class="wst2" d="M7.4,22.7c0.6,2.2,2.1,4.5,1.7,6.7s-2,4.4-4.2,4.8c-1,0.1-2.4-0.1-2.7-1.1c-0.8-2.6-0.3-12.3-0.3-17.5c0-2.7-1.3-11,2.1-10C7.5,6.6,4.7,15,7.4,22.7z"/>
</g>
<g class="wst3">
<path class="wst4" d="M15.2,31.8c-3.2-8.6-8.4-25.1,5.2-26C26.6,5.4,32.8,5.5,39,6.2c1.4,0.2,2.8,0.4,4.1,0.8c-0.2-0.6-0.4-1.2-0.8-1.7C40.8,3,37.8,2.5,35,2.1c-6.2-0.7-12.4-0.8-18.6-0.4C2.8,2.7,8,19.2,11.2,27.8c1,2.6,2.3,5.3,4.7,6.6c0.2,0.1,0.4,0.2,0.6,0.3C16,33.7,15.6,32.8,15.2,31.8z"/>
<path class="wst4" d="M50.1,18.7c0.1-3.1-0.1-7.7,2.1-10.2c2.9-3.3,8.4-3,12.4-3.1C70.3,5.3,76,5.2,81.7,5.1c2.1,0,4.5,0,6.5,0.7c-0.1-0.5-0.3-1-0.6-1.4C85.7,1.3,81.4,1,77.7,1C72,1.2,66.3,1.3,60.6,1.4c-4,0.1-9.5-0.2-12.4,3.1c-2.2,2.5-2,7.1-2.1,10.2c-0.1,4.7-0.3,10.5,2.4,14.5c1,1.4,2.3,2.6,3.8,3.6C49.8,28.8,50,23.3,50.1,18.7z"/>
<path class="wst4" d="M95.9,38.8c-1.2-6.2-0.9-12.5,0.7-18.6c1.3-4.8,0.9-10.3,6-12.9c3.4-1.8,7.3-1.8,11.1-1.8c5,0,10.4,0.2,14.5,2.8c-0.9-1.3-1.9-2.4-3.1-3.4c-4.3-3.3-10.1-3.5-15.5-3.5c-3.8,0-7.8,0-11.1,1.8c-5.1,2.7-4.7,8.1-6,12.9c-1.6,6.1-1.9,12.4-0.7,18.6c1.1,5.7,3.7,11.4,8.3,15.1c0.2,0.2,0.4,0.3,0.6,0.4C98.3,47,96.7,42.9,95.9,38.8z"/>
<path class="wst4" d="M148.7,40.1c-3.6-6.4-6.6-13.2-8.9-20.2c-1.9-5.7-5.6-14.5,3.6-14.5c9.4,0,18.9,0.1,28.3,0.2c1.5,0,3.1,0.1,4.5,0.5c-0.3-1.1-0.9-2.1-1.8-2.9c-1.8-1.5-4.4-1.6-6.7-1.7c-9.4-0.1-18.9-0.1-28.3-0.2c-9.2,0-5.5,8.8-3.6,14.5c2.3,7,5.3,13.7,8.9,20.2c1.1,1.9,2.4,3.9,4.4,4.7C148.9,40.5,148.8,40.3,148.7,40.1z"/>
<path class="wst4" d="M171.7,83.7c-5.4-7.5-10.1-15.5-14.8-23.5c-1-1.7-2-3.5-1.9-5.4c0.3-3.3,3.6-5.3,6.6-6.8c4.8-2.4,9.5-4.7,14.3-7.1c0.8-0.4,1.7-0.8,2.6-1c0-0.6-0.1-1-0.1-1.2c-0.7-4.1-3.8-3.1-6.5-1.8c-4.8,2.4-9.5,4.7-14.3,7.1c-3,1.5-6.3,3.5-6.6,6.8c-0.1,1.9,0.9,3.8,1.9,5.4c4.7,8,9.4,15.9,14.8,23.5c1.1,1.5,2.2,3,3.8,3.9C171.5,83.6,171.6,83.6,171.7,83.7L171.7,83.7z"/>
<path class="wst4" d="M141.6,118c0.5-10.8,23.3-24.1,26.2-25.1c3.3-0.8,6.3-0.6,9.5,0.4c0.2,0.1,0.4,0.1,0.6,0.2c-0.3-2.9-1.6-3.3-4.7-4.2c-3.3-1-6.2-1.3-9.5-0.4c-3,1-25.7,14.3-26.2,25.1c-0.2,3.2,1.1,6.2,3.4,8.2c0.6,0.5,1.3,1,1.9,1.5C142,122,141.5,120.1,141.6,118z"/>
<path class="wst4" d="M152.9,162.8c-0.2-5.7-0.2-11.4-0.3-17c0-2.6,0.1-5.5,1.9-7.3c1.5-1.5,3.9-1.9,6-2.2c6.1-0.8,12.2-1.9,18.3-2.5c0-0.4-0.1-0.9-0.2-1.3c-0.4-2.8-0.9-3-3.8-2.8c-6.1,0.6-12.3,1.6-18.4,2.5c-2.2,0.3-4.5,0.7-6,2.2c-1.8,1.8-2,4.7-1.9,7.3c0,5.7,0.1,11.4,0.3,17c0.1,4.3,0.5,8.9,3,12.4c0.9,1.3,2.1,2.3,3.5,3.1C153.3,170.9,153,166.7,152.9,162.8z"/>
<path class="wst4" d="M22.7,78.6c0-9.1,0.9-18.3,1.3-27.4c0.1-2.2,0.3-4.6,1.6-6.3c1-1.3,2.6-2.1,4.1-2.7c9-3.6,19.4-3.2,28.1,1c0.7,0.3,1.4,0.7,2.1,1.1c-1.3-2.3-3.7-4-6.1-5.2c-8.7-4.2-19.1-4.5-28.1-1c-1.5,0.6-3.1,1.4-4.1,2.7c-1.4,1.7-1.5,4.1-1.6,6.3c-0.4,9.1-1.3,18.3-1.3,27.4c0,2.8,1.9,4.8,4.5,6.2C22.8,80.1,22.7,79.4,22.7,78.6z"/>
<path class="wst4" d="M60.3,72c1.5-5,3.4-9.9,5.5-14.7c1.3-3,2.8-5.9,5.1-8.2c4.9-4.8,12.9-5.6,19.3-3.1c2.4,1,4.7,2.4,6.7,4c-2.9-3.5-6.5-6.4-10.7-8.1c-6.4-2.5-14.4-1.8-19.3,3.1c-2.3,2.3-3.8,5.3-5.1,8.2c-2.1,4.8-4,9.7-5.5,14.7c-1.2,3.9-3.4,8-0.2,11.2c0.9,0.9,2,1.8,3.1,2.7C57.5,78.9,59.3,75.4,60.3,72z"/>
<path class="wst4" d="M112,78c0.1-3.7,0.8-7.6,3.2-10.4c2.4-2.8,6-4,9.5-5.2c6.2-2.1,12.5-4.2,18.7-6.2c1.6-0.5,3.4-1.1,5.1-0.5l0,0c-0.3-0.4-0.7-0.9-1-1.3c-0.8-1.1-1.8-2.2-3.1-2.7c-1.6-0.6-3.4-0.1-5.1,0.5c-6.2,2.1-12.5,4.2-18.7,6.2c-3.5,1.1-7.1,2.4-9.5,5.2c-2.4,2.8-3.1,6.7-3.2,10.4c-0.1,2.8-0.5,7,0.7,9.6c0.8,1.8,2.4,2.6,4,3.8C111.6,84.7,111.9,80.7,112,78z"/>
<path class="wst4" d="M128,103.5c-2.4-3.6-5.2-6.8-8.4-9.7c1.6,1.8,3,3.7,4.4,5.6c1.3,2,2.7,4.2,4.8,5.1C128.5,104.2,128.3,103.8,128,103.5z"/>
<path class="wst4" d="M80.3,132.5c1.2-7.7,2.9-15.3,4.4-22.9c0.6-3,1.2-6.1,2.9-8.6c2.8-4.1,7.9-5.8,12.6-7.3c3.6-1.1,7.5-2.2,11-0.7c0.7,0.3,1.3,0.7,1.9,1.1c-0.2-0.3-0.5-0.5-0.7-0.8c-1.5-1.7-3.1-3.5-5.2-4.4c-3.4-1.5-7.4-0.4-11,0.7c-4.7,1.5-9.8,3.2-12.6,7.3c-1.7,2.5-2.3,5.6-2.9,8.6c-1.4,7.6-3.1,15.2-4.4,22.9c-0.7,4.3,2,8.4,5.7,10.8C80.6,137.3,79.9,134.9,80.3,132.5z"/>
<path class="wst4" d="M106.7,151c-3-3.5-1.9-6.7,1.5-9.7c2-1.8,14.6-15.2,20.7-17.1c4-1.2,8.1,0,11.5,2.4c-3.6-4.9-9.8-8.2-15.6-6.5c-6,1.9-18.7,15.3-20.7,17.1c-3.4,3.1-4.5,6.2-1.5,9.7c3.2,3.7,6.7,7.2,10.2,10.7c1.1,1.2,2.3,2.3,3.5,3.5C113.1,157.9,109.8,154.6,106.7,151z"/>
<path class="wst4" d="M39.1,116.4c-0.6-5-1.9-10.5-1.9-15.5c-0.3-2.1-0.5-4.3,0.3-6.3c1.2-2.9,4.3-4.3,7.2-5.5c3.7-1.5,7.5-3.1,11.5-2.8c3.1,0.2,6.1,1.6,8.8,3.2c2.7,1.5,5.4,3.2,7.8,5.2c-0.1-0.1-0.2-0.2-0.2-0.3c-3.2-3.7-7.3-6.6-11.6-9c-2.7-1.5-5.7-2.9-8.8-3.2c-4-0.3-7.8,1.3-11.5,2.8c-2.9,1.2-6,2.6-7.2,5.5c-0.8,1.9-0.6,4.2-0.3,6.3c0,5.1,1.3,10.5,1.9,15.5c0.4,3.2,0.3,7.4,2.7,9.9c0.7,0.8,1.6,1.3,2.6,1.8C39.4,121.6,39.4,118.8,39.1,116.4z"/>
<path class="wst4" d="M5.5,126.9c0.3-8,0.9-16.1,0.6-24.1c-0.3-6.7,1.4-13.5,8.1-16.4c4.3-1.9,9.5-1.2,13.4,1.3c-3.6-5.6-11.4-8.1-17.5-5.4c-6.7,3-8.4,9.8-8.1,16.4c0.3,8-0.3,16.1-0.6,24.1c-0.1,1.9-0.1,3.9,0.7,5.7c0.8,1.7,2.3,2.9,4,3.8C5.4,130.7,5.4,128.7,5.5,126.9z"/>
<path class="wst4" d="M76.2,176.2c0-0.8,0.2-1.5,0.4-2.3l4.2-11.2c1.4-3.7,2.9-7.5,5.5-10.4c2.7-2.9,6.9-4.8,10.6-3.6c2.2,0.7,3.9,2.3,5.6,3.8l16.8,15.6c-0.2-0.4-0.5-0.7-0.8-1l-20-18.6c-1.7-1.5-3.4-3.1-5.6-3.8c-3.8-1.2-7.9,0.7-10.6,3.6c-2.7,2.9-4.1,6.7-5.5,10.4l-4.2,11.2c-0.3,0.7-0.5,1.5-0.4,2.3c0.1,2.8,1.8,4.4,4.2,5.2C76.3,177,76.2,176.6,76.2,176.2z"/>
<path class="wst4" d="M29.3,164.8c-1.9-5.6-2.4-11.5-2.9-17.3c-0.2-1.9-0.3-4.1,1-5.5c1.5-1.7,7.9-6.7,9.5-8c1.7-1.4,4.3-1.2,6.5-0.9c9.2,1.2,18.4,2.5,27.6,3.7c1.5,0.2,3,0.4,4.3,1.1c-0.1-0.2-0.3-0.4-0.4-0.5c-1-1.3-2-2.6-3.4-3.4c-1.4-0.8-3-1-4.5-1.2c-9.2-1.2-18.4-2.5-27.6-3.7c-2.2-0.3-4.8-0.5-6.5,0.9c-1.6,1.3-8,6.4-9.5,8c-1.3,1.4-1.2,3.6-1,5.5c0.5,5.8,1.1,11.8,2.9,17.3c1.7,4.9,4.5,9.6,8.7,12.8C31.9,170.9,30.4,167.9,29.3,164.8z"/>
<path class="wst4" d="M5.8,176.6c-0.1-9.8-0.6-19.6-0.4-29.3c0.2-7.4,5.5-9.8,11.7-5.6c-1-1.4-2.1-2.7-3.6-3.7c-6.4-4.6-12-2.3-12.2,5.3c-0.2,9.8,0.3,19.6,0.4,29.3c0,1.7,0.1,3.6,1.4,4.8c0.8,0.7,1.7,1,2.8,0.9C5.8,177.7,5.8,177.2,5.8,176.6z"/>
<path class="wst4" d="M5.4,78.8c-0.3-8.1-0.4-16-0.1-24.2c0.2-5.8-2.3-15.1,5.8-15.9c1.2-0.1,2.4,0.1,3.5,0.5c-0.3-0.6-0.6-1.1-0.9-1.7c-1.5-2-4.1-3.2-6.6-2.9c-8.1,0.9-5.6,10.2-5.8,16c-0.3,8.1-0.2,16,0.1,24.1c0.1,2.2,0.3,4.5,1.8,6.1c0.8,0.9,1.7,1.3,2.7,1.4C5.6,81.1,5.5,79.9,5.4,78.8z"/>
<path class="wst4" d="M137.6,175.7c3.5-0.3,7.1,0.1,10.4,1.3c0.2-0.6,0-1.2-0.3-1.8c-0.5-0.8-1.3-1.2-2.2-1.6c-3.7-1.8-7.9-2.4-12-2c-2.6,0.2-9.5,1.3-11,3.9c-1.4,2.4,1.6,3.1,4.7,3.3C129.4,176.8,135.3,175.9,137.6,175.7z"/>
<path class="wst4" d="M24,178.3c2-0.7,4-1.2,5-1.2c1.6,0,3.2,0.2,4.8,0.7c0.8-0.5,0.9-1.7-0.1-2.3c-2.6-1.6-5.7-2.5-8.8-2.4c-2.8,0-14.7,4-7,4.9C20,178.2,22,178.3,24,178.3z"/>
<path class="wst4" d="M5.9,19.6c0-1.8-0.6-6.2,0.1-8.5C5.9,8.2,5.6,6,4,5.6c-3.4-1-2.1,7.3-2.1,10c0,5.3-0.5,14.9,0.3,17.5c0.3,1,1.7,1.3,2.7,1.1c0.3,0,0.7-0.2,1-0.3C5.6,29.9,5.9,23.5,5.9,19.6z"/>
</g>
<g>
<path class="wst5" d="M43.6,10.6c0-1.8-0.2-3.8-1.2-5.3c-0.8-1.1-1.9-1.8-3.3-2.3c0.3,1.1,0.4,2.4,0.4,3.6c0.2,7.6-1.4,16.2-7.6,20.5c-3.4,2.4-7.6,3.1-11.7,3.8c-2.6,0.4-5.4,0.8-7.8-0.2c0.8,1.5,1.9,2.9,3.4,3.7c2.5,1.4,5.6,1,8.5,0.5c4.1-0.7,8.3-1.4,11.7-3.8C42.2,26.7,43.8,18.2,43.6,10.6z"/>
<path class="wst5" d="M87.6,4.4c-0.8-1.3-2-2.1-3.5-2.6c0.4,1.3,0.4,2.7,0.3,4.1c-0.2,7-1.4,14.3-5.3,20.2s-10.9,10.1-17.9,9c-3.7-0.6-7-2.5-10.3-4.4c-1-0.6-1.9-1.2-2.9-1.8c0.1,0.2,0.2,0.3,0.3,0.5c1.6,2.4,4.2,3.9,6.6,5.4c3.2,1.9,6.5,3.9,10.3,4.4c7,1.1,14-3.1,17.9-9s5.1-13.1,5.3-20.2C88.6,8,88.6,6,87.6,4.4z"/>
<path class="wst5" d="M140.9,40.8c-1.7-9.1-5.5-17.7-9.3-26.1c-1.6-3.6-3.4-7.3-6.5-9.7c-0.3-0.2-0.6-0.5-1-0.7c1.3,1.9,2.4,4.2,3.4,6.3c3.8,8.4,7.6,17,9.3,26.1c0.4,1.9,0.6,3.9-0.1,5.6c-1.2,2.9-4.6,4-7.6,4.8c-5.5,1.5-11.1,3.1-16.8,3.3c-5.5,0.2-11.2-1-15.6-4.2c1,1.3,2.1,2.6,3.4,3.6c4.5,3.6,10.5,4.8,16.2,4.6s11.3-1.8,16.8-3.3c3-0.8,6.4-2,7.6-4.8C141.5,44.6,141.2,42.6,140.9,40.8z"/>
<path class="wst5" d="M176.5,14.5c0-3.9,0.9-8.7-2.1-11.2c-0.7-0.6-1.4-0.9-2.3-1.2c0.7,2.5,0.3,5.6,0.3,8.4c0,5.7,2.3,12-1,16.7c-2,2.8-5.6,4.1-8.9,5.2c-4,1.3-8.1,2.6-12.1,3.9c-1.6,0.5-3.3,1.1-5,0.6c-0.2,0-0.3-0.1-0.4-0.2c1.1,1.8,2.4,3.7,4.5,4.2c1.6,0.4,3.4-0.1,5-0.6c4-1.3,8.1-2.6,12.1-3.9c3.3-1.1,6.9-2.3,8.9-5.2C178.8,26.5,176.5,20.2,176.5,14.5z"/>
<path class="wst5" d="M178.2,38.6c-0.5-2.8-2.1-3.3-3.9-2.8c0.4,6,0.7,29.1-0.3,38.3c-0.2,1.8-0.1,3.9-1.5,5.2c-1.3,1.2-3.4,1.1-4.9,0.3c1.1,1.5,2.2,3,3.8,3.9s3.8,1,5.2-0.2s1.3-3.3,1.5-5.2C179.2,68.1,178.7,41.2,178.2,38.6z"/>
<path class="wst5" d="M178.6,116.5c-0.2-7.5-0.2-15-0.6-22.4c-0.1-3.2-1.2-3.7-4.1-4.6c0,0.2,0,0.4,0,0.6c0.3,7.5,0.4,15,0.6,22.4c0,1.9,0.1,4-0.9,5.7c-1.2,2.2-3.7,3.2-6.1,3.9c-9.5,2.9-20.6,3.1-28.7-2.4c0.5,1,1.3,1.8,2.1,2.6c8.1,7,20.3,7,30.6,3.9c2.4-0.7,4.9-1.7,6.1-3.9C178.7,120.5,178.6,118.5,178.6,116.5z"/>
<path class="wst5" d="M178.7,132.5c-0.4-2.8-0.9-3-3.8-2.8h-0.1c0.2,2.6,0.1,5.4,0.1,8c0,2.3-0.8,21.3-1.2,31.1c-0.1,3-2.7,5.2-5.6,4.9c-2.8-0.2-5.5-0.3-8.3-0.7c-3-0.4-6-1.3-8.6-2.8c0.2,0.3,0.4,0.6,0.6,0.9c2.7,3.7,7.5,5.3,12.1,6c2.7,0.4,5.5,0.5,8.3,0.7c2.9,0.3,5.5-1.9,5.6-4.9c0.4-9.8,1.2-28.8,1.2-31.1C178.9,138.8,179.1,135.5,178.7,132.5z"/>
<path class="wst5" d="M60.6,46c-0.6-2.5-2.5-4.4-4.7-5.7c0.3,0.5,0.5,1.1,0.7,1.7c0.6,2.5-0.3,5.1-1.1,7.5c-1,3-2.1,6-3.1,8.9c-1.5,4.4-3.1,8.8-6,12.5c-3.8,4.8-9.8,7.9-15.9,8.2c-3.1,0.1-7.9-0.6-11.4-2.5c2,4.9,10.7,6.7,15.4,6.5c6.1-0.3,12.1-3.3,15.9-8.2c2.9-3.7,4.4-8.1,6-12.5c1-3,2.1-6,3.1-8.9C60.4,51.1,61.2,48.5,60.6,46z"/>
<path class="wst5" d="M105.3,68.1c-0.5-4.4-2.2-8.5-4.4-12.3c-2.1-3.7-4.9-7.1-8.1-9.8c1.5,1.8,2.9,3.8,4.1,5.8c2.2,3.8,3.9,7.9,4.4,12.3s-0.4,9-3.1,12.5c-2.1,2.8-5.1,4.8-8.2,6.3c-3.9,2-8.2,3.6-12.5,3.7C69.8,87,61.3,82.9,55,77.9c0.2,0.5,0.6,0.9,1,1.3c6.3,6.2,16.5,11.9,25.5,11.5C85.9,90.5,90.1,89,94,87c3.1-1.6,6.1-3.6,8.2-6.3C104.9,77.1,105.8,72.5,105.3,68.1z"/>
<path class="wst5" d="M162.2,77.4c-4.2-8.1-9.1-15.9-14.8-23.1c-0.8-1.1-1.8-2.2-3-2.7c5.2,6.9,9.8,14.1,13.7,21.8c1.3,2.5,2.5,5.5,1.1,7.9c-0.7,1.3-2,2.1-3.3,2.9c-8.1,4.9-16.1,9.9-24.2,14.8c-1.8,1.1-3.8,2.2-5.9,1.9c-0.4-0.1-0.9-0.2-1.2-0.4c1.4,2,2.9,4.1,5.3,4.4c2.1,0.3,4.1-0.8,5.9-1.9c8.1-4.9,16.1-9.9,24.2-14.8c1.3-0.8,2.6-1.6,3.3-2.9C164.7,82.9,163.5,79.9,162.2,77.4z"/>
<path class="wst5" d="M108.6,83.3C108.5,83.3,108.5,83.3,108.6,83.3c0,0.1,0,0.2,0.1,0.2c0.8,1.9,2.4,2.6,4,3.8c1,0.8,2,1.6,3,2.4C113.4,87.4,111.1,85.2,108.6,83.3z"/>
<path class="wst5" d="M124.2,106.9c-3.9-4.5-7.9-9-11.8-13.5c-1-1.2-2.1-2.3-3.4-3.3c3.8,4.2,7.5,8.5,11.2,12.7c1.8,2.1,3.7,4.6,3.1,7.3c-0.6,2.7-3.4,4.2-5.9,5.5c-5.8,3.1-11.1,7.3-15.5,12.3c-2.2,2.5-4.3,5.3-7,7.2c-4.1,2.8-9.6,3.5-14.2,1.6c-1-0.4-2-0.9-2.9-1.5c1.6,2.5,4.2,4.5,6.9,5.6c4.6,1.8,10.1,1.2,14.2-1.6c2.8-1.9,4.8-4.7,7-7.2c4.4-5,9.6-9.2,15.5-12.3c2.4-1.3,5.3-2.8,5.9-5.5C127.9,111.5,126,108.9,124.2,106.9z"/>
<path class="wst5" d="M146.1,159.2c-0.2-3.6-0.3-7.3-0.5-10.9c-0.3-6.8-0.7-13.8-4-19.7c-1.3-2.3-3.1-4.4-5.3-6c0.5,0.6,0.9,1.3,1.2,1.9c3.3,5.9,3.6,13,4,19.7c0.2,3.6,0.3,7.3,0.5,10.9c0.1,1.9,0.2,3.9-0.6,5.6c-0.9,2.3-3.1,3.8-5.4,4.7c-4.9,1.8-10.6,0.7-15.2-1.8c-3.2-1.7-6-4-8.6-6.6c0.2,0.2,0.4,0.4,0.6,0.6c3.7,3.8,7.5,7.5,12.1,10s10.3,3.6,15.2,1.8c2.3-0.8,4.4-2.4,5.4-4.7C146.3,163.1,146.2,161.1,146.1,159.2z"/>
<path class="wst5" d="M72.6,94.4c-1.2-1.4-2.4-2.6-3.8-3.7c3.1,3.7,5.2,8.3,5.3,13.1c0.1,5.1-2,10-4.1,14.6c-1,2.2-2.1,4.5-4.2,5.8c-2.6,1.6-5.8,1-8.8,0.4c-5.2-1.1-10.3-2.1-15.5-3.2c-1.7-0.4-3.5-0.7-5.2-1.4c0.3,0.8,0.8,1.6,1.4,2.3c2,2.1,5.2,2.5,7.8,3.1c5.1,1.1,10.3,2.1,15.5,3.2c2.9,0.6,6.2,1.2,8.8-0.4c2.1-1.3,3.2-3.6,4.2-5.8c2.1-4.7,4.2-9.5,4.1-14.6C78,102.8,75.7,98.1,72.6,94.4z"/>
<path class="wst5" d="M32.8,118.7c-0.8-6.7-1.5-13.3-2.3-20c-0.4-3.5-0.8-7.1-2.5-10.2c-1.1-2-2.7-3.6-4.6-4.9c0.2,0.3,0.3,0.5,0.5,0.8c1.7,3.1,2.1,6.7,2.5,10.2c0.8,6.7,1.5,13.3,2.3,20c0.3,2.2,0.5,4.6-0.2,6.7c-1,2.9-3.7,4.9-6.3,6.7c-2.7,1.9-5.6,3.9-9,4.2c-3.3,0.2-6.4-1.4-9.4-2.9c-0.6-0.3-1.3-0.7-1.9-1c0,0.1,0.1,0.1,0.1,0.2c1.1,2.3,3.6,3.7,5.8,4.9c2.9,1.5,6.1,3.1,9.4,2.9c3.3-0.2,6.3-2.2,9-4.2c2.5-1.8,5.2-3.8,6.3-6.7C33.3,123.2,33.1,120.9,32.8,118.7z"/>
<path class="wst5" d="M118.5,167.2l-3.2-3c0.6,1.1,0.8,2.3,0.3,3.5c-1.8,5-6.9,5-9,5.4c-7.7,1.3-15.5,1.7-23.3,1.4c-2.8-0.1-7.6,0.1-11-1.1c1.3,5.7,10.7,4.9,15.1,5.1c7.8,0.3,15.6-0.1,23.3-1.4c2-0.3,7.1-0.4,9-5.4C120.3,170.2,119.8,168.4,118.5,167.2z"/>
<path class="wst5" d="M74.9,137.2c-1-1.3-2-2.6-3.4-3.4c-0.1,0-0.1-0.1-0.2-0.1c2,2.6,3.9,5.4,3.9,8.6c0,2.9-1.5,5.5-3,8c-3.6,6-7.2,12-10.8,18.1c-1.8,3.1-2.9,3.2-6.4,3.9c-3.1,0.7-6.3,1.2-9.5,1.4c-4.8,0.2-9.9-0.6-14-3.1c-0.6-0.3-1.1-0.7-1.6-1.1c1.6,2,3.5,3.8,5.7,5.1c4.2,2.5,9.2,3.3,14,3.1c3.2-0.1,6.4-0.7,9.5-1.4c3.5-0.7,4.5-0.9,6.4-3.9c3.6-6,7.2-12,10.8-18.1c1.5-2.5,3-5.1,3-8C79.2,142.9,77,139.9,74.9,137.2z"/>
<path class="wst5" d="M22.9,166.3c-0.4-3.2-0.9-6.4-1.3-9.5c-0.9-7-2.3-14.7-8-18.8c-0.2-0.1-0.3-0.2-0.5-0.3c2.8,4.2,3.8,9.9,4.5,15.1c0.4,3.2,0.9,6.4,1.3,9.5c0.2,1.3,0.3,2.7-0.3,3.9c-0.6,1.2-2,1.9-3.2,2.5c-3,1.4-6.1,2.9-9.1,4.3c-1.3,0.6-2.9,1.2-4.4,1.3c0.1,1.2,0.4,2.3,1.3,3.1c1.9,1.7,4.8,0.7,7.1-0.4c3-1.4,6.1-2.9,9.1-4.3c1.2-0.6,2.6-1.3,3.2-2.5C23.2,169,23.1,167.6,22.9,166.3z"/>
<path class="wst5" d="M15.8,45.7c-0.2-2.8-0.4-5.8-2.1-8c-0.8-1.1-1.9-1.9-3.1-2.4c0.8,2,1,4.2,1.2,6.4c0.7,9.5,1.3,19.2-1.6,28.3c-0.8,2.7-2.1,5.4-4.3,7c-1.3,1-2.7,1.4-4,1.3c0.3,1,0.7,1.9,1.4,2.6c1.9,2,4.4,1.8,6.7,0.1c2.3-1.7,3.5-4.4,4.3-7C17.1,64.9,16.5,55.1,15.8,45.7z"/>
<path class="wst5" d="M147.7,175.3c-0.5-0.8-1.3-1.2-2.2-1.6c-0.5-0.2-1.1-0.5-1.6-0.7c-0.1,0.3-0.2,0.5-0.4,0.7c-0.5,0.4-1.1,0.5-1.7,0.6c-4.7,0.5-9.5,0.7-14.3,0.6c-0.8,0-2.6,0-4.3-0.1c-0.2,0.2-0.5,0.5-0.6,0.7c-2.3,3.9,6.9,3.3,9,3.4c4.8,0.2,9.5,0,14.3-0.6c0.6-0.1,1.3-0.2,1.7-0.6C148.2,177.2,148.2,176,147.7,175.3z"/>
<path class="wst5" d="M33.8,175.5c-1.3-0.8-2.6-1.3-4-1.7c-0.2,0.1-0.4,0.2-0.7,0.2c-3,0.1-6.1,0.3-9.2,0.3c-3.7,1.2-7,3.1-1.9,3.7c4.9,0.6,10.1,0.3,15.1,0.1C34.5,178,35,176.2,33.8,175.5z"/>
<path class="wst5" d="M7.4,22.7C4.7,15,7.5,6.6,4,5.6C2.9,5.3,2.3,5.9,2,7.1c0.1,3.3,0,7.5,1.4,11.6c0.6,2.2,2.1,4.5,1.7,6.7c-0.3,1.9-1.5,3.8-3.3,4.5c0.1,1.4,0.2,2.5,0.4,3.2c0.3,1,1.7,1.3,2.7,1.1c2.3-0.3,3.9-2.5,4.2-4.8C9.5,27.2,7.9,24.9,7.4,22.7z"/>
</g>
</g>
</svg>
