
<svg version="1.1" id="Layer_1" xmlns="http://www.w3.org/2000/svg" xmlns:xlink="http://www.w3.org/1999/xlink" x="0px" y="0px"
   viewBox="0 0 180 180" style="enable-background:new 0 0 180 180;" xml:space="preserve">


<style type="text/css">
  .st0{fill:#fff;}
  .st1{fill:#040000;}
</style>
<title>alpha</title>
<g>
  <g id="Layer_1-2">
    <path class="st0" d="M111.1,102.4l0.3-0.2h-40c0.1,0.1,0.2,0.1,0.3,0.2c-23.2,9.8-35.7,35-29.5,59.3h98.3
      C146.9,137.4,134.3,112.1,111.1,102.4z"/>
    <path class="st1" d="M112.7,101.4l0.2-0.1l-6,0.4l-0.4,0.2l2.7,1.1c22.1,9.3,34.3,33.1,28.9,56.4h-96
      c-5.4-23.3,6.8-47.1,28.8-56.4l2.7-1.1l-0.3-0.2l-6.2-0.5l0.1,0.1c-22.4,10.8-34,35.9-27.9,60l0.3,1.1h100.7l0.3-1.1
      C146.8,137.3,135.1,112.2,112.7,101.4z"/>
    <path class="st0" d="M51.8,49.1c-0.8,2.5-1.3,5.2-1.3,7.9c0,13.5,10.7,25,25.8,29.5c-8.9,8-9.6,21.6-1.7,30.5s21.6,9.6,30.5,1.7
      s9.6-21.6,1.7-30.5c-0.5-0.6-1.1-1.2-1.7-1.7c15.1-4.6,25.8-16.1,25.8-29.5c0-2.7-0.4-5.3-1.3-7.8L51.8,49.1L51.8,49.1z"/>
    <path class="st1" d="M128.5,49.1c0.7,2.3,1.1,4.6,1.1,7c0,12.1-9.8,23.3-24.5,27.7l-3.3,1l2.6,2.3c8.1,7.2,8.8,19.7,1.6,27.8
      s-19.7,8.8-27.8,1.6c-8.2-7.2-8.9-19.7-1.6-27.8c0.5-0.6,1-1.1,1.6-1.6l2.5-2.3l-3.2-1C62.8,79.4,53,68.3,53,56.1
      c0-2.4,0.4-4.7,1.1-7h-3.9c-0.6,2.3-0.9,4.6-0.9,7c0,13,9.6,24.9,24.2,30.4c-8.4,9.9-7.3,24.7,2.6,33.1s24.7,7.3,33.1-2.6
      c7.5-8.8,7.5-21.8,0-30.6c14.6-5.4,24.2-17.3,24.2-30.3c0-2.4-0.3-4.7-0.9-7H128.5z"/>
    <rect x="50.2" y="46.1" class="st1" width="82.1" height="3"/>
  </g>
</g>

</svg>
