
<svg version="1.1" id="Layer_1" xmlns="http://www.w3.org/2000/svg" xmlns:xlink="http://www.w3.org/1999/xlink" x="0px" y="0px"
   viewBox="0 0 180 180" style="enable-background:new 0 0 180 180;" xml:space="preserve">
<defs>
<style>
.cls-1{fill:none;}.cls-2{fill:#fff;}</style>
</defs>
<title>
b</title>
<rect class="cls-1" width="180" height="180"/>
<path class="cls-2" d="M87.62,38.84l-.8,1.09-1.26,1.45C78.42,49.61,71.25,55.3,63.92,60.89a27.46,27.46,0,0,0-11.09,22,26,26,0,0,0,3.34,13.92c1.95,3.9,4.26,6.2,13.43,11.49l1.13.65-9.11,22.6A78.23,78.23,0,0,0,78,135.46l2.66.3L79,137.88a24.2,24.2,0,0,1-7.83,6.51c-1.46.84-3.43,1.38-7.87,1.24-5.45-.17-15.63-3.94-25.8-3.94a38,38,0,0,0-18.17,5l7.11,14.61c2.93-1.66,9.87-3.75,12.5-3.75,11,0,19.39,3.75,29.31,3.75a23.12,23.12,0,0,0,13.14-4.49c3.83-2.78,5.55-4,7.09-10.19L90,140.7l1.54,5.89c1.54,6.16,3.26,7.41,7.09,10.19a23.12,23.12,0,0,0,13.14,4.49c9.92,0,18.35-3.75,29.31-3.75,2.63,0,9.56,2.09,12.5,3.75l7.11-14.61a38,38,0,0,0-18.17-5c-10.18,0-20.35,3.77-25.8,3.94-4.44.14-6.41-.4-7.87-1.24a24.1,24.1,0,0,1-7.83-6.51l-1.64-2.12h-.11l2.6-.31a85.34,85.34,0,0,0,16.34-3.92L109.11,109l1.12-.65c8.81-5.13,11.17-7.47,13.43-11.47a28.65,28.65,0,0,0,3.26-14c-.24-6.37-2.35-15.42-11-22-8.17-6-15-11.63-21.66-19.53l-1.2-1.42-.76-1.08"/>
<path d="M25.77,163.37l-8.4-17.27,1.15-.72a39.28,39.28,0,0,1,19-5.19c6.23,0,12.49,1.38,17.51,2.49a53.86,53.86,0,0,0,8.34,1.45c4.37.13,6-.42,7.08-1A22.6,22.6,0,0,0,77.79,137h0a80.39,80.39,0,0,1-16.67-4l-1.48-.52,9.21-22.85c-9.5-5.48-11.93-7.94-14-12.11a27.47,27.47,0,0,1-3.5-14.64A29,29,0,0,1,63,59.69c7.26-5.53,14.36-11.17,21.41-19.29L85.65,39l.76-1,2.42,1.78L88,40.91,86.7,42.36C79.46,50.7,72.22,56.45,64.83,62.08a26,26,0,0,0-10.5,20.84,24.65,24.65,0,0,0,3.14,13.16c1.83,3.65,4,5.83,12.88,10.93l2.26,1.3-9,22.34A74.71,74.71,0,0,0,78.13,134l5.33.6-3.3,4.23a25.5,25.5,0,0,1-8.3,6.91c-2,1.13-4.48,1.55-8.63,1.42a55.51,55.51,0,0,1-8.88-1.52c-4.89-1.08-11-2.42-16.87-2.42a36.75,36.75,0,0,0-16.2,4.09l5.82,12c3.56-1.61,9.32-3.23,11.82-3.23a77,77,0,0,1,15.69,2,69,69,0,0,0,13.62,1.77,21.69,21.69,0,0,0,12.29-4.22c3.69-2.68,5.08-3.7,6.49-9.32l3-11.47,3,11.45c1.41,5.64,2.8,6.66,6.52,9.36a21.65,21.65,0,0,0,12.26,4.2A69,69,0,0,0,125.39,158a77,77,0,0,1,15.69-2c2.5,0,8.26,1.62,11.82,3.23l5.82-12a36.91,36.91,0,0,0-16.2-4.09c-5.9,0-12,1.34-16.87,2.42a55.51,55.51,0,0,1-8.88,1.52c-4.14.13-6.66-.29-8.67-1.44a25.48,25.48,0,0,1-8.26-6.89l-1.65-2.11,1-.82-.15-1.59,2.6-.31a82.22,82.22,0,0,0,14.53-3.35l-9-22.3,2.24-1.3c8.51-5,10.77-7.17,12.88-10.92a27.15,27.15,0,0,0,3.07-13.22c-.23-6-2.22-14.58-10.41-20.8C106.77,56,99.89,50.34,93.11,42.33l-1.28-1.52-.76-1.08L93.52,38l.73,1,1.16,1.38c6.58,7.78,13.31,13.33,21.39,19.28,9.15,6.94,11.36,16.41,11.62,23.14A30.21,30.21,0,0,1,125,97.55c-2.42,4.29-4.89,6.75-14,12.06l9.21,22.84-1.5.51a88.74,88.74,0,0,1-16.5,4l0,0a22.47,22.47,0,0,0,7.34,6.1c1.13.65,2.74,1.2,7.12,1.07a53.57,53.57,0,0,0,8.33-1.45c5-1.11,11.29-2.49,17.52-2.49a39.28,39.28,0,0,1,19,5.19l1.15.72-8.4,17.27-1.39-.79c-2.7-1.53-9.4-3.56-11.76-3.56A74.89,74.89,0,0,0,126,160.94a71.14,71.14,0,0,1-14.2,1.83,24.65,24.65,0,0,1-14-4.75c-3.9-2.83-6-4.38-7.7-11.06l-.08-.32-.09.33c-1.66,6.67-3.79,8.22-7.66,11a24.69,24.69,0,0,1-14,4.77A71.14,71.14,0,0,1,54,160.94,74.89,74.89,0,0,0,38.92,159c-2.36,0-9.06,2-11.76,3.56Z"/>
<path d="M90.73,137.6c-2.8,0-6.23-.09-10.2-.34l.19-3a122.75,122.75,0,0,0,18.39,0l.32,3C99.24,137.28,96.15,137.6,90.73,137.6Z"/>
<path d="M117.69,133a84.7,84.7,0,0,0-15.93-4.24l-2.59-.36a121.68,121.68,0,0,0-18.37-.42l-2.6.23a76.34,76.34,0,0,0-16.1,3.44l-.93-2.85a79.32,79.32,0,0,1,16.76-3.58l2.67-.24a124.9,124.9,0,0,1,19,.44l2.61.37a88.17,88.17,0,0,1,16.54,4.39Z"/>
<path d="M108.72,110.41a73.68,73.68,0,0,0-18.72-2,73.68,73.68,0,0,0-18.72,2l-.77-2.89A77.68,77.68,0,0,1,90,105.39a77.68,77.68,0,0,1,19.49,2.13Z"/>
<circle class="cls-2" cx="90" cy="29.14" r="10"/>
<path d="M90,40.64a11.5,11.5,0,1,1,11.5-11.5A11.51,11.51,0,0,1,90,40.64Zm0-20a8.5,8.5,0,1,0,8.5,8.5A8.51,8.51,0,0,0,90,20.64Z"/>
<path d="M86.77,89.14V82l-7.35-.09c-2,0-3-1-3-3s1-3,3-3h7.35V68.25c0-2,1.06-3.1,3.19-3.1a2.76,2.76,0,0,1,3.09,3.1v7.61h7.61c2,0,2.93,1,2.93,3s-1,3-2.93,3H93.05v7.26c0,2.12-1.06,3.18-3.09,3.18S86.77,91.26,86.77,89.14Z"/>
</svg>
