
<svg version="1.1" id="Layer_1" xmlns="http://www.w3.org/2000/svg" xmlns:xlink="http://www.w3.org/1999/xlink" x="0px" y="0px"
   viewBox="0 0 180 180" style="enable-background:new 0 0 180 180;" xml:space="preserve">

<style type="text/css">
  .st0{fill:#BF3B43;}
  .st1{fill:#040000;}
  .st2{fill:#BF3B43;stroke:#231815;stroke-width:2.5;stroke-miterlimit:10;}
</style>
<title>beta</title>
<g>
  <g id="Layer_1-2">
    <path class="st0" d="M111.1,102.4l0.3-0.2h-40c0.1,0.1,0.2,0.1,0.3,0.2c-23.2,9.8-35.7,35-29.5,59.3h98.3
      C146.8,137.4,134.3,112.2,111.1,102.4z"/>
    <path class="st1" d="M112.7,101.4l0.2-0.1l-6,0.4l-0.4,0.2l2.7,1.1c22.1,9.3,34.3,33.1,28.9,56.5h-96
      c-5.4-23.3,6.8-47.1,28.8-56.5l2.7-1.1l-0.3-0.2l-6.2-0.5l0.1,0.1c-22.4,10.8-34,35.9-27.9,60l0.3,1.1h100.7l0.3-1.1
      C146.8,137.3,135.1,112.2,112.7,101.4z"/>
    <rect x="75.7" y="46.7" class="st2" width="28.6" height="43.5"/>
    <rect x="59.6" y="90.3" class="st2" width="60" height="12.2"/>
  </g>
</g>


</svg>
