
<svg version="1.1" id="Layer_1" xmlns="http://www.w3.org/2000/svg" xmlns:xlink="http://www.w3.org/1999/xlink" x="0px" y="0px"
   viewBox="0 0 180 180" style="enable-background:new 0 0 180 180;" xml:space="preserve">

<style type="text/css">
  .st0{fill:none;}
  .st1{fill:#fff;}
</style>
<title>c</title>
<g id="camel_classic">
  <rect class="st0" width="180" height="180"/>
  <g id="camel_1_">
    <path class="st1" d="M23.4,51c-4-0.6-7-3-5.4-9c2.2-9,15.4-8.2,15.4-8.2c5-8.8,7.4-8.2,19.4-6.6c9.8,1.2,22.8,4.8,32.2,1.4
      c9.4-3.2,22.8,0,22.8,0s13-10.2,16.6-7.2c3.6,2.8,3.2,18.2-2.8,23.4c-2.2,1.8,8.2,31.6,25.4,55.2c0.6,0.8,13.4,18,14,18.6l-1,41.2
      h-55.8C92.8,141.2,82.2,115,80,81c-0.4-4,2.2-9-10.4-12.6S50,66.6,46,57.2c0,0-8,2.4-16.2,4.8C6.2,69,19,54.6,23.4,51z"/>
    <g>
      <g>
        <path d="M103,38c-1.2,5.4-7.2,9.4-12.8,8.4c-5.6-1-9.6-7-8.8-12.4L103,38z"/>
        <path d="M119.2,28.6c2,5.2,0.6,11.6-3.4,15.6c-1-3.4-3.8-6.2-7-7.6C111.4,33,115,30.4,119.2,28.6z"/>
        <path d="M34.8,32c0.8-1.2,11.4-1.8,11.6-1c0.4,1.4-0.6,2.8-1.6,3.6c-2.2,1.8-5,2.8-7.8,2.6s-5.6-1.4-7.6-3.2L34.8,32z"/>
      </g>
      <g>
        <g>
          <path d="M89.8,80c-0.2,0-0.6,0-0.8-0.2c0,0-5-2.8-13-5c-0.8-0.2-1.2-1-1-1.8s1-1.2,1.8-1c8.4,2.2,13.6,5.2,13.8,5.4
            c0.8,0.4,1,1.4,0.6,2C90.8,79.6,90.2,80,89.8,80z"/>
        </g>
        <g>
          <path d="M20.6,52.6c-0.4,0-0.6,0-1,0c-0.8,0-1.4-0.8-1.4-1.6s0.8-1.4,1.6-1.4c6.4,0.2,16.6-1.4,16.8-1.4
            c0.8-0.2,1.6,0.4,1.8,1.2S38,51,37.2,51.2C36.6,51.2,27.4,52.6,20.6,52.6z"/>
        </g>
      </g>
    </g>
    <path d="M122.6,20.8c0.8,0,1.4,0.2,1.8,0.6c3.6,2.8,3.2,18.2-2.8,23.4c-2.2,1.8,8.2,31.6,25.4,55.2c0.6,0.8,13.4,18,14,18.6
      l-1,41.2h-55.8C92.8,141.2,82.2,115,80,81c-0.4-4,2.2-9-10.4-12.6S50,66.6,46,57.2c0,0-8,2.4-16.2,4.8c-4.6,1.4-7.8,2-10,2
      c-9.2,0,0-10,3.6-12.8c-4-0.6-7-3-5.4-9c1.8-7.8,11.8-8.2,14.6-8.2c0.4,0,0.8,0,0.8,0c3.4-5.8,5.6-7.6,10.4-7.6
      c2.2,0,5.2,0.4,9.2,1C59.6,28,67.8,30,75.4,30c3.4,0,6.6-0.4,9.4-1.4c3.2-1,6.8-1.4,10-1.4c6.8,0,12.8,1.4,12.8,1.4
      S117.6,20.8,122.6,20.8L122.6,20.8z M122.6,17.8c-4.8,0-12.4,5.2-15.6,7.6c-2.2-0.4-6.8-1.2-12-1.2c-4.2,0-8,0.6-11,1.6
      c-2.4,0.8-5,1.2-8.4,1.2c-5,0-10.4-0.8-15.6-1.8c-2.4-0.4-4.6-0.8-6.8-1h-0.8c-3.6-0.4-6.4-0.8-8.8-0.8c-6,0-9,2.6-12,7.6
      c-4.2,0.2-14.4,1.4-16.6,10.6c-0.8,3.2-0.6,6.2,1,8.4c0.6,0.8,1.2,1.6,2,2.2c-2.8,3-6,7.6-4.8,11.2c0.6,1.6,2.2,3.6,6.6,3.6
      c2.6,0,6-0.6,10.6-2c5.4-1.6,10.8-3.2,13.8-4.2c3.6,6.2,9,7.2,15.6,8.6c2.6,0.4,5.4,1,8.8,2C77,73.8,77,76,77,79.2
      c0,0.8,0,1.6,0,2.4c2,29.4,10.2,56.4,24.8,80l0.8,1.4h1.6H160h3v-3l0.8-41v-1l-0.6-0.8c-0.6-0.6-13.4-18-14-18.6
      c-15.4-21-24.8-46.4-25.2-52c4.2-4.2,5.6-11.6,5.4-17c0-2.8-0.6-8-3.4-10.4C125.2,18.2,124,17.8,122.6,17.8L122.6,17.8z"/>
  </g>
</g>
</svg>
