
<svg version="1.1" id="Layer_1" xmlns="http://www.w3.org/2000/svg" xmlns:xlink="http://www.w3.org/1999/xlink" x="0px" y="0px"
   viewBox="0 0 180 180" style="enable-background:new 0 0 180 180;" xml:space="preserve">

<style type="text/css">
	.st0{fill:none;}
	.st1{fill:#fff;}
	.st2{fill:#1A1A1A;}
</style>
<title>Delta</title>
<g>
	<rect class="st0" width="180" height="180"/>
	<g>
		<g id="wings">
			<g>
				<g>
					<path class="st1" d="M70,81.1c0-29.6-30-38.6-25-56.6C9,25.5,9,82.8,9,151.1c0-14.4,7.1-19.8,16-17.1
						c0.9-11.2,6.1-16.6,14.6-13.5c4-19.7,12.8-24.9,30.5-24.9L70,81.1L70,81.1z"/>
					<path class="st2" d="M8.9,152.6c-0.8,0-1.5-0.7-1.5-1.5c0-68.2,0-127,37.5-128.1c0.5,0,0.9,0.2,1.2,0.6s0.4,0.9,0.3,1.3
						c-2.2,7.8,2.9,13.7,9.3,21.3c7.1,8.4,15.9,18.8,15.9,34.9v14.5c0,0.8-0.7,1.5-1.5,1.5c-18.4,0-25.4,5.8-29.1,23.7
						c-0.1,0.4-0.4,0.8-0.7,1c-0.4,0.2-0.8,0.3-1.2,0.1c-3.1-1.1-5.6-1-7.6,0.3c-2.8,1.8-4.5,5.9-5,11.9c0,0.5-0.3,0.9-0.7,1.1
						c-0.4,0.3-0.9,0.3-1.3,0.2c-3.5-1.1-6.6-0.7-8.9,1c-3.3,2.5-5.1,7.5-5.1,14.7C10.4,151.9,9.7,152.6,8.9,152.6z M43.1,26.1
						c-14.6,1.3-23.5,13.1-28.2,36.7c-3.9,19.8-4.4,46.3-4.5,74.9c0.9-1.5,2-2.7,3.3-3.7c2.7-2,6.1-2.6,9.8-1.9
						c0.8-6,2.9-10.3,6.1-12.5c2.4-1.5,5.3-1.9,8.6-1.1c4.5-19.8,14.5-24.2,30.2-24.4v-13c0-15.1-8-24.6-15.1-33
						C47.2,40.8,41.8,34.4,43.1,26.1z"/>
				</g>
				<g>
					<path class="st2" d="M24.9,135.5c-0.8,0-1.5-0.7-1.5-1.5c0-4.7-0.1-9.9-0.2-15.5c-0.7-34.9-1.6-82.6,21.1-95.3
						c0.7-0.4,1.6-0.1,2,0.6s0.1,1.6-0.6,2c-21.1,11.8-20.2,58.5-19.5,92.6c0.1,5.6,0.2,10.8,0.2,15.5
						C26.4,134.8,25.7,135.5,24.9,135.5z"/>
				</g>
				<g>
					<path class="st2" d="M39.5,122c-0.8,0-1.5-0.6-1.5-1.4c-2.5-52.1-0.6-84.7,5.7-96.7c0.4-0.7,1.3-1,2-0.6s1,1.3,0.6,2
						c-4.1,8-8.4,31-5.3,95.2C41,121.2,40.4,121.9,39.5,122L39.5,122z"/>
				</g>
			</g>
			<g>
				<g>
					<path class="st1" d="M110,81.1c0-29.6,30.1-38.6,25.1-56.6c36,1,36,58.3,36,126.6c0-14.4-7.1-19.8-16-17.1
						c-0.9-11.2-6.1-16.6-14.6-13.5c-4-19.7-12.8-24.9-30.5-24.9V81.1z"/>
					<path class="st2" d="M171.1,152.6c-0.8,0-1.5-0.7-1.5-1.5c0-7.1-1.8-12.2-5.1-14.7c-2.3-1.7-5.4-2.1-8.9-1
						c-0.4,0.1-0.9,0.1-1.3-0.2c-0.4-0.3-0.6-0.7-0.7-1.1c-0.5-6-2.2-10.1-5-11.9c-2-1.3-4.5-1.4-7.6-0.3c-0.4,0.1-0.9,0.1-1.2-0.1
						c-0.4-0.2-0.6-0.6-0.7-1c-3.6-17.9-10.7-23.7-29.1-23.7c-0.8,0-1.5-0.7-1.5-1.5V81.1c0-16.2,8.8-26.6,15.9-34.9
						c6.4-7.6,11.4-13.5,9.3-21.3c-0.1-0.5,0-1,0.3-1.3c0.3-0.4,0.7-0.6,1.2-0.6c37.5,1,37.5,59.9,37.5,128.1
						C172.6,151.9,171.9,152.6,171.1,152.6z M159.4,131.8c2.6,0,4.9,0.7,6.9,2.2c1.3,1,2.4,2.2,3.3,3.7c-0.1-28.6-0.6-55.1-4.5-74.9
						c-4.6-23.7-13.6-35.4-28.2-36.7c1.3,8.3-4.1,14.7-10.3,22c-7.1,8.4-15.1,18-15.1,33v13c15.6,0.3,25.7,4.7,30.2,24.4
						c3.3-0.8,6.3-0.5,8.6,1.1c3.3,2.1,5.4,6.4,6.1,12.5C157.5,131.9,158.4,131.8,159.4,131.8z"/>
				</g>
				<g>
					<path class="st2" d="M155.1,135.5c-0.8,0-1.5-0.7-1.5-1.5c0-4.7,0.1-10,0.2-15.5c0.7-34.1,1.6-80.8-19.5-92.6
						c-0.7-0.4-1-1.3-0.6-2s1.3-1,2-0.6c22.7,12.7,21.7,60.5,21.1,95.3c-0.1,5.5-0.2,10.8-0.2,15.5
						C156.6,134.8,155.9,135.5,155.1,135.5z"/>
				</g>
				<g>
					<path class="st2" d="M140.5,122L140.5,122c-0.9,0-1.5-0.7-1.5-1.6c3.1-64.2-1.2-87.2-5.3-95.2c-0.4-0.7-0.1-1.6,0.6-2
						c0.7-0.4,1.6-0.1,2,0.6c6.3,12.1,8.2,44.6,5.7,96.7C142,121.4,141.3,122,140.5,122z"/>
				</g>
			</g>
		</g>
		<g>
			<path class="st1" d="M87.8,38.8L87,39.9l-1.3,1.5c-7.1,8.2-14.3,13.9-21.6,19.5c-7,5.2-11.1,13.3-11.1,22
				c-0.2,4.9,0.9,9.7,3.3,13.9c2,3.9,4.3,6.2,13.4,11.5l1.1,0.7l-9.1,22.6c5.3,1.9,10.8,3.2,16.4,3.9l2.7,0.3l-1.7,2.1
				c-2.1,2.7-4.8,4.9-7.8,6.5c-1.5,0.8-3.4,1.4-7.9,1.2c-5.5-0.2-15.6-3.9-25.8-3.9c-6.4,0.1-12.6,1.8-18.2,5l7.1,14.6
				c2.9-1.7,9.9-3.8,12.5-3.8c11,0,19.4,3.8,29.3,3.8c4.7-0.1,9.3-1.7,13.1-4.5c3.8-2.8,5.6-4,7.1-10.2l1.5-5.9l1.5,5.9
				c1.5,6.2,3.3,7.4,7.1,10.2c3.8,2.8,8.4,4.4,13.1,4.5c9.9,0,18.4-3.8,29.3-3.8c2.6,0,9.6,2.1,12.5,3.8l7.1-14.6
				c-5.5-3.2-11.8-4.9-18.2-5c-10.2,0-20.3,3.8-25.8,3.9c-4.4,0.1-6.4-0.4-7.9-1.2c-3-1.6-5.7-3.8-7.8-6.5l-1.6-2.1h-0.1l2.6-0.3
				c5.6-0.8,11-2.1,16.3-3.9l-9.1-22.5l1.1-0.7c8.8-5.1,11.2-7.5,13.4-11.5c2.3-4.3,3.4-9.1,3.3-14c-0.2-6.4-2.3-15.4-11-22
				c-8.2-6-15-11.6-21.7-19.5L92.9,40l-0.8-1.1L87.8,38.8z"/>
			<path class="st2" d="M26,163.4l-8.4-17.3l1.1-0.7c5.8-3.3,12.3-5.1,19-5.2c6.2,0,12.5,1.4,17.5,2.5c2.7,0.7,5.5,1.2,8.3,1.4
				c4.4,0.1,6-0.4,7.1-1c2.9-1.5,5.4-3.6,7.3-6.1l0,0c-5.7-0.7-11.3-2.1-16.7-4l-1.5-0.5l9.2-22.8c-9.5-5.5-11.9-7.9-14-12.1
				c-2.5-4.5-3.7-9.5-3.5-14.6c0-9.1,4.3-17.7,11.6-23.2c7.3-5.5,14.4-11.2,21.4-19.3l1.2-1.4l0.8-1l2.4,1.8l-0.6,1l-1.3,1.5
				C79.8,50.7,72.4,56.5,65,62.1C58.4,67,54.5,74.7,54.5,82.9c-0.2,4.6,0.9,9.2,3.1,13.2c1.8,3.7,4,5.8,12.9,10.9l2.3,1.3l-9,22.3
				c4.7,1.6,9.6,2.7,14.5,3.3l5.3,0.6l-3.3,4.2c-2.2,2.9-5.1,5.2-8.3,6.9c-2,1.1-4.5,1.6-8.6,1.4c-3-0.3-6-0.8-8.9-1.5
				c-4.9-1.1-11-2.4-16.9-2.4c-5.6,0.1-11.2,1.5-16.2,4.1l5.8,12c3.6-1.6,9.3-3.2,11.8-3.2c5.3,0.1,10.5,0.8,15.7,2
				c4.5,1,9,1.6,13.6,1.8c4.4-0.1,8.7-1.6,12.3-4.2c3.7-2.7,5.1-3.7,6.5-9.3l3-11.5l3,11.4c1.4,5.6,2.8,6.7,6.5,9.4
				c3.6,2.6,7.8,4.1,12.3,4.2c4.6-0.2,9.1-0.8,13.6-1.8c5.1-1.2,10.4-1.9,15.7-2c2.5,0,8.3,1.6,11.8,3.2l5.8-12
				c-5-2.6-10.6-4-16.2-4.1c-5.9,0-12,1.3-16.9,2.4c-2.9,0.7-5.9,1.3-8.9,1.5c-4.1,0.1-6.7-0.3-8.7-1.4c-3.2-1.7-6-4-8.3-6.9
				l-1.7-2.1l1-0.8l-0.2-1.6l2.6-0.3c4.9-0.7,9.8-1.8,14.5-3.4l-9-22.3l2.2-1.3c8.5-5,10.8-7.2,12.9-10.9c2.1-4.1,3.2-8.6,3.1-13.2
				c-0.2-6-2.2-14.6-10.4-20.8c-8.2-6-15.1-11.7-21.8-19.7l-1.3-1.5l-0.8-1.1l2.4-1.7l0.7,1l1.2,1.4c6.6,7.8,13.3,13.3,21.4,19.3
				c9.2,6.9,11.4,16.4,11.6,23.1c0.1,5.1-1,10.2-3.4,14.8c-2.4,4.3-4.9,6.8-14,12.1l9.2,22.8l-1.5,0.5c-5.4,1.9-10.9,3.2-16.5,4l0,0
				c2,2.5,4.5,4.6,7.3,6.1c1.1,0.6,2.7,1.2,7.1,1.1c2.8-0.3,5.6-0.7,8.3-1.4c5-1.1,11.3-2.5,17.5-2.5c6.7,0.1,13.2,1.9,19,5.2
				l1.1,0.7l-8.4,17.3l-1.4-0.8c-2.7-1.5-9.4-3.6-11.8-3.6c-5.1,0.1-10.2,0.8-15.1,1.9c-4.7,1.1-9.4,1.7-14.2,1.8
				c-5-0.1-9.9-1.8-14-4.8c-3.9-2.8-6-4.4-7.7-11.1l-0.1-0.3l-0.1,0.3c-1.7,6.7-3.8,8.2-7.7,11c-4.1,3-9,4.6-14,4.8
				c-4.8-0.1-9.6-0.7-14.3-1.8c-4.9-1.2-10-1.8-15.1-1.9c-2.4,0-9.1,2-11.8,3.6L26,163.4z"/>
			<path class="st2" d="M90.9,137.6c-2.8,0-6.2-0.1-10.2-0.3l0.2-3c6.1,0.5,12.3,0.5,18.4,0l0.3,3C99.4,137.3,96.4,137.6,90.9,137.6
				z"/>
			<path class="st2" d="M117.9,133c-5.2-1.9-10.5-3.3-15.9-4.2l-2.6-0.4c-6.1-0.6-12.2-0.7-18.4-0.4l-2.6,0.2
				c-5.5,0.6-10.9,1.7-16.1,3.4l-0.9-2.9c5.4-1.8,11.1-3,16.8-3.6l2.7-0.2c6.3-0.3,12.7-0.2,19,0.4l2.6,0.4
				c5.6,0.9,11.2,2.4,16.5,4.4L117.9,133z"/>
			<path class="st2" d="M108.9,110.4c-6.1-1.5-12.4-2.1-18.7-2c-6.3-0.1-12.6,0.5-18.7,2l-0.8-2.9c6.4-1.5,12.9-2.2,19.5-2.1
				c6.6-0.1,13.1,0.6,19.5,2.1L108.9,110.4z"/>
			<circle class="st1" cx="90.3" cy="29.1" r="10"/>
			<path class="st2" d="M90.3,40.6c-6.4,0-11.5-5.1-11.5-11.5s5.1-11.5,11.5-11.5s11.5,5.1,11.5,11.5S96.6,40.6,90.3,40.6z
				 M90.3,20.6c-4.7,0-8.5,3.8-8.5,8.5s3.8,8.5,8.5,8.5s8.5-3.8,8.5-8.5l0,0C98.8,24.4,94.9,20.6,90.3,20.6z"/>
			<path class="st2" d="M87.1,89.1V82l-7.3-0.1c-2,0-3-1-3-3s1-3,3-3h7.3v-7.7c0-2,1.1-3.1,3.2-3.1c1.5-0.2,2.9,0.9,3.1,2.4
				c0,0.2,0,0.5,0,0.7v7.6h7.6c2,0,2.9,1,2.9,3s-1,3-2.9,3h-7.6v7.3c0,2.1-1.1,3.2-3.1,3.2S87.1,91.3,87.1,89.1z"/>
		</g>
		<g id="claws">
			<g>
				<g>
					<path class="st1" d="M37.2,160.5c0,5-5,9-5,9s-5-4-5-9s2.2-9,5-9C35,151.5,37.2,155.5,37.2,160.5z"/>
					<path class="st2" d="M32.2,171.4l-0.9-0.8c-0.2-0.2-5.6-4.5-5.6-10.2c0-5.9,2.9-10.5,6.5-10.5s6.5,4.6,6.5,10.5
						c0,5.6-5.3,10-5.6,10.2L32.2,171.4z M32.2,153c-1.7,0-3.5,3.2-3.5,7.5c0,3,2.2,5.6,3.5,7c1.3-1.3,3.5-4,3.5-7
						C35.7,156.2,33.9,153,32.2,153z"/>
				</g>
				<g>
					<path class="st1" d="M47.2,160.5c0,5-5,9-5,9s-5-4-5-9s2.2-9,5-9C45,151.5,47.2,155.5,47.2,160.5z"/>
					<path class="st2" d="M42.2,171.4l-0.9-0.8c-0.2-0.2-5.6-4.5-5.6-10.2c0-5.9,2.9-10.5,6.5-10.5s6.5,4.6,6.5,10.5
						c0,5.6-5.3,10-5.6,10.2L42.2,171.4z M42.2,153c-1.7,0-3.5,3.2-3.5,7.5c0,3,2.2,5.6,3.5,7c1.3-1.3,3.5-4,3.5-7
						C45.7,156.2,43.9,153,42.2,153z"/>
				</g>
				<g>
					<path class="st1" d="M57.2,160.5c0,5-5,9-5,9s-5-4-5-9s2.2-9,5-9S57.2,155.5,57.2,160.5z"/>
					<path class="st2" d="M52.2,171.4l-0.9-0.8c-0.2-0.2-5.6-4.5-5.6-10.2c0-5.9,2.9-10.5,6.5-10.5s6.5,4.6,6.5,10.5
						c0,5.6-5.3,10-5.6,10.2L52.2,171.4z M52.2,153c-1.7,0-3.5,3.2-3.5,7.5c0,3,2.2,5.6,3.5,7c1.3-1.3,3.5-4,3.5-7
						C55.7,156.2,53.9,153,52.2,153z"/>
				</g>
			</g>
			<g>
				<g>
					<path class="st1" d="M132.8,160.5c0,5-5,9-5,9s-5-4-5-9s2.2-9,5-9C130.5,151.5,132.8,155.5,132.8,160.5z"/>
					<path class="st2" d="M127.8,171.4l-0.9-0.8c-0.2-0.2-5.6-4.5-5.6-10.2c0-5.9,2.9-10.5,6.5-10.5c3.6,0,6.5,4.6,6.5,10.5
						c0,5.6-5.3,10-5.6,10.2L127.8,171.4z M127.8,153c-1.7,0-3.5,3.2-3.5,7.5c0,3,2.2,5.6,3.5,7c1.3-1.3,3.5-4,3.5-7
						C131.3,156.2,129.4,153,127.8,153z"/>
				</g>
				<g>
					<path class="st1" d="M142.8,160.5c0,5-5,9-5,9s-5-4-5-9s2.2-9,5-9C140.5,151.5,142.8,155.5,142.8,160.5z"/>
					<path class="st2" d="M137.8,171.4l-0.9-0.8c-0.2-0.2-5.6-4.5-5.6-10.2c0-5.9,2.9-10.5,6.5-10.5s6.5,4.6,6.5,10.5
						c0,5.6-5.3,10-5.6,10.2L137.8,171.4z M137.8,153c-1.7,0-3.5,3.2-3.5,7.5c0,3,2.2,5.6,3.5,7c1.3-1.3,3.5-4,3.5-7
						C141.3,156.2,139.4,153,137.8,153z"/>
				</g>
				<g>
					<path class="st1" d="M152.8,160.5c0,5-5,9-5,9s-5-4-5-9s2.2-9,5-9C150.5,151.5,152.8,155.5,152.8,160.5z"/>
					<path class="st2" d="M147.8,171.4l-0.9-0.8c-0.2-0.2-5.6-4.5-5.6-10.2c0-5.9,2.9-10.5,6.5-10.5s6.5,4.6,6.5,10.5
						c0,5.6-5.3,10-5.6,10.2L147.8,171.4z M147.8,153c-1.7,0-3.5,3.2-3.5,7.5c0,3,2.2,5.6,3.5,7c1.3-1.3,3.5-4,3.5-7
						C151.3,156.2,149.4,153,147.8,153z"/>
				</g>
			</g>
		</g>
	</g>
</g>

</svg>
