
<svg version="1.1" id="Layer_1" xmlns="http://www.w3.org/2000/svg" xmlns:xlink="http://www.w3.org/1999/xlink" x="0px" y="0px"
   viewBox="0 0 180 180" style="enable-background:new 0 0 180 180;" xml:space="preserve">

<style type="text/css">
  .st0{fill:#fff;}
  .st1{fill:#040000;}
  .st2{fill:#fff;stroke:#231815;stroke-width:2;stroke-miterlimit:9.9999;}
  .st3{fill:#fff;stroke:#231815;stroke-width:2.4983;stroke-miterlimit:9.9933;}
  .st4{fill:#fff;stroke:#231815;stroke-width:2.5;stroke-miterlimit:10;}
</style>
<title>delta</title>
<g>
  <g id="Layer_1-2">
    <path class="st0" d="M111.1,102.3l0.3-0.2h-40l0.3,0.2c-23.2,9.8-35.7,35-29.5,59.3h98.3C146.9,137.3,134.3,112.1,111.1,102.3z"/>
    <path class="st1" d="M112.7,101.3l0.2-0.1l-6,0.4l-0.5,0.3l2.7,1.1c22.1,9.3,34.3,33.1,28.9,56.5H42c-5.4-23.3,6.8-47.2,28.9-56.5
      l2.7-1.1l-0.3-0.2l-6.2-0.5l0.2,0.1c-22.4,10.8-34,35.9-27.9,60l0.3,1.1h100.7l0.3-1.1C146.8,137.2,135.1,112.1,112.7,101.3z"/>

      <rect x="92.6" y="62.4" transform="matrix(0.3221 -0.9467 0.9467 0.3221 11.7144 155.4397)" class="st2" width="43.5" height="14.3"/>

      <rect x="56.9" y="48" transform="matrix(0.9507 -0.3102 0.3102 0.9507 -18.4771 23.3143)" class="st3" width="14.3" height="43.5"/>
    <rect x="75.1" y="45.1" class="st4" width="28.6" height="43.5"/>
    <rect x="59" y="88.7" class="st4" width="60" height="12.2"/>
  </g>
</g>

</svg>
