
<svg version="1.1" id="Layer_1" xmlns="http://www.w3.org/2000/svg" xmlns:xlink="http://www.w3.org/1999/xlink" x="0px" y="0px"
   viewBox="0 0 180 180" style="enable-background:new 0 0 180 180;" xml:space="preserve">

<style type="text/css">
  .st0{fill:#BF3B43;}
  .st1{fill:#040000;}
  .st2{fill:none;stroke:#040000;stroke-width:2.5;stroke-miterlimit:10;}
</style>
<title>e</title>
<g id="Layer_2">
  <g id="Layer_1-2">
    <polygon class="st0" points="31.1,169.1 57.4,169.1 57.4,155.6 80.4,155.6 80.4,169.1 106.7,169.1 106.7,155.6 129.8,155.6
      129.8,169.1 156,169.1 156,134.9 131.8,118.3 55.3,118.3 31.1,134.9     "/>
    <path class="st0" d="M60,21.3c-4.4-3.8-9.4-6.8-14.8-8.8c-0.2,5.9,0.7,11.7,2.8,17.3l0.2,0.7l-0.5,0.5c-0.6,0.6-1.2,1.2-1.7,1.8
      L45.8,33c-0.3,0.3-0.5,0.6-0.8,0.9c-0.7,0.8-1.3,1.6-1.8,2.4c-0.2,0.3-0.6,1-1.2,1.8c-1.2,1.9-1.8,4.8-1.8,8.4v0.1
      c-0.3,3.7-3.7,9.5-8.2,16.6c-3.8,6-6.7,9.7-6.7,12.9c0,2.3,0.3,4.5,1,6.7c1.2,3.9,5,7.3,9.4,9L39,90c0,0,3.3,2.7,6.5,2.7
      c3.2,0,7.6-6,8.4-7.6c0,0,0.7-4.3,3.4-7c3-3.1,7.2-3.5,12.9-5.6c5.3-1.4,9-6.8,9-6.8c0.2,3.8-0.3,7.5-1.4,11.1
      c-1.9,5.2-6.5,9.8-11,14.3c-0.9,0.9-1.7,1.7-2.6,2.6c-3.1,3.2-4.3,5-4.7,5.7c-3.1,5.6-4,9.2-4.3,10.8c-0.4,2.3-0.5,4.6-0.3,6.9
      h76.7v-12.8c0-11-0.4-25.2-3.9-37.5c-2.8-9.7-7.9-19.6-13.7-26.4c-8.1-9.7-21.9-15.6-32.3-16.1c-2.5-0.2-5-0.2-7.5,0
      c-0.8-2.1-2.3-7-8-10.9C63.6,15.5,61.4,18.2,60,21.3z"/>
    <path class="st1" d="M132.8,118.2H54l-0.1-1c-0.2-2.4-0.1-4.9,0.3-7.3c0.3-1.7,1.2-5.4,4.4-11.2c0.5-1,1.8-2.9,4.8-6
      c0.8-0.9,1.7-1.7,2.6-2.6c4.4-4.4,8.9-8.9,10.8-13.9c0.8-2.5,1.2-5.1,1.3-7.7c-2.1,2.2-4.7,3.9-7.5,4.8c-1.6,0.6-3.1,1-4.4,1.4
      c-3.4,1-6.1,1.9-8,3.9c-2.3,2.4-3.1,6.3-3.1,6.4v0.2L55,85.6c-0.6,1.1-5.3,8.2-9.4,8.2c-2.7,0-5.4-1.7-6.6-2.5l-3.4,1.8l-0.5-0.2
      c-5-1.9-8.9-5.7-10.1-9.7c-0.7-2.3-1.1-4.6-1-7c0-3,2-6,4.7-10.2c0.7-1,1.4-2.1,2.2-3.3c3.9-6.1,7.7-12.5,8-16.1v-0.1
      c0-3.7,0.7-6.8,2-8.9c0.6-0.9,1-1.5,1.2-1.8c0.6-0.9,1.3-1.8,2-2.6c0.3-0.3,0.5-0.6,0.8-0.9l0.2-0.2c0.5-0.6,1.1-1.3,1.7-1.8l0,0
      c-2.1-5.7-3-11.7-2.8-17.7l0.1-1.6l1.5,0.6c5.1,1.9,9.8,4.7,14,8.1c1.5-2.8,3.5-5.2,6-7.1l0.6-0.5l0.7,0.5
      c3.8,2.6,6.7,6.3,8.2,10.7c2.2-0.1,4.5-0.1,6.7,0.1c9.7,0.5,24.1,5.9,33.1,16.5c5.9,7,11.1,17,13.9,26.8
      c3.4,12.4,3.9,26.7,3.9,37.8L132.8,118.2z M56,116h74.5v-11.7c0-10.9-0.4-25-3.8-37.2c-2.7-9.6-7.8-19.3-13.5-26
      C104.7,31,90.9,25.9,81.7,25.4c-2.4-0.2-4.9-0.2-7.3,0l-0.8,0.1l-0.5-1.3c-1.2-3.8-3.6-7.1-6.8-9.4c-2.3,1.9-4.1,4.3-5.3,7
      l-0.6,1.4l-1.1-1c-3.9-3.4-8.3-6.1-13-8.1c0,5.2,0.9,10.4,2.7,15.2l0.5,1.3l-1,1c-0.6,0.5-1.1,1.1-1.6,1.7l-0.2,0.3
      c-0.3,0.4-0.6,0.7-0.9,1c-0.6,0.7-1.1,1.4-1.6,2.2c-0.2,0.3-0.6,1-1.2,1.9c-1.1,1.6-1.6,4.4-1.6,7.7v0.2
      c-0.3,3.8-3.3,9.1-8.4,17.1c-0.7,1.2-1.5,2.3-2.2,3.4c-2.5,3.9-4.4,6.7-4.4,8.9c0,2.1,0.3,4.3,0.9,6.3c1,3.3,4.2,6.4,8.3,8.1
      l3.7-2l0.6,0.5c0,0,3,2.5,5.8,2.5c2.4,0,6.3-5,7.4-6.9c0.2-0.9,1.1-4.8,3.6-7.4c2.4-2.4,5.4-3.4,9-4.5c1.4-0.4,2.8-0.8,4.3-1.4
      h0.1c4.9-1.3,8.3-6.3,8.4-6.3l1.8-2.5l0.2,3.1c0.2,3.9-0.3,7.8-1.5,11.6c-2,5.4-6.7,10.1-11.3,14.7c-0.9,0.9-1.7,1.7-2.6,2.6
      c-3.1,3.2-4.2,4.9-4.5,5.5c-3.1,5.5-3.9,8.9-4.2,10.4C56,112.2,55.9,114.1,56,116L56,116z"/>
    <path class="st1" d="M39,91c-0.6,0-1.1-0.5-1.1-1.1c0-0.4,0.2-0.7,0.5-1c2.7-1.7,5-3.8,7-6.3c0.4-0.5,1.1-0.5,1.6-0.1
      c0.5,0.4,0.5,1.1,0.1,1.6c-2.2,2.6-4.7,4.9-7.6,6.8C39.4,91,39.2,91.1,39,91z"/>
    <path class="st1" d="M79.2,66.8c-0.6,0-1.1-0.5-1.1-1.1c0-0.2,0-0.4,0.1-0.5c1.3-2.7,2.1-5.6,2.3-8.5c0-0.6,0.5-1.1,1.1-1
      c0,0,0,0,0,0h0c0.6,0,1.1,0.6,1,1.2l0,0c-0.2,3.3-1.1,6.5-2.6,9.5C80,66.6,79.6,66.8,79.2,66.8z"/>
    <path class="st1" d="M33.5,78.9c-0.8,0-1.5-0.7-1.5-1.5c0-0.3,0.1-0.5,0.2-0.7c1-1.6,3.2-4.1,5.2-3.5c0.6,0.2,1.7,0.9,1.6,3
      c0,0.6-0.4,1.1-1,1.3l-4,1.3C33.8,78.9,33.6,78.9,33.5,78.9z"/>
    <circle class="st1" cx="54" cy="45.1" r="3.5"/>
    <path class="st1" d="M58.3,28.9L58.3,28.9c-0.6,0-1.1-0.5-1.1-1.1c0.2-2.4,0.8-4.7,1.9-6.9c0.2-0.6,0.8-0.9,1.4-0.7
      c0.6,0.2,0.9,0.8,0.7,1.4c0,0,0,0.1,0,0.1c0,0,0,0.1-0.1,0.1c-0.9,1.9-1.5,3.9-1.6,6C59.4,28.4,58.9,28.9,58.3,28.9
      C58.3,28.9,58.3,28.9,58.3,28.9z"/>
    <path class="st1" d="M75.9,33c-0.5,0-1-0.4-1.1-0.9c-0.5-2.7-1.2-6.8-1.5-7.4c-0.2-0.6,0.1-1.2,0.7-1.4c0.6-0.2,1.2,0.1,1.4,0.6
      c0.4,1,1.4,6.7,1.6,7.8c0.1,0.6-0.3,1.2-0.9,1.3c0,0,0,0,0,0l0,0C76,33,75.9,33,75.9,33z"/>
    <path class="st1" d="M49.7,49.3c-0.2,0-0.4,0-0.6-0.1c-0.7-0.3-1.1-1.2-0.7-2c1.9-4.1,5.1-7.3,9.2-9.1c0.8-0.3,1.6,0.1,1.9,0.8
      c0.3,0.7,0,1.5-0.7,1.9l-0.1,0.1c-3.3,1.6-6,4.2-7.6,7.6C50.8,48.9,50.3,49.3,49.7,49.3z"/>
    <line class="st2" x1="31.1" y1="135.5" x2="156" y2="135.4"/>
    <line class="st2" x1="55.3" y1="118" x2="132.8" y2="118.3"/>
    <polyline class="st2" points="55.3,118.3 31.1,134.9 31.1,169.1 57.4,169.1 57.4,155.6 80.4,155.6 80.4,169.1 106.7,169.1
      106.7,155.6 129.8,155.6 129.8,169.1 156,169.1 156,134.9 131.8,118.3     "/>
  </g>
</g>
</svg>
