
<svg version="1.1" id="Layer_1" xmlns="http://www.w3.org/2000/svg" xmlns:xlink="http://www.w3.org/1999/xlink" x="0px" y="0px"
   viewBox="0 0 180 180" style="enable-background:new 0 0 180 180;" xml:space="preserve">

<style type="text/css">
  .st0{fill:none;}
  .st1{fill:#BF3B43;}
</style>
<title>f</title>
<g id="ferz_classic_1_">
  <rect class="st0" width="180" height="180"/>
  <g id="ferz_4_">
    <path class="st1" d="M134.5,161.3l0.9-2.3l28.4-72.4l-21.5-8.7l-1.1-0.5l-0.2-1.2c-1.9-11.3-8.1-21.3-17.4-27.9
      c-15.9-11.4-22.7-16.5-32.7-28.6l-0.2-0.3l-0.2,0.3c-10,12.1-16.9,17.2-32.7,28.6C48.5,54.9,42.2,65,40.4,76.2l-0.2,1.2l-1.1,0.5
      l-21.5,8.7L46,159l0.9,2.3H134.5z"/>
    <path d="M164.3,85.3l-20.8-8.5l0,0l-0.6-0.3l-0.4-0.1l-0.1-0.4c-1.9-11.7-8.3-22-18-28.9c-15.8-11.3-22.5-16.4-32.5-28.4l-0.2-0.3
      c-0.3-0.3-0.7-0.5-1.1-0.5c-0.5,0-0.9,0.2-1.2,0.5l-0.3,0.3c-9.9,12-16.7,17-32.4,28.4C47,54,40.6,64.3,38.7,76l-0.1,0.4
      l-21.8,8.9c-0.8,0.3-1.1,1.2-0.8,1.9l28.4,72.4l0,0l0.9,2.3c0.2,0.6,0.8,0.9,1.4,0.9h87.9c0.6,0,1.2-0.4,1.4-0.9l29.3-74.7
      C165.5,86.4,165.1,85.6,164.3,85.3z M41.4,77.7l0.2-1.3c1.8-10.9,7.8-20.5,16.8-26.9c15.5-11.1,22.5-16.3,32.1-27.8
      c9.7,11.5,16.6,16.7,32.1,27.8c9,6.4,15,16,16.8,27l0.2,1.2c0.1,0.5,0.4,0.9,0.9,1.1c-8.6,11.4-18,22.3-27.9,32.5
      c-5.4,5.6-13,13-22,20.4l-1.4-1.1c-7-5.9-13.9-12.4-20.7-19.4C58.6,101,49.2,90.1,40.6,78.7C41,78.6,41.4,78.2,41.4,77.7z
       M87.6,134.2c-0.4,0.3-0.8,0.6-1.2,0.9s-0.8,0.6-1.2,0.9s-0.8,0.6-1.2,0.9c-0.5,0.3-0.9,0.7-1.4,1c-0.3,0.2-0.6,0.5-1,0.7
      c-0.8,0.6-1.6,1.2-2.4,1.8l-0.7,0.5c-0.9,0.7-1.8,1.3-2.8,1.9c-0.6,0.4-1.3,0.9-1.9,1.3c-0.7,0.5-1.5,1-2.2,1.5
      c-1,0.7-2,1.3-3,1.9l-0.5,0.3c-0.4,0.2-0.7,0.5-1.1,0.7c-1.3,0.8-2.6,1.6-3.9,2.3c-0.5,0.3-0.9,0.5-1.4,0.8l-0.6,0.3
      c-4.4,2.4-8.6,4.5-12.5,6.1l-1.5,0.6l-28-71.4l18.4-7.5l0.3,0.4c8.7,11.5,18.3,22.6,28.3,33c6.8,7,13.9,13.6,21,19.6l0.9,0.7
      C88,133.9,87.8,134,87.6,134.2z M134,158.5l-0.5,1.3H52.8c0,0,0.1,0,0.1-0.1c0.2-0.1,0.3-0.2,0.5-0.2c0.8-0.4,1.6-0.7,2.4-1.1
      c0.3-0.2,0.6-0.3,0.9-0.5c0.7-0.3,1.4-0.7,2.1-1.1c0.3-0.2,0.6-0.3,0.9-0.5c1-0.5,2-1.1,3-1.6l0.6-0.3c0.5-0.3,1-0.5,1.4-0.8
      c1.3-0.8,2.7-1.6,4-2.4c0.4-0.2,0.7-0.4,1.1-0.7l0.5-0.3c1-0.6,2.1-1.3,3.1-2c0.8-0.5,1.5-1,2.3-1.5c0.6-0.4,1.3-0.9,1.9-1.3
      c0.9-0.7,1.9-1.3,2.8-2l0.7-0.5c0.9-0.6,1.7-1.3,2.6-1.9c1.8-1.3,3.5-2.7,5.2-4c0.2-0.1,0.3-0.3,0.5-0.4c0.7-0.5,1.3-1.1,2-1.6
      c0.1-0.1,0.1-0.1,0.2-0.2l0,0c9.5-7.8,17.5-15.6,23.2-21.4c10.1-10.4,19.6-21.5,28.4-33l0.3-0.4l18.4,7.5L134,158.5z"/>
  </g>
</g>
</svg>
