
<svg version="1.1" id="Layer_1" xmlns="http://www.w3.org/2000/svg" xmlns:xlink="http://www.w3.org/1999/xlink" x="0px" y="0px"
   viewBox="0 0 180 180" style="enable-background:new 0 0 180 180;" xml:space="preserve">

<style type="text/css">
  .st0{fill:#fff;}
  .st1{fill:#040000;}
</style>
<title>h</title>
<g id="Layer_2">
  <g id="Layer_1-2">
    <path class="st0" d="M52,23.5c-5.3-4.6-11.3-8.2-17.8-10.6C34,19.9,35.1,27,37.5,33.6l0.3,0.8L37.2,35c-0.7,0.7-1.4,1.4-2,2.2
      l-0.3,0.3c-0.3,0.4-0.7,0.8-1,1.1c-0.8,0.9-1.5,1.9-2.2,2.9c-0.2,0.3-0.7,1.2-1.4,2.2c-1.4,2.2-2.2,5.7-2.2,10.1V54
      c-0.4,4.5-4.5,11.4-9.9,19.9c-4.6,7.2-8.1,11.7-8.1,15.6c0,2.7,0.4,5.5,1.2,8.1c1.4,4.8,6,8.8,11.3,10.9l4.2-2.3
      c0,0,4,3.3,7.8,3.3s9.1-7.2,10.1-9.1c0,0,0.9-5.2,4.1-8.4c3.6-3.7,8.7-4.3,15.5-6.7c6.4-1.7,10.8-8.1,10.8-8.1
      c0.2,4.5-0.4,9.1-1.7,13.4c-2.3,6.3-7.9,11.8-13.2,17.2c-1,1-2.1,2.1-3.1,3.1c-3.7,3.8-5.1,6-5.6,6.9c-3.8,6.7-4.8,11.1-5.2,13
      c-0.5,2.7-0.6,5.5-0.4,8.3h92.2v-15.5c0-13.2-0.5-30.3-4.6-45.1c-3.4-11.7-9.5-23.6-16.5-31.8c-9.8-11.7-26.4-18.8-38.9-19.4
      c-3-0.2-6-0.2-9,0c-1-2.5-2.8-8.4-9.7-13.1C56.3,16.5,53.7,19.7,52,23.5z"/>
    <path class="st1" d="M139.6,140.1H44.8l-0.2-1.1c-0.3-2.9-0.1-5.8,0.4-8.7c0.3-2,1.4-6.5,5.3-13.4c0.6-1.2,2.2-3.4,5.8-7.2
      c1-1,2.1-2.1,3.1-3.1c5.3-5.3,10.8-10.8,12.9-16.7c0.9-3,1.5-6.1,1.6-9.3c-2.5,2.7-5.6,4.7-9.1,5.8C62.8,87,61,87.5,59.5,88
      c-4.1,1.3-7.3,2.2-9.7,4.7c-2.8,2.9-3.7,7.6-3.7,7.7v0.2l-0.1,0.2c-0.7,1.3-6.3,9.9-11.3,9.9c-3.3,0-6.5-2-7.9-3l-4,2.2l-0.6-0.2
      c-6-2.3-10.7-6.8-12.1-11.7c-0.9-2.7-1.3-5.6-1.2-8.5c0-3.6,2.4-7.2,5.7-12.3c0.8-1.2,1.7-2.6,2.6-4c4.7-7.4,9.3-15,9.6-19.3v-0.1
      c0-4.5,0.8-8.2,2.4-10.8c0.7-1,1.2-1.8,1.4-2.2c0.8-1.1,1.6-2.1,2.5-3.1c0.3-0.3,0.6-0.7,1-1.1l0.2-0.3c0.7-0.8,1.4-1.5,2.1-2.2
      l0,0c-2.5-6.8-3.6-14-3.4-21.3l0.1-1.9l1.8,0.7c6.1,2.3,11.8,5.6,16.8,9.8c1.8-3.3,4.3-6.2,7.2-8.5l0.8-0.6l0.8,0.6
      c4.6,3.1,8.1,7.6,9.9,12.8c2.7-0.1,5.4-0.1,8.1,0.1c11.7,0.6,29.1,7.1,39.9,19.9c7.1,8.4,13.4,20.4,16.7,32.3
      c4.2,15,4.7,32.2,4.7,45.5L139.6,140.1z M47.3,137.4h89.6v-14c0-13.1-0.5-30.1-4.6-44.7c-3.3-11.5-9.3-23.2-16.2-31.3
      C105.9,35.1,89.2,29,78.2,28.4c-2.9-0.2-5.8-0.2-8.8,0l-1,0.1L67.8,27c-1.5-4.5-4.3-8.5-8.2-11.4c-2.7,2.3-4.9,5.2-6.4,8.5
      l-0.7,1.6l-1.4-1.2c-4.6-4.1-9.9-7.4-15.6-9.7c0,6.3,1.1,12.5,3.3,18.3l0.6,1.6l-1.2,1.2c-0.7,0.7-1.3,1.3-1.9,2.1l-0.3,0.3
      c-0.4,0.5-0.8,0.9-1.1,1.2c-0.7,0.8-1.4,1.7-2,2.6c-0.2,0.4-0.7,1.2-1.5,2.3c-1.3,2-2,5.3-2,9.3V54c-0.4,4.5-4,11-10.1,20.6
      c-0.9,1.5-1.8,2.8-2.6,4.1c-3.1,4.7-5.3,8.1-5.3,10.8c0,2.6,0.3,5.1,1.1,7.6c1.2,4,5,7.8,9.9,9.8l4.5-2.4l0.7,0.6
      c0,0,3.6,2.9,7,2.9c2.8,0,7.6-6,8.9-8.2c0.2-1.1,1.3-5.7,4.4-8.9c2.9-2.9,6.5-4,10.8-5.4c1.6-0.5,3.3-1,5.2-1.7H64
      c5.8-1.6,10-7.5,10.1-7.6l2.1-3l0.3,3.8c0.2,4.7-0.4,9.4-1.8,13.9c-2.4,6.5-8.1,12.2-13.6,17.7c-1,1-2.1,2.1-3.1,3.1
      c-3.8,3.8-5,5.9-5.4,6.6c-3.7,6.6-4.7,10.8-5,12.5C47.3,132.9,47.1,135.1,47.3,137.4L47.3,137.4z"/>
    <path class="st1" d="M26.8,107.4c-0.7,0-1.3-0.6-1.3-1.3c0-0.5,0.2-0.9,0.6-1.1c3.2-2.1,6.1-4.6,8.5-7.5c0.5-0.6,1.3-0.7,1.9-0.2
      c0.6,0.5,0.7,1.3,0.2,1.9c-2.6,3.2-5.7,5.9-9.2,8.1C27.3,107.3,27,107.4,26.8,107.4z"/>
    <path class="st1" d="M75.1,78.2c-0.7,0-1.3-0.6-1.3-1.4c0-0.2,0.1-0.4,0.2-0.6c1.6-3.2,2.5-6.7,2.8-10.3c0-0.7,0.7-1.3,1.4-1.3
      c0,0,0,0,0,0h0.1c0.7,0.1,1.3,0.7,1.2,1.4l0,0c-0.3,4-1.3,7.8-3.1,11.4C76.1,78,75.6,78.2,75.1,78.2z"/>
    <path class="st1" d="M20.2,92.8c-1,0-1.8-0.8-1.8-1.8c0-0.3,0.1-0.6,0.2-0.9c1.2-1.9,3.8-4.9,6.3-4.2c0.8,0.2,2.1,1,1.9,3.6
      c0,0.7-0.5,1.4-1.2,1.6l-4.8,1.6C20.5,92.8,20.3,92.8,20.2,92.8z"/>
    <circle class="st1" cx="44.9" cy="52.1" r="4.3"/>
    <path class="st1" d="M50,32.6L50,32.6c-0.7,0-1.3-0.6-1.3-1.4c0.2-2.9,1-5.7,2.2-8.3c0.2-0.7,1-1.1,1.7-0.8c0.7,0.2,1.1,1,0.8,1.7
      c0,0,0,0.1,0,0.1c0,0.1,0,0.1-0.1,0.2c-1.1,2.2-1.8,4.7-2,7.2C51.4,32,50.8,32.6,50,32.6C50,32.6,50,32.6,50,32.6z"/>
    <path class="st1" d="M71.1,37.6c-0.7,0-1.2-0.5-1.3-1.1c-0.6-3.3-1.5-8.2-1.8-8.9c-0.2-0.7,0.2-1.5,0.9-1.7
      c0.7-0.2,1.4,0.1,1.7,0.8c0.5,1.3,1.7,8.1,1.9,9.4c0.1,0.7-0.4,1.4-1.1,1.6c0,0,0,0,0,0l0,0C71.3,37.6,71.2,37.6,71.1,37.6z"/>
    <path class="st1" d="M39.6,57.1c-0.2,0-0.5-0.1-0.7-0.2c-0.9-0.4-1.3-1.5-0.9-2.4c2.2-4.9,6.1-8.8,11-11c0.9-0.4,2,0.1,2.3,1
      c0.3,0.9,0,1.8-0.8,2.3l-0.1,0.1c-4,1.9-7.2,5.1-9.1,9.1C41,56.7,40.3,57.1,39.6,57.1z"/>
    <path class="st0" d="M82.1,139.5l-1.8,2.3c-2.3,2.9-5.2,5.4-8.5,7.1c-1.6,0.9-3.7,1.5-8.6,1.4c-5.9-0.2-17-4.3-28.1-4.3
      c-6.9,0.1-13.7,2-19.7,5.4l7.7,15.9c3.2-1.8,10.8-4.1,13.6-4.1c12,0,21.1,4.1,31.9,4.1c5.2-0.1,10.1-1.8,14.3-4.9
      c4.2-3,6-4.3,7.7-11.1l1.6-6.4l1.6,6.4c1.7,6.7,3.6,8.1,7.7,11.1c4.1,3.1,9.1,4.8,14.3,4.9c10.8,0,20-4.1,31.9-4.1
      c2.9,0,10.4,2.3,13.6,4.1l7.7-15.9c-6-3.4-12.8-5.3-19.8-5.4c-11.1,0-22.1,4.1-28.1,4.3c-4.8,0.2-7-0.4-8.6-1.3
      c-3.3-1.7-6.2-4.1-8.5-7.1l-1.8-2.3h-0.1"/>
    <path class="st1" d="M170,149.4c-6.3-3.6-13.4-5.5-20.6-5.6c-6.8,0-13.6,1.5-19.1,2.7c-3,0.8-6,1.3-9.1,1.6
      c-4.8,0.1-6.5-0.5-7.7-1.2c-3.1-1.6-5.8-3.9-8-6.6h0.1l-3.4-1.3v0l-1.1,0.9l1.8,2.3c2.4,3.1,5.5,5.7,9,7.5
      c2.2,1.2,4.9,1.7,9.4,1.6c3.3-0.3,6.5-0.8,9.7-1.6c5.3-1.2,11.9-2.6,18.3-2.6c6.1,0.1,12.2,1.7,17.6,4.5l-6.3,13.1
      c-3.9-1.8-10.1-3.5-12.9-3.5c-5.7,0.1-11.4,0.9-17,2.2c-4.9,1.2-9.8,1.8-14.8,2c-4.8-0.1-9.5-1.7-13.3-4.6c-4-2.9-5.6-4-7.1-10.2
      L92.3,138L89,150.5c-1.5,6.1-3,7.2-7.1,10.1c-3.9,2.9-8.5,4.5-13.4,4.6c-5-0.2-10-0.8-14.8-1.9c-5.6-1.3-11.3-2-17-2.2
      c-2.7,0-9,1.8-12.9,3.5l-6.4-13.1c5.5-2.8,11.5-4.4,17.6-4.5c6.4,0,13,1.5,18.3,2.6c3.2,0.8,6.4,1.4,9.7,1.6
      c4.5,0.1,7.2-0.3,9.4-1.5c3.5-1.8,6.6-4.4,9-7.5l3.6-4.6h-0.3l-5.9,2.6H79c-2.2,2.8-4.9,5-8,6.7c-1.2,0.6-2.9,1.2-7.7,1.1
      c-3.1-0.3-6.1-0.8-9.1-1.6c-5.5-1.2-12.3-2.7-19-2.7c-7.3,0.1-14.4,2-20.7,5.6l-1.3,0.8l9.1,18.8l1.5-0.9
      c2.9-1.7,10.2-3.9,12.8-3.9c5.5,0.1,11,0.8,16.4,2.1c5.1,1.2,10.3,1.8,15.5,2c5.5-0.1,10.8-1.9,15.2-5.2c4.2-3,6.5-4.7,8.3-12
      l0.1-0.4l0.1,0.3c1.8,7.3,4.1,9,8.4,12c4.4,3.2,9.8,5,15.2,5.2c5.2-0.1,10.4-0.8,15.4-2c5.4-1.3,10.9-2,16.4-2.1
      c2.6,0,9.9,2.2,12.8,3.9l1.5,0.9l9.1-18.8L170,149.4z"/>
  </g>
</g>
</svg>
