
<svg version="1.1" id="Layer_1" xmlns="http://www.w3.org/2000/svg" xmlns:xlink="http://www.w3.org/1999/xlink" x="0px" y="0px"
   viewBox="0 0 180 180" style="enable-background:new 0 0 180 180;" xml:space="preserve">

<style type="text/css">
  .st0{fill:#040000;stroke:#040000;stroke-miterlimit:10;}
  .st1{fill:#040000;stroke:#040000;stroke-width:4;stroke-miterlimit:10;}
  .st2{fill:#fff;}
  .st3{fill:#040000;}
</style>
<title>i</title>
<g id="Layer_2">
  <g id="Layer_1-2">
    <path class="st0" d="M91.7,150.6c-3.4,0-7.6-0.1-12.5-0.4l0.2-3.7c7.5,0.6,15,0.6,22.5,0l0.4,3.7
      C102.1,150.2,98.3,150.6,91.7,150.6z"/>
    <path class="st1" d="M78.4,145.6L78.4,145.6c-4.9-0.6-9.7-1.7-14.4-3.3l8.9-22.1l-2.2-1.3c-8.8-5-10.9-7.2-12.7-10.8
      c-2.2-4-3.3-8.5-3.1-13c0-8.1,3.8-15.8,10.4-20.6c7.3-5.6,14.5-11.3,21.6-19.5l1.3-1.4l0.8-1.1l-2.4-1.8l-0.8,1L84.6,53
      c-7,8-14,13.6-21.2,19.1C56.1,77.5,51.9,86,51.8,95c-0.2,5.1,1,10.1,3.5,14.5c2,4.1,4.4,6.6,13.9,12l-9.1,22.6l1.5,0.5
      c5.3,1.9,10.7,3.2,16.3,3.9L78.4,145.6L78.4,145.6z"/>
    <path class="st1" d="M118.6,144.6l1.5-0.5l-9.1-22.6c9-5.3,11.5-7.7,13.9-11.9c2.4-4.5,3.5-9.5,3.4-14.6
      c-0.3-6.7-2.4-16-11.5-22.9c-8-5.9-14.7-11.4-21.2-19.1l-1.2-1.4l-0.7-1l-2.4,1.7l0.8,1.1l1.3,1.5c6.7,7.9,13.5,13.5,21.6,19.5
      c8.1,6.2,10.1,14.7,10.3,20.6c0.1,4.5-0.9,9-3,13.1c-2.1,3.7-4.3,5.9-12.8,10.8l-2.2,1.3l8.9,22.1c-4.7,1.5-9.4,2.6-14.3,3.3
      l0.4,2.7l0.6,0.2C108.2,147.6,113.4,146.3,118.6,144.6z"/>
    <path class="st2" d="M99.9,147.5L99.9,147.5l2.5-0.3c5.6-0.8,11-2.1,16.3-3.9l-9.1-22.5l1.1-0.7c8.8-5.1,11.2-7.5,13.4-11.5
      c2.3-4.3,3.4-9.1,3.3-14c-0.2-6.4-2.3-15.4-11-22c-8.2-6-15-11.6-21.7-19.5l-1.2-1.4l-0.8-1.1h-4.7l-0.8,1.1l-1.3,1.5
      C79,61.4,71.8,67.1,64.5,72.7c-7,5.2-11.1,13.3-11.1,22c-0.2,4.9,0.9,9.7,3.3,13.9c2,3.9,4.3,6.2,13.4,11.5l1.1,0.7l-9.1,22.6
      c5.3,1.9,10.8,3.2,16.4,3.9l2.7,0.3L99.9,147.5L99.9,147.5z"/>
    <path class="st3" d="M118.2,144.8c-5.2-1.9-10.5-3.3-15.9-4.2l-2.6-0.4c-6.1-0.6-12.2-0.7-18.4-0.4l-2.6,0.2
      c-5.5,0.6-10.9,1.7-16.1,3.4l-0.9-2.9c5.4-1.8,11.1-3,16.8-3.6l2.7-0.2c6.3-0.3,12.7-0.2,19,0.4l2.6,0.4
      c5.6,0.9,11.2,2.4,16.5,4.4L118.2,144.8z"/>
    <path class="st3" d="M110.7,123.2c-6.7-1.6-13.5-2.3-20.3-2.2c-6.8-0.1-13.7,0.6-20.3,2.2l-0.8-3.1c6.9-1.7,14.1-2.4,21.2-2.3
      c7.1-0.1,14.3,0.7,21.2,2.3L110.7,123.2z"/>
    <circle class="st2" cx="90.5" cy="40.9" r="10"/>
    <path class="st3" d="M90.5,52.4c-6.4,0-11.5-5.1-11.5-11.5s5.1-11.5,11.5-11.5c6.4,0,11.5,5.1,11.5,11.5S96.9,52.4,90.5,52.4z
       M90.5,32.4c-4.7,0-8.5,3.8-8.5,8.5s3.8,8.5,8.5,8.5s8.5-3.8,8.5-8.5l0,0C99,36.2,95.2,32.4,90.5,32.4z"/>
    <path class="st3" d="M87.3,100.9v-7.1L80,93.7c-1.4,0.2-2.8-0.8-3-2.2c0-0.3,0-0.5,0-0.8c-0.2-1.4,0.8-2.8,2.2-3
      c0.3,0,0.5,0,0.8,0h7.3V80c0-2,1.1-3.1,3.2-3.1c1.5-0.2,2.9,0.9,3.1,2.4c0,0.2,0,0.5,0,0.7v7.6h7.6c2,0,2.9,1,2.9,3s-1,3-2.9,3
      h-7.6v7.3c0,2.1-1.1,3.2-3.1,3.2c-1.6,0.2-3-0.9-3.2-2.4C87.3,101.4,87.3,101.1,87.3,100.9z"/>
  </g>
</g>
</svg>
