
<svg version="1.1" id="Layer_1" xmlns="http://www.w3.org/2000/svg" xmlns:xlink="http://www.w3.org/1999/xlink" x="0px" y="0px"
   viewBox="0 0 180 180" style="enable-background:new 0 0 180 180;" xml:space="preserve">

<style type="text/css">
	.st0{fill:none;}
	.st1{fill:#fff;}
	.st2{fill:#1A1A1A;}
</style>
<title>i</title>
<g>
	<rect x="0" y="0" class="st0" width="180" height="180"/>
	<g>
		<g>
			<path class="st1" d="M39.1,68.4c-0.8,3.2-1.2,6.4-1.3,9.7c-0.2,8.3,3.3,17,4.6,27.3c2.1,16.6-6.6,31.2-8.4,36.7
				c-1.5,4.7-1.8,18.8-1.8,18.8h101.9l-1-10.2l-8.4-8.7l-0.8-7.5c-0.4-3.2-2.5-15.8-8.5-26.8l-25-39.3
				C90.4,68.4,39.1,68.4,39.1,68.4z"/>
			<path class="st2" d="M30.6,161c0-0.6,0.3-14.3,1.9-19.2c0.4-1.2,1-2.7,1.8-4.5c3.1-7,8.2-18.7,6.5-31.6
				c-0.5-4.2-1.4-8.1-2.3-11.9c-1.2-5.4-2.4-10.6-2.3-15.6c0.1-3.4,0.6-6.7,1.3-10l0.3-1.2h53.4l25.5,40.1c6.6,12,8.5,25.8,8.7,27.4
				l0.7,6.9l8.4,8.7l1.2,12.3h-105L30.6,161z M131.7,151.4l-8.4-8.7l-0.8-7.9c-0.2-1.5-2-14.7-8.3-26.2L89.6,70H40.2
				c-0.6,2.8-0.9,5.5-1,8.3c-0.1,4.6,1,9.6,2.2,14.8c0.9,3.9,1.8,7.9,2.4,12.2c1.8,13.6-3.5,25.8-6.7,33.1c-0.7,1.7-1.4,3.2-1.7,4.2
				c-1.2,3.6-1.6,13.1-1.7,16.8h98.7L131.7,151.4z"/>
		</g>
		<g>
			<path class="st1" d="M81.9,72.2c0,0-1.2,6.3-3,12.9c-2.7,9.9-4.6,13-5.5,14l-0.7,0.8l-1-0.4c-15.1-6.9-28-24.8-31.6-30.1L40,69.3
				v-0.1c-0.5-0.9-11.2-23.5-5.2-38l0.2-0.4l0.3-0.2c8.6-6.2,19.9-9.3,33.5-9.3H69c6.4,0,12.7,0.7,18.9,2.1c1.3,0,9.1,0.1,14.1,1.6
				c8.5,2.2,15.9,7.5,20.7,14.8c3.9,5.8,6.4,12.4,7.5,19.3l0,0l0,0c28.7,37.5,14.3,72.7,12.6,76.5c-1.2,2.8-1.5,5.9-1.1,9
				c0.1,1.3,0.4,2.6,0.7,3.9l0.2,0.9L142,150c-1.4,1.4-3.3,2.2-5.3,2.4h-0.1H136c-0.2,0-0.3,0-0.5,0c-0.5,0-1.1,0-1.6-0.1h-0.1h-0.1
				c-5.8-1.5-8.8-4.9-8.9-9.9c0-1.6,0.6-4,1.5-7.3c1.6-6.1,4.1-15.4,3.1-24.4l-0.2-1.5l-1.6-6.7l-25-11c-2,0.9-4.1,1.3-6.3,1.3
				c-2.4,0-4.8-0.5-6.9-1.5c-3.2-1.5-6.1-3.6-8.4-6.3l-1.5-1.8L81.9,72.2z"/>
			<path class="st2" d="M133.7,154.1c-0.1,0-0.2-0.1-0.3-0.1c-8.1-2.1-9.9-7.3-10-11.3c-0.1-1.9,0.6-4.4,1.5-7.8
				c1.6-6,4-15.2,3-23.9l-0.2-1.5l-1.4-5.9l-23.8-10.5c-4.5,1.7-9.6,1.5-13.8-0.5c-3.3-1.5-6.2-3.6-8.6-6.3c-2,7.4-4,12.2-5.7,14
				l-0.7,0.8c-0.4,0.4-1.1,0.6-1.7,0.3l-1-0.4c-15.4-7-28.6-25.2-32.2-30.6l-0.1-0.1c0-0.1-0.1-0.1-0.1-0.2V70
				c-0.4-1-11.5-24.1-5.2-39.3l0.2-0.4c0.1-0.2,0.3-0.4,0.5-0.6l0.3-0.3c8.8-6.4,20.4-9.6,34.3-9.6h0.2c6.4,0,12.8,0.7,19,2.1
				c1.8,0,9.3,0.2,14.3,1.6c8.9,2.3,16.6,7.8,21.5,15.5c3.9,5.9,6.6,12.6,7.7,19.6c28.9,38.1,14.3,73.8,12.6,77.7
				c-1.1,2.6-1.4,5.5-1,8.3c0.2,1.2,0.4,2.5,0.7,3.7l0.2,0.9c0.2,0.6,0,1.1-0.4,1.5l-0.6,0.6c-1.7,1.6-3.9,2.6-6.3,2.8h-0.1H136
				c-0.2,0-0.3,0-0.5,0C134.9,154.1,134.3,154.1,133.7,154.1z M136.4,151.1c1.6-0.2,3.2-0.9,4.4-2l0,0c-0.3-1.4-0.5-2.8-0.7-4.1
				c-0.4-3.3,0-6.7,1.2-9.8c1.7-3.8,15.8-38.2-12.6-74.9c-0.2-0.2-0.3-0.5-0.3-0.7c-1.1-6.7-3.6-13.1-7.3-18.7
				c-4.6-7.1-11.6-12.2-19.8-14.3c-4.9-1.4-12.8-1.5-13.7-1.5c-0.1,0-0.2,0-0.3,0c-6-1.3-12.3-2-18.5-2h-0.2c-13.3,0-24.3,3-32.6,9
				l0,0c-5.7,13.9,4.7,35.7,5.2,36.8c3.5,5.2,16.2,22.9,31,29.6l0,0c0.5-0.6,2.4-3.1,5.1-13.4c0.2-0.7,0.3-1.3,0.5-2l0,0l2.4-10.9
				c0.2-0.7,1-1.3,1.8-1.1c0.8,0.1,1.3,0.9,1.2,1.7c0,0-0.9,4.6-2.3,10.2l1,1.2c2.1,2.5,4.9,4.6,7.9,5.9c3.7,1.7,8.2,1.8,12,0.2
				c0.4-0.2,0.8-0.2,1.2,0l25,11c0.5,0.2,0.8,0.5,0.9,1l1.6,6.7c0,0.1,0,0.1,0,0.2l0.2,1.5c1.1,9.3-1.4,18.8-3.1,25
				c-0.8,3.1-1.4,5.5-1.4,6.9c0.1,4.3,2.6,7.1,7.8,8.4l0,0c0.5,0.1,0.9,0.1,1.4,0.1c0.2,0,0.3,0,0.5,0H136.4z"/>
		</g>
		<g>
			<path class="st1" d="M126.2,107c-4.5,0-9.1-1-13-2.6c-4.8-2.2-8.9-5.8-11.7-10.3l-0.9-1.5l15.8-7l0.6,1.5c0,0,2.2,5.8,7.5,8.1
				c3.7,1.7,6.7,2,8.5,2c0.7,0,1.4,0,2-0.1c0.2-0.1,0.5-0.1,0.8-0.1c1.7,0,3,0.8,3.5,2.2c0.5,1.5-0.2,3.3-2,4.8
				C134.9,105.9,131,107,126.2,107L126.2,107z"/>
			<path class="st2" d="M112.8,105.5c-5.2-2.3-9.4-6.1-12.4-10.9l-0.9-1.5c-0.3-0.3-0.3-0.8-0.2-1.2c0.1-0.4,0.4-0.7,0.8-0.9l15.8-7
				c0.4-0.2,0.8-0.2,1.2,0c0.4,0.2,0.7,0.5,0.8,0.9l0.5,1.5c0,0.1,2,5.3,6.7,7.3c3.5,1.6,6.2,1.9,7.9,1.9c0.6,0,1.2,0,1.7-0.1
				c2.8-0.5,5.2,0.8,6,3.1c0.8,2.2-0.1,4.6-2.4,6.5c-2.7,2.2-7,3.4-12.1,3.4l0,0C121.5,108.5,116.7,107.4,112.8,105.5z M135.2,98.4
				c-0.7,0.1-1.4,0.2-2.2,0.2c-2,0-5.1-0.4-9.1-2.1c-5.9-2.6-8.2-8.7-8.3-9l-12.8,5.6c2.7,4.3,6.5,7.7,11.1,9.8
				c3.6,1.7,8,2.6,12.3,2.6c4.5,0,8.1-1,10.2-2.7c1.3-1.1,1.8-2.2,1.5-3.2c-0.3-0.7-1.1-1.2-2.1-1.2
				C135.6,98.4,135.4,98.4,135.2,98.4z"/>
		</g>
		<path class="st2" d="M114.2,59.5c0,0-1.5-9-6.7-11.1s-10.2,4.4-6,7.7C106.6,60.1,109,55,114.2,59.5z"/>
	</g>
</g>
</svg>
