
<svg version="1.1" id="Layer_1" xmlns="http://www.w3.org/2000/svg" xmlns:xlink="http://www.w3.org/1999/xlink" x="0px" y="0px"
   viewBox="0 0 180 180" style="enable-background:new 0 0 180 180;" xml:space="preserve">

<style type="text/css">
  .st0{fill:#040000;stroke:#040000;stroke-miterlimit:10;}
  .st1{fill:#040000;stroke:#040000;stroke-width:4;stroke-miterlimit:10;}
  .st2{fill:#fff;}
  .st3{fill:#040000;}
</style>
<title>j</title>
<g>
  <path class="st0" d="M75.3,146.1c-3.4,0-7.6-0.1-12.5-0.4L63,142c7.5,0.6,15,0.6,22.5,0l0.4,3.7C85.7,145.7,81.9,146.1,75.3,146.1z
    "/>
  <path class="st1" d="M62,141.1L62,141.1c-4.9-0.6-9.7-1.7-14.4-3.3l8.9-22.1l-2.2-1.3c-8.8-5-10.9-7.2-12.7-10.8
    c-2.2-4-3.3-8.5-3.1-13c0-8.1,3.8-15.8,10.4-20.6c7.3-5.6,14.5-11.3,21.6-19.5l1.3-1.4l0.8-1.1l-2.5-1.9l-0.8,1l-1.2,1.4
    c-7,8-14,13.6-21.2,19.1C39.7,73,35.4,81.5,35.4,90.5c-0.2,5.1,1,10.1,3.5,14.5c2,4.1,4.5,6.6,13.9,12l-9.1,22.6l1.4,0.5
    c5.3,1.9,10.7,3.2,16.3,3.9L62,141.1L62,141.1z"/>
  <path class="st1" d="M102.1,140.1l1.5-0.5L94.5,117c9-5.3,11.5-7.7,13.9-11.9c2.4-4.5,3.5-9.5,3.4-14.6c-0.3-6.7-2.4-16-11.5-22.9
    c-8-5.9-14.7-11.4-21.2-19.1l-1.2-1.4l-0.7-1l-2.4,1.7l0.8,1.1l1.3,1.5c6.7,7.9,13.5,13.5,21.6,19.5c8.1,6.2,10.1,14.6,10.3,20.6
    c0.1,4.5-0.9,9-3,13.1c-2.1,3.7-4.3,5.9-12.8,10.8l-2.2,1.3l8.9,22.1c-4.7,1.5-9.4,2.6-14.3,3.3l0.4,2.7l0.6,0.2
    C91.8,143.1,97,141.8,102.1,140.1z"/>
  <path class="st2" d="M83.5,143L83.5,143l2.5-0.3c5.6-0.8,11-2.1,16.3-3.9l-9.1-22.5l1.1-0.7c8.8-5.1,11.2-7.5,13.4-11.5
    c2.3-4.3,3.4-9.1,3.3-14c-0.2-6.4-2.3-15.4-11-22c-8.2-6-15-11.6-21.7-19.5l-1.2-1.4l-0.7-1.1h-4.7l-0.8,1.1l-1.3,1.5
    C62.5,56.9,55.4,62.5,48,68.1c-7,5.2-11.1,13.3-11.1,22c-0.2,4.9,0.9,9.7,3.3,13.9c2,3.9,4.3,6.2,13.4,11.5l1.1,0.7l-9.1,22.6
    c5.3,1.9,10.8,3.2,16.4,3.9l2.7,0.3H83.5L83.5,143z"/>
  <path class="st3" d="M101.8,140.2c-5.2-1.9-10.5-3.3-15.9-4.2l-2.6-0.4c-6.1-0.6-12.2-0.7-18.4-0.4l-2.6,0.2
    c-5.5,0.6-10.9,1.7-16.1,3.4l-0.9-2.9c5.4-1.8,11.1-3,16.8-3.6l2.7-0.2c6.3-0.3,12.7-0.2,19,0.4l2.6,0.4c5.6,0.9,11.2,2.4,16.5,4.4
    L101.8,140.2z"/>
  <path class="st3" d="M94.3,118.7c-6.7-1.6-13.5-2.3-20.3-2.2c-6.8-0.1-13.7,0.6-20.3,2.2l-0.8-3.1c6.9-1.7,14.1-2.4,21.2-2.3
    c7.1-0.1,14.3,0.7,21.2,2.3L94.3,118.7z"/>
  <circle class="st2" cx="74.1" cy="36.4" r="10"/>
  <path class="st3" d="M74.1,47.9c-6.4,0-11.5-5.1-11.5-11.5s5.2-11.5,11.5-11.5c6.4,0,11.5,5.1,11.5,11.5S80.5,47.9,74.1,47.9z
     M74.1,27.9c-4.7,0-8.5,3.8-8.5,8.5s3.8,8.5,8.5,8.5s8.5-3.8,8.5-8.5l0,0C82.6,31.7,78.8,27.9,74.1,27.9z"/>
  <path class="st3" d="M70.9,96.4v-7.1l-7.3-0.1c-1.4,0.2-2.8-0.8-3-2.2c0-0.3,0-0.5,0-0.8c-0.2-1.4,0.8-2.8,2.2-3c0.3,0,0.5,0,0.8,0
    h7.3v-7.7c0-2,1.1-3.1,3.2-3.1c1.5-0.2,2.9,0.9,3.1,2.4c0,0.2,0,0.5,0,0.7v7.6h7.6c2,0,2.9,1,2.9,3s-1,3-2.9,3h-7.6v7.3
    c0,2.1-1.1,3.2-3.1,3.2c-1.6,0.2-3-0.9-3.2-2.4C70.9,96.9,70.9,96.6,70.9,96.4z"/>
</g>
<g>
  <path class="st0" d="M108.3,155.1c-3.5,0-7.6-0.2-12.5-0.5l0.3-3.6c7.4,0.6,15,0.6,22.5,0l0.3,3.6
    C118.8,154.8,115,155.1,108.3,155.1z"/>
  <path class="st1" d="M95.2,150.2L95.2,150.2c-4.9-0.6-9.7-1.7-14.4-3.3l8.9-22.2l-2.2-1.3c-8.7-5.1-10.9-7.3-12.7-10.8
    c-2.2-4-3.3-8.4-3.2-13c0-8.1,3.8-15.7,10.4-20.6c7.9-5.7,15-12.2,21.5-19.5l1.3-1.4l0.8-1.1l-2.4-1.7l-0.8,0.9l-1.3,1.4
    C94.9,64.9,87.8,71.2,80,76.9c-7.3,5.4-11.6,13.9-11.6,22.9c-0.2,5.1,0.9,10.1,3.5,14.4c2.1,4.1,4.4,6.5,13.8,12l-9.2,22.6l1.4,0.5
    c5.2,1.9,10.8,3.2,16.3,4L95.2,150.2L95.2,150.2z"/>
  <path class="st1" d="M135.2,149.1l1.4-0.5l-9.2-22.6c9-5.2,11.4-7.8,13.8-11.9c2.4-4.4,3.5-9.5,3.3-14.6c-0.2-9-4.3-17.4-11.6-22.8
    c-7.8-5.4-14.9-11.9-21.2-19l-1.1-1.4l-0.6-0.9l-2.5,1.7l0.8,1.1l1.3,1.6c6.3,7.3,13.6,13.8,21.5,19.5c6.3,4.9,10.1,12.5,10.3,20.6
    c0.2,4.6-0.9,9-3,13.1c-2.1,3.6-4.3,5.9-12.7,10.8l-2.2,1.3l8.9,22c-4.6,1.6-9.3,2.7-14.2,3.3l0.3,2.7l0.6,0.3
    C125,152.2,130.2,150.8,135.2,149.1z"/>
  <path class="st2" d="M116.7,152.1L116.7,152.1l2.5-0.3c5.5-0.8,11.1-2.1,16.3-4l-9-22.5l1.1-0.6c8.9-5.1,11.1-7.4,13.4-11.4
    c2.2-4.3,3.3-9.2,3.3-13.9c-0.2-8.5-4.1-16.8-10.9-22c-8.1-5.5-15.3-12.2-21.7-19.5l-1.3-1.4l-0.8-1.1h-4.6l-0.8,1.1l-1.3,1.4
    c-6.5,7.3-13.8,13.8-21.7,19.5c-7,5.2-11.1,13.3-11.1,22c-0.2,4.9,0.9,9.7,3.3,13.9c1.9,4,4.3,6.2,13.4,11.4l1.1,0.6l-9.3,22.5
    c5.2,1.9,10.8,3.2,16.3,4l2.7,0.3H116.7L116.7,152.1z"/>
  <path class="st3" d="M134.9,149.2c-5.1-1.9-10.4-3.3-15.8-4.3l-2.5-0.3c-6.2-0.6-12.2-0.8-18.4-0.5l-2.5,0.2
    c-5.5,0.5-10.9,1.7-16.1,3.5l-0.9-2.8c5.4-1.7,11.1-3,16.8-3.6l2.7-0.3c6.3-0.3,12.7-0.2,19,0.5l2.5,0.3c5.7,0.9,11.1,2.4,16.5,4.4
    L134.9,149.2z"/>
  <path class="st3" d="M127.5,127.7c-6.6-1.6-13.4-2.4-20.3-2.2c-6.8-0.2-13.6,0.6-20.3,2.2l-0.8-3.2c7-1.6,14.1-2.4,21.2-2.4
    c7.1-0.2,14.2,0.6,21.2,2.4L127.5,127.7z"/>
  <circle class="st2" cx="107.2" cy="45.6" r="10"/>
  <path class="st3" d="M107.2,57c-6.3,0-11.6-5.2-11.6-11.6s5.2-11.6,11.6-11.6c6.3,0,11.6,5.2,11.6,11.6
    C118.8,51.9,113.6,57,107.2,57L107.2,57z M107.2,37c-4.7,0-8.5,3.8-8.4,8.5c0,4.7,3.8,8.5,8.5,8.4c4.7,0,8.4-3.8,8.4-8.5l0,0
    C115.8,40.8,112,37,107.2,37C107.4,37,107.2,37,107.2,37z"/>
  <path class="st3" d="M104.1,105.6v-7.1h-7.3c-1.6-0.2-2.8-1.6-2.8-3.2c0.2-1.4,1.3-2.7,2.8-2.8h7.3v-7.8c-0.2-1.6,0.9-2.8,2.5-3.2
    c0.2,0,0.5,0,0.6,0c1.6-0.2,2.8,0.8,3,2.4c0,0.2,0,0.5,0,0.6v7.6h7.6c1.4-0.2,2.7,0.8,3,2.2c0,0.3,0,0.5,0,0.8
    c0.2,1.4-0.8,2.8-2.2,3c-0.2,0-0.5,0-0.8,0h-7.6v7.3c0.2,1.6-0.8,3-2.4,3.2c-0.3,0-0.5,0-0.8,0c-1.6,0.2-3-0.9-3.2-2.4
    C104.1,106,104.1,105.7,104.1,105.6z"/>
</g>

</svg>
