
<svg version="1.1" id="Layer_1" xmlns="http://www.w3.org/2000/svg" xmlns:xlink="http://www.w3.org/1999/xlink" x="0px" y="0px"
   viewBox="0 0 180 180" style="enable-background:new 0 0 180 180;" xml:space="preserve">

<style type="text/css">
  .st0{fill:none;}
  .st1{fill:#fff;}
</style>
<title>l</title>
<g id="camel_rider_classic">
  <rect class="st0" width="180" height="180"/>
  <g>
    <g id="camel_3_">
      <path class="st1" d="M23.4,51.1c-4-0.7-6.9-3-5.5-9c2.2-9,15.4-8.3,15.4-8.3c5-8.7,7.4-8.2,19.5-6.7c9.8,1.3,22.8,4.7,32.2,1.4
        s22.8,0,22.8,0s13-10.1,16.6-7.2c3.6,2.9,3.3,18.3-2.9,23.4c-2.2,1.8,8.1,31.7,25.5,55.3c0.5,0.7,13.4,18,14,18.7l-0.9,41h-55.9
        C92.8,141,82.1,115,79.9,81c-0.3-4.1,2.2-9-10.5-12.7c-12.7-3.6-19.5-1.8-23.5-11.2c0,0-8,2.4-16.3,4.9C6.1,69,19,54.5,23.4,51.1
        z"/>
      <g>
        <path d="M90.3,46.3c5.5,1.1,11.5-2.8,12.7-8.3l-21.4-4.2C80.7,39.4,84.8,45.2,90.3,46.3z"/>
        <path d="M108.7,36.6c3.3,1.4,5.9,4.2,7,7.6c3.9-4.1,5.3-10.5,3.4-15.7C115,30.3,111.5,33,108.7,36.6z"/>
        <path d="M163.3,117c-0.5-0.7-13.4-17.9-14-18.6c-15.3-20.9-24.8-46.5-25.2-51.9c4.1-4.2,5.6-11.6,5.5-16.9
          c0-2.9-0.5-8.1-3.4-10.4c-1-1-2.2-1.4-3.6-1.4c-4.9,0-12.5,5.2-15.6,7.5c-2.2-0.4-6.9-1.2-12-1.2c-4.3,0-8,0.5-11.1,1.6
          c-2.3,0.8-5.1,1.2-8.4,1.2c-5.1,0-10.5-0.9-15.7-1.8c-2.4-0.4-4.6-0.8-6.7-1L52.4,24c-3.6-0.5-6.4-0.8-8.8-0.8
          c-5.9,0-8.9,2.5-12.1,7.6c-4.3,0.1-14.4,1.5-16.6,10.6c-0.8,3.4-0.5,6.3,1,8.6c0.5,0.8,1.2,1.5,2,2.1c-2.8,3-6.1,7.5-4.8,11.2
          c0.6,1.7,2.2,3.7,6.7,3.7c2.6,0,6.1-0.7,10.6-2c5.5-1.6,10.9-3.2,13.9-4.1c3.6,6.2,8.9,7.2,15.5,8.5c2.6,0.5,5.5,1.1,8.7,2
          c3.4,1,5.4,1.9,6.6,2.9c0.1,0.1,0.2,0.3,0.4,0.3c1.4,1.3,1.4,2.8,1.3,4.5c0,0.7,0,1.5,0,2.3c1.9,29.4,10.2,56.3,24.7,80l0.9,1.4
          h1.7H160h2.9l0.1-2.9l0.9-41v-1.1L163.3,117z M160.1,159.7h-55.9C92.8,141,82.1,115,79.9,81c-0.1-1.6,0.2-3.3-0.1-5
          c5.8,1.9,9.2,3.8,9.2,3.8c0.2,0.1,0.4,0.2,0.7,0.2c0.5,0,1-0.3,1.3-0.8c0.4-0.7,0.1-1.6-0.6-2c-0.3-0.1-5-2.8-12.9-5
          c-1.5-1.4-4-2.7-8.1-3.9c-12.7-3.6-19.5-1.8-23.5-11.2c0,0-8,2.4-16.3,4.9c-4.4,1.3-7.6,1.9-9.7,1.9c-7.8,0-2.2-7.4,1.7-11.3
          c6.5-0.1,14.9-1.4,15.3-1.4c0.9-0.1,1.4-0.8,1.3-1.7s-0.9-1.4-1.7-1.3c-0.1,0.1-10.3,1.5-16.7,1.4c-1.9-1.3-2.8-3.7-1.9-7.6
          c1.5-6,7.7-7.7,11.8-8.1l-0.1,0c2,2,4.7,3.1,7.5,3.3s5.7-0.8,7.8-2.6c1.1-0.9,2-2.3,1.6-3.6c-0.3-0.8-11-0.2-11.7,1l-0.6,0.2
          c2.9-4.7,5.1-6.1,9.5-6.1c2.3,0,5.2,0.4,9.1,0.9c6.8,0.9,15.2,2.8,22.8,2.8c3.3,0,6.5-0.4,9.4-1.4c3.1-1.1,6.7-1.4,10.1-1.4
          c6.8,0,12.7,1.4,12.7,1.4s9.9-7.6,14.8-7.6c0.7,0,1.3,0.2,1.8,0.5c3.6,2.9,3.3,18.3-2.9,23.4c-2.2,1.8,8.1,31.7,25.5,55.3
          c0.5,0.7,13.4,18,14,18.7L160.1,159.7z"/>
      </g>
    </g>
    <g id="camel_6_">
      <path class="st1" d="M58.5,79c-3-0.5-5.2-2.3-4.1-6.7c1.6-6.8,11.5-6.2,11.5-6.2c3.8-6.5,5.6-6.2,14.6-5
        c7.3,0.9,17.1,3.5,24.2,1.1c7.1-2.4,17.1,0,17.1,0s9.8-7.6,12.5-5.4c2.7,2.2,2.4,13.7-2.2,17.6c-1.6,1.4,6.1,23.7,19.1,41.5
        c0.4,0.6,10.1,13.5,10.5,14l-0.7,30.8h-41.9c-8.6-14-16.5-33.5-18.2-59c-0.3-3.1,1.6-6.8-7.9-9.5s-14.7-1.4-17.6-8.4
        c0,0-6,1.8-12.2,3.6C45.6,92.5,55.2,81.6,58.5,79z"/>
      <g>
        <path d="M108.6,75.5c4.2,0.8,8.7-2.2,9.6-6.3l-16.1-3.1C101.4,70.3,104.5,74.7,108.6,75.5z"/>
        <path d="M122.5,68.1c2.5,1,4.5,3.2,5.3,5.7c2.9-3,3.9-7.8,2.5-11.7C127.3,63.4,124.6,65.5,122.5,68.1z"/>
        <path d="M163.4,128.5c-0.4-0.5-10.1-13.5-10.5-14c-11.5-15.7-18.6-34.9-18.9-38.9c3.1-3.1,4.2-8.7,4.1-12.7
          c0-2.2-0.4-6.1-2.6-7.8c-0.6-0.7-1.5-1-2.6-1c-3.7,0-9.3,3.9-11.7,5.7c-1.7-0.3-5.2-0.9-9-0.9c-3.2,0-6,0.4-8.3,1.2
          c-1.7,0.6-3.8,0.9-6.3,0.9c-3.8,0-7.8-0.7-11.8-1.3c-1.8-0.3-3.4-0.6-5-0.8l-0.5-0.1c-2.7-0.3-4.8-0.6-6.6-0.6
          c-4.5,0-6.7,1.9-9,5.7C61.5,64,53.9,65,52.3,71.8c-0.6,2.6-0.4,4.7,0.7,6.4c0.4,0.6,0.9,1.2,1.5,1.6c-2.1,2.3-4.5,5.6-3.6,8.4
          c0.4,1.3,1.7,2.8,5,2.8c2,0,4.5-0.5,7.9-1.5c4.1-1.2,8.1-2.4,10.4-3.1c2.7,4.6,6.7,5.4,11.7,6.4c1.9,0.4,4.1,0.8,6.5,1.5
          c6.3,1.8,6.3,3.5,6.2,5.8c0,0.6,0,1.1,0,1.7c1.4,22.1,7.7,42.3,18.5,60l0.7,1.1h1.3H161h2.2v-2.2l0.7-30.8v-0.8L163.4,128.5z
           M160.9,160.6H119c-8.6-14-16.5-33.5-18.2-59c-0.1-1.3,0.1-2.6-0.2-4c4.4,1.5,7.1,3,7.1,3c0.2,0.1,0.4,0.1,0.6,0.1
          c0.4,0,0.7-0.2,0.9-0.6c0.3-0.5,0.1-1.2-0.4-1.5c-0.1-0.1-4-2.3-10.2-4c-1.2-0.9-2.9-1.7-5.7-2.5c-9.5-2.7-14.7-1.4-17.6-8.4
          c0,0-6,1.8-12.2,3.6c-3.3,1-5.7,1.4-7.3,1.4c-6.1,0-1.5-5.8,1.6-8.6c4.9-0.1,11.1-1,11.3-1c0.7-0.1,1.1-0.6,1-1.3
          s-0.7-1.1-1.3-1c-0.1,0-7.8,1.1-12.6,1c-0.1,0-0.2,0-0.3,0.1c-1.2-1-1.8-2.8-1.1-5.5c1.1-4.6,6-5.8,9-6.1
          c1.4,1.4,3.4,2.2,5.4,2.3c2.1,0.1,4.2-0.7,5.8-2c0.8-0.7,1.5-1.7,1.2-2.7c-0.1-0.6-8.2-0.1-8.7,0.8l-0.4,0.1
          c2.1-3.3,3.8-4.3,7-4.3c1.7,0,3.9,0.3,6.8,0.7c5.1,0.7,11.4,2.1,17.1,2.1c2.5,0,4.9-0.3,7.1-1c2.4-0.8,5-1.1,7.6-1.1
          c5.1,0,9.5,1.1,9.5,1.1s7.4-6,11.1-6c0.5,0,1,0.1,1.3,0.4c2.7,2.2,2.4,13.7-2.2,17.6c-1.6,1.4,6.1,23.7,19.1,41.5
          c0.4,0.6,10.1,13.5,10.5,14L160.9,160.6z"/>
      </g>
    </g>
  </g>
</g>
</svg>
