
<svg version="1.1" id="Layer_1" xmlns="http://www.w3.org/2000/svg" xmlns:xlink="http://www.w3.org/1999/xlink" x="0px" y="0px"
   viewBox="0 0 180 180" style="enable-background:new 0 0 180 180;" xml:space="preserve">

<style type="text/css">
  .st0{fill:#BF3B43;}
  .st1{fill:#040000;}
</style>
<title>m</title>
<g id="Layer_2">
  <g id="Layer_1-2">
    <path class="st0" d="M51.2,46C46,41.5,40,37.9,33.5,35.4c-0.2,7,0.9,14,3.3,20.6l0.3,0.8l-0.6,0.6c-0.7,0.7-1.4,1.4-2,2.2
      l-0.2,0.3c-0.3,0.4-0.6,0.8-1,1.1c-0.8,0.9-1.5,1.9-2.2,2.9c-0.2,0.3-0.7,1.2-1.4,2.2c-1.4,2.2-2.2,5.7-2.2,10v0.1
      C27.1,80.7,23,87.6,17.7,96c-4.5,7.1-8,11.6-8,15.5c0,2.7,0.4,5.4,1.2,8c1.4,4.7,5.9,8.8,11.2,10.8l4.2-2.3c0,0,3.9,3.3,7.8,3.3
      s9.1-7.1,10.1-9.1c0,0,0.9-5.1,4-8.3c3.6-3.7,8.6-4.2,15.4-6.7c6.3-1.7,10.8-8.1,10.8-8.1c0.2,4.5-0.4,9-1.7,13.3
      c-2.3,6.2-7.8,11.7-13.2,17.1c-1,1-2.1,2.1-3.1,3.1c-3.7,3.8-5.1,5.9-5.6,6.9c-3.8,6.7-4.8,11-5.1,12.9c-0.5,2.7-0.6,5.5-0.4,8.2
      h91.6v-15.4c0-13.1-0.5-30.1-4.6-44.8C129,88.8,122.9,77,116,68.8c-9.7-11.6-26.2-18.6-38.7-19.3c-3-0.2-5.9-0.2-8.9,0
      c-1-2.5-2.8-8.3-9.6-13C55.5,39,53,42.3,51.2,46z"/>
    <path class="st1" d="M138.3,161.9H44.1l-0.2-1.1c-0.2-2.9-0.1-5.8,0.4-8.7c0.3-2,1.4-6.4,5.3-13.4c0.6-1.2,2.1-3.4,5.8-7.1
      c1-1,2-2.1,3.1-3.1c5.3-5.2,10.7-10.7,12.9-16.6c0.9-3,1.5-6.1,1.6-9.2c-2.5,2.7-5.6,4.6-9,5.7c-1.9,0.7-3.7,1.2-5.2,1.7
      c-4.1,1.2-7.3,2.2-9.6,4.6c-2.8,2.9-3.7,7.6-3.7,7.6v0.2l-0.1,0.2c-0.7,1.3-6.3,9.8-11.3,9.8c-3.3,0-6.5-2-7.9-3l-4,2.2l-0.6-0.2
      c-6-2.3-10.6-6.8-12-11.7c-0.8-2.7-1.3-5.5-1.2-8.4c0-3.6,2.4-7.1,5.7-12.2c0.8-1.2,1.7-2.6,2.6-4c4.6-7.3,9.2-14.9,9.6-19.2l0,0
      c0-4.5,0.8-8.2,2.4-10.7c0.7-1,1.2-1.8,1.4-2.1c0.8-1.1,1.6-2.1,2.4-3.1c0.3-0.3,0.6-0.7,1-1.1l0.2-0.3c0.7-0.8,1.3-1.5,2.1-2.2
      l0,0c-2.5-6.8-3.6-14-3.4-21.2l0.1-1.9l1.8,0.7c6.1,2.3,11.7,5.6,16.7,9.7c1.8-3.3,4.2-6.2,7.2-8.5l0.8-0.6l0.8,0.6
      c4.6,3.1,8,7.5,9.8,12.7c2.7-0.1,5.3-0.1,8,0.1c11.6,0.6,28.9,7.1,39.6,19.8c7,8.3,13.3,20.3,16.6,32.1c4.1,14.9,4.7,32,4.7,45.2
      L138.3,161.9z M46.6,159.2h89.1v-14c0-13-0.5-29.9-4.6-44.4c-3.3-11.4-9.3-23.1-16.1-31.1c-10.2-12.1-26.7-18.2-37.7-18.8
      c-2.9-0.2-5.8-0.2-8.7,0l-1,0.1L67,49.4c-1.5-4.5-4.3-8.5-8.1-11.3c-2.7,2.3-4.9,5.2-6.4,8.4l-0.7,1.6L50.4,47
      c-4.6-4-9.9-7.3-15.5-9.7c0,6.2,1.1,12.4,3.2,18.2l0.6,1.6l-1.2,1.2c-0.7,0.7-1.3,1.3-1.9,2l-0.3,0.3c-0.4,0.5-0.8,0.9-1.1,1.2
      c-0.7,0.8-1.4,1.7-2,2.6c-0.2,0.4-0.7,1.2-1.5,2.3c-1.3,2-2,5.3-2,9.2v0.2c-0.4,4.5-4,10.9-10,20.5c-0.9,1.5-1.8,2.8-2.6,4
      c-3,4.6-5.2,8-5.2,10.7c0,2.6,0.3,5.1,1.1,7.6c1.2,3.9,5,7.7,9.9,9.7l4.5-2.4l0.7,0.6c0,0,3.6,2.9,6.9,2.9c2.8,0,7.6-6,8.8-8.2
      c0.2-1.1,1.3-5.7,4.3-8.8c2.8-2.9,6.5-4,10.8-5.3c1.6-0.5,3.3-1,5.1-1.7h0.1c5.8-1.6,10-7.5,10-7.6l2.1-3l0.3,3.7
      c0.2,4.7-0.4,9.4-1.8,13.9c-2.4,6.5-8,12.1-13.5,17.5c-1,1-2.1,2.1-3.1,3.1c-3.7,3.8-5,5.9-5.3,6.5c-3.7,6.6-4.7,10.7-5,12.5
      C46.5,154.7,46.4,157,46.6,159.2L46.6,159.2z"/>
    <path class="st1" d="M26.2,129.3c-0.7,0-1.3-0.6-1.3-1.3l0,0c0-0.5,0.2-0.9,0.6-1.1c3.2-2.1,6-4.6,8.4-7.5
      c0.5-0.6,1.3-0.6,1.9-0.2c0.6,0.5,0.6,1.3,0.2,1.9c-2.6,3.2-5.7,5.9-9.1,8.1C26.7,129.3,26.4,129.3,26.2,129.3z"/>
    <path class="st1" d="M74.2,100.4c-0.7,0-1.3-0.6-1.4-1.3c0-0.2,0.1-0.5,0.2-0.7c1.6-3.2,2.5-6.6,2.8-10.2c0-0.7,0.7-1.3,1.4-1.2
      h0.1c0.7,0.1,1.3,0.7,1.2,1.4l0,0c-0.3,3.9-1.3,7.8-3.1,11.3C75.2,100.1,74.7,100.4,74.2,100.4z"/>
    <path class="st1" d="M19.6,114.8c-1,0-1.8-0.8-1.8-1.8c0-0.3,0.1-0.6,0.2-0.9c1.2-1.9,3.8-4.9,6.2-4.1c0.8,0.2,2,1,1.9,3.6
      c0,0.7-0.5,1.4-1.2,1.6l-4.8,1.6C20,114.8,19.8,114.9,19.6,114.8z"/>
    <circle class="st1" cx="44.2" cy="74.4" r="4.2"/>
    <path class="st1" d="M49.2,55L49.2,55c-0.7,0-1.3-0.6-1.3-1.4c0.2-2.9,1-5.7,2.2-8.2c0.3-0.7,1.1-1,1.8-0.7c0.6,0.3,1,1,0.7,1.7
      c0,0.1,0,0.1-0.1,0.2c-1.1,2.2-1.7,4.7-1.9,7.1C50.6,54.4,50,55,49.2,55C49.3,55,49.2,55,49.2,55z"/>
    <path class="st1" d="M70.2,60c-0.6,0-1.2-0.5-1.3-1.1c-0.6-3.2-1.5-8.1-1.8-8.9c-0.3-0.7-0.1-1.5,0.6-1.8c0.7-0.3,1.5-0.1,1.8,0.6
      c0,0.1,0.1,0.2,0.1,0.3c0.5,1.2,1.7,8,1.9,9.4c0.1,0.7-0.4,1.4-1.1,1.5c0,0,0,0,0,0l0,0C70.4,60,70.3,60,70.2,60z"/>
    <path class="st1" d="M38.9,79.4c-0.2,0-0.5-0.1-0.7-0.2c-0.9-0.4-1.3-1.5-0.9-2.4c2.2-4.8,6.1-8.7,11-10.9c0.9-0.4,2,0,2.4,0.9
      s0,2-0.9,2.4l-0.1,0.1c-4,1.9-7.2,5.1-9.1,9.1C40.3,79,39.6,79.4,38.9,79.4z"/>
    <path class="st0" d="M153.2,50c0,0,5.6-2.3,13.8,7.6c6,7.2,5.1,17.8-2.1,23.8c0,0,0,0-0.1,0.1c-5.8,4.9-14.1,5.3-20.3,1l-8.1,4.5
      l-6.1,8.9c-1.7-0.3-1.3-8.1-4.9-11.2c-4.5-3.9-5-7.1-8.7-11.8c-3.8-4.6-9.6-8-12.6-13.1c-2.3-4-8.1-3.4-8.1-5.1l9.8-4.5l5.8-7.1
      c-3.2-6.9-1.3-15,4.6-19.8c7.2-6,17.8-5.1,23.8,2.1c0,0,0.1,0.1,0.1,0.1l0,0c8.3,9.9,5,15,5,15"/>
    <path class="st1" d="M165.4,81.8c7.5-6.3,8.5-17.4,2.3-24.9c-8.5-10.2-14.5-7.9-14.7-7.8l0.6,1.5c0,0,5.2-1.9,12.9,7.4
      c5.7,6.9,4.8,17.1-2.1,22.8c-5.5,4.7-13.5,5-19.4,0.9l-0.4-0.3l-8.7,4.8l-5.8,8.5l0.5,1.9h0l6.3-9.2l7.5-4.2
      C151,87.3,159.5,86.8,165.4,81.8z"/>
    <path class="st1" d="M106.4,50.5l6.2-7.7l-0.2-0.4c-3-6.6-1.2-14.3,4.4-18.9c6.9-5.7,17-4.8,22.8,2c7.7,9.2,5,14,4.9,14l1.3,0.8
      c0.2-0.2,3.5-5.7-5-15.9c-6.3-7.5-17.5-8.5-25-2.3c-6,4.9-8,13.2-5,20.3l-5.4,6.7l-9.9,4.6l1.4,1.1L106.4,50.5z"/>
    <path class="st1" d="M162,36.5l-5.2,4.3l-2-2.4l5.2-4.4l-2.3-2.8c-0.5-0.5-0.6-1.3-0.2-1.8c0.1-0.1,0.2-0.2,0.3-0.3l0,0
      c0.5-0.5,1.3-0.6,1.8-0.1c0.1,0.1,0.2,0.2,0.3,0.3l2.3,2.8l2.9-2.4c0.5-0.6,1.4-0.6,2-0.1c0.1,0.1,0.2,0.2,0.2,0.3
      c0.6,0.5,0.6,1.4,0.1,1.9c-0.1,0.1-0.2,0.2-0.3,0.3l-2.9,2.4l2.4,2.9c0.5,0.5,0.5,1.3,0.1,1.8c-0.1,0.1-0.2,0.2-0.3,0.2l0,0
      c-0.5,0.5-1.3,0.5-1.8,0.1c-0.1-0.1-0.2-0.2-0.2-0.3L162,36.5z"/>
    <path class="st1" d="M135.8,87.2c-3.4-7.2-7.7-14-12.8-20.1c-5.1-6.2-11-11.7-17.5-16.3l0.9-1.3c6.7,4.7,12.6,10.3,17.8,16.6
      c5.2,6.2,9.6,13.1,13,20.5L135.8,87.2z"/>
    <path class="st1" d="M143.9,82.7c-3.7-7.7-8.3-15-13.7-21.6c-6.1-7.3-14.1-14.3-18.9-17.5l0.9-1.3c4.9,3.2,13.1,10.4,19.2,17.8
      c5.5,6.7,10.2,14.1,13.9,22L143.9,82.7z"/>

      <rect x="129.7" y="57.2" transform="matrix(0.7614 -0.6483 0.6483 0.7614 -5.7018 100.5238)" class="st1" width="8" height="1.6"/>
    <path class="st1" d="M129.6,95.8c0-1.1-0.6-3.5-3.5-8.3c-3-5.1-6.5-10-10.3-14.5c-3.7-4.6-7.9-8.9-12.4-12.7
      c-4.3-3.7-6.5-4.7-7.6-4.9l0.3-1.5c1.9,0.4,4.6,2.1,8.3,5.2C109,63,113.2,67.4,117,72c3.9,4.6,7.4,9.5,10.4,14.7
      c2.4,4.2,3.6,7.1,3.7,9.1L129.6,95.8z"/>
    <path class="st0" d="M136.8,55.4c1-0.5,15.5-5.2,16.4-5.5c0.8-0.3,1.5-0.7,2.1-1.2c2.7-2.6,2.8-6.9,0.2-9.6
      c-2.3-2.4-6.1-2.7-8.8-0.8c-0.6,0.5-1.2,1.2-1.6,1.9C144.7,41.1,137.5,54.5,136.8,55.4z"/>
    <path class="st1" d="M134.5,57.4l1.7-2.4c0.4-0.6,4.6-8.3,6.6-12c0.9-1.7,1.6-2.9,1.7-3.1c2-3.6,6.6-4.9,10.2-2.8
      c3.6,2,4.9,6.6,2.8,10.2c0,0.1-0.1,0.1-0.1,0.2c-0.4,0.7-0.9,1.4-1.6,1.9c-0.7,0.6-1.5,1-2.4,1.3l-3.4,1.1c-4,1.3-12.3,4-12.9,4.3
      L134.5,57.4z M155.5,39.8c-2.1-2.5-5.8-2.9-8.3-0.8c-0.6,0.5-1,1-1.4,1.7c-0.1,0.2-0.8,1.5-1.7,3.1c-2.1,4-4.3,7.9-5.6,10.2
      c2.5-0.9,6.8-2.3,11-3.6c1.7-0.6,3.1-1,3.3-1.1c3.1-1,4.8-4.3,3.7-7.4C156.4,41.1,156.1,40.4,155.5,39.8L155.5,39.8z"/>
  </g>
</g>
</svg>
