
<svg version="1.1" id="Layer_1" xmlns="http://www.w3.org/2000/svg" xmlns:xlink="http://www.w3.org/1999/xlink" x="0px" y="0px"
   viewBox="0 0 180 180" style="enable-background:new 0 0 180 180;" xml:space="preserve">

<style type="text/css">
  .st0{fill:#fff;}
  .st1{fill:#040000;}
  .st2{fill:none;stroke:#040000;stroke-width:2.5;stroke-miterlimit:10;}
</style>
<title>o</title>
<g id="Layer_2">
  <g id="Layer_1-2">
    <path class="st0" d="M62,29.2c-6.2-5.3-13.2-9.5-20.8-12.4C40.9,25,42.2,33.3,45,41l0.3,0.9l-0.7,0.7c-0.8,0.8-1.6,1.7-2.4,2.5
      L42,45.6c-0.4,0.5-0.8,0.9-1.2,1.3c-0.9,1.1-1.8,2.2-2.5,3.4c-0.2,0.4-0.8,1.4-1.7,2.6c-1.7,2.6-2.6,6.7-2.6,11.8v0.2
      c-0.5,5.2-5.2,13.3-11.5,23.3c-5.3,8.4-9.4,13.6-9.4,18.2c0,3.2,0.4,6.4,1.4,9.4c1.6,5.6,7,10.3,13.2,12.7l4.9-2.7
      c0,0,4.6,3.8,9.1,3.8s10.7-8.4,11.9-10.7c0,0,1-6,4.7-9.8c4.2-4.3,10.2-5,18.1-7.9c7.5-2,12.7-9.5,12.7-9.5
      c0.2,5.3-0.4,10.6-2,15.7c-2.7,7.3-9.2,13.8-15.5,20.1c-1.2,1.2-2.4,2.4-3.6,3.6c-4.4,4.5-6,7-6.6,8.1c-4.4,7.9-5.7,12.9-6,15.2
      c-0.5,3.2-0.7,6.4-0.4,9.7h107.9V146c0-15.5-0.6-35.4-5.4-52.7c-3.9-13.6-11.1-27.6-19.3-37.2c-11.5-13.6-30.9-21.9-45.5-22.7
      c-3.5-0.2-7-0.2-10.5,0C81,30.4,78.9,23.5,70.9,18C67,20.9,64,24.8,62,29.2z"/>
    <path class="st1" d="M164.4,165.5H53.6l-0.2-1.3c-0.3-3.4-0.1-6.8,0.4-10.2c0.4-2.3,1.7-7.6,6.2-15.7c0.7-1.4,2.5-4,6.8-8.4
      c1.2-1.2,2.4-2.4,3.6-3.6c6.2-6.2,12.6-12.6,15.1-19.5c1.1-3.5,1.7-7.2,1.9-10.8c-2.9,3.1-6.6,5.4-10.6,6.7
      c-2.2,0.8-4.3,1.4-6.1,2c-4.8,1.5-8.5,2.6-11.3,5.5c-3.3,3.4-4.3,8.9-4.3,9v0.3l-0.1,0.2c-0.8,1.5-7.4,11.5-13.3,11.5
      c-3.8,0-7.6-2.3-9.3-3.5l-4.7,2.6l-0.7-0.3c-7-2.7-12.5-8-14.2-13.7c-1-3.2-1.5-6.5-1.5-9.9c0-4.2,2.8-8.4,6.7-14.3
      c0.9-1.5,2-3,3-4.7c5.5-8.6,10.8-17.5,11.2-22.6v-0.1c0-5.2,1-9.6,2.8-12.6c0.8-1.2,1.4-2.1,1.6-2.5c0.9-1.3,1.8-2.5,2.9-3.6
      c0.4-0.4,0.7-0.8,1.2-1.3l0.3-0.3c0.8-0.9,1.6-1.8,2.4-2.6l0,0c-2.9-8-4.3-16.4-4-24.9l0.1-2.2l2.1,0.8
      c7.1,2.7,13.8,6.6,19.7,11.4c2.1-3.9,5-7.3,8.5-10l0.9-0.7l0.9,0.6c5.4,3.6,9.4,8.9,11.5,15c3.1-0.1,6.3-0.1,9.4,0.1
      c13.6,0.7,34,8.3,46.6,23.3c8.3,9.8,15.7,23.9,19.6,37.7c4.9,17.5,5.5,37.6,5.5,53.2L164.4,165.5z M56.4,162.4h104.8V146
      c0-15.4-0.6-35.2-5.4-52.3C152,80.2,145,66.5,137,57c-12-14.3-31.4-21.5-44.4-22.1c-3.4-0.2-6.8-0.2-10.3,0L81.2,35l-0.7-1.8
      c-1.7-5.3-5.1-9.9-9.5-13.3c-3.2,2.7-5.8,6.1-7.5,9.9l-0.9,1.9L61,30.4c-5.4-4.8-11.6-8.6-18.3-11.4c0,7.3,1.3,14.6,3.8,21.4
      l0.7,1.9l-1.4,1.4c-0.8,0.8-1.5,1.6-2.3,2.4l-0.3,0.4c-0.5,0.6-0.9,1-1.3,1.4c-0.8,1-1.6,2-2.3,3.1c-0.3,0.5-0.9,1.4-1.7,2.7
      c-1.5,2.3-2.3,6.2-2.3,10.9v0.2c-0.5,5.3-4.7,12.8-11.8,24.1c-1,1.7-2.1,3.3-3.1,4.7c-3.6,5.5-6.2,9.4-6.2,12.6c0,3,0.4,6,1.3,8.9
      c1.4,4.6,5.9,9.1,11.6,11.5l5.2-2.9l0.8,0.7c0,0,4.3,3.4,8.1,3.4c3.3,0,8.9-7,10.4-9.6c0.3-1.3,1.5-6.7,5.1-10.4
      c3.3-3.4,7.7-4.7,12.7-6.3c1.9-0.6,3.9-1.2,6.1-2H76c6.8-1.9,11.7-8.8,11.8-8.9l2.5-3.5l0.3,4.4c0.2,5.5-0.5,11-2.1,16.3
      c-2.8,7.6-9.4,14.3-15.8,20.7c-1.2,1.2-2.4,2.4-3.6,3.6c-4.4,4.5-5.9,6.9-6.3,7.7c-4.3,7.7-5.5,12.6-5.9,14.7
      C56.4,157.1,56.3,159.7,56.4,162.4L56.4,162.4z"/>
    <path class="st1" d="M32.5,127.2c-0.9,0-1.6-0.7-1.6-1.6c0-0.5,0.3-1.1,0.8-1.3c3.7-2.4,7.1-5.4,9.9-8.8c0.6-0.7,1.6-0.8,2.2-0.2
      c0.7,0.6,0.8,1.6,0.2,2.2c-3.1,3.7-6.7,6.9-10.7,9.5C33.1,127.2,32.8,127.3,32.5,127.2z"/>
    <path class="st1" d="M89,93.2c-0.9,0-1.6-0.7-1.6-1.6c0-0.3,0.1-0.5,0.2-0.8c1.9-3.7,3-7.8,3.2-12c0-0.9,0.8-1.5,1.6-1.5
      c0,0,0,0,0,0h0.1c0.9,0.1,1.5,0.8,1.4,1.7l0,0c-0.3,4.6-1.5,9.2-3.6,13.3C90.1,92.9,89.6,93.2,89,93.2z"/>
    <path class="st1" d="M24.7,110.2c-1.2,0-2.1-0.9-2.1-2.1c0-0.4,0.1-0.7,0.3-1c1.4-2.2,4.5-5.8,7.3-4.9c0.9,0.3,2.4,1.2,2.2,4.2
      c0,0.9-0.6,1.6-1.4,1.9l-5.6,1.8C25.2,110.2,24.9,110.2,24.7,110.2z"/>
    <circle class="st1" cx="53.6" cy="62.6" r="5"/>
    <path class="st1" d="M59.6,39.8L59.6,39.8c-0.9,0-1.6-0.7-1.6-1.6c0.2-3.4,1.1-6.7,2.6-9.7c0.3-0.8,1.2-1.3,2-1
      c0.8,0.3,1.3,1.2,1,2c0,0,0,0.1,0,0.1c0,0.1-0.1,0.1-0.1,0.2c-1.3,2.6-2.1,5.5-2.3,8.4C61.2,39.1,60.5,39.8,59.6,39.8
      C59.6,39.8,59.6,39.8,59.6,39.8z"/>
    <path class="st1" d="M84.3,45.6c-0.8,0-1.4-0.5-1.5-1.3c-0.7-3.8-1.7-9.6-2.1-10.4c-0.3-0.8,0.2-1.8,1.1-2c0.8-0.2,1.6,0.1,2,0.9
      c0.6,1.5,1.9,9.4,2.2,11c0.1,0.9-0.4,1.7-1.3,1.8c0,0,0,0,0,0l0,0C84.5,45.6,84.4,45.6,84.3,45.6z"/>
    <path class="st1" d="M47.5,68.5c-0.3,0-0.6-0.1-0.8-0.2c-1.1-0.5-1.5-1.7-1-2.8c2.6-5.7,7.2-10.3,12.9-12.9
      c1.1-0.4,2.3,0.1,2.7,1.2c0.4,1,0,2.2-1,2.6l-0.2,0.1c-4.7,2.2-8.5,6-10.7,10.7C49.1,68,48.3,68.5,47.5,68.5z"/>
    <path class="st0" d="M125,39.2c-2.2-5.5-5.4-10.6-9.4-15.1c-3,5.4-4.9,11.3-5.6,17.4l-0.1,0.7l-0.7,0.2c-0.8,0.3-1.6,0.6-2.4,0.9
      l-0.3,0.1c-0.4,0.2-0.8,0.4-1.2,0.5c-1,0.4-1.9,0.9-2.8,1.4c-0.3,0.2-1,0.6-2,1.2c-2,1.2-3.9,3.6-5.6,7v0.1
      C92.7,57.1,87,61,79.6,65.6c-6.3,3.8-10.7,6-12.2,9c-1.1,2.1-1.8,4.4-2.2,6.7c-0.8,4.2,1.1,9.2,4.4,12.8l4.1-0.2
      c0,0,1.8,4,4.7,5.5c2.9,1.5,9.7-2.1,11.3-3.2c1.7-2.2,3.8-3.9,6.4-5c4.2-1.5,8.3,0,14.5,0.7c5.5,1,11.4-2.2,11.4-2.2
      c-1.6,3.6-3.8,6.9-6.5,9.8c-4.2,4-10.6,6.2-16.8,8.3c-1.2,0.4-2.4,0.8-3.6,1.2c-2.5,0.8-4.8,1.9-7,3.2c-5.5,3.8-8,6.8-9,8.2
      c-1.4,1.9-2.6,4.1-3.5,6.3l70.5,35.2l6-12c5.1-10.3,11.4-23.8,14-36.9c2-10.3,1.9-22-0.2-31c-3-12.8-13-24.7-22.2-30
      c-2.2-1.3-4.5-2.4-6.9-3.4c0.8-4.8,0-9.7-2.3-13.9C131,35.4,127.7,37,125,39.2z"/>
    <path class="st1" d="M166.9,81.7c-3.3-14.1-14-25.8-22.7-30.7c-2-1.2-4-2.2-6.1-3.1c0.7-4.7-0.2-9.6-2.6-13.7l-0.4-0.8l-0.8,0.2
      c-3.2,0.7-6.2,2-8.8,3.9c-2.2-5.1-5.3-9.9-9.1-14l-1.1-1.2l-0.8,1.4c-3,5.5-4.9,11.6-5.7,17.9c-0.8,0.3-1.7,0.6-2.5,0.9l-0.3,0.1
      c-0.5,0.2-0.8,0.4-1.2,0.5c-1,0.4-2.1,0.9-3.1,1.5c-0.3,0.2-1,0.6-1.9,1.2c-2.2,1.4-4.3,4-6,7.5l0,0c-2,3.3-8.5,7.5-14.9,11.4
      c-1.3,0.8-2.5,1.5-3.6,2.1c-4.5,2.7-7.7,4.6-9.1,7.3c-1.1,2.2-1.9,4.6-2.3,7c-0.8,4.4,1,9.7,4.7,13.8l0.3,0.4l4-0.2
      c0.7,1.3,2.4,4.1,4.9,5.4c3.8,1.9,11.5-2.6,12.5-3.4l0.1-0.1l0.1-0.2c1.5-2,3.5-3.6,5.8-4.6c2.8-1,5.6-0.5,9.2,0.1
      c1.4,0.2,3,0.5,4.7,0.7c3.1,0.5,6.3,0.1,9.2-1c-1.3,2.4-2.9,4.6-4.8,6.6c-4,3.8-10.3,6-16.4,8.1c-1.2,0.4-2.4,0.8-3.6,1.2
      c-2.6,0.8-5,1.9-7.2,3.4c-5.7,4-8.3,7.1-9.3,8.5c-1.5,2.1-2.7,4.3-3.7,6.7l-0.3,0.8l3-1h-0.1H77c0.8-1.8,1.8-3.5,2.9-5
      c0.9-1.3,3.3-4.2,8.7-7.9c2.1-1.3,4.3-2.4,6.7-3.1c1.2-0.4,2.4-0.8,3.6-1.2c6.3-2.2,12.9-4.4,17.2-8.6c2.8-3,5.1-6.4,6.8-10.2
      l1.2-3l-2.8,1.6c-0.1,0-5.6,3.1-10.7,2.1h-0.1c-1.7-0.2-3.1-0.4-4.6-0.6c-3.8-0.6-7-1.1-10.4,0c-2.7,1.1-5,2.9-6.8,5.2
      c-1.8,1.2-7.8,4-10,3c-2.5-1.3-4.2-4.9-4.2-4.9l-0.3-0.7l-4.3,0.2c-3-3.5-4.4-7.9-3.8-11.4c0.4-2.2,1.1-4.3,2.1-6.3
      c1-2.1,4.1-3.9,8.2-6.4c1.1-0.7,2.3-1.4,3.6-2.2c8.4-5.2,13.6-8.8,15.7-12.2l0.1-0.1c1.6-3.1,3.4-5.4,5.1-6.5c1-0.5,1.7-1,2-1.2
      c0.8-0.5,1.7-0.9,2.5-1.3c0.4-0.1,0.8-0.3,1.3-0.5l0.3-0.2c0.7-0.3,1.5-0.6,2.3-0.9l1.4-0.5l0.2-1.5c0.7-5.4,2.2-10.6,4.6-15.5
      c3.4,4,6.2,8.6,8.2,13.5l0.6,1.4l1.2-1c2.4-2,5.2-3.4,8.2-4.1c1.8,3.7,2.4,7.9,1.8,12l-0.1,1.4l0.8,0.3c2.3,1,4.5,2.1,6.7,3.3
      c8.2,4.7,18.5,15.8,21.6,29.2c2.1,8.9,2.2,20.3,0.2,30.5c-2.6,12.9-8.8,26.3-13.9,36.6l-5.3,10.7l1,3.1l6.4-12.9
      c5.2-10.4,11.4-23.9,14.1-37.2C169.2,102.7,169.1,90.9,166.9,81.7z"/>
    <path class="st1" d="M75.1,98.6c-0.6-0.3-0.8-1-0.5-1.6c0.2-0.4,0.5-0.6,0.9-0.6c3.3-0.4,6.4-1.3,9.4-2.6c0.6-0.3,1.3,0,1.5,0.6
      c0,0,0,0,0,0c0.2,0.6,0,1.3-0.7,1.5c0,0,0,0,0,0c-3.2,1.5-6.6,2.4-10.2,2.8C75.4,98.7,75.2,98.7,75.1,98.6z"/>
    <path class="st1" d="M123.3,94.3c-0.6-0.3-0.8-1-0.5-1.6c0.1-0.2,0.2-0.3,0.4-0.4c2.5-1.9,4.5-4.2,6.1-6.9c0.3-0.5,1-0.7,1.5-0.4
      l0,0c0.5,0.3,0.7,1,0.4,1.6l0,0c-1.7,3-4,5.6-6.8,7.7C124.1,94.4,123.7,94.5,123.3,94.3z"/>
    <path class="st1" d="M75.7,84.7c-0.8-0.4-1-1.3-0.6-2.1c0.1-0.2,0.3-0.4,0.5-0.6c1.6-1,4.8-2.4,6.4-0.9c0.5,0.5,1.2,1.6,0.1,3.5
      c-0.3,0.6-0.9,0.9-1.6,0.8l-4.3-0.6C76,84.8,75.8,84.8,75.7,84.7z"/>
    <ellipse transform="matrix(0.4465 -0.8948 0.8948 0.4465 5.1888 133.3182)" class="st1" cx="110.4" cy="62.5" rx="3.7" ry="3.6"/>
    <path class="st1" d="M121.8,49.2L121.8,49.2c-0.6-0.3-0.8-1-0.5-1.6c1.3-2.2,2.9-4.1,4.9-5.6c0.4-0.5,1.2-0.5,1.6,0c0,0,0,0,0,0
      c0.4,0.5,0.4,1.2-0.1,1.7l-0.1,0.1c-1.7,1.3-3.2,3-4.3,4.8C123.2,49.2,122.5,49.5,121.8,49.2L121.8,49.2z"/>
    <path class="st1" d="M136.1,61.1c-0.5-0.3-0.7-0.8-0.6-1.4c0.8-2.8,2.1-6.9,2.1-7.6c0.1-0.6,0.7-1.1,1.3-1
      c0.6,0.1,1.1,0.6,1.1,1.3c0,0,0,0,0,0c-0.1,1.2-1.9,6.9-2.2,8.1c-0.2,0.6-0.8,1-1.4,0.8c0,0,0,0,0,0l0,0
      C136.3,61.2,136.2,61.2,136.1,61.1z"/>
    <path class="st1" d="M104.4,64.4c-0.2-0.1-0.4-0.2-0.5-0.4c-0.5-0.7-0.4-1.6,0.2-2.2c3.6-2.9,8.1-4.4,12.7-4.3
      c0.8,0,1.5,0.7,1.5,1.6c0,0.9-0.7,1.5-1.6,1.5h-0.1c-3.8,0-7.5,1.2-10.5,3.6C105.6,64.6,104.9,64.6,104.4,64.4z"/>
    <line class="st2" x1="74.5" y1="126.3" x2="146.7" y2="163.2"/>
  </g>
</g>

</svg>
