
<svg version="1.1" id="Layer_1" xmlns="http://www.w3.org/2000/svg" xmlns:xlink="http://www.w3.org/1999/xlink" x="0px" y="0px"
   viewBox="0 0 180 180" style="enable-background:new 0 0 180 180;" xml:space="preserve">
<defs>
<style>
.cls-1{fill:none;}.cls-2{fill:#fff;}</style>
</defs>
<title>
p</title>
<rect class="cls-1" width="180" height="180"/>
<path class="cls-2" d="M109.67,101.94c7.28-4.56,12-11.59,12-19.49,0-10.61-8.42-19.66-20.29-23.25a17,17,0,1,0-22.66,0C66.8,62.79,58.38,71.84,58.38,82.45c0,7.9,4.67,14.93,11.95,19.49a50.78,50.78,0,0,0-29.5,59.33h98.34a50.78,50.78,0,0,0-29.5-59.33Z"/>
<path d="M140.33,162.77H39.66l-.28-1.13a52.27,52.27,0,0,1,27.9-60c-6.65-5-10.4-11.86-10.4-19.22,0-10.23,7.56-19.6,19.05-23.91a18.51,18.51,0,1,1,28.14,0c11.49,4.31,19.05,13.68,19.05,23.91,0,7.36-3.75,14.24-10.4,19.22a52.27,52.27,0,0,1,27.9,60Zm-98.32-3h96a49.29,49.29,0,0,0-28.9-56.45l-2.66-1.12,2.44-1.53c7.15-4.48,11.25-11.12,11.25-18.22,0-9.57-7.72-18.33-19.22-21.81l-2.56-.77,2-1.78a15.52,15.52,0,1,0-20.66,0l2,1.78-2.56.77C67.6,64.12,59.88,72.88,59.88,82.45c0,7.1,4.1,13.74,11.24,18.22l2.45,1.53-2.66,1.12A49.29,49.29,0,0,0,42,159.77Z"/>
</svg>
