
<svg version="1.1" id="Layer_1" xmlns="http://www.w3.org/2000/svg" xmlns:xlink="http://www.w3.org/1999/xlink" x="0px" y="0px"
   viewBox="0 0 180 180" style="enable-background:new 0 0 180 180;" xml:space="preserve">
<defs>
<style>
.cls-1{fill:none;}.cls-2{fill:#fff;}</style>
</defs>
<title>
r</title>
<rect class="cls-1" width="180" height="180"/>
<polygon class="cls-2" points="35.74 161.27 144.25 161.27 144.25 144.75 131.75 144.75 131.75 127.12 117.87 113.15 117.87 72.83 136 58.86 136 30.46 116.62 30.46 116.62 41.66 99.73 41.66 99.73 30.46 80.35 30.46 80.35 41.66 63.38 41.66 63.38 30.46 44.08 30.46 44.08 58.86 62.21 72.83 62.21 113.16 48.24 127.13 48.24 144.75 35.74 144.75 35.74 161.27"/>
<path d="M145.75,162.77H34.25V143.25h12.5V126.5l14-14v-39l-18.13-14V29h22.3v11.2h14V29h22.38v11.2h13.89V29H137.5V59.6l-18.13,14v39l13.88,14v16.75h12.5Zm-108.5-3h105.5V146.25h-12.5V127.74l-13.88-14V72.09l18.13-14V32H118.12v11.2H98.23V32H81.85v11.2h-20V32H45.58V58.12l18.13,14v41.69l-14,14v18.5H37.25Z"/>
<rect x="44.08" y="57.36" width="91.92" height="3"/>
<rect x="62.21" y="71.33" width="55.65" height="3"/>
<rect x="62.21" y="111.66" width="55.65" height="3"/>
<rect x="48.25" y="125.63" width="83.51" height="3"/>
<rect x="48.25" y="143.25" width="83.51" height="3"/>
</svg>
