
<svg version="1.1" id="Layer_1" xmlns="http://www.w3.org/2000/svg" xmlns:xlink="http://www.w3.org/1999/xlink" x="0px" y="0px"
   viewBox="0 0 180 180" style="enable-background:new 0 0 180 180;" xml:space="preserve">

<style type="text/css">
  .st0{fill:none;}
  .st1{fill:#fff;}
</style>
<title>r</title>
<g id="cannon_classic_1_">
  <rect class="st0" width="180" height="180"/>
  <g id="cannon">
    <path class="st1" d="M90,28.1c2.9-0.1,5.7,0.3,8.5,1l2.2,0.4l0.3,2.3l2,17.9l0.2,1.5h7.6l0.3-1.4l3.5-15.4l0.5-2.3h2.3
      c6.2,0,10.7,1.5,16.2,4.5l1.8,1v38.9l0,0v23.8h6.5V60.7c0-4.4,3.6-7.9,7.9-7.9h2.6c4.4,0,7.9,3.6,7.9,7.9v92.2
      c0,4.4-3.6,7.9-7.9,7.9h-2.6c-4.4,0-7.9-3.5-7.9-7.9v-39.6h-6.5v1.7c-0.1,3.7-0.3,7.6-1.9,10.9c-2.2,4.8-5,7.7-12.1,9.2l0,0
      c-1.9,0.4-3.3,0.6-3.4,0.6h-0.1c-9,1.2-18.2,1.8-27.3,1.7c-9.1,0.1-18.2-0.4-27.2-1.7h-0.1c-0.3,0-0.4-0.2-3.5-0.8h-0.1
      c-6.7-1.5-10.9-4.5-13-9.2c-1.4-3.3-1.7-7.1-1.8-10.7v-1.7h-6.5v39.6c0,4.4-3.6,7.9-7.9,7.9h-2.6c-4.4,0-7.9-3.5-7.9-7.9V60.7
      c0-4.4,3.6-7.9,7.9-7.9h2.6c4.4,0,7.9,3.6,7.9,7.9v39.6h6.5V37.7l1.8-1c5.4-3,9.9-4.5,16.2-4.5h2.3l0.5,2.3l3.4,15.4l0.3,1.4H77
      l0.2-1.5l2-17.9l0.3-2.3l2.2-0.4C84.3,28.4,87.1,28.1,90,28.1L90,28.1z"/>
    <path d="M152.2,51.1h-2.6c-5.2,0-9.4,4.2-9.4,9.4v38.1h-3.5v-62l-2.5-1.4c-5.1-2.8-9.9-4.7-16.9-4.7h-3.5l-4.2,18.9v0.2h-5.1
      l-2.4-21.5l-3.2-0.5c-2.9-0.7-5.8-1.1-8.8-1h-0.3c-2.9,0-5.7,0.3-8.4,1l-3.2,0.5l-2.4,21.5h-5.1l-4.2-19.1H63
      c-6.1,0-10.8,1.3-16.9,4.7l-2.5,1.4v62h-3.5V60.5c0-5.2-4.2-9.4-9.4-9.4h-2.6c-5.2,0-9.4,4.2-9.4,9.4v92.2c0,5.2,4.2,9.4,9.4,9.4
      h2.6c5.2,0,9.4-4.2,9.4-9.4v-38.1h3.5v0.2c0.1,3.8,0.4,7.8,1.9,11.3c2.3,5.1,6.9,8.4,14,10.1h0.3c1.8,0.3,2.5,0.5,2.8,0.6
      c0.2,0.1,0.5,0.1,0.8,0.1c8.2,1.1,16.6,1.7,24.9,1.7c0.8,0,1.6,0,2.4,0c9.1,0.1,18.3-0.4,27.4-1.7h0.2c0.1,0,1.5-0.3,3.4-0.6
      c7.9-1.7,11-5.2,13.2-10c1.6-3.6,1.9-7.7,2-11.6v-0.2h3.5v38.1c0,5.2,4.2,9.4,9.4,9.4h2.6c5.2,0,9.4-4.2,9.4-9.4V60.4
      C161.6,55.4,157.4,51.1,152.2,51.1z M36.9,152.8c0,3.5-2.9,6.4-6.4,6.4h-2.6c-3.5,0-6.4-2.9-6.4-6.4V60.6c0-3.5,2.9-6.4,6.4-6.4
      h2.6c3.5,0,6.4,2.9,6.4,6.4v38.1v16.1V152.8z M43.4,111.7h-3.5v-10.1h3.5V111.7z M47.4,37.8c5.7-3.1,9.8-4.3,15.4-4.3h1.1
      l3.6,16.6l0.6,2.5h10.1l2.4-21.9l1-0.2h0.1c2.6-0.7,5.4-1,8.1-1h0.5h0.1c0,0,0,0,0.1,0c2.5,0,5.1,0.3,7.5,1l1.2,0.2l2.4,21.9h10.2
      l4.3-19.1h1.1c5.5,0,9.7,1.2,15.4,4.3l1,0.6v39.4H46.3V38.4L47.4,37.8z M63.5,134.2h-0.2h-0.1c-0.4-0.1-1.2-0.3-3.2-0.7h-0.2
      c-6.1-1.4-10-4.1-11.8-8.3c-1.3-3.1-1.6-6.7-1.6-10.1v-14.8v-1.5V81h42.1v55C80.1,135.8,71.7,135.3,63.5,134.2z M131.9,125.2
      c-1.9,4.2-4.3,6.9-11,8.3c-1.6,0.3-2.8,0.5-3.2,0.6h-0.2c-8.6,1.2-17.3,1.7-26.1,1.7v-55h42.2v17.8l0,0V113v1.8
      C133.6,118.4,133.3,122.1,131.9,125.2z M136.7,111.7v-10h3.5v10H136.7z M158.6,152.8c0,3.5-2.9,6.4-6.4,6.4h-2.6
      c-3.5,0-6.4-2.9-6.4-6.4v-38.1v-16V60.6c0-3.5,2.9-6.4,6.4-6.4h2.6c3.5,0,6.4,2.9,6.4,6.4V152.8z"/>
  </g>
</g>
</svg>
