
<svg version="1.1" id="Layer_1" xmlns="http://www.w3.org/2000/svg" xmlns:xlink="http://www.w3.org/1999/xlink" x="0px" y="0px"
   viewBox="0 0 180 180" style="enable-background:new 0 0 180 180;" xml:space="preserve">

<style type="text/css">
  .st0{fill:none;}
  .st1{fill:#BF3B43;}
</style>
<title>r</title>
<g id="sailboat_classic">
  <rect y="0" class="st0" width="180" height="180"/>
  <g>
    <path class="st1" d="M160.5,111.9c-0.2,0-0.4,0-0.6,0.1l-40.5,7.8l0,0c-1.7,0.4-2.9,2-2.8,3.7l0.1,3.9v1.6l-1.6,0.2
      c-1.1,0.1-2.3,0.3-3.6,0.4l-2,0.2v-27.5l2.1,0.4c3.6,0.7,7.3,1.3,11,1.9c9,1.3,18.1,2,27.2,2.2h0.2l3-68.6h-0.1
      c-10.8,0-25-4-42.3-12l-1-0.5v-4.9c0.1-3.2-2.5-5.8-5.7-5.9c-2.3,0-4.4,1.3-5.3,3.3l-0.8,1.6l-1.6-0.9c-4.5-2.4-7.2-4-7.2-4.1
      l-0.3-0.2L83,44.3l-0.4,2l-1.9-0.6c-3.1-1.1-6.7-2.5-10.7-4.3l-6-2.8v-7.5c0.1-3.2-2.3-5.9-5.5-6s-5.9,2.3-6,5.5
      c0,0.2,0,0.3,0,0.5V33l-2.6-1.4c-9.1-4.9-11.1-6.7-11.2-6.8l-0.3-0.2l-16,74.2l0.1,0.1c9.7,5.7,30.8,13.1,30.8,13.1l-0.1,1.9v12.8
      l4.3,2l-2-0.3c-2.9-0.4-5.6-0.9-8-1.4c-5.1-1.1-11.7-3.1-13.9-6.3c-0.8-1-0.9-2.3-0.4-3.5c0.5-1.4,0.3-3-0.5-4.3
      c-0.7-1.2-2-2-3.3-2.3c-0.7-0.1-1.4-0.2-2.2-0.2c-4.6,0-8.5,2.7-11,7.5c-1.7,3.6-2.4,7.6-2,11.6c0.4,4.8,1.9,9.4,4.5,13.5
      c3.2,5.3,7.9,9.5,13.4,12.3c6.6,3.4,14.5,5.1,23.6,5.1l0,0h82h0.2c2.9-0.3,5.6-3.1,7.2-5.9v-0.1l0.1-0.1l10.4-14.9l0,0l0.2-0.3
      l0.4-0.2l5.6-3l0.2-0.1l0.1-0.1c1.1-0.9,1.7-2.3,1.7-3.7v-17C163.6,113.5,162.3,112,160.5,111.9z M98.3,131.3l-33.7-1.6l0.1-15
      l22.7,1.4l1.8-19.3l9.4,2.6L98.3,131.3z"/>
    <path d="M161,110.7c-0.1,0-0.2,0-0.3,0h-0.5c-0.1,0-0.2,0-0.3,0l-40.7,7.9c-0.1,0-0.3,0-0.4,0.1c-2.2,0.7-3.6,2.8-3.4,4.9l0.1,4.4
      c-1.5,0.2-3,0.4-4.6,0.5v-24.7c12.1,2.4,24.5,3.8,36.9,4.2l2,0.2h0.1c0.4,0,0.7-0.1,1-0.4s0.5-0.7,0.5-1.1l3-68
      c0-0.8-0.6-1.5-1.4-1.6l-2-0.1c-10-0.5-22.9-4.2-38.2-11.1L111,25v-4.3c0-3.9-3.2-7-7.1-7c-2.9,0-5.4,1.8-6.5,4.3
      c-1.9-1-3.7-2-5.2-2.8l-2.4-1.4c-0.4-0.2-0.9-0.3-1.4-0.1c-0.4,0.2-0.8,0.6-0.9,1.1L81,44.6c-5.3-1.9-9.9-3.8-14-5.8l-2.2-1v-7
      c-0.1-3.5-3-6.4-6.6-6.6h-0.1h-0.3c-3.6,0-6.5,2.7-7,6.3c-3-1.7-6-3.4-9.1-5.2l-2.4-1.4c-0.4-0.2-0.9-0.3-1.4-0.1
      c-0.4,0.2-0.8,0.6-0.9,1.1L20.9,98.5c-0.1,0.7,0.2,1.3,0.8,1.6l1.3,0.7c8.1,4.6,17,8.2,26.3,10.9l0,0l1.4,0.4v14.5
      c-11.7-2.1-15.3-4.8-16.5-6.4c-0.6-0.9-0.5-1.4-0.3-2.3c0.1-0.3,0.3-0.6,0.3-1c0.2-1.7-0.1-3.2-0.9-4.5c-0.9-1.4-2.3-2.4-4-2.8
      h-0.1c-0.7-0.1-1.5-0.2-2.3-0.2c-3,0-8.5,1.1-12.1,8.2s-2.6,17.9,2.5,26.3c4,6.7,14.4,18,38.1,18h82.2c0.1,0,0.1,0,0.2,0
      c3-0.3,5.8-2.6,8.1-6.6l10.4-14.9l0,0l0.1-0.1l5.8-3.2l0.2-0.1c0.1,0,0.2-0.1,0.3-0.2c1.4-1.1,2.2-2.8,2.2-4.7v-17
      C164.9,112.9,163.2,111,161,110.7z M111.5,28.8c15.7,7,29,10.8,39.3,11.3h0.5l-2.9,64.9H148h-0.1c-12.3-0.4-24.7-1.8-36.8-4.2
      l-0.3-0.1V28.4L111.5,28.8z M103.8,16.9c2.3,0,4.1,1.8,4.1,4v4.7c-0.1,0.2-0.1,0.3-0.1,0.5V102c0,0.2,0,0.4,0.1,0.5v26.2h-0.4
      c-2.1,0.2-4.2,0.3-6.2,0.4c-0.4,0-0.9,0-1.4,0.1V99.1V20.8v-0.4c0-0.1,0-0.2,0-0.2C100.2,18.4,101.9,16.9,103.8,16.9z M90,17.6
      l0.6,0.4c1.7,1,3.7,2.1,6,3.2l0.3,0.2c0,0,0,0,0,0.1v75.8l-0.7-0.2c-7.7-2.3-14.8-5.2-21.2-8.8l-0.3-0.2L83.6,47l0,0L90,17.6z
       M65,41.3l0.8,0.4c4.3,2.1,9.1,4.1,14.7,6.1l-8.9,40.9c0,0.1,0,0.3,0,0.4v0.1l0,0c0,0.5,0.3,1.1,0.8,1.3c4.8,2.7,10,5.1,15.2,7
      l0.4,0.1l-0.7,17.5l-0.6-0.1c-6.7-0.3-13.9-1.1-21.2-2.5l-0.4-0.1V41.3H65z M57.9,27.3h0.2c2.1,0.2,3.7,1.8,3.8,3.7v97.2h-0.5l0,0
      c-2.4-0.2-4.7-0.5-7.1-0.9l-0.5-0.1v-15.5c0.1-0.2,0.1-0.3,0.1-0.5V33.3c0-0.2,0-0.3-0.1-0.5v-1.6C54.1,28.9,55.8,27.3,57.9,27.3z
       M50.3,109c-9.1-2.6-17.8-6.2-25.7-10.7l-0.3-0.2l15.4-70.5l0.6,0.4c3.5,2,7,4,10.4,5.9l0.2,0.1v75.1L50.3,109z M64.9,115.5
      c7.4,1.4,14.7,2.2,21.5,2.5l2.1,0.2h0.1c0.4,0,0.7-0.1,1-0.4s0.5-0.7,0.5-1.1l0.7-18.3c1.5,0.5,3,1,4.6,1.4l0,0l1.5,0.4v29.1
      c-1.2,0-2.4,0.1-3.6,0.1c-11.6,0-20.9-0.4-28.4-1L64.9,115.5z M161.9,132.2c0,0.5-0.1,1.5-0.9,2.2l-6.3,3.4
      c-0.3,0.1-0.5,0.4-0.6,0.6l0,0l-0.1,0.1l-10.5,15.1c0,0,0,0.1-0.1,0.1c-1.8,3.1-3.8,4.9-5.8,5.1H55.5c-22.2,0-31.8-10.4-35.5-16.6
      c-4.6-7.6-5.6-17.1-2.4-23.3c2.8-5.4,6.7-6.6,9.5-6.6c0.6,0,1.2,0.1,1.8,0.2c0.7,0.2,1.6,0.5,2.1,1.4c0.5,0.8,0.6,1.6,0.5,2.6
      c0,0,0,0,0,0.1c0,0,0,0.1-0.1,0.1c0,0.1-0.1,0.2-0.1,0.2c-0.3,1-0.9,2.9,0.7,5c5,6.8,26.2,10.4,61.3,10.4c1.7,0,3.3-0.1,5-0.1h0.1
      c0,0,0,0,0.1,0l2.1-0.1c0.3,0,0.7,0,1-0.1c5.4-0.3,10.6-0.8,15.6-1.5c0.8-0.1,1.3-0.8,1.3-1.5l-0.1-5.8c-0.1-0.8,0.4-1.6,1.2-1.9
      h0.1l40.7-7.9h0.3c0.7,0.1,1.2,0.8,1.2,1.5L161.9,132.2L161.9,132.2z"/>
  </g>
</g>
</svg>
