
<svg version="1.1" id="Layer_1" xmlns="http://www.w3.org/2000/svg" xmlns:xlink="http://www.w3.org/1999/xlink" x="0px" y="0px"
   viewBox="0 0 180 180" style="enable-background:new 0 0 180 180;" xml:space="preserve">

<style type="text/css">
  .st0{fill:#fff;}
  .st1{fill:#040000;}
</style>
<title>s</title>
<g id="Layer_2">
  <g id="Layer_1-2">
    <polyline class="st0" points="62.1,45.7 62.1,86 48.1,99.9 48.1,117.6 35.6,117.6 35.6,134.1 144.1,134.1 144.1,117.6
      131.6,117.6 131.6,99.9 117.7,86 117.7,45.7     "/>
    <polygon class="st1" points="133.2,116.4 133.2,99.7 119.4,85.7 119.4,46.9 116.4,45.1 116.4,45.2 116.4,86.8 130.2,100.8
      130.2,119.3 142.8,119.3 142.8,132.9 37.2,132.9 37.2,119.4 49.7,119.4 49.7,100.9 63.7,86.9 63.7,45.2 63.5,45.1 60.7,46.5
      60.8,46.6 60.8,85.6 46.8,99.6 46.8,116.3 34.2,116.3 34.2,135.9 145.8,135.9 145.8,116.4     "/>
    <rect x="62.1" y="44.2" class="st1" width="55.7" height="3"/>
    <rect x="62.1" y="84.5" class="st1" width="55.7" height="3"/>
    <rect x="48.1" y="98.4" class="st1" width="83.5" height="3"/>
    <rect x="48.1" y="116.1" class="st1" width="83.5" height="3"/>
  </g>
</g>
</svg>
