
<svg version="1.1" id="Layer_1" xmlns="http://www.w3.org/2000/svg" xmlns:xlink="http://www.w3.org/1999/xlink" x="0px" y="0px"
   viewBox="0 0 180 180" style="enable-background:new 0 0 180 180;" xml:space="preserve">

<style type="text/css">
  .st0{fill:#fff;}
  .st1{fill:#040000;}
</style>
<title>t</title>
<g>
  <polyline class="st0" points="47.8,39.9 47.8,80.3 33.8,94.2 33.8,111.9 21.3,111.9 21.3,128.4 129.8,128.4 129.8,111.9
    117.3,111.9 117.3,94.2 103.5,80.3 103.5,39.9   "/>
  <polygon class="st1" points="119,110.7 119,94 105.1,80 105.1,41.2 102.1,39.4 102.1,39.5 102.1,81.1 116,95.1 116,113.6
    128.5,113.6 128.5,127.1 23,127.1 23,113.7 35.4,113.7 35.4,95.2 49.4,81.2 49.4,39.5 49.3,39.4 46.4,40.8 46.5,40.9 46.5,79.9
    32.5,93.9 32.5,110.6 20,110.6 20,130.1 131.5,130.1 131.5,110.7   "/>
  <rect x="47.8" y="38.4" class="st1" width="55.7" height="3"/>
  <rect x="47.8" y="78.8" class="st1" width="55.7" height="3"/>
  <rect x="33.8" y="92.7" class="st1" width="83.5" height="3"/>
  <rect x="33.8" y="110.4" class="st1" width="83.5" height="3"/>
</g>
<g>
  <polyline class="st0" points="76.3,51.2 76.3,91.7 62.4,105.6 62.4,123.2 49.8,123.2 49.8,139.8 158.3,139.8 158.3,123.2
    145.9,123.2 145.9,105.6 132,91.7 132,51.2   "/>
  <polygon class="st1" points="147.5,122 147.5,105.3 133.6,91.4 133.6,52.6 130.7,50.8 130.7,50.8 130.7,92.4 144.6,106.5
    144.6,125 157,125 157,138.4 51.4,138.4 51.4,125 64,125 64,106.5 77.9,92.5 77.9,50.8 77.8,50.6 74.8,52.1 75,52.3 75,91.2
    61.1,105.3 61.1,122 48.5,122 48.5,141.6 160,141.6 160,122   "/>
  <rect x="76.3" y="49.7" class="st1" width="55.7" height="3"/>
  <rect x="76.3" y="90.2" class="st1" width="55.7" height="3"/>
  <rect x="62.4" y="104.1" class="st1" width="83.5" height="3"/>
  <rect x="62.4" y="121.7" class="st1" width="83.5" height="3"/>
</g>
</svg>
