
<svg version="1.1" id="Layer_1" xmlns="http://www.w3.org/2000/svg" xmlns:xlink="http://www.w3.org/1999/xlink" x="0px" y="0px"
   viewBox="0 0 180 180" style="enable-background:new 0 0 180 180;" xml:space="preserve">

<style type="text/css">
  .st0{fill:#fff;}
  .st1{fill:#040000;}
  .st2{fill:#040000;stroke:#040000;stroke-width:4;stroke-miterlimit:10;}
</style>
<title>y</title>
<g id="Layer_2">
  <g id="Layer_1-2">
    <polyline class="st0" points="70.1,97.9 70.1,126.7 60.2,136.6 60.2,149.2 51.3,149.2 51.3,160.9 128.5,160.9 128.5,149.2
      119.6,149.2 119.6,136.6 109.7,126.7 109.7,97.9     "/>
    <polygon class="st1" points="120.8,148.3 120.8,136.4 110.9,126.5 110.9,98.8 108.8,97.6 108.8,97.6 108.8,127.3 118.7,137.2
      118.7,150.4 127.6,150.4 127.6,160 52.4,160 52.4,150.5 61.3,150.5 61.3,137.3 71.3,127.3 71.3,97.6 71.2,97.5 69.1,98.6
      69.2,98.6 69.2,126.4 59.2,136.4 59.2,148.3 50.3,148.3 50.3,162.2 129.7,162.2 129.7,148.3     "/>
    <rect x="70.1" y="96.9" class="st1" width="39.6" height="2.1"/>
    <rect x="70.1" y="125.6" class="st1" width="39.6" height="2.1"/>
    <rect x="60.2" y="135.5" class="st1" width="59.5" height="2.1"/>
    <rect x="60.2" y="148.1" class="st1" width="59.5" height="2.1"/>
    <path class="st2" d="M87.7,33l-0.5,0.7l-0.9,1c-5,5.7-10,9.7-15.1,13.6c-5.2,3.9-8.2,9.9-8.2,16.4c-0.2,3.6,0.7,7.2,2.5,10.3
      c1.5,2.9,3.2,4.7,9.9,8.5L69,99.4l2.8-1l-0.1-0.1L78,82.5l-1.6-0.9c-6.3-3.6-7.8-5.1-9.1-7.7c-1.6-2.8-2.3-6-2.2-9.3
      c0-5.8,2.7-11.3,7.4-14.7c5.2-4,10.3-8,15.4-13.9l0.9-1l0.6-0.8L87.7,33z"/>
    <path class="st2" d="M114.9,75c1.7-3.2,2.5-6.8,2.4-10.4c-0.2-4.7-1.7-11.4-8.2-16.3c-5.7-4.2-10.4-8.1-15.1-13.6l-0.8-1L92.7,33
      L91,34.2l0.5,0.8l0.9,1.1c4.8,5.6,9.6,9.6,15.4,13.9c5.8,4.4,7.2,10.4,7.3,14.7c0.1,3.2-0.6,6.4-2.1,9.3c-1.5,2.6-3.1,4.2-9.1,7.7
      l-1.6,0.9l6.3,15.7l2.7,1.4l0.2-0.1l-6.5-16.1C111.5,79.7,113.2,78,114.9,75z"/>
    <path class="st0" d="M96.7,101.9h-0.1l1.9-0.2c4-0.5,7.9-1.5,11.7-2.8l-6.5-16l0.8-0.5c6.3-3.7,8-5.3,9.6-8.2
      c1.6-3.1,2.4-6.5,2.3-10c-0.2-4.5-1.7-11-7.8-15.7c-5.8-4.3-10.7-8.3-15.4-13.9l-0.9-1l-0.5-0.8h-3.3l-0.6,0.8l-0.9,1
      c-5.1,5.9-10.2,9.9-15.4,13.9c-5,3.7-7.9,9.5-7.9,15.7c-0.1,3.5,0.7,6.9,2.4,9.9c1.4,2.8,3,4.4,9.6,8.2l0.8,0.5l-6.5,16.1
      c3.8,1.3,7.7,2.3,11.7,2.8l1.9,0.2L96.7,101.9L96.7,101.9z"/>
    <path class="st1" d="M109.7,100c-3.7-1.4-7.5-2.4-11.3-3l-1.8-0.3c-4.3-0.4-8.7-0.5-13.1-0.3l-1.9,0.2c-3.9,0.4-7.7,1.2-11.5,2.4
      l-0.7-2c3.9-1.3,7.9-2.1,11.9-2.5l1.9-0.2c4.5-0.2,9-0.1,13.5,0.3l1.9,0.3c4,0.7,8,1.7,11.8,3.1L109.7,100z"/>
    <path class="st1" d="M104.4,84.6c-4.7-1.1-9.6-1.7-14.5-1.5c-4.9-0.1-9.7,0.4-14.5,1.5l-0.6-2.2c4.9-1.2,10-1.7,15.1-1.7
      c5.1-0.1,10.1,0.5,15.1,1.7L104.4,84.6z"/>
    <circle class="st0" cx="90" cy="26" r="7.1"/>
    <path class="st1" d="M90,34.2c-4.5,0-8.2-3.7-8.2-8.2c0-4.5,3.7-8.2,8.2-8.2c4.5,0,8.2,3.7,8.2,8.2S94.5,34.2,90,34.2L90,34.2z
       M90,20C86.7,20,84,22.7,84,26c0,3.3,2.7,6.1,6.1,6.1c3.3,0,6.1-2.7,6.1-6.1l0,0C96.1,22.7,93.4,20,90,20z"/>
    <path class="st1" d="M87.7,68.7v-5.1l-5.2-0.1c-1,0.1-2-0.6-2.1-1.6c0-0.2,0-0.4,0-0.5c-0.1-1,0.6-2,1.6-2.1c0.2,0,0.4,0,0.5,0
      h5.2v-5.5c0-1.4,0.8-2.2,2.3-2.2c1.1-0.1,2.1,0.6,2.2,1.7c0,0,0,0,0,0c0,0.2,0,0.3,0,0.5v5.4h5.4c1.4,0,2.1,0.7,2.1,2.1
      s-0.7,2.1-2.1,2.1h-5.4v5.2c0,1.5-0.8,2.3-2.2,2.3c-1.1,0.1-2.1-0.6-2.3-1.7C87.7,69.1,87.7,68.9,87.7,68.7z"/>
  </g>
</g>
</svg>
