
<svg version="1.1" id="Layer_1" xmlns="http://www.w3.org/2000/svg" xmlns:xlink="http://www.w3.org/1999/xlink" x="0px" y="0px"
   viewBox="0 0 180 180" style="enable-background:new 0 0 180 180;" xml:space="preserve">

<defs>
  <style>
    .b{fill:#1a1a1a;}
    .c{fill:#fff;}
    .d{opacity:0.2;}
    .e{opacity:0.2;}
    .f{fill:#BF3B43}
  </style>
</defs>
<title>alpha</title>
<g>
  <g>
    <path class="f" d="M125.48,139.29c-19.4-12.19-21.08-27.41-21.64-33.47h12.2l.61-1.14,.42-.78c1.3-2.38,2.16-3.95,2.16-7.49v-1.16l-.97-.64-12.88-8.49h-30.78l-12.87,8.49-.97,.64v1.16c0,3.54,.86,5.11,2.16,7.49l.42,.78,.61,1.14h12.2c-.54,6.06-2.19,21.25-21.64,33.47-8.7,5.47-13.69,15.86-13.69,28.5v2.16h98.35v-2.16c0-12.65-4.99-23.04-13.69-28.5Z" />
    <g class="d">
      <path d="M117.26,133.91c-11.63-8.13-12.42-23.99-13.16-27.61l11.72-.02,4.19-9.69s-9.36-10-15.35-10.19h0l-3.09-.22c.18,.16,10.14,10.82-.11,17.47H63.17l.48,2.7,12.38-.02s14.31,14.51,26.17,25.69c11.38,10.73,28.66,12.23,28.66,12.23,0,0-7.69-6.2-13.6-10.34Z" />
    </g>
    <g class="d">
      <path class="c" d="M73.79,96.41c.7-4.81,.71-10.2,.82-10.3l-14.3,10.3h13.49Z" />
    </g>
    <g class="d">
      <path class="c" d="M42.38,168.38c4.71-15.46,11.97-18.06,24.24-26.98,8.15-5.92,8-25.55,8-25.55,.19-.94-2.91,8.92-7.54,12.95-1.52,1.33-11.84,8.5-16.29,13.16-9.54,9.97-9.31,29.38-8.41,26.42Z" />
    </g>
    <path class="b" d="M139.17,171.95H40.83c-1.1,0-2-.9-2-2v-2.16c0-13.35,5.33-24.36,14.63-30.2,16.8-10.55,19.71-23.23,20.49-29.78h-9.99c-.74,0-1.41-.4-1.76-1.05l-1.03-1.91c-1.34-2.46-2.4-4.4-2.4-8.44v-1.16c0-.67,.34-1.3,.9-1.67l13.75-9.07c.34-.25,.75-.39,1.19-.39h30.78c.39,0,.77,.12,1.1,.33l13.85,9.13c.56,.37,.9,1,.9,1.67v1.16c0,4.04-1.06,5.99-2.4,8.44l-1.03,1.91c-.35,.65-1.03,1.05-1.76,1.05h-9.98c.8,6.57,3.74,19.26,20.48,29.78h0c9.3,5.84,14.63,16.85,14.63,30.2v2.16c0,1.1-.9,2-2,2Zm-96.35-4h94.35v-.16c0-11.95-4.65-21.72-12.76-26.81h0c-20.55-12.91-22.07-29.52-22.57-34.98-.05-.56,.13-1.12,.51-1.53,.38-.42,.92-.65,1.48-.65h11.01l.47-.87c1.24-2.27,1.92-3.51,1.92-6.53v-.09l-12.45-8.21h-29.58l-12.45,8.21v.09c0,3.02,.68,4.27,1.91,6.52l.48,.88h11.01c.56,0,1.1,.24,1.48,.65s.57,.97,.52,1.53c-.49,5.45-1.96,22.04-22.57,34.99-8.11,5.09-12.75,14.86-12.75,26.81v.16Z" />
  </g>
  <path class="f" d="M75.08,84.11h29.83c6.79-3.49,12.35-9.18,15.69-16.05l.27-.55-4.75,2.79c-6.53,3.83-14.74,2.69-19.98-2.77l-6.15-6.4-6.15,6.4c-5.24,5.46-13.45,6.59-19.98,2.77l-4.75-2.79,.27,.55c3.34,6.87,8.9,12.55,15.69,16.05Z" />
  <g class="e">
    <path d="M62.26,76.24s15.5,3.81,21.45-11.45l-5.81,4.52-3.73,1.07h-5.09l-6.81,5.85Z" />
  </g>
  <g class="e">
    <path d="M83.71,64.79s11.8,13.45,27.21,5.6l-6.29,.34-5.58-3.25-2.5-3.38-12.85,.7Z" />
  </g>
  <g class="e">
    <path d="M110.93,70.39s-4.28,13.94-23.7,15.72h18.16l6.8-4.36,5.55-5.51-6.81-5.85Z" />
  </g>
  <path class="b" d="M105.39,88.11h-30.79c-.31,0-.61-.07-.89-.21-7.77-3.87-14.13-10.29-17.92-18.09l-3.16-6.49c-.39-.79-.21-1.74,.44-2.34,.65-.6,1.61-.7,2.37-.26l10.45,6.13c4.92,2.89,11.12,2.03,15.07-2.09l7.59-7.91c.38-.39,.9-.62,1.44-.62h0c.54,0,1.07,.22,1.44,.62l7.59,7.91c3.95,4.12,10.15,4.97,15.07,2.09l10.45-6.13c.76-.45,1.72-.34,2.37,.26,.65,.6,.83,1.55,.44,2.34l-3.16,6.49c-3.79,7.8-10.16,14.22-17.92,18.09-.28,.14-.58,.21-.89,.21Zm-30.31-4h29.83c6.79-3.49,12.35-9.18,15.69-16.05l.27-.55-4.75,2.79c-6.53,3.83-14.74,2.69-19.98-2.77l-6.15-6.4-6.15,6.4c-5.24,5.46-13.45,6.59-19.98,2.77l-4.75-2.79,.27,.55c3.34,6.87,8.9,12.55,15.69,16.05Z" />
  <g>
    <circle class="f" cx="90" cy="53.92" r="12.1" />
    <path class="c d" d="M79.27,59.37c0-8.67,7.03-15.69,15.69-15.69,.54,0,1.07,.03,1.6,.08-1.89-1.22-4.14-1.93-6.56-1.93-6.68,0-12.1,5.42-12.1,12.1,0,2.02,.5,3.92,1.37,5.6,0-.05,0-.1,0-.15Z" />
    <g class="e">
      <path d="M97.54,44.46c.65,1.55,1.02,3.25,1.02,5.04,0,7.17-5.81,12.97-12.97,12.97-1.79,0-3.49-.36-5.04-1.02,2.22,2.78,5.63,4.56,9.46,4.56,6.68,0,12.1-5.42,12.1-12.1,0-3.83-1.78-7.24-4.56-9.46Z" />
    </g>
    <path class="b" d="M90,68.03c-7.78,0-14.1-6.33-14.1-14.1s6.33-14.1,14.1-14.1,14.1,6.33,14.1,14.1-6.33,14.1-14.1,14.1Zm0-24.2c-5.57,0-10.1,4.53-10.1,10.1s4.53,10.1,10.1,10.1,10.1-4.53,10.1-10.1-4.53-10.1-10.1-10.1Z" />
  </g>
  <g>
    <circle class="f" cx="121.65" cy="64.79" r="12.1" />
    <path class="c d" d="M110.92,70.24c0-8.67,7.03-15.69,15.69-15.69,.54,0,1.07,.03,1.6,.08-1.89-1.22-4.14-1.93-6.56-1.93-6.68,0-12.1,5.42-12.1,12.1,0,2.02,.5,3.92,1.37,5.6,0-.05,0-.1,0-.15Z" />
    <g class="e">
      <path d="M129.19,55.33c.65,1.55,1.02,3.25,1.02,5.04,0,7.17-5.81,12.97-12.97,12.97-1.79,0-3.49-.36-5.04-1.02,2.22,2.78,5.63,4.56,9.46,4.56,6.68,0,12.1-5.42,12.1-12.1,0-3.83-1.78-7.24-4.56-9.46Z" />
    </g>
    <path class="b" d="M121.65,78.9c-7.78,0-14.1-6.33-14.1-14.1s6.33-14.1,14.1-14.1,14.1,6.33,14.1,14.1-6.33,14.1-14.1,14.1Zm0-24.2c-5.57,0-10.1,4.53-10.1,10.1s4.53,10.1,10.1,10.1,10.1-4.53,10.1-10.1-4.53-10.1-10.1-10.1Z" />
  </g>
  <g>
    <circle class="f" cx="58.35" cy="64.79" r="12.1" />
    <path class="c d" d="M47.61,70.24c0-8.67,7.03-15.69,15.69-15.69,.54,0,1.07,.03,1.6,.08-1.89-1.22-4.14-1.93-6.56-1.93-6.68,0-12.1,5.42-12.1,12.1,0,2.02,.5,3.92,1.37,5.6,0-.05,0-.1,0-.15Z" />
    <g class="e">
      <path d="M65.89,55.33c.65,1.55,1.02,3.25,1.02,5.04,0,7.17-5.81,12.97-12.97,12.97-1.79,0-3.49-.36-5.04-1.02,2.22,2.78,5.63,4.56,9.46,4.56,6.68,0,12.1-5.42,12.1-12.1,0-3.83-1.78-7.24-4.56-9.46Z" />
    </g>
    <path class="b" d="M58.35,78.9c-7.78,0-14.1-6.33-14.1-14.1s6.33-14.1,14.1-14.1,14.1,6.33,14.1,14.1-6.33,14.1-14.1,14.1Zm0-24.2c-5.57,0-10.1,4.53-10.1,10.1s4.53,10.1,10.1,10.1,10.1-4.53,10.1-10.1-4.53-10.1-10.1-10.1Z" />
  </g>
</g>
</svg>
