<svg xmlns="http://www.w3.org/2000/svg" xml:space="preserve" id="Layer_1" x="0" y="0" style="enable-background:new 0 0 180 180" version="1.1" viewBox="0 0 180 180"><defs><style>.cls-3,.cls-4{opacity:.2}.cls-4{fill:#fff}.cls-5{fill:#1a1a1a}</style></defs><path d="M0 0h180v180H0z" style="fill:none"/><path d="M87.82 16.94a12.94 12.94 0 0 0-9.5 21.73 107 107 0 0 0-14.48 14.24C53 65.83 47.3 79.41 47.3 92.18c0 20.8 9.43 33.35 16.42 39.19-2.32.21-4.52.44-6.63.71-19.24 2.45-19.21 12.78-19.18 24.74v3.63h101.57v-3.63c0-12 .06-22.29-19.17-24.74-2.11-.27-4.31-.5-6.63-.71 7-5.84 16.42-18.39 16.42-39.19 0-20.46-13.49-35.94-22.13-44.54l-1.82-1.82-1.31 2.18c-1.5 2.53-8.82 14.46-9.13 44.61H82c.48-45 18-62 18.18-62.16l.65-.65-.07-.91a13 13 0 0 0-12.9-12Z" style="fill:#fff"/><path d="M115.68 57.6c22.72 55.13-27.07 71.83-27.07 71.83l25.07 1.94c-2.44 1.85 16-5.24 16-41.36a43.76 43.76 0 0 0-14-32.41Z" class="cls-3"/><path d="M81.45 38.77c-2.67-1.22-28.61 20.58-32.9 42.92-4 20.81 3.2 26.56 2.77 26.39 0-.13 2.78-45.8 32.83-68.11 0 .03-1.15-.5-2.7-1.2ZM89.65 18.84c-4.34.39-11.78 6.67-12.4 15.35 0 0-6-5.57.06-12.49 4.74-5.46 12.34-2.86 12.34-2.86ZM88.7 138.41c43.07 0 47.54 4.75 47.54 4.75h.59c-1.93-10.18-24.5-11.3-24.5-11.3h-47.1s-23.36.81-24.66 11.3h.59s4.47-4.75 47.54-4.75Z" class="cls-4"/><path d="M86.73 57c1.84-5.06 14.08-29 14.08-29l-5.54-9.19-2.87.06c9.19 11.26-18 37-18 56.43 0 5.69 1.39 17.22 5.53 19.31.07.04 2.98-27.07 6.8-37.61Z" class="cls-3"/><path d="M87.82 18.94a10.94 10.94 0 0 1 10.91 10.13S80 46.81 80 94.65h17.7c0-29.93 7-42.36 8.86-45.59 9.46 9.42 21.54 24 21.54 43.12 0 26.23-15.31 38.41-20.33 40.76 4.33.27 8.43.63 12.29 1.12 18.25 2.33 17.42 11.29 17.42 24.39H39.92c0-13.1-.83-22.06 17.42-24.39 3.85-.49 8-.85 12.29-1.12-5-2.35-20.33-14.53-20.33-40.76 0-30.08 32.15-53.41 32.15-53.41a10.94 10.94 0 0 1 6.37-19.83m0-4a14.93 14.93 0 0 0-12.28 23.43 109.36 109.36 0 0 0-13.23 13.26c-11.13 13.28-17 27.3-17 40.55 0 18.39 7.2 30.63 13.88 37.63l-2.35.29c-21 2.67-20.95 14.35-20.92 26.73v5.62h105.56v-5.62c0-12.38.07-24.06-20.92-26.73-.77-.1-1.55-.2-2.34-.28 6.68-7 13.88-19.25 13.88-37.64 0-15.71-7.43-30.74-22.72-46l-3.65-3.63-2.61 4.45c-5.76 9.76-9 24.78-9.38 43.63H84c.5-21.46 5-36 8.75-44.55 4.32-9.79 8.7-14.09 8.74-14.13l1.35-1.3-.12-1.88a15 15 0 0 0-14.9-13.85Z" class="cls-5"/><path d="M88.7 132.41c9 0 17.15.28 24.57.93l1.91-3.84c-7.68-.73-16.4-1.09-26.48-1.09-10.19 0-19 .36-26.73 1.11l1.18 3.91c7.68-.71 16.19-1.02 25.55-1.02Z" class="cls-5"/></svg>