<svg xmlns="http://www.w3.org/2000/svg" xml:space="preserve" id="Layer_1" x="0" y="0" style="enable-background:new 0 0 180 180" version="1.1" viewBox="0 0 180 180"><defs><style>.b{fill:#1a1a1a}.c{fill:#fff}.d{opacity:.2}.f{fill:#fff}</style></defs><path d="M24.24 74.3c.41-5.84 6.11-13.57 12.76-18.87 6.65-5.29 5.59-6.34 8.82-9.09 3.66-3.12 9.36-6.24 16.42-7.06 7.06-.81 16.42-5.7 16.42-5.7s15.43-6.03 30.96 5.6c0 0 10.17-7.36 22.93-2.47 0 0 1.65 10.91-7.93 20.86.81 1.51 1.6 3.1 2.37 4.79 0 0 6.11 11.26 3.66 33.12s-7.33 30.05 8.01 53.53l-82.79-4.17s-1.13-11.54 13.54-23.33c9.77-7.86 8.91-20.95 7.43-22.95 0 0-11.6-1.99-18.32-10.84 0 0-7.33 2.43-11.3 7.01-3.97 4.59-9.16 2.15-10.38 1.23s-7.63-5.19-4.89-14.05c0 0-8.11-1.76-7.7-7.6Z" class="f"/><path d="M119.15 61.58s10.17 6.22 11.92 18.93l-2.76-14.91-3.2-8.03-3.93 2.83-2.03 1.18Z" class="d"/><path d="M109.62 43.39c-15.53-11.63-30.96-5.6-30.96-5.6s-9.36 4.89-16.42 5.7c-7.06.81-12.76 3.94-16.42 7.06-3.23 2.75-2.17 3.8-8.82 9.09-5.94 4.73-11.12 11.4-12.45 16.93a5.4 5.4 0 0 1-.31-2.28c.41-5.84 6.11-13.57 12.76-18.87 6.65-5.29 5.59-6.34 8.82-9.09 3.66-3.12 9.36-6.24 16.42-7.06 7.06-.81 16.42-5.7 16.42-5.7s15.43-6.03 30.96 5.6c0 0 10.17-7.36 22.93-2.47 0 0 .24 1.63 0 4.21-12.75-4.88-22.92 2.48-22.92 2.48Z" class="c d"/><path d="M129.83 101.86c-2.43 17.33-4.92 26.09 8.82 47.14h-6c-8.04-9.28-13.47-31.27-2.82-47.14ZM95.56 101.17s-4.11 6.95-24.14 18.48l4.26-9.52 2.1-8.67-.74-2.56 7.32.92 11.2 1.36Z" class="d"/><path d="M78.43 53.14s7.79-1.51 12.77-2.06c4.98-.54 3.28 8.5-4.11 8.87-8.65.43-8.65-6.82-8.65-6.82Z" class="b"/><path d="M75.41 85.84s-10.58 9.29 4.89 13.57l-9.81-2.83-8.27-4.98-3.7-3.89 7.54-1.91 9.36.04Z" class="d"/><path d="M88.34 146.47c3.7-4.83 6.16-10.49 7.13-16.5 1.13-6.97 2.87-15.46 2.87-15.46s4.4 28.7 10.65 32.99l-20.65-1.04Z" class="c d"/><path d="M33.88 66.59c-3.64 0-5.71-1.23-5.85-1.32a2.009 2.009 0 0 1-.66-2.75c.57-.93 1.79-1.23 2.73-.67.22.13 4.31 2.32 11.71-1.4.99-.49 2.19-.1 2.69.89a2 2 0 0 1-.89 2.69c-3.92 1.97-7.2 2.56-9.72 2.56ZM113.89 43.63s5.9-4.75 13.03-3.19c0 0-1.63 7.48-6.51 10.63 0 0-1.83-4.79-6.51-7.44Z" class="b"/><path d="M48.48 80.51s-3.44 2.95-7.89 4.44c-4.58 1.53-6.27 7.25-3.24 11.01.16.2.33.39.51.58l-5.05-4.8-1.43-4.04.13-4.05-.65-2.06 4.38.82 4.8-.32 8.45-1.58Z" class="d"/><path d="M138.66 151h-.1l-82.79-4.17c-.99-.05-1.79-.82-1.89-1.8-.05-.51-1.06-12.75 14.27-25.08 8.2-6.59 7.97-16.86 7.26-19.65-3.01-.71-11.59-3.24-17.55-10.2-2.15.88-6.53 2.92-9.14 5.94-4.86 5.62-11.24 2.91-13.09 1.52l-.15-.11c-6.06-4.46-6.76-9.87-5.94-14.16-3.5-1.27-7.64-4.14-7.29-9.12.49-6.98 7.13-15.22 13.51-20.29 3.79-3.02 4.9-4.53 5.88-5.86.7-.96 1.43-1.94 2.89-3.19 2.79-2.38 8.77-6.52 17.49-7.52 6.61-.76 15.64-5.44 15.73-5.49.06-.03.13-.06.2-.09.66-.26 15.92-6.02 31.76 5.04 3.25-1.9 12.46-6.18 23.57-1.93.67.26 1.16.86 1.26 1.57.07.47 1.57 11.25-7.48 21.48.6 1.17 1.18 2.37 1.74 3.59.57 1.09 6.27 12.64 3.86 34.22-.41 3.63-.89 6.95-1.31 9.88-2.19 15.06-3.39 23.35 9.01 42.33.41.63.43 1.44.06 2.09-.36.62-1.02 1-1.73 1Zm-80.75-8.07 77 3.88c-10.99-18.02-9.66-27.18-7.54-41.81.44-3.04.9-6.18 1.3-9.75 2.33-20.85-3.38-31.84-3.44-31.95l-.06-.12c-.73-1.6-1.51-3.18-2.31-4.68a2 2 0 0 1 .32-2.33c7.04-7.31 7.55-15.14 7.47-18.02-11.06-3.59-19.77 2.58-19.86 2.64-.71.51-1.67.51-2.37-.02-13.9-10.41-27.75-5.8-28.95-5.36-1.16.6-10.01 5.05-17 5.85-7.66.88-12.91 4.51-15.35 6.59-1.11.94-1.62 1.64-2.26 2.51-1.07 1.46-2.4 3.27-6.62 6.62-6.62 5.27-11.67 12.6-12.01 17.44-.28 4 6.07 5.49 6.13 5.51.55.12 1.02.46 1.3.95s.35 1.06.18 1.6c-2.22 7.15 2.46 10.59 4 11.72l.18.13s4.31 2.95 7.67-.94c4.28-4.95 11.86-7.5 12.18-7.6.81-.27 1.71 0 2.22.69 6.14 8.09 16.96 10.06 17.07 10.08.51.09.96.37 1.27.78 2.18 2.94 2.88 17.13-7.79 25.7-10.45 8.4-12.42 16.45-12.75 19.87Z" class="b"/><path d="M36.07 84.4c-3.04 0-4.68-.57-4.81-.62a2.003 2.003 0 0 1-1.2-2.56 1.994 1.994 0 0 1 2.54-1.2c.14.04 5.28 1.65 14.8-2.02 1.03-.4 2.19.12 2.58 1.15.4 1.03-.12 2.19-1.15 2.58-5.51 2.12-9.81 2.67-12.78 2.67ZM95.57 102.63h-.05c-15.26-.41-19.16-2.1-19.55-2.29a2.004 2.004 0 0 1-.93-2.67c.48-.98 1.65-1.4 2.63-.94.22.09 3.89 1.53 17.95 1.9 1.1.03 1.97.95 1.95 2.05a2.002 2.002 0 0 1-2 1.95ZM58.51 89.7c-.83 0-1.61-.52-1.89-1.35-.36-1.05.2-2.18 1.25-2.54.42-.14 10.38-3.5 17.81-2.5 1.09.15 1.86 1.15 1.72 2.25a2.012 2.012 0 0 1-2.25 1.72c-6.52-.88-15.89 2.29-15.98 2.32-.21.07-.43.11-.65.11ZM117.74 64.25c-.77 0-1.51-.45-1.83-1.2-.44-1.01.02-2.19 1.04-2.63 4.01-1.74 6.14-4.14 6.17-4.16.73-.83 1.99-.91 2.82-.19.83.72.92 1.98.2 2.81-.11.12-2.69 3.08-7.59 5.21-.26.11-.53.17-.8.17Z" class="b"/><path d="M79.59 91.57c1.42-3.62 6.58-7.39 11.85-9.42 5.27-2.03 4.81-2.91 7.41-4.01 2.95-1.25 7.18-2.09 11.82-1.21 4.64.89 11.55-.34 11.55-.34s10.98-.75 18.52 9.72c0 0 7.92-2.64 15.03 3 0 0-1.13 7.25-9.19 11.65.21 1.12.39 2.29.55 3.51 0 0 1.63 8.36-4.27 21.73-5.9 13.37-10.63 17.6-5.58 35.54L85.6 142.6s1.58-7.54 13.23-12.1c7.76-3.04 9.83-11.52 9.29-13.08 0 0-6.96-3.57-9.46-10.53 0 0-5.13.08-8.56 2.2-3.43 2.12-6.24-.46-6.83-1.29s-3.81-4.81-.3-9.88c0 0-4.79-2.73-3.37-6.35Z" class="f"/><path d="M142.32 102.4s5.21 5.97 3.79 14.38l1.22-10.01-.43-5.73-3.06 1.01-1.52.34Z" class="d"/><path d="M139.9 88.97c-7.53-10.47-18.52-9.72-18.52-9.72s-6.91 1.23-11.55.34c-4.64-.89-8.88-.04-11.82 1.21-2.59 1.1-2.13 1.98-7.41 4.01-4.71 1.82-9.32 5.02-11.27 8.26-.02-.48.05-.98.26-1.51 1.42-3.62 6.58-7.39 11.85-9.42 5.27-2.03 4.81-2.91 7.41-4.01 2.95-1.25 7.18-2.09 11.82-1.21 4.64.89 11.55-.34 11.55-.34s10.98-.75 18.52 9.72c0 0 7.92-2.64 15.03 3 0 0-.17 1.08-.84 2.67-7.12-5.64-15.03-2.99-15.03-2.99Z" class="c d"/><path d="M141.07 130.08c-4.99 10.51-8.32 15.57-3.79 31.66l-3.81-1.2c-3.25-7.49-2.32-22.52 7.6-30.46ZM119.47 122.82s-3.99 3.59-18.99 6.91l4.6-5.19 3.06-5.08.04-1.77 4.46 2.04 6.83 3.09Z" class="d"/><path d="M118.17 88.94s5.24.59 8.51 1.24.38 6.04-4.37 4.81c-5.58-1.45-4.13-6.05-4.13-6.05Z" class="b"/><path d="M109.74 109.08s-8.56 3.78.4 9.58l-5.66-3.75-4.25-4.8-1.57-3.2 5.16.29 5.93 1.89Z" class="d"/><path d="M105.87 150.11c3.31-2.33 6-5.43 7.81-9.04 2.1-4.19 4.9-9.23 4.9-9.23s-2.92 19.08.18 23.05l-12.89-4.77Z" class="c d"/><path d="M91.03 89.83c-5.16 0-7.47-2.46-7.75-2.79-.72-.83-.64-2.1.2-2.82.82-.72 2.06-.64 2.79.17.13.13 2.12 2.06 7.11 1.24 1.09-.18 2.12.56 2.29 1.65.18 1.09-.56 2.12-1.65 2.3-1.09.18-2.08.25-2.99.25ZM142.56 89.97s4.69-1.84 8.9.57c0 0-2.52 4.42-6.25 5.44 0 0-.21-3.4-2.65-6.01Z" class="b"/><path d="M93.73 100.34s-2.77 1.19-5.89 1.25c-3.21.06-5.42 3.35-4.25 6.34.06.16.13.31.21.47l-2.25-4.05-.1-2.85.89-2.54v-1.44l2.61 1.39 3.11.75 5.67.68Z" class="d"/><path d="M137.28 163.74c-.23 0-.47-.04-.69-.12l-51.68-19.14a1.993 1.993 0 0 1-1.26-2.29c.07-.35 1.95-8.66 14.46-13.55 5.76-2.25 7.75-7.95 8.05-10.04-2.02-1.26-6.43-4.45-8.81-9.61-1.59.16-4.27.61-6.21 1.81-4.13 2.55-8.02.24-9.51-1.82l-.07-.09c-3.05-4.16-2.41-7.88-1.24-10.38-1.99-1.69-3.86-4.44-2.6-7.66 1.77-4.52 7.8-8.56 12.99-10.56 2.93-1.13 3.89-1.84 4.74-2.46.67-.49 1.36-.99 2.6-1.52 2.31-.98 7.08-2.46 12.98-1.33 4.23.81 10.76-.34 10.82-.35l.21-.03c.48-.03 11.42-.66 19.46 9.45 2.84-.56 9.39-1.13 15.48 3.69.56.45.84 1.16.73 1.88-.05.32-1.26 7.51-8.95 12.36.12.72.22 1.45.31 2.19.17.98 1.43 9.59-4.42 22.84-.99 2.23-1.96 4.25-2.81 6.02-4.31 8.97-6.69 13.91-2.68 28.17.2.72-.02 1.5-.57 2.01-.38.35-.86.53-1.36.53Zm-49.09-22.31 46.21 17.11c-2.97-13.01-.17-18.82 3.88-27.25.88-1.84 1.8-3.73 2.75-5.91 5.58-12.65 4.15-20.47 4.14-20.54 0-.05-.02-.09-.02-.14-.14-1.15-.32-2.29-.53-3.39-.16-.85.25-1.71 1.01-2.13 5.29-2.89 7.22-7.08 7.87-9.08-5.84-3.89-11.87-2-12.14-1.92-.83.27-1.74-.03-2.25-.73-6.48-9.01-15.59-8.94-16.67-8.89-1.03.17-7.51 1.21-12.15.32-5.04-.97-9.14.43-10.66 1.08-.82.35-1.23.65-1.8 1.07-1 .73-2.25 1.65-5.67 2.97-5.09 1.96-9.59 5.45-10.71 8.29-.76 1.93 2.48 3.87 2.51 3.89.48.28.83.75.95 1.3.12.54.01 1.12-.3 1.58-2.3 3.32-.99 5.84.19 7.45l.09.12s1.76 2.24 4.16.75c3.86-2.38 9.35-2.49 9.58-2.5.87 0 1.62.52 1.91 1.32 2.19 6.1 8.43 9.39 8.5 9.42.46.24.81.64.97 1.12 1.01 2.92-2.05 12.31-10.45 15.6-7.33 2.87-10.26 6.87-11.38 9.06ZM79.6 91.57Z" class="b"/><path d="M91.7 101.92c-6.6 0-9.61-2.14-9.96-2.41a1.994 1.994 0 0 1-.37-2.8c.66-.87 1.9-1.04 2.78-.39.1.07 2.92 1.95 9.35 1.54 1.12-.05 2.05.77 2.12 1.87.07 1.1-.77 2.05-1.87 2.12-.72.05-1.41.07-2.06.07ZM119.58 124.48c-.22 0-.43-.04-.65-.11-9.53-3.27-11.82-5.15-12.19-5.49a2.004 2.004 0 0 1 2.7-2.96c.16.13 2.26 1.73 10.79 4.66 1.04.36 1.6 1.5 1.24 2.54-.29.83-1.06 1.35-1.89 1.35ZM109.85 110.73c-.28 0-.57-.06-.85-.19-3.8-1.78-10.23-1.65-10.3-1.65h-.05c-1.08 0-1.97-.86-2-1.95-.03-1.1.85-2.02 1.95-2.05.31 0 7.44-.16 12.1 2.03 1 .47 1.43 1.66.96 2.66a1.99 1.99 0 0 1-1.81 1.15ZM141.29 104.55a2 2 0 0 1-.21-3.99c2.72-.29 4.45-1.31 4.46-1.32.94-.57 2.17-.27 2.74.67.57.94.29 2.16-.65 2.74-.25.15-2.52 1.5-6.14 1.89-.07 0-.14.01-.21.01Z" class="b"/><path d="M47.21 166.53V170h97.58v-3.47c.03-10.4.05-19.45-13.35-22.86 0 0-47.49-4.72-70.89 0-13.4 3.4-13.38 12.46-13.35 22.86Z" class="f"/><path d="M130.56 143.63c-9.22-1.86-22.27-2.22-34.56-1.98-12.29-.24-25.34.12-34.56 1.98-9.02 2.29-11.8 7.21-12.65 13.38 0 0 7.66-7.39 47.21-7.39s47.21 7.38 47.21 7.39c-.85-6.16-3.63-11.09-12.65-13.38Z" class="c d"/><path d="M144.79 172H47.21c-1.1 0-2-.9-2-2v-3.46c-.03-10.33-.06-21.01 14.86-24.8 23.51-4.75 69.62-.25 71.58-.05.1 0 .2.03.29.05 14.91 3.79 14.89 14.47 14.86 24.8V170c0 1.1-.9 2-2 2Zm-95.58-2Zm0-2h93.58v-1.47c.03-10.35.05-17.83-11.7-20.88-2.95-.28-47.96-4.5-70.14-.02-11.79 3-11.77 10.5-11.75 20.89v1.47Z" class="b"/></svg>