
<svg version="1.1" id="Layer_1" xmlns="http://www.w3.org/2000/svg" xmlns:xlink="http://www.w3.org/1999/xlink" x="0px" y="0px"
   viewBox="0 0 180 180" style="enable-background:new 0 0 180 180;" xml:space="preserve">

  <style type="text/css">
    .st0{fill:none;}
    .st1{fill:#BF3B43;}
    .st2{opacity:0.2;fill:#FFFFFF;enable-background:new    ;}
    .st3{opacity:0.2;enable-background:new    ;}
  </style>
  <title>r</title>
  <g id="cannon_neo">
    <rect class="st0" width="180" height="180"/>
    <g id="cannon_1_">
      <path class="st1" d="M90,28.1c2.9-0.1,5.7,0.3,8.5,1l2.2,0.4l0.3,2.3l2,17.9l0.2,1.5h7.6l0.3-1.4l3.5-15.4l0.5-2.3h2.3
        c6.2,0,10.7,1.5,16.2,4.5l1.8,1v38.9l0,0v23.8h6.5V60.7c0-4.4,3.6-7.9,7.9-7.9h2.6c4.4,0,7.9,3.6,7.9,7.9v92.2
        c0,4.4-3.6,7.9-7.9,7.9h-2.6c-4.4,0-7.9-3.5-7.9-7.9v-39.6h-6.5v1.7c-0.1,3.7-0.3,7.6-1.9,10.9c-2.2,4.8-5,7.7-12.1,9.2l0,0
        c-1.9,0.4-3.3,0.6-3.4,0.6h-0.1c-9,1.2-18.2,1.8-27.3,1.7c-9.1,0.1-18.2-0.4-27.2-1.7h-0.1c-0.3,0-0.4-0.2-3.5-0.8h-0.1
        c-6.7-1.5-10.9-4.5-13-9.2c-1.4-3.3-1.7-7.1-1.8-10.7v-1.7h-6.5v39.6c0,4.4-3.6,7.9-7.9,7.9h-2.6c-4.4,0-7.9-3.5-7.9-7.9V60.7
        c0-4.4,3.6-7.9,7.9-7.9h2.6c4.4,0,7.9,3.6,7.9,7.9v39.6h6.5V37.7l1.8-1c5.4-3,9.9-4.5,16.2-4.5h2.3l0.5,2.3l3.4,15.4l0.3,1.4H77
        l0.2-1.5l2-17.9l0.3-2.3l2.2-0.4C84.3,28.4,87.1,28.1,90,28.1L90,28.1z"/>
      <g>
        <path class="st2" d="M45.1,62.4c0.1-11.5,0.1-26.1,0.1-26.1s18.8-6,15.3-3.6c-12.3,8.4-13.6,31.6-13.6,31.6L45.1,62.4z"/>
        <path class="st2" d="M93.4,30.2c-13.7,2.5-16.2,22.4-16.2,22.4c0.9-14.9,4-23.4,4-23.4S97.3,29.5,93.4,30.2z"/>
        <path class="st2" d="M124.5,34.3c-8.9,4.7-14.3,18.3-14.3,18.3c-0.5-4.8,6.2-21.6,6.2-21.6S127.8,32.6,124.5,34.3z"/>
      </g>
      <g>
        <path class="st3" d="M155,54.2c0,0.2,0.1,3.7,0.1,3.9v92.2c0,3.1-2.5,5.7-5.7,5.7l0,0h-4.8c-0.7,0,3,4.6,5.9,4.6h2.6
          c3.1,0,5.7-2.5,5.7-5.7l0,0V59.5C158.7,57.2,157.2,55,155,54.2z"/>
        <path class="st3" d="M135.7,43.3l-2.6-5.5c-2,12-1,59.6-17.2,75c-12,11.4-19.3,13.4-24.5,13.7l0,0c-0.5,0-1,0.1-1.4,0.1
          c-0.5,0-0.9,0-1.4-0.1l0,0c-5.2-0.3-12.5-2.3-24.5-13.7c-7.1-6.7-9.7-19.6-12.2-33h-7.7c0.3,21.2,1.2,44.6,4.2,48.9
          c0,0,3.1,8.2,40.4,8.5h2.5c37.3-0.4,40.4-8.5,40.4-8.5C137.2,120.6,135.7,43.3,135.7,43.3z"/>
        <path class="st3" d="M33.2,54.2c0,0.2,0.1,3.7,0.1,3.9v92.2c0,3.1-2.5,5.7-5.7,5.7l0,0H23c-0.7,0,2.8,4.6,5.6,4.6h2.6
          c3.1,0,5.7-2.5,5.7-5.7V59.5C36.9,57.2,35.4,55,33.2,54.2z"/>
        <rect x="38.4" y="100.1" class="st3" width="5.9" height="12.2"/>
        <rect x="134.4" y="99.9" class="st3" width="7" height="12.6"/>
      </g>
      <path d="M152.2,50.6h-2.6c-5.5,0-9.9,4.5-9.9,9.9v37.6h-2.5V36.3l-2.8-1.6c-5.2-2.8-10-4.7-17.1-4.7h-3.9l-4.3,19.1h-4.2
        l-2.4-21.4l-3.6-0.6C96,26.4,93,26,90,26.1h-0.4c-2.9,0-5.7,0.3-8.5,1l-3.6,0.6l-2.4,21.4h-4.2L66.7,30h-3.9
        c-6.2,0-11,1.3-17.1,4.7l-2.8,1.6v61.8h-2.5V60.5c0-5.5-4.5-9.9-9.9-9.9h-2.6c-5.5,0-9.9,4.5-9.9,9.9v92.2c0,5.5,4.5,9.9,9.9,9.9
        h2.6c5.5,0,9.9-4.4,9.9-9.9v-37.6h2.5c0.1,3.8,0.4,7.7,1.9,11.3c2.4,5.3,7.1,8.7,14.4,10.3l0.3,0.1l0,0c1.7,0.3,2.4,0.5,2.7,0.6
        c0.2,0.1,0.5,0.1,0.9,0.2c8.2,1.1,16.6,1.7,24.9,1.7c0.8,0,1.6,0,2.4,0c9.1,0.1,18.4-0.4,27.4-1.7h0.3c0.1,0,1.5-0.3,3.5-0.6
        c8.1-1.7,11.3-5.4,13.5-10.3c1.6-3.6,1.9-7.6,2-11.5h2.5v37.6c0,5.5,4.5,9.9,9.9,9.9h2.6c5.5,0,9.9-4.4,9.9-9.9V60.6
        C162.1,55.1,157.7,50.6,152.2,50.6z M47.6,38.3c5.6-3.1,9.7-4.2,15.2-4.2h0.7l3.6,16.2l0.7,2.9h11l2.4-22l0.7-0.1h0.2
        c2.6-0.7,5.3-1,7.9-0.9h0.7h0.1c2.5,0,4.9,0.3,7.3,0.9l0.8,0.1l2.4,22h11l4.3-19.1h0.7c5.5,0,9.6,1.1,15.2,4.2l0.8,0.4v38.6H47
        V38.7L47.6,38.3z M36.4,152.8c0,3.3-2.7,5.9-5.9,5.9h-2.6c-3.3,0-5.9-2.7-5.9-5.9V60.6c0-3.3,2.7-5.9,5.9-5.9h2.6
        c3.3,0,5.9,2.7,5.9,5.9v37.6v17.1V152.8z M42.9,111.2h-2.5v-9.1h2.5V111.2z M63.5,133.7h-0.2l0,0c-0.4-0.1-1.2-0.3-3.2-0.7h-0.2
        c-5.9-1.4-9.7-4-11.4-8c-1.3-3-1.5-6.6-1.6-9.9v-14.8v-2V81.5H88v54C79.8,135.3,71.6,134.7,63.5,133.7z M131.5,125
        c-1.8,4-4.2,6.6-10.7,8c-1.5,0.3-2.7,0.5-3.2,0.6h-0.2c-8.4,1.1-17,1.7-25.5,1.7v-54h41.2v16.8l0,0v14.7v2
        C133.1,118.4,132.9,122,131.5,125z M137.2,111.2v-9h2.5v9H137.2z M158.1,152.8c0,3.3-2.7,5.9-5.9,5.9h-2.6c-3.3,0-5.9-2.7-5.9-5.9
        v-37.6v-17V60.6c0-3.3,2.7-5.9,5.9-5.9h2.6c3.3,0,5.9,2.7,5.9,5.9V152.8z"/>
    </g>
  </g>
</svg>
