
<svg version="1.1" id="Layer_1" xmlns="http://www.w3.org/2000/svg" xmlns:xlink="http://www.w3.org/1999/xlink" x="0px" y="0px"
   viewBox="0 0 180 180" style="enable-background:new 0 0 180 180;" xml:space="preserve">

<defs>
  <style>
    .b{fill:#1a1a1a;}
    .c{fill:#fff;}
    .d{opacity:.2;}
    .e{fill:#BF3B43;}
  </style>
</defs>
<title>s</title>
<g>
  <polygon class="e" points="120.73 96.94 59.27 96.94 49.71 130.09 130.29 130.09 120.73 96.94" />
  <g class="d">
    <path d="M57.85,103.78h53.62s5.39,26.3-25.76,26.3h44.58l-9.55-33.15H59.27l-1.41,6.84Z" />
  </g>
  <polygon class="e" points="120.73 149.89 59.27 149.89 49.71 130.09 130.29 130.09 120.73 149.89" />
  <g class="d">
    <path d="M52.02,134.87s35.62-1.97,38.94,6.34c1.3,3.25,2.51,6.24,3.5,8.69h26.28l9.55-19.81H49.71l2.31,4.78Z" />
  </g>
  <path class="b" d="M120.73,151.89H59.27c-.77,0-1.47-.44-1.8-1.13l-9.56-19.81c-.3-.62-.26-1.35,.11-1.93s1.01-.94,1.69-.94h80.58c.69,0,1.33,.35,1.69,.94s.41,1.31,.11,1.93l-9.56,19.81c-.33,.69-1.03,1.13-1.8,1.13Zm-60.21-4h58.96l7.63-15.81H52.9l7.63,15.81Z" />
  <path class="b" d="M130.29,132.09H49.71c-.63,0-1.22-.29-1.6-.8-.38-.5-.5-1.15-.32-1.76l9.56-33.15c.25-.86,1.03-1.45,1.92-1.45h61.47c.89,0,1.67,.59,1.92,1.45l9.56,33.15c.17,.6,.05,1.25-.32,1.76-.38,.5-.97,.8-1.6,.8Zm-77.92-4H127.63l-8.4-29.15H60.77l-8.4,29.15Z" />
  <path class="e" d="M122.05,55.38H57.95c-.72,0-1.34,.49-1.52,1.18l-9.57,38.44c-.25,.99,.5,1.94,1.52,1.94h83.23c1.02,0,1.76-.95,1.52-1.94l-9.57-38.44c-.17-.7-.8-1.18-1.52-1.18Z" />
  <g class="d">
    <path d="M126.14,66.91s.24,30.03-41.29,30.03h46.77l1.31-.72,.2-1.22-6.99-28.09Z" />
  </g>
  <polygon class="c d" points="47.65 91.88 61.09 60.08 122.05 55.38 57.26 55.55 56.43 56.56 47.65 91.88" />
  <path class="b" d="M131.62,98.94H48.38c-1.1,0-2.13-.5-2.81-1.37-.68-.87-.92-1.98-.65-3.05l9.57-38.44c.4-1.59,1.82-2.7,3.46-2.7H122.05c1.64,0,3.06,1.11,3.46,2.7l9.57,38.44c.27,1.07,.03,2.18-.65,3.05-.68,.87-1.7,1.37-2.81,1.37Zm-82.67-4h82.11l-9.35-37.56H58.29l-9.35,37.56ZM122.05,57.38h0Z" />
  <polygon class="e" points="130.74 85.41 144.96 85.41 144.96 66.91 126.14 66.91 130.74 85.41" />
  <g class="d">
    <path d="M132.18,66.91s2.23,14.38,12.77,18.49h-14.21l-4.6-18.49h6.04Z" />
  </g>
  <polygon class="e" points="49.26 85.41 35.04 85.41 35.04 66.91 53.86 66.91 49.26 85.41" />
  <g class="d">
    <path d="M47.82,66.91s-2.23,14.38-12.77,18.49h14.21l4.6-18.49h-6.04Z" />
  </g>
  <path class="b" d="M144.96,87.41h-14.21c-.92,0-1.72-.63-1.94-1.52l-4.6-18.49c-.15-.6-.01-1.23,.37-1.71,.38-.49,.96-.77,1.58-.77h18.82c1.1,0,2,.9,2,2v18.49c0,1.1-.9,2-2,2Zm-12.65-4h10.65v-14.49h-14.26l3.61,14.49Z" />
  <g class="d">
    <circle cx="92.13" cy="78.29" r="9.25" />
  </g>
  <path class="b" d="M49.26,87.41h-14.21c-1.1,0-2-.9-2-2v-18.49c0-1.1,.9-2,2-2h18.82c.62,0,1.2,.28,1.58,.77,.38,.48,.51,1.12,.37,1.71l-4.6,18.49c-.22,.89-1.02,1.52-1.94,1.52Zm-12.21-4h10.65l3.61-14.49h-14.26v14.49Z" />
  <circle class="c d" cx="90" cy="76.16" r="9.25" />
  <path class="b" d="M90,87.41c-6.2,0-11.25-5.04-11.25-11.25s5.05-11.25,11.25-11.25,11.25,5.05,11.25,11.25-5.05,11.25-11.25,11.25Zm0-18.49c-4,0-7.25,3.25-7.25,7.25s3.25,7.25,7.25,7.25,7.25-3.25,7.25-7.25-3.25-7.25-7.25-7.25Z" />
  <g>
    <path class="e" d="M41.49,167.03v3.44h97.01v-3.45c.03-10.33,.05-19.34-13.27-22.72,0,0-47.21-4.7-70.47,0h0c-13.32,3.38-13.3,12.39-13.27,22.72Z" />
    <path class="c d" d="M124.36,144.26c-9.16-1.85-22.14-2.21-34.36-1.97-12.21-.23-25.19,.12-34.36,1.97-8.97,2.28-11.74,7.17-12.58,13.3,0,0,7.61-7.35,46.94-7.35s46.93,7.34,46.94,7.35c-.84-6.13-3.61-11.02-12.58-13.3Z" />
    <path class="b" d="M138.5,172.48H41.5c-1.1,0-2-.9-2-2v-3.44c-.03-10.27-.06-20.9,14.78-24.67,23.38-4.72,69.22-.24,71.16-.05,.1,0,.2,.03,.29,.05,14.83,3.77,14.81,14.39,14.78,24.66v3.44c0,1.1-.9,2-2,2Zm-95.01-4h93.01v-1.45c.03-10.28,.05-17.72-11.62-20.74-2.94-.28-47.67-4.47-69.72-.02-11.71,2.98-11.7,10.44-11.67,20.76h0v1.45Z" />
  </g>
  <path class="e" d="M74.08,55.38c0-8.79,7.13-15.92,15.92-15.92s15.92,7.13,15.92,15.92h-31.83Z" />
  <path class="c d" d="M93.34,39.81c-1.08-.23-2.19-.35-3.34-.35-8.79,0-15.92,7.13-15.92,15.92h6.67c0-7.65,5.39-14.03,12.58-15.56Z" />
  <path class="b" d="M105.92,57.38h-31.83c-1.1,0-2-.9-2-2,0-9.88,8.04-17.92,17.92-17.92s17.92,8.04,17.92,17.92c0,1.1-.9,2-2,2Zm-29.69-4h27.55c-.97-6.73-6.78-11.92-13.77-11.92s-12.8,5.19-13.77,11.92Z" />
</g>
</svg>
