<svg xmlns="http://www.w3.org/2000/svg" xml:space="preserve" id="Layer_1" x="0" y="0" style="enable-background:new 0 0 180 180" version="1.1" viewBox="0 0 180 180"><defs><style>.b{fill:#1a1a1a}.c{fill:#fff}.d{opacity:.2}.e{fill:#fff}</style></defs><path d="M54.2 144.96s1.52-6.52 20.62-19.76c19.09-13.24 17.23-26.43 17.23-26.43s-4.84 6.87-13.79 9.75c-10.13 3.26-18.26 10.3-21.63 12.68-6.75 4.77-14.32-3.48-14.32-3.48-6.97-1.55-11.61-9.03-9.55-13.93 2.06-4.9 11.09-15.74 15.48-34.83 4.39-19.09 19.87-29.15 19.87-29.15s9.8-8.34 28.21-4.73c18.4 3.61 35.16 22.75 40.42 34.06 14.79 31.82-.52 60.63-9.32 75.09l-73.21.75Z" class="e"/><path d="M43.36 167.02v3.46h97.37v-3.46c.03-10.37.05-19.41-13.32-22.81 0 0-47.39-4.71-70.73 0-13.37 3.4-13.35 12.43-13.32 22.81Z" class="e"/><path d="M126.53 144.16c-9.2-1.86-22.23-2.21-34.49-1.98-12.26-.24-25.29.12-34.49 1.98-9 2.29-11.78 7.2-12.63 13.35 0 0 7.64-7.37 47.11-7.37s47.11 7.37 47.11 7.37c-.85-6.15-3.62-11.06-12.63-13.35Z" class="c d"/><path d="M140.73 172.48H43.36c-1.1 0-2-.9-2-2v-3.45c-.03-10.31-.06-20.97 14.83-24.75 23.46-4.74 69.47-.24 71.42-.05.1 0 .2.03.29.05 14.89 3.78 14.86 14.44 14.83 24.75v3.45c0 1.1-.9 2-2 2Zm-95.37-4h93.37v-1.46c.03-10.32.05-17.79-11.67-20.83-2.95-.28-47.85-4.49-69.99-.02-11.76 2.99-11.75 10.48-11.72 20.84v1.46Z" class="b"/><path d="M127.41 144.21c8.81-14.46 24.12-43.27 9.32-75.09-2.01-4.33-5.72-9.81-10.56-15.13s28.1 44.67-19.89 88.12c-.87.79-1.68 1.56-2.45 2.34l23.57-.24ZM92.04 98.77s1.27 9.04-9.11 19.66c15.68-8.58 16.65-24.79 14.24-24.8s-5.13 5.14-5.13 5.14Z" class="d"/><path d="M73.56 36.74c-3.6 1.48-5.45 3.06-5.45 3.06S52.63 49.86 48.24 68.95c-2.3 10-5.87 17.73-9.05 23.54s8.79-6.64 11.76-18.38c2.97-11.74 8.33-27.14 22.61-37.37Z" class="c d"/><path d="M42.31 117.72s-.21-.08.42.71l3.35-2.07 7.51-6.38 1.68-6.18-1.6-5.54-3.29-3.02-4.21-1.6-4.75.07-3.23.58a863.83 863.83 0 0 0-5.64 10.07c.02-.02-.79 5.4 4.72 10.14 1.5 1.29 4.28 3.06 5.03 3.22Z" class="d"/><path d="M76.06 124.77c.56-.55 1-1.03 1.34-1.46-.82.63-1.68 1.26-2.59 1.89-19.09 13.24-20.62 19.76-20.62 19.76l8.43-.09 2.06-1.84s1.95-9.07 11.37-18.26Z" class="c d"/><path d="M54.2 146.96a2.007 2.007 0 0 1-1.95-2.46c.17-.74 2.25-7.65 21.42-20.95 10.53-7.31 14.36-14.43 15.71-19.1-2.48 2.13-6 4.51-10.52 5.97-8.13 2.62-14.93 7.77-18.99 10.85-.83.63-1.53 1.16-2.1 1.56-6.19 4.38-13.26-.03-16.52-3.31-4.07-1.09-7.62-3.96-9.59-7.78-1.55-3-1.82-6.18-.75-8.73.59-1.41 1.64-3.15 2.96-5.35 3.68-6.12 9.24-15.36 12.41-29.15 4.38-19.06 19.14-29.33 20.63-30.32 1.21-.98 11.46-8.68 29.78-5.08 19.14 3.76 36.29 23.21 41.85 35.18 16.21 34.88-3.09 66.56-9.43 76.97-.36.59-1 .95-1.69.96l-73.21.75h-.02Zm37.85-50.19c.16 0 .32.02.47.06.79.19 1.39.85 1.51 1.66.08.59 1.8 14.57-18.07 28.36-11.27 7.82-16.22 13.2-18.33 16.08l68.65-.7c6.57-10.83 23.5-40.3 8.64-72.25-5.42-11.66-21.99-29.6-38.99-32.94-17.13-3.36-26.16 3.98-26.53 4.3-.06.05-.13.1-.2.15-.15.1-14.86 9.89-19.01 27.92-3.31 14.42-9.3 24.37-12.88 30.32-1.24 2.06-2.22 3.69-2.7 4.84-.61 1.45-.38 3.39.62 5.34 1.51 2.92 4.39 5.17 7.52 5.86.4.09.76.3 1.04.6.06.07 6.47 6.89 11.69 3.2.54-.38 1.21-.89 1.99-1.49 4.26-3.23 11.4-8.64 20.18-11.47 8.16-2.63 12.73-8.94 12.77-9 .38-.54.99-.84 1.63-.84Z" class="b"/><path d="M121.79 3.94s-7.27 3.06-10.34 7.27c-3.06 4.21-3.45 9-3.25 11.49.19 2.49 4.76 15.68-8.42 12.63S77 33.61 72.79 39.35c-4.21 5.74-1.15 10.91 3.06 11.87 4.21.96 13.21-3.25 21.44-2.68 8.23.57 14.55 2.11 20.29-3.06s4.59-11.54 2.68-17.83c-1.91-6.29-3.06-13.18-.38-17.4s1.91-6.32 1.91-6.32Z" class="e"/><path d="M99.77 35.34c-13.19-3.04-22.78-1.72-26.99 4.02-1.51 2.06-2.08 4.04-2 5.79 0 0 5.49-8.27 15-7.06 9.51 1.2 17.3.9 20.21-2.75-1.41.56-3.41.65-6.21 0Z" class="c d"/><path d="M97.29 48.55c8.23.57 14.55 2.11 20.29-3.06s4.59-11.54 2.68-17.83c-.62-2.05-1.16-4.16-1.52-6.22.01.12 1.09 11.81 0 15.14-1.1 3.35-4.53 12.97-21.45 11.97Z" class="d"/><path d="M111.45 11.22c-3.06 4.21-3.45 9-3.25 11.49.15 1.96 3.02 10.55-2.21 12.63s7.92.86 6.24-11.66c-1.68-12.51 9.57-19.74 9.57-19.74s-7.27 3.06-10.34 7.27Z" class="c d"/><path d="M77.28 53.37c-.67 0-1.3-.06-1.88-.19a8.483 8.483 0 0 1-6.09-5.32c-1.14-3.05-.48-6.49 1.86-9.68 4.71-6.43 14.76-8.08 29.05-4.79 2 .46 4.63.76 5.87-.44 1.73-1.67.83-6.17.4-8.33-.14-.73-.26-1.3-.29-1.75-.13-1.66-.24-7.49 3.63-12.82 3.35-4.61 10.86-7.81 11.18-7.94a2.004 2.004 0 0 1 2.66 1.16c.18.51.95 3.27-2.11 8.07-1.88 2.95-1.67 8.24.61 15.74 1.42 4.66 4.05 13.32-3.26 19.9-5.56 5-11.48 4.47-18.34 3.86-1.11-.1-2.25-.2-3.43-.28-4.07-.29-8.46.71-12.34 1.6-2.85.65-5.4 1.23-7.53 1.23Zm10.09-17.62c-6.18 0-10.64 1.62-12.97 4.8-1.52 2.07-1.99 4.17-1.34 5.92.52 1.4 1.76 2.48 3.23 2.82 1.54.35 4.5-.33 7.63-1.04 4.14-.94 8.84-2.01 13.5-1.69 1.21.08 2.38.19 3.51.29 6.42.58 11.05.99 15.31-2.84 4.53-4.08 4.2-8.87 2.11-15.76-2.67-8.79-2.72-15.02-.16-19.05.39-.61.69-1.16.92-1.65-2.09 1.2-4.63 2.91-6.04 4.86-2.44 3.35-3.08 7.45-2.88 10.16.02.22.12.76.23 1.28.61 3.07 1.75 8.8-1.54 11.99-2.03 1.97-5.25 2.46-9.55 1.47-4.47-1.03-8.49-1.54-11.96-1.54ZM42.3 119.72c-.91 0-1.74-.63-1.95-1.56-.24-1.08.43-2.15 1.5-2.39.14-.03 9.76-2.36 11.21-10.03 1.34-7.09-4.36-9.21-5.02-9.42 0 0-5.22-1.53-9.23-.03-1.03.39-2.19-.14-2.57-1.17-.39-1.03.14-2.19 1.17-2.57 5.29-1.98 11.56-.12 11.83-.04 3.41 1.09 9.37 5.4 7.75 13.98-1.94 10.29-13.75 13.08-14.25 13.19-.15.03-.3.05-.44.05Z" class="b"/><path d="M87.59 65.03s1.27.94 3.37 1.98c4.26 2.1 11.95 4.62 19.47.55 11.22-6.08 10.17-16.26 10.17-16.26l-4.88 6.31-4.42 4.56-5.3 3.96-5.76 1.44h-4.51l-8.12-2.52Z" class="d"/><path d="M65.55 62.17c5.59-.19 10.51 7.33 10.51 7.33-6.39-1.93-6.54 3.64-12.75 2.08-5.18-1.3-3.24-9.22 2.24-9.41ZM40.93 108.07c-.87 0-1.67-.58-1.92-1.46-1.84-6.51 2.37-8.3 2.55-8.38l1.51 3.71s.04 0 .1-.04c-.42.24-.97 1.28-.3 3.62.3 1.06-.32 2.17-1.38 2.47-.18.05-.37.08-.55.08Z" class="b"/><path d="M43.36 167.02v3.46h97.37v-3.46c.03-10.37.05-19.41-13.32-22.81 0 0-47.39-4.71-70.73 0-13.37 3.4-13.35 12.43-13.32 22.81Z" class="e"/><path d="M126.53 144.16c-9.2-1.86-22.23-2.21-34.49-1.98-12.26-.24-25.29.12-34.49 1.98-9 2.29-11.78 7.2-12.63 13.35 0 0 7.64-7.37 47.11-7.37s47.11 7.37 47.11 7.37c-.85-6.15-3.62-11.06-12.63-13.35Z" class="c d"/><path d="M140.73 172.48H43.36c-1.1 0-2-.9-2-2v-3.45c-.03-10.31-.06-20.97 14.83-24.75 23.46-4.74 69.47-.24 71.42-.05.1 0 .2.03.29.05 14.89 3.78 14.86 14.44 14.83 24.75v3.45c0 1.1-.9 2-2 2Zm-95.37-4h93.37v-1.46c.03-10.32.05-17.79-11.67-20.83-2.95-.28-47.85-4.49-69.99-.02-11.76 2.99-11.75 10.48-11.72 20.84v1.46ZM97.36 69.56c-3.87 0-7.76-1.09-11.63-3.25a2.002 2.002 0 0 1-.77-2.72c.54-.96 1.76-1.31 2.72-.77 4.84 2.71 9.68 3.41 14.37 2.07 6.74-1.92 11.86-7.59 14.59-11.26-1.08-.03-2.35-.13-3.81-.36-.93-.15-2.06-.46-3.36-.83-4.25-1.2-10.68-3.01-14.57.36-5.8 5.02-7.95 6.01-8.47 6.2a1.999 1.999 0 0 1-1.39-3.75c.16-.07 2.02-.95 7.23-5.47 5.52-4.79 13.51-2.54 18.28-1.19 1.18.33 2.2.62 2.89.73 4.28.67 6.57.06 6.59.05.78-.21 1.61.05 2.11.69.5.63.58 1.5.19 2.2-.29.53-7.34 13.09-19.17 16.47-1.93.55-3.87.83-5.81.83Z" class="b"/></svg>