
<svg version="1.1" id="Layer_1" xmlns="http://www.w3.org/2000/svg" xmlns:xlink="http://www.w3.org/1999/xlink" x="0px" y="0px"
   viewBox="0 0 180 180" style="enable-background:new 0 0 180 180;" xml:space="preserve">

<defs>
  <style>
    .b{fill:#1a1a1a;}
    .c{fill:#fff;}
    .d{fill:#BF3B43;}
    .e{opacity:0.2;}
  </style>
</defs>
<title>z</title>
<g>
  <circle class="d" cx="90" cy="109.46" r="49.4" />
  <path class="b" d="M90,160.86c-28.34,0-51.4-23.06-51.4-51.4s23.06-51.4,51.4-51.4,51.4,23.06,51.4,51.4-23.06,51.4-51.4,51.4Zm0-98.81c-26.14,0-47.4,21.26-47.4,47.4s21.27,47.4,47.4,47.4,47.4-21.26,47.4-47.4-21.26-47.4-47.4-47.4Z" />
  <path class="d" d="M90,132.59c36.23-14.77,49.14-33.6,49.14-33.6,0,0,.65,.71,1.54,2.03,7.59,11.22,5.43,26.31-4.74,35.25-2.73,2.4-6.13,4.93-10.25,7.18-13.84-2.98-25.66-6.76-35.7-10.85h0Z" />
  <path class="d" d="M90,109.46c21.43-13.56,36.76-32.91,36.76-32.91,13.02,8.51,12.38,22.44,12.38,22.44,0,0-6.98,10.17-25.07,21.43-8.5-2.26-16.66-6.27-24.08-10.96h0Z" />
  <path class="e" d="M126.72,111.44c-18.53,9.37-18.97-1.99-18.97-1.99-.02-.14-.04-.28-.07-.42-.17-.93-.19-1.87-.19-2.81v-.02c0-5.54-3.74-10.2-8.82-11.62,2.81-13.37,1.81-33.42,1.81-33.42l-1.92,18.15-3.16,14.82c-6.93,.02-12.49,5.88-12,12.93,.42,6.1,5.48,10.97,11.59,11.19,3.08,.11,5.91-.93,8.1-2.74l10.99,4.89,12.64-8.98Z" />
  <path class="b" d="M114.08,122.42c-.17,0-.35-.02-.51-.07-7.93-2.11-16.22-5.88-24.63-11.2-.58-.37-.93-1-.93-1.69s.35-1.32,.93-1.69c20.88-13.21,36.11-32.27,36.26-32.46,.64-.81,1.8-1,2.66-.43,13.82,9.03,13.32,23.59,13.29,24.21-.02,.37-.14,.73-.35,1.04-.29,.43-7.43,10.65-25.66,22-.32,.2-.69,.3-1.06,.3Zm-20.33-13.01c6.85,4.07,13.56,7.04,20.01,8.85,14.79-9.34,21.82-17.88,23.39-19.94-.05-2.47-.84-12.19-10.02-19.07-3.83,4.57-16.42,18.81-33.39,30.16Z" />
  <path class="d" d="M114.08,120.42c-33.06-8.8-60.84-43.87-60.84-43.87-13.02,8.51-12.38,22.44-12.38,22.44,0,0,12.91,18.83,49.14,33.6h0c9.77-3.98,17.85-8.26,24.43-12.39l-.36,.22Z" />
  <path class="e" d="M40.86,98.99s28.18,25.24,37.82,10.47l21.1,4.98,13.45,5.99-14.67,8.38-8.55,3.78-14.38-6.64-17.7-10.92-17.07-16.04Z" />
  <path class="c e" d="M41.33,94.17s6.52-11.55,12.43-12.93l5.64,2.35-6.16-7.04-6.56,5.94-4.14,7.39-1.21,4.3Z" />
  <path class="b" d="M90,134.59c-.26,0-.51-.05-.75-.15-36.37-14.83-49.5-33.53-50.04-34.32-.21-.31-.33-.67-.35-1.04-.03-.62-.53-15.18,13.29-24.21,.86-.56,2.02-.38,2.66,.43,.27,.34,27.34,34.12,59.04,42.98,.85-.26,1.79,.07,2.28,.85,.59,.94,.3,2.17-.63,2.75-.1,.07-.21,.13-.31,.2l-.05,.03h-.02c-7.36,4.59-15.55,8.73-24.36,12.32-.24,.1-.5,.15-.75,.15Zm-47.15-36.26c2.26,2.95,15.69,19.11,47.15,32.1,6.82-2.81,13.24-5.96,19.17-9.39-27.89-9.37-50.85-35.25-56.31-41.78-9.11,6.84-9.95,16.63-10.01,19.08Z" />
  <path class="d" d="M125.7,143.44l-46.6,12.2-24.79-12.2c-4.12-2.25-7.52-4.78-10.25-7.18-10.17-8.94-12.33-24.04-4.74-35.25,.89-1.32,1.54-2.03,1.54-2.03,0,0,21.06,30.71,84.84,44.45" />
  <path class="e" d="M40.58,132.59s22.64,10.54,34.02,3.77c11.37-6.77-5.11-13.79-5.11-13.79l23.62,11.26,32.59,9.62-57.01,4.37-15.45-4.97-12.66-10.26Z" />
  <path class="b" d="M79.1,157.64c-.3,0-.61-.07-.88-.21l-24.79-12.2c-3.87-2.11-7.44-4.61-10.69-7.47-10.97-9.65-13.15-25.93-5.07-37.88,.95-1.4,1.64-2.17,1.72-2.25,.41-.45,1-.69,1.62-.65,.61,.04,1.16,.36,1.51,.86,.21,.3,21.5,30.24,83.61,43.63,.91,.2,1.56,.99,1.58,1.91s-.6,1.74-1.49,1.98l-46.6,12.2c-.17,.04-.34,.07-.51,.07Zm-38.22-55.36c-6.84,10.26-4.92,24.2,4.5,32.49,3.03,2.67,6.36,4.99,9.89,6.92l24.05,11.83,38.05-9.96c-49.15-12.3-70.67-34.28-76.48-41.28Z" />
  <g>
    <path class="d" d="M40.86,166.46v3.49h98.28v-3.49c.03-10.47,.05-19.59-13.44-23.02,0,0-47.83-4.76-71.39,0h0c-13.5,3.43-13.47,12.55-13.45,23.02Z" />
    <path class="c e" d="M124.81,143.39c-9.28-1.88-22.43-2.23-34.81-2-12.37-.24-25.52,.12-34.81,2-9.09,2.31-11.89,7.27-12.74,13.47,0,0,7.71-7.44,47.55-7.44s47.55,7.44,47.55,7.44c-.85-6.21-3.66-11.17-12.74-13.47Z" />
    <path class="b" d="M139.14,171.95H40.86c-1.1,0-2-.9-2-2v-3.48c-.03-10.4-.06-21.15,14.95-24.96,23.68-4.79,70.12-.25,72.08-.05,.1,0,.2,.03,.29,.05,15.01,3.81,14.98,14.56,14.95,24.96v3.49c0,1.1-.9,2-2,2Zm-96.28-4h94.28v-1.49c.03-10.43,.05-17.97-11.79-21.04-2.97-.29-48.3-4.53-70.65-.02-11.89,3.02-11.87,10.59-11.84,21.06h0v1.49Z" />
  </g>
  <path class="e" d="M135.95,136.27c2.17-1.91,3.97-4.1,5.39-6.47-27.51,9.15-16.66-16.73-16.66-16.73l-19.63,12.53c-4.83,2.61-8.93,4.5-15.04,6.99h0c10.04,4.09,21.86,7.87,35.7,10.85,4.12-2.25,7.52-4.78,10.25-7.18Z" />
  <circle class="d" cx="90" cy="109.46" r="10.97" />
  <circle class="c e" cx="90" cy="109.46" r="10.97" />
  <path class="b" d="M90,122.43c-7.15,0-12.97-5.82-12.97-12.97s5.82-12.97,12.97-12.97,12.97,5.82,12.97,12.97-5.82,12.97-12.97,12.97Zm0-21.94c-4.95,0-8.97,4.02-8.97,8.97s4.02,8.97,8.97,8.97,8.97-4.03,8.97-8.97-4.02-8.97-8.97-8.97Z" />
  <path class="b" d="M125.7,145.44c-.14,0-.28-.01-.42-.04-12.89-2.78-25.01-6.46-36.03-10.96-.75-.31-1.24-1.04-1.24-1.85s.49-1.54,1.25-1.85c35.27-14.38,48.12-32.7,48.25-32.88,.35-.5,.9-.82,1.51-.86,.61-.04,1.2,.19,1.62,.65,.08,.08,.77,.86,1.72,2.26,8.08,11.94,5.9,28.22-5.07,37.87-3.25,2.86-6.82,5.36-10.61,7.43-.3,.16-.63,.24-.96,.24Zm-30.4-12.92c9.35,3.53,19.45,6.48,30.09,8.81,3.29-1.86,6.4-4.06,9.24-6.56,9.42-8.29,11.34-22.23,4.5-32.49-4.31,5.16-17.29,18.58-43.82,30.24Z" />
  <g>
    <path class="d" d="M125.17,65.63c.25-1.7,.38-3.44,.38-5.22,0-19.64-15.92-35.55-35.55-35.55s-35.55,15.92-35.55,35.55c0,1.77,.13,3.51,.38,5.22H125.17Z" />
    <path class="d" d="M56.21,71.49c4.66,14.21,18.02,24.48,33.79,24.48s29.14-10.27,33.79-24.48H56.21Z" />
    <path class="e" d="M56.21,71.49c4.66,14.21,18.02,24.48,33.79,24.48s29.14-10.27,33.79-24.48H56.21Z" />
    <path class="c e" d="M67.98,41.8s3.37-12.31,22.02-16.93l-5.11,.37-5.9,1.37-6.07,2.62-4.94,3.28-4.44,4.23,4.44,5.06Z" />
    <path class="b" d="M125.06,68.33H54.94c-.98,0-1.81-.71-1.97-1.67-.34-2.06-.52-4.16-.52-6.24,0-20.71,16.85-37.55,37.55-37.55s37.55,16.85,37.55,37.55c0,2.08-.17,4.18-.52,6.24-.16,.96-1,1.67-1.97,1.67Zm-68.39-4H123.33c.15-1.3,.23-2.61,.23-3.91,0-18.5-15.05-33.55-33.55-33.55s-33.55,15.05-33.55,33.55c0,1.3,.08,2.61,.23,3.91Z" />
    <path class="d" d="M90,77.06c26.07-10.63,35.37-24.18,35.37-24.18,0,0,.47,.51,1.11,1.46,5.46,8.07,3.91,18.93-3.41,25.37-1.96,1.73-4.41,3.55-7.38,5.16-9.96-2.15-18.47-4.87-25.69-7.81h0Z" />
    <path class="d" d="M90,60.42c15.43-9.76,26.46-23.68,26.46-23.68,9.37,6.12,8.91,16.15,8.91,16.15,0,0-5.02,7.32-18.04,15.42-6.12-1.63-11.99-4.51-17.33-7.89h0Z" />
    <path class="e" d="M116.42,61.84c-13.34,6.75-13.65-1.43-13.65-1.43-.01-.1-.03-.2-.05-.3-.12-.67-.14-1.34-.14-2.02h0c0-4-2.69-7.35-6.35-8.37,2.02-9.63,1.3-24.05,1.3-24.05l-1.38,13.06-2.27,10.67c-4.99,.01-8.99,4.24-8.63,9.3,.31,4.39,3.94,7.9,8.34,8.05,2.22,.08,4.26-.67,5.83-1.97l7.91,3.52,9.1-6.46Z" />
    <path class="b" d="M107.33,70.31c-.17,0-.35-.02-.51-.07-5.76-1.53-11.78-4.27-17.88-8.13-.58-.37-.93-1-.93-1.69s.35-1.32,.93-1.69c14.94-9.45,25.85-23.1,25.96-23.24,.64-.81,1.8-1,2.66-.43,10.21,6.67,9.84,17.46,9.82,17.92-.02,.37-.14,.73-.35,1.04-.21,.31-5.41,7.76-18.63,15.99-.32,.2-.69,.3-1.06,.3Zm-13.58-9.96c4.53,2.62,8.98,4.57,13.26,5.79,10.09-6.41,15.05-12.26,16.36-13.92-.07-1.92-.76-8.16-6.56-12.77-3.07,3.61-11.63,13.1-23.06,20.9Z" />
    <path class="d" d="M107.33,68.31c-23.79-6.34-43.78-31.57-43.78-31.57-9.37,6.12-8.91,16.15-8.91,16.15,0,0,9.29,13.55,35.37,24.18h0c7.03-2.87,12.85-5.95,17.58-8.92l-.26,.16Z" />
    <path class="e" d="M54.63,52.88s20.28,18.16,27.22,7.54l15.19,3.58,9.68,4.31-10.56,6.03-6.15,2.72-10.35-4.78-12.74-7.86-12.29-11.54Z" />
    <path class="c e" d="M54.98,49.42s4.69-8.31,8.94-9.31l4.06,1.69-4.44-5.06-4.72,4.27-2.98,5.32-.87,3.09Z" />
    <path class="b" d="M90,79.06c-.26,0-.51-.05-.75-.15-26.33-10.73-35.87-24.33-36.26-24.9-.21-.31-.33-.67-.35-1.04-.02-.46-.39-11.25,9.82-17.92,.86-.56,2.02-.38,2.66,.43,.19,.25,19.49,24.32,42.06,30.7,.8-.17,1.65,.17,2.11,.9,.58,.94,.3,2.17-.63,2.75-5.39,3.38-11.41,6.43-17.89,9.07-.24,.1-.5,.15-.76,.15Zm-33.37-26.84c1.88,2.41,11.48,13.6,33.37,22.68,4.4-1.83,8.57-3.85,12.45-6.03-19.13-6.91-34.84-24.21-39.26-29.42-5.79,4.61-6.49,10.84-6.56,12.77Z" />
    <path class="d" d="M115.69,84.87l-10.22,2.68c-15.9,4.16-32.83,1.77-46.89-6.74-.82-.5-1.4-.88-1.65-1.09-7.32-6.44-8.87-17.3-3.41-25.37,.64-.95,1.11-1.46,1.11-1.46,0,0,15.16,22.1,61.06,31.99" />
    <path class="e" d="M54.43,77.06s16.3,7.59,24.48,2.71c8.18-4.87-3.68-9.93-3.68-9.93l17,8.1,23.46,6.92-20.93,4.48-20.1-1.34-11.12-3.58-9.11-7.38Z" />
    <path class="b" d="M90.05,91.53c-11.4,0-22.71-3.07-32.51-9.01-1.28-.78-1.69-1.09-1.93-1.3-8.11-7.13-9.72-19.17-3.74-27.99,.7-1.04,1.23-1.62,1.29-1.69,.41-.45,1-.68,1.62-.64,.61,.04,1.16,.36,1.51,.86,.15,.21,15.39,21.59,59.83,31.17,.9,.2,1.56,.99,1.58,1.91s-.6,1.74-1.49,1.98l-10.22,2.68c-5.23,1.37-10.58,2.04-15.92,2.04ZM54.71,56.19c-4.28,7.08-2.83,16.41,3.54,22.02,.04,.03,.3,.24,1.36,.89,13.47,8.16,29.99,10.54,45.34,6.52l2.5-.65c-32.77-8.65-47.96-23.24-52.75-28.77Z" />
    <path class="e" d="M123.07,79.71c1.56-1.37,2.86-2.95,3.88-4.66-19.8,6.58-11.99-12.04-11.99-12.04l-14.13,9.02c-3.48,1.88-6.43,3.24-10.82,5.03h0c7.22,2.94,15.73,5.66,25.69,7.81,2.96-1.62,5.42-3.44,7.38-5.16Z" />
    <g>
      <path class="d" d="M81.49,13.75c0-4.7,3.81-8.51,8.51-8.51s8.51,3.81,8.51,8.51-3.81,44.84-8.51,44.84-8.51-40.15-8.51-44.84Z" />
      <path class="c e" d="M92.23,5.55c-.71-.19-1.46-.3-2.23-.3-4.7,0-8.51,3.81-8.51,8.51,0,1.81,.57,8.9,1.53,16.93-.42-3.82-1.84-22.15,9.21-25.13Z" />
      <path class="b" d="M90,60.6c-2.4,0-5-1.73-7.99-22.37-1.56-10.75-2.51-21.96-2.51-24.47,0-5.79,4.71-10.51,10.51-10.51s10.51,4.71,10.51,10.51c0,2.51-.95,13.71-2.51,24.47-2.99,20.65-5.59,22.37-7.99,22.37Zm.58-3.83h0Zm-.58-49.52c-3.59,0-6.51,2.92-6.51,6.51,0,5.73,3.31,36.26,6.51,42.21,3.19-5.95,6.51-36.48,6.51-42.21,0-3.59-2.92-6.51-6.51-6.51Z" />
    </g>
    <circle class="d" cx="90" cy="60.42" r="7.9" />
    <circle class="c e" cx="90" cy="60.42" r="7.9" />
    <path class="b" d="M90,70.31c-5.46,0-9.9-4.44-9.9-9.9s4.44-9.9,9.9-9.9,9.9,4.44,9.9,9.9-4.44,9.9-9.9,9.9Zm0-15.79c-3.25,0-5.9,2.65-5.9,5.9s2.65,5.9,5.9,5.9,5.9-2.65,5.9-5.9-2.65-5.9-5.9-5.9Z" />
    <path class="b" d="M115.69,86.87c-.14,0-.28-.01-.42-.04-9.31-2-18.06-4.67-26.02-7.91-.75-.31-1.24-1.04-1.24-1.85s.49-1.54,1.25-1.85c25.11-10.24,34.38-23.33,34.48-23.46,.35-.5,.9-.82,1.51-.86,.61-.05,1.2,.19,1.61,.64,.06,.06,.59,.65,1.29,1.69,5.97,8.83,4.36,20.86-3.75,27.99-2.37,2.09-4.98,3.91-7.74,5.42-.3,.16-.63,.24-.96,.24Zm-20.39-9.91c6.28,2.3,13.01,4.24,20.08,5.79,2.26-1.29,4.4-2.82,6.37-4.55,6.38-5.61,7.83-14.94,3.54-22.02-3.5,4.02-12.56,12.89-29.99,20.78Z" />
  </g>
</g>
</svg>
