<?xml version="1.0" encoding="utf-8"?>
<!-- Generator: Adobe Illustrator 19.1.1, SVG Export Plug-In . SVG Version: 6.00 Build 0)  -->
<svg version="1.1" id="Layer_1" xmlns="http://www.w3.org/2000/svg" xmlns:xlink="http://www.w3.org/1999/xlink" x="0px" y="0px"
	 width="90px" height="90px" viewBox="0 0 90 90" style="enable-background:new 0 0 90 90;" xml:space="preserve">
<style type="text/css">
	.st0{fill:none;}
	.st1{fill:#414042;}
	.st2{fill:#EBE8CE;}
</style>
<g>
	<rect class="st0" width="90" height="90"/>
	<circle class="st1" cx="45" cy="45" r="45"/>
	<circle class="st2" cx="45" cy="45" r="41.5"/>
	<path class="st1" d="M66.2,32.4C57.3,32.4,50,41,50,51.7h-3.4c0-4,0.4-7.6,2-10.9c3.5-7.6,4.8-11.4,4.8-15.5
		c0-8.5-8.3-15.3-8.3-15.3s-8.3,6.9-8.3,15.3c0,4,1.3,7.8,4.8,15.5c1.5,3.3,2,6.9,2,10.9h-3.4c0-10.6-7.2-19.3-16.2-19.3
		c-6.8,0-12.3,4.7-12.3,10.5S17.2,53.4,24,53.4c1.7,0,3.3-0.3,4.8-0.8c-0.4-0.3-0.8-0.6-1.2-1c-2.6-2.6-3.3-6-1.5-7.7
		c1.7-1.7,5.2-1,7.7,1.5c1.6,1.6,2.4,3.8,2.7,6.3h-0.1c-0.5,0-0.9,0.4-0.9,0.9v1.3c0,0.5,0.4,0.9,0.9,0.9h0.3c0,0.1,0,0.1,0,0.2
		c0,1.6-0.1,3-0.4,4.3c-0.2,1.2-0.4,2.2-0.8,3c-0.4,1.1-0.9,2-1.8,2.3c-1.1,0.4-2.2,0.2-2.9-0.5c-1-1-0.9-2.8,0.2-4.3
		c-2.6,0.6-4.6,2.8-4.6,5.5c0,3.1,2.7,5.6,5.9,5.6c6,0,7.6-7,7.8-16.2h3.4c-0.1,5.1-0.5,11.8-3.7,15.6c0,5.3,5.3,9.6,5.3,9.6
		s5.3-4.3,5.3-9.6c-3.1-3.8-3.6-10.5-3.7-15.6h3.4c0.3,9.2,1.9,16.2,7.8,16.2c3.3,0,5.9-2.5,5.9-5.6c0-2.7-1.9-4.9-4.6-5.5
		c1,1.5,1.1,3.3,0.2,4.3c-0.7,0.7-1.8,0.9-2.9,0.5c-0.9-0.3-1.4-1.2-1.8-2.3c-0.4-0.8-0.6-1.9-0.8-3c-0.2-1.2-0.4-2.7-0.4-4.3
		c0-0.1,0-0.1,0-0.2h0.3c0.5,0,0.9-0.4,0.9-0.9v-1.3c0-0.5-0.4-0.9-0.9-0.9h-0.1c0.3-2.5,1.1-4.7,2.7-6.3c2.6-2.6,6-3.3,7.7-1.5
		c1.7,1.7,1,5.2-1.5,7.7c-0.4,0.4-0.8,0.7-1.2,1c1.5,0.5,3.1,0.8,4.8,0.8c6.8,0,12.3-4.7,12.3-10.5C78.4,37.1,72.9,32.4,66.2,32.4z"
		/>
</g>
</svg>
