<svg version="1.1" id="Layer_1" xmlns="http://www.w3.org/2000/svg" x="0" y="0" viewBox="0 0 180 180" style="enable-background:new 0 0 180 180" xml:space="preserve"><style>.st1{fill:#bf3b43}.st2{opacity:.2;fill:#fff}.st3{fill:#1a1a1a}.st4{opacity:.2;enable-background:new}</style><path style="fill:none" d="M0 0h180v180H0z"/><path class="st1" d="M142.6 101.4c-.8-.3-1.6-.3-2.3-.3 1.6-5.9 9.3-10.3 18.7-10.2.1-6.9-8.2-12.6-18.5-12.8-.6 0-1.2.1-1.7.2 1.2-5.4 7-10.6 14.8-12.7-1.8-6.7-11.4-9.8-21.4-7.1-.5.1-.9.3-1.3.5 0-5.2 3.6-11.4 9.8-15.7-4-5.7-14-5.4-22.5.5-.9.6-1.6 1.5-2 2.4-1.2-5 .7-11.8 5.4-17.5-5.3-4.4-15-1.6-21.6 6.3-5.9 7 8.2 20.2 16.2 18 1.7 5.4 6.5 11 11.2 12.1-.8 6.1 2.3 14.5 7.1 16.9-3.3 6-2.5 17.1 2.7 20.2-6.7 4.5-10.3 20.1-2.4 22.8 2.2-6.5 12-9.2 21.8-5.8 2-6.5-4.2-14.5-14-17.8z"/><path class="st2" d="M142.6 101.4c-7.6-2.6-14.2 11.2-12.1 19 1.4-6.9 6.4-13.9 12.1-12 6.4 2.1 11.2 6.3 13.2 10.7.2.1.4.1.6.2 2.2-6.6-4-14.6-13.8-17.9zm-9.9-7c.8-5 3.4-9.3 7.7-9.2 6.6.1 12.3 2.5 15.6 5.9 1-.1 1.9-.1 2.9-.1.1-6.9-8.2-12.6-18.5-12.8-6.2-.2-8.9 8.9-7.7 16.2zm16.6-27.2c1.3-.6 2.7-1.1 4.2-1.5-1.8-6.7-11.4-9.8-21.4-7.1-4.5 1.2-5.6 6.8-4.6 12.3.6-2.6 2.1-4.7 4.6-5.3 6.7-1.9 13.1-1.1 17.2 1.6zm-13-20.1c1.3-1.3 2.7-2.6 4.3-3.7-4-5.7-14-5.4-22.5.5-2.8 2-3.1 5.6-1.9 9.3.4-.9 1-1.7 1.9-2.3 6.2-4.4 13.3-5.6 18.2-3.8zm-14.7-18.3c-5.3-4.4-15-1.6-21.6 6.3-1.8 2.2-1.7 4.9-.5 7.6.1-.2.3-.4.5-.6 5.4-6.4 12.8-9.5 18.2-8.1.8-1.7 2-3.5 3.4-5.2z"/><path class="st3" d="M154.7 80.4c-3.5-2.4-8.1-3.9-13.1-4.2 2.1-3.7 6.7-7.1 12.4-8.6 1.1-.3 1.7-1.4 1.4-2.5-1.1-3.9-4.2-6.9-8.9-8.4-4-1.3-8.6-1.5-13.3-.5.1-.5.3-1 .5-1.5 1.4-3.6 4.3-7 8-9.7.4-.3.7-.8.8-1.3s0-1.1-.3-1.5c-4.5-6.5-15.1-6.6-24.5-.5v-.1c.4-3.8 2.3-7.9 5.3-11.4.3-.4.5-.9.5-1.5 0-.5-.3-1-.7-1.4-6.2-5.2-17-2.4-24.5 6.5-2 2.4-2.4 5.6-1.1 9 1 2.7 3.1 5.5 5.9 7.8 3.2 2.7 7.4 4.7 11.1 4.7h.6c.6 1.5 1.5 3 2.4 4.4 2.1 3 4.9 5.6 8 6.9-.1 5.4 2.1 11.8 5.6 15.3.3.3.7.6 1 .9-.9 2.3-1.4 5-1.4 7.6-.1 4.4 1 9 3.5 11.8-2 2.1-3.6 4.9-4.6 7.8-2.2 6.6-1.7 14.7 4.6 16.9.2.1.4.1.6.1.3 0 .6-.1.9-.2.5-.2.8-.6 1-1.2.8-2.5 3.2-4.4 6.7-5.3 3.7-1 8.2-.7 12.6.7.5.2 1.1.1 1.5-.1.5-.2.8-.6 1-1.2 2.6-7.7-4-16.7-15-20.4h-.1c2.5-3.8 8.5-6.5 15.3-6.5h.4c1.1 0 2-.9 2-2 .2-3.9-2-7.6-6.1-10.4zm-48.9-32.8c-2.2-1.9-3.9-4.1-4.7-6.2-.8-2-.6-3.7.4-5 4.1-4.9 9.5-7.7 13.9-7.7 1.2 0 2.3.2 3.2.6-2.7 3.7-4.3 7.8-4.8 11.8-.2 1.8-.1 3.5.2 5-.6 1.6-.6 3.4-.3 5.2-2.5-.1-5.5-1.6-7.9-3.7zm14.7 9.8c-.7-1-1.4-2.2-1.9-3.3.7-.4 1.3-1 1.9-1.7.3-.4.5-.9.5-1.5 0-.5-.3-1-.7-1.4-1-.8-1.7-1.9-2.1-3.2.3-.4.6-.7 1-1 4-2.8 8.5-4.2 12.2-4.2 2.4 0 4.6.6 6.2 1.8-3.5 2.9-6.2 6.4-7.6 10.1-.6 1.6-1 3.2-1.1 4.7-1.4 1.1-2.4 2.6-3 4.5-1.9-.8-3.9-2.6-5.4-4.8zm13.2 21.7c-2.6-2.6-4.4-7.5-4.4-11.7 1.5 0 3-.5 4.4-1.4.4-.3.7-.8.8-1.3s0-1.1-.3-1.5c-.6-.8-1-1.8-1.1-2.9 2.1-.6 4.3-.9 6.3-.9 2.1 0 4.2.3 6 .9 2.6.9 4.5 2.2 5.5 3.9-7.1 2.5-12.2 7.3-13.8 12.5-1.2.6-2.2 1.4-3.1 2.5-.2.1-.2 0-.3-.1zm21.1 37.6c-4.4-1.1-8.8-1.2-12.7-.2-3.8 1-6.7 3-8.4 5.7-2.1-2.1-2-6.7-.6-10.9.9-2.7 2.4-5.2 4.1-6.8.8.3 1.7.5 2.7.5.5 0 1-.2 1.4-.6.4-.3.6-.8.6-1.3 7.7 2.8 13.1 8.5 12.9 13.6zm-16-17.4c-.5.1-1 .3-1.5.6-1.9-1.9-2.9-5.6-2.8-9.4 0-2.1.4-4.2 1-5.9.6.1 1.2.2 1.7.2.7 0 1.4-.1 2.1-.3 1.1-.3 1.7-1.4 1.4-2.5-.2-.6-.2-1.3-.2-2 4.6.1 8.8 1.3 12 3.5 2.2 1.5 3.7 3.4 4.2 5.3-8.7.7-15.7 4.8-17.9 10.5z"/><path class="st1" d="M73.1 20.3h-.8c-2.7 0-5.4 2.5-6.2 5.6l-1.4 6.9c-1.3 3.1-3.5 5.4-7.1 8.3-2.8 2.3-4.9 5.3-6.1 8.7l-.2.4c-.9 2.3-1.6 4.3-2.2 6.1-1.3 4.6-3.4 8.9-6.1 12.9L31.4 85.5c-3.6 4.5-3.2 10.8.9 14.3s14.4 6.3 17.9 6.3c.9.1 1.7-.2 2.4-.8 1.4-1.5 2.7-3.1 3.7-4.8 2.3-3.6 4-6.2 9.9-6.2 8.7 0 16.3-7.9 19.9-11.8l2.2-2.5c1.5 2.3 3.1 6.1 2 10.1-.5 1.7-1.3 3.3-2.3 4.8-2.3 3-5 5.7-8 8l-.2.2c-7.5 6.1-20 16.2-22.1 30.3-13.3 3.6-13.3 12.9-13.3 23.6v3.6H146V157c0-10.7.1-20-13.3-23.6.4-1.6 1-3.6 1.6-5.9 2.6-9.2 6.2-21.9 6.2-30.2 0-19.6-6.2-36-17.9-47.5-9.9-9.6-23-15.5-36.8-16.5L73.7 20.8l-.6-.5z"/><path class="st3" d="M70.8 49.8c-5.2 2.1-6.6 11.1-6.6 11.1 5.1-4.4 7.5.7 12.6-3.4 4.2-3.3-.9-9.8-6-7.7z"/><path class="st4" d="M94.9 66.1c-1.8 3.5-6.3 10.6-6.3 10.6s-.5 1.4-1.1 3.5c0 0 2.1-.2 2.5 6.4.1 1.7.9 7.8 2 5.2 3-7.4 5.2-16.4 5.1-19.5s-.4-9.7-2.2-6.2z"/><path class="st4" d="M85.2 35.2S126 40.3 126 79.3c0 26.1-17.4 33.4-22 51 0 0 19.3.1 27.9 4.2 0 0 9.2-24.8 9.2-39.6 0-15.1-11.5-60.9-55.9-59.7zm-15.1 57c-9.1-4.5-11.4-9.8-14.9.7-3.4 10.2-8.5 11.9-5.1 13s7.7-10.4 10.8-10.6 12.6-1.4 9.2-3.1z"/><path d="M95.7 138.4c43.1 0 47.5 4.8 47.5 4.8h.6c-1.9-10.2-24.5-11.3-24.5-11.3H72.2s-23.4.8-24.7 11.3h.6c.1 0 4.5-4.8 47.6-4.8z" style="opacity:.2;fill:#fff;enable-background:new"/><path class="st2" d="M69.6 40.2c8.1-5 2.6-18 2.6-18-2.4 0-4.5 1.6-5 4l-1.5 6.9c-1.4 3.4-3.7 5.7-7.5 8.8-2.7 2.1-4.7 5-5.8 8.3l-.2.4c-.9 2.3-1.5 4.2-2.1 6-1.3 4.7-3.4 9.1-6.2 13.1L32.4 86.1c-.2.2-.3.3-.4.5-2.2 2-2.6 5.3-1 7.7 0 0 19-23.4 21.5-26.7 4.5-6 1.7-17.8 17.1-27.4z"/><path class="st3" d="m72.2 22.3 12.9 12.9c25.3 1.7 53.5 20.1 53.5 62 0 11.1-7 31.5-8.3 37.6 14.4 3.1 13.7 11.6 13.7 23.8H46.5c0-12-.7-20.5 13.1-23.6 1.4-14.2 14.4-24.5 21.7-30.5 3.2-2.4 6-5.2 8.4-8.4 1.1-1.6 2-3.5 2.6-5.4 1.8-6.4-2.3-12.1-3.8-13.9l-3.8 4.4c-3.9 3.9-10.7 11-18.5 11-10 .1-10.3 7.1-15 11.7-.3.2-.7.2-1 .2-3.3 0-12.9-2.7-16.6-5.8-3.2-2.7-3.6-7.8-.6-11.5l11.7-16.5c5.2-7.6 5.5-11.7 8.5-19.3 1-3.3 3-6.1 5.6-8.3 3.8-3.2 6.3-5.6 7.8-9.3l1.5-7c.5-2.2 2.4-4.1 4.1-4.1m1.7-4h-1.7c-3.7 0-7.2 3.1-8.1 7.2v.1l-1.4 6.6c-1.2 2.7-3.1 4.6-6.5 7.4-3.1 2.5-5.4 5.8-6.7 9.5l-.2.4c-.9 2.3-1.6 4.4-2.2 6.2C46 60.1 44 64.2 41.4 68L29.8 84.3c-4.3 5.3-3.8 12.8 1.2 17 4.6 3.9 15.4 6.8 19.2 6.8 1.4.1 2.8-.4 3.8-1.3 1.5-1.6 2.9-3.3 4-5.2 2.2-3.4 3.4-5.3 8.3-5.3 9.6 0 17.5-8.4 21.3-12.4l.1-.1.1-.1.3-.3c.8 1.9 1 4 .5 6-.4 1.5-1.1 2.9-2 4.2-2.2 2.9-4.7 5.4-7.6 7.6l-.2.2c-7.5 6.1-19.8 16.1-22.6 30.3-5.8 1.8-9.6 5-11.6 9.5s-2 9.7-1.9 15.7v5.6h105.5v-5.6c0-6.1 0-11.3-2-15.9-2-4.3-5.4-7.3-10.8-9.1.3-1.2.7-2.6 1.1-4 2.7-9.4 6.3-22.2 6.3-30.8C142.7 55 115 33.8 87 31.3L75.1 19.4l-1.2-1.1z"/><path class="st3" d="M95.7 132.4c10.5-.1 21 .4 31.4 1.6 1.7.2 3.5.6 5.2 1l.7-4c-1.8-.4-3.5-.8-5.3-1-10.6-1.2-21.2-1.8-31.9-1.7-10.6-.1-21.3.5-31.9 1.7-1.9.2-3.7.6-5.6 1l.8 3.9c1.7-.4 3.5-.8 5.3-1 10.4-1.1 20.8-1.6 31.3-1.5z"/></svg>