<svg version="1.1" id="Layer_1" xmlns="http://www.w3.org/2000/svg" x="0" y="0" viewBox="0 0 180 180" style="enable-background:new 0 0 180 180" xml:space="preserve"><style>.st1{fill:#fff}.st2{fill:#1a1a1a}.st3{fill-opacity:.2}</style><path style="fill:none" d="M0 0h180v180H0z"/><path class="st1" d="M114.4 127.5c-1.5 0-2.8-.8-3.3-2.1-.3-.7-.7-2.7 1.6-4.8 1-1 1.6-2.8 2.1-4.5.8-2.5 1.6-5.3 4.5-5.9 3.1-.6 11.3-2.2 12.6-5.1.4-.8.1-1.9-.8-3.4l-1.9-3.1 3.8-.9h.4c.3 0 .6 0 1.1.1.8.1 2.2.3 4 .3h2.8l.3 2.3c.8 5.7-1.9 13.4-19.6 17.7l-.3.1c-.2.1-.3.1-.3.1-.1.2-.1 1-.1 1.5 0 1.4 0 3.4-1.6 4.9-1.7 1.9-3.6 2.8-5.3 2.8z" transform="translate(-80.15 -24.39) scale(1.2091)"/><path class="st2" d="M133.6 100.4c.5 0 2.3.4 5.1.4h.5c1.5 10.3-14.8 14.1-17.9 14.8-4 1-1.4 5.5-3.2 7.2-1.6 1.5-2.9 2.1-3.7 2.1-1.1 0-1.3-1.1.1-2.4 3.2-3 2.7-9.2 5.4-9.7 9-1.7 18.4-4.4 13.7-12.4-.1 0-.1 0 0 0zm0-5.3c-.4 0-.9.1-1.3.2l-7 1.7 3.7 6.2c.3.5.4.9.5 1.1-.6.6-2.8 1.9-10.5 3.4-4.4.9-5.8 5.1-6.6 7.7-.4 1.1-.9 2.9-1.4 3.3-2.4 2.3-3.3 5.2-2.3 7.7.9 2.3 3.2 3.8 5.7 3.8 2.4 0 4.9-1.2 7.3-3.5 2.1-2 2.3-4.6 2.4-6.3 19.5-5.2 21.1-14.9 20.3-20.3l-.7-4.6-4.6.1h-.4c-1.7 0-2.9-.2-3.7-.3-.5-.2-.9-.2-1.4-.2z" transform="translate(-80.15 -24.39) scale(1.2091)"/><path class="st3" d="M118.9 118.3c-.1.9 0 2.6-.2 3.3h-.3c.1-1.2 0-2.5.2-3.2.1 0 .3-.1.3-.1z" transform="translate(-80.15 -24.39) scale(1.2091)"/><path class="st1" d="M161.7 129.6c-1.4 0-2.7-.5-3.6-1.4-1.7-1.6-3.2-2.2-5.3-2.8l-2.1-.6.2-2.2c.7-6.8 1.9-29.6 1.9-42.9-.4 1.8-.7 3.5-1 5-2.6 13.2-4 18.2-7.4 19.2-1.1.3-2.6.7-4.4.7-1.8 0-3.4-.4-4.7-1.3-2.1-1.3-1.6-4.2-1.4-5.6.8-5.1 4-14.5 6.8-21.5 6.2-15.5 8.7-16.1 9.9-16.4.8-.2 1.7-.3 2.6-.3 3.1 0 6.2 1.1 8 2.9 1.1 1.1 1.7 2.5 1.7 3.9 0 4.9-.8 11.9-1.8 20.1-1.3 10.9-2.8 23.3-2.4 32.5.8 1 4.3 2.7 5.9 3.2 2.2.6 3 2.3 2.8 3.7-.5 2.4-3.3 3.8-5.7 3.8z" transform="translate(-80.15 -24.39) scale(1.2091)"/><path class="st2" d="M153.1 62.1c3.2 0 7 1.7 7 4.2 0 11.5-4.9 37-4.2 53 .1 2.2 6.1 4.8 7.8 5.3 2.1.6-.1 2.4-2.1 2.4-.6 0-1.3-.2-1.8-.6-2.1-2-4.1-2.7-6.4-3.4.8-7.7 3.4-53.4.9-54.1h-.2c-3.8 0-6.2 31.4-10.5 32.6-.9.3-2.3.6-3.7.6-1.1 0-2.3-.2-3.3-.9-2.7-1.7 10.6-37.8 14.5-38.8.7-.2 1.3-.3 2-.3zm0-5.2c-1.1 0-2.2.1-3.2.4-2.9.7-4.7 3.4-6.8 7.3-1.5 2.7-3.1 6.4-4.8 10.7-2.7 6.6-6.1 16.4-7 22.1-.3 1.7-.9 6.1 2.6 8.3 1.8 1.1 3.9 1.7 6.1 1.7 2.1 0 3.9-.5 5-.8h.1c1.9-.5 3.3-1.7 4.4-3.6-.4 8.2-.9 15.8-1.3 19.5l-.4 4.4 4.2 1.2c1.9.6 3 1 4.2 2.2 1.4 1.4 3.3 2.1 5.4 2.1 3.6 0 7.7-2.3 8.2-6.1.3-2.5-1-5.6-4.7-6.6-.9-.2-2.8-1.2-3.9-1.9-.2-8.8 1.2-20.5 2.4-30.9 1-8.2 1.8-15.3 1.8-20.4 0-2.1-.9-4.2-2.5-5.8-2.7-2.9-6.8-3.8-9.8-3.8z" transform="translate(-80.15 -24.39) scale(1.2091)"/><path class="st3" d="M136.6 101.1c-2.7-1.7 10.6-37.8 14.5-38.8 3.4-.9 8.9.9 8.9 3.9 0 11.5-4.9 37-4.2 53 .1 2.2 6.1 4.8 7.8 5.3 2.8.8-1.9 3.6-3.9 1.7-2.1-2-4.1-2.7-6.4-3.4.8-7.7 3.4-53.4.9-54.1-3.9-1.2-6.3 31.3-10.7 32.6-1.5.5-4.5 1.4-6.9-.2z" transform="translate(-80.15 -24.39) scale(1.2091)"/><path class="st1" d="M125.9 113.7c-6.4 0-11.7-.7-16.1-2.1l-2-.6.1-2.1c.4-6.9.5-15.3-3-19.4l-2.2-2.6 3.1-1.5c5.2-2.6 12.6-3.8 22.7-3.8 12.1 0 25.3 1.8 35 3.1 4.3.6 8.1 1.1 10.2 1.2 12 .7 12.8 8.2 12.8 10.5-.1 6.2-5.4 11.9-11.1 12.1-5.6.1-12.7 1.2-20.2 2.3-9.8 1.5-19.9 2.9-29.3 2.9z" transform="translate(-80.15 -24.39) scale(1.2091)"/><path class="st2" d="M128.4 84.3c17.6 0 38 4 45 4.4 16.8 1 9.8 17.1 1.7 17.3-13 .3-32.7 5.2-49.3 5.2-5.6 0-10.8-.5-15.3-2 .5-7.1.6-16.4-3.7-21.3 5.4-2.7 13.2-3.6 21.6-3.6zm0-5.3v5.3V79c-10.5 0-18.3 1.3-23.9 4.1l-6.1 3.1 4.5 5.2c3.3 3.7 2.6 14.1 2.4 17.5l-.3 4.1 3.9 1.3c4.7 1.5 10.2 2.3 16.9 2.3 9.6 0 20.2-1.6 29.6-2.9 7.4-1.1 14.4-2.1 19.9-2.2 7-.2 13.6-7.2 13.7-14.7.1-5.9-3.9-12.5-15.3-13.2-2.1-.1-5.7-.6-10-1.2-9.7-1.6-23-3.4-35.3-3.4z" transform="translate(-80.15 -24.39) scale(1.2091)"/><path class="st1" d="M136.9 101.1c-4.9 0-8.8-.3-11.9-1l-3.2-.7 1.4-3c.8-1.7 1.9-7.3-.2-11l-.9-1.7 1.3-1.4c2.3-2.5 7.3-3.7 15.8-3.7 19.8 0 52.2 6.4 59.1 8 6.1 1.4 7.1 4 6.9 5.9-.3 3-3.9 4.9-8.8 4.9h-3.3c-8.1 0-18.2.9-28 1.8-9.9 1-20 1.9-28.2 1.9z" transform="translate(-80.15 -24.39) scale(1.2091)"/><path class="st2" d="M139.2 81.4c18.7 0 49.7 5.9 58.5 7.9 8.3 1.9 4.7 5.7-1.4 5.7H193c-16.4 0-39.9 3.6-56.1 3.6-4.4 0-8.3-.3-11.3-.9.9-2 2.4-8.6-.2-13.3 1.8-2.2 7-3 13.8-3zm0-5.3v5.3-5.3c-9.4 0-14.9 1.4-17.8 4.6l-2.5 2.8 1.8 3.3c1.5 2.8.6 7.5.1 8.6l-2.7 6 6.4 1.4c3.2.7 7.3 1.1 12.4 1.1 8.3 0 18.5-.9 28.3-1.8 9.7-.9 19.7-1.8 27.7-1.8h3.4c6.4 0 11-2.9 11.5-7.3.3-2.5-.5-6.9-8.9-8.8-7-1.7-39.6-8.1-59.7-8.1z" transform="translate(-80.15 -24.39) scale(1.2091)"/><path class="st1" d="M164.8 129.6c-1.4 0-2.6-.5-3.5-1.3-1.6-1.5-3-2-5-2.6l-2.1-.6.2-2.2c.7-6.4 2-27.5 2.2-40.5-.3 1.3-.6 2.7-.8 3.8-2.6 12.8-3.9 17.7-7.3 18.7-1.1.3-2.6.7-4.3.7s-3.2-.4-4.5-1.3c-2-1.3-1.6-4-1.4-5.3.7-4.9 3.9-14.1 6.7-21 6.1-15.2 8.4-15.9 9.7-16.2.8-.2 1.7-.3 2.6-.3 3 0 5.9 1.1 7.6 2.8 1.1 1.1 1.7 2.4 1.6 3.9-.1 4.8-.9 11.6-1.9 19.5-1.3 10.6-2.8 22.6-2.5 31.5.8.9 4 2.6 5.5 2.9 2.2.6 2.9 2.3 2.8 3.7-.4 2.4-3.2 3.8-5.6 3.8z" transform="translate(-80.15 -24.39) scale(1.2091)"/><path class="st2" d="M157.2 64.1c3.1 0 6.7 1.6 6.6 4-.1 11.2-5 35.9-4.4 51.5.1 2.1 5.8 4.6 7.4 5.1 2 .5-.1 2.3-2 2.3-.6 0-1.2-.2-1.7-.6-2-1.9-3.9-2.6-6.1-3.3.8-7.5 3.7-51.8 1.2-52.5h-.2c-3.7 0-6.1 30.5-10.3 31.7-.9.3-2.2.6-3.6.6-1 0-2.1-.2-3.1-.8-2.6-1.6 10.5-36.7 14.2-37.7.7-.2 1.3-.3 2-.3zm0-5.3c-1.2 0-2.3.1-3.3.4-2.8.8-4.6 3.3-6.7 7.3-1.4 2.7-3.1 6.3-4.7 10.5-2.6 6.6-6 16.2-6.8 21.6-.2 1.4-.9 5.8 2.6 8 1.7 1.1 3.7 1.7 5.9 1.7 2.1 0 3.9-.5 5-.8h.1c1.6-.5 2.8-1.4 3.8-2.8-.4 7.6-.9 14.5-1.3 18l-.5 4.4 4.3 1.2c1.8.5 2.8.9 3.9 2 1.4 1.3 3.3 2.1 5.3 2.1 3.6 0 7.6-2.3 8.1-6.1.3-2.5-1-5.6-4.7-6.6-.8-.2-2.5-1-3.5-1.7-.1-8.6 1.3-19.9 2.5-29.9 1-8 1.9-14.9 1.9-19.8 0-2.1-.8-4.1-2.4-5.7-2.6-2.8-6.6-3.8-9.5-3.8z" transform="translate(-80.15 -24.39) scale(1.2091)"/><path class="st1" d="M111.5 127.8c-1.5 0-2.8-.8-3.3-2.1-.3-.7-.7-2.7 1.6-4.8 1-1 1.6-2.8 2.1-4.5.8-2.5 1.6-5.3 4.5-5.9 3.4-.7 11.4-2.2 12.6-4.9.3-.7.1-1.5-.4-2.7l-1.1-.6.5-2 .5-2h2.6c.5 0 1.8.1 4.1.1h3.4l.3 2.3c.8 5.7-1.9 13.4-19.6 17.7l-.3.1c-.2.1-.3.1-.3.1-.1.2-.1 1-.1 1.5 0 1.4 0 3.4-1.6 4.9-1.9 1.8-3.8 2.8-5.5 2.8zm1.6-17.4c-1.2 0-2.9-.4-4.4-2.4l-.6-.8.1-1c1.1-13.3-3.9-17.6-4.2-17.8-2.1-1.5-1.7-3.3-1.5-3.9.4-1.4 1.2-3.6 14.5-3.6 1 0 3.4 0 4.6.2s3.3 1 4.6 4.4c1.6 4.4 1.1 11.7-2.8 16.2-.5.6-1 1.3-1.6 2-2.5 3.1-5.2 6.7-8.7 6.7z" transform="translate(-80.15 -24.39) scale(1.2091)"/><path class="st2" d="M116.9 83.5c1.9 0 3.5.1 4.2.2 3.8.6 4.7 11 .2 16.2-2.3 2.8-5.4 7.9-8.3 7.9-.8 0-1.6-.4-2.3-1.4 1-13.3-3.5-18.8-5.2-20.1-2.9-2.1 5.7-2.8 11.4-2.8zm13.7 17.4c.2 0 1.5.2 4.6.2h1.1c1.5 10.3-14.8 14.1-17.9 14.8-4 1-1.4 5.5-3.2 7.2-1.6 1.5-2.9 2.1-3.7 2.1-1.1 0-1.3-1.1.1-2.4 3.2-3 2.7-9.2 5.4-9.7 8.9-1.8 18.4-4.2 13.6-12.2zm-13.7-22.7c-3 0-6 .2-8.2.4-2.6.3-7.4.9-8.8 5.1-.6 2-.3 4.7 2.4 6.8.2.2 4.1 4 3.2 15.5l-.2 2 1.2 1.6c1.3 1.7 2.7 2.6 4 3-.5 1-.8 2.1-1.1 2.9-.4 1.1-.9 2.9-1.4 3.3-2.4 2.3-3.3 5.2-2.3 7.7.9 2.3 3.2 3.8 5.7 3.8 2.4 0 4.9-1.2 7.3-3.5 2.1-2 2.3-4.6 2.4-6.3 19.5-5.2 21.1-14.9 20.3-20.3l-.7-4.6-4.6.1h-1c-2.2 0-3.4-.1-3.9-.1H129c.9-4 .6-8.1-.5-11-1.3-3.4-3.7-5.6-6.7-6-1.3-.3-3.6-.4-4.9-.4zm6.3 27.9c.2-.3.4-.6.7-.9.4-.5.7-.9 1-1.3l1.5.8c-.5.4-1.4.9-3.2 1.4z" transform="translate(-80.15 -24.39) scale(1.2091)"/><path class="st1" d="M100.1 124.1c-1 0-1.9-.2-2.7-.6-10.9-5.5-16.9-13.2-18.7-24.3-.8-5 .6-9 4.7-13 2.4-2.4 6.8-3.9 11.3-3.9 3.3 0 6.4.8 9.3 2.2 10.7 5.5 6.3 30.8 4.9 34.4-1 2.7-5.4 5.2-8.8 5.2z" transform="translate(-80.15 -24.39) scale(1.2091)"/><path class="st2" d="M94.7 85c2.6 0 5.3.5 8 1.9 8.7 4.5 4.9 27.8 3.7 31.1-.5 1.4-3.8 3.4-6.3 3.4-.6 0-1.1-.1-1.5-.3-10-5-15.5-11.9-17.2-22.4-.6-3.5 0-6.8 3.9-10.7 1.6-1.5 5.2-3 9.4-3zm0-5.3V85v-5.3c-5.2 0-10.3 1.8-13.2 4.6-4.7 4.6-6.4 9.5-5.5 15.3 2 12 8.3 20.3 20.1 26.2 1.2.6 2.5.9 3.9.9 4.1 0 9.8-2.9 11.3-6.8.9-2.4 2.3-9.7 2.3-17 0-10.9-2.8-17.8-8.4-20.7-3.2-1.6-6.8-2.5-10.5-2.5z" transform="translate(-80.15 -24.39) scale(1.2091)"/><path class="st2" d="M92.4 104.5c-2 .3-4.6 0-6.2-3.6s-1.1-7.3 1.2-8.1c4.1-1.4 5.7 1.2 6.9 3.4 1.5 2.7 2.3 7.6-1.9 8.3z" transform="translate(-80.15 -24.39) scale(1.2091)"/><path class="st2" d="M80.8 100.1c-.4 0-.7-.3-.8-.7-.1-.4-.2-.8-.2-1.2-.4.1-.9-.2-1-.6-3-14.7 4-23.7 21.6-27.4.4-.1.9.2 1 .6s-.2.9-.6 1c-13.1 2.8-18.5 8.2-20.2 14 .5-1.3 1.1-2.6 1.9-3.7 3.4-5 9.6-8.4 18.4-10 .5-.1.9.2 1 .7.1.4-.2.9-.7 1-8.4 1.5-14.2 4.6-17.3 9.3-2.8 4.1-3.5 9.5-2.1 16.1.1.4-.2.9-.6 1-.3-.1-.4-.1-.4-.1z" transform="translate(-80.15 -24.39) scale(1.2091)"/></svg>