<svg id="Layer_1" xmlns="http://www.w3.org/2000/svg" viewBox="0 0 600 600"><defs><style>.cls-1{fill:#302d2b}.cls-4{fill:#bebdb9}.cls-6{fill:#6c9d41}.cls-7{fill:#dad8d6}</style></defs><path d="M324.33 6.13c-14.2-8.2-37.42-8.17-51.59.07L59.55 130.09c-14.18 8.24-25.81 28.39-25.86 44.79l-.71 249.01c-.05 16.4 11.53 36.52 25.73 44.72l216.96 125.26c14.2 8.2 37.42 8.17 51.59-.07l213.19-123.89c14.18-8.24 25.81-28.39 25.86-44.79l.71-249.01c.05-16.4-11.53-36.52-25.73-44.72L324.33 6.13Z" style="fill:#666564"/><path d="M322.12 341.41c.05-16.4 11.68-36.55 25.86-44.79l173.38-100.76c14.18-8.24 25.74-1.56 25.69 14.83l-.57 202.96c-.05 16.4-11.68 36.55-25.86 44.79L347.24 559.19c-14.18 8.24-25.74 1.56-25.69-14.83l.57-202.96ZM99.24 159.92c-14.2-8.2-14.22-21.65-.04-29.88L272.77 29.17c14.18-8.24 37.39-8.27 51.59-.07l177.27 102.35c14.2 8.2 14.22 21.65.04 29.88L328.1 262.2c-14.18 8.24-37.39 8.27-51.59.07L99.24 159.92ZM78.62 457.16c-14.2-8.2-25.78-28.32-25.73-44.72l.58-203.19c.05-16.4 11.7-23.1 25.9-14.91l177.27 102.35c14.2 8.2 25.78 28.32 25.73 44.72l-.58 203.19c-.05 16.4-11.7 23.1-25.9 14.91L78.62 457.16Z" style="fill:#4b4847"/><path d="M338.68 289.01 526.6 170.68 330.27 274.2a59.86 59.86 0 0 1-55.83 0L78.12 170.68l187.67 118.17a59.843 59.843 0 0 1 27.92 48.58l7.78 225.64 9.29-225.88a59.83 59.83 0 0 1 27.91-48.18Z" style="fill:#8b8987"/><path class="cls-1" d="M378.14 335.6c5.8-3.35 10.5-.65 10.52 6l.35 124.17c.02 6.65-4.66 14.75-10.45 18.1-5.79 3.34-10.5.66-10.52-5.99l-.35-124.17c-.02-6.65 4.67-14.77 10.45-18.11Z"/><path class="cls-6" d="M433.67 392.25c-3.17 1.6-6.35 3.15-9.54 4.71l.14 47.78c.02 6.66 4.74 9.34 10.52 6 5.8-3.35 10.47-11.45 10.46-18.11l-.13-47.1c-3.92 2.16-7.72 4.85-11.44 6.73Z"/><path class="cls-1" d="M424.31 370.33c6.84-3.54 13.23-8.46 20.73-10.51l-.15-51.37c-.02-6.66-4.73-9.34-10.52-6-5.79 3.34-10.47 11.45-10.45 18.11l.14 49.89c.08-.04.17-.08.25-.13Z"/><path class="cls-6" d="M501.8 317.55c-.91-.03-1.82-.17-2.69-.46-5.83-1.92-11.62-3.67-17.17-6.36-.87-.42-1.62-.96-2.28-1.57l.29 102.09c0 3.3 1.17 5.63 3.06 6.72l1.12.65c-.12-.07-.23-.16-.35-.24 1.93 1.35 4.71 1.3 7.81-.49 5.79-3.34 10.46-11.44 10.44-18.09l-.23-82.25Z"/><path class="cls-4" d="M393.9 437.65c-3.59-2.09-8.56-1.79-14.05 1.37-10.9 6.3-19.72 21.56-19.68 34.09.02 6.22 2.21 10.6 5.76 12.65l20.06 11.66c-3.54-2.06-5.74-6.43-5.76-12.65-.04-12.53 8.78-27.8 19.68-34.09 5.49-3.17 10.46-3.46 14.05-1.37l-20.06-11.66Z"/><path class="cls-7" d="M399.91 450.68c-10.9 6.3-19.72 21.56-19.68 34.09.04 12.53 8.91 17.57 19.81 11.28 10.9-6.3 19.72-21.55 19.68-34.08-.04-12.53-8.91-17.59-19.81-11.29Z"/><path class="cls-4" d="M450.21 353.11c-3.59-2.09-8.56-1.79-14.05 1.37-10.9 6.3-19.72 21.56-19.68 34.09.02 6.22 2.21 10.6 5.76 12.65l20.06 11.66c-3.54-2.06-5.74-6.43-5.76-12.65-.04-12.53 8.78-27.8 19.68-34.09 5.49-3.17 10.46-3.46 14.05-1.37l-20.06-11.66Z"/><path class="cls-7" d="M456.22 366.14c-10.9 6.3-19.72 21.56-19.68 34.09.04 12.53 8.91 17.57 19.81 11.28 10.9-6.3 19.72-21.55 19.68-34.08-.04-12.53-8.91-17.59-19.81-11.29Z"/><path class="cls-4" d="M506.28 264.79c-3.59-2.09-8.56-1.79-14.05 1.37-10.9 6.3-19.72 21.56-19.68 34.09.02 6.22 2.21 10.6 5.76 12.65l20.06 11.66c-3.54-2.06-5.74-6.43-5.76-12.65-.04-12.53 8.78-27.8 19.68-34.09 5.49-3.17 10.46-3.46 14.05-1.37l-20.06-11.66Z"/><path class="cls-7" d="M512.29 277.83c-10.9 6.3-19.72 21.56-19.68 34.09.04 12.53 8.91 17.57 19.81 11.28 10.9-6.3 19.72-21.55 19.68-34.08-.04-12.53-8.91-17.59-19.81-11.29Z"/><path class="cls-1" d="m169.04 482.39 25.89-15.05 4.62-23.52-25.89 15.05-4.62 23.52zm-92.21-159.7 22.77 7.91 25.9-15.05-22.77-7.91-25.9 15.05zm103.69 69.09c-10.75-6.21-19.45-21.27-19.42-33.63.02-6.13 2.19-10.45 5.68-12.48l-25.89 15.05c-3.5 2.03-5.66 6.35-5.68 12.48-.04 12.36 8.66 27.42 19.42 33.63 5.4 3.12 10.31 3.41 13.85 1.35l25.89-15.05c-3.54 2.06-8.44 1.77-13.85-1.35Z"/><path class="cls-1" d="m258.52 397.59-22.74-18.37c-.73-2.91-1.6-5.83-2.58-8.73l12.94-14.75-20.6-35.68-19.36 3.65c-2.01-2.3-4.11-4.52-6.27-6.63l-4.48-28.77-29.22-16.87-19.5 11.33-10.68-14.38-20.73 11.82-25.89 15.05 20.73-11.82 19.27 25.95c2.02.03 4.12.23 6.28.62l22.61-13.14 11.23 6.49 4.48 28.77c2.16 2.11 4.25 4.33 6.27 6.63l19.36-3.65 20.6 35.68-12.94 14.75c.98 2.9 1.85 5.82 2.58 8.73l22.74 18.37-.04 12.4-22.83 13.27c-.75 2.05-1.63 3.94-2.62 5.72l12.81 29.62 25.89-15.05-6.96-16.08 19.53-11.35.1-33.57Z"/><path class="cls-7" d="m232.53 446.21.1-33.57-22.74-18.37c-.73-2.91-1.6-5.83-2.58-8.73l12.94-14.75-20.6-35.68-19.36 3.65c-2.01-2.3-4.11-4.52-6.27-6.63l-4.48-28.77-29.22-16.87-4.62 23.52c-2.16-.38-4.26-.58-6.28-.62l-19.27-25.95-20.73 11.82 12.81 29.62a37.96 37.96 0 0 0-2.62 5.72l-22.77-7.91-.1 33.57 22.74 18.37c.73 2.91 1.6 5.81 2.58 8.73l-12.94 14.75 20.6 35.68 19.36-3.65c2.01 2.3 4.11 4.52 6.27 6.61l4.48 28.77 29.22 16.87 4.62-23.52c2.16.4 4.26.6 6.29.64l19.26 25.94 20.73-11.82-12.81-29.62a38.89 38.89 0 0 0 2.62-5.72l22.77 7.91Zm-77.9-39.38c-10.75-6.21-19.45-21.27-19.42-33.63.03-12.34 8.79-17.33 19.54-11.12 10.74 6.2 19.44 21.27 19.41 33.61-.03 12.36-8.79 17.35-19.53 11.14Z"/><path class="cls-1" d="m367.65 105.1.09-31.34c0-.2-.01-.39-.05-.59-.08-.53-.11-1.05-.11-1.58l-.09 31.34c0 .53.04 1.05.11 1.58.03.2.05.39.05.59Zm-114.18 15.32c1.9 1.1 4.29 1.82 6.85 2.15l.09-31.34c-2.56-.33-4.95-1.05-6.85-2.15-2.92-1.68-4.35-3.83-4.35-5.95l-.09 31.34c0 2.12 1.43 4.26 4.35 5.95Zm134.26 2.65c2.4-1.4 5.65-2.02 8.8-1.86 8.9.42 18.03-1.34 24.81-5.29 6.09-3.54 9.14-8.17 9.16-12.81l.09-31.34c-.01 4.64-3.06 9.27-9.16 12.81-6.78 3.94-15.91 5.71-24.81 5.29-3.15-.16-6.4.46-8.8 1.86-2.14 1.25-3.22 2.88-3.22 4.51l-.09 31.34c0-1.63 1.08-3.27 3.22-4.51Zm-156.96-12.34v.44l-.09 31.34v-.44l.09-31.34Z"/><path class="cls-1" d="M291 128.69c.29.17.57.33.85.51 6.27 3.89 9.38 8.89 9.37 13.88l.09-31.34c.01-4.99-3.1-9.99-9.37-13.88-.28-.17-.56-.34-.85-.51-8.9-5.14-20.09-7.04-30.68-6.12l-.09 31.34c10.59-.92 21.77.98 30.68 6.12Z"/><path class="cls-1" d="m424 140.48-107.04 62.21c-8.96 5.21-23.54 5.21-32.56 0l-107.33-61.96c-4.54-2.62-6.81-6.06-6.8-9.5l-.09 31.34c0 3.44 2.26 6.88 6.8 9.5l107.33 61.96c9.02 5.21 23.6 5.21 32.56 0l107.04-62.21c4.45-2.59 6.68-5.98 6.69-9.37l.09-31.34c0 3.39-2.24 6.78-6.69 9.37Z"/><path class="cls-7" d="M421.28 58.78c12.35 7.13 12.41 18.68.15 25.81-6.78 3.94-15.91 5.71-24.81 5.29-3.15-.16-6.4.46-8.8 1.86-4.32 2.51-4.29 6.58.05 9.09l36.03 20.8c9.02 5.21 9.06 13.65.1 18.86L316.96 202.7c-8.96 5.21-23.54 5.21-32.56 0l-107.33-61.96c-9.02-5.21-9.07-13.65-.11-18.86l27.65-16.07c5.4-3.14 14.19-3.14 19.62 0l3.31 1.91c1.48.86 2.56 1.89 3.22 3.02-.22 5.36 3.22 10.76 10.31 14.85 14.49 8.37 36.92 8.3 50.49.17 12.84-7.69 13.01-20.04.37-27.89-.28-.17-.56-.34-.85-.51-8.9-5.14-20.09-7.04-30.68-6.12-2.56-.33-4.95-1.05-6.85-2.15-5.72-3.3-5.75-8.39-.35-11.53l30.79-17.89c8.96-5.21 23.54-5.21 32.57 0l32.25 18.62c4.35 2.51 11.37 2.51 15.69 0 2.4-1.4 3.47-3.28 3.18-5.1-.75-5.15 2.26-10.45 9.04-14.39 12.27-7.13 32.21-7.13 44.55 0Z"/></svg>