
<svg version="1.1" id="Layer_1" xmlns="http://www.w3.org/2000/svg" xmlns:xlink="http://www.w3.org/1999/xlink" x="0px" y="0px"
   viewBox="0 0 180 180" style="enable-background:new 0 0 180 180;" xml:space="preserve">

<defs>
  <style>
    .b{fill:#1a1a1a;}
    .c{fill:#fff;}
    .e{fill:#BF3B43;}
    .f{opacity:0.2;}
  </style>
</defs>
<title>w</title>
<g>
  <path class="e" d="M98.77,25.95l3.28-15.54h-24.11l3.28,15.54c-12.52,3.77-21.64,15.38-21.64,29.12,0,16.8,13.62,39.44,30.41,39.44s30.41-22.64,30.41-39.44c0-13.75-9.12-25.36-21.64-29.12Z" />
  <polygon class="c f" points="81.23 25.95 83.06 14.31 102.06 10.41 77.94 10.41 81.23 25.95" />
  <path class="c f" d="M59.59,55.07c0,4.81,1.12,10.1,3.1,15.2h0c-3.14-25.57,18.54-44.32,18.54-44.32-12.52,3.77-21.64,15.38-21.64,29.12Z" />
  <path class="f" d="M67.58,79.75c5.56,8.44,13.55,14.77,22.42,14.77,16.8,0,30.41-22.64,30.41-39.44,0-2.26-.25-4.46-.72-6.57,0,0-8.81,39.73-52.12,31.25Z" />
  <path class="b" d="M90,96.51c-17.46,0-32.41-22.79-32.41-41.44,0-13.57,8.68-25.84,21.32-30.46l-2.92-13.8c-.12-.59,.02-1.2,.4-1.67,.38-.47,.95-.74,1.55-.74h24.11c.6,0,1.17,.27,1.55,.74,.38,.47,.53,1.08,.4,1.67l-2.92,13.8c12.64,4.62,21.32,16.88,21.32,30.46,0,18.65-14.96,41.44-32.41,41.44ZM80.41,12.41l2.78,13.13c.21,1.02-.39,2.03-1.38,2.33-11.9,3.58-20.22,14.77-20.22,27.21,0,16.5,13.38,37.44,28.41,37.44s28.41-20.94,28.41-37.44c0-12.44-8.31-23.63-20.22-27.21-1-.3-1.6-1.31-1.38-2.33l2.78-13.13h-19.18Z" />
  <path class="e" d="M48.05,126.84c3.79,9.5,11.66,16.79,21.42,19.84l1.13,.35h38.79l1.13-.35c9.76-3.05,17.63-10.34,21.42-19.84H48.05Z" />
  <path class="f" d="M131.95,126.84c-3.79,9.5-11.66,16.79-21.42,19.84l-1.13,.35h-38.79l-1.13-.35c-5.41-1.69-10.24-4.68-14.12-8.64,1.93,.13,3.91,.2,5.93,.2,16.72,0,30.94-4.76,36.21-11.41h34.45Z" />
  <path class="b" d="M109.39,149.03h-38.79c-.2,0-.4-.03-.59-.09l-1.13-.35c-10.39-3.24-18.66-10.9-22.68-21.01-.25-.62-.17-1.31,.2-1.86s.99-.88,1.66-.88h83.89c.66,0,1.28,.33,1.66,.88s.45,1.25,.2,1.86c-4.03,10.11-12.29,17.76-22.68,21.01l-1.13,.35c-.19,.06-.39,.09-.59,.09Zm-38.48-4h38.18l.84-.26c8.27-2.58,15.02-8.31,18.92-15.93H51.15c3.89,7.62,10.65,13.35,18.92,15.93l.84,.26Z" />
  <g>
    <path class="e" d="M40.88,166.99v3.49h98.23v-3.49c.03-10.46,.05-19.58-13.44-23.01,0,0-47.81-4.76-71.35,0h0c-13.49,3.43-13.47,12.54-13.44,23.01Z" />
    <path class="c f" d="M124.79,143.93c-9.28-1.87-22.42-2.23-34.79-2-12.37-.24-25.51,.12-34.79,2-9.08,2.31-11.88,7.26-12.74,13.47,0,0,7.71-7.44,47.53-7.44s47.52,7.43,47.53,7.44c-.85-6.21-3.65-11.16-12.74-13.47Z" />
    <path class="b" d="M139.11,172.48H40.89c-1.1,0-2-.9-2-2v-3.48c-.03-10.39-.06-21.14,14.94-24.95,23.67-4.78,70.08-.25,72.04-.05,.1,0,.2,.03,.29,.05,15,3.81,14.97,14.56,14.95,24.95v3.48c0,1.1-.9,2-2,2Zm-96.22-4h94.22v-1.49c.03-10.42,.05-17.96-11.78-21.03-2.96-.29-48.27-4.53-70.61-.02-11.88,3.02-11.86,10.58-11.83,21.04h0v1.49Z" />
  </g>
  <path class="e" d="M131.95,126.84c-21.86-11.87-26.46-36.86-26.46-36.86h-30.98s-4.59,25-26.46,36.86h83.89Z" />
  <path class="f" d="M97.49,126.84h34.45c-21.86-11.87-26.46-36.86-26.46-36.86h-30.98s34.68,9.9,22.98,36.86h0Z" />
  <path class="b" d="M131.95,128.84H48.05c-.92,0-1.71-.62-1.94-1.51s.18-1.81,.98-2.25c20.78-11.28,25.4-35.23,25.44-35.47,.17-.95,1-1.64,1.97-1.64h30.98c.96,0,1.79,.69,1.97,1.64,.04,.24,4.71,24.22,25.44,35.47,.8,.44,1.21,1.36,.98,2.25s-1.02,1.51-1.94,1.51Zm-77.05-4H125.1c-14.84-11.01-19.92-27.59-21.22-32.86h-27.77c-1.29,5.27-6.38,21.85-21.22,32.86Z" />
  <path class="e" d="M105.51,85.98c2.95,0,5.53,1.6,6.91,3.99-1.38,2.39-3.96,3.99-6.91,3.99h-31.02c-2.95,0-5.53-1.6-6.91-3.99,1.38-2.39,3.96-3.99,6.91-3.99h31.02Z" />
  <path class="f" d="M105.51,85.98h-22.34c5.18,.06,5.18,7.92,0,7.98h22.34c2.95,0,5.53-1.6,6.91-3.99-1.38-2.39-3.96-3.99-6.91-3.99Z" />
  <path class="b" d="M105.51,95.96h-31.02c-3.55,0-6.86-1.91-8.64-4.99-.36-.62-.36-1.38,0-2,1.78-3.08,5.09-4.99,8.64-4.99h31.02c3.55,0,6.86,1.91,8.64,4.99,.36,.62,.36,1.38,0,2-1.78,3.08-5.09,4.99-8.64,4.99Zm-35.47-5.99c1.12,1.25,2.74,1.99,4.45,1.99h31.02c1.71,0,3.33-.74,4.45-1.99-1.12-1.25-2.74-1.99-4.45-1.99h-31.02c-1.71,0-3.33,.74-4.45,1.99Z" />
</g>
</svg>
