<svg xmlns="http://www.w3.org/2000/svg" viewBox="0 0 180 180" style="enable-background:new 0 0 180 180" xml:space="preserve"><path d="m111.1 102.4.3-.2h-40l.3.2c-23.2 9.7-35.7 35-29.5 59.3h98.3c6.3-24.3-6.2-49.5-29.4-59.3z" style="fill:#fff"/><path d="m112.7 101.4.2-.1-6 .4-.4.2 2.7 1.1c22.1 9.3 34.3 33.1 28.9 56.5h-96c-5.4-23.3 6.8-47.1 28.8-56.5l2.7-1.1-.3-.2-6.2-.5.1.1c-22.4 10.8-34 35.9-27.9 60l.3 1.1h100.7l.3-1.1c6.2-24-5.5-49.1-27.9-59.9z" style="fill:#040000"/><path transform="rotate(-71.21 101.955 70.176)" style="fill:#fff;stroke:#231815;stroke-width:2.5;stroke-miterlimit:9.9999" d="M80.2 63h43.5v14.3H80.2z"/><path transform="rotate(-18.071 76.152 70.653)" style="fill:#fff;stroke:#231815;stroke-width:2.4983;stroke-miterlimit:9.9933" d="M69 48.9h14.3v43.5H69z"/><path style="fill:#fff;stroke:#231815;stroke-width:2.5;stroke-miterlimit:10" d="M59.1 88.9h60v12.2h-60z"/></svg>