
<svg version="1.1" id="Layer_1" xmlns="http://www.w3.org/2000/svg" xmlns:xlink="http://www.w3.org/1999/xlink" x="0px" y="0px"
   viewBox="0 0 180 180" style="enable-background:new 0 0 180 180;" xml:space="preserve">
<defs>
<style>
.cls-1{fill:none;}.cls-2{fill:#BF3B43;}</style>
</defs>
<title>
d</title>
<rect class="cls-1" width="180" height="180"/>
<path class="cls-2" d="M154.66,55.34l-12,59L136.5,125l-1.22,10.87,6.18,17.36c-2.63,2.1-8.42,3.93-17.24,5.43A196.66,196.66,0,0,1,90,161.27a196.66,196.66,0,0,1-34.22-2.6c-8.82-1.5-14.61-3.33-17.23-5.43l6.17-17.36L43.5,125l-6.19-10.69-12-59,3-1.05L55,97.47l1.56-54.22,3-.7L78,94.55l10.6-55.29h2.88L102,94.55l18.41-52,3,.7L125,97.47l26.58-43.18Z"/>
<path d="M90,162.77a198.59,198.59,0,0,1-34.48-2.62c-9.19-1.57-15.05-3.45-17.91-5.74l-.83-.67,6.41-18L42,125.49l-6.15-10.63L23.61,54.35,29,52.49,53.6,92.4l1.45-50.35,5.47-1.26,17,48,9.79-51.07h5.36l9.79,51.07,17-48L125,42.05,126.4,92.4,151,52.49l5.42,1.86-12.28,60.51L138,125.49l-1.15,10.21,6.42,18-.84.67c-2.86,2.29-8.73,4.17-17.92,5.74A198.39,198.39,0,0,1,90,162.77ZM40.34,152.66c2.12,1.29,6.52,3,15.69,4.54a196,196,0,0,0,34,2.57,195.59,195.59,0,0,0,34-2.57c9.18-1.57,13.59-3.25,15.71-4.54l-5.91-16.6,1.3-11.53,6.22-10.75,11.65-57.45-.66-.23-28.57,46.43L122,44.45l-.61-.14-19.8,56L90.2,40.76h-.4l-11.41,59.5L58.59,44.31l-.61.14-1.67,58.08L27.74,56.1l-.66.23,11.65,57.45L45,124.53l1.3,11.53Z"/>
<circle class="cls-2" cx="23.62" cy="45.5" r="10"/>
<path d="M23.62,57a11.5,11.5,0,1,1,11.5-11.5A11.51,11.51,0,0,1,23.62,57Zm0-20a8.5,8.5,0,1,0,8.5,8.5A8.51,8.51,0,0,0,23.62,37Z"/>
<circle class="cls-2" cx="90" cy="29.38" r="10"/>
<path d="M90,40.88a11.5,11.5,0,1,1,11.5-11.5A11.51,11.51,0,0,1,90,40.88Zm0-20a8.5,8.5,0,1,0,8.5,8.5A8.51,8.51,0,0,0,90,20.88Z"/>
<circle class="cls-2" cx="55.79" cy="33.29" r="10"/>
<path d="M55.79,44.79a11.5,11.5,0,1,1,11.5-11.5A11.51,11.51,0,0,1,55.79,44.79Zm0-20a8.5,8.5,0,1,0,8.5,8.5A8.51,8.51,0,0,0,55.79,24.79Z"/>
<circle class="cls-2" cx="124.21" cy="33.29" r="10"/>
<path d="M124.21,44.79a11.5,11.5,0,1,1,11.5-11.5A11.51,11.51,0,0,1,124.21,44.79Zm0-20a8.5,8.5,0,1,0,8.5,8.5A8.51,8.51,0,0,0,124.21,24.79Z"/>
<circle class="cls-2" cx="156.38" cy="45.5" r="10"/>
<path d="M156.38,57a11.5,11.5,0,1,1,11.5-11.5A11.51,11.51,0,0,1,156.38,57Zm0-20a8.5,8.5,0,1,0,8.5,8.5A8.51,8.51,0,0,0,156.38,37Z"/>
<path d="M77.75,115.69c-23.27,1.68-34.44,7.71-35,8l1.45,2.63c.13-.07,11.14-6,33.78-7.63A4.76,4.76,0,0,1,77.75,115.69Z"/>
<path d="M96.87,115.4v3c26.11,1.06,38.77,7.85,38.91,7.92l1.45-2.63C136.66,123.38,123.81,116.44,96.87,115.4Z"/>
<path d="M38.48,116.27a3.38,3.38,0,0,1-2.08-.76l1.82-2.38a.62.62,0,0,0,.26.14c.72-.12,2.18-3.25,2.85-6.73l.37-1.87,1.73.79c1.46.66,5.73,2.39,7.82,2.39,6.75,0,8.68-2.44,13.33-8.35l1.06-1.34,1.19,1A15.62,15.62,0,0,0,88.89,97.5l1.22-1.32,1.08,1.43A13.92,13.92,0,0,0,103,103.37a16,16,0,0,0,10.39-3.9l1.23-1,.94,1.29c4.29,5.91,6.25,8.61,13.15,8.61,1.76,0,5.74-1.76,7.83-2.86l1.89-1,.3,2.12c.29,2.09,1.29,5.39,2.6,6.2a1,1,0,0,0,.94.08l.95,2.84a4,4,0,0,1-3.47-.37c-2-1.25-3.09-4.28-3.6-6.33-2,.95-5.32,2.32-7.44,2.32-7.85,0-10.72-3.21-14.67-8.6a18.73,18.73,0,0,1-11,3.61,16.84,16.84,0,0,1-13-5.62,18.2,18.2,0,0,1-12.86,5.19,18.39,18.39,0,0,1-10.92-3.56c-4.21,5.31-7.16,8.47-14.88,8.47-2.16,0-5.4-1.15-7.38-1.95-.66,2.52-2,6.29-4.31,7.17A2.91,2.91,0,0,1,38.48,116.27Z"/>
<path d="M81.42,127.61a144.57,144.57,0,0,0-37.21,6.86l1,2.82a138.55,138.55,0,0,1,32.59-6.42A4.79,4.79,0,0,1,81.42,127.61Z"/>
<path d="M98.13,127.58a4.66,4.66,0,0,1,3.85,3.27,139.1,139.1,0,0,1,32.78,6.44l1-2.82A145.35,145.35,0,0,0,98.13,127.58Z"/>
<path d="M140.52,154.41c-1.67-1.33-5.89-3.31-16.55-5.13a195.91,195.91,0,0,0-34-2.58,195.5,195.5,0,0,0-33.95,2.58c-10.68,1.82-14.9,3.8-16.57,5.13l-1.87-2.34c2.86-2.3,8.72-4.17,17.92-5.75A199.38,199.38,0,0,1,90,143.7a198.51,198.51,0,0,1,34.48,2.63c9.18,1.56,15,3.44,17.91,5.74Z"/>
<path d="M87.69,110.32H92.1a1.18,1.18,0,0,1,1.17,1.17v19.62h4.19a1.19,1.19,0,0,1,1.17,1.19v4.39a1.18,1.18,0,0,1-1.17,1.15H82.36a1.17,1.17,0,0,1-1.17-1.15v-4.41a1.18,1.18,0,0,1,1.18-1.17h4.17V120.45l-.4.41a1.15,1.15,0,0,1-.68.22,1.16,1.16,0,0,1-.81-.34l-3.1-3.1a1.18,1.18,0,0,1,0-1.65l5.35-5.34a1.11,1.11,0,0,1,.79-.33"/>
</svg>
