<?xml version="1.0" encoding="utf-8"?>
<!-- Generator: Adobe Illustrator 23.1.1, SVG Export Plug-In . SVG Version: 6.00 Build 0)  -->
<svg version="1.1" id="Layer_1" xmlns="http://www.w3.org/2000/svg" xmlns:xlink="http://www.w3.org/1999/xlink" x="0px" y="0px"
	 viewBox="0 0 180 180" style="enable-background:new 0 0 180 180;" xml:space="preserve">
<style type="text/css">
	.st0{fill:#B63C41;}
	.st1{fill:#040000;}
	.st2{fill:none;stroke:#040000;stroke-width:6;stroke-miterlimit:10;}
</style>
<title>o</title>
<g id="Layer_2">
	<g id="Layer_1-2">
		<path class="st0" d="M44.1,164.4c-0.8-16.3,4.2-30.5,16.1-40.6c7.6-2.2,11.1-5.2,13.3-9.8c2-4.2,4.5-8.2,7.6-11.7
			c-10.4-10.7-20.9-2.6-27.9-0.3c-4.6,1.8-7.2,2.9-9.6,5.8l-3.8,4.3l-6.6-5.1l7.6-6.3L28.5,89.9l-6.2,4l-1.6-15.2l35.5-23.4
			c2.8-6.6,20-16.3,32.8-24.3l4.8-6.7l5.7,12.9c23.1,10.4,31.8,24.6,38.3,40.9c5.1,18.7,4.2,31.7,3.1,44.3
			c-1.1,12.6-2.7,24.9,1.8,42L44.1,164.4z"/>
		<path class="st1" d="M31.5,77.1l3.1-0.4l3.4,2.9l-4.3,5.1l-5.3-2.4L31.5,77.1z M84.4,58.6l-19.7-0.2l10.8-9.3
			C79.2,46.1,88.6,58.6,84.4,58.6z M57.3,55.8L53,50.3c0.4-2.4,4-5.8,10.8-10s13.6-8.7,20.4-13.3l10.6-14.3l8.9,20.2
			c42.4,21.3,49.9,50.6,44.6,94.9c-1.8,13.5,0.2,27.3,5.8,39.7H38.7c-1.1-22,3.9-36,20.6-50.1c9.7-2,13.6-10.8,15.8-14.5
			c-14.6-2.6-23.7-0.7-27.1,5.6c-3.4,6.3-5.2,9.5-5.2,9.5l-20.2-11.3L33.3,99l-4.7-4.7l-11.4,8l-1.1-27.6L53,50.3
			c0,0,3.7-1.2,4.3-0.4S57.3,55.8,57.3,55.8L23.2,78.2l0.4,11.6l6-3.8l12.8,13.4l-7.3,6l4.3,2.6l3.6-4.2c2.7-3,6.2-5.4,10-6.7
			c6.7-2.2,23.1-6,33.1,4.3c-3.3,3.7-6.2,7.8-8.4,12.3c-2.2,4.3-6.9,7.5-14.1,9.6c-11.4,9.8-18.8,21.6-18,37.2h94.7
			c-4.3-16.4-3-28.3-1.8-40.3s2-24.6-3-42.5c-6.3-15.6-14.6-29.3-36.9-39.2l-5.5-12.4l-4.5,6.4C76.5,40.2,60,49.5,57.3,55.8
			L57.3,55.8z"/>
		<path class="st1" d="M79.8,96.5c-1,1.1,1,4.6,5.1,4c1.6-0.2,2.5-1.4,3.5-1.3c1,0.1,2.1,0.1,3.1-0.1c9.9-1.4,16.9-12.3,17.2-23.8
			l-1.8-6.4c-3.5,15.2-9.4,23.3-17.9,24.4c-1.3,0.2-2.8,0.4-4.3,0.5C82.9,94.2,81.2,95.1,79.8,96.5z"/>
		<path class="st0" d="M65.5,125.8c4.6-11.1,12.5-19,24-21.9c6,1.1,9.3,0.1,12.3-2.2c2.7-2.2,5.7-4,8.9-5.3
			c-3.8-10.6-13.8-8.6-19.3-9.3c-3.8-0.3-5.9-0.5-8.5,0.7l-4,1.7l-3-5.6l7.3-1.7l-5.1-11.3l-5.5,0.6l3.7-10.7l32-4
			c4-3.5,19.1-4.3,30.5-5.5l5.4-2.9l0,10.5c12.9,14.5,14.4,26.8,13.8,39.9c-2.3,14.2-7,22.5-11.8,30.6s-9.8,15.7-11.9,28.7
			L65.5,125.8z"/>
		<polygon class="st1" points="83.8,64 80,66.5 82.9,69.9 87.5,67.8 86,64.8 		"/>
		<path class="st1" d="M123.2,59.8l-10.5,2.7l13.7,6.5C129.3,70.4,126.7,58.9,123.2,59.8z"/>
		<path class="st1" d="M108.6,58.1c0.4-0.7,2-3.2,1.8-3.8c-0.2-0.7-3.1-1.1-3.1-1.1l0,0l1.2,5.1L108.6,58.1z"/>
		<path class="st1" d="M149.3,136.2c17.6-27.9,21.6-49.9-1.2-78.1l0.1-16.4l-11.9,6.1c-6.2,0.8-12.3,1.6-18.4,2.2
			c-6.1,0.6-9.7,1.7-10.7,3.2l0,0c0,0,2.9,0.4,3.1,1.1s-1.4,3.2-1.8,3.9c4.1-3.3,18.3-4,29.1-5.1l5.2-2.8l-0.1,10
			c12.4,14,13.8,25.8,13.3,38.3c-2.2,13.6-6.6,21.7-11.3,29.4s-9.1,14.9-11.3,27l6.9,9.5l0.4,0.2
			C140.8,154.5,143.8,144.6,149.3,136.2z"/>
		<path class="st1" d="M91.7,105.5c5.7,1,9.9,0.4,12.8-1.8c3-2.2,6.3-4.1,9.8-5.4c-3.7-10.1-16.3-13-21.7-13.7
			c-3.1-0.3-6.2,0.1-9.1,1.2l-3.8,1.6l-2.2-3.2l7-1.7l-4.8-13.2L74.3,70l3.4-7.9l30.8-3.8c0-0.1,0.1-0.1,0.1-0.2l-0.2,0.1l0,0l0,0
			l0,0l-1.2-5.1l-33.3,4.3l-7.9,18.9l10.4-1.6l1.8,4.7l-9.8,1.6L78.9,95c0,0,2.3-1.5,6.6-4.6s11.3-1.4,20.6,5.1
			c-2.7,1.7-8.2,6.4-15.6,4.5c-15.8,3.9-23.7,11.4-29.8,26l6.9-2.2C72.1,113.5,80.8,108.2,91.7,105.5z"/>
		<path class="st1" d="M112,94c-1.1,0.4-0.7,3.3,2.3,4.2c1.2,0.4,2.2-0.1,2.8,0.3c0.7,0.4,1.4,0.7,2.2,0.9c7.2,2.2,15.3-2.6,19-10
			l0.7-4.7c-7,8.8-13.6,12.2-19.7,10.2c-1-0.3-2-0.6-3.1-1.1C114.8,93.5,113.3,93.5,112,94z"/>
		<line class="st2" x1="60.7" y1="124.9" x2="140.3" y2="159.4"/>
	</g>
</g>
</svg>
