<svg version="1.1" id="Layer_1" xmlns="http://www.w3.org/2000/svg" x="0" y="0" viewBox="0 0 180 180" style="enable-background:new 0 0 180 180" xml:space="preserve"><style>.st3{opacity:.2;enable-background:new}</style><g id="ferz_neo"><path style="fill:none" d="M0 0h180v180H0z"/><g id="ferz_2_"><path d="M127.7 133c-.7-.2-1.5-.4-2.3-.5h.4l.7-1.8 22.8-58.2-17.3-7-.9-.4-.2-1c-1.5-9-6.5-17.1-14-22.4-12.8-9.2-18.3-13.3-26.3-23l-.2-.2-.2.2c-8 9.7-13.5 13.8-26.3 23-7.5 5.3-12.5 13.4-14 22.4l-.2 1-.9.4-17.3 7 22.8 58.2.7 1.8h.5c-.8.1-1.5.3-2.2.5-13.8 3.5-13.8 12.9-13.8 23.8v3.6H141v-3.6c.4-10.9.4-20.3-13.3-23.8z" style="fill:#bf3b43"/><path d="M90.6 138.3c-43.1 0-47.5 4.8-47.5 4.8h-.6c1.9-10.2 24.5-11.3 24.5-11.3h47.1s23.4.8 24.7 11.3h-.6c-.1-.1-4.6-4.8-47.6-4.8zM33 73.1l2.7 7.5L48 68.1l-.7-1.2zm57.6-53.4v10.6s.4 5-8.5 10.1-21.4 7.9-28.9 18.4c-7.4 10.6.3-4 .3-4s3.5-9.1 14.9-17.1 15.6-8.8 22.2-18z" style="opacity:.2;enable-background:new;fill:#bf3b43"/><path class="st3" d="M51 65.3c8.1 9.2 39 29.3 39 29.3s27.7-19.8 29.5-30c1.8-10.1-2.7-19.8-7.7-25 0 0 8.6.5 15.5 14.6s4.5 14.2 4.5 14.2l-41.5 42.1s-20.2-17.8-26.1-25c-5.6-6.8-15.3-17.8-15.3-17.8l2.1-2.4z"/><path class="st3" d="M85.2 105.1s-11.4 15.1-29 24.3c-17.6 9.2 22.8-4.8 35.6-19l-6.6-5.3zm57.6-34.2s-10 26-25 42.2c-15.7 17-15.8 16.5-15.8 16.5l24.1 3.1 22.3-58.9-5.6-2.9z"/><path d="M151.4 72.4c0-.8-.5-1.6-1.2-1.9l-17.1-6.9c-1.6-9.5-7-18.1-14.8-23.6-12.6-9-18-13.1-25.9-22.6l-.2-.2c-.4-.5-.9-.7-1.5-.7s-1.1.2-1.5.7l-.2.3C81.1 27 75.7 31.1 63.1 40.1c-7.8 5.6-13.2 14.2-14.8 23.6l-17.1 6.9c-1 .4-1.5 1.6-1.1 2.6l22.7 58-1.4.4v.1C38 136 38 146.6 38 156.8v5.6h105.5v-5.6c0-10.2.1-20.8-13.3-25.1v-.1l-1.6-.4 22.7-57.9c.1-.3.1-.6.1-.9zm-99.5-7 .2-1c1.4-8.5 6.2-16.2 13.2-21.1 12.2-8.8 17.8-13 25.3-21.7 7.5 8.8 13.2 13 25.3 21.8 7 5 11.8 12.7 13.2 21.1l.2 1c.1.3.2.6.4.9-6.8 8.9-14.1 17.4-21.9 25.4-4.2 4.3-10.2 10.1-17.2 16l-.6-.4c-5.6-4.7-11.2-9.9-16.6-15.5-7.8-8-15.2-16.6-21.9-25.5.2-.4.3-.7.4-1zm-17.6 8.1L47.8 68c7 9.2 14.6 18.1 22.7 26.4 5.5 5.7 11.1 10.9 16.9 15.8-1 .8-1.9 1.5-2.9 2.3-.2.1-.4.3-.5.4-1 .7-1.9 1.4-2.8 2.1l-.6.4c-.7.5-1.5 1-2.2 1.6-.5.4-1 .7-1.5 1l-1.8 1.2c-.8.5-1.6 1-2.4 1.6l-.4.3c-.3.2-.6.4-.8.5-1.1.6-2.1 1.3-3.1 1.9-.4.2-.8.4-1.1.6l-.4.2c-3.5 1.9-6.8 3.6-9.9 4.9l-.5.2-22.2-55.9zm105 83.2v1.6H41.7v-1.6c0-10.8 0-18.7 12.3-21.8l.6-.1c.4-.1.8-.2 1.3-.3 1-.2 2.1-.4 3.3-.5 8.8-1.1 19-1.7 31.4-1.7 12.3 0 22.6.5 31.4 1.7 1.2.1 2.2.3 3.2.5.4.1.9.2 1.3.3l.7.2c12.2 3.1 12.2 10.9 12.1 21.7zm-14.5-26.9c-.8-.1-1.6-.3-2.3-.4-8.9-1.1-19.3-1.7-31.9-1.7-8.7 0-16.4.3-23.2.8.4-.2.8-.4 1.2-.7l.4-.2c.4-.2.8-.4 1.2-.7 1.1-.6 2.2-1.3 3.2-1.9l.9-.6.4-.2c.8-.5 1.7-1 2.5-1.6l1.8-1.2c.5-.3 1-.7 1.6-1.1.8-.5 1.5-1.1 2.3-1.6l.6-.4c2.9-2.1 5.7-4.3 8.3-6.5l.1-.1c7.7-6.3 14.2-12.6 18.7-17.3 8.1-8.3 15.7-17.1 22.7-26.4l13.5 5.5-22 56.3z"/></g></g></svg>