<svg version="1.1" id="Layer_1" xmlns="http://www.w3.org/2000/svg" x="0" y="0" viewBox="0 0 180 180" style="enable-background:new 0 0 180 180" xml:space="preserve"><defs><style>.b{fill:#1a1a1a}.c{fill:#fff}.d{opacity:.2}.e{fill:#bf3b43}</style></defs><path class="e" d="M125.58 61.29c-9.57-9.4-22.46-15.15-36.37-16.26L76.94 32.78l-.58-.58h-.82c-2.7 0-5.38 2.45-6.1 5.58l-1.43 6.81c-1.31 3.11-3.5 5.3-7.05 8.24-3.93 3.25-5.18 6.47-6 8.6l-.16.41c-.89 2.27-1.55 4.26-2.14 6.01-1.42 4.26-2.54 7.62-6.04 12.71L35.1 96.77c-3.58 4.46-3.18 10.65.91 14.12 4.16 3.54 14.25 6.23 17.72 6.23.69 0 1.68-.08 2.39-.77 1.56-1.51 2.63-3.18 3.67-4.8 2.28-3.56 3.92-6.14 9.82-6.16 8.64-.04 16.12-7.87 19.71-11.64l.03-.03.03-.04 2.16-2.5c1.45 2.31 3.1 6.06 1.98 10-.47 1.65-1.21 3.2-2.27 4.74-2.03 2.97-5.02 5.57-7.93 7.93l-.19.16c-7.44 6.03-19.74 15.98-21.85 29.96v.43c.68-.23 1.4-.45 2.17-.64 23.31-4.71 70.62 0 70.62 0 .5.13.98.26 1.44.41v-.2c.4-1.57.98-3.6 1.62-5.84 2.61-9.15 6.17-21.67 6.17-29.88 0-19.36-6.12-35.6-17.7-46.98Z"/><path class="c d" d="M72.96 51.95C80.93 47 75.54 32.2 75.54 32.2c-2.21 0-4.32 3.29-4.92 5.92l-1.44 6.85c-1.39 3.34-3.67 5.65-7.38 8.71-3.72 3.07-4.86 6.02-5.7 8.17l-.16.42c-.88 2.24-1.51 4.13-2.12 5.96-1.44 4.34-2.58 7.76-6.16 12.96L36.14 97.4c-.16.15-.3.31-.44.46-3.72 3.84-.97 7.67-.97 7.67S53.55 82.32 56 79.07c4.44-5.92 1.66-17.59 16.97-27.11Z"/><path d="M97.92 77.54C96.12 80.99 91.66 88 91.66 88s-.46 1.42-1.04 3.43c0 0 2.06-.24 2.44 6.32.1 1.71-.93 9.34.46 6.96 4.37-7.5 6.65-18.1 6.6-21.12-.05-3.02-.41-9.5-2.21-6.04Z" class="d"/><path d="M88.33 45.96s40.37 6 40.37 44.63c0 25.86-17.2 33.09-21.74 50.48 0 0 19.13.15 27.59 4.15 0 0 9.08-24.58 9.08-39.15s-11.32-61.27-55.3-60.11ZM73.44 103.4c-9.02-4.43-11.29-9.69-14.76.71-3.36 10.07-8.46 11.8-5.03 12.85 3.43 1.04 7.66-10.35 10.66-10.53 3-.18 12.5-1.37 9.13-3.02Z" class="d"/><path class="b" d="M74.09 61.41c-5.17 2.12-6.57 10.98-6.57 10.98 5.03-4.38 7.45.64 12.47-3.33 4.19-3.31-.82-9.73-5.89-7.65Z"/><path class="b" d="M61.25 146.42c-.41 0-.82-.13-1.17-.37-.52-.38-.83-.98-.83-1.63v-.43c0-.1 0-.2.02-.3 2.23-14.75 14.96-25.06 22.57-31.22l.19-.16c2.8-2.27 5.65-4.75 7.54-7.51.93-1.36 1.59-2.72 2-4.16.59-2.08.22-4.14-.48-5.9l-.22.25s-.08.09-.1.11c-3.81 4-11.68 12.25-21.18 12.29-4.81.02-5.92 1.77-8.14 5.24-1.05 1.65-2.24 3.5-3.97 5.16-1.37 1.33-3.18 1.33-3.78 1.33-3.81 0-14.46-2.83-19.01-6.7-4.9-4.16-5.42-11.55-1.21-16.85l11.49-16.16c3.32-4.83 4.35-7.92 5.77-12.18.59-1.78 1.26-3.8 2.17-6.11l.16-.41c.84-2.18 2.25-5.83 6.59-9.42 3.25-2.68 5.25-4.66 6.41-7.3l1.39-6.61c.95-4.1 4.41-7.17 8.06-7.17h.82c.53 0 1.04.21 1.41.58L90.08 43.1c14.09 1.29 27.16 7.23 36.88 16.77 11.97 11.76 18.3 28.5 18.3 48.4 0 8.49-3.61 21.17-6.25 30.43-.56 1.96-1.13 3.97-1.54 5.54-.01.61-.31 1.19-.8 1.55-.51.38-1.18.5-1.79.31-.39-.12-.78-.24-1.2-.34-2.95-.28-47.78-4.48-69.88-.02-.58.15-1.25.35-1.92.58-.21.07-.43.11-.64.11Zm31.02-6.74c19.61 0 39.11 1.83 41.73 2.09.36-1.3.77-2.75 1.17-4.17 2.57-9.03 6.1-21.4 6.1-29.33 0-18.81-5.92-34.56-17.1-45.55-9.21-9.05-21.69-14.62-35.13-15.69-.47-.04-.92-.24-1.25-.58L75.53 34.21c-1.74 0-3.64 1.85-4.14 4.03l-1.42 6.77c-.03.13-.06.25-.11.37-1.47 3.47-3.91 5.93-7.62 9-3.53 2.92-4.62 5.73-5.41 7.78l-.16.42c-.87 2.22-1.53 4.19-2.1 5.92-1.41 4.23-2.63 7.89-6.29 13.21L36.74 97.94s-.05.06-.07.09c-2.89 3.6-2.61 8.59.64 11.35 3.64 3.09 13.25 5.75 16.42 5.75.65 0 .9-.11 1-.2 1.39-1.34 2.35-2.84 3.37-4.43 2.33-3.64 4.52-7.07 11.5-7.1 7.79-.03 14.87-7.45 18.27-11.02l2.16-2.5c.42-.48 1.04-.73 1.67-.69.63.05 1.21.39 1.54.93 1.73 2.76 3.52 7.02 2.21 11.61-.53 1.86-1.36 3.6-2.54 5.32-2.18 3.18-5.29 5.9-8.33 8.36l-.19.16c-6.68 5.41-17.55 14.21-20.6 26.1 7.93-1.5 18.23-2 28.51-2Z"/><path class="e" d="M140.11 100.05c-4.13-10.61-12.1-19.57-22.49-25.28l-5.22-13.76-.25-.65-.63-.29c-2.09-.94-5.02.02-6.67 2.19l-3.48 4.77c-2.1 1.95-4.56 2.88-8.34 3.92-4.18 1.14-6.27 3.2-7.65 4.57l-.27.26c-1.48 1.44-2.69 2.75-3.75 3.91-2.58 2.8-4.62 5.02-9.11 7.74l-14.58 8.53c-4.32 2.2-6.18 7.14-4.22 11.25 1.99 4.19 8.86 9.8 11.55 11 .53.24 1.33.53 2.12.24 1.73-.62 3.15-1.54 4.52-2.44 3.01-1.96 5.18-3.38 9.75-1.35 6.71 2.99 15.23-.47 19.32-2.14l.04-.02.04-.02 2.54-1.18c.31 2.29.29 5.78-1.96 8.43-.94 1.11-2.06 2.05-3.41 2.88-2.61 1.59-5.83 2.56-8.91 3.38l-.2.05c-7.87 2.07-20.86 5.49-27.38 15.58l-.15.34c.61.06 1.24.14 1.9.26 19.69 4.49 54.69 24.64 54.69 24.64.34.27.66.55.97.82l.07-.16c.86-1.08 2.02-2.44 3.29-3.95 5.21-6.17 12.34-14.63 15.2-20.98 6.75-14.99 7.68-29.7 2.68-42.55Z"/><path class="c d" d="M102.62 74.47c7.9-1.06 8.89-14.4 8.89-14.4-1.71-.77-4.49 1.04-5.88 2.87l-3.51 4.8c-2.24 2.1-4.82 3.09-8.75 4.17-3.96 1.08-5.87 2.96-7.26 4.34l-.27.27c-1.46 1.43-2.61 2.67-3.72 3.88-2.63 2.85-4.71 5.11-9.29 7.89l-14.57 8.53c-.17.06-.34.13-.5.21-4.22 1.68-3.42 5.6-3.42 5.6s22.67-11.4 25.7-13.07c5.51-3.04 7.42-13.04 22.6-15.07Z"/><path d="M113.03 102.99c-2.6 2.05-8.5 5.92-8.5 5.92s-.85.94-2 2.29c0 0 1.68.54-.31 5.74-.52 1.36-3.98 6.91-2.07 5.55 6-4.28 11.46-11.69 12.48-14.05 1.02-2.36 3-7.5.4-5.45Z" class="d"/><path d="M116.61 75.19s29.17 18.73 15.69 48.64c-9.02 20.03-24.87 19.62-34.45 31.51 0 0 14.76 6.79 19.92 12.84 0 0 15.61-15.86 20.69-27.15 5.21-11.55 12.61-51.39-21.85-65.84Zm-31.56 39.28c-5.44-6.57-5.36-11.44-11.68-4.6-6.12 6.63-10.67 6.19-8.38 8.19 2.29 2 9.54-5.34 11.93-4.44 2.39.9 10.16 3.3 8.13.84Z" class="d"/><path class="b" d="M100.2 82.18c-4.74-.16-8.92 6.21-8.92 6.21 5.42-1.64 5.55 3.09 10.81 1.77 4.4-1.1 2.76-7.82-1.89-7.98Z"/><path class="b" d="M118.86 169.7c-.33 0-.65-.08-.94-.24-2.03-.93-42.07-17.03-57.42-23.19a2.002 2.002 0 0 1-1.2-2.32c2.82-11.74 21.23-17.77 29.01-19.82l.2-.05c2.94-.78 5.99-1.69 8.38-3.15 1.17-.71 2.13-1.52 2.93-2.46 1.01-1.2 1.45-2.66 1.58-4.06-4.4 1.79-13.4 5.41-20.85 2.09-3.58-1.59-4.92-.72-7.85 1.19-1.4.91-2.98 1.95-4.94 2.65-1.64.59-3.12-.08-3.61-.3-3.06-1.38-10.29-7.24-12.53-11.97-2.41-5.08-.18-11.15 5.07-13.87l14.53-8.5c4.22-2.56 6.08-4.58 8.65-7.37 1.09-1.18 2.31-2.51 3.83-3.99l.26-.26c1.43-1.41 3.84-3.78 8.52-5.07 3.39-.93 5.59-1.74 7.37-3.33l3.36-4.61c2.25-2.96 6.16-4.16 9.11-2.83l.63.29c.48.22.86.62 1.05 1.12l5.21 13.73c10.48 5.95 18.54 15.14 22.74 25.95 5.2 13.36 4.26 28.61-2.72 44.1-2.98 6.61-10.21 15.19-15.5 21.45-1.18 1.4-2.26 2.68-3.1 3.72-.27.53-.76.92-1.35 1.06-.15.03-.29.05-.44.05Zm-55.12-26.43c38.43 15.43 50.54 20.34 54.46 22 .73-.88 1.58-1.89 2.49-2.97 5.13-6.08 12.16-14.41 14.91-20.52 6.53-14.49 7.44-28.67 2.64-41.01-3.95-10.16-11.62-18.77-21.59-24.25-.42-.23-.74-.6-.91-1.04l-5.17-13.63c-1.12-.41-3 .12-4.14 1.63l-3.46 4.74c-.08.1-.16.2-.25.29-2.39 2.22-5.17 3.29-9.17 4.38-3.68 1.01-5.47 2.77-6.77 4.06l-.27.27a91.557 91.557 0 0 0-3.67 3.83c-2.59 2.81-4.83 5.24-9.55 8.1L58.68 97.7s-.07.04-.1.06c-3.35 1.71-4.81 5.49-3.33 8.61 1.71 3.61 8.13 8.94 10.56 10.04.46.21.6.19.62.18 1.51-.54 2.76-1.36 4.09-2.23 3.14-2.05 6.1-3.98 11.67-1.5 5.93 2.64 13.92-.6 17.75-2.16l2.53-1.17c.58-.27 1.24-.25 1.8.06.56.3.94.85 1.02 1.48.38 2.81.28 6.82-2.41 10-1.08 1.28-2.36 2.36-3.9 3.3-2.83 1.72-6.21 2.75-9.44 3.6l-.2.05c-10.6 2.79-22.46 8.19-25.59 15.27Zm73.68-.66Z"/><path class="e" d="M50.12 166.55V170h97.22v-3.45c.03-10.36.05-19.38-13.3-22.77 0 0-47.32-4.71-70.62 0-13.35 3.39-13.33 12.41-13.3 22.77Z"/><path class="c d" d="M133.17 143.72c-9.18-1.86-22.19-2.21-34.43-1.98-12.24-.23-25.25.12-34.43 1.98-8.99 2.28-11.76 7.19-12.61 13.33 0 0 7.63-7.36 47.04-7.36s47.03 7.36 47.04 7.36c-.85-6.14-3.62-11.05-12.61-13.33Z"/><path class="b" d="M147.34 172H50.12c-1.1 0-2-.9-2-2v-3.45c-.03-10.3-.06-20.94 14.81-24.72 23.43-4.73 69.37-.25 71.31-.05.1 0 .2.03.29.05 14.87 3.77 14.84 14.42 14.81 24.71v3.45c0 1.1-.9 2-2 2Zm-95.22-4h93.22v-1.46c.03-10.3.05-17.76-11.65-20.79-2.95-.28-47.78-4.48-69.88-.02-11.74 2.98-11.72 10.46-11.7 20.81V168Z"/></svg>