<svg version="1.1" id="Layer_1" xmlns="http://www.w3.org/2000/svg" x="0" y="0" viewBox="0 0 180 180" style="enable-background:new 0 0 180 180" xml:space="preserve"><style>.st1{fill:#bf3b43}</style><g id="camel_knight_classic"><path style="fill:none" d="M0 0h180v180H0z"/><path class="st1" d="M157.2 43.7c.2-2.3.1-4.7-.5-6.9-2 1.3-3.7 3-5.1 4.9l-.2.2-.3-.1c-.3-.1-.7-.1-1-.1h-.1c-.2 0-.4 0-.5-.1-.4 0-.8-.1-1.2 0h-.9c-.9 0-2 .5-3.2 1.3-1.3.7-4 1-7.4 1.1-2.8.1-4.7 0-5.8.8-.8.5-1.4 1.1-2 1.9-1 1.3-1.3 3.3-.8 5.2l1.4.7s-.1 1.7.6 2.8c.7 1.1 3.7 1.1 4.4 1 0 0 1.6-.7 3.1-.5 1.7.3 2.8 1.6 4.8 3 1.7 1.4 4.3 1.4 4.3 1.4-1.2.9-2.6 1.6-4 2.1-2.2.6-4.7.1-7.3-.3-.5-.1-1-.2-1.4-.3-1.8-.3-2.6-.3-3-.2-2.6.3-4 .8-4.6 1.1-.8.4-1.6.9-2.3 1.5l17.7 25.3 4.2-3c3.6-2.5 8.2-6 11.5-9.9 2.6-3.2 4.6-7.1 5.6-10.6 1.3-4.9.1-10.8-2.1-14.4-.5-.9-1.1-1.7-1.7-2.5.5-.7 1.8-2.4 1.7-5.2-1.2-.3-2.6-.4-3.9-.2z"/><path d="M132.6 47.4c-.1 0-.2 0-.3.1-.3.2-.4.5-.2.8 0 .1 0 .1.1.2l1.4 1c.2.1.5.1.7 0 .7-.4.7-.9.6-1.2-.2-.8-1.6-.9-2.3-.9zm18.5-.6c-1.5-.9-3.3-1.2-5.1-.9-.3.1-.6.4-.5.7 0 .1.1.1.1.2.1.2.4.3.7.3h.3v.2c0 .8.6 1.4 1.4 1.4.8 0 1.4-.6 1.4-1.4.4.1.7.3 1.1.5.3.2.6.1.8-.2s.1-.6-.2-.8z"/><path d="M162 51.5c-.2-.6-.5-1-.8-1.4-.1-.2-.2-.3-.4-.5-.1-.1-.2-.3-.3-.4 1-1.4 1.6-3.3 1.6-5.2v-.3l-.3-.1c-1.1-.3-2.4-.4-3.7-.3.2-2 0-4.1-.5-6.4l-.1-.6-.5.3c-2.1 1.4-3.8 3-5.2 5h-1.2c-.2-.1-.4-.1-.5-.1-.4-.1-.9-.1-1.3-.1h-.9c-.9 0-2 .4-3.3 1.3l-.2.1c-1.3.8-4.2.9-7.2 1h-2.4c-1.7.1-2.8.1-3.7.7-.9.5-1.5 1.3-2.1 2-1.1 1.4-1.4 3.5-.9 5.6l.1.2 1.3.6v.1s0 .1.1.1c0 .6 0 1.8.7 2.7.9 1.3 4.3 1.2 4.8 1.2h.1c.2-.1 1.6-.6 2.8-.5 1.1.2 2 .8 3.1 1.7l.3.2c.3.3.8.6 1.2.9.9.7 2 1.2 3.3 1.4h.1l-.1.1c-.9.6-1.9 1.1-2.9 1.3-2 .5-4.5.1-6.8-.3h-.3c-.4-.1-.9-.2-1.4-.3-1.5-.3-2.4-.2-2.9-.2h-.3c-2.6.3-4.1.9-4.6 1.1h-.1c-.9.5-1.7 1-2.4 1.6l-.3.3 18.6 26.1L147 87c5.1-3.4 8.9-6.7 11.6-10 2.6-3.2 4.7-7.2 5.6-10.8 1.4-5.4-.2-11.5-2.2-14.7zm1.3 14.5c-.9 3.4-2.9 7.3-5.4 10.4-2.6 3.2-6.4 6.4-11.4 9.8l-3.8 2.7L125 64.3c.6-.4 1.2-.8 1.9-1.2.5-.2 1.9-.8 4.4-1h.2c.5 0 1.2 0 2.7.2.5.1.9.2 1.3.3l.3.1c2.3.4 5 .8 7.2.2 1.1-.3 2.1-.8 3.1-1.5l1.1-.8c1.2-.2 2.3-.6 3.3-1.2.3-.1.3-.4.2-.6-.1-.2-.4-.2-.6-.1-.9.6-2 .9-3.1 1.2l-1.2-.2c-1.2-.2-2.1-.6-2.9-1.2l-1.2-.9-.3-.2c-1.2-1-2.3-1.7-3.5-1.9-1.5-.2-2.9.4-3.3.5-1 .1-3.4-.1-3.9-.8-.3-.5-.5-1.1-.5-1.6 1 .3 2 .5 3.1.6.3 0 .5-.1.5-.4s-.2-.5-.4-.5c-1.1-.1-2.2-.3-3.3-.7v-.1l-1.5-.7c-.4-1.8-.1-3.5.8-4.6.6-.7 1.2-1.3 1.9-1.8s1.8-.5 3.3-.6h2.4c3.5-.1 6.1-.3 7.5-1.1h.1l.1-.1c1.2-.8 2.2-1.2 3-1.2h.9c.4 0 .7 0 1.1.1h.1c.1 0 .2 0 .3.1h.7c.2 0 .4.1.6.1l.5.2.4-.5c1.2-1.7 2.7-3.2 4.4-4.4.4 1.9.5 3.7.3 5.6h-.1c-1 .2-1.9.5-2.7 1-.2.1-.2.4-.1.6.1.2.4.3.6 0 .7-.4 1.5-.7 2.2-.8v.2l1-.2c1-.1 2.1 0 3 .2-.1 1.6-.6 3.1-1.4 4.3l-.1.1c-.2-.1-.4 0-.5.2-.1.2-1.3 1.4-2.1 2.2-.2.2-.2.4-.1.6.2.2.5.2.7 0l2-2 .1.1c.1.2.2.3.4.5.1.1.2.3.3.4.3.4.6.7.8 1.3 2.2 2.8 3.6 8.5 2.3 13.7z"/><g id="camel_1_"><path class="st1" d="M23.4 51.1c-4-.7-6.9-3-5.5-9 2.2-9 15.4-8.3 15.4-8.3 5-8.7 7.4-8.2 19.5-6.7 9.8 1.3 22.8 4.7 32.2 1.4s22.8 0 22.8 0 13-10.1 16.6-7.2c3.6 2.9 3.3 18.3-2.9 23.4-2.2 1.8 8.1 31.7 25.5 55.3.5.7 13.4 18 14 18.7l-.9 41h-55.9C92.8 141 82.1 115 79.9 81c-.3-4.1 2.2-9-10.5-12.7-12.7-3.6-19.5-1.8-23.5-11.2 0 0-8 2.4-16.3 4.9-23.5 7-10.6-7.5-6.2-10.9z"/><path d="M90.3 46.3c5.5 1.1 11.5-2.8 12.7-8.3l-21.4-4.2c-.9 5.6 3.2 11.4 8.7 12.5zm18.4-9.7c3.3 1.4 5.9 4.2 7 7.6 3.9-4.1 5.3-10.5 3.4-15.7-4.1 1.8-7.6 4.5-10.4 8.1z"/><path d="M163.3 117c-.5-.7-13.4-17.9-14-18.6-15.3-20.9-24.8-46.5-25.2-51.9 4.1-4.2 5.6-11.6 5.5-16.9 0-2.9-.5-8.1-3.4-10.4-1-1-2.2-1.4-3.6-1.4-4.9 0-12.5 5.2-15.6 7.5-2.2-.4-6.9-1.2-12-1.2-4.3 0-8 .5-11.1 1.6-2.3.8-5.1 1.2-8.4 1.2-5.1 0-10.5-.9-15.7-1.8-2.4-.4-4.6-.8-6.7-1l-.7-.1c-3.6-.5-6.4-.8-8.8-.8-5.9 0-8.9 2.5-12.1 7.6-4.3.1-14.4 1.5-16.6 10.6-.8 3.4-.5 6.3 1 8.6.5.8 1.2 1.5 2 2.1-2.8 3-6.1 7.5-4.8 11.2.6 1.7 2.2 3.7 6.7 3.7 2.6 0 6.1-.7 10.6-2 5.5-1.6 10.9-3.2 13.9-4.1 3.6 6.2 8.9 7.2 15.5 8.5 2.6.5 5.5 1.1 8.7 2 3.4 1 5.4 1.9 6.6 2.9.1.1.2.3.4.3 1.4 1.3 1.4 2.8 1.3 4.5v2.3c1.9 29.4 10.2 56.3 24.7 80l.9 1.4h60.5l.1-2.9.9-41v-1.1l-.6-.8zm-3.2 42.7h-55.9C92.8 141 82.1 115 79.9 81c-.1-1.6.2-3.3-.1-5 5.8 1.9 9.2 3.8 9.2 3.8.2.1.4.2.7.2.5 0 1-.3 1.3-.8.4-.7.1-1.6-.6-2-.3-.1-5-2.8-12.9-5-1.5-1.4-4-2.7-8.1-3.9-12.7-3.6-19.5-1.8-23.5-11.2 0 0-8 2.4-16.3 4.9-4.4 1.3-7.6 1.9-9.7 1.9-7.8 0-2.2-7.4 1.7-11.3 6.5-.1 14.9-1.4 15.3-1.4.9-.1 1.4-.8 1.3-1.7s-.9-1.4-1.7-1.3c-.1.1-10.3 1.5-16.7 1.4-1.9-1.3-2.8-3.7-1.9-7.6 1.5-6 7.7-7.7 11.8-8.1h-.1c2 2 4.7 3.1 7.5 3.3s5.7-.8 7.8-2.6c1.1-.9 2-2.3 1.6-3.6-.3-.8-11-.2-11.7 1l-.6.2c2.9-4.7 5.1-6.1 9.5-6.1 2.3 0 5.2.4 9.1.9 6.8.9 15.2 2.8 22.8 2.8 3.3 0 6.5-.4 9.4-1.4 3.1-1.1 6.7-1.4 10.1-1.4 6.8 0 12.7 1.4 12.7 1.4s9.9-7.6 14.8-7.6c.7 0 1.3.2 1.8.5 3.6 2.9 3.3 18.3-2.9 23.4-2.2 1.8 8.1 31.7 25.5 55.3.5.7 13.4 18 14 18.7l-.9 41z"/></g></g></svg>