<svg version="1.1" id="Layer_1" xmlns="http://www.w3.org/2000/svg" x="0" y="0" viewBox="0 0 180 180" style="enable-background:new 0 0 180 180" xml:space="preserve"><style>.st0{fill:#bf3b43}.st1{fill:#040000}</style><g id="Layer_2"><g id="Layer_1-2"><path class="st0" d="M51.2 46C46 41.5 40 37.9 33.5 35.4c-.2 7 .9 14 3.3 20.6l.3.8-.6.6c-.7.7-1.4 1.4-2 2.2l-.2.3c-.3.4-.6.8-1 1.1-.8.9-1.5 1.9-2.2 2.9-.2.3-.7 1.2-1.4 2.2-1.4 2.2-2.2 5.7-2.2 10v.1c-.4 4.5-4.5 11.4-9.8 19.8-4.5 7.1-8 11.6-8 15.5 0 2.7.4 5.4 1.2 8 1.4 4.7 5.9 8.8 11.2 10.8l4.2-2.3s3.9 3.3 7.8 3.3 9.1-7.1 10.1-9.1c0 0 .9-5.1 4-8.3 3.6-3.7 8.6-4.2 15.4-6.7 6.3-1.7 10.8-8.1 10.8-8.1.2 4.5-.4 9-1.7 13.3-2.3 6.2-7.8 11.7-13.2 17.1l-3.1 3.1c-3.7 3.8-5.1 5.9-5.6 6.9-3.8 6.7-4.8 11-5.1 12.9-.5 2.7-.6 5.5-.4 8.2h91.6v-15.4c0-13.1-.5-30.1-4.6-44.8C129 88.8 122.9 77 116 68.8c-9.7-11.6-26.2-18.6-38.7-19.3-3-.2-5.9-.2-8.9 0-1-2.5-2.8-8.3-9.6-13-3.3 2.5-5.8 5.8-7.6 9.5z"/><path class="st1" d="M138.3 161.9H44.1l-.2-1.1c-.2-2.9-.1-5.8.4-8.7.3-2 1.4-6.4 5.3-13.4.6-1.2 2.1-3.4 5.8-7.1 1-1 2-2.1 3.1-3.1 5.3-5.2 10.7-10.7 12.9-16.6.9-3 1.5-6.1 1.6-9.2-2.5 2.7-5.6 4.6-9 5.7-1.9.7-3.7 1.2-5.2 1.7-4.1 1.2-7.3 2.2-9.6 4.6-2.8 2.9-3.7 7.6-3.7 7.6v.2l-.1.2c-.7 1.3-6.3 9.8-11.3 9.8-3.3 0-6.5-2-7.9-3l-4 2.2-.6-.2c-6-2.3-10.6-6.8-12-11.7-.8-2.7-1.3-5.5-1.2-8.4 0-3.6 2.4-7.1 5.7-12.2.8-1.2 1.7-2.6 2.6-4 4.6-7.3 9.2-14.9 9.6-19.2 0-4.5.8-8.2 2.4-10.7.7-1 1.2-1.8 1.4-2.1.8-1.1 1.6-2.1 2.4-3.1.3-.3.6-.7 1-1.1l.2-.3c.7-.8 1.3-1.5 2.1-2.2-2.5-6.8-3.6-14-3.4-21.2l.1-1.9 1.8.7c6.1 2.3 11.7 5.6 16.7 9.7 1.8-3.3 4.2-6.2 7.2-8.5l.8-.6.8.6c4.6 3.1 8 7.5 9.8 12.7 2.7-.1 5.3-.1 8 .1 11.6.6 28.9 7.1 39.6 19.8 7 8.3 13.3 20.3 16.6 32.1 4.1 14.9 4.7 32 4.7 45.2l-.2 16.7zm-91.7-2.7h89.1v-14c0-13-.5-29.9-4.6-44.4-3.3-11.4-9.3-23.1-16.1-31.1-10.2-12.1-26.7-18.2-37.7-18.8-2.9-.2-5.8-.2-8.7 0l-1 .1-.6-1.6c-1.5-4.5-4.3-8.5-8.1-11.3-2.7 2.3-4.9 5.2-6.4 8.4l-.7 1.6-1.4-1.1c-4.6-4-9.9-7.3-15.5-9.7 0 6.2 1.1 12.4 3.2 18.2l.6 1.6-1.2 1.2c-.7.7-1.3 1.3-1.9 2l-.3.3c-.4.5-.8.9-1.1 1.2-.7.8-1.4 1.7-2 2.6-.2.4-.7 1.2-1.5 2.3-1.3 2-2 5.3-2 9.2v.2c-.4 4.5-4 10.9-10 20.5-.9 1.5-1.8 2.8-2.6 4-3 4.6-5.2 8-5.2 10.7 0 2.6.3 5.1 1.1 7.6 1.2 3.9 5 7.7 9.9 9.7l4.5-2.4.7.6s3.6 2.9 6.9 2.9c2.8 0 7.6-6 8.8-8.2.2-1.1 1.3-5.7 4.3-8.8 2.8-2.9 6.5-4 10.8-5.3 1.6-.5 3.3-1 5.1-1.7h.1c5.8-1.6 10-7.5 10-7.6l2.1-3 .3 3.7c.2 4.7-.4 9.4-1.8 13.9-2.4 6.5-8 12.1-13.5 17.5l-3.1 3.1c-3.7 3.8-5 5.9-5.3 6.5-3.7 6.6-4.7 10.7-5 12.5-.3 2.4-.4 4.7-.2 6.9z"/><path class="st1" d="M26.2 129.3c-.7 0-1.3-.6-1.3-1.3 0-.5.2-.9.6-1.1 3.2-2.1 6-4.6 8.4-7.5.5-.6 1.3-.6 1.9-.2.6.5.6 1.3.2 1.9-2.6 3.2-5.7 5.9-9.1 8.1-.2.1-.5.1-.7.1zm48-28.9c-.7 0-1.3-.6-1.4-1.3 0-.2.1-.5.2-.7 1.6-3.2 2.5-6.6 2.8-10.2 0-.7.7-1.3 1.4-1.2h.1c.7.1 1.3.7 1.2 1.4-.3 3.9-1.3 7.8-3.1 11.3-.2.4-.7.7-1.2.7zm-54.6 14.4c-1 0-1.8-.8-1.8-1.8 0-.3.1-.6.2-.9 1.2-1.9 3.8-4.9 6.2-4.1.8.2 2 1 1.9 3.6 0 .7-.5 1.4-1.2 1.6l-4.8 1.6c-.1 0-.3.1-.5 0z"/><circle class="st1" cx="44.2" cy="74.4" r="4.2"/><path class="st1" d="M49.2 55c-.7 0-1.3-.6-1.3-1.4.2-2.9 1-5.7 2.2-8.2.3-.7 1.1-1 1.8-.7.6.3 1 1 .7 1.7 0 .1 0 .1-.1.2-1.1 2.2-1.7 4.7-1.9 7.1 0 .7-.6 1.3-1.4 1.3.1 0 0 0 0 0zm21 5c-.6 0-1.2-.5-1.3-1.1-.6-3.2-1.5-8.1-1.8-8.9-.3-.7-.1-1.5.6-1.8.7-.3 1.5-.1 1.8.6 0 .1.1.2.1.3.5 1.2 1.7 8 1.9 9.4.1.7-.4 1.4-1.1 1.5h-.2zM38.9 79.4c-.2 0-.5-.1-.7-.2-.9-.4-1.3-1.5-.9-2.4 2.2-4.8 6.1-8.7 11-10.9.9-.4 2 0 2.4.9s0 2-.9 2.4l-.1.1c-4 1.9-7.2 5.1-9.1 9.1-.3.6-1 1-1.7 1z"/><path class="st0" d="M153.2 50s5.6-2.3 13.8 7.6c6 7.2 5.1 17.8-2.1 23.8l-.1.1c-5.8 4.9-14.1 5.3-20.3 1l-8.1 4.5-6.1 8.9c-1.7-.3-1.3-8.1-4.9-11.2-4.5-3.9-5-7.1-8.7-11.8-3.8-4.6-9.6-8-12.6-13.1-2.3-4-8.1-3.4-8.1-5.1l9.8-4.5 5.8-7.1c-3.2-6.9-1.3-15 4.6-19.8 7.2-6 17.8-5.1 23.8 2.1l.1.1c8.3 9.9 5 15 5 15"/><path class="st1" d="M165.4 81.8c7.5-6.3 8.5-17.4 2.3-24.9-8.5-10.2-14.5-7.9-14.7-7.8l.6 1.5s5.2-1.9 12.9 7.4c5.7 6.9 4.8 17.1-2.1 22.8-5.5 4.7-13.5 5-19.4.9l-.4-.3-8.7 4.8-5.8 8.5.5 1.9 6.3-9.2 7.5-4.2c6.6 4.1 15.1 3.6 21-1.4zm-59-31.3 6.2-7.7-.2-.4c-3-6.6-1.2-14.3 4.4-18.9 6.9-5.7 17-4.8 22.8 2 7.7 9.2 5 14 4.9 14l1.3.8c.2-.2 3.5-5.7-5-15.9-6.3-7.5-17.5-8.5-25-2.3-6 4.9-8 13.2-5 20.3l-5.4 6.7-9.9 4.6 1.4 1.1 9.5-4.3zm55.6-14-5.2 4.3-2-2.4L160 34l-2.3-2.8c-.5-.5-.6-1.3-.2-1.8l.3-.3c.5-.5 1.3-.6 1.8-.1l.3.3 2.3 2.8 2.9-2.4c.5-.6 1.4-.6 2-.1.1.1.2.2.2.3.6.5.6 1.4.1 1.9l-.3.3-2.9 2.4 2.4 2.9c.5.5.5 1.3.1 1.8-.1.1-.2.2-.3.2-.5.5-1.3.5-1.8.1-.1-.1-.2-.2-.2-.3l-2.4-2.7z"/><path class="st1" d="M135.8 87.2c-3.4-7.2-7.7-14-12.8-20.1-5.1-6.2-11-11.7-17.5-16.3l.9-1.3c6.7 4.7 12.6 10.3 17.8 16.6 5.2 6.2 9.6 13.1 13 20.5l-1.4.6zm8.1-4.5c-3.7-7.7-8.3-15-13.7-21.6-6.1-7.3-14.1-14.3-18.9-17.5l.9-1.3c4.9 3.2 13.1 10.4 19.2 17.8 5.5 6.7 10.2 14.1 13.9 22l-1.4.6z"/><path transform="rotate(-40.412 133.71 58.005)" class="st1" d="M129.7 57.2h8v1.6h-8z"/><path class="st1" d="M129.6 95.8c0-1.1-.6-3.5-3.5-8.3-3-5.1-6.5-10-10.3-14.5-3.7-4.6-7.9-8.9-12.4-12.7-4.3-3.7-6.5-4.7-7.6-4.9l.3-1.5c1.9.4 4.6 2.1 8.3 5.2C109 63 113.2 67.4 117 72c3.9 4.6 7.4 9.5 10.4 14.7 2.4 4.2 3.6 7.1 3.7 9.1h-1.5z"/><path class="st0" d="M136.8 55.4c1-.5 15.5-5.2 16.4-5.5.8-.3 1.5-.7 2.1-1.2 2.7-2.6 2.8-6.9.2-9.6-2.3-2.4-6.1-2.7-8.8-.8-.6.5-1.2 1.2-1.6 1.9-.4.9-7.6 14.3-8.3 15.2z"/><path class="st1" d="m134.5 57.4 1.7-2.4c.4-.6 4.6-8.3 6.6-12 .9-1.7 1.6-2.9 1.7-3.1 2-3.6 6.6-4.9 10.2-2.8 3.6 2 4.9 6.6 2.8 10.2 0 .1-.1.1-.1.2-.4.7-.9 1.4-1.6 1.9-.7.6-1.5 1-2.4 1.3l-3.4 1.1c-4 1.3-12.3 4-12.9 4.3l-2.6 1.3zm21-17.6c-2.1-2.5-5.8-2.9-8.3-.8-.6.5-1 1-1.4 1.7-.1.2-.8 1.5-1.7 3.1-2.1 4-4.3 7.9-5.6 10.2 2.5-.9 6.8-2.3 11-3.6 1.7-.6 3.1-1 3.3-1.1 3.1-1 4.8-4.3 3.7-7.4-.1-.8-.4-1.5-1-2.1z"/></g></g></svg>