
<svg version="1.1" id="Layer_1" xmlns="http://www.w3.org/2000/svg" xmlns:xlink="http://www.w3.org/1999/xlink" x="0px" y="0px"
   viewBox="0 0 180 180" style="enable-background:new 0 0 180 180;" xml:space="preserve">

<style type="text/css">
  .st0{fill:#BF3B43;}
  .st1{opacity:0.2;fill:#FFFFFF;enable-background:new    ;}
  .st2{opacity:0.2;}
  .st3{fill:#FFFFFF;}
  .st4{fill:#1A1A1A;}
  .st5{opacity:0.2;fill:#040000;enable-background:new    ;}
  .st6{fill:none;stroke:#040000;stroke-width:3.5;stroke-miterlimit:10;}
</style>
<title>o</title>
<g id="Layer_2">
  <g id="Layer_1-2">
    <path class="st0" d="M70.2,14.6h-0.9c-2.9,0-5.8,2.7-6.6,6.1L61.2,28c-1.4,3.4-3.8,5.8-7.7,9c-3,2.4-5.3,5.7-6.5,9.4l-0.2,0.5
      c-1,2.5-1.7,4.6-2.3,6.5c-1.4,4.9-3.6,9.6-6.6,13.8L25.4,84.8c-3.9,4.9-3.5,11.6,1,15.4c4.5,3.8,15.5,6.8,19.3,6.8
      c1,0.1,1.9-0.3,2.6-0.9c1.5-1.6,2.9-3.3,4-5.2c2.5-3.9,4.3-6.7,10.7-6.7c9.4,0.1,17.5-8.5,21.4-12.6l0,0l2.3-2.7
      c1.6,2.5,3.4,6.6,2.2,10.9c-0.5,1.8-1.4,3.6-2.5,5.2c-2.4,3.3-5.3,6.2-8.6,8.6l-0.2,0.2c-8.1,6.5-21.5,17.4-23.8,32.6
      c-14.3,3.9-14.3,14-14.3,25.4v3.9h109.4v-3.9c0-11.5,0.1-21.5-14.3-25.4c0.4-1.7,1.1-3.9,1.8-6.4c2.8-9.9,6.7-23.6,6.7-32.5
      c0-21.1-6.7-38.7-19.3-51.1c-10.7-10.4-24.7-16.6-39.6-17.7L70.9,15.2L70.2,14.6z"/>
    <path class="st1" d="M94.6,141.7c46.4,0,51.2,5.1,51.2,5.1h0.7c-2.1-11-26.4-12.2-26.4-12.2H69.3c0,0-25.1,0.9-26.5,12.2h0.6
      C43.4,146.8,48.3,141.7,94.6,141.7z"/>
    <g class="st2">
      <path class="st3" d="M66.6,36.1c8.7-5.4,2.8-19.4,2.8-19.4c-2.6-0.1-4.9,1.8-5.4,4.3l-1.6,7.4c-1.5,3.6-4,6.1-8,9.5
        c-2.9,2.3-5,5.4-6.2,8.9L48,47.3c-1,2.4-1.6,4.5-2.3,6.5c-1.4,5-3.7,9.8-6.7,14.1L26.5,85.5c-0.2,0.2-0.3,0.3-0.5,0.5
        c-2.4,2.1-2.8,5.7-1.1,8.3c0,0,20.4-25.2,23.2-28.8C52.9,59.1,49.9,46.4,66.6,36.1z"/>
    </g>
    <path class="st4" d="M67.8,46.3c-5.6,2.3-7.1,11.9-7.1,11.9c5.5-4.8,8.1,0.7,13.6-3.6C78.8,51.1,73.3,44.1,67.8,46.3z"/>
    <path class="st5" d="M93.7,63.9c-2,3.8-6.8,11.4-6.8,11.4s-0.5,1.5-1.1,3.7c0,0,2.2-0.2,2.7,6.9c0.1,1.9,1,8.4,2.2,5.6
      c3.2-8,5.6-17.7,5.5-21S95.7,60.1,93.7,63.9z"/>
    <path class="st5" d="M83.3,30.6c0,0,43.9,5.5,43.9,47.5c0,28.1-18.7,36-23.7,54.9c0,0,20.8,0.2,30,4.5c0,0,9.9-26.7,9.9-42.6
      C143.4,78.7,131.1,29.4,83.3,30.6z"/>
    <path class="st5" d="M67.1,92.1c-9.8-4.8-12.3-10.5-16,0.8c-3.7,11-9.2,12.8-5.5,14c3.7,1.2,8.4-11.3,11.6-11.5
      C60.4,95,70.7,93.8,67.1,92.1z"/>
    <path class="st4" d="M69.3,16.7l13.9,13.9c27.2,1.8,57.6,21.6,57.6,66.7c0,12-7.5,33.9-8.9,40.4c15.5,3.2,14.7,12.5,14.7,25.6
      h-105c0-12.9-0.7-22,14.1-25.4c1.5-15.3,15.5-26.4,23.4-32.8c3.4-2.6,6.5-5.6,9.1-9.1c1.2-1.8,2.2-3.7,2.8-5.8
      c2-6.9-2.5-13-4.1-14.9L82.8,80c-4.1,4.4-11.5,12-19.9,12c-10.8,0.1-11.1,7.6-16.1,12.5c-0.3,0.2-0.7,0.3-1.1,0.2
      c-3.5,0-13.9-2.9-17.9-6.3c-3.5-2.9-3.9-8.4-0.7-12.4l12.6-17.8c5.6-8.2,5.9-12.5,9.1-20.8c1.1-3.5,3.2-6.6,6.1-8.9
      c4.1-3.4,6.8-6,8.4-10l1.6-7.5C65.4,18.9,67.4,16.7,69.3,16.7 M71.2,12.4h-1.8c-4,0-7.7,3.3-8.7,7.7v0.1l-1.5,7.1
      c-1.3,2.9-3.4,5-7,8c-3.3,2.7-5.8,6.2-7.2,10.2L44.8,46c-1,2.5-1.7,4.7-2.4,6.6c-1.4,4.7-3.5,9.2-6.3,13.3L23.6,83.5
      c-4.6,5.8-4.1,13.8,1.3,18.3c5,4.2,16.5,7.3,20.7,7.3c1.5,0.1,3-0.4,4.1-1.4c1.7-1.7,3.1-3.6,4.3-5.6c2.3-3.7,3.6-5.7,8.9-5.7
      c10.3,0,18.9-9,23-13.3L86,83l0.1-0.1l0.3-0.3c0.9,2,1.1,4.3,0.5,6.5c-0.5,1.6-1.2,3.2-2.2,4.5c-2.3,3.1-5.1,5.9-8.2,8.2l-0.2,0.2
      c-8.1,6.5-21.3,17.2-24.3,32.5c-6.2,2-10.3,5.4-12.5,10.3s-2.2,10.4-2.1,16.9v6H151v-6c0-6.5,0-12.2-2.2-17.1
      c-2.2-4.6-5.9-7.8-11.6-9.8c0.4-1.3,0.8-2.8,1.2-4.3c2.9-10.1,6.8-23.9,6.8-33.1c0-45.3-29.9-68.1-60-70.8L72.4,13.7L71.2,12.4
      L71.2,12.4z"/>
    <path class="st4" d="M94.6,135.3c11.3-0.1,22.5,0.5,33.8,1.8c1.9,0.2,3.7,0.6,5.6,1.1l0.7-4.3c-1.9-0.5-3.8-0.8-5.7-1.1
      c-11.4-1.3-22.8-1.9-34.3-1.8l0,0c-11.4-0.1-22.9,0.5-34.2,1.8c-2,0.2-4,0.6-6,1.1l0.9,4.2c1.9-0.5,3.8-0.8,5.7-1.1
      C72.1,135.7,83.3,135.1,94.6,135.3z"/>
    <path class="st0" d="M136.8,134.6c0.8-1.2,1.9-2.8,3.2-4.6c4.9-7.1,11.8-16.9,14.3-24c5.7-16.8,5.2-32.8-1.7-46.1
      c-5.9-11.3-15.6-20.2-27.3-25.2l-7.2-14.3l-0.3-0.7l-0.7-0.2c-2.4-0.8-5.5,0.5-7,3l-3.3,5.5c-2.1,2.3-4.7,3.5-8.7,5
      c-3.1,1.1-5.8,3.1-7.9,5.6l-0.3,0.3c-1.5,1.7-2.6,3.2-3.7,4.6c-2.5,3.5-5.6,6.7-9.1,9.2l-15,10.6c-4.5,2.8-6,8.3-3.4,12.5
      s10.8,9.7,13.8,10.8c0.8,0.3,1.6,0.3,2.3,0c1.7-0.8,3.2-1.8,4.7-3.1c3.1-2.4,5.3-4.1,10.5-2.4c7.6,2.7,16.6-1.9,20.9-4.1l0,0
      l2.6-1.5c0.6,2.4,0.9,6.2-1.2,9.3c-0.9,1.3-2.1,2.5-3.4,3.4c-2.9,1.9-6,3.4-9.3,4.5l-0.2,0.1c-8.4,3-22.3,7.9-28.3,19.4"/>
    <g class="st2">
      <path class="st3" d="M108.9,35.8c8.5-1.9,7.5-14.7,7.5-14.7c-2.1-0.7-4.3,0.1-5.5,1.9l-3.4,5.5c-2.2,2.5-4.9,3.8-9.1,5.3
        c-3,1-5.5,2.9-7.5,5.4l-0.3,0.3c-1.4,1.7-2.6,3.1-3.6,4.5c-2.6,3.6-5.7,6.8-9.3,9.4l-15,10.6l-0.5,0.3c-2.5,1-3.8,3.7-3.1,6.3
        c0,0,23.5-14.4,26.7-16.5C91.6,50.4,92.5,39.4,108.9,35.8z"/>
    </g>
    <path class="st4" d="M107.1,44.4c-5.2,0.3-9.1,7.5-9.1,7.5c5.7-2.3,6.4,2.8,12,0.9C114.7,51.2,112.2,44.1,107.1,44.4z"/>
    <path class="st5" d="M123.3,65.6c-2.6,2.5-8.6,7.2-8.6,7.2s-0.8,1.1-1.9,2.6c0,0,1.9,0.4,0.3,6.2c-0.4,1.5-1.5,6.9,0.2,5
      c4.9-5.5,9.4-12.6,10.2-15.2S126,63.1,123.3,65.6z"/>
    <path class="st5" d="M124,36.1c0,0,34.2,16.6,22.7,50.1c-7.7,22.4-25,23.5-34.2,37.2c0,0,16.9,5.9,23.2,12
      c0,0,15.3-18.6,19.7-31.2C159.7,91.2,163.2,48.5,124,36.1z"/>
    <path class="st5" d="M94,80.6c-6.7-6.6-7.1-11.8-13.2-3.9c-6,7.7-11,7.7-8.3,9.7s9.8-6.7,12.5-5.9C87.7,81.3,96.5,83,94,80.6z"/>
    <path class="st4" d="M99.6,96.2c3.5-1.1,6.8-2.7,9.8-4.7c1.5-1.1,2.8-2.4,3.8-3.8c3.5-4.9,1.5-11.1,0.8-13l-4.6,2.6
      c-4.6,2.3-12.6,6.3-19.4,4c-8.8-3-11.1,3-16.5,5.5c-0.3,0.1-0.6,0-0.9-0.1c-2.9-1-10.5-6.2-12.8-10c-2-3.6-0.7-8.1,2.8-10.1
      c0,0,0,0,0,0L77.6,56c6.8-5,8.2-8.4,13.1-14c1.9-2.5,4.4-4.4,7.4-5.4c4.3-1.6,7.1-2.9,9.5-5.6l3.4-5.7c1.1-1.7,3.2-2.8,4.9-2.2
      l0,0l0,0l0,0l7.5,14.9c21.6,9.1,40.9,33.3,28.6,69.3c-3.2,9.3-14.7,24.1-18,29.3l5-0.5l-0.1-0.1c0.6-0.9,1.4-2,2.2-3.1
      c5.1-7.2,12-17.1,14.6-24.5c12.4-36.1-5.6-62.6-29.4-73.2l-7-13.8l-0.6-1.3l-1.5-0.5c-3.2-1.1-7.2,0.5-9.2,3.7v0.1l-3.2,5.3
      c-1.8,1.9-4.1,3-7.8,4.4c-3.4,1.2-6.4,3.3-8.6,6.2l-0.3,0.3c-1.5,1.7-2.7,3.2-3.7,4.6c-2.4,3.4-5.4,6.4-8.8,8.8l-15,10.5
      c-5.3,3.3-7.1,9.8-3.9,15c2.9,4.7,11.5,10.4,14.8,11.6c1.2,0.5,2.5,0.5,3.7,0c1.8-0.9,3.5-2,5-3.2c3-2.4,4.5-3.6,8.8-2.1
      c8.4,2.9,17.8-1.9,22.3-4.2h0.1h0.1l0.3-0.2c0.2,1.8-0.3,3.7-1.3,5.2c-0.8,1.2-1.8,2.2-3,3c-2.8,1.8-5.7,3.2-8.9,4.2l-0.2,0.1
      c-8.3,2.9-21.9,7.7-28.5,18.9l2.1,3.9C77.1,104.1,91.4,99.1,99.6,96.2z"/>
    <line class="st6" x1="69.6" y1="111.9" x2="138.7" y2="136"/>
  </g>
</g>

</svg>
