<svg version="1.1" id="Layer_1" xmlns="http://www.w3.org/2000/svg" x="0" y="0" viewBox="0 0 180 180" style="enable-background:new 0 0 180 180" xml:space="preserve"><style>.st1,.st2{opacity:.2;fill:#040000;enable-background:new}.st2{fill:#fff}</style><g id="Layer_1-2"><path d="M122.7 132.6c-17.6-11.1-19.4-24.8-20-30.7H77c-.5 5.8-2.3 19.5-20 30.7-8 5-12.7 14.7-12.7 26.4v2h91v-2c.1-11.8-4.6-21.4-12.6-26.4z" style="fill:#fff"/><path class="st1" d="M115 127.6c-10.8-7.6-11.5-22.2-12.2-25.6h.1l-.3-.3H76.8v.4h.1s13.2 13.3 24.2 23.7c10.5 9.9 26.5 11.3 26.5 11.3s-7.1-5.7-12.6-9.5z"/><path class="st2" d="M46.3 158.9c4.3-14.3 10.5-16.2 21.8-24.5 7.5-5.5 8.5-22 8.5-22 .2-.9-3.8 6.7-8.1 10.4-1.4 1.2-11 7.8-15.1 12.2-7 7.6-7.9 26.6-7.1 23.9z"/><path d="M123.9 130.1c-14.8-9.3-17.9-20.5-18.8-26.9l-4.4-3.7v.4c.5 4.6.8 20.9 21.1 33.7 7.5 4.7 11.8 13.7 11.8 24.7h-87c0-11 4.3-20 11.7-24.7 20.3-12.8 20.6-29.1 21-33.7l.1-.8-4.8 3.8h.3c-2.5 17-14.3 24.4-18.8 27.3-8.6 5.4-13.6 15.7-13.6 28.1v4h95v-4c0-12.5-5-22.7-13.6-28.2z" style="fill:#1a1a1a"/><path d="M76 45.6h28.6v43.5H76zM59.9 89.2h60v12.2h-60z" style="fill:#fff;stroke:#231815;stroke-width:4;stroke-miterlimit:10"/><path class="st1" d="M98.1 46.8h5.5V89h-5.5zM114.9 89h5.5v12.6h-5.5z"/><path class="st2" d="M61.9 91.1h56v1.4h-56z"/></g></svg>