<svg id="Layer_1" data-name="Layer 1" xmlns="http://www.w3.org/2000/svg" width="90" height="90"><defs><style>.cls-3{fill:none}.cls-4{fill:#e9eacf}.cls-5{fill:#c5d3a0}</style></defs><path d="M78.44 18.11 51.56 5.28A15.74 15.74 0 0 0 45 4a15.74 15.74 0 0 0-6.56 1.29L11.56 18.11A12.6 12.6 0 0 0 5 28.51v30.91a13.84 13.84 0 0 0 6.32 10.86l27.36 15.54A13.08 13.08 0 0 0 45 87.31a13.08 13.08 0 0 0 6.32-1.49l27.36-15.54A13.84 13.84 0 0 0 85 59.42V28.51a12.6 12.6 0 0 0-6.56-10.4Z" style="fill:#6c9d41"/><path d="M66.14 34.69 52 42.5a9.7 9.7 0 0 0-5 8.5v32.21a1.87 1.87 0 0 1-1.64 1.88 1.81 1.81 0 0 1-2-1.81V51.1a9.69 9.69 0 0 0-5-8.47L10.24 26.92a1.81 1.81 0 0 1-.71-2.47 1.83 1.83 0 0 1 2.47-.71l28.3 15.82a9.74 9.74 0 0 0 9.42 0L78 24a1.82 1.82 0 1 1 1.76 3.18l-13.62 7.5" style="fill:#95bb4a"/><path class="cls-3" d="M42.8 84.12 5.22 63.45V25.46L42.8 46.13v37.99z"/><path class="cls-4" d="m15.87 64.82 18.79 10.33a10.72 10.72 0 0 0-2.54-6.78c-4.37-5.18-4.44-8.19-4.54-9.24v-1.18l2.66 1.46a2.68 2.68 0 0 0 .46-1.64l-3.09-3.63h.23a2.41 2.41 0 0 0 2-2.7c0-2.52-2-5.69-4.53-7.07s-4.52-.44-4.52 2.09a8.3 8.3 0 0 0 2 4.88l.23.29-3.1.21a5.74 5.74 0 0 0 .4 2.16L23 55.43v1.15c-.1.94-.16 3.87-4.55 4.24-1.66.18-2.58 1.59-2.58 4Z"/><path class="cls-5" d="M17.13 64.82c0-2.41.92-3.86 2.53-4 4.39-.37 4.45-3.3 4.55-4.24v-1.15L21.58 54a5.91 5.91 0 0 1-.46-2.16l3.1-.21-.22-.32a8.3 8.3 0 0 1-2-4.88 2.43 2.43 0 0 1 1.77-2.65c-1.76-.34-3 .66-3 2.65a8.3 8.3 0 0 0 2 4.88l.23.29-3.1.21a5.74 5.74 0 0 0 .42 2.19L23 55.43v1.15c-.1.94-.16 3.87-4.55 4.24-1.61.14-2.53 1.59-2.53 4l18.74 10.33v-.71Z"/><path class="cls-3" d="M79.25 20.58 44.3 38.15 9.56 20.27 44.51 2.69l34.74 17.89z"/><path class="cls-4" d="M37 23c2.44 1.75 6.11 4.61 6.91 5.14l14-7c-1-.41-6.61-2.31-10-3.57Zm-1-.79L46.29 17c1.1-1.06.53-1.89-.46-2.57l-3.91-2.33a11.05 11.05 0 0 0-3.29 1l2.16 1.81-2.26 1.14-3.72-1.5a19.27 19.27 0 0 0-1.92.8 16 16 0 0 0-1.59 1l2.91 1.92L32 19.39l-3.54-1.12a4.6 4.6 0 0 0-2 1.66L31 22a7.87 7.87 0 0 0 5 .21Zm21.46.48L47 28c-5.24 2.63-1.09 4.74-1.09 4.74l1.74.9 20.89-10.55-1.73-.9a10.78 10.78 0 0 0-9.35.5Z"/><path class="cls-3" d="M83.6 64.03 49.21 82.66V45.92L83.6 27.3v36.73z"/><path class="cls-4" d="M58.79 60.84c.86-1.36.91-2.76 2.75-3.77 1.42-.77 2.68-2.84 3.39-4l.7-1.25a2.14 2.14 0 0 1 .69 2.34 6.25 6.25 0 0 1-.47 1.31A16.93 16.93 0 0 1 64.31 58c-1.35 1.9-3.72 4.52-4 7.43l13-7c.23-1.31 1.52-5.33 1.52-7.51 0-8.2-5.19-9-9.82-6.82l-2.37-1.24a2 2 0 0 0-.77 1.14l-.27 1.52a9.3 9.3 0 0 1-1.43 2.59 6.4 6.4 0 0 0-1 2.18 25.41 25.41 0 0 1-1.55 4.63l-2.18 4.38c-.55 1-.48 2 .11 2.2a5.24 5.24 0 0 0 3.24-.66Zm12.8-.18-10.35 5.6c-5.15 2.8-5.13 7.15-5.13 7.15v1.83l20.61-11.16v-1.84s.03-4.37-5.13-1.58Z"/><path class="cls-5" d="m64.84 51.32-.7 1.25c-.71 1.17-2 3.24-3.39 4-1.84 1-1.88 2.41-2.75 3.77a5.51 5.51 0 0 1-2.85.72.71.71 0 0 0 .4.43 5.24 5.24 0 0 0 3.24-.66c.86-1.36.91-2.76 2.75-3.77 1.42-.77 2.68-2.84 3.39-4l.53-.94a2 2 0 0 0-.62-.8Zm9.16-.97c0 2.17-1.29 6.2-1.52 7.51l-12 6.51a5.78 5.78 0 0 0-.18 1l13-7c.23-1.31 1.52-5.33 1.52-7.51 0-4.14-1.32-6.39-3.23-7.32 1.48 1.12 2.41 3.27 2.41 6.81Zm1.23 9.49a3 3 0 0 1 .7 1.91v1.84L56.11 74.32v.92l20.61-11.16v-1.84s.01-1.92-1.49-2.4Zm-18.31-38.2 1-.5c-1-.41-6.61-2.31-10-3.57L37 23l.54.39 10.09-5.08c2.92 1.11 7.37 2.69 9.29 3.33Zm-22.35-6.29 3.73 1.51 3-1.44-.48-.48-2.26 1.14-3.72-1.5a19.27 19.27 0 0 0-1.92.8 16 16 0 0 0-1.59 1l.47.32c.27-.16.58-.34.89-.5.78-.45 1.88-.85 1.88-.85Zm11.02-.1a2 2 0 0 1 1.06 1.36c.57-.86 0-1.56-.82-2.14l-3.91-2.33a11.05 11.05 0 0 0-3.29 1l.53.44a12 12 0 0 1 2.52-.65Zm-17.42 3.8 3.54 1.12 2.94-1.46-.44-.45L32 19.39l-3.54-1.12a4.6 4.6 0 0 0-2 1.66l.28.13a5.59 5.59 0 0 1 1.43-1.01Zm18.55 9.7 10.51-5.28a10.71 10.71 0 0 1 9.34-.5l1.09.56.88-.44-1.73-.9a10.78 10.78 0 0 0-9.35.5L47 28c-2 1-2.62 1.92-2.65 2.69a5.59 5.59 0 0 1 2.37-1.94Z"/></svg>