
<svg version="1.1" id="Layer_1" xmlns="http://www.w3.org/2000/svg" xmlns:xlink="http://www.w3.org/1999/xlink" x="0px" y="0px"
   viewBox="0 0 180 180" style="enable-background:new 0 0 180 180;" xml:space="preserve">

<style type="text/css">
  .st0{fill:none;}
  .st1{fill:#BF3B43;}
</style>
<title>v</title>
<g id="camel_knight_classic">
  <rect class="st0" width="180" height="180"/>
  <g>
    <path class="st1" d="M157.2,43.7c0.2-2.3,0.1-4.7-0.5-6.9c-2,1.3-3.7,3-5.1,4.9l-0.2,0.2l-0.3-0.1c-0.3-0.1-0.7-0.1-1-0.1H150
      c-0.2,0-0.4,0-0.5-0.1c-0.4,0-0.8-0.1-1.2,0c-0.1,0-0.5,0-0.9,0c-0.9,0-2,0.5-3.2,1.3l0,0c-1.3,0.7-4,1-7.4,1.1
      c-2.8,0.1-4.7,0-5.8,0.8c-0.8,0.5-1.4,1.1-2,1.9c-1,1.3-1.3,3.3-0.8,5.2l1.4,0.7c0,0-0.1,1.7,0.6,2.8c0.7,1.1,3.7,1.1,4.4,1
      c0,0,1.6-0.7,3.1-0.5c1.7,0.3,2.8,1.6,4.8,3c1.7,1.4,4.3,1.4,4.3,1.4c-1.2,0.9-2.6,1.6-4,2.1c-2.2,0.6-4.7,0.1-7.3-0.3
      c-0.5-0.1-1-0.2-1.4-0.3c-1.8-0.3-2.6-0.3-3-0.2c-2.6,0.3-4,0.8-4.6,1.1c-0.8,0.4-1.6,0.9-2.3,1.5l17.7,25.3l4.2-3
      c3.6-2.5,8.2-6,11.5-9.9c2.6-3.2,4.6-7.1,5.6-10.6c1.3-4.9,0.1-10.8-2.1-14.4c-0.5-0.9-1.1-1.7-1.7-2.5c0.5-0.7,1.8-2.4,1.7-5.2
      C159.9,43.6,158.5,43.5,157.2,43.7z"/>
    <g>
      <path d="M132.6,47.4c-0.1,0-0.2,0-0.3,0.1c-0.3,0.2-0.4,0.5-0.2,0.8c0,0.1,0,0.1,0.1,0.2l1.4,1c0.2,0.1,0.5,0.1,0.7,0
        c0.7-0.4,0.7-0.9,0.6-1.2C134.7,47.5,133.3,47.4,132.6,47.4z"/>
      <path d="M151.1,46.8c-1.5-0.9-3.3-1.2-5.1-0.9c-0.3,0.1-0.6,0.4-0.5,0.7c0,0.1,0.1,0.1,0.1,0.2c0.1,0.2,0.4,0.3,0.7,0.3
        c0.1,0,0.2,0,0.3,0c0,0.1,0,0.2,0,0.2c0,0.8,0.6,1.4,1.4,1.4c0.8,0,1.4-0.6,1.4-1.4c0.4,0.1,0.7,0.3,1.1,0.5
        c0.3,0.2,0.6,0.1,0.8-0.2S151.4,47,151.1,46.8z"/>
      <path d="M162,51.5c-0.2-0.6-0.5-1-0.8-1.4c-0.1-0.2-0.2-0.3-0.4-0.5c-0.1-0.1-0.2-0.3-0.3-0.4l0,0l0,0c1-1.4,1.6-3.3,1.6-5.2
        v-0.3l-0.3-0.1c-1.1-0.3-2.4-0.4-3.7-0.3c0.2-2,0-4.1-0.5-6.4l-0.1-0.6l-0.5,0.3c-2.1,1.4-3.8,3-5.2,5l-0.2,0c-0.2,0-0.4,0-0.5,0
        c-0.2,0-0.3,0-0.5,0h0c-0.2-0.1-0.4-0.1-0.5-0.1c-0.4-0.1-0.9-0.1-1.3-0.1h-0.9c-0.9,0-2,0.4-3.3,1.3l-0.2,0.1
        c-1.3,0.8-4.2,0.9-7.2,1h-1.2l-1.2,0c-1.7,0.1-2.8,0.1-3.7,0.7c-0.9,0.5-1.5,1.3-2.1,2c-1.1,1.4-1.4,3.5-0.9,5.6l0.1,0.2l1.3,0.6
        c0,0,0,0,0,0.1c0,0,0,0.1,0.1,0.1c0,0.6,0,1.8,0.7,2.7c0.9,1.3,4.3,1.2,4.8,1.2l0.1,0c0.2-0.1,1.6-0.6,2.8-0.5
        c1.1,0.2,2,0.8,3.1,1.7l0.3,0.2c0.3,0.3,0.8,0.6,1.2,0.9c0.9,0.7,2,1.2,3.3,1.4l0.1,0l-0.1,0.1c-0.9,0.6-1.9,1.1-2.9,1.3
        c-2,0.5-4.5,0.1-6.8-0.3l-0.3,0c-0.4-0.1-0.9-0.2-1.4-0.3c-1.5-0.3-2.4-0.2-2.9-0.2l-0.3,0c-2.6,0.3-4.1,0.9-4.6,1.1l-0.1,0
        c-0.9,0.5-1.7,1-2.4,1.6l-0.3,0.3l18.6,26.1L147,87c5.1-3.4,8.9-6.7,11.6-10c2.6-3.2,4.7-7.2,5.6-10.8
        C165.6,60.8,164,54.7,162,51.5z M163.3,66c-0.9,3.4-2.9,7.3-5.4,10.4c-2.6,3.2-6.4,6.4-11.4,9.8l-3.8,2.7L125,64.3
        c0.6-0.4,1.2-0.8,1.9-1.2c0.5-0.2,1.9-0.8,4.4-1l0.2,0c0.5,0,1.2,0,2.7,0.2c0.5,0.1,0.9,0.2,1.3,0.3l0.3,0.1
        c2.3,0.4,5,0.8,7.2,0.2c1.1-0.3,2.1-0.8,3.1-1.5l1.1-0.8c1.2-0.2,2.3-0.6,3.3-1.2c0.3-0.1,0.3-0.4,0.2-0.6
        c-0.1-0.2-0.4-0.2-0.6-0.1c-0.9,0.6-2,0.9-3.1,1.2l-1.2-0.2c-1.2-0.2-2.1-0.6-2.9-1.2c-0.4-0.3-0.8-0.6-1.2-0.9l-0.3-0.2
        c-1.2-1-2.3-1.7-3.5-1.9c-1.5-0.2-2.9,0.4-3.3,0.5c-1,0.1-3.4-0.1-3.9-0.8c-0.3-0.5-0.5-1.1-0.5-1.6c1,0.3,2,0.5,3.1,0.6
        c0.3,0,0.5-0.1,0.5-0.4s-0.2-0.5-0.4-0.5c-1.1-0.1-2.2-0.3-3.3-0.7v-0.1l-1.5-0.7c-0.4-1.8-0.1-3.5,0.8-4.6
        c0.6-0.7,1.2-1.3,1.9-1.8c0.7-0.5,1.8-0.5,3.3-0.6l2.4,0c3.5-0.1,6.1-0.3,7.5-1.1h0.1l0.1-0.1c1.2-0.8,2.2-1.2,3-1.2h0.9
        c0.4,0,0.7,0,1.1,0.1l0.1,0c0.1,0,0.2,0,0.3,0.1l0.3,0c0.1,0,0.2,0,0.4,0c0.2,0,0.4,0.1,0.6,0.1l0.5,0.2l0.4-0.5
        c1.2-1.7,2.7-3.2,4.4-4.4c0.4,1.9,0.5,3.7,0.3,5.6c0,0,0,0-0.1,0c-1,0.2-1.9,0.5-2.7,1c-0.2,0.1-0.2,0.4-0.1,0.6
        c0.1,0.2,0.4,0.3,0.6,0c0.7-0.4,1.5-0.7,2.2-0.8v0.2l1-0.2c1-0.1,2.1,0,3,0.2c-0.1,1.6-0.6,3.1-1.4,4.3l-0.1,0.1
        c-0.2-0.1-0.4,0-0.5,0.2c-0.1,0.2-1.3,1.4-2.1,2.2c-0.2,0.2-0.2,0.4-0.1,0.6c0.2,0.2,0.5,0.2,0.7,0c0.3-0.3,1.4-1.4,2-2l0.1,0.1
        c0.1,0.2,0.2,0.3,0.4,0.5c0.1,0.1,0.2,0.3,0.3,0.4c0.3,0.4,0.6,0.7,0.8,1.3C163.2,55.1,164.6,60.8,163.3,66z"/>
    </g>
  </g>
  <g id="camel_1_">
    <path class="st1" d="M23.4,51.1c-4-0.7-6.9-3-5.5-9c2.2-9,15.4-8.3,15.4-8.3c5-8.7,7.4-8.2,19.5-6.7c9.8,1.3,22.8,4.7,32.2,1.4
      s22.8,0,22.8,0s13-10.1,16.6-7.2c3.6,2.9,3.3,18.3-2.9,23.4c-2.2,1.8,8.1,31.7,25.5,55.3c0.5,0.7,13.4,18,14,18.7l-0.9,41h-55.9
      C92.8,141,82.1,115,79.9,81c-0.3-4.1,2.2-9-10.5-12.7c-12.7-3.6-19.5-1.8-23.5-11.2c0,0-8,2.4-16.3,4.9C6.1,69,19,54.5,23.4,51.1z
      "/>
    <g>
      <path d="M90.3,46.3c5.5,1.1,11.5-2.8,12.7-8.3l-21.4-4.2C80.7,39.4,84.8,45.2,90.3,46.3z"/>
      <path d="M108.7,36.6c3.3,1.4,5.9,4.2,7,7.6c3.9-4.1,5.3-10.5,3.4-15.7C115,30.3,111.5,33,108.7,36.6z"/>
      <path d="M163.3,117c-0.5-0.7-13.4-17.9-14-18.6c-15.3-20.9-24.8-46.5-25.2-51.9c4.1-4.2,5.6-11.6,5.5-16.9
        c0-2.9-0.5-8.1-3.4-10.4c-1-1-2.2-1.4-3.6-1.4c-4.9,0-12.5,5.2-15.6,7.5c-2.2-0.4-6.9-1.2-12-1.2c-4.3,0-8,0.5-11.1,1.6
        c-2.3,0.8-5.1,1.2-8.4,1.2c-5.1,0-10.5-0.9-15.7-1.8c-2.4-0.4-4.6-0.8-6.7-1L52.4,24c-3.6-0.5-6.4-0.8-8.8-0.8
        c-5.9,0-8.9,2.5-12.1,7.6c-4.3,0.1-14.4,1.5-16.6,10.6c-0.8,3.4-0.5,6.3,1,8.6c0.5,0.8,1.2,1.5,2,2.1c-2.8,3-6.1,7.5-4.8,11.2
        c0.6,1.7,2.2,3.7,6.7,3.7c2.6,0,6.1-0.7,10.6-2c5.5-1.6,10.9-3.2,13.9-4.1c3.6,6.2,8.9,7.2,15.5,8.5c2.6,0.5,5.5,1.1,8.7,2
        c3.4,1,5.4,1.9,6.6,2.9c0.1,0.1,0.2,0.3,0.4,0.3c1.4,1.3,1.4,2.8,1.3,4.5c0,0.7,0,1.5,0,2.3c1.9,29.4,10.2,56.3,24.7,80l0.9,1.4
        h1.7H160h2.9l0.1-2.9l0.9-41v-1.1L163.3,117z M160.1,159.7h-55.9C92.8,141,82.1,115,79.9,81c-0.1-1.6,0.2-3.3-0.1-5
        c5.8,1.9,9.2,3.8,9.2,3.8c0.2,0.1,0.4,0.2,0.7,0.2c0.5,0,1-0.3,1.3-0.8c0.4-0.7,0.1-1.6-0.6-2c-0.3-0.1-5-2.8-12.9-5
        c-1.5-1.4-4-2.7-8.1-3.9c-12.7-3.6-19.5-1.8-23.5-11.2c0,0-8,2.4-16.3,4.9c-4.4,1.3-7.6,1.9-9.7,1.9c-7.8,0-2.2-7.4,1.7-11.3
        c6.5-0.1,14.9-1.4,15.3-1.4c0.9-0.1,1.4-0.8,1.3-1.7s-0.9-1.4-1.7-1.3c-0.1,0.1-10.3,1.5-16.7,1.4c-1.9-1.3-2.8-3.7-1.9-7.6
        c1.5-6,7.7-7.7,11.8-8.1l-0.1,0c2,2,4.7,3.1,7.5,3.3s5.7-0.8,7.8-2.6c1.1-0.9,2-2.3,1.6-3.6c-0.3-0.8-11-0.2-11.7,1l-0.6,0.2
        c2.9-4.7,5.1-6.1,9.5-6.1c2.3,0,5.2,0.4,9.1,0.9c6.8,0.9,15.2,2.8,22.8,2.8c3.3,0,6.5-0.4,9.4-1.4c3.1-1.1,6.7-1.4,10.1-1.4
        c6.8,0,12.7,1.4,12.7,1.4s9.9-7.6,14.8-7.6c0.7,0,1.3,0.2,1.8,0.5c3.6,2.9,3.3,18.3-2.9,23.4c-2.2,1.8,8.1,31.7,25.5,55.3
        c0.5,0.7,13.4,18,14,18.7L160.1,159.7z"/>
    </g>
  </g>
</g>
</svg>
