<svg version="1.1" id="Layer_1" xmlns="http://www.w3.org/2000/svg" x="0" y="0" viewBox="0 0 180 180" style="enable-background:new 0 0 180 180" xml:space="preserve"><defs><style>.b{fill:#1a1a1a}.c{fill:#fff}.d{opacity:.2}.f{fill:#bf3b43}</style></defs><path class="f" d="M133.61 90.7c-5.67-13.78-16.12-21.44-16.12-21.44H63.54S53.09 76.92 47.42 90.7h86.19Zm0 0c-5.67 8.91-20.82 13.86-20.82 13.86H68.24S53.09 99.61 47.42 90.7h86.19Zm-16.15-21.44c-.54-14.42-12.4-25.94-26.95-25.94S64.1 54.84 63.56 69.26h53.9Z"/><path d="M117.49 69.26h-.03c-.36-9.58-5.72-17.88-13.54-22.37.09.25 6.02 16.1-8.29 22.4 0 0 9.87 15.52-14.47 21.41h28.72s-4.12 13.86-33.13 13.86h36.04s15.15-4.95 20.82-13.86c-5.67-13.78-16.12-21.44-16.12-21.44Z" class="d"/><circle class="f" cx="90.51" cy="31.36" r="11.96"/><path class="c d" d="M79.9 36.74c0-8.57 6.95-15.51 15.51-15.51.53 0 1.06.03 1.58.08a11.876 11.876 0 0 0-6.48-1.91c-6.61 0-11.96 5.36-11.96 11.96 0 2 .49 3.88 1.36 5.53v-.15Z"/><path d="M97.97 22c.65 1.53 1.01 3.22 1.01 4.99 0 7.08-5.74 12.83-12.83 12.83-1.77 0-3.45-.36-4.99-1.01a11.93 11.93 0 0 0 9.35 4.51c6.61 0 11.96-5.36 11.96-11.96 0-3.79-1.76-7.16-4.51-9.35Z" class="d"/><path class="b" d="M90.51 45.32c-7.7 0-13.96-6.26-13.96-13.96S82.81 17.4 90.51 17.4s13.96 6.26 13.96 13.96-6.26 13.96-13.96 13.96Zm0-23.93c-5.49 0-9.96 4.47-9.96 9.96s4.47 9.96 9.96 9.96 9.96-4.47 9.96-9.96-4.47-9.96-9.96-9.96Z"/><path class="f" d="M124.94 143.64c-12-16.34-12.15-39.07-12.15-39.07H68.24s-.15 22.73-12.15 39.07h68.85Z"/><path d="M112.79 104.57H68.24s22.32 4.56 28.76 18.3c6.44 13.74-1.63 18.93-1.63 18.93l1.98 1.85h27.6c-12-16.34-12.15-39.07-12.15-39.07Z" class="d"/><path class="b" d="M124.94 145.64H56.09c-.75 0-1.44-.42-1.78-1.1a2.02 2.02 0 0 1 .17-2.09c11.49-15.64 11.76-37.68 11.77-37.9 0-1.1.9-1.99 2-1.99h44.54c1.1 0 1.99.89 2 1.99 0 .22.3 22.29 11.77 37.9a2.005 2.005 0 0 1-1.61 3.19Zm-65.08-4h61.32c-8.41-13.48-10.01-29.51-10.31-35.07H70.18c-.3 5.56-1.91 21.6-10.31 35.07Z"/><path class="f" d="M41.91 166.55V170h97.2v-3.45c.03-10.36.05-19.38-13.3-22.77 0 0-47.31-4.71-70.61 0-13.35 3.39-13.33 12.41-13.3 22.77Z"/><path class="c d" d="M124.94 143.73c-9.18-1.85-22.19-2.21-34.43-1.98-12.24-.23-25.24.12-34.43 1.98-8.99 2.28-11.76 7.19-12.6 13.33 0 0 7.63-7.36 47.03-7.36s47.02 7.35 47.03 7.36c-.85-6.14-3.61-11.04-12.6-13.33Z"/><path class="b" d="M139.11 172h-97.2c-1.1 0-2-.9-2-2v-3.45c-.03-10.29-.06-20.94 14.8-24.71 23.42-4.73 69.35-.24 71.3-.05.1 0 .2.03.29.05 14.86 3.77 14.83 14.42 14.81 24.71V170c0 1.1-.9 2-2 2Zm-95.2-4h93.2v-1.46c.03-10.3.05-17.76-11.64-20.79-2.95-.28-47.77-4.48-69.86-.02-11.74 2.98-11.72 10.46-11.69 20.8v1.46Zm68.88-61.43H68.25c-.21 0-.42-.03-.62-.1-.65-.21-15.9-5.28-21.89-14.69-.39-.62-.42-1.4-.07-2.04.35-.64 1.02-1.04 1.75-1.04h86.19c.73 0 1.4.4 1.75 1.04.35.64.33 1.42-.07 2.04-5.99 9.41-21.24 14.48-21.89 14.69-.2.07-.41.1-.62.1Zm-44.21-4h43.88c1.77-.62 11.26-4.13 16.96-9.86H51.61c5.71 5.73 15.19 9.24 16.96 9.86Z"/><path class="c d" d="M75.37 69.26H69.7s-1.36-11.04 8.75-23.1c-8.55 4.28-14.51 12.97-14.89 23.1h-.03S53.08 76.92 47.41 90.7c0 0 15.41-21.44 27.95-21.44Z"/><path class="b" d="M117.46 71.26h-53.9c-.54 0-1.06-.22-1.44-.61-.38-.39-.58-.92-.56-1.46.59-15.63 13.3-27.87 28.95-27.87s28.36 12.24 28.95 27.87c.02.54-.18 1.07-.56 1.46-.38.39-.9.61-1.44.61Zm-51.74-4h49.58c-1.49-12.46-12-21.94-24.79-21.94s-23.3 9.48-24.79 21.94Z"/><path class="b" d="M133.61 92.7H47.42c-.67 0-1.29-.33-1.66-.89-.37-.55-.44-1.26-.19-1.87 5.82-14.14 16.34-21.97 16.79-22.29.34-.25.76-.39 1.18-.39h53.95c.43 0 .84.14 1.18.39.45.33 10.97 8.15 16.79 22.29a2.005 2.005 0 0 1-1.85 2.76Zm-83.1-4h80.01c-4.77-9.78-11.8-15.89-13.72-17.44H64.23c-1.91 1.55-8.95 7.66-13.72 17.44Z"/></svg>