
<svg version="1.1" id="Layer_1" xmlns="http://www.w3.org/2000/svg" xmlns:xlink="http://www.w3.org/1999/xlink" x="0px" y="0px"
   viewBox="0 0 180 180" style="enable-background:new 0 0 180 180;" xml:space="preserve">
<defs>
<style>
.cls-1{fill:none;}.cls-2{fill:#BF3B43;}</style>
</defs>
<title>
r</title>
<rect class="cls-1" width="180" height="180"/>
<rect class="cls-1" width="180" height="180"/>
<path class="cls-2" d="M140,158.15H40l1.6-15.86L55.4,132.11l4.48-61L47,61.86,45.69,39.07h16V51.76H82.08V39.07H97.92V51.76h20.44V39.07h16L133,61.86l-12.9,9.25,4.48,61,13.78,10.18Z"/>
<path d="M142.48,139.86l-13.63-10.12-4.29-56.51,12.78-9.18,1.45-29.24H114v12.6H102.26V34.81H77.74v12.6H66V34.81H41.2l1.46,29.24,12.78,9.18-4.29,56.51L37.51,139.86,35,162.5H145ZM48.92,60.79,47.81,41.07H59.64V53.76H84.08V41.07H95.92V53.76h24.44V41.07h11.83l-1.11,19.72-13,9.35H62ZM61.49,76.48h57l3.7,50.35H57.79ZM90,156.15H42.23l1.29-12.77,13.8-10.21h65.36l13.8,10.21,1.29,12.77Z"/>
</svg>
