
<svg version="1.1" id="Layer_1" xmlns="http://www.w3.org/2000/svg" xmlns:xlink="http://www.w3.org/1999/xlink" x="0px" y="0px"
   viewBox="0 0 180 180" style="enable-background:new 0 0 180 180;" xml:space="preserve">

<style type="text/css">
  .st0{fill:#BF3B43;}
  .st1{fill:#040000;}
</style>
<title>t</title>
<g>
  <path class="st0" d="M102.1,36.9l4.5,61l13.8,10.2L122,124H22l1.6-15.9l13.8-10.2l4.5-61"/>
  <path class="st1" d="M124.5,104.3l-13.6-10.1l-4.3-56.5l0,0l-6.8-3.1H44l-0.1-0.1l-7,2.8l0.6,0.4l-4.3,56.5l-13.6,10.1l-2.5,22.6
    h110L124.5,104.3z M43.5,40.9h57l3.7,50.3H39.8L43.5,40.9z M72,120.6H24.2l1.3-12.8l13.8-10.2h65.4l13.8,10.2l1.3,12.8H72z"/>
</g>
<g>
  <path class="st0" d="M138,55.5l4.4,61.1l13.8,10.2l1.7,15.9H57.9l1.6-15.9l13.8-10.2l4.6-61.1"/>
  <path class="st1" d="M160.4,122.9l-13.7-10.1l-4.2-56.5l0,0l-6.8-3.1H80h-0.2l-6.9,2.7l0.5,0.5l-4.2,56.5l-13.7,10.1l-2.5,22.7h110
    L160.4,122.9z M79.5,59.5h57l3.8,50.4H75.7L79.5,59.5z M108,139.1H60.1l1.3-12.7l13.8-10.2h65.3l13.7,10.2l1.3,12.7H108z"/>
</g>
</svg>
