<svg version="1.1" id="Layer_1" xmlns="http://www.w3.org/2000/svg" x="0" y="0" viewBox="0 0 180 180" style="enable-background:new 0 0 180 180" xml:space="preserve"><defs><style>.st2,.st3{opacity:.2;enable-background:new}.st3{fill:#fff}.st4{fill:#1a1a1a}</style></defs><path style="fill:none" d="M0 0h180v180H0z"/><path d="M31.8 154.4v5.4h101.9v-7.2h1.2c3.7-.2 8.7-3.5 8.7-3.5s-1.3-6.2-1.5-7.6c-.3-2.4.1-4.8 1.1-6.9 3.2-8.4 4.8-17.3 4.8-26.2.1-8-1-16-3.4-23.7-3-9.6-7.7-18.5-13.8-26.5-1.2-6.8-3.7-13.3-7.6-19.1a36.23 36.23 0 0 0-21.3-15.4c-4.9-1.4-12-1.6-14.1-1.6-6.2-1.3-12.4-2-18.8-2-5.6.1-11.2.8-16.8 1.9-6.6 1.1-12.9 4-18.1 8.3 0 0-4.5 5.8-.3 26.6 1.1 5.4 3.5 8.4 4.5 10.5-.7 3.2-1.1 6.5-1.3 9.7-.2 8.3 1.3 17.4 4.6 27.3 1.1 3.4 2.2 12.2-1.8 29.9-3 1.7-5.3 2.7-6.6 5.7-1.5 4.5-1.4 8.6-1.4 14.4zm91.8-20.9c-.4-3.2-2.5-15.8-8.5-26.8 4.2 1 8.4 1.6 12.7 1.8.1.7.2 1.4.2 2.1.7 7.9-2.3 16.7-4.4 22.9z" style="fill:#bf3b43"/><path class="st2" d="M133.9 151.4c-2.4-.7-4.7-2-6.6-3.7-3.3-3.3-5.9-10.2-5.7-5.2.2 9 5 15.4 11.6 18.4l.7-9.5zM113 90s9.1 2.8 15.8 19c2.9 7.1-4.1 27.5-4.1 27.5 6.8-7.1 10.5-16.6 10.4-26.4-.2-16.3-9.3-24.4-18.1-26.8l-4 6.7z"/><path class="st3" d="m123.9 141.3 1-4.5c-7.2-4.6-20.1-5-20.1-5H57.6s-22.6 1.1-24.5 11.3h.6s4.5-4.8 47.6-4.8c24.9.1 36.9 1.7 42.6 3z"/><path class="st3" d="M38.5 26.6C59.7 15.3 88 22.1 88 22.1s-8.8-1.6 13 1.4 30 34.7 30 34.7c15.2 22.1 16.8 38.5 17.1 52.3s-5.9 30-5.9 30l1.6 8.7-6.2 3.3s-2-2.5-2.3-11.5c-.3-9.1 10.8-21 6.4-43.8-2.7-13.7-9.4-26.2-19.4-36 0-2.7-.1-5.3-.5-8-5.8-27.9-31-27.5-33.6-27.5s-4.1 7.1-4.1 7.1-7.8-7.3-23.9-7.3c-16.1 0-23.6 3.6-25.8 4.6l4.1-3.5z"/><path class="st4" d="M113.8 58.5s-1.5-9-6.7-11.1-10.2 4.4-6 7.7c5.1 4 7.6-1.1 12.7 3.4z"/><path class="st4" d="M29.7 156.8v5.6h105.6v-8.1h1.3c2.6-.3 5.1-1.4 6.9-3.3l1.8-1.7-.6-2.3c-.3-1.2-.5-2.3-.6-3.5-.4-2.5-.1-5.1.8-7.5 3.5-8.5 5.3-17.7 5.4-26.9.1-8.3-1.1-16.5-3.6-24.4-3.1-9.9-8-19.2-14.3-27.5-1.2-7.1-3.9-13.8-7.9-19.8-5.1-7.9-13-13.6-22.1-16-5.1-1.5-12.5-1.7-14.6-1.7-6.4-1.4-12.9-2.1-19.4-2.1-5.8 0-11.7.6-17.4 1.9-6.4 1.4-12.4 4.1-17.7 7.8l-1 .7-.5 1.1c-2.8 6.7-2.7 15.6.2 26.5 1.2 4.2 2.6 8.3 4.4 12.4-.6 2.8-1 5.8-1 8.7-.2 8.5 1.4 18 4.8 28.3 1.1 3.5 2.2 10.4-1.9 28.8-2.9 1.6-5.3 4.2-6.7 7.3-1.9 4.4-1.9 9.7-1.9 15.7zM40 73.6c5.4 7.3 17.1 21.8 30.8 27.8.4.2.9.3 1.4.3.6 0 1.2-.1 1.7-.4 1.6-.8 3.7-3.2 6.7-13.4 3.7 3.5 9.4 6.7 15.6 6.7 1.1 0 2.2-.1 3.2-.3.1.3.2.6.3.8 2.9 4.8 7 8.6 12 11.1l.1.2c5.3 9.4 7.1 20.6 7.6 24.5l-.3-.1h-.2c-3.1-.6-4.6-.8-5.1-.8-10.6-1.2-21.2-1.8-31.8-1.7-10.7-.1-21.3.5-31.9 1.7h-.3c-.1 0-1.5.3-3.5.7-1.2.3-2.3.5-3.3.9 2.5-11.8 3.3-21.4 1.1-28-4.4-14.1-4.7-24.1-4.1-30zm77.8 35c2.8.7 5.6 1.2 8.4 1.2.1.6.2 1.2.2 1.8.4 7-1.1 14.1-2.6 19.7-.9-7.9-2.9-15.5-6-22.7zm15.9 41.4c-5.8-1.5-7.7-4.6-7.8-8.4-.1-4.3 6.1-18.1 4.6-31.9 3.4-.3 6.6-1.5 9.3-3.5 4.1-3.4 3.2-7 2.8-8-1-2.5-3.4-4.2-6.1-4.1-.4 0-.9 0-1.3.1-.5.1-1 .1-1.5.1-2.5-.1-5.1-.7-7.4-1.7-4-1.8-5.9-6.3-6-6.6-.4-1.1-1.2-2-2.3-2.5-.5-.2-1.1-.3-1.7-.3-.6 0-1.2.1-1.8.4L102 89.1c-.1 0-.3.1-.4.1-3.9 1.6-8.2 1.5-12-.3-3-1.3-5.7-3.3-7.9-5.9 1.5-5.9 2.5-11.1 2.5-11.2v-.2c.2-1.2-.6-2.3-1.8-2.5s-2.3.6-2.5 1.8c0 .1-1.2 6.3-2.9 12.8-2.7 10-4.5 12.7-5.1 13.4-15.2-6.9-28.3-25.6-31-29.6 0 0-11-22.7-5.2-36.8 10-7.2 22.4-9 32.6-9 6.4 0 12.7.7 18.9 2 .1 0 8.6 0 13.9 1.5 8.1 2.1 15.2 7.2 19.7 14.3 3.7 5.6 6.2 11.9 7.3 18.6v.5l.3.4c28.1 36.8 14.1 71.3 12.4 75.1-1.2 3.1-1.6 6.4-1.2 9.7.2 1.4.4 2.8.8 4.1-1.2 1.1-2.8 1.8-4.4 2h-.6c-.5.2-1.1.2-1.7.1zm-86.3-15.4c1.9-.4 3.4-.6 3.4-.6 10.4-1.2 20.9-1.7 31.4-1.6 10.5-.1 21 .5 31.4 1.7 1.6.2 3.2.4 4.7.8 1.4.3 2.9.8 4.2 1.3l-.2 1c-.4 1.5-.6 3-.6 4.5.1 4.2 1.9 9.6 9.7 12.1v4.7H33.7c0-12.2-.7-20.8 13.7-23.9z"/><path d="M114.6 102.9c7.8 3.6 18.2 3.4 22.5-.1 2.9-2.4 1.5-4.8-1.1-4.4-2.2.3-6.1.3-11.3-1.9-5.9-2.6-8.3-9-8.3-9l-12.8 5.6c2.5 4.3 6.4 7.7 11 9.8z" style="fill:#fff"/><path class="st2" d="M91.5 92.4c-4.8-.9-12.1-7.6-12.1-7.6s2.3-8 3.7-13.5 4.4 15.3 18.3 19.2c.1-.1-5.1 2.8-9.9 1.9zM32.6 32.2s-2.2 7.8-1.4 14.3c.9 8.2 4.8 15.2 5.5 13.7 8-18.8 40.1-13.7 40.1-13.7-12.1-10.7-28.1-15.8-44.2-14.3z"/><path class="st2" d="m121.9 132.7-6.7-27.1-9.2-5.2-5-8.4-13.9-1.7-7.6-5.6-6.9 15.1-15.5-9.9-18.2-23.4s-2.1 21-1.5 22.5 6.5 23.5 6.5 23.5l-3.8 23.7 18-5.5s4.7-6.8 24.2-19.8c14.3-9.5 28.7 2.8 34.2 21.1l5.4.7z"/></svg>