<svg version="1.1" id="Layer_1" xmlns="http://www.w3.org/2000/svg" x="0" y="0" viewBox="0 0 180 180" style="enable-background:new 0 0 180 180" xml:space="preserve"><style>.st1{fill:#fff}</style><g id="camel_knight_alpha"><path style="fill:none" d="M0 0h180v180H0z"/><path class="st1" d="m166.7 52.5-4.9-.1c-2.2-.8-4.3-1.6-6.3-2.5-2-.9-3.3-1.2-3.9-.9-.1 0-.1-.1-.1-.1l-11.4-4.5L134 49l3.6 1.3-.3 1.8-3.4-1.2.6 6.4 3-.3c2-.2 3.9 1.6 5.6 5.3-1.2.1-3.8.6-5.8-1.3-5.8-1.5-9.8-.4-14.6 3.3L141 90.5c2-3.2 4.8-5.9 8.1-7.6 10.8-5.9 16.3-12.2 14.4-25.2l3.2-5.2z"/><path d="m142 48.4.6.6-.1 1.2-1.8-.2-.3-1.6h1.6zm12.6 9-3.1-4.5 3.8 1c1.3.4-.1 4.5-.7 3.5zm-3.7-6.5.6-1.9c.6-.3 1.9 0 4 .9 2 .9 4.1 1.7 6.3 2.5l4.9.1-3.2 5.2c1.9 13-3.6 19.3-14.4 25.2-3.3 1.7-6.1 4.4-8.1 7.6l-18.3-26.2c4.8-3.7 8.8-4.8 14.6-3.3 2 1.9 4.6 1.4 5.8 1.3-1.7-3.7-3.6-5.5-5.6-5.3l-3 .3-.6-6.4 3.4 1.2.3-1.8L134 49l6.1-4.6 11.4 4.5s.9.6.8.9c-.1.4-1.4 1.1-1.4 1.1l-10.5-4.2-2.6 1.9 1.8.7-1 5-2.5-.7.1 1.4 1.5.2c1.1.1 2.2.5 3.1 1.2 1.6 1.2 5 4.3 4.3 8.2-1.4-.2-2.8-.2-4.1 0s-2.8-.4-4.4-1.7c-4-1-7.9-.8-11.3 1.8l15 21.5c3-3.6 5.9-5.2 8.9-6.8s5.9-3.5 9.2-7.4c2.5-3.9 4.3-8 3-14.6l1.9-3.2h-2.2c-3.6-1.5-8.4-3.8-10.2-3.3z"/><path d="M145.2 62.9c-.4-.1-.9.9-.1 1.8.3.3.7.3.8.6.1.2.3.5.5.7 1.8 2 5.3 1.8 7.9.1l1.1-1.4c-3.9 1.6-6.6 1.5-8.2-.2-.2-.3-.5-.6-.8-.9-.2-.4-.6-.6-1.2-.7z"/><g id="camel_2_"><path class="st1" d="M166.7 161.9h-63.3l-1.8-3c-14.1-23-22.2-49.3-24.1-77.9-.1-.8 0-1.6 0-2.5 0-1.8.1-2.4-5.5-4-3-.9-5.7-1.4-8-1.8-5.9-1.1-11.5-2.2-15.6-7.5l-10.8 3.2c-4.6 1.4-8.2 2.1-11.1 2.1-6.8 0-8.9-4-9.5-5.8-1.2-3.4-.1-7.3 3.2-11.6-.1-.1-.1-.2-.2-.3-1.9-2.9-2.4-6.6-1.4-10.8 2.3-9.8 11.8-12.1 17.2-12.6 3.1-4.5 6.7-7.3 13.4-7.3 2.5 0 5.3.4 8.8.8l.7.1c2 .3 4.2.6 6.5 1 4.9.8 9.9 1.6 14.4 1.6 2.8 0 5.1-.3 6.9-1 3.3-1.1 7.2-1.7 11.7-1.7 4.2 0 8.1.5 10.6 1 4.7-3.4 10.9-7 15.7-7 2.1 0 4.1.6 5.6 1.9 3.7 2.9 4.5 8.4 4.6 12.5.1 5.3-1.3 12.4-5 17.2 1.4 6.6 9.8 28.2 23.1 46.5.4.6 12.7 17 13.3 17.7l.7.9v48.3h-.1z"/><path d="M93.7 47.6c5.2 1 10.9-2.8 12.1-8l-20.4-3.9c-.9 5.3 3.1 10.9 8.3 11.9zm17.6-9.4c3.2 1.3 5.7 4 6.7 7.2 3.7-3.8 5-9.9 3.2-14.9-3.9 1.7-7.3 4.3-9.9 7.7z"/><path d="M166.1 112.7c-.6-.7-12.9-17.1-13.3-17.7-13.3-18.3-21.7-39.9-23.1-46.5l1.2-1.8c.2-.4.5-.9.7-1.3.1-.3.3-.6.4-.9 0-.1.1-.2.1-.3 1.9-4.2 2.6-9 2.5-13-.1-4.1-.9-9.6-4.6-12.5-1.5-1.3-3.5-1.9-5.6-1.9-4.8 0-11 3.6-15.7 7-2.5-.5-6.4-1-10.6-1-4.5 0-8.4.6-11.7 1.7-1.8.7-4.1 1-6.9 1-4.5 0-9.5-.8-14.4-1.6-2.3-.4-4.5-.7-6.5-1H58c-3.5-.4-6.3-.8-8.8-.8-6.7 0-10.3 2.8-13.4 7.3-5.4.5-14.9 2.8-17.2 12.6-1 4.2-.5 7.9 1.4 10.8.1.1.1.2.2.3-3.3 4.3-4.4 8.2-3.2 11.6.6 1.8 2.7 5.8 9.5 5.8 2.9 0 6.5-.7 11.1-2.1l10.8-3.2c4.1 5.3 9.7 6.4 15.6 7.5 1.5.3 3.2.6 5 1v.1l3.1.8c.8.2 1.7.5 2.5.7 2.9 1 2.9 1.7 2.9 3.2 0 .9-.1 1.7 0 2.5 1.9 28.6 10 54.9 24.1 77.9l1.8 3h63.4v-48.3l-.7-.9zm-9.8 42.8H107c-13.5-22.1-21.3-47.3-23.2-74.9v-2.3c4.6 1.6 8.2 2.9 8.3 2.9l3 1.1 2.2-6-3-1.1c-.5-.2-12.5-4.6-20.5-6.8l-3.1-.8v.1c-2-.5-3.9-.8-5.6-1.2-6-1.2-10-2-12.7-6.6l-1.3-2.2-15.5 4.6c-3.9 1.2-7 1.8-9.2 1.8-1.4 0-3.1-.3-3.5-1.5-.4-1.2.4-3.8 3.7-7.4h.7c6.5 0 15.4-1.3 15.7-1.4l3.2-.5-.9-6.3-3.2.5c-.1 0-9.7 1.4-15.7 1.3H25c-.7-1.4-.8-3.2-.3-5.4 1.3-5.6 7-7.2 11.2-7.7 1.9 1.7 4.4 2.9 7.1 3 2.7.1 5.4-.8 7.4-2.5 1-.8 1.9-2.1 1.5-3.4-.2-.7-10.4-.2-11.1 1l-.5.2c2.8-4.3 4.8-5.6 8.8-5.6 2.1 0 4.7.4 8 .8l.7.1c2 .3 4.1.6 6.3 1 5.1.8 10.3 1.7 15.4 1.7 3.5 0 6.5-.4 9-1.3 2.7-.9 5.9-1.4 9.6-1.4 4.6 0 8.7.7 10.8 1.1l1.4.3 1.1-.8c5.4-4 10.4-6.5 13-6.5.7 0 1.2.2 1.6.5 1.3 1 2.2 3.9 2.2 7.6.1 4.6-1.2 10.8-4.3 13.9l-1 1 .1 1.4c.4 5.1 5.4 30.2 20.6 51 .4.5 10 13.4 12.7 16.9v39.8z"/></g></g></svg>