<svg version="1.1" id="Layer_1" xmlns="http://www.w3.org/2000/svg" x="0" y="0" viewBox="0 0 180 180" style="enable-background:new 0 0 180 180" xml:space="preserve"><defs><style>.b{fill:#1a1a1a}.c{fill:#fff}.d,.e{opacity:.2}.f{fill:#fff}</style></defs><path class="f" d="M116.1 36.58c-8.74-8.59-20.52-13.85-33.24-14.86L71.65 10.53l-.53-.53h-.75c-2.47 0-4.91 2.24-5.58 5.1l-1.31 6.22c-1.2 2.84-3.2 4.84-6.45 7.53-3.59 2.97-4.73 5.91-5.49 7.86l-.15.38c-.81 2.07-1.42 3.89-1.95 5.49-1.29 3.89-2.32 6.96-5.52 11.62L33.39 69.01c-3.27 4.07-2.91 9.73.83 12.91 3.8 3.23 13.03 5.69 16.19 5.69.63 0 1.54-.07 2.18-.7 1.43-1.38 2.41-2.91 3.35-4.39 2.08-3.26 3.58-5.61 8.97-5.63 7.9-.04 14.73-7.19 18.01-10.63l.03-.03.03-.03 1.97-2.28c1.32 2.11 2.84 5.54 1.81 9.14-.43 1.51-1.11 2.92-2.08 4.33-1.86 2.71-4.58 5.09-7.25 7.25l-.18.14c-6.8 5.51-18.04 14.61-19.97 27.38v.4c.62-.21 1.28-.41 1.98-.59 21.3-4.3 64.54 0 64.54 0 .46.12.89.24 1.32.37v-.18c.37-1.44.9-3.29 1.48-5.33 2.38-8.36 5.64-19.8 5.64-27.3 0-17.69-5.59-32.53-16.18-42.93Z"/><path class="c d" d="M68.02 28.05C75.3 23.52 70.38 10 70.38 10c-2.02 0-3.94 3.01-4.5 5.41l-1.32 6.26c-1.27 3.06-3.36 5.16-6.75 7.96-3.4 2.81-4.45 5.5-5.21 7.47l-.15.38c-.8 2.05-1.38 3.77-1.93 5.44-1.32 3.96-2.36 7.09-5.63 11.85L34.36 69.58c-.14.13-.27.28-.4.42-3.4 3.51-.88 7.01-.88 7.01s17.2-21.21 19.43-24.18c4.06-5.41 1.51-16.07 15.51-24.77Z"/><path d="M90.83 51.43c-1.64 3.16-5.72 9.56-5.72 9.56s-.42 1.3-.95 3.13c0 0 1.88-.22 2.23 5.77.09 1.56-.85 8.54.42 6.36 4-6.85 6.07-16.54 6.03-19.3-.04-2.76-.38-8.68-2.02-5.52Z" class="e"/><path d="M82.06 22.57s36.89 5.48 36.89 40.78c0 23.63-15.72 30.24-19.87 46.13 0 0 17.48.14 25.21 3.79 0 0 8.3-22.46 8.3-35.77s-10.34-55.99-50.53-54.93Zm-13.6 52.49c-8.24-4.04-10.32-8.85-13.49.65-3.07 9.21-7.73 10.79-4.6 11.74 3.13.95 7-9.46 9.74-9.63 2.74-.17 11.42-1.25 8.35-2.76Z" class="e"/><path class="b" d="M69.05 36.69c-4.72 1.93-6.01 10.03-6.01 10.03 4.59-4 6.81.58 11.39-3.04 3.83-3.02-.75-8.89-5.39-6.99Z"/><path class="b" d="M57.32 114.54c-.41 0-.82-.13-1.17-.37-.52-.38-.83-.98-.83-1.63v-.4c0-.1 0-.2.02-.3C57.39 98.3 69.06 88.85 76.03 83.2l.17-.14c2.55-2.07 5.15-4.32 6.86-6.83.84-1.23 1.43-2.46 1.8-3.75.5-1.75.23-3.5-.33-5.01h-.01s-.08.1-.11.13c-3.5 3.66-10.72 11.23-19.47 11.27-4.3.02-5.3 1.59-7.3 4.71-.96 1.51-2.05 3.21-3.65 4.75-1.3 1.26-3.01 1.26-3.57 1.26-3.59 0-13.22-2.54-17.49-6.17-4.55-3.86-5.04-10.72-1.13-15.63l10.5-14.77c3.02-4.39 3.95-7.2 5.25-11.09.54-1.63 1.16-3.48 1.99-5.59l.14-.37c.78-2.01 2.08-5.37 6.08-8.68 2.94-2.43 4.75-4.22 5.8-6.59l1.27-6.02c.88-3.83 4.12-6.69 7.53-6.69h.75c.53 0 1.04.21 1.41.58l11.22 11.21c12.89 1.19 24.85 6.63 33.74 15.36 10.97 10.78 16.78 26.12 16.78 44.35 0 7.78-3.3 19.38-5.72 27.85-.58 2.03-1.05 3.7-1.41 5.04-.02.6-.31 1.17-.8 1.53-.51.38-1.18.5-1.79.31-.35-.11-.71-.21-1.08-.31-2.82-.27-43.66-4.08-63.79-.02-.52.14-1.12.31-1.74.52-.21.07-.43.11-.64.11Zm28.36-6.51c17.61 0 35.1 1.61 38 1.89.3-1.07.64-2.29 1.04-3.67 2.35-8.25 5.56-19.53 5.56-26.75 0-17.14-5.39-31.49-15.58-41.5-8.39-8.24-19.75-13.32-31.99-14.29-.47-.04-.92-.24-1.25-.58L70.31 12c-1.5.05-3.11 1.66-3.55 3.55l-1.3 6.18c-.03.13-.06.25-.11.37-1.35 3.2-3.6 5.47-7.01 8.29-3.19 2.64-4.18 5.18-4.9 7.04l-.15.38c-.8 2.03-1.39 3.81-1.92 5.39-1.29 3.89-2.41 7.24-5.77 12.12L35.05 70.16s-.05.06-.07.09c-2.58 3.22-2.33 7.67.56 10.13 3.3 2.8 12.01 5.22 14.9 5.22.62 0 .77-.11.79-.14 1.26-1.21 2.13-2.58 3.06-4.02 2.15-3.36 4.17-6.53 10.65-6.56 7.05-.03 13.48-6.77 16.57-10.01l1.97-2.28c.42-.48 1.03-.74 1.67-.69.63.05 1.21.39 1.54.93 1.6 2.56 3.25 6.49 2.04 10.75-.49 1.72-1.26 3.32-2.35 4.91-2 2.93-4.86 5.42-7.64 7.67l-.18.14c-6.04 4.89-15.84 12.82-18.7 23.5 7.22-1.33 16.54-1.78 25.83-1.78Z"/><path class="f" d="M137.06 88.97c-5.91 0-11.1 5.25-11.1 11.23 0 2.27 1.04 4.36 1.81 5.6l-12.68 4.16-1.48-20.79c4.32-1.44 7.43-5.75 7.43-10.59 0-6.6-5.17-11.77-11.77-11.77S97.5 72.09 97.5 78.58c0 3.44 1.68 6.76 4.36 8.8l-9.17 19.55-9.17-19.55c2.68-2.04 4.36-5.36 4.36-8.8 0-6.49-5.28-11.77-11.77-11.77s-11.77 5.17-11.77 11.77c0 4.94 3.05 9.18 7.43 10.6l-1.48 20.78-12.69-4.16c.78-1.24 1.82-3.33 1.82-5.6 0-5.98-5.19-11.23-11.1-11.23-3.02 0-5.84 1.16-7.96 3.28-2.11 2.11-3.28 4.94-3.28 7.96 0 5.31 4.39 10.36 9.33 11.03l17.61 32.43c18.92-3.82 57.34 0 57.34 0s-.42-.13 0 0c-.42-.13 0 0 0 0l17.61-32.43c4.93-.67 9.33-5.72 9.33-11.03 0-6.19-5.04-11.23-11.23-11.23Z"/><g class="d"><path class="c" d="M50.44 90.24c-3.87.36-9.84 4.71-11.21 13.57-.1.63-4.42-4 1.3-10.64 4.5-5.23 9.92-2.93 9.92-2.93Z"/></g><g class="d"><path class="c" d="M139.79 90.24c-3.87.36-9.84 4.71-11.21 13.57-.1.63-4.42-4 1.3-10.64 4.5-5.23 9.92-2.93 9.92-2.93Z"/></g><g class="d"><path class="c" d="M78.13 68.17c-4.14.43-10.65 5.47-11.27 15.66 0 0-4.26-5.93 1.38-12.63 4.44-5.28 9.89-3.04 9.89-3.04Z"/></g><g class="d"><path class="c" d="M111.37 68.17c-4.14.43-10.65 5.47-11.27 15.66 0 0-4.26-5.93 1.38-12.63 4.44-5.28 9.89-3.04 9.89-3.04Z"/></g><path d="M52.81 91.07c4.27 5.47-2.82 11.17 1.3 15.61l15.83 4.15-11.14-5.4s1.77-4.54.66-7.89c-2.5-7.49-6.64-6.48-6.64-6.48Zm36.2 50.36 32.02 1.55 18.78-30.94s4.37-.5 7.62-5.91c4.82-8.01-4.43-15.46-4.43-15.46 2.91 3.37 2.45 10.67 0 12.96-2.38 2.22-6.33 2.66-7.8 6.03a85.868 85.868 0 0 1-42.26 30.49l-3.92 1.28Zm25.79-71.82c6.15 8.48-5.54 11.24-4.84 18.98l4.03 21.16.62-19.58s8.12-4.92 7.4-10.81c-1.14-9.22-7.21-9.75-7.21-9.75ZM79.24 87.42l12.22 19.14-7.02-18.3s3.51-5.11 3.51-9.52c0-8.1-6.81-9.7-6.81-9.7 6.55 8.81-4.47 10.7-1.9 18.39Z" class="e"/><path class="b" d="M121.36 145.67c-.08 0-.16 0-.23-.01-1.37-.13-38.55-3.69-56.71-.03-.86.17-1.73-.23-2.15-1.01l-17.16-31.6c-5.53-1.32-10.02-6.94-10.02-12.82 0-3.55 1.37-6.88 3.87-9.37 2.49-2.49 5.82-3.86 9.37-3.86 6.98 0 13.1 6.18 13.1 13.23 0 1.62-.42 3.14-.96 4.43l8.02 2.63 1.19-16.77c-4.44-2.1-7.33-6.7-7.33-11.91 0-7.72 6.05-13.77 13.77-13.77s13.77 6.18 13.77 13.77c0 3.5-1.44 6.88-3.91 9.32l6.72 14.33 6.72-14.33c-2.47-2.44-3.91-5.82-3.91-9.32 0-7.59 6.18-13.77 13.77-13.77s13.77 6.05 13.77 13.77c0 5.08-2.95 9.76-7.33 11.89l1.19 16.79 8.02-2.63c-.54-1.29-.96-2.81-.96-4.43 0-7.05 6.12-13.23 13.1-13.23s13.23 5.94 13.23 13.23c0 5.87-4.49 11.5-10.02 12.82l-17.14 31.57c-.13.26-.32.47-.53.65-.08.07-.17.12-.26.17-.17.1-.36.17-.55.21-.14.03-.28.05-.42.05Zm-33.97-5.71c14.25 0 28.45 1.19 32.84 1.59l16.98-31.27c.3-.56.86-.94 1.49-1.03 4.05-.55 7.6-4.78 7.6-9.05 0-5.09-4.14-9.23-9.23-9.23s-9.1 4.31-9.1 9.23c0 1.85.95 3.64 1.51 4.54.33.52.39 1.16.18 1.74-.21.58-.67 1.03-1.26 1.22l-12.68 4.16c-.58.19-1.23.1-1.74-.24-.51-.34-.84-.9-.88-1.52l-1.48-20.79c-.06-.91.5-1.75 1.36-2.04 3.57-1.19 6.06-4.76 6.06-8.69 0-5.48-4.29-9.77-9.77-9.77s-9.77 4.38-9.77 9.77c0 2.77 1.37 5.53 3.57 7.21a2 2 0 0 1 .6 2.44l-9.17 19.55c-.33.7-1.04 1.15-1.81 1.15s-1.48-.45-1.81-1.15l-9.17-19.55a2 2 0 0 1 .6-2.44c2.2-1.68 3.57-4.44 3.57-7.21 0-5.39-4.38-9.77-9.77-9.77s-9.77 4.29-9.77 9.77c0 4.03 2.43 7.53 6.04 8.7.88.28 1.45 1.13 1.38 2.05l-1.48 20.78c-.04.61-.37 1.17-.88 1.52-.51.34-1.15.43-1.74.24l-12.69-4.16c-.58-.19-1.05-.64-1.26-1.22-.21-.58-.14-1.22.18-1.74.57-.91 1.51-2.7 1.51-4.54 0-4.92-4.25-9.23-9.1-9.23-2.48 0-4.81.96-6.54 2.69-1.74 1.74-2.69 4.06-2.69 6.54 0 4.27 3.55 8.5 7.6 9.05.63.09 1.18.47 1.49 1.03l16.92 31.15c6.3-1.1 14.32-1.48 22.31-1.48Z"/><path class="f" d="M43.99 166.52V170h97.91v-3.48c.03-10.43.05-19.52-13.39-22.93 0 0-47.65-4.74-71.12 0C43.95 147 43.97 156.09 44 166.52Z"/><path class="c d" d="M127.62 143.54c-9.25-1.87-22.35-2.23-34.67-1.99-12.33-.24-25.43.12-34.67 1.99-9.05 2.3-11.84 7.24-12.7 13.42 0 0 7.68-7.41 47.37-7.41s47.36 7.41 47.37 7.41c-.85-6.19-3.64-11.12-12.7-13.42Z"/><path class="b" d="M141.9 172H43.99c-1.1 0-2-.9-2-2v-3.47c-.03-10.36-.06-21.08 14.9-24.88 23.59-4.77 69.85-.25 71.81-.05.1 0 .2.03.29.05 14.96 3.8 14.93 14.51 14.9 24.87v3.47c0 1.1-.9 2-2 2ZM46 168h93.9v-1.48c.03-10.38.05-17.9-11.74-20.95-2.96-.28-48.12-4.51-70.38-.02-11.84 3.01-11.82 10.54-11.79 20.97V168Z"/></svg>