<svg xmlns="http://www.w3.org/2000/svg" viewBox="0 0 180 180" style="enable-background:new 0 0 180 180" xml:space="preserve"><path style="fill:none" d="M0 0h180v180H0z"/><path d="M90 28.1c2.9-.1 5.7.3 8.5 1l2.2.4.3 2.3 2 17.9.2 1.5h7.6l.3-1.4 3.5-15.4.5-2.3h2.3c6.2 0 10.7 1.5 16.2 4.5l1.8 1v62.7h6.5V60.7c0-4.4 3.6-7.9 7.9-7.9h2.6c4.4 0 7.9 3.6 7.9 7.9v92.2c0 4.4-3.6 7.9-7.9 7.9h-2.6c-4.4 0-7.9-3.5-7.9-7.9v-39.6h-6.5v1.7c-.1 3.7-.3 7.6-1.9 10.9-2.2 4.8-5 7.7-12.1 9.2-1.9.4-3.3.6-3.4.6h-.1c-9 1.2-18.2 1.8-27.3 1.7-9.1.1-18.2-.4-27.2-1.7h-.1c-.3 0-.4-.2-3.5-.8h-.1c-6.7-1.5-10.9-4.5-13-9.2-1.4-3.3-1.7-7.1-1.8-10.7v-1.7h-6.5v39.6c0 4.4-3.6 7.9-7.9 7.9h-2.6c-4.4 0-7.9-3.5-7.9-7.9V60.7c0-4.4 3.6-7.9 7.9-7.9h2.6c4.4 0 7.9 3.6 7.9 7.9v39.6h6.5V37.7l1.8-1c5.4-3 9.9-4.5 16.2-4.5h2.3l.5 2.3 3.4 15.4.3 1.4H77l.2-1.5 2-17.9.3-2.3 2.2-.4c2.6-.8 5.4-1.1 8.3-1.1z" style="fill:#fff"/><path d="M152.2 51.1h-2.6c-5.2 0-9.4 4.2-9.4 9.4v38.1h-3.5v-62l-2.5-1.4c-5.1-2.8-9.9-4.7-16.9-4.7h-3.5l-4.2 18.9v.2h-5.1l-2.4-21.5-3.2-.5c-2.9-.7-5.8-1.1-8.8-1h-.3c-2.9 0-5.7.3-8.4 1l-3.2.5-2.4 21.5h-5.1l-4.2-19.1H63c-6.1 0-10.8 1.3-16.9 4.7l-2.5 1.4v62h-3.5V60.5c0-5.2-4.2-9.4-9.4-9.4h-2.6c-5.2 0-9.4 4.2-9.4 9.4v92.2c0 5.2 4.2 9.4 9.4 9.4h2.6c5.2 0 9.4-4.2 9.4-9.4v-38.1h3.5v.2c.1 3.8.4 7.8 1.9 11.3 2.3 5.1 6.9 8.4 14 10.1h.3c1.8.3 2.5.5 2.8.6.2.1.5.1.8.1 8.2 1.1 16.6 1.7 24.9 1.7h2.4c9.1.1 18.3-.4 27.4-1.7h.2c.1 0 1.5-.3 3.4-.6 7.9-1.7 11-5.2 13.2-10 1.6-3.6 1.9-7.7 2-11.6v-.2h3.5v38.1c0 5.2 4.2 9.4 9.4 9.4h2.6c5.2 0 9.4-4.2 9.4-9.4V60.4c-.2-5-4.4-9.3-9.6-9.3zM36.9 152.8c0 3.5-2.9 6.4-6.4 6.4h-2.6c-3.5 0-6.4-2.9-6.4-6.4V60.6c0-3.5 2.9-6.4 6.4-6.4h2.6c3.5 0 6.4 2.9 6.4 6.4v92.2zm6.5-41.1h-3.5v-10.1h3.5v10.1zm4-73.9c5.7-3.1 9.8-4.3 15.4-4.3h1.1l3.6 16.6.6 2.5h10.1l2.4-21.9 1-.2h.1c2.6-.7 5.4-1 8.1-1h.7c2.5 0 5.1.3 7.5 1l1.2.2 2.4 21.9h10.2l4.3-19.1h1.1c5.5 0 9.7 1.2 15.4 4.3l1 .6v39.4H46.3V38.4l1.1-.6zm16.1 96.4h-.3c-.4-.1-1.2-.3-3.2-.7h-.2c-6.1-1.4-10-4.1-11.8-8.3-1.3-3.1-1.6-6.7-1.6-10.1V81h42.1v55c-8.4-.2-16.8-.7-25-1.8zm68.4-9c-1.9 4.2-4.3 6.9-11 8.3-1.6.3-2.8.5-3.2.6h-.2c-8.6 1.2-17.3 1.7-26.1 1.7v-55h42.2v34c0 3.6-.3 7.3-1.7 10.4zm4.8-13.5v-10h3.5v10h-3.5zm21.9 41.1c0 3.5-2.9 6.4-6.4 6.4h-2.6c-3.5 0-6.4-2.9-6.4-6.4V60.6c0-3.5 2.9-6.4 6.4-6.4h2.6c3.5 0 6.4 2.9 6.4 6.4v92.2z"/></svg>