<svg data-name="Layer 1" xmlns="http://www.w3.org/2000/svg" width="90" height="90"><path d="M40.08 90a2.31 2.31 0 0 1-1.75-.72 2.35 2.35 0 0 1-.69-1.71V73h-9.82c-.71 0-1.13-.17-1.27-.52s0-.79.54-1.27L43.2 55a2.6 2.6 0 0 1 1.8-.7 2.37 2.37 0 0 1 1.77.73l16.11 16.19c.47.48.64.91.51 1.27s-.52.52-1.18.52h-9.82v14.56a2.29 2.29 0 0 1-.72 1.71 2.39 2.39 0 0 1-1.78.72Z" style="fill:#b54040"/><path d="M45 35.7a2.41 2.41 0 0 1-1.75-.7L27.12 18.78c-.47-.48-.64-.91-.51-1.27s.52-.52 1.18-.52h9.82V2.43a2.29 2.29 0 0 1 .72-1.71A2.39 2.39 0 0 1 40.11 0h9.81a2.31 2.31 0 0 1 1.75.72 2.35 2.35 0 0 1 .69 1.71V17h9.82c.71 0 1.13.17 1.27.52s0 .79-.54 1.27L46.8 35a2.6 2.6 0 0 1-1.8.7Z" style="fill:#be922e"/><path d="M0 40.08a2.31 2.31 0 0 1 .72-1.75 2.35 2.35 0 0 1 1.71-.69H17v-9.82c0-.71.17-1.13.52-1.27s.79 0 1.27.54L35 43.2a2.6 2.6 0 0 1 .7 1.8 2.37 2.37 0 0 1-.7 1.75L18.78 62.88c-.48.47-.91.64-1.27.51s-.51-.52-.51-1.18v-9.82H2.43a2.29 2.29 0 0 1-1.71-.72A2.39 2.39 0 0 1 0 49.89Z" style="fill:#3d85b9"/><path d="M54.3 45a2.41 2.41 0 0 1 .7-1.75l16.22-16.13c.48-.47.91-.64 1.27-.51s.52.52.52 1.18v9.82h14.56a2.29 2.29 0 0 1 1.71.72 2.39 2.39 0 0 1 .72 1.78v9.81a2.31 2.31 0 0 1-.72 1.75 2.35 2.35 0 0 1-1.71.69H73v9.82c0 .71-.17 1.13-.52 1.27s-.79 0-1.27-.54L55 46.8a2.6 2.6 0 0 1-.7-1.8Z" style="fill:#548e60"/><g style="opacity:.2"><path d="M39.69 79.07a33.72 33.72 0 0 1 12.16-16l-6.55-6.59c-.46-.13-.56-.09-.69 0L30.24 71h9.45ZM50.31 8.11V2.43l-.39-.38h-9.81l-.46.38v16.06A33.83 33.83 0 0 1 50.31 8.11ZM39.33 19h-9l6.07 6.09A33.37 33.37 0 0 1 39.33 19ZM8.79 50.34a33.64 33.64 0 0 1 18.12-12.28l-7.86-7.83v9.45H2.43l-.38.39v9.81l.38.46Zm53.42.72a33.62 33.62 0 0 1 18.87-11.4H71v-9.38L56.47 44.7l-.12.28a.5.5 0 0 0 .17.41Z" style="fill:#fff"/></g></svg>