<svg version="1.1" id="Layer_1" xmlns="http://www.w3.org/2000/svg" x="0" y="0" viewBox="0 0 180 180" style="enable-background:new 0 0 180 180" xml:space="preserve"><defs><style>.b{fill:#1a1a1a}.c,.d{fill:#fff}.e{opacity:.2}</style></defs><path class="d" d="M140.07 78.1c3.43 6.1 5.37 13.14 5.37 20.64 0 3.43-.41 6.78-1.19 9.97-.1.37-.17.72-.27 1.09-1.69 6.7-2.84 13.61-3.41 20.68-.29 3.45-.43 6.91-.43 10.44 0 .93.01 1.86.04 2.79-1.09-.45-2.3-.85-3.65-1.2 0 0-47.52-4.73-70.93 0-1.42.36-2.69.78-3.82 1.27h-.63a42.199 42.199 0 0 1 8.24-19.4c2.72-3.58 6.02-6.71 9.76-9.27.25-.16.49-.31.72-.49 2.01-1.36 3.88-2.9 5.61-4.6-4.46-1.44-12.33-5.8-16.01-8.57-2.29-.53-5.69 2.3-5.69 2.3-1.19.99-2.3 2.06-3.37 3.19-.81.84-1.58 1.72-2.28 2.61a42.47 42.47 0 0 0-8.55 18.63c-.47 2.51-.7 5.1-.7 7.77 0 3.97.55 7.8 1.58 11.45 0 0 1.43 4.08 2.52 6.8.35.88.67 1.61.89 2.02 1.27 2.36 1.06 6.71-1.63 9.88-1.17 1.38-2.81 2.54-4.99 3.22-.97.33-1.99.54-3.06.58-.25 0-.49-.02-.74-.02-.59-.02-1.17-.08-1.73-.17a10.28 10.28 0 0 1-5.14-2.59 8.646 8.646 0 0 1-1.44-1.64c.61-1.94.92-4.01.92-6.15s-.31-4.21-.92-6.15c0-.02.02-.04.02-.04 0-.02-.02-.06-.02-.08-.12-.33-.23-.68-.37-1.01a85.077 85.077 0 0 1-4.25-19.28c-.12-1.17-.21-2.36-.29-3.54v-.02c-.1-1.66-.14-3.31-.14-4.99 0-18.42 5.88-35.47 15.89-49.36.78-1.11 1.61-2.22 2.47-3.29 2.57-20.02 19.14-35.67 39.6-36.78.78-.06 1.58-.08 2.38-.08 2.05 0 4.07.16 6.04.43.02 0 .06 0 .08.02 1.83-.41 3.68-.78 5.53-1.11.78-.14 1.56-.27 2.36-.39.8-.14 1.61-.26 2.41-.37 1.03-.16 2.06-.27 3.09-.39.41-.06.8-.1 1.21-.14.97-.1 1.97-.19 2.96-.27 1.34-.12 2.72-.2 4.09-.28a127.12 127.12 0 0 1 31.7 2.39 126.034 126.034 0 0 1-9.09 32.67c.06.8.08 1.61.08 2.43 0 .68-.02 1.38-.06 2.06 0 .1 0 .17-.02.27-.02.58-.06 1.15-.12 1.71 0 .12-.02.24-.04.33-.06.6-.12 1.19-.21 1.79 0 .08-.02.16-.04.24-.08.52-.16 1.03-.27 1.56l-.06.35v.04Z"/><path class="d" d="M52.25 165.38v3.47h97.65v-3.47c.03-10.4.05-19.46-13.36-22.87 0 0-47.52-4.73-70.93 0-13.41 3.41-13.39 12.47-13.36 22.87Z"/><path class="c e" d="M135.66 142.46c-9.22-1.86-22.29-2.22-34.58-1.98-12.29-.24-25.36.12-34.58 1.98-9.03 2.29-11.81 7.22-12.66 13.39 0 0 7.66-7.39 47.24-7.39s47.24 7.39 47.24 7.39c-.85-6.17-3.63-11.09-12.66-13.39Z"/><path class="d" d="M149.89 170.85H52.25c-1.1 0-2-.9-2-2v-3.46c-.03-10.34-.06-21.03 14.86-24.82 23.53-4.75 69.67-.25 71.62-.05.1 0 .2.03.29.05 14.92 3.79 14.89 14.48 14.87 24.81v3.46c0 1.1-.9 2-2 2Zm-95.64-2Zm0-2h93.64v-1.47c.03-10.35.05-17.84-11.7-20.89-2.96-.28-47.99-4.5-70.19-.02-11.8 3-11.78 10.51-11.75 20.91v1.47Z"/><path class="e" d="M140.07 78.08v-.02l.06-.35c.12-.53.19-1.03.27-1.56.02-.08.04-.16.04-.23.1-.6.16-1.19.21-1.79.02-.1.04-.21.04-.33.06-.56.1-1.13.12-1.71.02-.1.02-.18.02-.27.04-.68.06-1.38.06-2.06 0-.82-.02-1.64-.08-2.43 4.42-10.26 6.29-15.56 9.09-32.67-3.74 10.67-8.41 20.19-12.83 30.45.06.8.08 1.62.08 2.43 0 .68-.02 1.38-.06 2.06 0 .1 0 .19-.02.27-.02.58-.06 1.15-.12 1.71 0 .12-.02.23-.04.33-.04.41-.08.8-.14 1.19-.02.19-.04.41-.08.6 0 .08-.02.16-.04.23-.08.53-.16 1.03-.27 1.58l-.06.33c-1.15 5.7-3.23 11.08-6.17 15.81-5.06 8.16-12.64 14.41-22.14 17.15-3.76 1.11-14.04 3.29-9.48 3.29 4.11 0 8.06-.58 11.82-1.69 7.2-2.08 13.61-6.04 18.65-11.27-.08.29-.14.58-.21.88-.49 1.93-.93 3.87-1.32 5.84a10.82 10.82 0 0 1-2.16 4.56c-.16.16-.27.29-.39.43a84.391 84.391 0 0 0-13.8 22c-.81 1.88-2.17 5.17-3.23 7.98h.2c5.11 0 10.31-.13 15.38.51 5.01.64 10.01 1.17 15.02 1.76.62.07 1.21.28 1.69.6-.02-.92-.04-1.85-.04-2.77 0-3.52.14-6.99.43-10.44.56-7.07 1.71-13.98 3.41-20.68.1-.37.18-.72.27-1.09.78-3.19 1.19-6.54 1.19-9.97 0-1.67-.1-3.33-.29-4.96a42.054 42.054 0 0 0-5.08-15.69Zm-75.09 24.31c.87-.63 1.93-1.02 2.96-1.3.2-.05.4-.09.6-.1.03-.26.35-.52.09-.54-7.76-.44-6.97.35-8.59 1.1-1.19.99-2.3 2.06-3.37 3.19-.82.84-1.58 1.71-2.28 2.61a42.522 42.522 0 0 0-8.55 18.63c-.47 2.51-.7 5.1-.7 7.77 0 3.97.55 7.81 1.58 11.45.55 1.95 1.23 3.84 2.04 5.67.21.51.43.97.68 1.46.02.06.04.1.06.14.25.49.45.99.6 1.52 0 0 0 .02.02.04.31.99.47 2.02.47 3.12 0 4.63-2.98 8.55-7.09 9.99-.97.33-1.99.55-3.06.58-.25 0-.49-.02-.74-.02-.58-.02-1.17-.08-1.73-.18-.47-.09-.93-.21-1.37-.36 1.4 1.29 3.16 2.2 5.12 2.57.56.1 1.15.16 1.73.18.25 0 .49.02.74.02 1.07-.04 2.08-.25 3.06-.58 4.11-1.44 7.09-5.35 7.09-9.99 0-1.09-.16-2.12-.47-3.12-.02-.02-.02-.04-.02-.04-.16-.53-.35-1.03-.6-1.52a.975.975 0 0 1-.06-.14c-.25-.49-.47-.95-.68-1.46-.82-1.83-1.5-3.72-2.04-5.67a41.991 41.991 0 0 1-1.58-11.45c0-2.67.23-5.26.7-7.77 1.3-6.95 4.3-13.32 8.55-18.63.7-.9 1.46-1.77 2.28-2.61 1.07-1.12 2.17-2.19 3.35-3.18.25-.58.68-1 1.21-1.39Z"/><path class="b" d="M81.7 62.76c0 2.47-1.67 4.52-3.93 5.12-.43.12-.9.18-1.36.18-.53 0-1.01-.08-1.5-.21-.1-.02-.18-.06-.25-.08a10.6 10.6 0 0 0-6.68.19c-.27.1-.53.19-.78.33-.02-.14-.02-.27-.02-.41 0-1.25.21-2.43.62-3.54.1-.31.23-.62.39-.93 1.27-2.75 3.7-4.85 6.64-5.69.18-.06.33-.12.51-.14.35-.06.7-.1 1.07-.1 2.92 0 5.3 2.36 5.3 5.28Zm15.43 50.96c-1.1 0-2-.9-2-2s.9-2 2-2c34.97 0 40.96-32.04 41.02-32.36a2.009 2.009 0 0 1 2.31-1.63c1.09.19 1.82 1.23 1.63 2.31-.06.36-6.67 35.67-44.96 35.67Z"/><path class="c" d="M72.65 103.68c.12 0 7.82 4.74 12.82 6.35-.21.17-.4.35-.61.52-.02.02-.05.02-.07.02a48.418 48.418 0 0 1-17.56 5.82l-.31.05c-.14.02-.24.05-.38.05l-.21-.02-.17.05c-2.58 0-4.66-2.08-4.66-4.66 0-1.96 1.3-3.78 3.14-4.4l.28-.07c2.88-.9 5.28-1.91 7.72-3.7Z"/><path class="b" d="M66.16 118.51c-3.67 0-6.66-2.99-6.66-6.66 0-2.82 1.85-5.41 4.51-6.29.05-.02.1-.03.15-.04l.23-.06c3.06-.96 5.11-1.94 7.07-3.38.34-.25.76-.39 1.19-.39.56 0 .75.11 1.8.72 1.92 1.11 7.78 4.49 11.64 5.73a1.996 1.996 0 0 1 .62 3.48l-.21.18c-.13.12-.27.23-.41.34-.13.1-.28.19-.44.26a50.435 50.435 0 0 1-18.17 5.99l-.26.04c-.27.05-.48.07-.75.07-.1.02-.21.02-.31.02Zm-.94-9.14c-1 .36-1.71 1.4-1.71 2.48 0 1.39 1.07 2.53 2.43 2.65.2-.04.4-.05.6-.03h.04l.34-.06c4.89-.63 9.57-2 13.97-4.07-3.19-1.47-6.43-3.32-8.13-4.3-2.53 1.65-4.96 2.54-7.23 3.25l-.11.03-.2.05Zm-.29-1.99Z"/><path class="b" d="M44.2 171.92c-.19 0-.32 0-.45-.01h-.29c-.75-.02-1.42-.09-2.07-.2-2.33-.44-4.45-1.51-6.16-3.1-.65-.58-1.25-1.26-1.74-1.98a1.98 1.98 0 0 1-.25-1.72c.55-1.76.83-3.63.83-5.56s-.28-3.8-.83-5.56c-.03-.11-.06-.21-.07-.32a8.32 8.32 0 0 0-.24-.64.487.487 0 0 1-.04-.11 87.098 87.098 0 0 1-4.35-19.73c-.12-1.19-.22-2.4-.3-3.61v-.13c-.09-1.49-.14-3.16-.14-5.01 0-18.29 5.62-35.76 16.27-50.53.66-.94 1.4-1.93 2.19-2.93 2.95-20.89 20.27-36.82 41.4-37.96.74-.06 1.58-.08 2.48-.08 1.95 0 3.98.14 6.06.42 1.75-.38 3.51-.74 5.24-1.04.8-.14 1.6-.28 2.42-.4.67-.12 1.41-.23 2.14-.33l.27-.04c1.02-.15 2.05-.27 3.08-.39.47-.06.88-.11 1.32-.15.98-.1 1.99-.2 3-.27 1.34-.12 2.74-.2 4.1-.28 2.32-.11 4.42-.16 6.46-.16 8.69 0 17.37.87 25.79 2.59 1.03.21 1.72 1.19 1.58 2.23-1.55 11.29-4.6 22.31-9.05 32.75.03.63.05 1.32.05 2.08 0 .7-.02 1.42-.06 2.12 0 .14 0 .27-.03.4-.02.56-.06 1.1-.11 1.65 0 .19-.03.36-.05.49-.06.58-.11 1.15-.21 1.72-.01.16-.04.3-.06.39-.06.41-.12.81-.2 1.22 3.46 6.4 5.28 13.64 5.28 20.99 0 3.55-.42 7.06-1.25 10.44-.06.22-.1.4-.14.57l-.13.54c-1.67 6.61-2.8 13.46-3.35 20.33-.28 3.35-.42 6.71-.42 10.28 0 .91.01 1.82.04 2.74.02.68-.31 1.32-.87 1.71-.56.39-1.28.46-1.9.2-.96-.4-2.05-.76-3.22-1.07-2.96-.28-47.99-4.5-70.19-.02-1.2.31-2.39.7-3.43 1.15-.26.11-.53.16-.81.16h-.63a2.06 2.06 0 0 1-1.5-.71c-.37-.44-.54-1.02-.45-1.59a44.379 44.379 0 0 1 8.62-20.31 43.61 43.61 0 0 1 10.22-9.7c.28-.17.46-.3.65-.43 1.07-.73 2.09-1.49 3.06-2.31-4.39-1.92-9.86-5.05-13-7.32-.89.08-2.58 1-3.66 1.9-1.04.87-2.08 1.86-3.2 3.03-.76.78-1.48 1.61-2.15 2.47a40.51 40.51 0 0 0-8.15 17.77c-.44 2.37-.67 4.86-.67 7.4 0 3.69.5 7.34 1.49 10.85.18.5 1.47 4.18 2.47 6.65.48 1.2.71 1.67.79 1.82 1.58 2.94 1.47 8.19-1.86 12.13-1.52 1.8-3.52 3.09-5.93 3.84-1.19.4-2.37.63-3.58.67h-.07Zm-.65-4.02c.09 0 .22 0 .36.01h.29a8.49 8.49 0 0 0 2.42-.48c1.72-.54 3.09-1.41 4.11-2.62 2.3-2.71 2.19-6.17 1.39-7.65-.25-.46-.58-1.21-.99-2.23-1.09-2.72-2.49-6.71-2.55-6.88-.01-.04-.03-.08-.04-.12a43.93 43.93 0 0 1-1.66-11.99c0-2.78.25-5.52.74-8.14 1.33-7.1 4.43-13.85 8.95-19.51.75-.96 1.56-1.89 2.41-2.76 1.2-1.27 2.36-2.37 3.52-3.33.7-.58 4.32-3.43 7.42-2.71.27.06.53.18.75.35 3.47 2.61 11.12 6.87 15.42 8.26.67.22 1.17.76 1.33 1.45.16.68-.05 1.4-.55 1.89a43.283 43.283 0 0 1-5.88 4.82c-.21.16-.49.35-.79.53-3.48 2.38-6.6 5.35-9.21 8.77a40.37 40.37 0 0 0-7.25 15.37c.45-.14.91-.26 1.39-.39 23.53-4.75 69.67-.25 71.62-.05.1 0 .2.03.29.05.38.1.75.2 1.12.3 0-3.67.14-7.12.43-10.57.57-7.09 1.73-14.16 3.46-21l.12-.49c.05-.21.1-.41.16-.62.74-3.03 1.12-6.23 1.12-9.46 0-6.91-1.77-13.71-5.11-19.66-.17-.3-.26-.64-.26-.98v-.04c0-.11 0-.22.03-.33l.06-.35s.01-.07.02-.11c.11-.48.17-.94.25-1.41 0-.05.02-.1.03-.15 0-.04 0-.08.02-.12.09-.56.14-1.1.2-1.66 0-.07.02-.14.03-.2v-.14c.05-.52.09-1.04.11-1.57 0-.07 0-.15.02-.22v-.1c.04-.65.05-1.31.05-1.95 0-.87-.02-1.62-.07-2.29-.02-.32.03-.64.16-.93a124.18 124.18 0 0 0 8.68-30.29 125.868 125.868 0 0 0-29.35-2c-1.34.08-2.71.15-4.01.27-1 .08-1.98.17-2.94.27-.39.04-.75.07-1.12.13-.02 0-.12.01-.13.02-.98.11-1.96.22-2.94.37l-.29.04c-.69.1-1.4.2-2.08.32-.84.12-1.6.26-2.36.39-1.79.32-3.62.69-5.44 1.09-.3.07-.6.06-.89 0-1.94-.26-3.85-.4-5.66-.4-.8 0-1.55.03-2.23.08-19.43 1.05-35.3 15.79-37.77 35.04-.05.37-.19.71-.42 1-.87 1.08-1.67 2.15-2.39 3.18-10.17 14.1-15.53 30.76-15.53 48.21 0 1.77.04 3.36.13 4.87v.06c.08 1.15.17 2.3.28 3.42.63 6.34 2.02 12.66 4.13 18.77.11.28.22.58.32.86l.07.19c.03.07.05.15.07.23.02.09.04.18.05.27.61 2.05.91 4.22.91 6.44 0 1.96-.24 3.89-.72 5.72.18.2.37.39.58.57a8.349 8.349 0 0 0 4.17 2.11c.44.08.93.12 1.43.14h.02Zm94.89-91.99Zm.41-4.22Z"/><path class="b" d="M149.9 170.85H52.25c-1.1 0-2-.9-2-2v-2.72c0-.48.16-.94.47-1.3 2.3-2.71 2.19-6.17 1.39-7.64-.25-.46-.58-1.21-.99-2.23-.15-.37-.18-.79-.09-1.18 1.29-5.73 4.46-9.49 9.97-11.83 1.22-.52 2.61-.98 4.11-1.37 23.53-4.75 69.67-.25 71.62-.05.1 0 .2.03.29.05 1.42.36 2.74.79 3.93 1.29 10.99 4.56 10.97 14.2 10.94 23.53v3.46c0 1.1-.9 2-2 2Zm-95.64-4h93.64v-1.47c.03-9.1.04-16.29-8.48-19.82-.97-.4-2.05-.76-3.23-1.07-2.96-.28-47.99-4.5-70.19-.02-1.2.31-2.39.7-3.43 1.15-4.09 1.74-6.42 4.35-7.49 8.44.32.77.49 1.11.55 1.23 1.5 2.79 1.48 7.67-1.38 11.52v.04Zm95.65-1.47Z"/></svg>