<svg version="1.1" id="Layer_1" xmlns="http://www.w3.org/2000/svg" x="0" y="0" viewBox="0 0 180 180" style="enable-background:new 0 0 180 180" xml:space="preserve"><style>.st0{fill:#bf3b43}.st1{fill:#040000}</style><g id="Layer_2"><g id="Layer_1-2"><path class="st0" d="M70.1 97.9v28.8l-9.9 9.9v12.6h-8.9v11.7h77.2v-11.7h-8.9v-12.6l-9.9-9.9V97.9"/><path class="st1" d="M120.8 148.3v-11.9l-9.9-9.9V98.8l-2.1-1.2v29.7l9.9 9.9v13.2h8.9v9.6H52.4v-9.5h8.9v-13.2l10-10V97.6l-.1-.1-2.1 1.1h.1v27.8l-10 10v11.9h-8.9v13.9h79.4v-13.9z"/><path class="st1" d="M70.1 96.9h39.6V99H70.1zm0 28.7h39.6v2.1H70.1zm-9.9 9.9h59.5v2.1H60.2zm0 12.6h59.5v2.1H60.2z"/><path d="m87.7 33-.5.7-.9 1c-5 5.7-10 9.7-15.1 13.6C66 52.2 63 58.2 63 64.7c-.2 3.6.7 7.2 2.5 10.3 1.5 2.9 3.2 4.7 9.9 8.5L69 99.4l2.8-1-.1-.1L78 82.5l-1.6-.9c-6.3-3.6-7.8-5.1-9.1-7.7-1.6-2.8-2.3-6-2.2-9.3 0-5.8 2.7-11.3 7.4-14.7 5.2-4 10.3-8 15.4-13.9l.9-1 .6-.8-1.7-1.2zm27.2 42c1.7-3.2 2.5-6.8 2.4-10.4-.2-4.7-1.7-11.4-8.2-16.3-5.7-4.2-10.4-8.1-15.1-13.6l-.8-1-.5-.7-1.7 1.2.5.8.9 1.1c4.8 5.6 9.6 9.6 15.4 13.9 5.8 4.4 7.2 10.4 7.3 14.7.1 3.2-.6 6.4-2.1 9.3-1.5 2.6-3.1 4.2-9.1 7.7l-1.6.9 6.3 15.7 2.7 1.4.2-.1-6.5-16.1c6.5-3.8 8.2-5.5 9.9-8.5z" style="stroke:#040000;stroke-width:4;stroke-miterlimit:10;fill:#040000"/><path class="st0" d="M96.7 101.9h-.1l1.9-.2c4-.5 7.9-1.5 11.7-2.8l-6.5-16 .8-.5c6.3-3.7 8-5.3 9.6-8.2 1.6-3.1 2.4-6.5 2.3-10-.2-4.5-1.7-11-7.8-15.7-5.8-4.3-10.7-8.3-15.4-13.9l-.9-1-.5-.8h-3.3l-.6.8-.9 1c-5.1 5.9-10.2 9.9-15.4 13.9-5 3.7-7.9 9.5-7.9 15.7-.1 3.5.7 6.9 2.4 9.9 1.4 2.8 3 4.4 9.6 8.2l.8.5L70 98.9c3.8 1.3 7.7 2.3 11.7 2.8l1.9.2h13.1z"/><path class="st1" d="M109.7 100c-3.7-1.4-7.5-2.4-11.3-3l-1.8-.3c-4.3-.4-8.7-.5-13.1-.3l-1.9.2c-3.9.4-7.7 1.2-11.5 2.4l-.7-2c3.9-1.3 7.9-2.1 11.9-2.5l1.9-.2c4.5-.2 9-.1 13.5.3l1.9.3c4 .7 8 1.7 11.8 3.1l-.7 2zm-5.3-15.4c-4.7-1.1-9.6-1.7-14.5-1.5-4.9-.1-9.7.4-14.5 1.5l-.6-2.2c4.9-1.2 10-1.7 15.1-1.7 5.1-.1 10.1.5 15.1 1.7l-.6 2.2z"/><circle class="st0" cx="90" cy="26" r="7.1"/><path class="st1" d="M90 34.2c-4.5 0-8.2-3.7-8.2-8.2 0-4.5 3.7-8.2 8.2-8.2 4.5 0 8.2 3.7 8.2 8.2s-3.7 8.2-8.2 8.2zM90 20c-3.3 0-6 2.7-6 6s2.7 6.1 6.1 6.1c3.3 0 6.1-2.7 6.1-6.1-.1-3.3-2.8-6-6.2-6zm-2.3 48.7v-5.1l-5.2-.1c-1 .1-2-.6-2.1-1.6v-.5c-.1-1 .6-2 1.6-2.1h5.7v-5.5c0-1.4.8-2.2 2.3-2.2 1.1-.1 2.1.6 2.2 1.7v5.9h5.4c1.4 0 2.1.7 2.1 2.1s-.7 2.1-2.1 2.1h-5.4v5.2c0 1.5-.8 2.3-2.2 2.3-1.1.1-2.1-.6-2.3-1.7v-.5z"/></g></g></svg>