<svg xmlns="http://www.w3.org/2000/svg" viewBox="0 0 180 180" style="enable-background:new 0 0 180 180" xml:space="preserve"><path style="fill:none" d="M0 0h180v180H0z"/><path style="fill:#bf3b43" d="M35.74 161.27h108.51v-16.52h-12.5v-17.63l-13.88-13.97V72.83L136 58.86v-28.4h-19.38v11.2H99.73v-11.2H80.35v11.2H63.38v-11.2h-19.3v28.4l18.13 13.97v40.33l-13.97 13.97v17.62h-12.5v16.52z"/><path d="M145.75 162.77H34.25v-19.52h12.5V126.5l14-14v-39l-18.13-14V29h22.3v11.2h14V29h22.38v11.2h13.89V29h22.31v30.6l-18.13 14v39l13.88 14v16.75h12.5Zm-108.5-3h105.5v-13.52h-12.5v-18.51l-13.88-14V72.09l18.13-14V32h-16.38v11.2H98.23V32H81.85v11.2h-20V32H45.58v26.12l18.13 14v41.69l-14 14v18.5H37.25Z"/><path d="M44.08 57.36H136v3H44.08zm18.13 13.97h55.65v3H62.21zm0 40.33h55.65v3H62.21zm-13.96 13.97h83.51v3H48.25zm0 17.62h83.51v3H48.25z"/></svg>