
<svg version="1.1" id="Layer_1" xmlns="http://www.w3.org/2000/svg" xmlns:xlink="http://www.w3.org/1999/xlink" x="0px" y="0px"
   viewBox="0 0 180 180" style="enable-background:new 0 0 180 180;" xml:space="preserve">

<style type="text/css">
  .st0{fill:#BF3B43;}
  .st1{opacity:0.2;fill:#040000;enable-background:new    ;}
  .st2{opacity:0.2;fill:#FFFFFF;enable-background:new    ;}
  .st3{fill:#1A1A1A;}
</style>
<title>i</title>
<g id="Layer_2">
  <g id="Layer_1-2">
    <path class="st0" d="M116,146.2c7-5.8,16.4-18.4,16.4-39.2c0-20.5-13.5-35.9-22.1-44.5l-1.8-1.8l-1.3,2.2
      c-1.5,2.5-8.8,14.5-9.1,44.6H84.4c0.5-45,18-62,18.2-62.2l0.6-0.7l-0.1-0.9c-0.5-6.7-6.1-12-12.9-12v0.1
      c-7.1,0-12.9,5.8-12.9,12.9c0,3.3,1.2,6.4,3.4,8.8c-5.3,4.3-10.1,9-14.5,14.2C55.4,80.6,49.7,94.2,49.7,107
      c0,20.8,9.4,33.3,16.4,39.2"/>
    <path class="st1" d="M118,72.4c22.7,55.1-27.1,71.8-27.1,71.8l25.1,2c-2.4,1.9,16-5.2,16-41.4C132.1,92.5,127.1,80.7,118,72.4z"/>
    <path class="st2" d="M83.8,53.5c-2.7-1.2-28.6,20.6-32.9,42.9c-4,20.8,3.2,26.6,2.8,26.4c0-0.1,2.8-45.8,32.8-68.1
      C86.5,54.8,85.4,54.2,83.8,53.5z"/>
    <path class="st2" d="M92,33.6C87.7,34,80.2,40.3,79.6,49c0,0-6-5.6,0.1-12.5C84.4,31,92,33.6,92,33.6z"/>
    <path class="st1" d="M89.1,71.8c1.8-5.1,14.1-29,14.1-29l-5.6-9.2l-2.9,0.1c9.2,11.3-18,37-18,56.4c0,5.7,1.4,17.2,5.5,19.3
      C82.4,109.4,85.3,82.3,89.1,71.8z"/>
    <path class="st3" d="M70.9,148.2c-5-2.3-20.3-14.5-20.3-40.7C50.6,77.4,82.7,54,82.7,54c-4.9-3.5-6-10.4-2.5-15.3
      c3.5-4.9,10.4-6,15.3-2.5c2.6,1.9,4.3,4.9,4.5,8.1c0,0-18.7,17.7-18.7,65.6H99c0-29.9,7-42.4,8.9-45.6c9.5,9.4,21.5,24,21.5,43.1
      c0,26.1-15.1,38.3-20.2,40.7l10.6-3.3c6.6-7,13.6-19.2,13.6-37.4c0-15.7-7.4-30.7-22.7-46l-3.7-3.6l-2.6,4.5
      c-5.8,9.8-9,24.8-9.4,43.6h-9.7c0.5-21.5,5-36,8.8-44.5c4.3-9.8,8.7-14.1,8.7-14.1l1.3-1.3L104,44c-0.6-7.8-7.1-13.8-14.9-13.9
      l0,0c-8.2,0-14.9,6.7-14.9,14.9c0,3.1,0.9,6,2.7,8.5c-4.8,4-9.2,8.5-13.2,13.3c-11.1,13.3-17,27.3-17,40.6
      c0,17.8,6.8,29.8,13.3,36.9L70.9,148.2L70.9,148.2z"/>
    <path class="st3" d="M90,148.8c9,0,17.2,0.3,24.6,0.9l1.9-3.8c-7.7-0.7-16.4-1.1-26.5-1.1l0,0c-10.2,0-19,0.4-26.7,1.1l1.2,3.9
      C72.1,149.1,80.6,148.8,90,148.8z"/>

      <rect x="60.9" y="140.2" transform="matrix(0.7506 -0.6608 0.6608 0.7506 -80.1982 77.5428)" class="st3" width="3.5" height="9.7"/>

      <rect x="111.9" y="143.4" transform="matrix(0.7071 -0.7071 0.7071 0.7071 -68.4571 125.0621)" class="st3" width="9.7" height="3.5"/>
  </g>
</g>
</svg>
