<svg version="1.1" id="Layer_1" xmlns="http://www.w3.org/2000/svg" x="0" y="0" viewBox="0 0 180 180" style="enable-background:new 0 0 180 180" xml:space="preserve"><style>.st1{fill:#bf3b43}.st2{fill:#1a1a1a}</style><path style="fill:none" d="M0 0h180v180H0z"/><g id="wings_1_"><path class="st1" d="M70 81.1c0-29.6-30-38.6-25-56.6-36 1-36 58.3-36 126.6 0-14.4 7.1-19.8 16-17.1.9-11.2 6.1-16.6 14.6-13.5 4-19.7 12.8-24.9 30.5-24.9V81.1z"/><path class="st2" d="M11.9 151.1h-6c0-68.9 0-128.5 39-129.6l4.1-.1-1.1 3.9c-1.9 7 2.9 12.7 9 19.9C64 53.8 73 64.4 73 81.1v17.5h-3c-17.7 0-24.1 5.2-27.6 22.5l-.7 3.4-3.3-1.2c-2.6-.9-4.7-.9-6.3.1-2.3 1.5-3.9 5.4-4.3 10.8l-.3 3.7-3.6-1.1c-2.1-.6-5.1-1-7.6.8-2.8 2.2-4.4 6.9-4.4 13.5zM41.4 27.8c-12.7 2.1-20.7 13.4-25 35.3-3.7 18.7-4.3 43.5-4.4 70.4.3-.3.6-.5.9-.7 2.6-1.9 5.9-2.8 9.4-2.4 1-5.7 3.2-9.8 6.6-12 1.8-1.1 4.5-2.2 8.3-1.6C41.9 98 52.2 93.2 67 92.7V81.1c0-14.5-7.9-23.8-14.8-32-5.7-6.8-11.1-13.2-10.8-21.3z"/><path class="st2" d="M24.9 137c-1.7 0-3-1.3-3-3 0-4.7-.1-9.9-.2-15.5C21 83.3 20.1 35 43.5 21.9c1.4-.8 3.3-.3 4.1 1.2.8 1.4.3 3.3-1.2 4.1C26.1 38.5 27 84.7 27.7 118.4c.1 5.6.2 10.8.2 15.6 0 1.7-1.4 3-3 3z"/><path class="st2" d="M39.5 123.5c-1.6 0-2.9-1.2-3-2.9-2.5-52.4-.6-85.2 5.8-97.5.8-1.5 2.6-2 4-1.3 1.5.8 2 2.6 1.3 4-4.1 7.8-8.3 30.5-5.2 94.5.1 1.7-1.2 3.1-2.9 3.1.1.1 0 .1 0 .1z"/><path class="st1" d="M110 81.1c0-29.6 30.1-38.6 25.1-56.6 36 1 36 58.3 36 126.6 0-14.4-7.1-19.8-16-17.1-.9-11.2-6.1-16.6-14.6-13.5-4-19.7-12.8-24.9-30.5-24.9V81.1z"/><path class="st2" d="M174.1 151.1h-6c0-6.5-1.6-11.3-4.5-13.4-2.4-1.8-5.5-1.4-7.6-.8l-3.6 1.1-.3-3.7c-.4-5.4-1.9-9.3-4.3-10.8-1.6-1-3.7-1.1-6.3-.1l-3.3 1.2-.7-3.4c-3.5-17.2-9.9-22.5-27.6-22.5h-3V81.1c0-16.7 9-27.4 16.2-35.9 6.1-7.2 10.9-12.9 9-19.9l-1.1-3.9 4.1.1c39 1.1 39 60.6 39 129.6zm-14.7-20.8c2.9 0 5.6.8 7.8 2.5.3.2.6.5.9.7-.1-26.9-.8-51.7-4.4-70.4-4.3-21.9-12.3-33.2-25-35.3.3 8-5.1 14.5-10.8 21.3-6.9 8.2-14.8 17.5-14.8 32v11.5c14.8.5 25.1 5.3 29.8 24.1 3.8-.6 6.6.4 8.3 1.6 3.4 2.2 5.6 6.3 6.6 12h1.6z"/><path class="st2" d="M155.1 137c-1.7 0-3-1.3-3-3 0-4.7.1-10 .2-15.6.7-33.7 1.5-79.9-18.8-91.3-1.4-.8-2-2.6-1.2-4.1.8-1.4 2.6-2 4.1-1.2 23.4 13.1 22.5 61.4 21.8 96.7-.1 5.5-.2 10.8-.2 15.5.1 1.7-1.2 3-2.9 3z"/><path class="st2" d="M140.5 123.5h-.1c-1.7-.1-2.9-1.5-2.9-3.1 3.1-63.9-1.1-86.6-5.2-94.5-.8-1.5-.2-3.3 1.3-4 1.5-.8 3.3-.2 4 1.3 6.4 12.3 8.4 45.1 5.8 97.5.1 1.5-1.3 2.8-2.9 2.8z"/></g><path class="st1" d="m64.2 110.6.9.8 1.2-.4c7.7-2.5 15.7-3.7 23.8-3.5 8.1-.2 16.1 1 23.8 3.5l1.2.4.9-.8c11.3-10.8 15.6-21.4 12.7-31.7-3.6-11.6-15.8-24-37.4-38l-1.3-.8-1.1.7C67.2 54.9 55 67.4 51.5 78.9c-3 10.3 1.3 20.9 12.7 31.7zM78.1 134c-.2.5-.3 1-.4 1.5-4.5 10.1-10.5 10.6-19.8 10.6H37.3c-6.8 0-12.3 7.2-12.3 10v2h38.4c8.2 0 23.5-8 23.6-23.4v-2h-8.4l-.5 1.3z"/><path class="st1" d="m113.8 113.8-1.3-.4c-7.2-2.4-14.8-3.6-22.4-3.4-7.6-.2-15.2.9-22.5 3.4l-1.3.5v1.4c-.2 4.3-1 8.6-2.4 12.6l-.8 2.6h54.1l-.9-2.6c-1.4-4.1-2.2-8.3-2.4-12.6l-.1-1.5zm28.9 32.4h-20.6c-9.6 0-15.3-.5-19.8-10.6-.1-.5-.2-1-.4-1.5l-.5-1.3H93v2c0 15.2 15.6 23.4 23.6 23.4H155v-2c0-2.8-5.6-10-12.3-10z"/><path class="st2" d="M142.5 141.8H121c-5.9 0-9.9.4-13.6-5.7-.5-.7-.7-1.2-.8-1.4h17.8c-3.6-5.9-5.8-12.7-6.2-19.6 6.5-6.8 11.1-13.2 13.9-19.2 5.5-11.9 0-24.7-9.7-35.4-4.9-5.3-13.7-12.3-26.7-21.1 1.8-1.3 6.4-3.7 6.4-9.9 0-6.6-5.5-11.5-12.1-11.5-6.8 0-12.1 4.9-12.1 11.5 0 6.2 4.5 8.6 6.4 9.9-13 8.8-21.9 15.8-26.8 21.1-4.4 4.7-7.9 10.2-10.1 16.3-4.8 13.6 1.4 24.7 14.4 38.3-.4 7-2.5 13.7-6.2 19.6h17.7c-.1.2-.4.6-.8 1.4-3.9 6.1-7.8 5.7-13.6 5.7H37.5c-8.8 0-17.7 7.3-17.7 20.7h42.5c14 0 27.8-11.2 27.8-24.3 0 13 13.7 24.3 27.8 24.3h42.5c-.2-13.4-9.3-20.7-17.9-20.7zM53.4 79.5C56.7 68.4 69 56.2 90 42.5c21 13.6 33.2 25.9 36.6 37 2.7 9.5-1.4 19.4-12.2 29.7-7.9-2.6-16.1-3.8-24.4-3.6-8.3-.2-16.6 1-24.4 3.6-10.9-10.3-15-20.2-12.2-29.7zm9.9 76.6H27c0-1.4 4.4-8 10.3-8h20.5c9.4 0 16.7-.3 21.9-12.4-.3.4-.2.1.3-1.1h5c-.1 13.8-14.1 21.5-21.7 21.5zm2.4-27.7c1.5-4.3 2.3-8.7 2.5-13.2 7-2.4 14.4-3.5 21.8-3.3 7.4-.2 14.8.9 21.8 3.3.1 4.5 1 9 2.5 13.2H65.7zm51 27.7c-7.6 0-21.6-7.7-21.6-21.4h5c.4 1.2.5 1.6.3 1.1 5.2 12 12.3 12.4 21.9 12.4h20.6c5.8 0 10.3 6.5 10.3 8l-36.5-.1z"/><path class="st1" d="M90 24.6c3.7 0 5.6 1.5 5.5 4.7.1 3.8-1.7 5.7-5.5 5.7s-5.7-1.9-5.5-5.7c-.1-3.2 1.7-4.7 5.5-4.7z"/><path class="st2" d="M94 96.4V82.2h8.2v-7.6H94v-8.9h-8v8.9h-8.2v7.6H86v14.2z"/><g id="claws_1_"><path class="st1" d="M32.5 162.5c0 5-5 9-5 9s-5-4-5-9 2.2-9 5-9 5 4 5 9z"/><path class="st2" d="m27.5 175.3-1.9-1.5c-.6-.5-6.1-5.1-6.1-11.3 0-6.8 3.4-12 8-12s8 5.2 8 12c0 6.2-5.5 10.8-6.1 11.3l-1.9 1.5zm-.1-18.9c-.5.2-2 2.2-2 6 0 1.7 1 3.4 2 4.7 1-1.3 2-3 2-4.7.1-3.7-1.4-5.8-2-6z"/><path class="st1" d="M42.5 162.5c0 5-5 9-5 9s-5-4-5-9 2.2-9 5-9 5 4 5 9z"/><path class="st2" d="m37.5 175.3-1.9-1.5c-.6-.5-6.1-5.1-6.1-11.3 0-6.8 3.4-12 8-12s8 5.2 8 12c0 6.2-5.5 10.8-6.1 11.3l-1.9 1.5zm-.1-18.9c-.5.2-2 2.2-2 6 0 1.7 1 3.4 2 4.7 1-1.3 2-3 2-4.7.1-3.7-1.4-5.8-2-6z"/><path class="st1" d="M52.5 162.5c0 5-5 9-5 9s-5-4-5-9 2.2-9 5-9 5 4 5 9z"/><path class="st2" d="m47.5 175.3-1.9-1.5c-.6-.5-6.1-5.1-6.1-11.3 0-6.8 3.4-12 8-12s8 5.2 8 12c0 6.2-5.5 10.8-6.1 11.3l-1.9 1.5zm-.1-18.9c-.5.2-2 2.2-2 6 0 1.7 1 3.4 2 4.7 1-1.3 2-3 2-4.7.1-3.7-1.4-5.8-2-6z"/><path class="st1" d="M137.5 162.5c0 5-5 9-5 9s-5-4-5-9 2.2-9 5-9 5 4 5 9z"/><path class="st2" d="m132.5 175.3-1.9-1.5c-.6-.5-6.1-5.1-6.1-11.3 0-6.8 3.4-12 8-12s8 5.2 8 12c0 6.2-5.5 10.8-6.1 11.3l-1.9 1.5zm0-18.9c-.5.2-2 2.2-2 6 0 1.7 1 3.4 2 4.7 1-1.3 2-3 2-4.7 0-3.7-1.4-5.8-2-6z"/><path class="st1" d="M147.5 162.5c0 5-5 9-5 9s-5-4-5-9 2.2-9 5-9 5 4 5 9z"/><path class="st2" d="m142.5 175.3-1.9-1.5c-.6-.5-6.1-5.1-6.1-11.3 0-6.8 3.4-12 8-12s8 5.2 8 12c0 6.2-5.5 10.8-6.1 11.3l-1.9 1.5zm0-18.9c-.5.2-2 2.2-2 6 0 1.7 1 3.4 2 4.7 1-1.3 2-3 2-4.7 0-3.7-1.4-5.8-2-6z"/><path class="st1" d="M157.5 162.5c0 5-5 9-5 9s-5-4-5-9 2.2-9 5-9 5 4 5 9z"/><path class="st2" d="m152.5 175.3-1.9-1.5c-.6-.5-6.1-5.1-6.1-11.3 0-6.8 3.4-12 8-12s8 5.2 8 12c0 6.2-5.5 10.8-6.1 11.3l-1.9 1.5zm0-18.9c-.5.2-2 2.2-2 6 0 1.7 1 3.4 2 4.7 1-1.3 2-3 2-4.7 0-3.7-1.4-5.8-2-6z"/></g></svg>