
<svg version="1.1" id="Layer_1" xmlns="http://www.w3.org/2000/svg" xmlns:xlink="http://www.w3.org/1999/xlink" x="0px" y="0px"
   viewBox="0 0 180 180" style="enable-background:new 0 0 180 180;" xml:space="preserve">

<title>w</title>
<g id="Layer_2_3_">
	<g id="Layer_1-2_3_">
		<path fill="#BF3B43" d="M89.939,118.259c-3.936-0.096-7.996-0.465-12.412-1.127l-1.917-0.288L72.945,92.86H61.621l-4.7,21.1H54.9
			c-6.703,0-13.408-1.694-19.39-4.899l-1.459-0.782l2.343-28.111l0.008-0.062c1.25-9.374,5.967-15.147,15.297-18.72l0.623-0.239
			l0.66,0.101C65.191,63.12,77.646,64.22,90,64.52c12.354-0.299,24.809-1.399,37.018-3.27l0.66-0.101l0.623,0.239
			c9.329,3.573,14.047,9.346,15.296,18.72l0.008,0.062l2.343,28.111l-1.459,0.782c-5.982,3.205-12.687,4.899-19.39,4.899h-2.02
			l-4.7-21.1h-11.324l-2.665,23.985l-1.917,0.288c-4.417,0.662-8.477,1.031-12.412,1.127L90,118.261L89.939,118.259z"/>
		<path opacity="0.3" fill="#FFFFFF" enable-background="new    " d="M51.5,113.54c-13.8-9.3-8.6-44.1-8.6-44.1
			c-8.8,2.8-7.32,38.26-7.32,38.26s6.899,2.923,11.762,4.799L51.5,113.54z"/>
		<path opacity="0.3" fill="#FFFFFF" enable-background="new    " d="M94.2,116.24c-15.4-2.8-21.4-24.8-21.4-24.8
			c2.74,16.44,4.84,25.08,4.84,25.08S98.6,117.04,94.2,116.24z"/>
		<path opacity="0.3" fill="#FFFFFF" enable-background="new    " d="M135.4,111.64c-6.625-3.445-12.24-11.191-15.276-16.027
			l3.572,17.276C124.302,114.461,135.4,111.64,135.4,111.64z"/>
		<path opacity="0.2" fill="#040000" enable-background="new    " d="M127.2,61.54c0,0,4.8,3.2,6.5,4.3
			c5.539,3.584,8.439,10.758,9.46,21.43c0.966,10.091,1.74,19.97,1.74,19.97s-8.338,4.2-8.407,3.791
			C134.23,97.724,131.4,78.17,124.9,72.64c-6.1-5.2-9.8-6.5-10.7-6.7c-1.8,0.2-3.6,0.4-5.7,0.6
			c-6.093,0.554-19.726-0.142-19.726-0.142L127.2,61.54z"/>
		<path d="M89.939,118.259c-3.936-0.096-7.996-0.465-12.412-1.127l-1.917-0.288L72.945,92.86H61.621l-4.7,21.1H54.9
			c-6.703,0-13.408-1.694-19.39-4.899l-1.459-0.782l2.343-28.111l0.008-0.062c1.25-9.374,5.967-15.147,15.297-18.72l0.623-0.239
			l0.66,0.101C65.191,63.12,77.646,64.22,90,64.52c12.354-0.299,24.809-1.399,37.018-3.27l0.66-0.101l0.623,0.239
			c9.329,3.573,14.047,9.346,15.296,18.72l0.008,0.062l2.343,28.111l-1.459,0.782c-5.982,3.205-12.687,4.899-19.39,4.899h-2.02
			l-4.7-21.1h-11.324l-2.665,23.985l-1.917,0.288c-4.417,0.662-8.477,1.031-12.412,1.127L90,118.261L89.939,118.259z M102.1,114.64
			l2.7-24.3h15.6l4.7,21.1c6.4,0,12.6-1.6,18.2-4.6l-1.1-13.2l-1.1-13.2l0,0c-1-7.5-4.3-13.1-13.7-16.7c-12.4,1.9-24.9,3-37.4,3.3
			c-12.5-0.3-25-1.4-37.4-3.3c-9.4,3.6-12.7,9.2-13.7,16.7l0,0L37.8,93.64l-1.1,13.2c5.6,3,11.8,4.6,18.2,4.6l4.7-21.1h15.6
			l2.7,24.3c4,0.6,8,1,12.1,1.1C94.1,115.64,98.1,115.24,102.1,114.64z"/>
	</g>
</g>
</svg>
