<svg version="1.1" id="Layer_1" xmlns="http://www.w3.org/2000/svg" x="0" y="0" viewBox="0 0 180 180" style="enable-background:new 0 0 180 180" xml:space="preserve"><defs><style>.b{fill:#1a1a1a}.c,.d{fill:#fff}.e{opacity:.2}</style></defs><path class="d" d="M126.62 132.18s-15.24-7.59-15.24-39.89l-21.37-23.8-21.37 23.8c0 32.31-15.24 39.89-15.24 39.89h73.22Z"/><path class="e" d="M126.62 132.18s-15.24-7.59-15.24-39.89L99.75 79.34l-20.48 1.11-10.64 11.84c0 13.17-2.53 22.23-5.53 28.34s4.75.9 8.66-.89c0 0 4.13 7.08 11.34 9.14 7.2 2.06 6.91 3.29 6.91 3.29h36.62Z"/><path class="b" d="M126.62 134.18H53.38c-.93 0-1.73-.64-1.95-1.54-.21-.9.22-1.83 1.06-2.25.13-.07 14.13-7.65 14.13-38.1 0-.49.18-.97.51-1.34l21.37-23.8c.76-.84 2.22-.84 2.98 0l21.37 23.8c.33.37.51.84.51 1.34 0 30.71 13.99 38.03 14.13 38.1.83.41 1.27 1.34 1.06 2.25-.21.9-1.02 1.54-1.95 1.54Zm-67.61-4h61.98c-4.78-5.02-11.46-15.82-11.61-37.12L90 71.49 70.62 93.06c-.16 21.3-6.84 32.11-11.61 37.12Z"/><circle class="d" cx="90" cy="79.44" r="27.89"/><path class="c e" d="M95.15 52.02c-1.67-.31-3.39-.48-5.15-.48-15.41 0-27.89 12.49-27.89 27.89 0 1.76.17 3.48.48 5.15 2.64-16.72 15.84-29.92 32.56-32.56Z"/><path class="e" d="M62.55 84.37c2.33 13.05 13.73 22.96 27.45 22.96 15.41 0 27.89-12.49 27.89-27.89 0-.43-.01-.86-.03-1.28 0-.09 0-.18-.01-.27-.02-.41-.05-.81-.09-1.22 0-.09-.02-.17-.03-.26-.04-.36-.08-.71-.13-1.06l-.03-.23c-.06-.38-.13-.75-.2-1.13-.02-.12-.05-.25-.08-.37-.08-.36-.16-.72-.25-1.07-.03-.12-.06-.24-.1-.36-.07-.26-.14-.52-.22-.78-.04-.15-.09-.29-.13-.44-.1-.31-.21-.62-.32-.93-.06-.17-.12-.33-.18-.5-.08-.2-.16-.41-.24-.61a24.595 24.595 0 0 0-.56-1.29c-.08-.18-.17-.36-.26-.54-.13-.26-.26-.53-.4-.79-.22 4.76-1.33 9.29-3.15 13.43-6.12.83-11.2 4.93-13.43 10.48-2.39-1.3-5.14-2.03-8.05-2.03-3.32 0-6.42.96-9.03 2.61-3.07-4.3-8.1-7.1-13.78-7.1-1.61 0-3.16.23-4.63.65Z"/><path class="b" d="M90 109.33c-16.48 0-29.89-13.41-29.89-29.89S73.52 49.55 90 49.55s29.89 13.41 29.89 29.89-13.41 29.89-29.89 29.89Zm0-55.79c-14.28 0-25.89 11.62-25.89 25.89S75.73 105.32 90 105.32s25.89-11.62 25.89-25.89S104.27 53.54 90 53.54Z"/><circle class="d" cx="117.89" cy="100.66" r="16.93"/><path class="c e" d="M121.02 84.01c-1.01-.19-2.06-.29-3.12-.29-9.35 0-16.94 7.58-16.94 16.94 0 1.07.1 2.11.29 3.12 1.6-10.15 9.62-18.17 19.77-19.77Z"/><path class="e" d="M103.04 92.52c3.09 3.58 7.66 5.85 12.76 5.85 6.42 0 11.99-3.58 14.84-8.86-3.1-3.55-7.66-5.79-12.75-5.79-6.41 0-11.98 3.56-14.86 8.8Zm29.8.18c-.55 12.16-10.59 21.86-22.89 21.86-.62 0-1.23-.03-1.83-.07 2.76 1.96 6.13 3.11 9.77 3.11 9.35 0 16.94-7.58 16.94-16.94 0-2.88-.72-5.59-1.99-7.96Z"/><path class="b" d="M117.89 119.59c-10.44 0-18.94-8.49-18.94-18.94s8.49-18.94 18.94-18.94 18.94 8.49 18.94 18.94-8.49 18.94-18.94 18.94Zm0-33.87c-8.24 0-14.94 6.7-14.94 14.94s6.7 14.94 14.94 14.94 14.94-6.7 14.94-14.94-6.7-14.94-14.94-14.94Z"/><circle class="d" cx="62.11" cy="100.66" r="16.93"/><path class="c e" d="M65.23 84.01c-1.01-.19-2.06-.29-3.12-.29-9.35 0-16.94 7.58-16.94 16.94 0 1.07.1 2.11.29 3.12 1.6-10.15 9.62-18.17 19.77-19.77Z"/><path class="e" d="M77.06 92.7c-.55 12.16-10.59 21.86-22.89 21.86-.62 0-1.23-.03-1.83-.07 2.76 1.96 6.13 3.11 9.77 3.11 9.35 0 16.94-7.58 16.94-16.94 0-2.88-.72-5.59-1.99-7.96Zm-14.95-8.98c-5.16 0-9.78 2.31-12.88 5.95 3.02 4.58 8.2 7.61 14.1 7.61 5.17 0 9.8-2.33 12.89-5.99-3.03-4.56-8.22-7.57-14.11-7.57Z"/><path class="b" d="M62.11 119.59c-10.44 0-18.94-8.49-18.94-18.94s8.49-18.94 18.94-18.94 18.94 8.49 18.94 18.94-8.49 18.94-18.94 18.94Zm0-33.87c-8.24 0-14.94 6.7-14.94 14.94s6.7 14.94 14.94 14.94 14.94-6.7 14.94-14.94-6.7-14.94-14.94-14.94Z"/><circle class="d" cx="90" cy="108.94" r="16.93"/><path class="e" d="M90 92c-5.73 0-10.79 2.85-13.85 7.2 3.05 4.38 8.11 7.24 13.85 7.24s10.8-2.87 13.85-7.24C100.79 94.85 95.73 92 90 92Zm14.95 8.98c-.55 12.16-10.59 21.86-22.89 21.86-.62 0-1.23-.03-1.83-.07 2.76 1.96 6.13 3.11 9.77 3.11 9.35 0 16.94-7.58 16.94-16.94 0-2.88-.72-5.59-1.99-7.96Z"/><path class="b" d="M90 127.87c-10.44 0-18.94-8.49-18.94-18.94S79.55 89.99 90 89.99s18.94 8.49 18.94 18.94-8.49 18.94-18.94 18.94ZM90 94c-8.24 0-14.94 6.7-14.94 14.94s6.7 14.94 14.94 14.94 14.94-6.7 14.94-14.94S98.24 94 90 94Z"/><circle class="d" cx="90" cy="56.08" r="27.89"/><path class="c e" d="M95.15 28.67c-1.67-.31-3.39-.48-5.15-.48-15.41 0-27.89 12.49-27.89 27.89 0 1.76.17 3.48.48 5.15 2.64-16.72 15.84-29.92 32.56-32.56Z"/><path class="e" d="M62.55 61.01C64.88 74.06 76.28 83.97 90 83.97c15.41 0 27.89-12.49 27.89-27.89 0-.43-.01-.86-.03-1.28 0-.09 0-.18-.01-.27-.02-.41-.05-.81-.09-1.22 0-.09-.02-.17-.03-.26-.04-.36-.08-.71-.13-1.06l-.03-.23c-.06-.38-.13-.75-.2-1.13-.02-.12-.05-.25-.08-.37-.08-.36-.16-.72-.25-1.07-.03-.12-.06-.24-.1-.36-.07-.26-.14-.52-.22-.78-.04-.15-.09-.29-.13-.44-.1-.31-.21-.62-.32-.93-.06-.17-.12-.33-.18-.5-.08-.2-.16-.41-.24-.61a24.595 24.595 0 0 0-.56-1.29c-.08-.18-.17-.36-.26-.54-.13-.26-.26-.53-.4-.79-.22 4.76-1.33 9.29-3.15 13.43-6.12.83-11.2 4.93-13.43 10.48-2.39-1.3-5.14-2.03-8.05-2.03-3.32 0-6.42.96-9.03 2.61-3.07-4.3-8.1-7.1-13.78-7.1-1.61 0-3.16.23-4.63.65Z"/><path class="b" d="M90 85.97c-16.48 0-29.89-13.41-29.89-29.89S73.52 26.19 90 26.19s29.89 13.41 29.89 29.89S106.48 85.97 90 85.97Zm0-55.79c-14.28 0-25.89 11.62-25.89 25.89S75.73 81.96 90 81.96s25.89-11.62 25.89-25.89S104.27 30.18 90 30.18Z"/><circle class="d" cx="117.89" cy="77.3" r="16.93"/><path class="c e" d="M121.02 60.66c-1.01-.19-2.06-.29-3.12-.29-9.35 0-16.94 7.58-16.94 16.94 0 1.07.1 2.11.29 3.12 1.6-10.15 9.62-18.17 19.77-19.77Z"/><path class="e" d="M132.84 69.34c-.55 12.16-10.59 21.86-22.89 21.86-.62 0-1.23-.03-1.83-.07 2.76 1.96 6.13 3.11 9.77 3.11 9.35 0 16.94-7.58 16.94-16.94 0-2.88-.72-5.59-1.99-7.96Z"/><path class="b" d="M117.89 96.24c-10.44 0-18.94-8.49-18.94-18.94s8.49-18.94 18.94-18.94 18.94 8.49 18.94 18.94-8.49 18.94-18.94 18.94Zm0-33.87c-8.24 0-14.94 6.7-14.94 14.94s6.7 14.94 14.94 14.94 14.94-6.7 14.94-14.94-6.7-14.94-14.94-14.94Z"/><circle class="d" cx="62.11" cy="77.3" r="16.93"/><path class="c e" d="M65.23 60.66c-1.01-.19-2.06-.29-3.12-.29-9.35 0-16.94 7.58-16.94 16.94 0 1.07.1 2.11.29 3.12 1.6-10.15 9.62-18.17 19.77-19.77Z"/><path class="e" d="M77.06 69.34C76.51 81.5 66.47 91.2 54.17 91.2c-.62 0-1.23-.03-1.83-.07 2.76 1.96 6.13 3.11 9.77 3.11 9.35 0 16.94-7.58 16.94-16.94 0-2.88-.72-5.59-1.99-7.96Z"/><path class="b" d="M62.11 96.24c-10.44 0-18.94-8.49-18.94-18.94s8.49-18.94 18.94-18.94 18.94 8.49 18.94 18.94-8.49 18.94-18.94 18.94Zm0-33.87c-8.24 0-14.94 6.7-14.94 14.94s6.7 14.94 14.94 14.94 14.94-6.7 14.94-14.94-6.7-14.94-14.94-14.94Z"/><circle class="d" cx="90" cy="85.58" r="16.93"/><path class="c e" d="M93.12 68.94c-1.01-.19-2.06-.29-3.12-.29-9.35 0-16.94 7.58-16.94 16.94 0 1.07.1 2.11.29 3.12 1.6-10.15 9.62-18.17 19.77-19.77Z"/><path class="e" d="M104.95 77.62c-.55 12.16-10.59 21.86-22.89 21.86-.62 0-1.23-.03-1.83-.07 2.76 1.96 6.13 3.11 9.77 3.11 9.35 0 16.94-7.58 16.94-16.94 0-2.88-.72-5.59-1.99-7.96Z"/><path class="b" d="M90 104.52c-10.44 0-18.94-8.49-18.94-18.93S79.55 66.65 90 66.65s18.94 8.49 18.94 18.94-8.49 18.93-18.94 18.93Zm0-33.87c-8.24 0-14.94 6.7-14.94 14.94s6.7 14.93 14.94 14.93 14.94-6.7 14.94-14.93S98.24 70.65 90 70.65Z"/><path class="c e" d="M125.58 143.77c-9.49-1.85-22.93-2.2-35.58-1.97-12.65-.23-26.09.12-35.58 1.97-9.29 2.27-12.15 7.16-13.03 13.28 0 0 7.88-7.33 48.61-7.33s48.6 7.33 48.61 7.33c-.87-6.12-3.74-11.01-13.03-13.28Z"/><path class="b" d="M138.6 172H41.4c-1.1 0-2-.9-2-2v-3.45c-.03-10.29-.06-20.94 14.8-24.71 23.42-4.73 69.35-.25 71.3-.05.1 0 .2.03.29.05 14.86 3.77 14.83 14.42 14.81 24.71V170c0 1.1-.9 2-2 2Zm-95.2-4h93.2v-1.46c.03-10.3.05-17.76-11.64-20.79-2.95-.28-47.77-4.48-69.86-.02-11.74 2.98-11.72 10.46-11.69 20.8v1.46Z"/><path class="d" d="M126.62 132.18s-.64 8.72-7.73 13.45H61.11c-7.08-4.73-7.73-13.45-7.73-13.45h73.24Z"/><path class="e" d="M118.89 145.63c7.08-4.73 7.73-13.45 7.73-13.45H90s2.72 6.77-7.29 9.51c-2.25.62-3.54 2.07-4.2 3.94h40.37Z"/><path class="b" d="M118.89 147.63H61.11c-.4 0-.78-.12-1.11-.34-7.8-5.21-8.58-14.57-8.61-14.96-.04-.55.15-1.1.53-1.51.38-.41.91-.64 1.47-.64h73.23c.56 0 1.09.23 1.47.64.38.41.57.95.53 1.51-.03.4-.81 9.75-8.61 14.96-.33.22-.72.34-1.11.34Zm-57.15-4h56.52c3.81-2.79 5.36-6.94 5.98-9.45H55.77c.62 2.51 2.18 6.67 5.97 9.45Z"/><path class="d" d="M41.4 166.55V170h97.2v-3.45c.03-10.36.05-19.38-13.3-22.77 0 0-47.31-4.71-70.61 0-13.35 3.39-13.33 12.41-13.3 22.77Z"/><path class="c e" d="M124.43 143.73c-9.18-1.85-22.19-2.21-34.43-1.98-12.24-.23-25.24.12-34.43 1.98-8.99 2.28-11.76 7.19-12.6 13.33 0 0 7.63-7.36 47.03-7.36s47.02 7.35 47.03 7.36c-.85-6.14-3.61-11.04-12.6-13.33Z"/><path class="b" d="M138.6 172H41.4c-1.1 0-2-.9-2-2v-3.45c-.03-10.29-.06-20.94 14.8-24.71 23.42-4.73 69.35-.25 71.3-.05.1 0 .2.03.29.05 14.86 3.77 14.83 14.42 14.81 24.71V170c0 1.1-.9 2-2 2Zm-95.2-4h93.2v-1.46c.03-10.3.05-17.76-11.64-20.79-2.95-.28-47.77-4.48-69.87-.02-11.74 2.98-11.72 10.46-11.69 20.8v1.46Z"/></svg>