<svg version="1.1" id="Layer_1" xmlns="http://www.w3.org/2000/svg" x="0" y="0" viewBox="0 0 180 180" style="enable-background:new 0 0 180 180" xml:space="preserve"><style>.st1{fill:#bf3b43}</style><g id="camel_rider_alpha"><path style="fill:none" d="M0 0h180v180H0z"/><g id="camel_4_"><path class="st1" d="M166.7 161.9h-63.3l-1.8-3c-14.1-23-22.2-49.3-24.1-77.9-.1-.8 0-1.6 0-2.5 0-1.8.1-2.4-5.5-4-3-.9-5.7-1.4-8-1.8-5.9-1.1-11.5-2.2-15.6-7.5l-10.8 3.2c-4.6 1.4-8.2 2.1-11.1 2.1-6.8 0-8.9-4-9.5-5.8-1.2-3.4-.1-7.3 3.2-11.6-.1-.1-.1-.2-.2-.3-1.9-2.9-2.4-6.6-1.4-10.8 2.3-9.8 11.8-12.1 17.2-12.6 3.1-4.5 6.7-7.3 13.4-7.3 2.5 0 5.3.4 8.8.8l.7.1c2 .3 4.2.6 6.5 1 4.9.8 9.9 1.6 14.4 1.6 2.8 0 5.1-.3 6.9-1 3.3-1.1 7.2-1.7 11.7-1.7 4.2 0 8.1.5 10.6 1 4.7-3.4 10.9-7 15.7-7 2.1 0 4.1.6 5.6 1.9 3.7 2.9 4.5 8.4 4.6 12.5.1 5.3-1.3 12.4-5 17.2 1.4 6.6 9.8 28.2 23.1 46.5.4.6 12.7 17 13.3 17.7l.7.9v48.3h-.1z"/><path d="M93.7 47.6c5.2 1 10.9-2.8 12.1-8l-20.4-3.9c-.9 5.3 3.1 10.9 8.3 11.9zm17.6-9.4c3.2 1.3 5.7 4 6.7 7.2 3.7-3.8 5-9.9 3.2-14.9-3.9 1.7-7.3 4.3-9.9 7.7z"/><path d="M166.1 112.7c-.6-.7-12.9-17.1-13.3-17.7-13.3-18.3-21.7-39.9-23.1-46.5l1.2-1.8c.2-.4.5-.9.7-1.3.1-.3.3-.6.4-.9 0-.1.1-.2.1-.3 1.9-4.2 2.6-9 2.5-13-.1-4.1-.9-9.6-4.6-12.5-1.5-1.3-3.5-1.9-5.6-1.9-4.8 0-11 3.6-15.7 7-2.5-.5-6.4-1-10.6-1-4.5 0-8.4.6-11.7 1.7-1.8.7-4.1 1-6.9 1-4.5 0-9.5-.8-14.4-1.6-2.3-.4-4.5-.7-6.5-1H58c-3.5-.4-6.3-.8-8.8-.8-6.7 0-10.3 2.8-13.4 7.3-5.4.5-14.9 2.8-17.2 12.6-1 4.2-.5 7.9 1.4 10.8.1.1.1.2.2.3-3.3 4.3-4.4 8.2-3.2 11.6.6 1.8 2.7 5.8 9.5 5.8 2.9 0 6.5-.7 11.1-2.1l10.8-3.2c4.1 5.3 9.7 6.4 15.6 7.5 1.5.3 3.2.6 5 1v.1l3.1.8c.8.2 1.7.5 2.5.7 2.9 1 2.9 1.7 2.9 3.2 0 .9-.1 1.7 0 2.5 1.9 28.6 10 54.9 24.1 77.9l1.8 3h63.4v-48.3l-.7-.9zM107 155.5c-13.5-22.1-21.3-47.3-23.2-74.9v-2.3c4.6 1.6 8.2 2.9 8.3 2.9l3 1.1 2.2-6-3-1.1c-.5-.2-12.5-4.6-20.5-6.8l-3.1-.8v.1c-2-.5-3.9-.8-5.6-1.2-6-1.2-10-2-12.7-6.6l-1.3-2.2-15.5 4.6c-3.9 1.2-7 1.8-9.2 1.8-1.4 0-3.1-.3-3.5-1.5-.4-1.2.4-3.8 3.7-7.4h.7c6.5 0 15.4-1.3 15.7-1.4l3.2-.5-.9-6.3-3.2.5c-.1 0-9.7 1.4-15.7 1.3H25c-.7-1.4-.8-3.2-.3-5.4 1.3-5.6 7-7.2 11.2-7.7 1.9 1.7 4.4 2.9 7.1 3 2.7.1 5.4-.8 7.4-2.5 1-.8 1.9-2.1 1.5-3.4-.2-.7-10.4-.2-11.1 1l-.5.2c2.8-4.3 4.8-5.6 8.8-5.6 2.1 0 4.7.4 8 .8l.7.1c2 .3 4.1.6 6.3 1 5.1.8 10.3 1.7 15.4 1.7 3.5 0 6.5-.4 9-1.3 2.7-.9 5.9-1.4 9.6-1.4 4.6 0 8.7.7 10.8 1.1l1.4.3 1.1-.8c5.4-4 10.4-6.5 13-6.5.7 0 1.2.2 1.6.5 1.3 1 2.2 3.9 2.2 7.6.1 4.6-1.2 10.8-4.3 13.9l-1 1 .1 1.4c.4 5.1 5.4 30.2 20.6 51 .4.5 10 13.4 12.7 16.9v39.8H107z"/></g><g id="camel_5_"><path class="st1" d="M166.7 161.9h-47.5l-1.4-2.2c-10.6-17.3-16.6-36.9-18-58.4v-1.9c0-1.3 0-1.8-4.1-3-2.2-.6-4.2-1-6-1.4-4.4-.9-8.6-1.7-11.7-5.6l-8.1 2.4c-3.5 1-6.2 1.5-8.3 1.5-5.1 0-6.7-3-7.2-4.3-.9-2.6-.1-5.5 2.4-8.7-.1-.1-.1-.2-.2-.2-1.5-2.2-1.8-4.9-1-8.1 1.8-7.3 8.8-9 12.9-9.4 2.3-3.3 5-5.5 10.1-5.5 1.8 0 3.9.3 6.6.6l.5.1c1.5.2 3.2.5 4.9.7 3.7.6 7.4 1.2 10.8 1.2 2.1 0 3.8-.2 5.2-.7 2.5-.9 5.4-1.3 8.7-1.3 3.2 0 6.1.4 8 .7 3.5-2.5 8.2-5.2 11.8-5.2 1.6 0 3 .5 4.2 1.4 2.8 2.2 3.4 6.3 3.4 9.4 0 4-.9 9.3-3.8 12.9 1.1 5 7.3 21.2 17.4 34.9.3.4 9.5 12.7 10 13.3l.5.6v36.2h-.1z"/><path d="M111.9 76.2c3.9.7 8.2-2.1 9.1-6l-15.3-2.9c-.7 3.9 2.3 8.1 6.2 8.9zm13.3-7c2.3 1 4.2 3 5 5.4 2.8-2.9 3.8-7.4 2.4-11.2-3 1.2-5.5 3.2-7.4 5.8z"/><path d="M166.3 125.1c-.5-.6-9.7-12.9-10-13.3-10.1-13.6-16.2-29.7-17.4-34.8.7-.9 1.3-1.9 1.8-3 1.5-3.2 2-7 2-10 0-3.1-.6-7.2-3.4-9.4-1.2-.9-2.6-1.4-4.2-1.4-3.6 0-8.3 2.7-11.8 5.2-1.9-.3-4.8-.7-8-.7-3.3 0-6.2.4-8.7 1.3-1.4.5-3.1.7-5.2.7-3.4 0-7.1-.6-10.8-1.2-1.7-.2-3.4-.5-4.9-.7l-.5-.1c-2.7-.3-4.8-.6-6.6-.6-5.1 0-7.8 2.2-10.1 5.5-4.1.4-11.1 2.1-12.9 9.4-.8 3.2-.5 5.9 1 8.1.1 0 .1.1.2.2-2.5 3.2-3.3 6.1-2.4 8.7.5 1.3 2.1 4.3 7.2 4.3 2.1 0 4.8-.5 8.3-1.5l8.1-2.4c3.1 3.9 7.3 4.7 11.7 5.6 1.2.3 2.4.5 3.7.8v.1l2.3.6c.6.2 1.3.4 2 .6 2 .8 2.1 1.3 2.1 2.3v1.9c1.4 21.5 7.4 41.1 18 58.4l1.4 2.2h47.6v-36.2l-.5-.6zm-44.4 32c-.6-1-1.2-2.1-1.8-3.1-9-15.8-14.2-33.7-15.7-53.2v-1.6c3.5 1.2 6.2 2.2 6.3 2.2l2.3.8 1.7-4.4-2.3-.8c-.4-.2-7.4-2.7-13.1-4.5-.7-.3-1.5-.6-2.5-.8-2.4-.7-4.5-1.1-6.4-1.5-4.5-.9-7.5-1.4-9.5-4.9l-1-1.6-11.6 3.5c-3 .9-5.3 1.3-6.9 1.3-1 0-2.3-.2-2.6-1.1 0-.1-.1-.2-.1-.4 0-1 .7-2.7 2.9-5.1h.6c4.8 0 11.5-1 11.9-1.1l2.4-.3-.7-4.7-2.4.3c-.1.1-7.3 1.1-11.8 1l-1.3-.1c-.2-.5-.4-1-.4-1.6 0-.7 0-1.5.2-2.4 1.1-4.2 5.4-5.4 8.5-5.7 1.4 1.4 3.4 2.2 5.3 2.3 2 .1 4.1-.6 5.6-1.9.7-.7 1.4-1.6 1.1-2.6-.1-.6-7.8-.2-8.3.7l-.4.2c2-3.2 3.5-4.1 6.6-4.1 1.6 0 3.5.3 6 .6l.5.1c1.4.2 3 .4 4.7.7 3.9.6 7.8 1.3 11.6 1.3 2.7 0 4.9-.3 6.8-1 2-.7 4.4-1 7.2-1 3.4 0 6.5.5 8.1.8l1 .2.9-.6c4.1-3 7.9-4.9 9.8-4.9.5 0 .9.1 1.2.3.9.8 1.6 2.9 1.6 5.7.1 3.6-.9 8-3.2 10.4l-.8.8.1 1.1c.3 3.8 4 22.6 15.4 38.2.3.4 7.5 10 9.5 12.7v29.8h-37z"/></g></g></svg>