<svg version="1.1" id="Layer_1" xmlns="http://www.w3.org/2000/svg" x="0" y="0" viewBox="0 0 180 180" style="enable-background:new 0 0 180 180" xml:space="preserve"><style>.st1{fill:#bf3b43}.st2{opacity:.2}.st3{fill:#1a1a1a}</style><g id="camel_neo"><path style="fill:none" d="M0 0h180v180H0z"/><g id="camel"><path class="st1" d="M22.4 63.4c4.4.8 10-.8 11.4-1.2h.2-.2c-1.4.4-7 2-11.4 1.2-3.4-.6-6-2.6-4.8-7.8 1.8-8 13.4-7.2 13.4-7.2 4.4-7.6 6.6-7.2 17-5.8 8.6 1.2 20 4.2 28.2 1.2 8.2-2.8 20 0 20 0s11.4-8.8 14.6-6.4c3.2 2.6 2.8 16-2.6 20.4-2 1.6 7.8 29.4 23.8 50.2v50.4H93C83 142 73.8 119.2 71.8 89.6c-.2-3.6 1.8-8-9.2-11-11-3.2-17-1.6-20.6-9.8 0 0-7 2-14.2 4.2-20.4 6.2-9.2-6.6-5.4-9.6z"/><path d="M22.4 63.4h.4c-2.8 4.2-3.2 8.4 10.4 4.2 7.2-2.2 14.2-4.2 14.2-4.2 3.4 8.2 9.4 6.6 20.6 9.8 11 3.2 8.8 7.4 9.2 11v.2c3.6 1.2 5.6 2.2 5.6 2.2s1.6 4.6.4 5.8c-1.4 1.4-2.8 0-5.4-1.6 3.2 27.2 15 52.4 24.2 67.4h-9C83 141.8 73.8 119 71.8 89.4V88c-.2 0-.2 0-.4-.2l-4-6.2c1 .2 2 .4 3 .8-1.2-1.4-3.6-2.8-7.8-4-11-3.2-17-1.6-20.6-9.8 0 0-7 2-14.2 4.2-20.4 6.4-9.2-6.4-5.4-9.4z" class="st2"/><g class="st2"><path class="st1" d="M48 42.4c8.6 1.2 20 4.2 28.2 1.2 8.2-2.8 20 0 20 0s11.4-8.8 14.6-6.4c3.2 2.6 2.8 16-2.6 20.4-2 1.6 7.8 29.4 23.8 50.2v11.6c-19.2-21.2-31.2-54.8-29-56.6 5.4-4.6 8.4-20.6 5.2-23.2C105 37 93.6 46 93.6 46s-11.8-2.8-20 0-19.6-.2-28.2-1.2c-5.6-.8-11.4 1.4-13.8 2.4 4-6.4 6.4-6 16.4-4.8z"/></g><g class="st2"><path class="st1" d="M25.8 51s-4.2 2.4-8 4c2-5.8 9.2-6.6 12.2-6.6-1.4 1-2.6 0-4.2 2.6z"/></g><path d="M92 52c-1 4.8-6.4 8.2-11.2 7.2-4.8-1-8.4-6-7.6-11L92 52zm14.2-8.4c1.6 4.6.4 10.2-3 13.6-1-3-3.2-5.4-6.2-6.6 2.4-3 5.6-5.4 9.2-7zm-73.8 3.2c.6-1 10-1.6 10.2-1 .4 1.2-.4 2.4-1.4 3.2-1.8 1.6-4.4 2.4-6.8 2.4-2.4-.2-4.8-1.2-6.6-2.8l4.6-1.8zm48 42.6c-.4 0-.6 0-1-.2 0 0-4.4-2.4-11.2-4.4-1-.2-1.6-1.4-1.4-2.4s1.4-1.6 2.4-1.4c7.4 2 12 4.6 12.2 4.8 1 .6 1.2 1.8.8 2.8-.4.4-1 .8-1.8.8zM20 65.4c-1 0-2 0-3-.2S15.2 64 15.2 63c.2-1 1.2-1.8 2.2-1.8 5 .6 16.2-1 16.2-1 1-.2 2.2.6 2.2 1.6.2 1-.6 2.2-1.6 2.2-.2.2-8.2 1.4-14.2 1.4z"/><path d="M109.2 37c.6 0 1.2.2 1.6.4 3.2 2.6 2.8 16-2.6 20.4-2 1.6 7.8 29.4 23.8 50.2v50.4H93C83 142 73.8 119.2 71.8 89.6c-.2-3.6 1.8-8-9.2-11-11-3.2-17-1.6-20.6-9.8 0 0-7 2-14.2 4.2-3.8 1.2-6.6 1.6-8.6 1.6-8 0 0-8.8 3.2-11.2-3.4-.6-6-2.6-4.8-7.8 1.6-6.8 10.2-7.2 12.8-7.2h.6c3-5.2 4.8-6.6 9-6.6 2 0 4.6.4 8 .8 6 .8 13.2 2.4 20 2.4 3 0 5.8-.4 8.2-1.2 2.8-1 5.8-1.2 8.8-1.2 6 0 11.2 1.2 11.2 1.2s8.8-6.8 13-6.8zm0-4c-4.4 0-10.8 4.2-14 6.6-2.2-.4-6-1-10.2-1-3.8 0-7.2.6-10.2 1.4-1.8.6-4.2 1-7 1-4.4 0-9-.8-13.6-1.6-2-.4-4-.6-6-1h-.6c-3.2-.4-5.8-.8-7.8-.8-5.6 0-8.4 2.4-11.4 6.6-8 .4-13.6 4.2-15 10.2-.8 3.4-.4 6.2 1 8.6.2.4.6.8 1 1.2-2.4 2.8-4.8 6.6-3.6 10 .6 1.6 2.2 4.2 7.2 4.2 2.4 0 5.6-.6 9.6-1.8l11.2-3.4c3.4 5.2 8.4 6 14 7.2 2.2.4 4.8 1 7.6 1.8 6.4 1.8 6.4 3 6.2 5.4v2.2c1.8 26 9 49.8 21.8 70.6.8 1.2 2 2 3.4 2H132c2.2 0 4-1.8 4-4v-50.2c0-.8-.2-1.8-.8-2.4-14-18.4-22.2-40.4-23-46 3.6-4 4.8-10.4 4.8-15.2 0-3.4-.6-8-3.6-10.2-1-.8-2.2-1.4-4.2-1.4z"/></g><g id="base_8_"><path class="st1" d="M44.6 160.6V157c0-10.8 0-20.2 13.8-23.8 1.6-.4 3.4-.8 5.4-1 8.8-1.2 19.2-1.6 31.6-1.6s22.8.6 31.6 1.6c2 .2 3.8.6 5.6 1 13.8 3.6 13.6 13 13.6 23.8v3.6H44.6z"/><path class="st3" d="M148 162.6H42.6V157c0-10.2 0-20.8 13.4-25.2l2-.6c1.6-.4 3.6-.8 5.6-1 9-1.2 19.4-1.6 31.8-1.6 12.6 0 23 .6 31.8 1.6 2 .2 4 .6 5.8 1l2 .4c13.4 4.4 13.2 15 13.2 25.2l-.2 5.8zm-101.4-4H144V157c0-10.8 0-18.6-12.2-21.8l-.6-.2c-1.4-.4-3-.6-4.6-.8-8.8-1.2-19-1.6-31.4-1.6s-22.6.6-31.4 1.6c-1.6.2-3.2.4-4.6.8l-.6.2c-12.4 3.2-12.2 11-12.2 21.8l.2 1.6z"/><path d="M95.4 138.4c-43 0-47.6 4.8-47.6 4.8h-.6c2-10.2 24.4-11.2 24.4-11.2h47s23.4.8 24.6 11.2h-.6c.2 0-4.2-4.8-47.2-4.8z" style="opacity:.2;fill:#bf3b43;enable-background:new"/><path class="st3" d="M148 162.6H42.6V157c0-10.2 0-20.8 13.4-25.2l2-.6c1.6-.4 3.6-.8 5.6-1 9-1.2 19.4-1.6 31.8-1.6 12.6 0 23 .6 31.8 1.6 2 .2 4 .6 5.8 1l2 .4c13.4 4.4 13.2 15 13.2 25.2l-.2 5.8zm-101.4-4H144V157c0-10.8 0-18.6-12.2-21.8l-.6-.2c-1.4-.4-3-.6-4.6-.8-8.8-1.2-19-1.6-31.4-1.6s-22.6.6-31.4 1.6c-1.6.2-3.2.4-4.6.8l-.6.2c-12.4 3.2-12.2 11-12.2 21.8l.2 1.6z"/></g></g></svg>