<svg version="1.1" id="Layer_1" xmlns="http://www.w3.org/2000/svg" x="0" y="0" viewBox="0 0 180 180" style="enable-background:new 0 0 180 180" xml:space="preserve"><defs><style>.cls-1{fill:none}</style></defs><path class="cls-1" d="M0 0h180v180H0z"/><path class="cls-1" d="M0 0h180v180H0z"/><path d="M140 158.15H40l1.6-15.86 13.8-10.18 4.48-61L47 61.86l-1.31-22.79h16v12.69h20.39V39.07h15.84v12.69h20.44V39.07h16L133 61.86l-12.9 9.25 4.48 61 13.78 10.18Z" style="fill:#bf3b43"/><path d="m142.48 139.86-13.63-10.12-4.29-56.51 12.78-9.18 1.45-29.24H114v12.6h-11.74v-12.6H77.74v12.6H66v-12.6H41.2l1.46 29.24 12.78 9.18-4.29 56.51-13.64 10.12L35 162.5h110ZM48.92 60.79l-1.11-19.72h11.83v12.69h24.44V41.07h11.84v12.69h24.44V41.07h11.83l-1.11 19.72-13 9.35H62Zm12.57 15.69h57l3.7 50.35h-64.4ZM90 156.15H42.23l1.29-12.77 13.8-10.21h65.36l13.8 10.21 1.29 12.77Z"/></svg>