<svg xmlns="http://www.w3.org/2000/svg" viewBox="0 0 180 180" style="enable-background:new 0 0 180 180" xml:space="preserve"><path d="M43.2 159.6h94.2c.5-6.1-3.6-11.7-12.3-17-16.5-12.6-23.9-30-25.8-51.2h-18c-1.8 21.2-9.3 38.6-25.7 51.2-8.8 5.4-12.9 10.9-12.4 17z" style="fill:#bf3b43"/><path d="M125.3 135.2c-13.2-10.2-18.7-25.2-21.4-41.1h-5.6c1.7 19.3 8.6 35.1 23.6 46.6 8 4.9 11.7 10 11.3 15.6H46.8c-.5-5.7 3.2-10.8 11.3-15.7 15-11.4 21.8-27.3 23.6-46.6h-5.6c-2.8 16-8.1 30.9-21.4 41.1-9.2 5.9-14.8 11.9-14.3 21v6.4h99.2v-6.4c.3-9.1-5.3-15.1-14.3-20.9z" style="fill:#040000"/><path transform="rotate(-71.21 113.982 63.123)" style="fill:#bf3b43;stroke:#231815;stroke-width:5;stroke-miterlimit:9.9999" d="M92.2 56h43.5v14.3H92.2z"/><path transform="rotate(-18.071 63.558 63.26)" style="fill:#bf3b43;stroke:#231815;stroke-width:4.9966;stroke-miterlimit:9.9933" d="M56.4 41.5h14.3V85H56.4z"/><path d="M74.7 38.7h28.6v43.5H74.7zM58.5 82.3h60v12.2h-60z" style="fill:#bf3b43;stroke:#231815;stroke-width:5;stroke-miterlimit:10"/></svg>