
<svg version="1.1" id="Layer_1" xmlns="http://www.w3.org/2000/svg" xmlns:xlink="http://www.w3.org/1999/xlink" x="0px" y="0px"
   viewBox="0 0 180 180" style="enable-background:new 0 0 180 180;" xml:space="preserve">
<defs>
<style>
.cls-1{fill:none;}.cls-2{fill:#BF3B43;}</style>
</defs>
<title>
b</title>
<rect class="cls-1" width="180" height="180"/>
<path class="cls-2" d="M64.19,110.61l.88.84,1.15-.4A70.11,70.11,0,0,1,90,107.56a70.94,70.94,0,0,1,23.76,3.49l1.15.4.89-.84c11.3-10.77,15.58-21.42,12.71-31.72-3.59-11.58-15.84-24-37.44-38L90,40.14l-1.09.71C67.19,54.94,55,67.39,51.47,78.91v0C48.5,89.18,52.78,99.84,64.19,110.61Z"/>
<path class="cls-2" d="M78.08,134a10.43,10.43,0,0,0-.45,1.54c-4.51,10.08-10.5,10.6-19.79,10.6H37.26c-6.84,0-12.29,7.16-12.29,10v2H63.33c8.19,0,23.51-8,23.61-23.42v-2H78.56Z"/>
<path class="cls-2" d="M113.75,113.8l-1.33-.45A64.81,64.81,0,0,0,90,110a64.66,64.66,0,0,0-22.47,3.36l-1.32.46,0,1.39a44.28,44.28,0,0,1-2.4,12.64L63,130.45h54.08l-.9-2.64a42.59,42.59,0,0,1-2.38-12.61Z"/>
<path class="cls-2" d="M142.74,146.18H122.16c-9.58,0-15.28-.5-19.8-10.6a9.2,9.2,0,0,0-.44-1.53l-.47-1.34H93.06v2c0,15.17,15.59,23.44,23.61,23.44H155v-2C155,153.42,149.45,146.18,142.74,146.18Z"/>
<rect class="cls-1" width="180" height="180"/>
<path d="M142.48,141.83H121c-5.92,0-9.86.35-13.63-5.74-.46-.74-.72-1.21-.82-1.38H124.3a42.15,42.15,0,0,1-6.17-19.63c6.51-6.78,11.15-13.21,13.89-19.21,5.49-11.92,0-24.7-9.69-35.42-4.89-5.32-13.72-12.35-26.67-21.1,1.8-1.29,6.43-3.68,6.43-9.86C102.09,22.89,96.6,18,90,18c-6.78,0-12.1,4.89-12.1,11.49,0,6.18,4.47,8.57,6.44,9.86Q64.91,52.48,57.58,60.45A47.65,47.65,0,0,0,47.46,76.74c-4.8,13.64,1.37,24.7,14.41,38.34a42.27,42.27,0,0,1-6.17,19.63H73.41c-.1.17-.37.64-.82,1.38-3.86,6.09-7.8,5.74-13.63,5.74H37.51c-8.83,0-17.75,7.29-17.75,20.67H62.21c14,0,27.79-11.23,27.79-24.27,0,13,13.72,24.27,27.78,24.27h42.46C160.24,149.12,151.14,141.83,142.48,141.83ZM53.38,79.49C56.72,68.42,69,56.16,90,42.53c21,13.63,33.19,25.89,36.62,37q4,14.27-12.18,29.67A72.32,72.32,0,0,0,90,105.56a71.63,71.63,0,0,0-24.44,3.6C54.66,98.87,50.63,89,53.38,79.49Zm9.95,76.66H27c0-1.45,4.37-8,10.29-8H57.84c9.35,0,16.72-.34,21.87-12.35-.26.43-.17.08.25-1.12h5C84.85,148.43,70.87,156.15,63.33,156.15Zm2.4-27.7a47,47,0,0,0,2.49-13.2A62.57,62.57,0,0,1,90,112a63.22,63.22,0,0,1,21.78,3.26,44,44,0,0,0,2.49,13.2H65.73Zm50.94,27.7c-7.55,0-21.61-7.72-21.61-21.44h5c.43,1.2.52,1.55.26,1.12,5.15,12,12.35,12.35,21.87,12.35h20.58c5.83,0,10.29,6.52,10.29,8Z"/>
<path class="cls-2" d="M90,24.6c3.68,0,5.57,1.55,5.49,4.72C95.57,33.09,93.77,35,90,35s-5.66-1.89-5.49-5.66C84.43,26.15,86.23,24.6,90,24.6Z"/>
<polygon points="94.03 96.38 94.03 82.23 102.18 82.23 102.18 74.6 94.03 74.6 94.03 65.68 85.97 65.68 85.97 74.6 77.82 74.6 77.82 82.23 85.97 82.23 85.97 96.38 94.03 96.38"/>
</svg>
