<svg version="1.1" id="Layer_1" xmlns="http://www.w3.org/2000/svg" x="0" y="0" viewBox="0 0 180 180" style="enable-background:new 0 0 180 180" xml:space="preserve"><style>.st0{fill:#bf3b43}.st1{fill:#040000}</style><g id="Layer_2"><g id="Layer_1-2"><path class="st0" d="m112.3 99.4 3.3 45.1 10.2 7.5 1.2 11.7H53l1.2-11.7 10.2-7.5 3.3-45.1"/><path class="st1" d="m128.8 149.2-10.1-7.5-3.2-41.8-5-2.3H69.3l-.1-.1-5.2 2 .4.3-3.2 41.8-10.1 7.5-1.9 16.7h81.3l-1.7-16.6zm-59.9-46.9H111l2.7 37.2H66.2l2.7-37.2zM90 161.2H54.7l1-9.4 10.2-7.5h48.3l10.2 7.5 1 9.4H90z"/><path class="st0" d="m70.5 83 .7.6.9-.3c5.7-1.9 11.6-2.7 17.6-2.6 6-.1 11.9.7 17.6 2.6l.9.3.7-.6c8.4-8 11.5-15.8 9.4-23.4-2.7-8.6-11.7-17.7-27.7-28.1l-.8-.6-.8.5C72.7 41.8 63.7 51 61.1 59.5c-2.2 7.6 1 15.5 9.4 23.5z"/><path class="st0" d="m107.1 85.3-1-.3c-5.3-1.8-10.9-2.6-16.6-2.5-5.6-.1-11.2.7-16.5 2.5l-1 .3v1c-.1 3.2-.7 6.3-1.8 9.3l-.6 1.9h39.9l-.7-2c-1.1-3-1.6-6.1-1.8-9.3l.1-.9zM89.6 19.4c2.7 0 4.1 1.1 4.1 3.5.1 2.8-1.3 4.2-4.1 4.2s-4.2-1.4-4.1-4.2c0-2.4 1.3-3.5 4.1-3.5z"/><path class="st1" d="M92.6 72.4V62h6v-5.7h-6v-6.6h-6v6.6h-6V62h6v10.4z"/><path class="st1" d="M113.4 45.4c-3.6-3.9-10.1-9.1-19.7-15.6 1.3-1 4.8-2.7 4.8-7.3 0-4.9-4-8.5-8.9-8.5-5 0-8.9 3.6-8.9 8.5 0 4.6 3.3 6.3 4.8 7.3-9.6 6.5-16.2 11.7-19.8 15.6-3.3 3.5-5.8 7.6-7.5 12-3.6 10.1 1 18.3 10.7 28.3-.3 5.1-1.9 10.1-4.6 14.5h50.6c-2.7-4.4-4.3-9.4-4.6-14.5 4.8-5 8.2-9.8 10.3-14.2 4-8.6 0-18.1-7.2-26.1zM71.6 95.7c1.1-3.1 1.7-6.4 1.8-9.8 5.2-1.7 10.6-2.6 16.1-2.4 5.5-.1 10.9.7 16.1 2.4.1 3.3.7 6.6 1.8 9.8H71.6zm36-14.2c-5.8-1.9-11.9-2.8-18.1-2.7-6.1-.2-12.2.7-18.1 2.7-8.1-7.6-11-14.9-9-21.9 2.5-8.2 11.5-17.2 27.1-27.4C105 42.3 114 51.3 116.6 59.6c2 7-1 14.3-9 21.9z"/></g></g></svg>