<svg version="1.1" id="Layer_1" xmlns="http://www.w3.org/2000/svg" x="0" y="0" viewBox="0 0 180 180" style="enable-background:new 0 0 180 180" xml:space="preserve"><style>.st1{fill:#bf3b43}.st2{fill:#1a1a1a}</style><path style="fill:none" d="M0 0h180v180H0z"/><path class="st1" d="M39.1 68.4c-.8 3.2-1.2 6.4-1.3 9.7-.2 8.3 3.3 17 4.6 27.3 2.1 16.6-6.6 31.2-8.4 36.7-1.5 4.7-1.8 18.8-1.8 18.8h101.9l-1-10.2-8.4-8.7-.8-7.5c-.4-3.2-2.5-15.8-8.5-26.8l-25-39.3H39.1z"/><path class="st2" d="M30.6 161c0-.6.3-14.3 1.9-19.2.4-1.2 1-2.7 1.8-4.5 3.1-7 8.2-18.7 6.5-31.6-.5-4.2-1.4-8.1-2.3-11.9-1.2-5.4-2.4-10.6-2.3-15.6.1-3.4.6-6.7 1.3-10l.3-1.2h53.4l25.5 40.1c6.6 12 8.5 25.8 8.7 27.4l.7 6.9 8.4 8.7 1.2 12.3h-105l-.1-1.4zm101.1-9.6-8.4-8.7-.8-7.9c-.2-1.5-2-14.7-8.3-26.2L89.6 70H40.2c-.6 2.8-.9 5.5-1 8.3-.1 4.6 1 9.6 2.2 14.8.9 3.9 1.8 7.9 2.4 12.2 1.8 13.6-3.5 25.8-6.7 33.1-.7 1.7-1.4 3.2-1.7 4.2-1.2 3.6-1.6 13.1-1.7 16.8h98.7l-.7-8z"/><path class="st1" d="M81.9 72.2s-1.2 6.3-3 12.9c-2.7 9.9-4.6 13-5.5 14l-.7.8-1-.4c-15.1-6.9-28-24.8-31.6-30.1l-.1-.1v-.1c-.5-.9-11.2-23.5-5.2-38l.2-.4.3-.2c8.6-6.2 19.9-9.3 33.5-9.3h.2c6.4 0 12.7.7 18.9 2.1 1.3 0 9.1.1 14.1 1.6 8.5 2.2 15.9 7.5 20.7 14.8 3.9 5.8 6.4 12.4 7.5 19.3 28.7 37.5 14.3 72.7 12.6 76.5-1.2 2.8-1.5 5.9-1.1 9 .1 1.3.4 2.6.7 3.9l.2.9-.6.6c-1.4 1.4-3.3 2.2-5.3 2.4h-1.2c-.5 0-1.1 0-1.6-.1h-.2c-5.8-1.5-8.8-4.9-8.9-9.9 0-1.6.6-4 1.5-7.3 1.6-6.1 4.1-15.4 3.1-24.4l-.2-1.5-1.6-6.7-25-11c-2 .9-4.1 1.3-6.3 1.3-2.4 0-4.8-.5-6.9-1.5-3.2-1.5-6.1-3.6-8.4-6.3l-1.5-1.8 2.4-11z"/><path class="st2" d="M133.7 154.1c-.1 0-.2-.1-.3-.1-8.1-2.1-9.9-7.3-10-11.3-.1-1.9.6-4.4 1.5-7.8 1.6-6 4-15.2 3-23.9l-.2-1.5-1.4-5.9-23.8-10.5c-4.5 1.7-9.6 1.5-13.8-.5-3.3-1.5-6.2-3.6-8.6-6.3-2 7.4-4 12.2-5.7 14l-.7.8c-.4.4-1.1.6-1.7.3l-1-.4c-15.4-7-28.6-25.2-32.2-30.6l-.1-.1c0-.1-.1-.1-.1-.2V70c-.4-1-11.5-24.1-5.2-39.3l.2-.4c.1-.2.3-.4.5-.6l.3-.3c8.8-6.4 20.4-9.6 34.3-9.6h.2c6.4 0 12.8.7 19 2.1 1.8 0 9.3.2 14.3 1.6 8.9 2.3 16.6 7.8 21.5 15.5 3.9 5.9 6.6 12.6 7.7 19.6 28.9 38.1 14.3 73.8 12.6 77.7-1.1 2.6-1.4 5.5-1 8.3.2 1.2.4 2.5.7 3.7l.2.9c.2.6 0 1.1-.4 1.5l-.6.6c-1.7 1.6-3.9 2.6-6.3 2.8h-2.9zm2.7-3c1.6-.2 3.2-.9 4.4-2-.3-1.4-.5-2.8-.7-4.1-.4-3.3 0-6.7 1.2-9.8 1.7-3.8 15.8-38.2-12.6-74.9-.2-.2-.3-.5-.3-.7-1.1-6.7-3.6-13.1-7.3-18.7-4.6-7.1-11.6-12.2-19.8-14.3-4.9-1.4-12.8-1.5-13.7-1.5h-.3c-6-1.3-12.3-2-18.5-2h-.2c-13.3 0-24.3 3-32.6 9-5.7 13.9 4.7 35.7 5.2 36.8 3.5 5.2 16.2 22.9 31 29.6.5-.6 2.4-3.1 5.1-13.4.2-.7.3-1.3.5-2l2.4-10.9c.2-.7 1-1.3 1.8-1.1.8.1 1.3.9 1.2 1.7 0 0-.9 4.6-2.3 10.2l1 1.2c2.1 2.5 4.9 4.6 7.9 5.9 3.7 1.7 8.2 1.8 12 .2.4-.2.8-.2 1.2 0l25 11c.5.2.8.5.9 1l1.6 6.7v.2l.2 1.5c1.1 9.3-1.4 18.8-3.1 25-.8 3.1-1.4 5.5-1.4 6.9.1 4.3 2.6 7.1 7.8 8.4.5.1.9.1 1.4.1h1z"/><path class="st1" d="M126.2 107c-4.5 0-9.1-1-13-2.6-4.8-2.2-8.9-5.8-11.7-10.3l-.9-1.5 15.8-7 .6 1.5s2.2 5.8 7.5 8.1c3.7 1.7 6.7 2 8.5 2 .7 0 1.4 0 2-.1.2-.1.5-.1.8-.1 1.7 0 3 .8 3.5 2.2.5 1.5-.2 3.3-2 4.8-2.4 1.9-6.3 3-11.1 3z"/><path class="st2" d="M112.8 105.5c-5.2-2.3-9.4-6.1-12.4-10.9l-.9-1.5c-.3-.3-.3-.8-.2-1.2.1-.4.4-.7.8-.9l15.8-7c.4-.2.8-.2 1.2 0 .4.2.7.5.8.9l.5 1.5c0 .1 2 5.3 6.7 7.3 3.5 1.6 6.2 1.9 7.9 1.9.6 0 1.2 0 1.7-.1 2.8-.5 5.2.8 6 3.1.8 2.2-.1 4.6-2.4 6.5-2.7 2.2-7 3.4-12.1 3.4-4.7 0-9.5-1.1-13.4-3zm22.4-7.1c-.7.1-1.4.2-2.2.2-2 0-5.1-.4-9.1-2.1-5.9-2.6-8.2-8.7-8.3-9l-12.8 5.6c2.7 4.3 6.5 7.7 11.1 9.8 3.6 1.7 8 2.6 12.3 2.6 4.5 0 8.1-1 10.2-2.7 1.3-1.1 1.8-2.2 1.5-3.2-.3-.7-1.1-1.2-2.1-1.2h-.6zm-21-38.9s-1.5-9-6.7-11.1-10.2 4.4-6 7.7c5.1 4 7.5-1.1 12.7 3.4z"/></svg>