
<svg version="1.1" id="Layer_1" xmlns="http://www.w3.org/2000/svg" xmlns:xlink="http://www.w3.org/1999/xlink" x="0px" y="0px"
   viewBox="0 0 180 180" style="enable-background:new 0 0 180 180;" xml:space="preserve">

<style type="text/css">
  .st0{fill:none;}
  .st1{fill:#BF3B43;}
</style>
<title>l</title>
<g id="camel_rider_alpha">
  <rect class="st0" width="180" height="180"/>
  <g>
    <g id="camel_4_">
      <path class="st1" d="M166.7,161.9h-63.3l-1.8-3c-14.1-23-22.2-49.3-24.1-77.9c-0.1-0.8,0-1.6,0-2.5c0-1.8,0.1-2.4-5.5-4
        c-3-0.9-5.7-1.4-8-1.8c-5.9-1.1-11.5-2.2-15.6-7.5l-10.8,3.2c-4.6,1.4-8.2,2.1-11.1,2.1c-6.8,0-8.9-4-9.5-5.8
        c-1.2-3.4-0.1-7.3,3.2-11.6c-0.1-0.1-0.1-0.2-0.2-0.3c-1.9-2.9-2.4-6.6-1.4-10.8c2.3-9.8,11.8-12.1,17.2-12.6
        c3.1-4.5,6.7-7.3,13.4-7.3c2.5,0,5.3,0.4,8.8,0.8l0.7,0.1c2,0.3,4.2,0.6,6.5,1c4.9,0.8,9.9,1.6,14.4,1.6c2.8,0,5.1-0.3,6.9-1
        c3.3-1.1,7.2-1.7,11.7-1.7c4.2,0,8.1,0.5,10.6,1c4.7-3.4,10.9-7,15.7-7c2.1,0,4.1,0.6,5.6,1.9c3.7,2.9,4.5,8.4,4.6,12.5
        c0.1,5.3-1.3,12.4-5,17.2c1.4,6.6,9.8,28.2,23.1,46.5c0.4,0.6,12.7,17,13.3,17.7l0.7,0.9v48.3H166.7z"/>
      <g>
        <path d="M93.7,47.6c5.2,1,10.9-2.8,12.1-8l-20.4-3.9C84.5,41,88.5,46.6,93.7,47.6z"/>
        <path d="M111.3,38.2c3.2,1.3,5.7,4,6.7,7.2c3.7-3.8,5-9.9,3.2-14.9C117.3,32.2,113.9,34.8,111.3,38.2z"/>
        <path d="M166.1,112.7c-0.6-0.7-12.9-17.1-13.3-17.7c-13.3-18.3-21.7-39.9-23.1-46.5c0.4-0.6,0.8-1.2,1.2-1.8c0,0,0,0,0,0
          c0.2-0.4,0.5-0.9,0.7-1.3c0.1-0.3,0.3-0.6,0.4-0.9c0-0.1,0.1-0.2,0.1-0.3c1.9-4.2,2.6-9,2.5-13c-0.1-4.1-0.9-9.6-4.6-12.5
          c-1.5-1.3-3.5-1.9-5.6-1.9c-4.8,0-11,3.6-15.7,7c-2.5-0.5-6.4-1-10.6-1c-4.5,0-8.4,0.6-11.7,1.7c-1.8,0.7-4.1,1-6.9,1
          c-4.5,0-9.5-0.8-14.4-1.6c-2.3-0.4-4.5-0.7-6.5-1L58,22.9c-3.5-0.4-6.3-0.8-8.8-0.8c-6.7,0-10.3,2.8-13.4,7.3
          c-5.4,0.5-14.9,2.8-17.2,12.6c-1,4.2-0.5,7.9,1.4,10.8c0.1,0.1,0.1,0.2,0.2,0.3c-3.3,4.3-4.4,8.2-3.2,11.6
          c0.6,1.8,2.7,5.8,9.5,5.8c2.9,0,6.5-0.7,11.1-2.1l10.8-3.2c4.1,5.3,9.7,6.4,15.6,7.5c1.5,0.3,3.2,0.6,5,1l0,0.1l3.1,0.8
          c0.8,0.2,1.7,0.5,2.5,0.7c2.9,1,2.9,1.7,2.9,3.2c0,0.9-0.1,1.7,0,2.5c1.9,28.6,10,54.9,24.1,77.9l1.8,3h59.3h0.1h3.9h0.1v-48.3
          L166.1,112.7z M107,155.5c-13.5-22.1-21.3-47.3-23.2-74.9c0-0.5,0-1.2,0-1.8c0-0.2,0-0.3,0-0.5c4.6,1.6,8.2,2.9,8.3,2.9l3,1.1
          l2.2-6l-3-1.1c-0.5-0.2-12.5-4.6-20.5-6.8l-3.1-0.8l0,0.1c-2-0.5-3.9-0.8-5.6-1.2c-6-1.2-10-2-12.7-6.6l-1.3-2.2l-15.5,4.6
          c-3.9,1.2-7,1.8-9.2,1.8c-1.4,0-3.1-0.3-3.5-1.5c-0.4-1.2,0.4-3.8,3.7-7.4c0.2,0,0.5,0,0.7,0c6.5,0,15.4-1.3,15.7-1.4l3.2-0.5
          L45.3,47l-3.2,0.5c-0.1,0-9.7,1.4-15.7,1.3l-1.4,0c-0.7-1.4-0.8-3.2-0.3-5.4c1.3-5.6,7-7.2,11.2-7.7c1.9,1.7,4.4,2.9,7.1,3
          c2.7,0.1,5.4-0.8,7.4-2.5c1-0.8,1.9-2.1,1.5-3.4c-0.2-0.7-10.4-0.2-11.1,1L40.3,34c2.8-4.3,4.8-5.6,8.8-5.6c2.1,0,4.7,0.4,8,0.8
          l0.7,0.1c2,0.3,4.1,0.6,6.3,1c5.1,0.8,10.3,1.7,15.4,1.7c3.5,0,6.5-0.4,9-1.3c2.7-0.9,5.9-1.4,9.6-1.4c4.6,0,8.7,0.7,10.8,1.1
          l1.4,0.3l1.1-0.8c5.4-4,10.4-6.5,13-6.5c0.7,0,1.2,0.2,1.6,0.5c1.3,1,2.2,3.9,2.2,7.6c0.1,4.6-1.2,10.8-4.3,13.9l-1,1l0.1,1.4
          c0.4,5.1,5.4,30.2,20.6,51c0.4,0.5,10,13.4,12.7,16.9v39.8H107z"/>
      </g>
    </g>
    <g id="camel_5_">
      <path class="st1" d="M166.7,161.9h-47.5l-1.4-2.2c-10.6-17.3-16.6-36.9-18-58.4c0-0.6,0-1.2,0-1.9c0-1.3,0-1.8-4.1-3
        c-2.2-0.6-4.2-1-6-1.4c-4.4-0.9-8.6-1.7-11.7-5.6l-8.1,2.4c-3.5,1-6.2,1.5-8.3,1.5c-5.1,0-6.7-3-7.2-4.3
        c-0.9-2.6-0.1-5.5,2.4-8.7c-0.1-0.1-0.1-0.2-0.2-0.2c-1.5-2.2-1.8-4.9-1-8.1c1.8-7.3,8.8-9,12.9-9.4c2.3-3.3,5-5.5,10.1-5.5
        c1.8,0,3.9,0.3,6.6,0.6l0.5,0.1c1.5,0.2,3.2,0.5,4.9,0.7c3.7,0.6,7.4,1.2,10.8,1.2c2.1,0,3.8-0.2,5.2-0.7
        c2.5-0.9,5.4-1.3,8.7-1.3c3.2,0,6.1,0.4,8,0.7c3.5-2.5,8.2-5.2,11.8-5.2c1.6,0,3,0.5,4.2,1.4c2.8,2.2,3.4,6.3,3.4,9.4
        c0,4-0.9,9.3-3.8,12.9c1.1,5,7.3,21.2,17.4,34.9c0.3,0.4,9.5,12.7,10,13.3l0.5,0.6v36.2H166.7z"/>
      <g>
        <path d="M111.9,76.2c3.9,0.7,8.2-2.1,9.1-6l-15.3-2.9C105,71.2,108,75.4,111.9,76.2z"/>
        <path d="M125.2,69.2c2.3,1,4.2,3,5,5.4c2.8-2.9,3.8-7.4,2.4-11.2C129.6,64.6,127.1,66.6,125.2,69.2z"/>
        <path d="M166.3,125.1c-0.5-0.6-9.7-12.9-10-13.3c-10.1-13.6-16.2-29.7-17.4-34.8c0.7-0.9,1.3-1.9,1.8-3c1.5-3.2,2-7,2-10
          c0-3.1-0.6-7.2-3.4-9.4c-1.2-0.9-2.6-1.4-4.2-1.4c-3.6,0-8.3,2.7-11.8,5.2c-1.9-0.3-4.8-0.7-8-0.7c-3.3,0-6.2,0.4-8.7,1.3
          c-1.4,0.5-3.1,0.7-5.2,0.7c-3.4,0-7.1-0.6-10.8-1.2c-1.7-0.2-3.4-0.5-4.9-0.7l-0.5-0.1c-2.7-0.3-4.8-0.6-6.6-0.6
          c-5.1,0-7.8,2.2-10.1,5.5C64.4,63,57.4,64.7,55.6,72c-0.8,3.2-0.5,5.9,1,8.1c0.1,0,0.1,0.1,0.2,0.2c-2.5,3.2-3.3,6.1-2.4,8.7
          c0.5,1.3,2.1,4.3,7.2,4.3c2.1,0,4.8-0.5,8.3-1.5l8.1-2.4c3.1,3.9,7.3,4.7,11.7,5.6c1.2,0.3,2.4,0.5,3.7,0.8l0,0.1l2.3,0.6
          c0.6,0.2,1.3,0.4,2,0.6c2,0.8,2.1,1.3,2.1,2.3c0,0.7,0,1.3,0,1.9c1.4,21.5,7.4,41.1,18,58.4l1.4,2.2h44.5h0.1h2.9h0.1v-36.2
          L166.3,125.1z M121.9,157.1c-0.6-1-1.2-2.1-1.8-3.1c-9-15.8-14.2-33.7-15.7-53.2c0-0.5,0-0.8,0-1.3c0-0.1,0-0.2,0-0.3
          c3.5,1.2,6.2,2.2,6.3,2.2l2.3,0.8l1.7-4.4l-2.3-0.8c-0.4-0.2-7.4-2.7-13.1-4.5c-0.7-0.3-1.5-0.6-2.5-0.8
          c-2.4-0.7-4.5-1.1-6.4-1.5c-4.5-0.9-7.5-1.4-9.5-4.9l-1-1.6l-11.6,3.5c-3,0.9-5.3,1.3-6.9,1.3c-1,0-2.3-0.2-2.6-1.1
          c0-0.1-0.1-0.2-0.1-0.4c0-1,0.7-2.7,2.9-5.1c0.2,0,0.3,0,0.6,0c4.8,0,11.5-1,11.9-1.1l2.4-0.3l-0.7-4.7l-2.4,0.3
          c-0.1,0.1-7.3,1.1-11.8,1L60.3,77c-0.2-0.5-0.4-1-0.4-1.6c0-0.7,0-1.5,0.2-2.4c1.1-4.2,5.4-5.4,8.5-5.7c1.4,1.4,3.4,2.2,5.3,2.3
          c2,0.1,4.1-0.6,5.6-1.9c0.7-0.7,1.4-1.6,1.1-2.6c-0.1-0.6-7.8-0.2-8.3,0.7L71.9,66c2-3.2,3.5-4.1,6.6-4.1c1.6,0,3.5,0.3,6,0.6
          l0.5,0.1c1.4,0.2,3,0.4,4.7,0.7c3.9,0.6,7.8,1.3,11.6,1.3c2.7,0,4.9-0.3,6.8-1c2-0.7,4.4-1,7.2-1c3.4,0,6.5,0.5,8.1,0.8l1,0.2
          l0.9-0.6c4.1-3,7.9-4.9,9.8-4.9c0.5,0,0.9,0.1,1.2,0.3c0.9,0.8,1.6,2.9,1.6,5.7c0.1,3.6-0.9,8-3.2,10.4l-0.8,0.8l0.1,1.1
          c0.3,3.8,4,22.6,15.4,38.2c0.3,0.4,7.5,10,9.5,12.7v29.8H121.9z"/>
      </g>
    </g>
  </g>
</g>
</svg>
