
<svg version="1.1" id="Layer_1" xmlns="http://www.w3.org/2000/svg" xmlns:xlink="http://www.w3.org/1999/xlink" x="0px" y="0px"
   viewBox="0 0 180 180" style="enable-background:new 0 0 180 180;" xml:space="preserve">

<defs>
  <style>
    .b{fill:#1a1a1a;}
    .c{fill:#fff;}
    .d{opacity:0.2;}
    .e{fill:#BF3B43;}
  </style>
</defs>
<title>t</title>
<g>
  <g>
    <polygon class="e" points="121.03 149.63 59.42 149.63 49.84 129.78 130.6 129.78 121.03 149.63" />
    <g class="d">
      <path d="M52.15,134.57s35.7-1.98,39.03,6.35c1.3,3.26,2.51,6.26,3.51,8.71h26.34l9.58-19.85H49.84l2.31,4.79Z" />
    </g>
    <path class="b" d="M121.03,151.63H59.42c-.77,0-1.47-.44-1.8-1.13l-9.58-19.85c-.3-.62-.26-1.35,.11-1.93s1.01-.94,1.69-.94h80.76c.69,0,1.33,.35,1.69,.94s.41,1.31,.11,1.93l-9.58,19.85c-.33,.69-1.03,1.13-1.8,1.13Zm-60.35-4h59.1l7.65-15.85H53.03l7.65,15.85Z" />
    <path class="e" d="M122.34,88.13H58.1c-.72,0-1.35,.49-1.52,1.19l-9.59,38.52c-.25,.99,.5,1.94,1.52,1.94h83.42c1.02,0,1.77-.96,1.52-1.94l-9.59-38.52c-.17-.7-.8-1.19-1.52-1.19Z" />
    <g class="d">
      <path d="M126.45,99.69s.24,30.1-41.39,30.1h46.87l1.32-.72,.2-1.22-7.01-28.15Z" />
    </g>
    <polygon class="c d" points="47.77 124.71 61.24 92.84 122.34 88.13 57.4 88.29 56.58 89.31 47.77 124.71" />
    <path class="b" d="M131.93,131.78H48.51c-1.1,0-2.13-.5-2.81-1.37s-.92-1.99-.65-3.06l9.59-38.52c.4-1.59,1.82-2.7,3.46-2.7H122.34c1.64,0,3.06,1.11,3.46,2.7l9.59,38.52c.27,1.07,.03,2.19-.65,3.06s-1.7,1.37-2.81,1.37Zm-82.87-4h82.31l-9.37-37.66H58.44l-9.37,37.66Zm73.28-37.66h0Z" />
    <polygon class="e" points="131.06 118.22 145.31 118.22 145.31 99.69 126.45 99.69 131.06 118.22" />
    <g class="d">
      <path d="M132.5,99.69s2.23,14.42,12.8,18.54h-14.25l-4.61-18.54h6.06Z" />
    </g>
    <polygon class="e" points="49.39 118.22 35.14 118.22 35.14 99.69 54 99.69 49.39 118.22" />
    <g class="d">
      <path d="M47.94,99.69s-2.23,14.42-12.8,18.54h14.25l4.61-18.54h-6.06Z" />
    </g>
    <path class="b" d="M145.31,120.22h-14.25c-.92,0-1.72-.63-1.94-1.52l-4.61-18.54c-.15-.6-.01-1.23,.37-1.71,.38-.49,.96-.77,1.58-.77h18.86c1.1,0,2,.9,2,2v18.54c0,1.1-.9,2-2,2Zm-12.68-4h10.68v-14.54h-14.3l3.62,14.54Z" />
    <g class="d">
      <circle cx="92.36" cy="111.09" r="9.27" />
    </g>
    <path class="b" d="M49.39,120.22h-14.25c-1.1,0-2-.9-2-2v-18.54c0-1.1,.9-2,2-2h18.86c.62,0,1.2,.28,1.58,.77,.38,.48,.51,1.12,.37,1.71l-4.61,18.54c-.22,.89-1.02,1.52-1.94,1.52Zm-12.25-4h10.68l3.62-14.54h-14.3v14.54Z" />
    <circle class="c d" cx="90.22" cy="108.95" r="9.27" />
    <path class="b" d="M90.22,120.22c-6.21,0-11.27-5.05-11.27-11.27s5.05-11.27,11.27-11.27,11.27,5.05,11.27,11.27-5.05,11.27-11.27,11.27Zm0-18.54c-4.01,0-7.27,3.26-7.27,7.27s3.26,7.27,7.27,7.27,7.27-3.26,7.27-7.27-3.26-7.27-7.27-7.27Z" />
    <path class="e" d="M122.34,39.4H58.1c-.72,0-1.35,.49-1.52,1.19l-9.59,38.52c-.25,.99,.5,1.94,1.52,1.94h83.42c1.02,0,1.77-.96,1.52-1.94l-9.59-38.52c-.17-.7-.8-1.19-1.52-1.19Z" />
    <g class="d">
      <path d="M126.45,50.96s.24,30.1-41.39,30.1h46.87l1.32-.72,.2-1.22-7.01-28.15Z" />
    </g>
    <polygon class="c d" points="47.77 75.98 61.24 44.11 122.34 39.4 57.4 39.56 56.58 40.58 47.77 75.98" />
    <path class="b" d="M131.93,83.05H48.51c-1.1,0-2.13-.5-2.81-1.37s-.92-1.98-.65-3.06l9.59-38.52c.4-1.59,1.82-2.7,3.46-2.7H122.34c1.64,0,3.06,1.11,3.46,2.7l9.59,38.53c.27,1.07,.03,2.19-.65,3.06s-1.7,1.37-2.81,1.37Zm-82.87-4h82.31l-9.37-37.66H58.44l-9.37,37.66ZM122.34,41.4h0Z" />
    <polygon class="e" points="131.06 69.49 145.31 69.49 145.31 50.96 126.45 50.96 131.06 69.49" />
    <g class="d">
      <path d="M132.5,50.96s2.23,14.42,12.8,18.54h-14.25l-4.61-18.54h6.06Z" />
    </g>
    <polygon class="e" points="49.39 69.49 35.14 69.49 35.14 50.96 54 50.96 49.39 69.49" />
    <g class="d">
      <path d="M47.94,50.96s-2.23,14.42-12.8,18.54h14.25l4.61-18.54h-6.06Z" />
    </g>
    <path class="b" d="M145.31,71.49h-14.25c-.92,0-1.72-.63-1.94-1.52l-4.61-18.54c-.15-.6-.01-1.23,.37-1.71,.38-.49,.96-.77,1.58-.77h18.86c1.1,0,2,.9,2,2v18.54c0,1.1-.9,2-2,2Zm-12.68-4h10.68v-14.54h-14.3l3.62,14.54Z" />
    <g class="d">
      <circle cx="92.36" cy="62.36" r="9.27" />
    </g>
    <path class="b" d="M49.39,71.49h-14.25c-1.1,0-2-.9-2-2v-18.54c0-1.1,.9-2,2-2h18.86c.62,0,1.2,.28,1.58,.77,.38,.48,.51,1.12,.37,1.71l-4.61,18.54c-.22,.89-1.02,1.52-1.94,1.52Zm-12.25-4h10.68l3.62-14.54h-14.3v14.54Z" />
    <circle class="c d" cx="90.22" cy="60.22" r="9.27" />
    <path class="b" d="M90.22,71.49c-6.21,0-11.27-5.05-11.27-11.27s5.05-11.27,11.27-11.27,11.27,5.05,11.27,11.27-5.05,11.27-11.27,11.27Zm0-18.54c-4.01,0-7.27,3.26-7.27,7.27s3.26,7.27,7.27,7.27,7.27-3.26,7.27-7.27-3.26-7.27-7.27-7.27Z" />
    <path class="e" d="M74.27,39.4c0-8.81,7.14-15.95,15.95-15.95s15.95,7.14,15.95,15.95h-31.91Z" />
    <path class="c d" d="M93.57,23.8c-1.08-.23-2.2-.35-3.34-.35-8.81,0-15.95,7.14-15.95,15.95h6.69c0-7.66,5.41-14.06,12.61-15.6Z" />
    <path class="b" d="M106.18,41.4h-31.91c-1.1,0-2-.9-2-2,0-9.9,8.05-17.95,17.95-17.95s17.95,8.05,17.95,17.95c0,1.1-.9,2-2,2Zm-29.76-4h27.62c-.97-6.75-6.8-11.95-13.81-11.95s-12.84,5.2-13.81,11.95Z" />
    <rect class="e" x="58.1" y="81.05" width="63.11" height="7.07" />
    <g class="d">
      <rect x="58.1" y="81.05" width="63.11" height="7.07" />
    </g>
    <path class="b" d="M121.21,90.13H58.1c-1.1,0-2-.9-2-2v-7.07c0-1.1,.9-2,2-2h63.11c1.1,0,2,.9,2,2v7.07c0,1.1-.9,2-2,2Zm-61.11-4h59.11v-3.07H60.1v3.07Z" />
  </g>
  <g>
    <path class="e" d="M41.72,167.03v3.44h97.01v-3.45c.03-10.33,.05-19.34-13.27-22.72,0,0-47.21-4.7-70.47,0h0c-13.32,3.38-13.3,12.39-13.27,22.72Z" />
    <path class="c d" d="M124.58,144.26c-9.16-1.85-22.14-2.21-34.36-1.97-12.21-.23-25.19,.12-34.36,1.97-8.97,2.28-11.74,7.17-12.58,13.3,0,0,7.61-7.35,46.94-7.35s46.93,7.34,46.94,7.35c-.84-6.13-3.61-11.02-12.58-13.3Z" />
    <path class="b" d="M138.73,172.48H41.72c-1.1,0-2-.9-2-2v-3.44c-.03-10.27-.06-20.9,14.78-24.67,23.38-4.72,69.22-.24,71.16-.05,.1,0,.2,.03,.29,.05,14.83,3.77,14.81,14.39,14.78,24.66v3.44c0,1.1-.9,2-2,2Zm-95.01-4h93.01v-1.45c.03-10.28,.05-17.72-11.62-20.74-2.94-.28-47.67-4.47-69.72-.02-11.71,2.98-11.7,10.44-11.67,20.76h0v1.45Z" />
  </g>
</g>
</svg>
