<svg version="1.1" id="Layer_1" xmlns="http://www.w3.org/2000/svg" x="0" y="0" viewBox="0 0 180 180" style="enable-background:new 0 0 180 180" xml:space="preserve"><style>.st0{fill:#fff}.st1,.st2{opacity:.2;fill:#fff;enable-background:new}.st2{fill:#040000}.st3{fill:#1a1a1a}</style><g id="Layer_2"><g id="Layer_1-2"><path class="st0" d="M69.9 101c-.7 6-4 34-4.9 40.7-10.1 2.4-10.1 9-10 16.7v2.5h70.7v-2.5c0-7.7 0-14.3-10.1-16.7-.8-6.6-4.1-34.7-4.8-40.7"/><path class="st1" d="M90.3 145.5c30 0 33.1 3.3 33.1 3.3h.4c-1.3-7.1-17-7.9-17-7.9H74s-16.3.6-17.2 7.8h.4c.1.1 3.2-3.2 33.1-3.2z"/><path class="st2" d="M75.5 101s14.9-.9 22.5 8.6 8.4 30.2 8.4 30.2c5 .9 8.7 1.9 8.7 1.9l-4.7-40"/><path class="st3" d="M125.3 147.6c-1.5-3.3-4.3-5.4-8.7-6.6-.9-7.6-3.7-31.3-4.6-38.7l-2-2.3c-6.6-1-13.3-1.6-20-1.8-6.7.2-13.3.8-20 1.8l-2.2 2.2.2.1c-.8 7.3-3.6 31.1-4.6 38.7-4.4 1.2-7.2 3.3-8.7 6.6-1.5 3.3-1.5 6.9-1.5 11.2v3.9h73.5v-3.9c.1-4.3.1-8-1.4-11.2zm-54.5-44.8c6.4-.9 12.8-1.5 19.2-1.7 6.4.2 12.8.7 19.2 1.7.8 7.2 3.4 29.2 4.5 37.6-.5-.1-1-.2-1.5-.2-7.4-.9-14.8-1.2-22.2-1.2-7.4-.1-14.8.3-22.2 1.2-.5.1-1 .1-1.5.2 1.1-8.4 3.6-30.4 4.5-37.6zm53.2 57.1H56.1c0-8.2-.5-14.1 8.8-16.4l.2-.1.7-.1c.7-.2 1.5-.3 2.3-.4 7.3-.8 14.5-1.2 21.8-1.1 7.3-.1 14.6.3 21.8 1.1.8.1 1.6.2 2.3.4l.8.2h.2c9.4 2.3 9 8.2 9 16.4z"/><path class="st0" d="M109.3 98c4.9-4.1 11.4-12.8 11.4-27.3 0-14.2-9.4-25-15.4-31l-1.2-1.3-.9 1.5c-1 1.8-6.1 10.1-6.4 31.1h-9.5c.3-31.3 12.5-43.2 12.7-43.3l.5-.5v-.6c-.4-4.7-4.3-8.3-9-8.4-5 0-9 4-9 9 0 2.3.9 4.5 2.4 6.1-3.7 3-7.1 6.3-10.1 9.9-7.5 9-11.5 18.4-11.5 27.3 0 14.5 6.6 23.2 11.4 27.3"/><path class="st2" d="M110.7 46.6c15.8 38.4-18.8 50-18.8 50l17.5 1.4c-1.7 1.3 11.1-3.6 11.1-28.8 0-8.5-3.6-16.7-9.8-22.6z"/><path class="st1" d="M86.8 33.5c-1.8-.8-19.9 14.4-22.9 29.9-2.8 14.5 2.2 18.5 1.9 18.4 0-.1 1.9-31.9 22.9-47.4 0 0-.8-.4-1.9-.9zm5.7-13.8c-3 .3-8.2 4.6-8.6 10.7 0 0-4.2-3.9 0-8.7 3.4-3.9 8.6-2 8.6-2z"/><path class="st2" d="M90.5 46.2c1.3-3.5 9.8-20.2 9.8-20.2l-3.9-6.4h-2c6.4 7.8-12.5 25.8-12.5 39.3 0 4 1 12 3.8 13.4.1.1 2.2-18.7 4.8-26.1z"/><path class="st3" d="M77.9 99.4C74.4 97.8 63.7 89.3 63.7 71c0-20.9 22.4-37.2 22.4-37.2-3.4-2.4-4.2-7.2-1.8-10.6S91.5 19 95 21.5c1.8 1.3 3 3.4 3.2 5.6 0 0-13 12.4-13 45.7h12.3c0-20.8 4.9-29.5 6.2-31.7 6.6 6.6 15 16.7 15 30 0 18.2-10.5 26.6-14.1 28.3l7.4-2.3c4.6-4.9 9.5-13.4 9.5-26 0-10.9-5.2-21.4-15.8-32l-2.5-2.5-1.8 3.1c-4 6.8-6.3 17.2-6.5 30.4h-6.8c.3-14.9 3.5-25.1 6.1-31 3-6.8 6.1-9.8 6.1-9.8l.9-.9-.1-1.3c-.4-5.4-4.9-9.6-10.4-9.6-5.7 0-10.4 4.6-10.4 10.4 0 2.1.6 4.2 1.9 5.9-3.3 2.8-6.4 5.9-9.2 9.2-8 9.1-12.1 18.8-12.1 28 0 12.4 4.7 20.8 9.2 25.7l7.8 2.7z"/><path class="st3" d="M91.1 99.8c6.3 0 11.9.2 17.1.6l1.3-2.7c-5.3-.5-11.4-.8-18.4-.8-7.1 0-13.2.3-18.6.8l.8 2.7c5.4-.4 11.3-.6 17.8-.6z"/><path transform="rotate(-41.359 72.09 97.196)" class="st3" d="M70.9 93.8h2.5v6.7h-2.5z"/><path transform="rotate(-45.001 109.761 97.306)" class="st3" d="M106.4 96.1h6.7v2.5h-6.7z"/></g></g></svg>