<svg version="1.1" id="Layer_1" xmlns="http://www.w3.org/2000/svg" x="0" y="0" viewBox="0 0 180 180" style="enable-background:new 0 0 180 180" xml:space="preserve"><style>.st2{fill:#bf3b43}.st3{fill:#040000}</style><g id="Layer_2"><g id="Layer_1-2"><path d="M91.7 150.6c-3.4 0-7.6-.1-12.5-.4l.2-3.7c7.5.6 15 .6 22.5 0l.4 3.7c-.2 0-4 .4-10.6.4z" style="fill:#040000;stroke:#040000;stroke-miterlimit:10"/><path d="M78.4 145.6c-4.9-.6-9.7-1.7-14.4-3.3l8.9-22.1-2.2-1.3c-8.8-5-10.9-7.2-12.7-10.8-2.2-4-3.3-8.5-3.1-13 0-8.1 3.8-15.8 10.4-20.6 7.3-5.6 14.5-11.3 21.6-19.5l1.3-1.4.8-1.1-2.4-1.8-.8 1-1.2 1.3c-7 8-14 13.6-21.2 19.1C56.1 77.5 51.9 86 51.8 95c-.2 5.1 1 10.1 3.5 14.5 2 4.1 4.4 6.6 13.9 12l-9.1 22.6 1.5.5c5.3 1.9 10.7 3.2 16.3 3.9l.5-2.9zm40.2-1 1.5-.5-9.1-22.6c9-5.3 11.5-7.7 13.9-11.9 2.4-4.5 3.5-9.5 3.4-14.6-.3-6.7-2.4-16-11.5-22.9-8-5.9-14.7-11.4-21.2-19.1l-1.2-1.4-.7-1-2.4 1.7.8 1.1 1.3 1.5c6.7 7.9 13.5 13.5 21.6 19.5 8.1 6.2 10.1 14.7 10.3 20.6.1 4.5-.9 9-3 13.1-2.1 3.7-4.3 5.9-12.8 10.8l-2.2 1.3 8.9 22.1c-4.7 1.5-9.4 2.6-14.3 3.3l.4 2.7.6.2c5.3-.9 10.5-2.2 15.7-3.9z" style="fill:#040000;stroke:#040000;stroke-width:4;stroke-miterlimit:10"/><path class="st2" d="m99.9 147.5 2.5-.3c5.6-.8 11-2.1 16.3-3.9l-9.1-22.5 1.1-.7c8.8-5.1 11.2-7.5 13.4-11.5 2.3-4.3 3.4-9.1 3.3-14-.2-6.4-2.3-15.4-11-22-8.2-6-15-11.6-21.7-19.5l-1.2-1.4-.8-1.1H88l-.8 1.1-1.3 1.5C79 61.4 71.8 67.1 64.5 72.7c-7 5.2-11.1 13.3-11.1 22-.2 4.9.9 9.7 3.3 13.9 2 3.9 4.3 6.2 13.4 11.5l1.1.7-9.1 22.6c5.3 1.9 10.8 3.2 16.4 3.9l2.7.3 18.7-.1z"/><path class="st3" d="M118.2 144.8c-5.2-1.9-10.5-3.3-15.9-4.2l-2.6-.4c-6.1-.6-12.2-.7-18.4-.4l-2.6.2c-5.5.6-10.9 1.7-16.1 3.4l-.9-2.9c5.4-1.8 11.1-3 16.8-3.6l2.7-.2c6.3-.3 12.7-.2 19 .4l2.6.4c5.6.9 11.2 2.4 16.5 4.4l-1.1 2.9zm-7.5-21.6c-6.7-1.6-13.5-2.3-20.3-2.2-6.8-.1-13.7.6-20.3 2.2l-.8-3.1c6.9-1.7 14.1-2.4 21.2-2.3 7.1-.1 14.3.7 21.2 2.3l-1 3.1z"/><circle class="st2" cx="90.5" cy="40.9" r="10"/><path class="st3" d="M90.5 52.4c-6.4 0-11.5-5.1-11.5-11.5s5.1-11.5 11.5-11.5S102 34.5 102 40.9s-5.1 11.5-11.5 11.5zm0-20c-4.7 0-8.5 3.8-8.5 8.5s3.8 8.5 8.5 8.5 8.5-3.8 8.5-8.5-3.8-8.5-8.5-8.5zm-3.2 68.5v-7.1l-7.3-.1c-1.4.2-2.8-.8-3-2.2v-.8c-.2-1.4.8-2.8 2.2-3h8.1V80c0-2 1.1-3.1 3.2-3.1 1.5-.2 2.9.9 3.1 2.4v8.3h7.6c2 0 2.9 1 2.9 3s-1 3-2.9 3h-7.6v7.3c0 2.1-1.1 3.2-3.1 3.2-1.6.2-3-.9-3.2-2.4v-.8z"/></g></g></svg>