<svg xmlns="http://www.w3.org/2000/svg" viewBox="0 0 180 180" style="enable-background:new 0 0 180 180" xml:space="preserve"><path style="fill:none" d="M0 0h180v180H0z"/><path d="m134.5 161.3.9-2.3 28.4-72.4-21.5-8.7-1.1-.5-.2-1.2c-1.9-11.3-8.1-21.3-17.4-27.9-15.9-11.4-22.7-16.5-32.7-28.6l-.2-.3-.2.3c-10 12.1-16.9 17.2-32.7 28.6-9.3 6.6-15.6 16.7-17.4 27.9l-.2 1.2-1.1.5-21.5 8.7L46 159l.9 2.3h87.6z" style="fill:#fff"/><path d="m166.7 87.8 1.2-3-16.8-6.8-7-2.9h-.1c-2.1-11.8-8.9-22.5-18.6-29.5-15.6-11.2-22.4-16.2-32.1-28.1l-2.6-3.2-2.8 3.2c-9.8 11.8-16.5 16.8-32.1 28.1-9.9 7.1-16.5 17.5-18.6 29.5h-.1l-10.2 4.1-13.7 5.6 1.2 3 1.9 4.9 26.4 67.5 1.7 4.3h92.3l.8-1.9v-.1l29.2-74.7zm-7.1.6-28.2 67.7H70.8c9.1-5.9 21.9-15.4 36.6-30.1 16.9-16.9 32-37.4 36.7-43.9l15.1 6.1.4.2zM57.5 152.2c-2.7 1.4-5.3 2.7-7.8 3.8L21.5 88.4l15.6-6.3c8.6 11.4 18.1 22.3 28 32.5 6.6 6.8 13.4 13.2 20.2 19-11 8.6-20.7 14.7-27.8 18.6zm2-101.3c14.9-10.7 22-16 31.1-26.5 9.1 10.6 16.2 15.8 31.1 26.5 8.5 6.1 14.4 15.5 16.1 25.9l.4 2.3c-5.8 7.4-22.3 27.9-38.3 42.3-3.2 2.9-6.4 5.6-9.5 8.1l-.2-.1c-6.9-5.8-13.8-12.3-20.6-19.2-9.5-9.8-18.5-20.2-26.8-31.1l.4-2.3c1.9-10.5 7.6-19.7 16.3-25.9z"/></svg>