
<svg version="1.1" id="Layer_1" xmlns="http://www.w3.org/2000/svg" xmlns:xlink="http://www.w3.org/1999/xlink" x="0px" y="0px"
   viewBox="0 0 180 180" style="enable-background:new 0 0 180 180;" xml:space="preserve">

<style type="text/css">
  .st0{fill:#BF3B43;stroke:#231815;stroke-width:4;stroke-miterlimit:9.9999;}
  .st1{opacity:0.2;fill:#040000;enable-background:new    ;}
  .st2{fill:#BF3B43;}
  .st3{opacity:0.2;fill:#FFFFFF;enable-background:new    ;}
  .st4{fill:#1A1A1A;}
  .st5{fill:#BF3B43;stroke:#231815;stroke-width:3.9973;stroke-miterlimit:9.9933;}
  .st6{fill:#BF3B43;stroke:#231815;stroke-width:4;stroke-miterlimit:10;}
</style>
<title>gamma</title>
<g>
  <g id="Layer_1-2">
    <rect x="81" y="63.4" transform="matrix(0.3221 -0.9467 0.9467 0.3221 2.8821 145.052)" class="st0" width="43.5" height="14.3"/>

      <rect x="86.1" y="70.8" transform="matrix(0.3221 -0.9467 0.9467 0.3221 3.9756 150.6914)" class="st1" width="42.2" height="3.5"/>
    <path class="st2" d="M122.7,132.7c-17.6-11.1-19.4-24.8-20-30.7H77c-0.5,5.8-2.3,19.6-20,30.7c-8,5-12.7,14.7-12.7,26.4v2h91v-2
      C135.4,147.4,130.7,137.8,122.7,132.7z"/>
    <path class="st1" d="M115,127.7c-10.8-7.5-11.5-22.2-12.2-25.5h0.1l-0.3-0.3H76.8v0.4h0.1c0,0,13.2,13.3,24.2,23.7
      c10.5,9.9,26.5,11.3,26.5,11.3S120.5,131.5,115,127.7z"/>
    <path class="st3" d="M46.3,159.1c4.3-14.3,10.5-16.1,21.8-24.4c7.5-5.5,8.5-22,8.5-22c0.2-0.9-3.8,6.7-8.1,10.4
      c-1.4,1.2-11,7.8-15.1,12.2C46.4,142.7,45.5,161.8,46.3,159.1z"/>
    <path class="st4" d="M123.9,130.3c-14.8-9.3-17.9-20.5-18.8-26.9l-4.4-3.7v0.3c0.5,4.6,0.8,20.9,21.1,33.7
      c7.5,4.7,11.8,13.7,11.8,24.7h-87c0-11,4.3-20,11.7-24.7c20.3-12.8,20.6-29.1,21-33.7l0.1-0.8l-4.8,3.8h0.3
      c-2.5,17-14.3,24.4-18.8,27.3c-8.6,5.4-13.6,15.7-13.6,28.1v4h95v-4C137.5,145.9,132.5,135.7,123.9,130.3z"/>

      <rect x="69.7" y="49.3" transform="matrix(0.9507 -0.3102 0.3102 0.9507 -18.2451 27.345)" class="st5" width="14.3" height="43.5"/>
    <rect x="59.9" y="89.3" class="st6" width="60" height="12.2"/>

      <rect x="79.9" y="48.9" transform="matrix(0.9504 -0.311 0.311 0.9504 -17.7177 28.8641)" class="st1" width="3.5" height="42.2"/>
    <rect x="114.9" y="89.2" class="st1" width="5.5" height="12.6"/>
    <rect x="61.9" y="91.3" class="st3" width="56" height="1.4"/>
  </g>
</g>


</svg>
