<svg xmlns="http://www.w3.org/2000/svg" viewBox="0 0 180 180" style="enable-background:new 0 0 180 180" xml:space="preserve"><path style="fill:none" d="M0 0h180v180H0z"/><path d="M65.27 32.7A65.69 65.69 0 0 0 45.4 20.84 61.59 61.59 0 0 0 49.1 44l.33.9-.68.67A30.7 30.7 0 0 0 46.48 48l-.28.33c-.44.52-.82 1-1.13 1.27a33.13 33.13 0 0 0-2.43 3.22c-.23.39-.78 1.3-1.59 2.48-1.61 2.51-2.48 6.41-2.48 11.22v.14c-.46 5-5 12.73-11 22.23-5.08 8-9 13-9 17.37a29.15 29.15 0 0 0 1.3 9c1.56 5.3 6.67 9.85 12.61 12.13l4.71-2.58s4.41 3.63 8.71 3.63 10.18-8 11.32-10.18c0 0 1-5.75 4.53-9.36 4-4.11 9.69-4.76 17.28-7.51 7.11-1.94 12.08-9.08 12.08-9.08a44.42 44.42 0 0 1-1.89 14.93c-2.54 7-8.77 13.17-14.78 19.16-1.17 1.16-2.33 2.32-3.45 3.47-4.17 4.28-5.71 6.66-6.26 7.7-4.21 7.53-5.41 12.33-5.75 14.52a36.46 36.46 0 0 0-.4 9.23h102.89V144.1c0-14.74-.59-33.78-5.17-50.3-3.74-13-10.61-26.3-18.37-35.48-10.93-13-29.45-20.93-43.4-21.66a76.75 76.75 0 0 0-10 0c-1.07-2.78-3.1-9.37-10.79-14.65a28.35 28.35 0 0 0-8.47 10.69Z" style="fill:#bf3b43"/><path d="M163 162.77H57.24l-.19-1.28a38.11 38.11 0 0 1 .42-9.74c.34-2.23 1.59-7.23 5.91-15 .7-1.33 2.4-3.83 6.49-8 1.13-1.15 2.3-2.32 3.47-3.48 5.91-5.89 12-12 14.43-18.62a39.82 39.82 0 0 0 1.79-10.33 23.58 23.58 0 0 1-10.12 6.43c-2.11.76-4.1 1.38-5.86 1.92-4.56 1.4-8.15 2.51-10.8 5.21-3.15 3.22-4.11 8.51-4.12 8.56v.24l-.11.21c-.76 1.44-7.08 11-12.65 11-3.66 0-7.26-2.23-8.84-3.35L32.55 129l-.64-.25c-6.72-2.57-11.9-7.6-13.52-13.11a30.78 30.78 0 0 1-1.39-9.39c0-4 2.67-8 6.37-13.68.9-1.39 1.88-2.88 2.9-4.49 5.21-8.25 10.33-16.71 10.77-21.57v-.07c0-5 .93-9.19 2.7-12 .8-1.15 1.31-2 1.55-2.41A34.75 34.75 0 0 1 44 48.59c.35-.35.7-.76 1.11-1.25l.27-.32a32.46 32.46 0 0 1 2.33-2.48 63.29 63.29 0 0 1-3.81-23.75l.1-2.11 2 .76a66.87 66.87 0 0 1 18.78 10.89 30 30 0 0 1 8.07-9.51l.87-.66.89.62a28.51 28.51 0 0 1 11 14.31 84.2 84.2 0 0 1 9 .07c13 .68 32.41 7.92 44.46 22.19 7.9 9.33 14.88 22.81 18.67 36 4.63 16.7 5.23 35.87 5.23 50.71Zm-103-3h100V144.1c0-14.65-.58-33.56-5.12-49.89-3.68-12.84-10.43-25.9-18.07-34.92-11.47-13.59-30-20.48-42.33-21.13a77.34 77.34 0 0 0-9.78 0l-1.12.09-.64-1.68a25.76 25.76 0 0 0-9.1-12.67 27.2 27.2 0 0 0-7.18 9.44l-.83 1.83-1.52-1.33A63.41 63.41 0 0 0 46.87 23a60.38 60.38 0 0 0 3.64 20.45l.65 1.79-1.35 1.34a30.43 30.43 0 0 0-2.15 2.3l-.31.37c-.46.53-.86 1-1.21 1.36a30 30 0 0 0-2.21 2.93c-.27.44-.83 1.38-1.65 2.56-1.41 2.21-2.21 5.91-2.21 10.37v.21c-.46 5.07-4.46 12.25-11.23 23-1 1.63-2 3.13-2.92 4.53-3.41 5.21-5.88 9-5.88 12a27.73 27.73 0 0 0 1.23 8.5c1.3 4.43 5.61 8.65 11.08 10.93l5-2.72.79.64s4.06 3.29 7.76 3.29c3.17 0 8.48-6.69 9.89-9.2.25-1.22 1.47-6.4 4.88-9.89 3.19-3.25 7.3-4.51 12.07-6 1.83-.56 3.72-1.14 5.78-1.89h.11c6.52-1.77 11.2-8.42 11.24-8.49L92.23 88l.33 4.19a46.07 46.07 0 0 1-2 15.56c-2.66 7.28-9 13.6-15.12 19.7-1.17 1.17-2.33 2.32-3.45 3.47-4.19 4.29-5.59 6.57-6 7.35-4.11 7.36-5.27 12-5.6 14.05a38.6 38.6 0 0 0-.47 7.45Z"/><path d="M37.15 126.26a1.5 1.5 0 0 1-.78-2.78 41.33 41.33 0 0 0 9.45-8.42 1.5 1.5 0 0 1 2.32 1.94 43.84 43.84 0 0 1-10.22 9.08 1.47 1.47 0 0 1-.77.18Zm53.92-32.5a1.51 1.51 0 0 1-1.31-2.24 30.39 30.39 0 0 0 3.09-11.44 1.47 1.47 0 0 1 1.61-1.38 1.49 1.49 0 0 1 1.38 1.61A32.83 32.83 0 0 1 92.37 93a1.5 1.5 0 0 1-1.3.76ZM29.73 110a2 2 0 0 1-1.7-3c1.31-2.13 4.25-5.5 6.95-4.64.87.27 2.29 1.16 2.12 4a2 2 0 0 1-1.38 1.79l-5.37 1.75a1.87 1.87 0 0 1-.62.1Z"/><circle cx="57.32" cy="64.63" r="4.75"/><path d="M63 42.86a1.51 1.51 0 0 1-1.49-1.52 24.85 24.85 0 0 1 2.46-9.26 1.5 1.5 0 1 1 2.72 1.25 22.15 22.15 0 0 0-2.18 8A1.51 1.51 0 0 1 63 42.86Zm23.59 5.53a1.49 1.49 0 0 1-1.47-1.24c-.63-3.64-1.65-9.13-2-9.95A1.5 1.5 0 0 1 86 36.12c.54 1.4 1.86 9 2.13 10.52a1.5 1.5 0 0 1-1.23 1.73 1.1 1.1 0 0 1-.31.02ZM51.44 70.22a2 2 0 0 1-.81-.17 2 2 0 0 1-1-2.64 24.9 24.9 0 0 1 12.3-12.28 2 2 0 1 1 1.51 3.7A21.27 21.27 0 0 0 53.27 69a2 2 0 0 1-1.83 1.22Z"/></svg>