
<svg version="1.1" id="Layer_1" xmlns="http://www.w3.org/2000/svg" xmlns:xlink="http://www.w3.org/1999/xlink" x="0px" y="0px"
   viewBox="0 0 180 180" style="enable-background:new 0 0 180 180;" xml:space="preserve">

<style type="text/css">
  .st0{fill:#BF3B43;}
  .st1{fill:#040000;}
</style>
<title>a</title>
<g id="Layer_2">
  <g id="Layer_1-2">
    <path class="st0" d="M50.3,51.8c-5.4-4.7-11.5-8.3-18.2-10.9c-0.2,7.2,0.9,14.4,3.4,21.2l0.3,0.8l-0.6,0.6
      c-0.7,0.7-1.4,1.4-2.1,2.2l-0.3,0.3c-0.3,0.4-0.7,0.8-1,1.2c-0.8,0.9-1.5,1.9-2.2,2.9c-0.2,0.4-0.7,1.2-1.5,2.3
      c-1.5,2.3-2.3,5.9-2.3,10.3v0.1c-0.4,4.6-4.6,11.7-10.1,20.3c-4.6,7.3-8.2,11.9-8.2,15.9c0,2.8,0.4,5.6,1.2,8.2
      c1.4,4.9,6.1,9,11.5,11.1l4.3-2.4c0,0,4,3.3,8,3.3s9.3-7.3,10.4-9.3c0,0,0.9-5.3,4.1-8.6c3.7-3.8,8.9-4.4,15.8-6.9
      c6.5-1.8,11.1-8.3,11.1-8.3c0.2,4.6-0.4,9.2-1.7,13.7c-2.3,6.4-8,12.1-13.5,17.5c-1.1,1.1-2.1,2.1-3.2,3.2c-3.8,3.9-5.2,6.1-5.7,7
      c-3.9,6.9-5,11.3-5.3,13.3c-0.5,2.8-0.6,5.6-0.4,8.4h94.2v-15.8c0-13.5-0.5-30.9-4.7-46c-3.4-11.9-9.7-24.1-16.8-32.5
      c-10-11.9-27-19.2-39.7-19.8c-3-0.2-6.1-0.2-9.2,0c-1-2.5-2.8-8.6-9.9-13.4C54.7,44.6,52,48,50.3,51.8z"/>
    <path class="st1" d="M139.7,170.9H42.9l-0.2-1.2c-0.3-3-0.1-6,0.4-8.9c0.3-2,1.5-6.6,5.4-13.7c0.6-1.2,2.2-3.5,5.9-7.3
      c1-1.1,2.1-2.1,3.2-3.2c5.4-5.4,11-11,13.2-17c1-3.1,1.5-6.2,1.6-9.5c-2.5,2.7-5.7,4.8-9.3,5.9c-1.9,0.7-3.8,1.3-5.4,1.8
      c-4.2,1.3-7.5,2.3-9.9,4.8c-2.9,2.9-3.8,7.8-3.8,7.8v0.2l-0.1,0.2c-0.7,1.3-6.5,10.1-11.6,10.1c-3.3,0-6.6-2-8.1-3.1l-4.1,2.3
      l-0.6-0.2c-6.2-2.4-10.9-7-12.4-12c-0.9-2.8-1.3-5.7-1.3-8.6c0-3.7,2.4-7.3,5.8-12.5c0.8-1.3,1.7-2.6,2.7-4.1
      c4.8-7.6,9.5-15.3,9.8-19.7v-0.1c0-4.6,0.9-8.4,2.5-11c0.7-1.1,1.2-1.8,1.4-2.2c0.8-1.1,1.6-2.2,2.5-3.1c0.3-0.3,0.6-0.7,1-1.1
      l0.2-0.3c0.7-0.8,1.4-1.6,2.1-2.3l0,0c-2.5-7-3.7-14.3-3.5-21.7l0.1-1.9l1.8,0.7c6.2,2.4,12,5.7,17.2,10c1.8-3.4,4.3-6.4,7.4-8.7
      l0.8-0.6l0.8,0.6c4.7,3.2,8.2,7.8,10.1,13.1c2.7-0.1,5.5-0.1,8.2,0.1c11.9,0.6,29.7,7.2,40.7,20.3c7.2,8.5,13.6,20.9,17.1,33
      c4.2,15.3,4.8,32.8,4.8,46.4L139.7,170.9z M45.5,168.1H137v-14.3c0-13.4-0.5-30.7-4.7-45.7c-3.4-11.8-9.5-23.7-16.5-32
      C105.3,63.7,88.3,57.4,77,56.8c-3-0.2-6-0.2-9,0l-1,0.1l-0.6-1.5c-1.5-4.6-4.4-8.7-8.3-11.6c-2.8,2.4-5,5.3-6.6,8.6l-0.8,1.7
      l-1.4-1.2c-4.7-4.2-10.1-7.5-16-9.9c0,6.4,1.1,12.7,3.3,18.7l0.6,1.6l-1.2,1.2c-0.7,0.7-1.3,1.4-2,2.1L33.9,67
      c-0.4,0.5-0.8,0.9-1.1,1.2c-0.7,0.9-1.4,1.7-2,2.7c-0.2,0.4-0.8,1.3-1.5,2.3c-1.3,2-2,5.4-2,9.5v0.2c-0.4,4.6-4.1,11.2-10.3,21.1
      c-0.9,1.5-1.8,2.9-2.7,4.1c-3.1,4.8-5.4,8.2-5.4,11c0,2.6,0.3,5.3,1.1,7.8c1.2,4.1,5.1,7.9,10.1,10l4.6-2.5l0.7,0.6
      c0,0,3.7,3,7.1,3c2.9,0,7.8-6.1,9.1-8.4c0.2-1.1,1.3-5.9,4.5-9.1c2.9-3,6.7-4.1,11-5.5c1.7-0.5,3.4-1,5.3-1.7h0.1
      c6-1.6,10.3-7.7,10.3-7.8l2.2-3.1l0.3,3.8c0.2,4.8-0.4,9.6-1.8,14.2c-2.4,6.7-8.2,12.4-13.8,18c-1.1,1.1-2.1,2.1-3.2,3.2
      c-3.8,3.9-5.1,6-5.5,6.7c-3.8,6.7-4.8,11-5.1,12.8C45.5,163.5,45.3,165.8,45.5,168.1L45.5,168.1z"/>
    <path class="st1" d="M24.5,137.4c-0.8,0-1.4-0.6-1.4-1.4c0-0.5,0.3-0.9,0.7-1.2c3.3-2.1,6.2-4.7,8.6-7.7c0.5-0.6,1.4-0.7,1.9-0.2
      c0.6,0.5,0.7,1.4,0.2,1.9l0,0c-2.7,3.2-5.8,6-9.4,8.3C25,137.4,24.8,137.5,24.5,137.4z"/>
    <path class="st1" d="M73.9,107.7c-0.8,0-1.4-0.6-1.4-1.4c0-0.2,0.1-0.5,0.2-0.7c1.6-3.3,2.6-6.8,2.8-10.5c0-0.7,0.7-1.3,1.4-1.3
      H77c0.8,0.1,1.3,0.7,1.3,1.5l0,0c-0.3,4.1-1.3,8-3.2,11.6C74.8,107.4,74.4,107.7,73.9,107.7z"/>
    <path class="st1" d="M17.8,122.6c-1,0-1.8-0.8-1.8-1.8c0-0.3,0.1-0.6,0.2-0.9c1.2-1.9,3.9-5,6.4-4.2c0.8,0.2,2.1,1.1,1.9,3.7
      c0,0.8-0.5,1.4-1.3,1.6l-4.9,1.6C18.1,122.5,18,122.6,17.8,122.6z"/>
    <circle class="st1" cx="43" cy="81" r="4.3"/>
    <path class="st1" d="M48.2,61.1L48.2,61.1c-0.8,0-1.4-0.6-1.4-1.4c0.2-2.9,1-5.8,2.3-8.5c0.2-0.7,1-1.1,1.7-0.9
      c0.7,0.2,1.1,1,0.9,1.7c0,0,0,0.1,0,0.1c0,0.1,0,0.1-0.1,0.2c-1.1,2.3-1.8,4.8-2,7.3C49.6,60.5,49,61.1,48.2,61.1
      C48.2,61.1,48.2,61.1,48.2,61.1z"/>
    <path class="st1" d="M69.8,66.2c-0.7,0-1.2-0.5-1.3-1.1c-0.6-3.3-1.5-8.4-1.8-9.1c-0.3-0.7,0-1.5,0.7-1.9c0.7-0.3,1.5,0,1.9,0.7
      c0,0,0,0.1,0.1,0.1c0.5,1.3,1.7,8.2,1.9,9.6c0.1,0.7-0.4,1.5-1.1,1.6c0,0,0,0,0,0l0,0C70,66.2,69.9,66.2,69.8,66.2z"/>
    <path class="st1" d="M37.6,86.1c-0.3,0-0.5-0.1-0.7-0.2c-0.9-0.4-1.3-1.5-0.9-2.4c2.3-5,6.3-9,11.3-11.2c0.9-0.4,2,0,2.4,0.9
      s0,2-0.9,2.4l-0.1,0.1c-4.1,1.9-7.4,5.2-9.3,9.3C39,85.7,38.4,86.1,37.6,86.1z"/>
    <path class="st0" d="M164.6,60.7l-23.4,17l-5.6,1.8l-4,3.5l-3.5,8.1c-1.6-0.1-1.8-6.8-5.4-9.2c-4.6-3-6.2-6.5-10.2-10.3
      c-4-3.8-6.2-4-9.6-8.3c-2.6-3.4-11-4.1-11.2-5.7l7.8-4.1l3.1-4.2l1.3-5.8l14.9-24.7l1.4,0.6l-4.6,24l18.2-18.7l1.3,0.7l-10.4,24.4
      l21.7-16.1l1,0.9l-14.3,23L156.7,45l0.8,1.2l-17.1,19.7l23.4-6.6L164.6,60.7z"/>
    <path class="st1" d="M132,83.2l3.7-3.2l5.6-1.8l24-17.4l-1.3-2.4l-21.7,6.1l15.9-18.3l-1.5-2.2l-21.6,11.4l13.1-21.2l-1.9-1.7
      l-20.1,14.9l9.6-22.5l-2.3-1.3l-16.9,17.3l4.3-22.1l-2.5-1.1l-15.3,25.3l-1.3,5.8l-2.9,4L90.8,57l1.6,0.8l7.5-3.9l3.2-4.5l1.3-5.8
      L119,19.4l0.3,0.1l-5,25.7l19.5-20l0.3,0.1l-11.2,26.2l23.4-17.3l0.1,0.1L131,59.2l25.2-13.4l0.2,0.3l-18.3,21.1l25.2-7.1l0.2,0.3
      l-22.8,16.5l-5.6,1.8l-4.2,3.7l-3.3,7.8h-0.1l0.9,1.5l0,0L132,83.2z"/>
    <circle class="st0" cx="121.5" cy="14.6" r="4.8"/>
    <path class="st1" d="M117.8,18.7c-2.2-2.1-2.3-5.5-0.3-7.8s5.5-2.3,7.8-0.3c2.2,2,2.3,5.5,0.3,7.7
      C123.5,20.6,120.1,20.7,117.8,18.7C117.8,18.7,117.8,18.7,117.8,18.7z M124.3,11.6c-1.7-1.5-4.2-1.4-5.8,0.2s-1.4,4.2,0.2,5.8
      c1.7,1.5,4.2,1.4,5.8-0.2c0,0,0,0,0,0C126,15.7,125.9,13.1,124.3,11.6C124.2,11.6,124.2,11.6,124.3,11.6L124.3,11.6z"/>
    <circle class="st0" cx="150.2" cy="30.5" r="4.8"/>
    <path class="st1" d="M146.4,34.5c-2.2-2.1-2.3-5.5-0.3-7.8s5.5-2.3,7.8-0.3c2.2,2.1,2.3,5.5,0.3,7.7
      C152.2,36.5,148.7,36.6,146.4,34.5C146.5,34.6,146.5,34.6,146.4,34.5z M152.9,27.5c-1.7-1.5-4.2-1.4-5.8,0.2s-1.4,4.2,0.2,5.8
      c1.7,1.5,4.2,1.4,5.8-0.2c0,0,0,0,0,0C154.7,31.6,154.6,29,152.9,27.5z"/>
    <circle class="st0" cx="136.8" cy="20.7" r="4.8"/>
    <path class="st1" d="M133.1,24.8c-2.2-2.1-2.3-5.5-0.3-7.8s5.5-2.3,7.8-0.3c2.2,2,2.3,5.5,0.3,7.7l0,0
      C138.8,26.7,135.4,26.9,133.1,24.8C133.1,24.8,133.1,24.8,133.1,24.8z M139.6,17.7c-1.7-1.5-4.2-1.4-5.8,0.2s-1.4,4.2,0.2,5.8
      s4.2,1.4,5.8-0.2c0,0,0,0,0,0C141.3,21.8,141.2,19.3,139.6,17.7z"/>
    <circle class="st0" cx="161" cy="43" r="4.8"/>
    <path class="st1" d="M157.3,47c-2.2-2.1-2.4-5.5-0.3-7.8c2.1-2.2,5.5-2.4,7.8-0.3c2.2,2,2.4,5.5,0.3,7.7l0,0
      C163,49,159.6,49.1,157.3,47C157.3,47.1,157.3,47.1,157.3,47z M163.8,40c-1.7-1.5-4.2-1.4-5.8,0.3c-1.5,1.7-1.4,4.2,0.3,5.8
      c1.7,1.5,4.2,1.4,5.8-0.2l0,0C165.5,44.1,165.4,41.5,163.8,40L163.8,40z"/>
    <circle class="st0" cx="168.4" cy="57.8" r="4.8"/>
    <path class="st1" d="M164.7,61.8c-2.2-2.1-2.3-5.5-0.3-7.8c2.1-2.2,5.5-2.3,7.8-0.3c2.2,2.1,2.3,5.5,0.3,7.7
      C170.4,63.7,167,63.9,164.7,61.8C164.7,61.9,164.7,61.8,164.7,61.8z M171.2,54.8c-1.7-1.5-4.2-1.4-5.8,0.2s-1.4,4.2,0.2,5.8
      s4.2,1.4,5.8-0.2c0,0,0,0,0,0C172.9,58.9,172.8,56.3,171.2,54.8z"/>
    <path class="st1" d="M102.5,49.9l0.3-1.4c0.3,0.1,8.2,2.1,19.4,12.4s13.8,18,13.9,18.3l-1.4,0.5c0-0.1-2.7-7.7-13.6-17.7
      S102.6,49.9,102.5,49.9z"/>
    <path class="st1" d="M103.7,44.4c-0.3-0.2-0.4-0.6-0.5-0.9l1.4-0.3c0,0,0,0.1,0,0.1c0.3,0.2,1.8-0.4,3.2-1.5l0.7-0.5l0.3,0.8
      c0.5,1.2,1.2,2.4,2,3.4c2.4,2.2,3.9,2,7.4,1.4l0.8-0.1l0.1,0.7c0.5,4.1,4.2,7.1,8.3,6.6l0,0l0.9-0.1l-0.1,0.9
      c-0.3,2.2,0.6,4.4,2.3,5.9c1.4,1.2,3.1,1.9,4.9,2h0.8l-0.1,0.8c-0.4,3.5-0.6,5.1,1.8,7.3c1.1,0.7,2.4,1.2,3.7,1.5l1,0.3l-0.6,0.8
      c-0.6,0.8-1.3,2.3-1.1,3c0,0.2,0.2,0.3,0.3,0.3l-0.6,1.3c-0.5-0.2-1-0.7-1.1-1.3c-0.1-1.2,0.1-2.4,0.8-3.4
      c-1.2-0.3-2.4-0.9-3.4-1.6c-2.7-2.6-2.7-4.6-2.4-7.8c-1.9-0.2-3.7-1-5.1-2.3c-1.8-1.6-2.8-3.8-2.7-6.2c-4.3,0.1-8.1-2.9-8.9-7.2
      c-3.2,0.5-5.3,0.7-8-1.8c-0.8-0.9-1.5-2-2-3.1c-1.1,0.7-2.7,1.6-3.9,1.1C104,44.7,103.8,44.6,103.7,44.4z"/>
    <path class="st1" d="M130.9,83.2c-7.3-12.7-18.3-22.9-31.7-29.1l0.6-1.3c13.6,6.3,24.9,16.7,32.4,29.8L130.9,83.2z"/>
    <path class="st1" d="M127.4,91.1c-0.2-1-1-3.1-4.2-7.2c-3.4-4.3-7.1-8.3-11.2-12c-4-3.7-8.3-7.1-12.8-10.1
      c-4.4-2.8-6.5-3.5-7.5-3.6l0.1-1.4c1.8,0.1,4.4,1.4,8.2,3.8c4.6,3,9,6.5,13,10.3c4.1,3.7,7.9,7.8,11.3,12.1
      c2.7,3.5,4.2,6.1,4.5,7.9L127.4,91.1z"/>
  </g>
</g>
</svg>
