<svg version="1.1" id="Layer_1" xmlns="http://www.w3.org/2000/svg" x="0" y="0" viewBox="0 0 180 180" style="enable-background:new 0 0 180 180" xml:space="preserve"><style>.st0{fill:#bf3b43}.st1{fill:#040000}</style><path class="st0" d="m102.1 36.9 4.5 61 13.8 10.2L122 124H22l1.6-15.9 13.8-10.2 4.5-61"/><path class="st1" d="m124.5 104.3-13.6-10.1-4.3-56.5-6.8-3.1H44l-.1-.1-7 2.8.6.4-4.3 56.5-13.6 10.1-2.5 22.6h110l-2.6-22.6zm-81-63.4h57l3.7 50.3H39.8l3.7-50.3zM72 120.6H24.2l1.3-12.8 13.8-10.2h65.4l13.8 10.2 1.3 12.8H72z"/><path class="st0" d="m138 55.5 4.4 61.1 13.8 10.2 1.7 15.9h-100l1.6-15.9 13.8-10.2 4.6-61.1"/><path class="st1" d="m160.4 122.9-13.7-10.1-4.2-56.5-6.8-3.1H79.8l-6.9 2.7.5.5-4.2 56.5L55.5 123 53 145.7h110l-2.6-22.8zM79.5 59.5h57l3.8 50.4H75.7l3.8-50.4zm28.5 79.6H60.1l1.3-12.7 13.8-10.2h65.3l13.7 10.2 1.3 12.7H108z"/></svg>