<svg version="1.1" id="Layer_1" xmlns="http://www.w3.org/2000/svg" x="0" y="0" viewBox="0 0 180 180" style="enable-background:new 0 0 180 180" xml:space="preserve"><style>.st1{fill:#040000}</style><g id="Layer_2"><g id="Layer_1-2"><path d="M31.1 169.1h26.3v-13.5h23v13.5h26.3v-13.5h23.1v13.5H156v-34.2l-24.2-16.6H55.3l-24.2 16.6zM60 21.3c-4.4-3.8-9.4-6.8-14.8-8.8-.2 5.9.7 11.7 2.8 17.3l.2.7-.5.5c-.6.6-1.2 1.2-1.7 1.8l-.2.2c-.3.3-.5.6-.8.9-.7.8-1.3 1.6-1.8 2.4-.2.3-.6 1-1.2 1.8-1.2 1.9-1.8 4.8-1.8 8.4v.1c-.3 3.7-3.7 9.5-8.2 16.6-3.8 6-6.7 9.7-6.7 12.9 0 2.3.3 4.5 1 6.7 1.2 3.9 5 7.3 9.4 9L39 90s3.3 2.7 6.5 2.7 7.6-6 8.4-7.6c0 0 .7-4.3 3.4-7 3-3.1 7.2-3.5 12.9-5.6 5.3-1.4 9-6.8 9-6.8.2 3.8-.3 7.5-1.4 11.1-1.9 5.2-6.5 9.8-11 14.3l-2.6 2.6c-3.1 3.2-4.3 5-4.7 5.7-3.1 5.6-4 9.2-4.3 10.8-.4 2.3-.5 4.6-.3 6.9h76.7v-12.8c0-11-.4-25.2-3.9-37.5-2.8-9.7-7.9-19.6-13.7-26.4-8.1-9.7-21.9-15.6-32.3-16.1-2.5-.2-5-.2-7.5 0-.8-2.1-2.3-7-8-10.9-2.6 2.1-4.8 4.8-6.2 7.9z" style="fill:#bf3b43"/><path class="st1" d="M132.8 118.2H54l-.1-1c-.2-2.4-.1-4.9.3-7.3.3-1.7 1.2-5.4 4.4-11.2.5-1 1.8-2.9 4.8-6 .8-.9 1.7-1.7 2.6-2.6 4.4-4.4 8.9-8.9 10.8-13.9.8-2.5 1.2-5.1 1.3-7.7-2.1 2.2-4.7 3.9-7.5 4.8-1.6.6-3.1 1-4.4 1.4-3.4 1-6.1 1.9-8 3.9-2.3 2.4-3.1 6.3-3.1 6.4v.2l-.1.4c-.6 1.1-5.3 8.2-9.4 8.2-2.7 0-5.4-1.7-6.6-2.5l-3.4 1.8-.5-.2c-5-1.9-8.9-5.7-10.1-9.7-.7-2.3-1.1-4.6-1-7 0-3 2-6 4.7-10.2.7-1 1.4-2.1 2.2-3.3 3.9-6.1 7.7-12.5 8-16.1v-.1c0-3.7.7-6.8 2-8.9l1.2-1.8c.6-.9 1.3-1.8 2-2.6.3-.3.5-.6.8-.9l.2-.2c.5-.6 1.1-1.3 1.7-1.8-2.1-5.7-3-11.7-2.8-17.7l.1-1.6 1.5.6c5.1 1.9 9.8 4.7 14 8.1 1.5-2.8 3.5-5.2 6-7.1l.6-.5.7.5c3.8 2.6 6.7 6.3 8.2 10.7 2.2-.1 4.5-.1 6.7.1 9.7.5 24.1 5.9 33.1 16.5 5.9 7 11.1 17 13.9 26.8 3.4 12.4 3.9 26.7 3.9 37.8l.1 13.7zM56 116h74.5v-11.7c0-10.9-.4-25-3.8-37.2-2.7-9.6-7.8-19.3-13.5-26-8.5-10.1-22.3-15.2-31.5-15.7-2.4-.2-4.9-.2-7.3 0l-.8.1-.5-1.3c-1.2-3.8-3.6-7.1-6.8-9.4-2.3 1.9-4.1 4.3-5.3 7l-.6 1.4-1.1-1c-3.9-3.4-8.3-6.1-13-8.1 0 5.2.9 10.4 2.7 15.2l.5 1.3-1 1c-.6.5-1.1 1.1-1.6 1.7l-.2.3c-.3.4-.6.7-.9 1-.6.7-1.1 1.4-1.6 2.2-.2.3-.6 1-1.2 1.9-1.1 1.6-1.6 4.4-1.6 7.7v.2c-.3 3.8-3.3 9.1-8.4 17.1-.7 1.2-1.5 2.3-2.2 3.4-2.5 3.9-4.4 6.7-4.4 8.9 0 2.1.3 4.3.9 6.3 1 3.3 4.2 6.4 8.3 8.1l3.7-2 .6.5s3 2.5 5.8 2.5c2.4 0 6.3-5 7.4-6.9.2-.9 1.1-4.8 3.6-7.4 2.4-2.4 5.4-3.4 9-4.5 1.4-.4 2.8-.8 4.3-1.4h.1c4.9-1.3 8.3-6.3 8.4-6.3l1.8-2.5.2 3.1c.2 3.9-.3 7.8-1.5 11.6-2 5.4-6.7 10.1-11.3 14.7l-2.6 2.6c-3.1 3.2-4.2 4.9-4.5 5.5-3.1 5.5-3.9 8.9-4.2 10.4-.4 1.9-.5 3.8-.4 5.7z"/><path class="st1" d="M39 91c-.6 0-1.1-.5-1.1-1.1 0-.4.2-.7.5-1 2.7-1.7 5-3.8 7-6.3.4-.5 1.1-.5 1.6-.1s.5 1.1.1 1.6c-2.2 2.6-4.7 4.9-7.6 6.8-.1.1-.3.2-.5.1zm40.2-24.2c-.6 0-1.1-.5-1.1-1.1 0-.2 0-.4.1-.5 1.3-2.7 2.1-5.6 2.3-8.5 0-.6.5-1.1 1.1-1 .6 0 1.1.6 1 1.2-.2 3.3-1.1 6.5-2.6 9.5 0 .2-.4.4-.8.4zM33.5 78.9c-.8 0-1.5-.7-1.5-1.5 0-.3.1-.5.2-.7 1-1.6 3.2-4.1 5.2-3.5.6.2 1.7.9 1.6 3 0 .6-.4 1.1-1 1.3l-4 1.3c-.2.1-.4.1-.5.1z"/><circle class="st1" cx="54" cy="45.1" r="3.5"/><path class="st1" d="M58.3 28.9c-.6 0-1.1-.5-1.1-1.1.2-2.4.8-4.7 1.9-6.9.2-.6.8-.9 1.4-.7.6.2.9.8.7 1.4v.1s0 .1-.1.1c-.9 1.9-1.5 3.9-1.6 6-.1.6-.6 1.1-1.2 1.1zM75.9 33c-.5 0-1-.4-1.1-.9-.5-2.7-1.2-6.8-1.5-7.4-.2-.6.1-1.2.7-1.4.6-.2 1.2.1 1.4.6.4 1 1.4 6.7 1.6 7.8.1.6-.3 1.2-.9 1.3h-.2zM49.7 49.3c-.2 0-.4 0-.6-.1-.7-.3-1.1-1.2-.7-2 1.9-4.1 5.1-7.3 9.2-9.1.8-.3 1.6.1 1.9.8.3.7 0 1.5-.7 1.9l-.1.1c-3.3 1.6-6 4.2-7.6 7.6-.3.4-.8.8-1.4.8z"/><path d="m31.1 135.5 124.9-.1M55.3 118l77.5.3m-77.5 0-24.2 16.6v34.2h26.3v-13.5h23v13.5h26.3v-13.5h23.1v13.5H156v-34.2l-24.2-16.6" style="fill:none;stroke:#040000;stroke-width:2.5;stroke-miterlimit:10"/></g></g></svg>