<svg version="1.1" id="Layer_1" xmlns="http://www.w3.org/2000/svg" x="0" y="0" viewBox="0 0 180 180" style="enable-background:new 0 0 180 180" xml:space="preserve"><style>.st0{fill:#bf3b43}.st1{fill:#040000}</style><g id="Layer_2"><g id="Layer_1-2"><path class="st0" d="M39.1 143.6c-.7-15 3.9-28.1 14.9-37.5 7-2 10.2-4.8 12.2-9 1.8-3.9 4.2-7.5 7-10.8-9.5-9.9-19.3-2.4-25.8-.2-4.2 1.7-6.7 2.6-8.9 5.3l-3.5 4-6-4.6 7-5.8-11.2-10-5.8 3.6-1.5-14 32.7-21.5c2.6-6.1 18.5-15 30.3-22.4l4.5-6.2 5.3 11.9c21.3 9.6 29.3 22.7 35.4 37.7 4.7 17.2 3.9 29.2 2.9 40.8s-2.5 22.9 1.6 38.7H39.1z"/><path class="st1" d="m27.4 64.1 2.8-.4 3.2 2.7-4 4.7-4.9-2.3 2.9-4.7zm48.8-17L58 46.9l10-8.6c3.4-2.8 12.1 8.8 8.2 8.8zm-25-2.6-3.9-5.2c.3-2.2 3.7-5.3 10-9.3s12.5-8 18.9-12.3L86 4.6l8.2 18.6c39.1 19.7 46 46.7 41.1 87.6-1.7 12.5.2 25.1 5.3 36.6H34.1c-1-20.3 3.6-33.2 19-46.2 8.9-1.8 12.5-10 14.6-13.4-13.5-2.4-21.9-.7-25 5.1s-4.8 8.8-4.8 8.8L19.3 91.3l9.9-7-4.4-4.3-10.5 7.4-1-25.5 34-22.6s3.4-1.2 4-.4 0 5.6-.1 5.6L19.8 65.2l.3 10.7 5.5-3.5 11.8 12.3-6.7 5.6 4 2.4 3.3-3.9c2.5-2.8 5.7-4.9 9.3-6.2 6.2-2.1 21.4-5.5 30.5 4-3.1 3.4-5.7 7.2-7.8 11.3-2 4-6.3 6.9-13 8.8-10.5 9-17.3 19.9-16.6 34.3h87.4c-4-15.2-2.8-26.1-1.6-37.2s1.8-22.7-2.8-39.3c-5.8-14.4-13.5-27-34-36.2l-5-11.3-4.2 6c-11.2 7.1-26.5 15.7-29 21.5z"/><path class="st1" d="M73.3 83c-.9 1 .9 4.1 4.6 3.6 1.5-.2 2.2-1.3 3.2-1.2.9.1 1.9.1 2.8-.1 8.9-1.3 15.3-11.1 15.5-21.4l-1.6-5.7c-3.2 13.6-8.5 21-16.1 22-1.2.2-2.5.3-3.9.4-1.7.3-3.3 1.1-4.5 2.4z"/><path class="st0" d="M76.4 145.7c-.1.3-.2.7-.3 1-5.1 11.4-11.8 12-22.3 12H30.7c-7.7 0-13.8 8.1-13.8 11.2v2.2H60c9.2 0 26.4-9 26.6-26.3v-.1H76.4zm72.9 12.8h-23.1c-10.8 0-17.2-.6-22.3-12.1-.1-.2-.1-.5-.2-.7H93.4c.2 17.2 17.6 26.5 26.5 26.5H163v-2.3c.1-3.1-6.2-11.4-13.7-11.4z"/><path class="st1" d="M149 152.1h-24.1c-6.7 0-11.1.4-15.3-6.4h-7.8c5.8 13.2 13.8 13.6 24.5 13.6h23.1c6.6 0 11.6 7.3 11.6 9h-41c-8.2 0-23.2-8.1-24.2-22.5H84.2c-1.2 14.4-16 22.4-24.2 22.4H19.1c0-1.6 4.9-9 11.6-9h23.1c10.4 0 18.6-.4 24.4-13.5h-7.9c-4.3 6.7-8.7 6.4-15.3 6.4H31c-9.9 0-20 8.2-20 23.2h47.7c15.7 0 31.3-12.6 31.3-27.3 0 14.6 15.4 27.3 31.2 27.3H169c0-15-10.2-23.2-20-23.2z"/></g></g></svg>