<svg version="1.1" id="Layer_1" xmlns="http://www.w3.org/2000/svg" x="0" y="0" viewBox="0 0 180 180" style="enable-background:new 0 0 180 180" xml:space="preserve"><style>.st0{fill:#bf3b43}.st1{fill:#040000}</style><path class="st0" d="m98.4 95.3 3.2 43.5 9.8 7.3 1.2 11.3H41.2l1.1-11.3 9.8-7.3 3.2-43.5"/><path class="st1" d="m114.4 143.4-9.8-7.3-3-40.3-4.9-2.2H56.9l-.1-.1-5 1.9.4.3-3 40.3-9.8 7.2-1.7 16.2h78.5l-1.8-16zM56.6 98.2h40.7l2.7 36H54l2.6-36zM76.9 155H42.8l.9-9.1 9.8-7.3h46.7l9.8 7.3.9 9.1h-34z"/><path class="st0" d="m58 79.5.6.6.8-.3c5.4-1.8 11.2-2.7 16.9-2.5 5.8-.1 11.5.7 16.9 2.5l.8.3.6-.6c8.1-7.7 11.1-15.3 9.1-22.6-2.6-8.3-11.3-17.1-26.7-27.2l-.7-.6-.7.6c-15.5 10-24.2 19-26.7 27.2-2 7.2 1 14.8 9.1 22.6z"/><path class="st0" d="m93.5 81.7-.9-.3c-5.2-1.7-10.6-2.6-16-2.4-5.4-.2-10.9.6-16 2.4l-.9.4v1c-.1 3-.7 6.1-1.7 9l-.6 1.8H96l-.6-1.8c-1-2.9-1.6-5.9-1.7-9l-.2-1.1zM76.5 18c2.7 0 4 1.1 4 3.4.1 2.7-1.2 4-4 4-2.7 0-4-1.4-4-4 0-2.3 1.3-3.4 4-3.4z"/><path class="st1" d="M79.4 69.3V59.1h5.8v-5.4h-5.8v-6.3h-5.8v6.3h-5.8v5.4h5.8v10.2z"/><path class="st1" d="M99.5 43.2c-3.5-3.8-9.8-8.8-19.1-15.1 1.3-.9 4.6-2.7 4.6-7 0-4.7-3.9-8.2-8.7-8.2-4.9 0-8.7 3.5-8.7 8.2 0 4.4 3.2 6.1 4.6 7-9.2 6.3-15.6 11.2-19.1 15.1-3.1 3.3-5.6 7.3-7.3 11.6-3.3 9.8 1.1 17.7 10.4 27.4-.3 5-1.8 9.8-4.4 14h49.1c-2.6-4.2-4.1-9-4.4-14 4.7-4.9 7.9-9.4 9.9-13.7 4-8.4 0-17.6-6.9-25.3zM59.1 91.8c1-3 1.7-6.3 1.7-9.4 5-1.7 10.3-2.5 15.6-2.3 5.2-.2 10.6.6 15.6 2.3.1 3.2.7 6.4 1.7 9.4H59.1zM93.9 78c-5.6-1.8-11.5-2.8-17.5-2.6-5.8-.2-11.7.8-17.4 2.6-7.8-7.4-10.7-14.4-8.7-21.2 2.4-7.9 11.1-16.7 26.1-26.4 15 9.8 23.7 18.5 26.1 26.4 2 6.8-.8 13.9-8.6 21.2z"/><path class="st0" d="m124.5 102.8 3.2 43.6 9.8 7.3 1.2 11.4H67.2l1.1-11.4 9.8-7.3 3.2-43.6"/><path class="st1" d="m140.4 150.9-9.6-7.3-3-40.4-4.8-2.1H83l-5 2 .4.4-3 40.4-9.8 7.3-1.8 16h78.5l-1.9-16.3zm-57.9-45.3h40.8l2.7 36H80l2.5-36zm20.5 57H68.8l.9-9.1 9.8-7.3h46.6l9.8 7.3.9 9.1H103z"/><path class="st0" d="m84.1 87 .7.5.9-.4c5.5-1.8 11.2-2.7 16.9-2.5 5.7-.2 11.6.7 16.9 2.5l.9.4.7-.5c8-7.7 11.2-15.3 9.1-22.6-2.5-8.4-11.4-17.1-26.7-27.2l-.7-.5-.7.5c-15.5 10.1-24.2 19-26.7 27.2-2.5 7.2.5 14.9 8.7 22.6z"/><path class="st0" d="m119.5 89.3-.9-.4c-5.2-1.8-10.5-2.5-16-2.3-5.5-.2-10.9.7-16 2.3l-.9.4v1.1c-.2 3-.7 6.1-1.8 9.1l-.5 1.8H122l-.7-2c-1.1-2.8-1.6-5.9-1.8-9.1v-.9zm-17.1-63.8c2.7 0 3.9 1.1 3.9 3.4 0 2.8-1.2 4.1-3.9 4.1s-4.1-1.4-3.9-4.1c0-2.3 1.3-3.4 3.9-3.4z"/><path class="st1" d="M105.5 76.8V66.7h5.7v-5.6h-5.7v-6.2h-5.9v6.2h-5.7v5.6h5.7v10.1z"/><path class="st1" d="M125.6 50.6c-3.6-3.7-9.8-8.9-19-15.1 1.2-.9 4.6-2.7 4.6-7.1-.2-4.8-4.3-8.5-8.9-8.4-4.5.2-8.2 3.7-8.4 8.4 0 4.5 3.2 6.1 4.6 7.1-9.3 6.2-15.7 11.2-19 15.1-3.2 3.4-5.7 7.3-7.3 11.6-3.4 9.6 1.1 17.6 10.3 27.4-.4 5-1.8 9.8-4.3 14.1h48.9c-2.7-4.3-4.1-9.1-4.5-13.9 4.1-3.9 7.5-8.7 10-13.7 3.8-8.5-.1-17.8-7-25.5zM85.2 99.2c1.1-3 1.6-6.2 1.8-9.4 5-1.8 10.3-2.5 15.5-2.3 5.3-.2 10.5.7 15.5 2.3.2 3.2.7 6.4 1.8 9.4H85.2zm34.7-13.7c-5.7-1.8-11.6-2.7-17.4-2.7-5.9-.2-11.9.7-17.4 2.7-7.8-7.3-10.7-14.4-8.7-21.2 2.3-7.8 11.2-16.7 26.2-26.3 15 9.6 23.7 18.5 26.2 26.3 1.8 6.8-1.1 13.9-8.9 21.2z"/></svg>