
<svg version="1.1" id="Layer_1" xmlns="http://www.w3.org/2000/svg" xmlns:xlink="http://www.w3.org/1999/xlink" x="0px" y="0px"
   viewBox="0 0 180 180" style="enable-background:new 0 0 180 180;" xml:space="preserve">

<style type="text/css">
	.st0{fill:none;}
	.st1{fill:#BF3B43;}
	.st2{fill:#1A1A1A;}
	.st3{fill-opacity:0.2;}
</style>
<title>g</title>
<g>
	<rect class="st0" width="180" height="180"/>
	<g transform="matrix(1.209103 0 0 1.209103 -80.15058099999999 -24.390652)">
		<g>
			<path class="st1" d="M114.4,126c-0.9,0-1.7-0.5-2-1.2c-0.2-0.5-0.4-1.7,1.3-3.3c1.3-1.2,1.9-3.3,2.5-5.1c0.7-2.3,1.4-4.5,3.5-4.9
				c5.9-1.2,12.2-2.8,13.6-5.9c0.6-1.3,0.3-2.8-0.8-4.7l-0.9-1.4l1.8-0.4h0.2c0.2,0,0.5,0,0.9,0.1c0.9,0.1,2.3,0.3,4.2,0.3h0.5h1.1
				l0.2,1.1c0.8,5.1-1.8,12-18.5,16.1l-0.3,0.1c-1.4,0.3-1.5,1.1-1.5,3c0,1.3,0,2.8-1.1,3.9C117.4,125.2,115.7,126,114.4,126z"/>
			<path class="st2" d="M133.6,100.3c0.5,0,2.3,0.4,5.1,0.4c0.2,0,0.3,0,0.5,0c1.5,10.3-14.8,14.1-17.9,14.8c-4,1-1.4,5.5-3.2,7.2
				c-1.6,1.5-2.9,2.1-3.7,2.1c-1.1,0-1.3-1.1,0.1-2.4c3.2-3,2.7-9.2,5.4-9.7C128.9,111,138.3,108.3,133.6,100.3
				C133.5,100.3,133.5,100.3,133.6,100.3L133.6,100.3z M133.6,97.8c-0.2,0-0.4,0-0.7,0.1l-3.3,0.8l1.7,2.9c0.9,1.5,1.2,2.7,0.8,3.5
				c-1.3,2.9-9.6,4.6-12.7,5.2c-2.8,0.5-3.7,3.3-4.4,5.8c-0.5,1.7-1.1,3.6-2.2,4.6c-2.2,2.1-1.8,4-1.6,4.7c0.5,1.2,1.7,2,3.1,2
				c1.6,0,3.5-1,5.4-2.8c1.5-1.4,1.5-3.4,1.5-4.8c0-0.5,0-1.5,0.2-1.7l0,0c0,0,0.1-0.1,0.4-0.2l0.3-0.1
				c17.6-4.3,20.3-11.9,19.5-17.5l-0.3-2.2h-2.2c-0.2,0-0.3,0-0.5,0c-1.8,0-3.2-0.2-4-0.3C134.2,97.8,133.9,97.8,133.6,97.8
				L133.6,97.8z"/>
		</g>
		<path class="st3" d="M118.9,118.2c-0.1,0.9,0,2.6-0.2,3.3h-0.3c0.1-1.2,0-2.5,0.2-3.2C118.7,118.3,118.9,118.2,118.9,118.2
			L118.9,118.2z"/>
		<g>
			<path class="st1" d="M161.7,128.1c-1,0-1.9-0.3-2.6-1c-1.9-1.9-3.7-2.5-5.9-3.1l-1-0.3l0.1-1c0.9-9.2,2.7-44.8,1.6-52
				c-1.1,2.4-2.5,9.1-3.4,13.7c-2.4,12-3.7,17.4-6.4,18.1c-1,0.3-2.4,0.7-4,0.7c-1.5,0-2.8-0.4-4-1.1c-1.1-0.7-1-2.5-0.8-4.2
				c1.2-7.7,11.2-35.6,15.6-36.8c0.7-0.2,1.4-0.3,2.2-0.3c2.7,0,5.5,1,7,2.5c0.8,0.8,1.3,1.9,1.3,2.9c0,4.8-0.9,12.2-1.8,19.9
				c-1.3,11.1-2.8,23.7-2.4,33.1c0.1,1,4.4,3.5,6.9,4.2c1.5,0.4,1.9,1.4,1.8,2.2C165.6,127.1,163.5,128.1,161.7,128.1z"/>
			<path class="st2" d="M153.1,62.1c3.2,0,7,1.7,7,4.2c0,11.5-4.9,37-4.2,53c0.1,2.2,6.1,4.8,7.8,5.3c2.1,0.6-0.1,2.4-2.1,2.4
				c-0.6,0-1.3-0.2-1.8-0.6c-2.1-2-4.1-2.7-6.4-3.4c0.8-7.7,3.4-53.4,0.9-54.1c-0.1,0-0.1,0-0.2,0c-3.8,0-6.2,31.4-10.5,32.6
				c-0.9,0.3-2.3,0.6-3.7,0.6c-1.1,0-2.3-0.2-3.3-0.9c-2.7-1.7,10.6-37.8,14.5-38.8C151.8,62.1,152.4,62.1,153.1,62.1L153.1,62.1z
				 M153.1,59.6c-0.9,0-1.8,0.1-2.5,0.3c-1.2,0.3-3.6,0.9-9.8,16.3c-2.8,7-6,16.4-6.8,21.5c-0.2,1.4-0.7,4.2,1.3,5.5
				c1.4,0.8,2.9,1.3,4.7,1.3c1.7,0,3.3-0.4,4.3-0.7h0.1c3.3-0.9,4.6-6,7.3-19c0.4-2,0.9-4.3,1.4-6.5c0.1,13-1.2,37.3-1.9,44.5
				l-0.2,2.1l2,0.6c2.1,0.6,3.6,1.2,5.4,2.8c0.9,0.9,2.1,1.3,3.5,1.3c2.4,0,5.1-1.4,5.4-3.7c0.2-1.2-0.4-2.9-2.7-3.5
				c-1.6-0.4-5.2-2.3-6-3.3c-0.4-9.2,1.1-21.6,2.4-32.6c1-8.1,1.8-15.2,1.8-20.1c0-1.4-0.6-2.7-1.7-3.8
				C159.2,60.7,156.1,59.6,153.1,59.6L153.1,59.6z"/>
		</g>
		<path class="st3" d="M136.6,101c-2.7-1.7,10.6-37.8,14.5-38.8c3.4-0.9,8.9,0.9,8.9,3.9c0,11.5-4.9,37-4.2,53
			c0.1,2.2,6.1,4.8,7.8,5.3c2.8,0.8-1.9,3.6-3.9,1.7c-2.1-2-4.1-2.7-6.4-3.4c0.8-7.7,3.4-53.4,0.9-54.1c-3.9-1.2-6.3,31.3-10.7,32.6
			C142,101.7,139,102.6,136.6,101L136.6,101z"/>
		<g>
			<path class="st1" d="M125.9,112.2c-6.3,0-11.4-0.7-15.7-2.1l-0.9-0.3l0.1-1c0.5-7.2,0.5-15.9-3.4-20.4l-1.1-1.2l1.4-0.7
				c5-2.5,12.2-3.7,22-3.7c12,0,25.2,1.8,34.8,3.1c4.5,0.6,8.1,1.1,10.3,1.2c10.8,0.6,11.5,7.1,11.5,9.1c-0.1,5.4-4.8,10.6-9.7,10.7
				c-5.7,0.1-12.8,1.2-20.4,2.3C145.2,110.8,135.2,112.2,125.9,112.2z"/>
			<path class="st2" d="M128.4,84.2c17.6,0,38,4,45,4.4c16.8,1,9.8,17.1,1.7,17.3c-13,0.3-32.7,5.2-49.3,5.2c-5.6,0-10.8-0.5-15.3-2
				c0.5-7.1,0.6-16.4-3.7-21.3C112.2,85.1,120,84.2,128.4,84.2L128.4,84.2z M128.4,81.7v2.5V81.7L128.4,81.7
				c-10.1,0-17.5,1.2-22.6,3.8l-2.9,1.4l2.1,2.4c3.6,4.1,3.5,12.6,3.1,19.5l-0.1,1.9l1.8,0.6c4.4,1.4,9.7,2.1,16.1,2.1
				c9.4,0,19.4-1.5,29.2-2.9c7.5-1.1,14.6-2.1,20.2-2.3c5.5-0.1,10.9-5.9,11-11.9c0-2.2-0.8-9.6-12.6-10.3
				c-2.2-0.1-5.7-0.6-10.2-1.2C153.7,83.5,140.5,81.7,128.4,81.7L128.4,81.7z"/>
		</g>
		<g>
			<path class="st1" d="M136.9,99.6c-4.8,0-8.6-0.3-11.6-1l-1.5-0.3l0.6-1.4c0.8-1.6,2.2-7.9-0.2-12.2l-0.4-0.8l0.6-0.7
				c2-2.2,6.8-3.2,14.8-3.2c19.7,0,51.9,6.4,58.8,8c5.1,1.2,6,3,5.8,4.4c-0.2,2.2-3.3,3.7-7.5,3.7c-0.2,0-0.3,0-0.5,0
				c-0.9,0-1.9,0-2.9,0c-8.2,0-18.3,0.9-28.1,1.8C155.1,98.7,145,99.6,136.9,99.6z"/>
			<path class="st2" d="M139.2,81.3c18.7,0,49.7,5.9,58.5,7.9c8.3,1.9,4.7,5.7-1.4,5.7c-0.1,0-0.3,0-0.4,0c-0.9,0-1.9,0-2.9,0
				c-16.4,0-39.9,3.6-56.1,3.6c-4.4,0-8.3-0.3-11.3-0.9c0.9-2,2.4-8.6-0.2-13.3C127.2,82.1,132.4,81.3,139.2,81.3L139.2,81.3z
				 M139.2,78.8v2.5V78.8c-8.4,0-13.4,1.2-15.7,3.6l-1.2,1.3l0.8,1.6c2,3.7,1,9.4,0.2,11.1l-1.3,2.8l3,0.7c3,0.7,6.9,1,11.8,1
				c8.2,0,18.3-0.9,28.1-1.8s19.9-1.8,28-1.8c1,0,1.9,0,2.8,0c0.2,0,0.3,0,0.5,0c4.1,0,8.3-1.5,8.7-4.8c0.2-1.9-0.8-4.4-6.8-5.8
				C191.3,85.2,159,78.8,139.2,78.8L139.2,78.8z"/>
		</g>
		<g>
			<path class="st1" d="M164.8,128.1c-1,0-1.9-0.3-2.5-1c-1.8-1.8-3.5-2.3-5.6-3l-1-0.3l0.1-1c1-8.9,2.9-42.9,1.9-50.3
				c-1.1,2.4-2.4,8.8-3.3,13.2c-2.4,11.7-3.7,16.9-6.3,17.6c-1,0.3-2.4,0.7-3.9,0.7c-1.4,0-2.7-0.3-3.8-1s-1-2.3-0.8-3.9
				c1-6.9,10.9-34.8,15.3-36c0.7-0.2,1.4-0.3,2.2-0.3c2.6,0,5.2,0.9,6.6,2.4c0.8,0.8,1.2,1.8,1.2,2.8c-0.1,4.7-0.9,11.8-1.9,19.3
				c-1.4,10.8-2.9,23.1-2.5,32.1c0.1,0.9,4.2,3.3,6.5,3.9c1.4,0.4,1.8,1.4,1.7,2.1C168.7,127,166.6,128.1,164.8,128.1z"/>
			<path class="st2" d="M157.2,64c3.1,0,6.7,1.6,6.6,4c-0.1,11.2-5,35.9-4.4,51.5c0.1,2.1,5.8,4.6,7.4,5.1c2,0.5-0.1,2.3-2,2.3
				c-0.6,0-1.2-0.2-1.7-0.6c-2-1.9-3.9-2.6-6.1-3.3c0.8-7.5,3.7-51.8,1.2-52.5c-0.1,0-0.1,0-0.2,0c-3.7,0-6.1,30.5-10.3,31.7
				c-0.9,0.3-2.2,0.6-3.6,0.6c-1,0-2.1-0.2-3.1-0.8l0,0c-2.6-1.6,10.5-36.7,14.2-37.7C155.9,64.1,156.5,64,157.2,64L157.2,64z
				 M157.2,61.6c-0.9,0-1.8,0.1-2.5,0.3c-1.1,0.3-3.5,0.9-9.6,16.1c-2.8,6.9-5.9,16.1-6.7,21c-0.2,1.3-0.6,4,1.3,5.2
				c1.3,0.8,2.8,1.2,4.5,1.2s3.2-0.4,4.2-0.7h0.1c3.2-0.9,4.5-5.8,7.1-18.5c0.3-1.6,0.7-3.5,1.1-5.4c-0.1,12.8-1.5,35.4-2.2,42.1
				l-0.2,2.1l2,0.6c2,0.6,3.4,1.1,5.1,2.7c0.9,0.9,2.1,1.3,3.4,1.3c2.3,0,5-1.5,5.3-3.7c0.2-1.3-0.6-2.9-2.6-3.5
				c-1.5-0.4-4.9-2.1-5.6-3c-0.3-8.9,1.2-21,2.5-31.6c1-7.9,1.8-14.7,1.9-19.5c0-1.4-0.5-2.7-1.6-3.7
				C163.1,62.6,160.1,61.6,157.2,61.6L157.2,61.6z"/>
		</g>
		<g>
			<path class="st1" d="M111.5,126.3c-0.9,0-1.7-0.5-2-1.2c-0.2-0.5-0.4-1.7,1.3-3.3c1.3-1.2,1.9-3.3,2.5-5.1
				c0.7-2.3,1.4-4.5,3.5-4.9c4.2-0.8,12.1-2.4,13.6-5.7c0.5-1.2,0.3-2.7-0.8-4.6c-0.2-0.3-0.3-0.6-0.2-1c0.1-0.6,0.7-1,1.2-1
				c0.1,0,0.2,0,0.4,0c0.5,0,1.8,0.2,4.2,0.2c0.3,0,1.1,0,1.1,0c0.6,0,1.1,0.4,1.2,1.1c0.8,5.1-1.8,12-18.5,16.1l-0.3,0.1
				c-1.4,0.3-1.5,1.1-1.5,3c0,1.3,0,2.8-1.1,3.9C114.4,125.4,112.8,126.3,111.5,126.3z M113.1,108.9c-1.3,0-2.4-0.6-3.3-1.9
				c-0.2-0.2-0.3-0.5-0.2-0.8c1.1-14.4-4.5-18.9-4.8-19.1c-1.2-0.9-1.2-1.8-1-2.3c0.2-0.7,0.9-2.7,13.1-2.7c2,0,3.6,0.1,4.4,0.2
				c1.5,0.2,2.7,1.5,3.5,3.5c1.5,4,0.9,10.7-2.5,14.8c-0.5,0.6-1.1,1.3-1.6,2.1C118.4,105.6,115.9,108.9,113.1,108.9z"/>
			<path class="st2" d="M116.9,83.4c1.9,0,3.5,0.1,4.2,0.2c3.8,0.6,4.7,11,0.2,16.2c-2.3,2.8-5.4,7.9-8.3,7.9
				c-0.8,0-1.6-0.4-2.3-1.4c1-13.3-3.5-18.8-5.2-20.1l0,0C102.6,84.1,111.2,83.4,116.9,83.4L116.9,83.4z M130.6,100.8
				c0.2,0,1.5,0.2,4.6,0.2c0.3,0,0.7,0,1.1,0c1.5,10.3-14.8,14.1-17.9,14.8c-4,1-1.4,5.5-3.2,7.2c-1.6,1.5-2.9,2.1-3.7,2.1
				c-1.1,0-1.3-1.1,0.1-2.4c3.2-3,2.7-9.2,5.4-9.7C125.9,111.2,135.4,108.8,130.6,100.8L130.6,100.8L130.6,100.8z M116.9,80.9
				L116.9,80.9c-2.9,0-5.7,0.1-7.9,0.4c-3.4,0.4-5.8,1.1-6.4,3.1c-0.2,0.5-0.5,2.2,1.5,3.7c1.9,1.4,5.1,7,4.2,18
				c0,0.6,0.1,1.2,0.5,1.7c1.5,2,3.2,2.4,4.3,2.4c3.4,0,6.1-3.6,8.5-6.7c0.6-0.8,1.1-1.5,1.6-2c3.8-4.5,4.4-11.6,2.7-16
				c-1.2-3.3-3.3-4.1-4.5-4.2C120.3,81,117.9,80.9,116.9,80.9L116.9,80.9z M130.6,98.3c-1.1,0-2.2,0.8-2.4,1.9
				c-0.2,0.7,0,1.4,0.3,1.9c0.9,1.4,1.1,2.6,0.8,3.4c-1.2,2.8-9.3,4.3-12.7,5c-2.8,0.5-3.7,3.3-4.4,5.8c-0.5,1.7-1.1,3.6-2.2,4.6
				c-2.2,2.1-1.8,4-1.6,4.7c0.5,1.2,1.7,2,3.1,2c1.6,0,3.5-1,5.4-2.8c1.5-1.4,1.5-3.4,1.5-4.8c0-0.5,0-1.5,0.2-1.7l0,0
				c0,0,0.1-0.1,0.4-0.2l0.3-0.1c17.6-4.3,20.3-11.9,19.5-17.5c-0.2-1.2-1.2-2.1-2.5-2.1l0,0c-0.4,0-0.7,0-1.1,0
				c-2.3,0-3.6-0.1-4.1-0.1C130.8,98.3,130.7,98.3,130.6,98.3L130.6,98.3z"/>
		</g>
		<g>
			<path class="st1" d="M100.1,122.6c-0.8,0-1.5-0.2-2.1-0.5c-10.5-5.3-16.2-12.7-17.9-23.3c-0.7-4.5,0.5-8.1,4.3-11.8
				c2.1-2.1,6.2-3.5,10.4-3.5c3,0,5.9,0.7,8.6,2.1c9.8,5.1,5.4,29.6,4.2,32.7C106.8,120.4,102.9,122.6,100.1,122.6L100.1,122.6z"/>
			<path class="st2" d="M94.7,84.9c2.6,0,5.3,0.5,8,1.9c8.7,4.5,4.9,27.8,3.7,31.1c-0.5,1.4-3.8,3.4-6.3,3.4c-0.6,0-1.1-0.1-1.5-0.3
				c-10-5-15.5-11.9-17.2-22.4l0,0c-0.6-3.5,0-6.8,3.9-10.7C86.9,86.4,90.5,84.9,94.7,84.9L94.7,84.9z M94.7,82.4L94.7,82.4
				c-4.5,0-8.9,1.5-11.2,3.8c-4,4-5.5,7.9-4.7,12.8c1.8,11,7.7,18.7,18.6,24.2c0.8,0.4,1.7,0.6,2.7,0.6c3.4,0,7.7-2.5,8.7-5
				c0.7-1.9,2.1-8.9,2.1-16c0-9.7-2.3-15.8-6.9-18.2C101.1,83.2,98,82.4,94.7,82.4L94.7,82.4z"/>
		</g>
		<path class="st2" d="M92.4,104.4c-2,0.3-4.6,0-6.2-3.6s-1.1-7.3,1.2-8.1c4.1-1.4,5.7,1.2,6.9,3.4C95.8,98.8,96.6,103.7,92.4,104.4
			z"/>
		<g>
			<path class="st2" d="M80.8,99.7c-0.2,0-0.4-0.2-0.5-0.4c-0.1-0.6-0.2-1.2-0.3-1.8c-0.1,0.1-0.2,0.2-0.3,0.3
				c-0.3,0.1-0.5-0.1-0.5-0.4c-1.9-9.2-1.8-22.1,21.3-26.9c0.3,0,0.5,0.1,0.6,0.4s-0.1,0.5-0.4,0.6C79.5,76,78.4,87.3,79.9,96
				c-0.6-5.4,0.4-10,2.8-13.7c3.3-4.9,9.4-8.2,18.2-9.8c0.3,0,0.5,0.1,0.5,0.4s-0.1,0.5-0.4,0.5c-8.5,1.5-14.4,4.7-17.5,9.4
				c-2.8,4.2-3.6,9.7-2.2,16.3C81.3,99.3,81.1,99.6,80.8,99.7C80.8,99.6,80.8,99.7,80.8,99.7z"/>
		</g>
	</g>
</g>

</svg>
