<svg version="1.1" id="Layer_1" xmlns="http://www.w3.org/2000/svg" x="0" y="0" viewBox="0 0 180 180" style="enable-background:new 0 0 180 180" xml:space="preserve"><style>.st0{fill:#bf3b43}.st1{fill:#040000}</style><g id="Layer_2"><g id="Layer_1-2"><path class="st0" d="M34.9 162.3c-.7-15 3.9-28.1 14.9-37.5 7-2 10.2-4.8 12.2-9 1.8-3.9 4.2-7.5 7-10.8-9.6-9.9-19.3-2.4-25.8-.2-4.2 1.7-6.6 2.6-8.9 5.3l-3.5 4-6.1-4.7 7-5.8-11.2-10-5.7 3.6-1.4-14 32.7-21.5c2.6-6.1 18.5-15 30.3-22.4l4.4-6.2L86.1 45c21.3 9.6 29.3 22.7 35.4 37.7 4.7 17.2 3.9 29.2 2.9 40.8s-2.5 23 1.7 38.8H34.9z"/><path class="st1" d="m23.3 82.8 2.9-.3 3.2 2.7-4 4.7-4.9-2.3 2.8-4.8zm48.8-17.1-18.2-.2 10-8.6c3.4-2.8 12 8.8 8.2 8.8zm-25-2.6-4-5.1c.3-2.2 3.7-5.3 10-9.3s12.5-8 18.9-12.3l9.8-13.2L90 41.9c39.1 19.7 46 46.7 41.1 87.6-1.7 12.5.2 25.1 5.3 36.6H29.9c-1-20.3 3.6-33.2 19-46.2 8.9-1.8 12.5-10 14.6-13.4-13.5-2.4-21.9-.7-25 5.1s-4.8 8.8-4.8 8.8L15.1 110l9.9-7-4.4-4.3-10.5 7.3-1-25.5 34-22.6s3.4-1.2 4-.4 0 5.6 0 5.6L15.6 83.8l.4 10.7 5.5-3.6 11.8 12.4-6.7 5.6 4 2.4 3.3-3.9c2.5-2.8 5.7-5 9.3-6.3 6.2-2.1 21.3-5.5 30.5 4-3.1 3.4-5.7 7.2-7.8 11.3-2 4-6.3 6.9-13 8.8-10.5 9-17.3 19.9-16.6 34.3h87.4c-4-15.2-2.8-26.1-1.6-37.2s1.8-22.7-2.8-39.2c-5.8-14.4-13.5-27-34-36.2l-5.1-11.4-4.1 5.9c-11.3 7.3-26.6 15.9-29 21.7z"/><path class="st1" d="M69.1 101.6c-.9 1 .9 4.1 4.6 3.6 1.5-.2 2.2-1.3 3.2-1.2 1 .1 1.9.1 2.9-.1 8.9-1.3 15.3-11.1 15.5-21.4l-1.6-5.7c-3.2 13.6-8.5 21-16.1 22-1.2.2-2.5.3-3.9.4-1.7.3-3.3 1.2-4.6 2.4z"/><path class="st0" d="M164.9 71.9c1.7-1.3 3-2.9 3.9-4.8.9-1.9 1.5-3.9 1.7-6 .2-2 .1-4.1-.4-6.1-.5-1.9-1.3-3.7-2.5-5.2s-2.8-2.7-4.5-3.5c-1.9-.9-3.9-1.5-6-1.8l-1.6-.2 1.3-.5c1.3-4.2 1.3-7.2-.1-9.1-1.4-1.8-4.4-2.7-8.8-2.4l-.7.6.1-1.1c.5-4.7-.4-8.9-2.5-11.5-2.7-3.2-6.6-5.3-10.8-5.7-2-.3-4-.2-6 .3s-3.8 1.3-5.4 2.6c-2.9 2.4-5.1 5.6-6.4 9.2-1.7 4.8-2.6 9.8-2.7 14.8v.2l-13.3 7.2 28.7 37 10.2-11.1.2.1c4.9 1.1 10 1.4 15 1 3.8-.4 7.5-1.8 10.6-4z"/><path class="st1" d="M155.4 33c1.1.7 2 1.8 2.4 3.1l5-3.9 2.7 3.5 3.1-2.4-2.7-3.5 3.1-2.4-2.4-3.1-3.1 2.4-2.7-3.5-3.1 2.4 2.7 3.5-5 3.9zm-35.1 22.4.7 6.7 6.3 2.5-.6-6.7z"/><path d="M154.7 43.8h.6l-1.4-.1c1.1-4 1.3-6.5.5-7.5s-3.3-1.5-7.4-1.4l.1-.6c-1.2 4.7-3.4 9-6.5 12.7 4.4-2 9.2-3.1 14.1-3.1zM129.1 56c-3.8-4.9-8.5-9.1-13.9-12.2l-1.7.9.6 5.8-6.5-2.6-3.5 1.8 24.9 32 8.5-9.2c-1.8-6-4.6-11.6-8.4-16.5zm1.5-3.2c6.4-5 11-11.5 12.4-15.7 2.3-4.9 2.3-11.8-.5-15.4-3.5-4.5-12.6-6.7-18.5-2.1-4.8 3.7-7.4 12.8-7.7 21.1 5.4 3.2 10.3 7.3 14.3 12.1zm34.9-1.3c-2.8-3.6-9.4-5.3-14.8-4.3-4.4.2-11.9 3.1-18.3 8.1 3.7 5.1 6.4 10.8 8.1 16.8 8.1 1.8 17.6 1.5 22.4-2.2 5.9-4.6 6.1-13.9 2.6-18.4z" style="fill:none"/><path class="st1" d="M165 72.2c6.9-5.4 7.6-16.6 2.8-22.8-2.4-3.2-7.1-5.1-11.9-5.6l1.1.2c1.5-4.4 1.4-7.7-.1-9.7-1.6-2-4.7-2.9-9.3-2.6 0 .3-.1.7-.2 1.2.7-4.8 0-9.8-2.4-13-4.8-6.1-15.8-8.3-22.7-2.9-5.6 4.4-8.6 12.4-9.2 24.3l-13.5 7.3 29.3 37.7L139.3 75c11.5 2.4 20.1 1.5 25.7-2.8zm-18-37.3c4.2-.1 6.6.4 7.4 1.4.8 1 .6 3.5-.5 7.5l1.4.1h-.6c-4.9 0-9.7 1-14 3.1 3.1-3.7 5.3-8 6.5-12.7l-.2.6zm-23.1-15.2c5.9-4.6 15-2.4 18.5 2.1 2.8 3.6 2.8 10.4.5 15.4-1.4 4.2-6 10.7-12.4 15.7-4-4.8-8.9-8.9-14.3-12 .3-8.4 3-17.5 7.7-21.2zm-7.3 46-12.4-16.1 3.4-1.9 6.6 2.7-.7-5.8 1.7-.9c10.8 6.4 18.8 16.7 22.3 28.8l-1.4 1.5-5.4-2 .9 6.9-2.6 2.9-12.4-16.1zm24 6.5c-1.6-6.1-4.4-11.8-8.1-16.9 6.4-5 13.9-7.8 18.3-8.1 5.3-1 11.9.7 14.8 4.3 3.4 4.5 3.3 13.8-2.6 18.4-4.8 3.7-14.4 4-22.4 2.3z"/></g></g></svg>