<svg version="1.1" id="Layer_1" xmlns="http://www.w3.org/2000/svg" x="0" y="0" viewBox="0 0 180 180" style="enable-background:new 0 0 180 180" xml:space="preserve"><style>.st0{fill:#fff}.st1,.st2{fill:#040000}.st2{stroke:#040000;stroke-width:4;stroke-miterlimit:10}</style><path class="st0" d="M56.8 93.7v27.1l-9.5 9.4v11.9h-8.4v11.1h73v-11.1h-8.4v-11.9l-9.3-9.4V93.7"/><path class="st1" d="M104.6 141.3V130l-9.3-9.4v-26l-2-1.2h-.1v28l9.4 9.4v12.5h8.3v9.1H40.1v-9.1h8.3v-12.5l9.5-9.3V93.4l-.2-.1-2 1h.1v26.2l-9.3 9.5v11.2H38v13.1h75v-13z"/><path class="st1" d="M56.8 92.7h37.4v2H56.8zm0 27.1h37.4v2H56.8zm-9.5 9.4h56.1v2H47.3zm0 11.9h56.1v2H47.3z"/><path class="st2" d="m73.4 32.3-.5.7-.8.9c-4.7 5.5-9.5 9.2-14.3 12.9-4.9 3.6-7.8 9.4-7.7 15.5-.2 3.4.6 6.8 2.3 9.7 1.4 2.8 3 4.5 9.3 8.1l-6 14.9 2.6-.9-.1-.1 6-14.8-1.5-.8c-5.9-3.3-7.3-4.8-8.5-7.2-1.5-2.7-2.2-5.7-2-8.7 0-5.5 2.6-10.7 7-13.9 4.9-3.7 9.7-7.6 14.6-13.2l.8-.9.6-.7-1.8-1.5zM99.1 72c1.6-3.1 2.3-6.4 2.3-9.8-.2-4.5-1.7-10.8-7.7-15.4-5.4-4-9.8-7.6-14.3-12.8l-.7-.9-.5-.6-1.7 1.1.5.7.8 1c4.5 5.3 9.1 9.1 14.6 13.1 5.5 4.2 6.8 9.8 7 13.8.1 3.1-.6 6.1-2 8.8-1.4 2.5-3 3.9-8.6 7.2l-1.5.9 6 14.8 2.5 1.3.2-.1-6.1-15.2c5.9-3.4 7.6-5.1 9.2-7.9z"/><path class="st0" d="m81.8 97.4 1.7-.2c3.7-.6 7.4-1.4 11-2.6l-6.1-15.1.7-.5c5.9-3.4 7.5-5 9-7.7 1.5-2.9 2.3-6.1 2.2-9.4-.2-4.3-1.6-10.4-7.4-14.8-5.5-4-10.1-7.8-14.6-13.2l-.8-.9-.5-.6h-3.2l-.6.7-.8 1c-4.8 5.6-9.6 9.4-14.6 13.1-4.6 3.4-7.4 9-7.4 14.8-.2 3.2.6 6.5 2.2 9.4 1.3 2.6 2.9 4.2 9 7.7l.7.5-6.1 15.2c3.5 1.3 7.2 2.1 11 2.6l1.8.2 12.8-.2z"/><path class="st1" d="M94.2 95.6c-3.4-1.3-7.1-2.2-10.7-2.9l-1.8-.3c-4.1-.4-8.3-.5-12.3-.3l-1.8.2c-3.7.4-7.3 1.1-10.9 2.3l-.6-1.9c3.6-1.2 7.4-2 11.2-2.4l1.8-.2c4.3-.2 8.5-.1 12.8.3l1.8.3c3.8.6 7.5 1.6 11.1 3l-.6 1.9zm-5.1-14.5c-4.5-1.1-9.1-1.6-13.7-1.5-4.6-.1-9.2.4-13.6 1.5l-.6-2.1c4.6-1.1 9.5-1.7 14.3-1.6 4.8-.1 9.6.5 14.3 1.6l-.7 2.1z"/><circle class="st0" cx="75.5" cy="25.7" r="6.7"/><path class="st1" d="M75.5 33.5c-4.3 0-7.7-3.4-7.7-7.7s3.4-7.7 7.7-7.7c4.3 0 7.7 3.4 7.7 7.7s-3.4 7.7-7.7 7.7zm0-13.4c-3.2 0-5.8 2.6-5.8 5.8 0 3.2 2.6 5.8 5.8 5.8 3.2 0 5.8-2.6 5.8-5.8 0-3.3-2.6-5.8-5.8-5.8zm-2.1 46v-4.8l-4.9-.1c-1 .2-1.9-.6-2-1.5v-.5c-.2-1 .6-1.9 1.5-2h5.4V52c0-1.3.7-2 2.1-2 1-.1 1.9.6 2 1.6v5.6h5.1c1.3 0 1.9.6 1.9 2 0 1.3-.6 2-1.9 2h-5.1v4.9c0 1.4-.7 2.1-2 2.1-1 .1-2-.6-2.1-1.7v-.4z"/><path class="st0" d="M85.8 101.2v27.2l-9.4 9.3v12h-8.3v11h72.8v-11h-8.5v-12l-9.2-9.3v-27.2"/><path class="st1" d="M133.6 148.8v-11.2l-9.4-9.4v-26.1l-1.9-1.2v28l9.2 9.4v12.4h8.5v9.1H69.1v-8.9h8.3v-12.6l9.4-9.4v-28h-.1l-2 .9.2.2v26.1l-9.4 9.3v11.4H67v13.1h75v-13.1z"/><path class="st1" d="M85.8 100.3h37.4v2.1H85.8zm0 27h37.4v2.1H85.8zm-9.4 9.4h56v2.1h-56zm0 11.9h56v2.1h-56z"/><path class="st2" d="m102.3 40-.4.6-.9.9c-4.3 4.8-8.9 9.1-14.2 12.8-4.9 3.6-7.8 9.4-7.8 15.5-.1 3.4.6 6.7 2.4 9.7 1.3 2.8 3 4.5 9.2 8l-6 14.9 2.7-.9h-.1l6-14.9-1.5-.9c-6-3.4-7.3-4.8-8.5-7.3-1.5-2.7-2.2-5.7-2.1-8.8 0-5.5 2.5-10.6 7-13.9 5.4-3.9 10.1-8.2 14.6-13.1l.9-.9.6-.7-1.9-1zm25.8 39.6c1.6-3 2.4-6.4 2.2-9.8-.1-6.1-3-11.8-7.8-15.4-5.2-3.7-10-8-14.2-12.8l-.7-.9-.4-.6-1.6 1.2.4.7.9 1c4.3 4.9 9.1 9.4 14.5 13.1 4.3 3.3 6.9 8.3 6.9 13.9 0 3.1-.6 6.1-2.1 8.8-1.3 2.5-2.8 3.9-8.5 7.3l-1.5.9 6 14.8 2.5 1.3h.1L118.7 88c6.1-3.9 7.8-5.6 9.4-8.4z"/><path class="st0" d="m110.8 105 1.6-.1c3.7-.4 7.5-1.3 11-2.7l-6.1-15.1.7-.4c6-3.4 7.5-5.1 9.1-7.8 1.5-2.8 2.2-6.1 2.1-9.4 0-5.8-2.8-11.2-7.5-14.8-5.4-3.7-10.3-8.2-14.5-13.1l-.7-.9-.4-.7H103l-.6.7-.9 1c-4.2 5-9.2 9.3-14.5 13.2-4.6 3.4-7.5 8.9-7.5 14.8-.1 3.3.6 6.6 2.2 9.4 1.3 2.7 2.8 4.2 9.1 7.8l.7.4-6.1 15.1c3.6 1.2 7.3 2.1 11 2.7l1.8.1 12.6-.2z"/><path class="st1" d="M123.2 103.2c-3.4-1.3-7-2.2-10.7-2.8l-1.8-.3c-4.2-.4-8.2-.4-12.4-.3l-1.8.1c-3.7.4-7.3 1.2-10.7 2.4l-.6-1.9c3.7-1.2 7.5-2.1 11.3-2.4l1.8-.1c4.3-.3 8.5-.1 12.8.3l1.8.3c3.7.6 7.5 1.6 11.2 3l-.9 1.7zm-5.1-14.5c-4.5-1-9.1-1.5-13.6-1.5-4.6-.1-9.2.4-13.7 1.5l-.6-2.1c4.6-1 9.4-1.6 14.3-1.5 4.8-.1 9.5.4 14.2 1.6l-.6 2z"/><circle class="st0" cx="104.6" cy="33.4" r="6.7"/><path class="st1" d="M104.6 41.2c-4.3 0-7.8-3.4-7.8-7.8 0-4.3 3.4-7.8 7.8-7.8 4.3 0 7.8 3.4 7.8 7.8-.2 4.2-3.7 7.8-7.8 7.8zm0-13.5c-3.1 0-5.7 2.5-5.7 5.7 0 3.1 2.5 5.7 5.7 5.7s5.7-2.5 5.7-5.7c-.1-3.1-2.6-5.7-5.7-5.7zm-2.3 46v-4.8h-4.9c-1-.1-1.9-1-1.9-2.2 0-1 .9-1.8 1.9-1.9h4.9v-5.2c-.1-1 .6-1.9 1.6-2.1h.4c1-.1 1.9.6 2.1 1.6v5.5h5.1c.9-.1 1.8.6 1.9 1.5v.6c.1.9-.4 1.9-1.5 2.1h-5.5v4.9c.1 1-.6 1.9-1.6 2.1h-.4c-1 .1-1.9-.6-2.1-1.6v-.5z"/></svg>