<svg xmlns="http://www.w3.org/2000/svg" viewBox="0 0 180 180" style="enable-background:new 0 0 180 180" xml:space="preserve"><path style="fill:none" d="M0 0h180v180H0z"/><path d="M155.2 52.6h-2.6c-4.4 0-7.9 3.6-7.9 7.9v39.6h-9.5V37.5l-1.8-1c-5.4-3-9.9-4.5-16.2-4.5h-2.3l-.5 2.3-3.5 15.4-.3 1.4H103l-.2-1.5-2-17.9-.3-2.3-2.2-.4c-2.8-.7-5.6-1.1-8.5-1-2.9-.1-5.7.3-8.5 1l-2.2.4-.3 2.3-2 17.9-.2 1.5H69l-.3-1.4-3.4-15.4-.5-2.3h-2.3c-6.2 0-10.7 1.5-16.2 4.5l-1.8 1v62.6H35V60.5c0-4.4-3.6-7.9-7.9-7.9h-2.6c-4.4 0-7.9 3.6-7.9 7.9v92.2c0 4.4 3.6 7.9 7.9 7.9h2.6c4.4 0 7.9-3.5 7.9-7.9v-39.6h9.5v1.7c.1 3.6.3 7.4 1.8 10.7 2.1 4.7 6.3 7.7 13 9.2h.1c3.1.6 3.1.8 3.5.8h.1c9 1.2 18.1 1.8 27.2 1.7 9.1.1 18.2-.4 27.3-1.7h.1c.1 0 1.5-.3 3.4-.6 7.1-1.5 10-4.4 12.1-9.2 1.5-3.3 1.8-7.2 1.9-10.9v-1.7h9.5v39.6c0 4.4 3.6 7.9 7.9 7.9h2.6c4.4 0 7.9-3.5 7.9-7.9V60.5c.2-4.3-3.3-7.9-7.7-7.9z" style="fill:#bf3b43"/><path d="M155.2 49.4h-2.6c-6.1 0-11.1 5-11.1 11.1v36.4h-3.1V35.6l-3.4-1.9c-5.3-2.9-10.4-4.9-17.7-4.9h-4.9l-4.3 19.1h-2.2l-2.4-21.2-4.4-.7c-3-.8-6.1-1.1-9.2-1.1h-.5c-2.9 0-5.8.4-8.6 1.1l-4.4.7L74 48h-2.2l-4.2-19.1h-4.9c-7.4 0-12.4 2-17.7 4.9l-3.4 1.9V97h-3.1V60.6c0-6.1-5-11.1-11.1-11.1h-2.6c-6.1 0-11.1 5-11.1 11.1v92.2c0 6.1 5 11.1 11.1 11.1h2.6c6.1 0 11.1-5 11.1-11.1v-36.4h3.2c.1 3.5.5 7.2 2 10.6 2.5 5.6 7.5 9.2 15.2 11l.4.1h.1c1.6.3 2.2.5 2.5.6s.6.2 1.1.2c8.3 1.1 16.7 1.7 25 1.7h2.4c9.2.1 18.4-.4 27.5-1.7h.4c.1 0 1.5-.3 3.5-.7 7.4-1.6 11.5-4.7 14.4-11 1.5-3.4 2-7.1 2.1-10.8h3.1v36.4c0 6.1 5 11.1 11.1 11.1h2.6c6.1 0 11.1-5 11.1-11.1V60.6c.1-6.2-4.9-11.2-11-11.2zm-123 103.4c0 2.6-2.1 4.7-4.7 4.7h-2.6c-2.6 0-4.7-2.1-4.7-4.7V60.6c0-2.6 2.1-4.7 4.7-4.7h2.6c2.6 0 4.7 2.1 4.7 4.7v92.2zm16-113.5c5.3-2.9 9.2-4.1 14.3-4.1l3.4 15.3.9 3.9h13l2.5-22.1c2.5-.6 5.1-.9 7.6-.9h1.2c2.2 0 4.4.3 6.6.9l2.5 22.2h13.1l4.3-19.1c5.1 0 9 1.2 14.3 4.1l.1.1v36.7H48.1V39.6l.1-.3zM41.7 110h-3.1v-6.7h3.1v6.7zm21.9 22.5c-.4-.1-1.3-.4-3.2-.7h-.2c-5.6-1.3-8.9-3.6-10.6-7.3-1.2-2.8-1.4-6.2-1.5-9.5V82.6h38.7v51.6c-7.7-.1-15.5-.6-23.1-1.6l-.1-.1zm57-.7c-1.4.3-2.6.5-3 .6h-.3c-7.9 1.1-16 1.6-24.1 1.7V82.5H132v32.3c-.1 3.4-.3 6.8-1.6 9.6-1.7 3.9-3.8 6.2-9.8 7.4zm17.8-21.8v-6.6h3.1v6.6h-3.1zm21.5 42.8c0 2.6-2.1 4.7-4.7 4.7h-2.6c-2.6 0-4.7-2.1-4.7-4.7V60.6c0-2.6 2.1-4.7 4.7-4.7h2.6c2.6 0 4.7 2.1 4.7 4.7v92.2z"/></svg>