<svg version="1.1" id="Layer_1" xmlns="http://www.w3.org/2000/svg" x="0" y="0" viewBox="0 0 180 180" style="enable-background:new 0 0 180 180" xml:space="preserve"><style>.st1{fill:#bf3b43}.st2{fill:#1a1a1a}</style><path style="fill:none" d="M0 0h180v180H0z"/><g id="wings"><path class="st1" d="M70 81.1c0-29.6-30-38.6-25-56.6-36 1-36 58.3-36 126.6 0-14.4 7.1-19.8 16-17.1.9-11.2 6.1-16.6 14.6-13.5 4-19.7 12.8-24.9 30.5-24.9L70 81.1z"/><path class="st2" d="M8.9 152.6c-.8 0-1.5-.7-1.5-1.5 0-68.2 0-127 37.5-128.1.5 0 .9.2 1.2.6s.4.9.3 1.3c-2.2 7.8 2.9 13.7 9.3 21.3 7.1 8.4 15.9 18.8 15.9 34.9v14.5c0 .8-.7 1.5-1.5 1.5-18.4 0-25.4 5.8-29.1 23.7-.1.4-.4.8-.7 1-.4.2-.8.3-1.2.1-3.1-1.1-5.6-1-7.6.3-2.8 1.8-4.5 5.9-5 11.9 0 .5-.3.9-.7 1.1-.4.3-.9.3-1.3.2-3.5-1.1-6.6-.7-8.9 1-3.3 2.5-5.1 7.5-5.1 14.7-.1.8-.8 1.5-1.6 1.5zM43.1 26.1c-14.6 1.3-23.5 13.1-28.2 36.7-3.9 19.8-4.4 46.3-4.5 74.9.9-1.5 2-2.7 3.3-3.7 2.7-2 6.1-2.6 9.8-1.9.8-6 2.9-10.3 6.1-12.5 2.4-1.5 5.3-1.9 8.6-1.1 4.5-19.8 14.5-24.2 30.2-24.4v-13c0-15.1-8-24.6-15.1-33-6.1-7.3-11.5-13.7-10.2-22z"/><path class="st2" d="M24.9 135.5c-.8 0-1.5-.7-1.5-1.5 0-4.7-.1-9.9-.2-15.5-.7-34.9-1.6-82.6 21.1-95.3.7-.4 1.6-.1 2 .6s.1 1.6-.6 2c-21.1 11.8-20.2 58.5-19.5 92.6.1 5.6.2 10.8.2 15.5 0 .9-.7 1.6-1.5 1.6z"/><path class="st2" d="M39.5 122c-.8 0-1.5-.6-1.5-1.4-2.5-52.1-.6-84.7 5.7-96.7.4-.7 1.3-1 2-.6s1 1.3.6 2c-4.1 8-8.4 31-5.3 95.2 0 .7-.6 1.4-1.5 1.5z"/><path class="st1" d="M110 81.1c0-29.6 30.1-38.6 25.1-56.6 36 1 36 58.3 36 126.6 0-14.4-7.1-19.8-16-17.1-.9-11.2-6.1-16.6-14.6-13.5-4-19.7-12.8-24.9-30.5-24.9V81.1z"/><path class="st2" d="M171.1 152.6c-.8 0-1.5-.7-1.5-1.5 0-7.1-1.8-12.2-5.1-14.7-2.3-1.7-5.4-2.1-8.9-1-.4.1-.9.1-1.3-.2-.4-.3-.6-.7-.7-1.1-.5-6-2.2-10.1-5-11.9-2-1.3-4.5-1.4-7.6-.3-.4.1-.9.1-1.2-.1-.4-.2-.6-.6-.7-1-3.6-17.9-10.7-23.7-29.1-23.7-.8 0-1.5-.7-1.5-1.5V81.1c0-16.2 8.8-26.6 15.9-34.9 6.4-7.6 11.4-13.5 9.3-21.3-.1-.5 0-1 .3-1.3.3-.4.7-.6 1.2-.6 37.5 1 37.5 59.9 37.5 128.1-.1.8-.8 1.5-1.6 1.5zm-11.7-20.8c2.6 0 4.9.7 6.9 2.2 1.3 1 2.4 2.2 3.3 3.7-.1-28.6-.6-55.1-4.5-74.9-4.6-23.7-13.6-35.4-28.2-36.7 1.3 8.3-4.1 14.7-10.3 22-7.1 8.4-15.1 18-15.1 33v13c15.6.3 25.7 4.7 30.2 24.4 3.3-.8 6.3-.5 8.6 1.1 3.3 2.1 5.4 6.4 6.1 12.5 1.1-.2 2-.3 3-.3z"/><path class="st2" d="M155.1 135.5c-.8 0-1.5-.7-1.5-1.5 0-4.7.1-10 .2-15.5.7-34.1 1.6-80.8-19.5-92.6-.7-.4-1-1.3-.6-2s1.3-1 2-.6c22.7 12.7 21.7 60.5 21.1 95.3-.1 5.5-.2 10.8-.2 15.5 0 .7-.7 1.4-1.5 1.4z"/><path class="st2" d="M140.5 122c-.9 0-1.5-.7-1.5-1.6 3.1-64.2-1.2-87.2-5.3-95.2-.4-.7-.1-1.6.6-2 .7-.4 1.6-.1 2 .6 6.3 12.1 8.2 44.6 5.7 96.7 0 .9-.7 1.5-1.5 1.5z"/></g><path class="st1" d="m87.8 38.8-.8 1.1-1.3 1.5c-7.1 8.2-14.3 13.9-21.6 19.5-7 5.2-11.1 13.3-11.1 22-.2 4.9.9 9.7 3.3 13.9 2 3.9 4.3 6.2 13.4 11.5l1.1.7-9.1 22.6c5.3 1.9 10.8 3.2 16.4 3.9l2.7.3-1.7 2.1c-2.1 2.7-4.8 4.9-7.8 6.5-1.5.8-3.4 1.4-7.9 1.2-5.5-.2-15.6-3.9-25.8-3.9-6.4.1-12.6 1.8-18.2 5l7.1 14.6c2.9-1.7 9.9-3.8 12.5-3.8 11 0 19.4 3.8 29.3 3.8 4.7-.1 9.3-1.7 13.1-4.5 3.8-2.8 5.6-4 7.1-10.2l1.5-5.9 1.5 5.9c1.5 6.2 3.3 7.4 7.1 10.2 3.8 2.8 8.4 4.4 13.1 4.5 9.9 0 18.4-3.8 29.3-3.8 2.6 0 9.6 2.1 12.5 3.8l7.1-14.6c-5.5-3.2-11.8-4.9-18.2-5-10.2 0-20.3 3.8-25.8 3.9-4.4.1-6.4-.4-7.9-1.2-3-1.6-5.7-3.8-7.8-6.5l-1.6-2.1h-.1l2.6-.3c5.6-.8 11-2.1 16.3-3.9l-9.1-22.5 1.1-.7c8.8-5.1 11.2-7.5 13.4-11.5 2.3-4.3 3.4-9.1 3.3-14-.2-6.4-2.3-15.4-11-22-8.2-6-15-11.6-21.7-19.5L92.9 40l-.8-1.1-4.3-.1z"/><path class="st2" d="m26 163.4-8.4-17.3 1.1-.7c5.8-3.3 12.3-5.1 19-5.2 6.2 0 12.5 1.4 17.5 2.5 2.7.7 5.5 1.2 8.3 1.4 4.4.1 6-.4 7.1-1 2.9-1.5 5.4-3.6 7.3-6.1-5.7-.7-11.3-2.1-16.7-4l-1.5-.5 9.2-22.8c-9.5-5.5-11.9-7.9-14-12.1-2.5-4.5-3.7-9.5-3.5-14.6 0-9.1 4.3-17.7 11.6-23.2s14.4-11.2 21.4-19.3l1.2-1.4.8-1 2.4 1.8-.6 1-1.3 1.5C79.8 50.7 72.4 56.5 65 62.1 58.4 67 54.5 74.7 54.5 82.9c-.2 4.6.9 9.2 3.1 13.2 1.8 3.7 4 5.8 12.9 10.9l2.3 1.3-9 22.3c4.7 1.6 9.6 2.7 14.5 3.3l5.3.6-3.3 4.2c-2.2 2.9-5.1 5.2-8.3 6.9-2 1.1-4.5 1.6-8.6 1.4-3-.3-6-.8-8.9-1.5-4.9-1.1-11-2.4-16.9-2.4-5.6.1-11.2 1.5-16.2 4.1l5.8 12c3.6-1.6 9.3-3.2 11.8-3.2 5.3.1 10.5.8 15.7 2 4.5 1 9 1.6 13.6 1.8 4.4-.1 8.7-1.6 12.3-4.2 3.7-2.7 5.1-3.7 6.5-9.3l3-11.5 3 11.4c1.4 5.6 2.8 6.7 6.5 9.4 3.6 2.6 7.8 4.1 12.3 4.2 4.6-.2 9.1-.8 13.6-1.8 5.1-1.2 10.4-1.9 15.7-2 2.5 0 8.3 1.6 11.8 3.2l5.8-12c-5-2.6-10.6-4-16.2-4.1-5.9 0-12 1.3-16.9 2.4-2.9.7-5.9 1.3-8.9 1.5-4.1.1-6.7-.3-8.7-1.4-3.2-1.7-6-4-8.3-6.9l-1.7-2.1 1-.8-.2-1.6 2.6-.3c4.9-.7 9.8-1.8 14.5-3.4l-9-22.3 2.2-1.3c8.5-5 10.8-7.2 12.9-10.9 2.1-4.1 3.2-8.6 3.1-13.2-.2-6-2.2-14.6-10.4-20.8-8.2-6-15.1-11.7-21.8-19.7l-1.3-1.5-.8-1.1 2.4-1.7.7 1 1.2 1.4c6.6 7.8 13.3 13.3 21.4 19.3 9.2 6.9 11.4 16.4 11.6 23.1.1 5.1-1 10.2-3.4 14.8-2.4 4.3-4.9 6.8-14 12.1l9.2 22.8-1.5.5c-5.4 1.9-10.9 3.2-16.5 4 2 2.5 4.5 4.6 7.3 6.1 1.1.6 2.7 1.2 7.1 1.1 2.8-.3 5.6-.7 8.3-1.4 5-1.1 11.3-2.5 17.5-2.5 6.7.1 13.2 1.9 19 5.2l1.1.7-8.4 17.3-1.4-.8c-2.7-1.5-9.4-3.6-11.8-3.6-5.1.1-10.2.8-15.1 1.9-4.7 1.1-9.4 1.7-14.2 1.8-5-.1-9.9-1.8-14-4.8-3.9-2.8-6-4.4-7.7-11.1l-.1-.3-.1.3c-1.7 6.7-3.8 8.2-7.7 11-4.1 3-9 4.6-14 4.8-4.8-.1-9.6-.7-14.3-1.8-4.9-1.2-10-1.8-15.1-1.9-2.4 0-9.1 2-11.8 3.6l-.6.8z"/><path class="st2" d="M90.9 137.6c-2.8 0-6.2-.1-10.2-.3l.2-3c6.1.5 12.3.5 18.4 0l.3 3c-.2 0-3.2.3-8.7.3zm27-4.6c-5.2-1.9-10.5-3.3-15.9-4.2l-2.6-.4c-6.1-.6-12.2-.7-18.4-.4l-2.6.2c-5.5.6-10.9 1.7-16.1 3.4l-.9-2.9c5.4-1.8 11.1-3 16.8-3.6l2.7-.2c6.3-.3 12.7-.2 19 .4l2.6.4c5.6.9 11.2 2.4 16.5 4.4l-1.1 2.9zm-9-22.6c-6.1-1.5-12.4-2.1-18.7-2-6.3-.1-12.6.5-18.7 2l-.8-2.9c6.4-1.5 12.9-2.2 19.5-2.1 6.6-.1 13.1.6 19.5 2.1l-.8 2.9z"/><circle class="st1" cx="90.3" cy="29.1" r="10"/><path class="st2" d="M90.3 40.6c-6.4 0-11.5-5.1-11.5-11.5s5.1-11.5 11.5-11.5 11.5 5.1 11.5 11.5-5.2 11.5-11.5 11.5zm0-20c-4.7 0-8.5 3.8-8.5 8.5s3.8 8.5 8.5 8.5 8.5-3.8 8.5-8.5-3.9-8.5-8.5-8.5zm-3.2 68.5V82l-7.3-.1c-2 0-3-1-3-3s1-3 3-3h7.3v-7.7c0-2 1.1-3.1 3.2-3.1 1.5-.2 2.9.9 3.1 2.4v8.3h7.6c2 0 2.9 1 2.9 3s-1 3-2.9 3h-7.6v7.3c0 2.1-1.1 3.2-3.1 3.2s-3.2-1-3.2-3.2z"/><g id="claws"><path class="st1" d="M37.2 160.5c0 5-5 9-5 9s-5-4-5-9 2.2-9 5-9 5 4 5 9z"/><path class="st2" d="m32.2 171.4-.9-.8c-.2-.2-5.6-4.5-5.6-10.2 0-5.9 2.9-10.5 6.5-10.5s6.5 4.6 6.5 10.5c0 5.6-5.3 10-5.6 10.2l-.9.8zm0-18.4c-1.7 0-3.5 3.2-3.5 7.5 0 3 2.2 5.6 3.5 7 1.3-1.3 3.5-4 3.5-7 0-4.3-1.8-7.5-3.5-7.5z"/><path class="st1" d="M47.2 160.5c0 5-5 9-5 9s-5-4-5-9 2.2-9 5-9 5 4 5 9z"/><path class="st2" d="m42.2 171.4-.9-.8c-.2-.2-5.6-4.5-5.6-10.2 0-5.9 2.9-10.5 6.5-10.5s6.5 4.6 6.5 10.5c0 5.6-5.3 10-5.6 10.2l-.9.8zm0-18.4c-1.7 0-3.5 3.2-3.5 7.5 0 3 2.2 5.6 3.5 7 1.3-1.3 3.5-4 3.5-7 0-4.3-1.8-7.5-3.5-7.5z"/><path class="st1" d="M57.2 160.5c0 5-5 9-5 9s-5-4-5-9 2.2-9 5-9 5 4 5 9z"/><path class="st2" d="m52.2 171.4-.9-.8c-.2-.2-5.6-4.5-5.6-10.2 0-5.9 2.9-10.5 6.5-10.5s6.5 4.6 6.5 10.5c0 5.6-5.3 10-5.6 10.2l-.9.8zm0-18.4c-1.7 0-3.5 3.2-3.5 7.5 0 3 2.2 5.6 3.5 7 1.3-1.3 3.5-4 3.5-7 0-4.3-1.8-7.5-3.5-7.5z"/><path class="st1" d="M132.8 160.5c0 5-5 9-5 9s-5-4-5-9 2.2-9 5-9c2.7 0 5 4 5 9z"/><path class="st2" d="m127.8 171.4-.9-.8c-.2-.2-5.6-4.5-5.6-10.2 0-5.9 2.9-10.5 6.5-10.5s6.5 4.6 6.5 10.5c0 5.6-5.3 10-5.6 10.2l-.9.8zm0-18.4c-1.7 0-3.5 3.2-3.5 7.5 0 3 2.2 5.6 3.5 7 1.3-1.3 3.5-4 3.5-7 0-4.3-1.9-7.5-3.5-7.5z"/><path class="st1" d="M142.8 160.5c0 5-5 9-5 9s-5-4-5-9 2.2-9 5-9c2.7 0 5 4 5 9z"/><path class="st2" d="m137.8 171.4-.9-.8c-.2-.2-5.6-4.5-5.6-10.2 0-5.9 2.9-10.5 6.5-10.5s6.5 4.6 6.5 10.5c0 5.6-5.3 10-5.6 10.2l-.9.8zm0-18.4c-1.7 0-3.5 3.2-3.5 7.5 0 3 2.2 5.6 3.5 7 1.3-1.3 3.5-4 3.5-7 0-4.3-1.9-7.5-3.5-7.5z"/><path class="st1" d="M152.8 160.5c0 5-5 9-5 9s-5-4-5-9 2.2-9 5-9c2.7 0 5 4 5 9z"/><path class="st2" d="m147.8 171.4-.9-.8c-.2-.2-5.6-4.5-5.6-10.2 0-5.9 2.9-10.5 6.5-10.5s6.5 4.6 6.5 10.5c0 5.6-5.3 10-5.6 10.2l-.9.8zm0-18.4c-1.7 0-3.5 3.2-3.5 7.5 0 3 2.2 5.6 3.5 7 1.3-1.3 3.5-4 3.5-7 0-4.3-1.9-7.5-3.5-7.5z"/></g></svg>