<svg version="1.1" id="Layer_1" xmlns="http://www.w3.org/2000/svg" x="0" y="0" viewBox="0 0 180 180" style="enable-background:new 0 0 180 180" xml:space="preserve"><style>.st0{fill:#bf3b43}.st1,.st2{opacity:.2;fill:#040000;enable-background:new}.st2{fill:#fff}.st3{fill:#1a1a1a}</style><path class="st0" d="M97.6 142.1c7-5.8 16.4-18.4 16.4-39.2 0-20.5-13.5-35.9-22.1-44.5l-1.8-1.8-1.3 2.2c-1.5 2.5-8.8 14.5-9.1 44.6H65.9c.5-45 18-62 18.2-62.2l.7-.6-.1-.9c-.5-6.7-6.1-12-12.9-12v-.1c-7.1 0-12.9 5.8-12.9 12.9 0 3.3 1.2 6.4 3.4 8.8-5.3 4.3-10.2 9.1-14.6 14.3-10.8 12.9-16.5 26.5-16.5 39.3 0 20.8 9.4 33.3 16.4 39.2"/><path class="st1" d="M99.6 68.3c22.7 55.1-27.1 71.8-27.1 71.8l25.1 2c-2.4 1.8 16-5.2 16-41.4.1-12.3-5-24.1-14-32.4z"/><path class="st2" d="M65.3 49.4c-2.6-1.2-28.6 20.7-32.9 43-4 20.8 3.2 26.6 2.8 26.4 0-.1 2.8-45.8 32.8-68.1 0 0-1.1-.6-2.7-1.3zm8.2-19.9c-4.3.4-11.8 6.7-12.4 15.3 0 0-6-5.6.1-12.5 4.7-5.4 12.3-2.8 12.3-2.8z"/><path class="st1" d="M70.6 67.7c1.8-5.1 14.1-29 14.1-29l-5.6-9.2-2.9.1c9.2 11.3-18 37-18 56.4 0 5.7 1.4 17.2 5.5 19.3.2 0 3.1-27.1 6.9-37.6z"/><path class="st3" d="M52.5 144.1c-5-2.3-20.3-14.5-20.3-40.7C32.2 73.3 64.3 50 64.3 50c-4.9-3.5-6-10.4-2.5-15.3s10.4-6 15.3-2.5c2.6 1.9 4.3 4.9 4.5 8.1 0 0-18.7 17.7-18.7 65.6h17.7c0-29.9 7-42.4 8.9-45.6 9.5 9.4 21.5 24 21.5 43.1 0 26.1-15.1 38.3-20.2 40.7l10.6-3.4c6.6-7 13.6-19.2 13.6-37.4 0-15.7-7.4-30.7-22.7-46l-3.7-3.6-2.6 4.5c-5.8 9.8-9 24.8-9.4 43.6h-9.7c.5-21.5 5-36 8.8-44.6 4.3-9.8 8.7-14.1 8.7-14.1l1.3-1.3-.1-1.9C85 32.1 78.5 26.1 70.7 26c-8.2 0-14.9 6.7-14.9 14.9 0 3.1.9 6 2.7 8.5-4.8 4-9.2 8.5-13.2 13.3-11.1 13.3-17 27.3-17 40.6 0 17.8 6.8 29.8 13.3 37l10.9 3.8z"/><path class="st3" d="M71.5 144.7c9 0 17.1.3 24.6.9l1.9-3.8c-7.7-.7-16.4-1.1-26.5-1.1-10.2 0-19 .4-26.7 1.1l1.2 3.9c7.6-.7 16.1-1 25.5-1z"/><path transform="rotate(-41.359 44.185 140.883)" class="st3" d="M42.4 136h3.5v9.7h-3.5z"/><path transform="rotate(-45.001 98.243 141.016)" class="st3" d="M93.4 139.3h9.7v3.5h-9.7z"/><path class="st0" d="M134.4 150.3c7-5.8 16.5-18.5 16.5-39.4 0-20.5-13.6-36-22.2-44.6l-1.9-1.9-1.4 2.2c-1.5 2.5-8.8 14.4-9.2 44.8h-13.7c.5-45.1 18-62.1 18.2-62.3l.7-.7v-.8c-.5-6.8-6.1-12-12.9-12-7.1 0-12.9 5.8-12.9 13.1 0 3.2 1.2 6.4 3.4 8.8-5.3 4.2-10.2 9-14.6 14.3-10.9 12.9-16.6 26.6-16.6 39.4 0 20.9 9.5 33.4 16.5 39.4"/><path class="st1" d="M136.4 76.5c22.7 55.3-27.1 71.9-27.1 71.9l25.1 1.9c-2.4 1.9 16.1-5.3 16.1-41.4 0-12.4-5.1-24.1-14.1-32.4z"/><path class="st2" d="M102.2 57.5c-2.7-1.2-28.7 20.7-32.9 43.1-4.1 20.9 3.2 26.6 2.7 26.5 0-.2 2.7-46 32.9-68.2 0 0-1.2-.7-2.7-1.4zm8.1-19.8c-4.4.3-11.9 6.6-12.4 15.4 0 0-5.9-5.6 0-12.6 4.8-5.6 12.4-2.8 12.4-2.8z"/><path class="st1" d="M107.4 75.8c1.9-5.1 14.1-29 14.1-29l-5.6-9.2H113c9.2 11.4-18 37.2-18 56.5 0 5.8 1.4 17.3 5.6 19.3 0 .1 2.9-27 6.8-37.6z"/><path class="st3" d="M89.3 152.5c-5.1-2.4-20.4-14.6-20.4-40.9 0-30.2 32.2-53.6 32.2-53.6-4.9-3.6-6.1-10.3-2.5-15.3 3.6-4.9 10.3-6.1 15.3-2.5 2.7 1.9 4.2 4.9 4.6 8.1 0 0-18.8 17.8-18.8 65.8h17.8c0-30 7-42.4 8.8-45.6 9.5 9.5 21.5 24.1 21.5 43.3 0 26.1-15.1 38.3-20.4 40.9l10.7-3.4c6.6-7.1 13.6-19.3 13.6-37.5 0-15.8-7.5-30.9-22.7-46.1l-3.7-3.7-2.4 4.6c-5.8 9.8-9 24.9-9.5 43.8h-9.7c.5-21.5 4.9-36.1 8.8-44.6 4.4-9.8 8.7-14.1 8.8-14.1l1.4-1.4-.2-1.9c-.5-7.8-7.1-13.9-14.9-13.9-8.3 0-14.9 6.6-15.1 14.9 0 3.1.8 6.1 2.7 8.7-4.8 4-9.2 8.4-13.2 13.1C70.8 84.5 65 98.6 65 112c0 17.8 6.8 29.9 13.2 37l11.1 3.5z"/><path class="st3" d="M108.3 153c9 0 17.1.3 24.6.8l1.9-3.9c-7.6-.7-16.5-1-26.6-1-10.2 0-19 .3-26.8 1.2l1.2 3.9c7.7-.6 16.2-1 25.7-1z"/><path transform="rotate(-41.359 80.822 149.22)" class="st3" d="M79 144.4h3.6v9.7H79z"/><path transform="rotate(-45.001 135.11 149.36)" class="st3" d="M130.3 147.6h9.7v3.6h-9.7z"/></svg>