<svg xmlns="http://www.w3.org/2000/svg" viewBox="0 0 180 180" style="enable-background:new 0 0 180 180" xml:space="preserve"><path d="m111.1 102.3.3-.2h-40l.3.2c-23.2 9.8-35.7 35-29.5 59.3h98.3c6.4-24.3-6.2-49.5-29.4-59.3z" style="fill:#bf3b43"/><path d="m112.7 101.3.2-.1-6 .4-.5.3 2.7 1.1c22.1 9.3 34.3 33.1 28.9 56.5H42c-5.4-23.3 6.8-47.2 28.9-56.5l2.7-1.1-.3-.2-6.2-.5.2.1c-22.4 10.8-34 35.9-27.9 60l.3 1.1h100.7l.3-1.1c6.1-24.1-5.6-49.2-28-60z" style="fill:#040000"/><path transform="rotate(-71.21 114.395 69.54)" style="fill:#bf3b43;stroke:#231815;stroke-width:2;stroke-miterlimit:9.9999" d="M92.6 62.4h43.5v14.3H92.6z"/><path transform="rotate(-18.071 64.067 69.753)" style="fill:#bf3b43;stroke:#231815;stroke-width:2.4983;stroke-miterlimit:9.9933" d="M56.9 48h14.3v43.5H56.9z"/><path d="M75.1 45.1h28.6v43.5H75.1zM59 88.7h60v12.2H59z" style="fill:#bf3b43;stroke:#231815;stroke-width:2.5;stroke-miterlimit:10"/></svg>