
<svg version="1.1" id="Layer_1" xmlns="http://www.w3.org/2000/svg" xmlns:xlink="http://www.w3.org/1999/xlink" x="0px" y="0px"
   viewBox="0 0 180 180" style="enable-background:new 0 0 180 180;" xml:space="preserve">

  <defs>
    <style type="text/css">
    	.st0{fill:none;}
    	.st1{fill:#BF3B43;}
    	.st2{opacity:0.2;enable-background:new    ;}
    	.st3{opacity:0.2;fill:#FFFFFF;enable-background:new    ;}
    	.st4{fill:#1A1A1A;}
    	.st5{fill:#FFFFFF;}
      </style>
  </defs>
  <title>i</title>
  <g>
	<rect class="st0" width="180" height="180"/>
	<g>
		<path class="st1" d="M31.8,154.4v5.4h101.9v-7.2h1.2c3.7-0.2,8.7-3.5,8.7-3.5s-1.3-6.2-1.5-7.6c-0.3-2.4,0.1-4.8,1.1-6.9
			c3.2-8.4,4.8-17.3,4.8-26.2c0.1-8-1-16-3.4-23.7c-3-9.6-7.7-18.5-13.8-26.5c-1.2-6.8-3.7-13.3-7.6-19.1
			c-4.9-7.6-12.5-13.1-21.3-15.4c-4.9-1.4-12-1.6-14.1-1.6c-6.2-1.3-12.4-2-18.8-2c-5.6,0.1-11.2,0.8-16.8,1.9
			c-6.6,1.1-12.9,4-18.1,8.3c0,0-4.5,5.8-0.3,26.6c1.1,5.4,3.5,8.4,4.5,10.5c-0.7,3.2-1.1,6.5-1.3,9.7c-0.2,8.3,1.3,17.4,4.6,27.3
			c1.1,3.4,2.2,12.2-1.8,29.9c-3,1.7-5.3,2.7-6.6,5.7C31.7,144.5,31.8,148.6,31.8,154.4z M123.6,133.5c-0.4-3.2-2.5-15.8-8.5-26.8
			c4.2,1,8.4,1.6,12.7,1.8c0.1,0.7,0.2,1.4,0.2,2.1C128.7,118.5,125.7,127.3,123.6,133.5L123.6,133.5z"/>
		<path class="st2" d="M133.9,151.4c-2.4-0.7-4.7-2-6.6-3.7c-3.3-3.3-5.9-10.2-5.7-5.2c0.2,9,5,15.4,11.6,18.4L133.9,151.4z"/>
		<path class="st2" d="M113,90c0,0,9.1,2.8,15.8,19c2.9,7.1-4.1,27.5-4.1,27.5c6.8-7.1,10.5-16.6,10.4-26.4
			c-0.2-16.3-9.3-24.4-18.1-26.8L113,90z"/>
		<path class="st3" d="M123.9,141.3l1-4.5c-7.2-4.6-20.1-5-20.1-5H57.6c0,0-22.6,1.1-24.5,11.3h0.6c0,0,4.5-4.8,47.6-4.8
			C106.2,138.4,118.2,140,123.9,141.3z"/>
		<path class="st3" d="M38.5,26.6C59.7,15.3,88,22.1,88,22.1s-8.8-1.6,13,1.4s30,34.7,30,34.7c15.2,22.1,16.8,38.5,17.1,52.3
			s-5.9,30-5.9,30l1.6,8.7l-6.2,3.3c0,0-2-2.5-2.3-11.5c-0.3-9.1,10.8-21,6.4-43.8c-2.7-13.7-9.4-26.2-19.4-36c0-2.7-0.1-5.3-0.5-8
			c-5.8-27.9-31-27.5-33.6-27.5s-4.1,7.1-4.1,7.1s-7.8-7.3-23.9-7.3c-16.1,0-23.6,3.6-25.8,4.6L38.5,26.6z"/>
		<g>
			<path class="st4" d="M113.8,58.5c0,0-1.5-9-6.7-11.1s-10.2,4.4-6,7.7C106.2,59.1,108.7,54,113.8,58.5z"/>
			<path class="st4" d="M29.7,156.8c0,0.5,0,1.1,0,1.6v4h105.6v-4c0-0.5,0-1.1,0-1.6v-2.5h0.2c0.8,0,1.1,0,1.1,0
				c2.6-0.3,5.1-1.4,6.9-3.3l1.8-1.7l-0.6-2.3c-0.3-1.2-0.5-2.3-0.6-3.5c-0.4-2.5-0.1-5.1,0.8-7.5c3.5-8.5,5.3-17.7,5.4-26.9
				c0.1-8.3-1.1-16.5-3.6-24.4c-3.1-9.9-8-19.2-14.3-27.5c-1.2-7.1-3.9-13.8-7.9-19.8c-5.1-7.9-13-13.6-22.1-16
				c-5.1-1.5-12.5-1.7-14.6-1.7c-6.4-1.4-12.9-2.1-19.4-2.1c-5.8,0-11.7,0.6-17.4,1.9c-6.4,1.4-12.4,4.1-17.7,7.8l-1,0.7l-0.5,1.1
				C29,35.8,29.1,44.7,32,55.6c1.2,4.2,2.6,8.3,4.4,12.4c-0.6,2.8-1,5.8-1,8.7c-0.2,8.5,1.4,18,4.8,28.3c1.1,3.5,2.2,10.4-1.9,28.8
				c-2.9,1.6-5.3,4.2-6.7,7.3C29.7,145.5,29.7,150.8,29.7,156.8z M40,73.6c5.4,7.3,17.1,21.8,30.8,27.8c0.4,0.2,0.9,0.3,1.4,0.3
				c0.6,0,1.2-0.1,1.7-0.4c1.6-0.8,3.7-3.2,6.7-13.4c3.7,3.5,9.4,6.7,15.6,6.7c1.1,0,2.2-0.1,3.2-0.3c0.1,0.3,0.2,0.6,0.3,0.8
				c2.9,4.8,7,8.6,12,11.1l0.1,0.2c5.3,9.4,7.1,20.6,7.6,24.5l-0.3-0.1H119h-0.1c-3.1-0.6-4.6-0.8-5.1-0.8
				c-10.6-1.2-21.2-1.8-31.8-1.7c-10.7-0.1-21.3,0.5-31.9,1.7h-0.2h-0.1c-0.1,0-1.5,0.3-3.5,0.7l0,0c-1.2,0.3-2.3,0.5-3.3,0.9
				c2.5-11.8,3.3-21.4,1.1-28C39.7,89.5,39.4,79.5,40,73.6z M117.8,108.6c2.8,0.7,5.6,1.2,8.4,1.2c0.1,0.6,0.2,1.2,0.2,1.8
				c0.4,7-1.1,14.1-2.6,19.7C122.9,123.4,120.9,115.8,117.8,108.6z M133.7,150c-5.8-1.5-7.7-4.6-7.8-8.4c-0.1-4.3,6.1-18.1,4.6-31.9
				c3.4-0.3,6.6-1.5,9.3-3.5c4.1-3.4,3.2-7,2.8-8c-1-2.5-3.4-4.2-6.1-4.1c-0.4,0-0.9,0-1.3,0.1c-0.5,0.1-1,0.1-1.5,0.1
				c-2.5-0.1-5.1-0.7-7.4-1.7c-4-1.8-5.9-6.3-6-6.6c-0.4-1.1-1.2-2-2.3-2.5c-0.5-0.2-1.1-0.3-1.7-0.3c-0.6,0-1.2,0.1-1.8,0.4
				L102,89.1c-0.1,0-0.3,0.1-0.4,0.1c-3.9,1.6-8.2,1.5-12-0.3c-3-1.3-5.7-3.3-7.9-5.9c1.5-5.9,2.5-11.1,2.5-11.2c0-0.1,0-0.1,0-0.2
				c0.2-1.2-0.6-2.3-1.8-2.5s-2.3,0.6-2.5,1.8c0,0.1-1.2,6.3-2.9,12.8c-2.7,10-4.5,12.7-5.1,13.4c-15.2-6.9-28.3-25.6-31-29.6l0,0
				c0,0-11-22.7-5.2-36.8c10-7.2,22.4-9,32.6-9l0,0c6.4,0,12.7,0.7,18.9,2l0,0c0.1,0,8.6,0,13.9,1.5c8.1,2.1,15.2,7.2,19.7,14.3
				c3.7,5.6,6.2,11.9,7.3,18.6v0.5l0.3,0.4c28.1,36.8,14.1,71.3,12.4,75.1c-1.2,3.1-1.6,6.4-1.2,9.7c0.2,1.4,0.4,2.8,0.8,4.1
				c-1.2,1.1-2.8,1.8-4.4,2h-0.6C134.9,150.1,134.3,150.1,133.7,150z M47.4,134.6c1.9-0.4,3.4-0.6,3.4-0.6
				c10.4-1.2,20.9-1.7,31.4-1.6c10.5-0.1,21,0.5,31.4,1.7c1.6,0.2,3.2,0.4,4.7,0.8c1.4,0.3,2.9,0.8,4.2,1.3l-0.2,1
				c-0.4,1.5-0.6,3-0.6,4.5c0.1,4.2,1.9,9.6,9.7,12.1l0,0c0,1.5,0,3.1,0,4.7H33.7C33.7,146.3,33,137.7,47.4,134.6z"/>
		</g>
		<path class="st5" d="M114.6,102.9c7.8,3.6,18.2,3.4,22.5-0.1c2.9-2.4,1.5-4.8-1.1-4.4c-2.2,0.3-6.1,0.3-11.3-1.9
			c-5.9-2.6-8.3-9-8.3-9l-12.8,5.6C106.1,97.4,110,100.8,114.6,102.9z"/>
		<path class="st2" d="M91.5,92.4c-4.8-0.9-12.1-7.6-12.1-7.6s2.3-8,3.7-13.5s4.4,15.3,18.3,19.2C101.5,90.4,96.3,93.3,91.5,92.4z"
			/>
		<path class="st2" d="M32.6,32.2c0,0-2.2,7.8-1.4,14.3c0.9,8.2,4.8,15.2,5.5,13.7c8-18.8,40.1-13.7,40.1-13.7
			C64.7,35.8,48.7,30.7,32.6,32.2z"/>
		<path class="st2" d="M121.9,132.7l-6.7-27.1l-9.2-5.2l-5-8.4l-13.9-1.7l-7.6-5.6l-6.9,15.1l-15.5-9.9L38.9,66.5
			c0,0-2.1,21-1.5,22.5s6.5,23.5,6.5,23.5l-3.8,23.7l18-5.5c0,0,4.7-6.8,24.2-19.8c14.3-9.5,28.7,2.8,34.2,21.1L121.9,132.7z"/>
	</g>
</g>
</svg>
