
<svg version="1.1" id="Layer_1" xmlns="http://www.w3.org/2000/svg" xmlns:xlink="http://www.w3.org/1999/xlink" x="0px" y="0px"
   viewBox="0 0 180 180" style="enable-background:new 0 0 180 180;" xml:space="preserve">

<style type="text/css">
  .st0{fill:#BF3B43;}
  .st1{fill:#040000;}
  .st2{fill:#040000;stroke:#040000;stroke-width:4;stroke-miterlimit:10;}
</style>
<title>z</title>
<g>
  <polyline class="st0" points="56.8,93.7 56.8,120.8 47.3,130.2 47.3,142.1 38.9,142.1 38.9,153.2 111.9,153.2 111.9,142.1
    103.5,142.1 103.5,130.2 94.2,120.8 94.2,93.7   "/>
  <polygon class="st1" points="104.6,141.3 104.6,130 95.3,120.6 95.3,94.6 93.3,93.4 93.2,93.4 93.2,121.4 102.6,130.8 102.6,143.3
    110.9,143.3 110.9,152.4 40.1,152.4 40.1,143.3 48.4,143.3 48.4,130.8 57.9,121.5 57.9,93.4 57.7,93.3 55.7,94.3 55.8,94.3
    55.8,120.5 46.5,130 46.5,141.2 38,141.2 38,154.3 113,154.3 113,141.3   "/>
  <rect x="56.8" y="92.7" class="st1" width="37.4" height="2"/>
  <rect x="56.8" y="119.8" class="st1" width="37.4" height="2"/>
  <rect x="47.3" y="129.2" class="st1" width="56.1" height="2"/>
  <rect x="47.3" y="141.1" class="st1" width="56.1" height="2"/>
  <path class="st2" d="M73.4,32.3L72.9,33l-0.8,0.9c-4.7,5.5-9.5,9.2-14.3,12.9c-4.9,3.6-7.8,9.4-7.7,15.5c-0.2,3.4,0.6,6.8,2.3,9.7
    c1.4,2.8,3,4.5,9.3,8.1l-6,14.9l2.6-0.9L58.2,94l6-14.8l-1.5-0.8c-5.9-3.3-7.3-4.8-8.5-7.2c-1.5-2.7-2.2-5.7-2-8.7
    c0-5.5,2.6-10.7,7-13.9c4.9-3.7,9.7-7.6,14.6-13.2l0.8-0.9l0.6-0.7L73.4,32.3z"/>
  <path class="st2" d="M99.1,72c1.6-3.1,2.3-6.4,2.3-9.8c-0.2-4.5-1.7-10.8-7.7-15.4c-5.4-4-9.8-7.6-14.3-12.8l-0.7-0.9l-0.5-0.6
    l-1.7,1.1l0.5,0.7l0.8,1c4.5,5.3,9.1,9.1,14.6,13.1c5.5,4.2,6.8,9.8,7,13.8c0.1,3.1-0.6,6.1-2,8.8c-1.4,2.5-3,3.9-8.6,7.2l-1.5,0.9
    l6,14.8l2.5,1.3l0.2-0.1l-6.1-15.2C95.8,76.5,97.5,74.8,99.1,72z"/>
  <path class="st0" d="M81.8,97.4L81.8,97.4l1.7-0.2c3.7-0.6,7.4-1.4,11-2.6l-6.1-15.1l0.7-0.5c5.9-3.4,7.5-5,9-7.7
    c1.5-2.9,2.3-6.1,2.2-9.4c-0.2-4.3-1.6-10.4-7.4-14.8c-5.5-4-10.1-7.8-14.6-13.2l-0.8-0.9L77,32.4h-3.2l-0.6,0.7l-0.8,1
    c-4.8,5.6-9.6,9.4-14.6,13.1c-4.6,3.4-7.4,9-7.4,14.8c-0.2,3.2,0.6,6.5,2.2,9.4c1.3,2.6,2.9,4.2,9,7.7l0.7,0.5l-6.1,15.2
    c3.5,1.3,7.2,2.1,11,2.6l1.8,0.2L81.8,97.4L81.8,97.4z"/>
  <path class="st1" d="M94.2,95.6c-3.4-1.3-7.1-2.2-10.7-2.9l-1.8-0.3c-4.1-0.4-8.3-0.5-12.3-0.3l-1.8,0.2c-3.7,0.4-7.3,1.1-10.9,2.3
    l-0.6-1.9c3.6-1.2,7.4-2,11.2-2.4l1.8-0.2c4.3-0.2,8.5-0.1,12.8,0.3l1.8,0.3c3.8,0.6,7.5,1.6,11.1,3L94.2,95.6z"/>
  <path class="st1" d="M89.1,81.1c-4.5-1.1-9.1-1.6-13.7-1.5c-4.6-0.1-9.2,0.4-13.6,1.5L61.2,79c4.6-1.1,9.5-1.7,14.3-1.6
    c4.8-0.1,9.6,0.5,14.3,1.6L89.1,81.1z"/>
  <circle class="st0" cx="75.5" cy="25.7" r="6.7"/>
  <path class="st1" d="M75.5,33.5c-4.3,0-7.7-3.4-7.7-7.7s3.4-7.7,7.7-7.7c4.3,0,7.7,3.4,7.7,7.7S79.8,33.5,75.5,33.5L75.5,33.5z
     M75.5,20.1c-3.2,0-5.8,2.6-5.8,5.8c0,3.2,2.6,5.8,5.8,5.8c3.2,0,5.8-2.6,5.8-5.8l0,0C81.3,22.6,78.7,20.1,75.5,20.1z"/>
  <path class="st1" d="M73.4,66.1v-4.8l-4.9-0.1c-1,0.2-1.9-0.6-2-1.5c0-0.2,0-0.4,0-0.5c-0.2-1,0.6-1.9,1.5-2c0.2,0,0.4,0,0.5,0h4.9
    V52c0-1.3,0.7-2,2.1-2c1-0.1,1.9,0.6,2,1.6l0,0c0,0.2,0,0.3,0,0.5v5.1h5.1c1.3,0,1.9,0.6,1.9,2c0,1.3-0.6,2-1.9,2h-5.1v4.9
    c0,1.4-0.7,2.1-2,2.1c-1,0.1-2-0.6-2.1-1.7C73.4,66.5,73.4,66.3,73.4,66.1z"/>
</g>
<g>
  <polyline class="st0" points="85.8,101.2 85.8,128.4 76.4,137.7 76.4,149.7 68.1,149.7 68.1,160.7 140.9,160.7 140.9,149.7
    132.4,149.7 132.4,137.7 123.2,128.4 123.2,101.2   "/>
  <polygon class="st1" points="133.6,148.8 133.6,137.6 124.2,128.2 124.2,102.1 122.3,100.9 122.3,100.9 122.3,128.9 131.5,138.3
    131.5,150.7 140,150.7 140,159.8 69.1,159.8 69.1,150.9 77.4,150.9 77.4,138.3 86.8,128.9 86.8,100.9 86.7,100.9 84.7,101.8
    84.9,102 84.9,128.1 75.5,137.4 75.5,148.8 67,148.8 67,161.9 142,161.9 142,148.8   "/>
  <rect x="85.8" y="100.3" class="st1" width="37.4" height="2.1"/>
  <rect x="85.8" y="127.3" class="st1" width="37.4" height="2.1"/>
  <rect x="76.4" y="136.7" class="st1" width="56" height="2.1"/>
  <rect x="76.4" y="148.6" class="st1" width="56" height="2.1"/>
  <path class="st2" d="M102.3,40l-0.4,0.6l-0.9,0.9c-4.3,4.8-8.9,9.1-14.2,12.8c-4.9,3.6-7.8,9.4-7.8,15.5c-0.1,3.4,0.6,6.7,2.4,9.7
    c1.3,2.8,3,4.5,9.2,8l-6,14.9l2.7-0.9h-0.1l6-14.9l-1.5-0.9c-6-3.4-7.3-4.8-8.5-7.3c-1.5-2.7-2.2-5.7-2.1-8.8
    c0-5.5,2.5-10.6,7-13.9c5.4-3.9,10.1-8.2,14.6-13.1l0.9-0.9l0.6-0.7L102.3,40z"/>
  <path class="st2" d="M128.1,79.6c1.6-3,2.4-6.4,2.2-9.8c-0.1-6.1-3-11.8-7.8-15.4c-5.2-3.7-10-8-14.2-12.8l-0.7-0.9l-0.4-0.6
    l-1.6,1.2l0.4,0.7l0.9,1c4.3,4.9,9.1,9.4,14.5,13.1c4.3,3.3,6.9,8.3,6.9,13.9c0,3.1-0.6,6.1-2.1,8.8c-1.3,2.5-2.8,3.9-8.5,7.3
    l-1.5,0.9l6,14.8l2.5,1.3h0.1L118.7,88C124.8,84.1,126.5,82.4,128.1,79.6z"/>
  <path class="st0" d="M110.8,105L110.8,105l1.6-0.1c3.7-0.4,7.5-1.3,11-2.7l-6.1-15.1l0.7-0.4c6-3.4,7.5-5.1,9.1-7.8
    c1.5-2.8,2.2-6.1,2.1-9.4c0-5.8-2.8-11.2-7.5-14.8c-5.4-3.7-10.3-8.2-14.5-13.1l-0.7-0.9l-0.4-0.7h-3.1l-0.6,0.7l-0.9,1
    C97.3,46.7,92.3,51,87,54.9c-4.6,3.4-7.5,8.9-7.5,14.8c-0.1,3.3,0.6,6.6,2.2,9.4c1.3,2.7,2.8,4.2,9.1,7.8l0.7,0.4l-6.1,15.1
    c3.6,1.2,7.3,2.1,11,2.7l1.8,0.1L110.8,105L110.8,105z"/>
  <path class="st1" d="M123.2,103.2c-3.4-1.3-7-2.2-10.7-2.8l-1.8-0.3c-4.2-0.4-8.2-0.4-12.4-0.3l-1.8,0.1c-3.7,0.4-7.3,1.2-10.7,2.4
    l-0.6-1.9c3.7-1.2,7.5-2.1,11.3-2.4l1.8-0.1c4.3-0.3,8.5-0.1,12.8,0.3l1.8,0.3c3.7,0.6,7.5,1.6,11.2,3L123.2,103.2z"/>
  <path class="st1" d="M118.1,88.7c-4.5-1-9.1-1.5-13.6-1.5c-4.6-0.1-9.2,0.4-13.7,1.5l-0.6-2.1c4.6-1,9.4-1.6,14.3-1.5
    c4.8-0.1,9.5,0.4,14.2,1.6L118.1,88.7z"/>
  <circle class="st0" cx="104.6" cy="33.4" r="6.7"/>
  <path class="st1" d="M104.6,41.2c-4.3,0-7.8-3.4-7.8-7.8c0-4.3,3.4-7.8,7.8-7.8c4.3,0,7.8,3.4,7.8,7.8
    C112.2,37.6,108.7,41.2,104.6,41.2L104.6,41.2z M104.6,27.7c-3.1,0-5.7,2.5-5.7,5.7c0,3.1,2.5,5.7,5.7,5.7s5.7-2.5,5.7-5.7l0,0
    C110.2,30.3,107.7,27.7,104.6,27.7z"/>
  <path class="st1" d="M102.3,73.7v-4.8h-4.9c-1-0.1-1.9-1-1.9-2.2c0-1,0.9-1.8,1.9-1.9h4.9v-5.2c-0.1-1,0.6-1.9,1.6-2.1
    c0.1,0,0.3,0,0.4,0c1-0.1,1.9,0.6,2.1,1.6l0,0c0,0.1,0,0.3,0,0.4v5.1h5.1c0.9-0.1,1.8,0.6,1.9,1.5c0,0.1,0,0.3,0,0.6
    c0.1,0.9-0.4,1.9-1.5,2.1c-0.1,0-0.3,0-0.4,0h-5.1v4.9c0.1,1-0.6,1.9-1.6,2.1c-0.1,0-0.3,0-0.4,0c-1,0.1-1.9-0.6-2.1-1.6
    C102.3,74,102.3,73.8,102.3,73.7z"/>
</g>
</svg>
