
<svg version="1.1" id="Layer_1" xmlns="http://www.w3.org/2000/svg" xmlns:xlink="http://www.w3.org/1999/xlink" x="0px" y="0px"
   viewBox="0 0 180 180" style="enable-background:new 0 0 180 180;" xml:space="preserve">

<style type="text/css">
  .st0{fill:#fff;}
  .st1{fill:#040000;}
</style>
<title>a</title>
<g id="Layer_2">
  <g id="Layer_1-2">
    <path class="st0" d="M32.1,167.7c-0.7-15,3.9-28.1,14.9-37.5c7-2,10.2-4.8,12.2-9c1.8-3.9,4.2-7.5,7-10.8
      c-9.5-9.9-19.3-2.4-25.8-0.2c-4.2,1.7-6.7,2.6-8.9,5.3l-3.5,4l-6.1-4.7l7-5.8L17.7,99l-5.7,3.7l-1.4-14l32.7-21.5
      c2.6-6.1,18.5-15,30.3-22.4l4.4-6.2l5.3,11.9c21.3,9.6,29.3,22.7,35.4,37.7c4.7,17.2,3.9,29.2,2.9,40.8c-1.1,11.6-2.5,23,1.7,38.8
      H32.1z"/>
    <path class="st1" d="M20.4,88.2l2.9-0.3l3.1,2.6l-3.9,4.8L17.6,93L20.4,88.2z M69.2,71.2L51,71l10-8.6
      C64.4,59.6,73.1,71.2,69.2,71.2z M44.2,68.6l-3.9-5.2c0.3-2.2,3.7-5.3,10-9.3s12.5-8,18.9-12.3l9.8-13.2l8.2,18.6
      c39.1,19.7,46,46.7,41.1,87.6c-1.7,12.5,0.2,25.1,5.3,36.6H27.1c-1-20.3,3.6-33.2,19-46.2c8.9-1.8,12.5-10,14.6-13.4
      c-13.5-2.4-21.9-0.7-25,5.1s-4.8,8.8-4.8,8.8l-18.6-10.4l9.9-7l-4.4-4.3l-10.5,7.4L6.3,86l34-22.6c0,0,3.4-1.2,4-0.4
      S44.3,68.6,44.2,68.6L12.8,89.3l0.3,10.7l5.5-3.5l11.8,12.3l-6.7,5.6l4,2.4l3.3-3.9c2.5-2.8,5.7-5,9.3-6.3
      c6.2-2.1,21.3-5.5,30.5,4c-3.1,3.4-5.7,7.2-7.8,11.3c-2,4-6.3,6.9-13,8.8c-10.5,9-17.3,19.9-16.6,34.3h87.4
      c-4-15.2-2.8-26.1-1.6-37.2s1.8-22.7-2.8-39.2c-5.8-14.4-13.5-27-34-36.2l-5.1-11.4l-4.1,5.9C62,54.2,46.7,62.8,44.2,68.6
      L44.2,68.6z"/>
    <path class="st1" d="M66.3,107.1c-0.9,1,0.9,4.1,4.6,3.6c1.5-0.2,2.2-1.3,3.2-1.2c0.9,0.1,1.9,0.1,2.8-0.1
      c8.9-1.3,15.3-11.1,15.5-21.4l-1.6-5.7c-3.2,13.6-8.5,21-16.1,22c-1.2,0.2-2.5,0.3-3.9,0.4C69.1,105,67.5,105.8,66.3,107.1z"/>
    <path class="st0" d="M137,75.8l-0.6-1.8c-2.6-7.4-5.6-13.2-9.3-17.7c-3.7-4.5-8.9-8.5-15.7-12.3l-1.7-0.9l1.3-1.5
      c3.8-4.4,7-10.3,9.7-17.6l2.5-6.8l1.4,16.9l26.5-14.3l-12.1,26.7l28.4-7.2l-18.7,23.5l16.6,4.4l-7.3,1.2c-6.7,0.9-13.1,3.1-19,6.4
      L137,75.8z"/>
    <path class="st0" d="M126.8,87.7L96,50.9l2.3-0.7c3.9-1.3,7.4-3.4,10.4-6.3l0.8-0.8l1,0.5c7.1,3.9,12.6,8.2,16.4,12.7
      c4.7,5.6,7.8,13.1,9.6,18.4l0.4,1.1l-0.9,0.7c-3.3,2.4-6.1,5.5-8,9.1L126.8,87.7z"/>
    <path class="st1" d="M172.3,62.6c-2.1-2.5-5.8-2.8-8.4-0.8c-0.9,0.7-1.6,1.7-1.9,2.8l-10.5-2.8l14-17.6c3.9,1.7,7.1-0.8,8-4.1
      c0.8-3.1-1-6.2-4.1-7c0,0,0,0,0,0L169,33c-3.2-0.6-6.3,1.4-6.9,4.6c-0.1,0.4-0.1,0.8-0.1,1.2l-20.1,5.1l8.6-18.9
      c3.2,0.6,6.3-1.6,6.8-4.8c0.1-0.4,0.1-0.8,0.1-1.2c0-3.1-2.5-5.7-5.7-5.7c0,0,0,0,0,0c-0.2,0-0.3,0-0.5,0c-3.5,0.3-6.5,3-5.5,7.1
      l-19.8,10.7L125,20.3c1.1-0.1,2.2-0.6,3.1-1.3c2.5-2.1,2.8-5.9,0.7-8.4c-2.1-2.5-5.9-2.8-8.4-0.7c-2.5,2.1-2.8,5.9-0.7,8.4
      c0.2,0.2,0.4,0.4,0.6,0.6c-4.7,15.5-12.2,27.7-27.3,31.3l33.9,40.5c6.3-14.2,19.6-19.4,35.7-21.2c0.2,0.3,0.3,0.5,0.5,0.7
      c2.1,2.5,5.9,2.8,8.4,0.7c2.4-2,2.8-5.5,1-8C172.4,62.8,172.3,62.7,172.3,62.6z M112.6,68.3L98.7,51.7c1.4-0.5,2.8-1,4.2-1.7
      l-0.1,0.1l6.9,2.2l-0.9-6.2c0.3-0.3,0.7-0.6,1-0.9c5.6,3.1,11.7,7.2,16,12.3c4.3,5.1,7.2,11.8,9.3,17.9c-0.4,0.3-0.7,0.6-1.1,0.8
      l0,0l-6-2l0.9,7.2l0,0c-0.9,1.2-1.7,2.4-2.4,3.7L112.6,68.3z M137.9,73.4c-2.3-6.6-5.3-13-9.6-18.2c-4.3-5.2-10.1-9.3-16.2-12.7
      c4.2-4.9,7.4-11.2,9.9-18.1l1,12.1l24.5-13.2L136,48.8L163,42l-17.4,21.7l11.8,3.1C150.6,67.8,143.9,70,137.9,73.4L137.9,73.4z"/>
    <polygon class="st1" points="115.6,57.6 116.6,64.9 123.6,67.3 122.5,60     "/>
    <path class="st0" d="M169.9,64.6c-0.9-1.2-2.7-1.5-3.9-0.5c-1.2,0.9-1.5,2.7-0.5,3.9c0,0.1,0.1,0.1,0.1,0.2
      c0.9,1.2,2.7,1.5,3.9,0.5s1.5-2.7,0.5-3.9C170,64.7,169.9,64.7,169.9,64.6z"/>
    <path class="st0" d="M170,37c-0.7-1.2-2.3-1.5-3.4-0.8c-0.2,0.1-0.4,0.3-0.6,0.5c-1.2,0.7-1.6,2.2-0.8,3.4
      c0.1,0.2,0.3,0.4,0.5,0.6c0.7,1.2,2.3,1.6,3.4,0.8c0.2-0.1,0.4-0.3,0.6-0.5c1.2-0.7,1.6-2.3,0.8-3.4C170.4,37.3,170.2,37.1,170,37
      z"/>
    <path class="st0" d="M153.7,17.4c-0.7-1.2-2.3-1.5-3.4-0.8c-0.2,0.1-0.4,0.3-0.6,0.5c-1.2,0.7-1.5,2.3-0.8,3.5
      c0.1,0.2,0.3,0.4,0.5,0.5c0.7,1.2,2.3,1.5,3.5,0.8c0.2-0.1,0.4-0.3,0.5-0.5c1.2-0.7,1.6-2.3,0.8-3.4
      C154,17.7,153.8,17.5,153.7,17.4z"/>
    <path class="st0" d="M126.4,12.6c-0.7-1.2-2.2-1.6-3.4-0.9c-0.2,0.1-0.4,0.3-0.6,0.5c-1.2,0.7-1.6,2.2-0.8,3.4
      c0.1,0.2,0.3,0.4,0.5,0.6c0.7,1.2,2.3,1.6,3.5,0.8c0.2-0.1,0.4-0.3,0.5-0.4c1.2-0.7,1.6-2.3,0.9-3.4
      C126.8,13,126.6,12.8,126.4,12.6z"/>
  </g>
</g>
</svg>
