
<svg version="1.1" id="Layer_1" xmlns="http://www.w3.org/2000/svg" xmlns:xlink="http://www.w3.org/1999/xlink" x="0px" y="0px"
   viewBox="0 0 180 180" style="enable-background:new 0 0 180 180;" xml:space="preserve">

<style type="text/css">
  .st0{fill:#fff;}
  .st1{fill:#040000;}
</style>
<title>alpha</title>
<g>
  <g id="Layer_1-2">
    <path class="st0" d="M43.2,159.5h94.2c0.5-6.1-3.6-11.7-12.3-17c-16.5-12.6-23.9-30-25.8-51.2h-18c-1.8,21.2-9.3,38.6-25.8,51.2
      C46.8,147.9,42.7,153.5,43.2,159.5z"/>
    <path class="st1" d="M125.3,135.2c-13.2-10.3-18.7-25.2-21.4-41.1h-5.6c1.7,19.3,8.6,35.1,23.6,46.6c8,4.9,11.7,10,11.3,15.6H46.8
      c-0.5-5.6,3.2-10.7,11.3-15.6c15-11.5,21.8-27.3,23.6-46.6h-5.6C73.3,110,68,125,54.7,135.2c-9.2,5.9-14.8,11.9-14.3,21v6.3h99.2
      v-6.4C139.9,147,134.3,141,125.3,135.2z"/>
    <path class="st0" d="M95.3,64.1l20.7-18H61.7l20.8,18c-9,2-11.6,7.4-11.6,16.1c0,9.5,8.2,16.7,18,16.7s17.9-7.2,17.9-16.7
      C106.8,71.4,104.3,66.1,95.3,64.1z"/>
    <path class="st1" d="M104.1,62.6l24.4-20.5h-24.6l0,0h-5.6l0,0H81.8l0,0h-5.6l0,0H51.6L76,62.6c-4.8,4-7.5,9.9-7.4,16.1l0,0
      c0,11.8,9.6,21.4,21.4,21.4s21.4-9.6,21.4-21.4C111.6,72.5,108.9,66.6,104.1,62.6z M90,93.9c-8.4,0-15.2-6.8-15.2-15.2l0,0
      c0-8,3.8-12.9,11.5-14.7L67,47.7h46L93.7,64.1c7.6,1.8,11.5,6.7,11.5,14.7C105.2,87.1,98.4,93.9,90,93.9z"/>
  </g>
</g>


</svg>
