
<svg version="1.1" id="Layer_1" xmlns="http://www.w3.org/2000/svg" xmlns:xlink="http://www.w3.org/1999/xlink" x="0px" y="0px"
   viewBox="0 0 180 180" style="enable-background:new 0 0 180 180;" xml:space="preserve">


<style type="text/css">
  .st0{fill:#fff;}
  .st1{fill:#040000;}
  .st2{fill:#fff;stroke:#231815;stroke-width:5;stroke-miterlimit:10;}
</style>
<title>beta</title>
<g>
  <g id="Layer_1-2">
    <path class="st0" d="M43.2,159.6h94.2c0.5-6.1-3.6-11.7-12.3-17c-16.5-12.6-23.9-30-25.8-51.2h-18c-1.8,21.2-9.3,38.6-25.8,51.2
      C46.8,148,42.7,153.6,43.2,159.6z"/>
    <path class="st1" d="M125.3,135.2c-13.2-10.3-18.7-25.2-21.4-41.1h-5.6c1.7,19.3,8.6,35.1,23.6,46.5c8,4.9,11.7,10,11.3,15.6H46.8
      c-0.5-5.6,3.2-10.7,11.3-15.6c15-11.4,21.8-27.3,23.6-46.5h-5.6c-2.8,16-8.1,30.9-21.4,41.1c-9.2,5.9-14.8,11.9-14.3,21v6.3h99.2
      v-6.4C139.9,147.1,134.3,141.1,125.3,135.2z"/>
    <rect x="76.1" y="38.4" class="st2" width="28.6" height="43.5"/>
    <rect x="60" y="82" class="st2" width="60" height="12.2"/>
  </g>
</g>

</svg>
