
<svg version="1.1" id="Layer_1" xmlns="http://www.w3.org/2000/svg" xmlns:xlink="http://www.w3.org/1999/xlink" x="0px" y="0px"
   viewBox="0 0 180 180" style="enable-background:new 0 0 180 180;" xml:space="preserve">

<style type="text/css">
  .st0{fill:none;}
  .st1{fill:#fff;}
</style>
<title>c</title>
<g id="camel_alpha_1_">
  <rect class="st0" width="180" height="180"/>
  <g id="camel_1_">
    <path class="st1" d="M104.8,159.6l-1.2-1.9c-13.7-22.4-21.7-48.2-23.8-76.8l0-0.3v-1.8c0.1-2.9,0.2-4.5-7.1-6.5
      c-2.6-0.8-5.2-1.4-8.2-1.9c-6.2-1.2-11.6-2.3-15.3-8L36.9,66c-4.5,1.3-7.8,2-10.3,2c-5.1,0-6.7-2.6-7.2-4.1
      c-1-2.9,0.4-6.5,4.2-10.8c-0.5-0.5-1-1-1.4-1.7c-1.1-1.7-2.1-4.5-1.1-8.9c0.8-3.7,4-10,16-10.8c2.7-4.4,5.8-7.2,11.9-7.2
      c1.8,0,3.8,0.2,6.2,0.6l2,0.2H58l0.2,0c2.2,0.2,4.5,0.6,6.7,1c5.9,1.2,10.6,1.7,14.7,1.7c2.8,0,5.3-0.3,7.6-0.8
      c2.9-1.1,6.3-1.6,10.8-1.6c4.4,0,8.6,0.5,11.3,1c3.8-2.8,10.5-7.2,15.1-7.2c0.9,0,2.6,0,4.2,1.3c3.2,2.5,3.6,7.7,3.6,10.7
      c0,5.1-1.4,12.1-5.2,16.4c0.8,6.3,10.3,30.1,23.8,48.6l0.4,0.5l0,0.1c0.9,1.3,4.2,5.7,6.7,9c2.3,3,4.5,6,5.5,7.4l0.8,1v45.1H104.8
      z"/>
    <g>
      <path d="M93.6,47.6c5.4,1,11-2.8,12.2-8l-20.6-3.8C84.4,41,88.4,46.6,93.6,47.6z"/>
      <path d="M111.4,38.2c3,1.2,5.6,4,6.6,7.2c3.6-4,5-10,3.2-15C117.4,32.2,114,34.8,111.4,38.2z"/>
      <path d="M166.4,112.4c-0.4-0.8-12.8-17.2-13.2-17.8c-13.4-18.2-21.8-39.8-23.2-46.4c3.8-4.8,5-11.8,5-17.2c0-4.2-1-9.6-4.6-12.6
        c-1.6-1.2-3.4-1.8-5.6-1.8c-4.6,0-10.8,3.6-15.6,7c-2.4-0.4-6.4-1-10.6-1c-4.4,0-8.2,0.6-11.6,1.8c-2,0.6-4.2,1-7,1
        c-4.6,0-9.6-0.8-14.4-1.6c-2.4-0.4-4.6-0.8-6.6-1h-0.8c-3.6-0.4-6.4-0.8-8.8-0.8C42.8,22,39,25,36,29.4
        C30.6,30,21.2,32.2,18.8,42c-1,4.2-0.6,7.8,1.4,10.8c0,0.2,0.2,0.2,0.2,0.4c-3.4,4.2-4.4,8.2-3.2,11.6c0.6,1.8,2.8,5.8,9.6,5.8
        c2.8,0,6.4-0.6,11-2l10.8-3.2c4.2,5.2,9.8,6.2,15.6,7.4c1.5,0.3,3.1,0.6,4.8,1l0,0l3,0.8c0.8,0.2,1.6,0.5,2.5,0.7
        c3.1,1.1,3.1,1.8,3.1,3.3c0,0.8,0,1.6,0,2.4c1.8,28.8,10,55,24,78l1.8,3h59.2h0.4h3.6h0.4v-48.8L166.4,112.4z M156.2,155.6H107
        c-13.6-22.2-21.2-47.4-23.2-75c0-0.6,0-1.2,0-1.8c0-0.1,0-0.3,0-0.4c4.5,1.5,8.1,2.8,8.2,2.8l3,1l2.2-5.8l-3-1.2
        c-0.5-0.2-10.3-3.8-18.1-6.1c-0.7-0.2-1.4-0.5-2.3-0.7c-3.2-1-6.2-1.6-8.6-2c-6-1.2-10-2-12.8-6.6l-1.2-2.2l-15.4,4.6
        c-4,1.2-7,1.8-9.2,1.8c-1.2,0-3-0.2-3.4-1.4c-0.4-1.2,0.4-3.6,3.8-7.4c0.1,0,0.2,0,0.4,0c6.4,0,15.4-1.2,16-1.2l3.2-0.4l-1-6.4
        l-3.2,0.4c-0.2,0-9.8,1.4-15.8,1.2h-1.2c-0.8-1.4-0.9-3.2-0.4-5.4c1.2-5.5,6.8-7.2,11-7.7c2,1.9,4.5,2.9,7,3.1
        c2.6,0,5.4-0.8,7.4-2.6c1-0.8,2-2.2,1.6-3.4c-0.4-0.8-10.6-0.2-11.2,1L40.4,34c2.5-4.2,4.7-5.6,8.6-5.6c2,0,4.6,0.4,8,0.8h0.8
        c2,0.2,4.2,0.6,6.4,1c5,1,10.4,1.8,15.4,1.8c3.6,0,6.4-0.4,8.8-1c2.6-1,5.8-1.4,9.6-1.4c4.6,0,8.8,0.6,10.8,1l1.4,0.2l1.2-0.8
        c5.4-4,10.4-6.6,13-6.6c0.6,0,1.2,0,1.6,0.4c1.4,1,2.2,4,2.2,7.6c0,4.8-1.4,10.8-4.4,14l-1,1l0.2,1.4c0.4,5.2,5.4,30.2,20.6,51
        c0.2,0.6,10,13.4,12.6,17V155.6z"/>
    </g>
  </g>
</g>
</svg>
