
<svg version="1.1" id="Layer_1" xmlns="http://www.w3.org/2000/svg" xmlns:xlink="http://www.w3.org/1999/xlink" x="0px" y="0px"
   viewBox="0 0 180 180" style="enable-background:new 0 0 180 180;" xml:space="preserve">
<defs>
<style type="text/css">
  .st0{fill:#fff;}
  .st1{fill:none;}
</style>
</defs>
<title>
d</title>
<path class="st0" d="M127,128.4l3.4,1.3l0.6-3.6c1.9-11,6.5-23,13.9-35.4l7.1-12l-26.5,18.6l-11.4-55.8l-24,50L66,41.5L54.6,97.3
  L28.3,78.8l6.8,11.8c7.4,12.8,12,24.7,13.9,35.5l0.6,3.6l3.4-1.3c4.1-1.6,8.1-2.9,12-4v0.4c-4.3,1.2-8.7,2.7-13.3,4.5l-2,0.8
  l0.1,2.2c0.6,7.7-0.6,15.5-3.5,22.7l-1.7,4.1h90.8l-1.5-4.1c-2.9-7.2-4.1-15-3.5-22.7l0.1-2.2l-2-0.8c-4.3-1.7-9.6-3.5-15.4-5v-0.4
  C117.6,125,122.2,126.5,127,128.4z"/>
<rect class="st1" width="180" height="180"/>
<path d="M154.7,62.5c-0.2,0-0.4,0-0.6,0c-6.2,0-11.2,5-11.2,11.2c-0.1,2.2,0.6,4.3,1.8,6.1l-16.8,11.9L119.3,50
  c7.2-3.5,7.5-11.2,3.7-16.6c-3.4-4.9-10.2-6-15.1-2.6c-0.2,0.2-0.5,0.3-0.7,0.5c-4.8,3.8-5.6,10.9-1.8,15.7c0.5,0.6,1,1.2,1.6,1.7
  L90,84L73,48.7c4.7-4,5.4-11,1.4-15.8c-0.5-0.6-1-1.1-1.6-1.5c-4.6-3.8-11.4-3.2-15.2,1.4c-0.2,0.2-0.4,0.5-0.5,0.7
  c-3.9,5.4-3.6,13.1,3.7,16.6l-8.6,41.7l-16.8-12c1.2-1.8,1.8-3.9,1.8-6.1c0-6.2-5.1-11.2-11.3-11.2s-11.2,5.1-11.2,11.3
  S19.7,85,25.9,85c0.4,0,0.9-0.1,1.6-0.2C44.3,110.4,53,136.1,40,162.5h100c-13-26.4-4.4-52,12.4-77.7c0.7,0.1,1.2,0.2,1.6,0.2
  c6.2,0.2,11.4-4.7,11.6-10.9C165.8,67.9,160.9,62.7,154.7,62.5z M128.1,125.6c-8.6-3.3-17.6-5.9-26.6-7.2v6.5
  c8.9,1.4,17.9,4.2,25.8,7.2c-0.1,0.9-0.1,1.7-0.1,2.6l-10.2,6.2l11.5,7.4c0.6,2.7,1.4,5.3,2.5,7.9l-41-0.1H49
  c1.1-2.6,1.9-5.4,2.5-8.1v0.3l11.5-7.4l-10.2-6.2c0-0.9,0-1.7-0.1-2.6c7.2-2.9,15.3-5.4,23.4-6.9l-3.8-3.8c-0.5-0.5-0.9-1.1-1.3-1.8
  c-6.5,1.4-12.9,3.5-19.2,5.9c-2-12-7.3-24.4-14.2-36.4l18.9,13.3L67.1,51L90,98.5l22.9-47.6l10.5,51.5l18.9-13.3
  C135.2,101.2,130.1,113.6,128.1,125.6z"/>
<path d="M86.9,107.5h6.5c0.9,0,1.6,0.7,1.6,1.6v0.1v28.6h6.1c0.9,0,1.6,0.7,1.6,1.6v0.1v6.4c0,0.9-0.7,1.6-1.6,1.6H79.2
  c-0.9,0-1.7-0.7-1.7-1.6v-6.4c0-1,0.8-1.7,1.7-1.7h6.1v-15.6l-0.6,0.6c-0.6,0.5-1.6,0.4-2.1-0.2l-4.5-4.5c-0.6-0.6-0.6-1.7,0-2.4
  l7.8-7.8C86.1,107.6,86.5,107.5,86.9,107.5"/>
<path class="st0" d="M25.9,68.4c-3.5,0-5.3,1.8-5.3,5.3s1.8,5.3,5.3,5.3s5.4-1.8,5.4-5.3S29.5,68.4,25.9,68.4z"/>
<path class="st0" d="M154.1,68.4c-3.6,0-5.4,1.8-5.4,5.3s1.8,5.3,5.4,5.3s5.3-1.8,5.3-5.3S157.7,68.4,154.1,68.4z"/>
<path class="st0" d="M114.2,34.6c-3.5,0-5.3,1.8-5.3,5.3s1.8,5.3,5.3,5.3s5.3-1.8,5.3-5.3S117.7,34.6,114.2,34.6z"/>
<path class="st0" d="M65.8,34.6c-3.5,0-5.3,1.8-5.3,5.3s1.8,5.3,5.3,5.3s5.3-1.8,5.3-5.3S69.3,34.6,65.8,34.6z"/>
</svg>
