
<svg version="1.1" id="Layer_1" xmlns="http://www.w3.org/2000/svg" xmlns:xlink="http://www.w3.org/1999/xlink" x="0px" y="0px"
   viewBox="0 0 180 180" style="enable-background:new 0 0 180 180;" xml:space="preserve">

<style type="text/css">
  .st0{fill:#BF3B43;}
  .st1{fill:#040000;}
  .st2{fill:#BF3B43;stroke:#231815;stroke-width:5;stroke-miterlimit:9.9999;}
  .st3{fill:#BF3B43;stroke:#231815;stroke-width:4.9966;stroke-miterlimit:9.9933;}
  .st4{fill:#BF3B43;stroke:#231815;stroke-width:5;stroke-miterlimit:10;}
</style>
<title>delta</title>
<g>
  <g id="Layer_1-2">
    <path class="st0" d="M43.2,159.6h94.2c0.5-6.1-3.6-11.7-12.3-17c-16.5-12.6-23.9-30-25.8-51.2h-18c-1.8,21.2-9.3,38.6-25.7,51.2
      C46.8,148,42.7,153.5,43.2,159.6z"/>
    <path class="st1" d="M125.3,135.2c-13.2-10.2-18.7-25.2-21.4-41.1h-5.6c1.7,19.3,8.6,35.1,23.6,46.6c8,4.9,11.7,10,11.3,15.6H46.8
      c-0.5-5.7,3.2-10.8,11.3-15.7c15-11.4,21.8-27.3,23.6-46.6h-5.6c-2.8,16-8.1,30.9-21.4,41.1c-9.2,5.9-14.8,11.9-14.3,21v6.4h99.2
      v-6.4C139.9,147,134.3,141,125.3,135.2z"/>

      <rect x="92.2" y="56" transform="matrix(0.3221 -0.9467 0.9467 0.3221 17.5101 150.6979)" class="st2" width="43.5" height="14.3"/>

      <rect x="56.4" y="41.5" transform="matrix(0.9507 -0.3102 0.3102 0.9507 -16.4884 22.8362)" class="st3" width="14.3" height="43.5"/>
    <rect x="74.7" y="38.7" class="st4" width="28.6" height="43.5"/>
    <rect x="58.5" y="82.3" class="st4" width="60" height="12.2"/>
  </g>
</g>

</svg>
