
<svg version="1.1" id="Layer_1" xmlns="http://www.w3.org/2000/svg" xmlns:xlink="http://www.w3.org/1999/xlink" x="0px" y="0px"
   viewBox="0 0 180 180" style="enable-background:new 0 0 180 180;" xml:space="preserve">

<style type="text/css">
	.st0{fill:none;}
	.st1{fill:#BF3B43;}
	.st2{fill:#1A1A1A;}
</style>
<title>Delta</title>
<g>
	<rect class="st0" width="180" height="180"/>
	<g>
		<g id="wings_1_">
			<g>
				<g>
					<path class="st1" d="M70,81.1C70,51.5,40,42.5,45,24.5c-36,1-36,58.3-36,126.6c0-14.4,7.1-19.8,16-17.1
						c0.9-11.2,6.1-16.6,14.6-13.5c4-19.7,12.8-24.9,30.5-24.9V81.1z"/>
					<path class="st2" d="M11.9,151.1h-6c0-68.9,0-128.5,39-129.6l4.1-0.1l-1.1,3.9c-1.9,7,2.9,12.7,9,19.9C64,53.8,73,64.4,73,81.1
						v17.5h-3c-17.7,0-24.1,5.2-27.6,22.5l-0.7,3.4l-3.3-1.2c-2.6-0.9-4.7-0.9-6.3,0.1c-2.3,1.5-3.9,5.4-4.3,10.8l-0.3,3.7l-3.6-1.1
						c-2.1-0.6-5.1-1-7.6,0.8C13.5,139.8,11.9,144.5,11.9,151.1z M41.4,27.8c-12.7,2.1-20.7,13.4-25,35.3
						c-3.7,18.7-4.3,43.5-4.4,70.4c0.3-0.3,0.6-0.5,0.9-0.7c2.6-1.9,5.9-2.8,9.4-2.4c1-5.7,3.2-9.8,6.6-12c1.8-1.1,4.5-2.2,8.3-1.6
						C41.9,98,52.2,93.2,67,92.7V81.1c0-14.5-7.9-23.8-14.8-32C46.5,42.3,41.1,35.9,41.4,27.8z"/>
				</g>
				<g>
					<path class="st2" d="M24.9,137c-1.7,0-3-1.3-3-3c0-4.7-0.1-9.9-0.2-15.5C21,83.3,20.1,35,43.5,21.9c1.4-0.8,3.3-0.3,4.1,1.2
						c0.8,1.4,0.3,3.3-1.2,4.1C26.1,38.5,27,84.7,27.7,118.4c0.1,5.6,0.2,10.8,0.2,15.6C27.9,135.7,26.5,137,24.9,137z"/>
				</g>
				<g>
					<path class="st2" d="M39.5,123.5c-1.6,0-2.9-1.2-3-2.9c-2.5-52.4-0.6-85.2,5.8-97.5c0.8-1.5,2.6-2,4-1.3c1.5,0.8,2,2.6,1.3,4
						c-4.1,7.8-8.3,30.5-5.2,94.5c0.1,1.7-1.2,3.1-2.9,3.1C39.6,123.5,39.5,123.5,39.5,123.5z"/>
				</g>
			</g>
			<g>
				<g>
					<path class="st1" d="M110,81.1c0-29.6,30.1-38.6,25.1-56.6c36,1,36,58.3,36,126.6c0-14.4-7.1-19.8-16-17.1
						c-0.9-11.2-6.1-16.6-14.6-13.5c-4-19.7-12.8-24.9-30.5-24.9V81.1z"/>
					<path class="st2" d="M174.1,151.1h-6c0-6.5-1.6-11.3-4.5-13.4c-2.4-1.8-5.5-1.4-7.6-0.8l-3.6,1.1l-0.3-3.7
						c-0.4-5.4-1.9-9.3-4.3-10.8c-1.6-1-3.7-1.1-6.3-0.1l-3.3,1.2l-0.7-3.4c-3.5-17.2-9.9-22.5-27.6-22.5h-3V81.1
						c0-16.7,9-27.4,16.2-35.9c6.1-7.2,10.9-12.9,9-19.9l-1.1-3.9l4.1,0.1C174.1,22.6,174.1,82.1,174.1,151.1z M159.4,130.3
						c2.9,0,5.6,0.8,7.8,2.5c0.3,0.2,0.6,0.5,0.9,0.7c-0.1-26.9-0.8-51.7-4.4-70.4c-4.3-21.9-12.3-33.2-25-35.3
						c0.3,8-5.1,14.5-10.8,21.3c-6.9,8.2-14.8,17.5-14.8,32v11.5c14.8,0.5,25.1,5.3,29.8,24.1c3.8-0.6,6.6,0.4,8.3,1.6
						c3.4,2.2,5.6,6.3,6.6,12C158.3,130.3,158.8,130.3,159.4,130.3z"/>
				</g>
				<g>
					<path class="st2" d="M155.1,137c-1.7,0-3-1.3-3-3c0-4.7,0.1-10,0.2-15.6c0.7-33.7,1.5-79.9-18.8-91.3c-1.4-0.8-2-2.6-1.2-4.1
						c0.8-1.4,2.6-2,4.1-1.2c23.4,13.1,22.5,61.4,21.8,96.7c-0.1,5.5-0.2,10.8-0.2,15.5C158.1,135.7,156.8,137,155.1,137z"/>
				</g>
				<g>
					<path class="st2" d="M140.5,123.5c0,0-0.1,0-0.1,0c-1.7-0.1-2.9-1.5-2.9-3.1c3.1-63.9-1.1-86.6-5.2-94.5
						c-0.8-1.5-0.2-3.3,1.3-4c1.5-0.8,3.3-0.2,4,1.3c6.4,12.3,8.4,45.1,5.8,97.5C143.5,122.2,142.1,123.5,140.5,123.5z"/>
				</g>
			</g>
		</g>
		<g>
			<path class="st1" d="M64.2,110.6l0.9,0.8l1.2-0.4c7.7-2.5,15.7-3.7,23.8-3.5c8.1-0.2,16.1,1,23.8,3.5l1.2,0.4l0.9-0.8
				c11.3-10.8,15.6-21.4,12.7-31.7c-3.6-11.6-15.8-24-37.4-38L90,40.1l-1.1,0.7C67.2,54.9,55,67.4,51.5,78.9l0,0
				C48.5,89.2,52.8,99.8,64.2,110.6z"/>
			<path class="st1" d="M78.1,134c-0.2,0.5-0.3,1-0.4,1.5c-4.5,10.1-10.5,10.6-19.8,10.6H37.3c-6.8,0-12.3,7.2-12.3,10v2h38.4
				c8.2,0,23.5-8,23.6-23.4v-2h-8.4L78.1,134z"/>
			<path class="st1" d="M113.8,113.8l-1.3-0.4c-7.2-2.4-14.8-3.6-22.4-3.4c-7.6-0.2-15.2,0.9-22.5,3.4l-1.3,0.5v1.4
				c-0.2,4.3-1,8.6-2.4,12.6l-0.8,2.6h54.1l-0.9-2.6c-1.4-4.1-2.2-8.3-2.4-12.6L113.8,113.8z"/>
			<path class="st1" d="M142.7,146.2h-20.6c-9.6,0-15.3-0.5-19.8-10.6c-0.1-0.5-0.2-1-0.4-1.5l-0.5-1.3h-8.4v2
				c0,15.2,15.6,23.4,23.6,23.4H155v-2C155,153.4,149.4,146.2,142.7,146.2z"/>
			<path class="st2" d="M142.5,141.8H121c-5.9,0-9.9,0.4-13.6-5.7c-0.5-0.7-0.7-1.2-0.8-1.4h17.8c-3.6-5.9-5.8-12.7-6.2-19.6
				c6.5-6.8,11.1-13.2,13.9-19.2c5.5-11.9,0-24.7-9.7-35.4c-4.9-5.3-13.7-12.3-26.7-21.1c1.8-1.3,6.4-3.7,6.4-9.9
				c0-6.6-5.5-11.5-12.1-11.5c-6.8,0-12.1,4.9-12.1,11.5c0,6.2,4.5,8.6,6.4,9.9c-13,8.8-21.9,15.8-26.8,21.1
				c-4.4,4.7-7.9,10.2-10.1,16.3c-4.8,13.6,1.4,24.7,14.4,38.3c-0.4,7-2.5,13.7-6.2,19.6h17.7c-0.1,0.2-0.4,0.6-0.8,1.4
				c-3.9,6.1-7.8,5.7-13.6,5.7H37.5c-8.8,0-17.7,7.3-17.7,20.7h42.5c14,0,27.8-11.2,27.8-24.3c0,13,13.7,24.3,27.8,24.3h42.5
				C160.2,149.1,151.1,141.8,142.5,141.8z M53.4,79.5C56.7,68.4,69,56.2,90,42.5c21,13.6,33.2,25.9,36.6,37
				c2.7,9.5-1.4,19.4-12.2,29.7c-7.9-2.6-16.1-3.8-24.4-3.6c-8.3-0.2-16.6,1-24.4,3.6C54.7,98.9,50.6,89,53.4,79.5z M63.3,156.1H27
				c0-1.4,4.4-8,10.3-8h20.5c9.4,0,16.7-0.3,21.9-12.4c-0.3,0.4-0.2,0.1,0.3-1.1h5C84.9,148.4,70.9,156.1,63.3,156.1z M65.7,128.4
				c1.5-4.3,2.3-8.7,2.5-13.2c7-2.4,14.4-3.5,21.8-3.3c7.4-0.2,14.8,0.9,21.8,3.3c0.1,4.5,1,9,2.5,13.2L65.7,128.4L65.7,128.4z
				 M116.7,156.1c-7.6,0-21.6-7.7-21.6-21.4h5c0.4,1.2,0.5,1.6,0.3,1.1c5.2,12,12.3,12.4,21.9,12.4h20.6c5.8,0,10.3,6.5,10.3,8
				L116.7,156.1z"/>
			<path class="st1" d="M90,24.6c3.7,0,5.6,1.5,5.5,4.7c0.1,3.8-1.7,5.7-5.5,5.7s-5.7-1.9-5.5-5.7C84.4,26.1,86.2,24.6,90,24.6z"/>
			<polygon class="st2" points="94,96.4 94,82.2 102.2,82.2 102.2,74.6 94,74.6 94,65.7 86,65.7 86,74.6 77.8,74.6 77.8,82.2
				86,82.2 86,96.4 			"/>
		</g>
		<g id="claws_1_">
			<g>
				<g>
					<path class="st1" d="M32.5,162.5c0,5-5,9-5,9s-5-4-5-9s2.2-9,5-9S32.5,157.5,32.5,162.5z"/>
					<path class="st2" d="M27.5,175.3l-1.9-1.5c-0.6-0.5-6.1-5.1-6.1-11.3c0-6.8,3.4-12,8-12s8,5.2,8,12c0,6.2-5.5,10.8-6.1,11.3
						L27.5,175.3z M27.4,156.4c-0.5,0.2-2,2.2-2,6c0,1.7,1,3.4,2,4.7c1-1.3,2-3,2-4.7C29.5,158.7,28,156.6,27.4,156.4z"/>
				</g>
				<g>
					<path class="st1" d="M42.5,162.5c0,5-5,9-5,9s-5-4-5-9s2.2-9,5-9S42.5,157.5,42.5,162.5z"/>
					<path class="st2" d="M37.5,175.3l-1.9-1.5c-0.6-0.5-6.1-5.1-6.1-11.3c0-6.8,3.4-12,8-12s8,5.2,8,12c0,6.2-5.5,10.8-6.1,11.3
						L37.5,175.3z M37.4,156.4c-0.5,0.2-2,2.2-2,6c0,1.7,1,3.4,2,4.7c1-1.3,2-3,2-4.7C39.5,158.7,38,156.6,37.4,156.4z"/>
				</g>
				<g>
					<path class="st1" d="M52.5,162.5c0,5-5,9-5,9s-5-4-5-9s2.2-9,5-9S52.5,157.5,52.5,162.5z"/>
					<path class="st2" d="M47.5,175.3l-1.9-1.5c-0.6-0.5-6.1-5.1-6.1-11.3c0-6.8,3.4-12,8-12s8,5.2,8,12c0,6.2-5.5,10.8-6.1,11.3
						L47.5,175.3z M47.4,156.4c-0.5,0.2-2,2.2-2,6c0,1.7,1,3.4,2,4.7c1-1.3,2-3,2-4.7C49.5,158.7,48,156.6,47.4,156.4z"/>
				</g>
			</g>
			<g>
				<g>
					<path class="st1" d="M137.5,162.5c0,5-5,9-5,9s-5-4-5-9s2.2-9,5-9C135.3,153.5,137.5,157.5,137.5,162.5z"/>
					<path class="st2" d="M132.5,175.3l-1.9-1.5c-0.6-0.5-6.1-5.1-6.1-11.3c0-6.8,3.4-12,8-12s8,5.2,8,12c0,6.2-5.5,10.8-6.1,11.3
						L132.5,175.3z M132.5,156.4c-0.5,0.2-2,2.2-2,6c0,1.7,1,3.4,2,4.7c1-1.3,2-3,2-4.7C134.5,158.7,133.1,156.6,132.5,156.4z"/>
				</g>
				<g>
					<path class="st1" d="M147.5,162.5c0,5-5,9-5,9s-5-4-5-9s2.2-9,5-9C145.3,153.5,147.5,157.5,147.5,162.5z"/>
					<path class="st2" d="M142.5,175.3l-1.9-1.5c-0.6-0.5-6.1-5.1-6.1-11.3c0-6.8,3.4-12,8-12s8,5.2,8,12c0,6.2-5.5,10.8-6.1,11.3
						L142.5,175.3z M142.5,156.4c-0.5,0.2-2,2.2-2,6c0,1.7,1,3.4,2,4.7c1-1.3,2-3,2-4.7C144.5,158.7,143.1,156.6,142.5,156.4z"/>
				</g>
				<g>
					<path class="st1" d="M157.5,162.5c0,5-5,9-5,9s-5-4-5-9s2.2-9,5-9C155.3,153.5,157.5,157.5,157.5,162.5z"/>
					<path class="st2" d="M152.5,175.3l-1.9-1.5c-0.6-0.5-6.1-5.1-6.1-11.3c0-6.8,3.4-12,8-12s8,5.2,8,12c0,6.2-5.5,10.8-6.1,11.3
						L152.5,175.3z M152.5,156.4c-0.5,0.2-2,2.2-2,6c0,1.7,1,3.4,2,4.7c1-1.3,2-3,2-4.7C154.5,158.7,153.1,156.6,152.5,156.4z"/>
				</g>
			</g>
		</g>
	</g>
</g>
</svg>
