
<svg version="1.1" id="Layer_1" xmlns="http://www.w3.org/2000/svg" xmlns:xlink="http://www.w3.org/1999/xlink" x="0px" y="0px"
   viewBox="0 0 180 180" style="enable-background:new 0 0 180 180;" xml:space="preserve">

<style type="text/css">
  .st0{fill:#BF3B43;}
  .st1{fill:#040000;}
  .st2{fill:none;stroke:#040000;stroke-width:5;stroke-miterlimit:10;}
</style>
<title>e</title>
<g id="Layer_2">
  <g id="Layer_1-2">
    <path class="st0" d="M48.9,129.1c-0.6-13.1,3.4-24.5,13-32.7c6.1-1.7,8.9-4.2,10.7-7.9c1.6-3.4,3.6-6.6,6.1-9.4
      c-8.3-8.6-16.9-2.1-22.5-0.2c-3.7,1.5-5.8,2.3-7.8,4.6l-3,3.5L40.1,83l6.1-5.1l-9.8-8.7l-5,3.2l-1.3-12.2l28.6-18.8
      c2.3-5.3,16.1-13.1,26.4-19.6l3.9-5.4l4.6,10.4c18.6,8.3,25.6,19.8,30.9,32.9c4.1,15,3.4,25.5,2.5,35.6c-0.9,10.1-2.2,20,1.5,33.8
      L48.9,129.1z"/>
    <path class="st1" d="M38.7,59.7l2.5-0.3l2.8,2.3l-3.5,4.1l-4.3-2L38.7,59.7z M81.3,44.9l-15.9-0.1l8.7-7.5
      C77.1,34.8,84.7,44.9,81.3,44.9z M59.5,42.6l-3.4-4.5c0.3-1.9,3.2-4.6,8.7-8.1s10.9-7,16.5-10.7l8.6-11.5L97,24
      c34.1,17.2,40.1,40.7,35.9,76.4c-1.4,10.9,0.2,21.9,4.6,32H44.6c-0.9-17.7,3.2-29,16.6-40.3c7.8-1.6,10.9-8.7,12.7-11.7
      c-11.7-2.1-19.1-0.6-21.8,4.5c-2.7,5.1-4.2,7.6-4.2,7.6l-16.2-9.1l8.6-6.1l-3.8-3.7l-9.2,6.4l-0.9-22.3l29.7-19.7
      c0,0,2.9-1,3.5-0.3C60.1,38.5,59.5,42.6,59.5,42.6l-27.4,18l0.3,9.4l4.8-3.1l10.3,10.8l-5.8,4.9l3.5,2.1l2.9-3.4
      c2.2-2.4,5-4.3,8.1-5.4c5.4-1.8,18.6-4.8,26.6,3.5c-2.7,3-5,6.3-6.8,9.9c-1.7,3.5-5.5,6.1-11.3,7.7c-9.2,7.9-15.1,17.4-14.5,29.9
      h76.2c-3.5-13.2-2.4-22.7-1.4-32.5s1.6-19.8-2.4-34.2c-5.1-12.6-11.7-23.6-29.7-31.6l-4.4-9.9l-3.6,5.1C75,30,61.6,37.5,59.5,42.6
      L59.5,42.6z"/>
    <path class="st1" d="M78.7,76.2c-0.8,0.9,0.8,3.6,4,3.1c1.3-0.2,1.9-1.1,2.8-1c0.8,0.1,1.7,0.1,2.5-0.1
      c7.8-1.1,13.3-9.7,13.5-18.7l-1.4-5c-2.8,11.9-7.4,18.3-14.1,19.2c-1,0.1-2.2,0.3-3.4,0.4C81.2,74.4,79.8,75.1,78.7,76.2z"/>
    <polygon class="st0" points="29.2,171.3 51.7,171.3 51.7,154.6 80.4,154.6 80.4,171.3 102.6,171.3 102.6,154.6 131.2,154.6
      131.2,171.3 153.6,171.3 151.8,141.4 134.8,129.9 48.2,129.9 31.1,141.4     "/>
    <polygon class="st2" points="134.8,130.8 151.8,142.2 153.6,172.2 131.2,172.2 131.2,155.5 102.6,155.5 102.6,172.2 80.4,172.2
      80.4,155.5 51.7,155.5 51.7,172.2 29.2,172.2 31.1,142.2 48.2,130.8     "/>
  </g>
</g>
</svg>
