
<svg version="1.1" id="Layer_1" xmlns="http://www.w3.org/2000/svg" xmlns:xlink="http://www.w3.org/1999/xlink" x="0px" y="0px"
   viewBox="0 0 180 180" style="enable-background:new 0 0 180 180;" xml:space="preserve">

<style type="text/css">
  .st0{fill:none;}
  .st1{fill:#BF3B43;}
</style>
<title>f</title>
<g id="ferz_alpha">
  <rect class="st0" width="180" height="180"/>
  <g id="ferz_1_">
    <path class="st1" d="M134.5,161.3l0.9-2.3l28.4-72.4l-21.5-8.7l-1.1-0.5l-0.2-1.2c-1.9-11.3-8.1-21.3-17.4-27.9
      c-15.9-11.4-22.7-16.5-32.7-28.6l-0.2-0.3l-0.2,0.3c-10,12.1-16.9,17.2-32.7,28.6C48.5,54.9,42.2,65,40.4,76.2l-0.2,1.2l-1.1,0.5
      l-21.5,8.7L46,159l0.9,2.3H134.5z"/>
    <path d="M166.7,87.8l1.2-3L151.1,78l-7-2.9l0,0H144c-2.1-11.8-8.9-22.5-18.6-29.5C109.8,34.4,103,29.4,93.3,17.5l-2.6-3.2
      l-2.8,3.2c-9.8,11.8-16.5,16.8-32.1,28.1c-9.9,7.1-16.5,17.5-18.6,29.5h-0.1l0,0l-10.2,4.1l-13.7,5.6l1.2,3l1.9,4.9l26.4,67.5
      l1.7,4.3h2.2h8h79.9h2.2l0.8-1.9v-0.1L166.7,87.8z M159.6,88.4l-28.2,67.7H70.8c9.1-5.9,21.9-15.4,36.6-30.1
      c16.9-16.9,32-37.4,36.7-43.9l15.1,6.1L159.6,88.4z M57.5,152.2c-2.7,1.4-5.3,2.7-7.8,3.8L21.5,88.4l15.6-6.3
      c8.6,11.4,18.1,22.3,28,32.5c6.6,6.8,13.4,13.2,20.2,19C74.3,142.2,64.6,148.3,57.5,152.2z M59.5,50.9c14.9-10.7,22-16,31.1-26.5
      c9.1,10.6,16.2,15.8,31.1,26.5c8.5,6.1,14.4,15.5,16.1,25.9l0.4,2.3c-5.8,7.4-22.3,27.9-38.3,42.3c-3.2,2.9-6.4,5.6-9.5,8.1
      l-0.2-0.1c-6.9-5.8-13.8-12.3-20.6-19.2c-9.5-9.8-18.5-20.2-26.8-31.1l0.4-2.3C45.1,66.3,50.8,57.1,59.5,50.9z"/>
  </g>
</g>
</svg>
