
<svg version="1.1" id="Layer_1" xmlns="http://www.w3.org/2000/svg" xmlns:xlink="http://www.w3.org/1999/xlink" x="0px" y="0px"
   viewBox="0 0 180 180" style="enable-background:new 0 0 180 180;" xml:space="preserve">

<style type="text/css">
	.st0{fill:none;}
	.st1{fill:#fff;}
	.st2{fill:#1A1A1A;}
	.st3{fill-opacity:0.2;}
</style>
<title>g</title>
<g>
	<rect class="st0" width="180" height="180"/>
	<g transform="matrix(1.209103 0 0 1.209103 -80.15058099999999 -24.390652)">
		<g>
			<path class="st1" d="M114.4,127.5c-1.5,0-2.8-0.8-3.3-2.1c-0.3-0.7-0.7-2.7,1.6-4.8c1-1,1.6-2.8,2.1-4.5c0.8-2.5,1.6-5.3,4.5-5.9
				c3.1-0.6,11.3-2.2,12.6-5.1c0.4-0.8,0.1-1.9-0.8-3.4l-1.9-3.1l3.8-0.9h0.4c0.3,0,0.6,0,1.1,0.1c0.8,0.1,2.2,0.3,4,0.3h0.5h2.3
				l0.3,2.3c0.8,5.7-1.9,13.4-19.6,17.7l-0.3,0.1c-0.2,0.1-0.3,0.1-0.3,0.1c-0.1,0.2-0.1,1-0.1,1.5c0,1.4,0,3.4-1.6,4.9
				C118,126.6,116.1,127.5,114.4,127.5z"/>
			<path class="st2" d="M133.6,100.4c0.5,0,2.3,0.4,5.1,0.4c0.2,0,0.3,0,0.5,0c1.5,10.3-14.8,14.1-17.9,14.8c-4,1-1.4,5.5-3.2,7.2
				c-1.6,1.5-2.9,2.1-3.7,2.1c-1.1,0-1.3-1.1,0.1-2.4c3.2-3,2.7-9.2,5.4-9.7C128.9,111.1,138.3,108.4,133.6,100.4
				C133.5,100.4,133.5,100.4,133.6,100.4L133.6,100.4z M133.6,95.1c-0.4,0-0.9,0.1-1.3,0.2l-7,1.7l3.7,6.2c0.3,0.5,0.4,0.9,0.5,1.1
				c-0.6,0.6-2.8,1.9-10.5,3.4c-4.4,0.9-5.8,5.1-6.6,7.7c-0.4,1.1-0.9,2.9-1.4,3.3c-2.4,2.3-3.3,5.2-2.3,7.7
				c0.9,2.3,3.2,3.8,5.7,3.8c2.4,0,4.9-1.2,7.3-3.5c2.1-2,2.3-4.6,2.4-6.3c19.5-5.2,21.1-14.9,20.3-20.3l-0.7-4.6l-4.6,0.1
				c-0.1,0-0.3,0-0.4,0c-1.7,0-2.9-0.2-3.7-0.3C134.5,95.1,134.1,95.1,133.6,95.1L133.6,95.1z"/>
		</g>
		<path class="st3" d="M118.9,118.3c-0.1,0.9,0,2.6-0.2,3.3h-0.3c0.1-1.2,0-2.5,0.2-3.2C118.7,118.4,118.9,118.3,118.9,118.3
			L118.9,118.3z"/>
		<g>
			<path class="st1" d="M161.7,129.6c-1.4,0-2.7-0.5-3.6-1.4c-1.7-1.6-3.2-2.2-5.3-2.8l-2.1-0.6l0.2-2.2c0.7-6.8,1.9-29.6,1.9-42.9
				c-0.4,1.8-0.7,3.5-1,5c-2.6,13.2-4,18.2-7.4,19.2c-1.1,0.3-2.6,0.7-4.4,0.7c-1.8,0-3.4-0.4-4.7-1.3c-2.1-1.3-1.6-4.2-1.4-5.6
				c0.8-5.1,4-14.5,6.8-21.5c6.2-15.5,8.7-16.1,9.9-16.4c0.8-0.2,1.7-0.3,2.6-0.3c3.1,0,6.2,1.1,8,2.9c1.1,1.1,1.7,2.5,1.7,3.9
				c0,4.9-0.8,11.9-1.8,20.1c-1.3,10.9-2.8,23.3-2.4,32.5c0.8,1,4.3,2.7,5.9,3.2c2.2,0.6,3,2.3,2.8,3.7
				C166.9,128.2,164.1,129.6,161.7,129.6z"/>
			<path class="st2" d="M153.1,62.1c3.2,0,7,1.7,7,4.2c0,11.5-4.9,37-4.2,53c0.1,2.2,6.1,4.8,7.8,5.3c2.1,0.6-0.1,2.4-2.1,2.4
				c-0.6,0-1.3-0.2-1.8-0.6c-2.1-2-4.1-2.7-6.4-3.4c0.8-7.7,3.4-53.4,0.9-54.1c-0.1,0-0.1,0-0.2,0c-3.8,0-6.2,31.4-10.5,32.6
				c-0.9,0.3-2.3,0.6-3.7,0.6c-1.1,0-2.3-0.2-3.3-0.9c-2.7-1.7,10.6-37.8,14.5-38.8C151.8,62.2,152.4,62.1,153.1,62.1L153.1,62.1z
				 M153.1,56.9c-1.1,0-2.2,0.1-3.2,0.4c-2.9,0.7-4.7,3.4-6.8,7.3c-1.5,2.7-3.1,6.4-4.8,10.7c-2.7,6.6-6.1,16.4-7,22.1
				c-0.3,1.7-0.9,6.1,2.6,8.3c1.8,1.1,3.9,1.7,6.1,1.7c2.1,0,3.9-0.5,5-0.8h0.1c1.9-0.5,3.3-1.7,4.4-3.6c-0.4,8.2-0.9,15.8-1.3,19.5
				l-0.4,4.4l4.2,1.2c1.9,0.6,3,1,4.2,2.2c1.4,1.4,3.3,2.1,5.4,2.1c3.6,0,7.7-2.3,8.2-6.1c0.3-2.5-1-5.6-4.7-6.6
				c-0.9-0.2-2.8-1.2-3.9-1.9c-0.2-8.8,1.2-20.5,2.4-30.9c1-8.2,1.8-15.3,1.8-20.4c0-2.1-0.9-4.2-2.5-5.8
				C160.2,57.8,156.1,56.9,153.1,56.9L153.1,56.9z"/>
		</g>
		<path class="st3" d="M136.6,101.1c-2.7-1.7,10.6-37.8,14.5-38.8c3.4-0.9,8.9,0.9,8.9,3.9c0,11.5-4.9,37-4.2,53
			c0.1,2.2,6.1,4.8,7.8,5.3c2.8,0.8-1.9,3.6-3.9,1.7c-2.1-2-4.1-2.7-6.4-3.4c0.8-7.7,3.4-53.4,0.9-54.1c-3.9-1.2-6.3,31.3-10.7,32.6
			C142,101.8,139,102.7,136.6,101.1L136.6,101.1z"/>
		<g>
			<path class="st1" d="M125.9,113.7c-6.4,0-11.7-0.7-16.1-2.1l-2-0.6l0.1-2.1c0.4-6.9,0.5-15.3-3-19.4l-2.2-2.6l3.1-1.5
				c5.2-2.6,12.6-3.8,22.7-3.8c12.1,0,25.3,1.8,35,3.1c4.3,0.6,8.1,1.1,10.2,1.2c12,0.7,12.8,8.2,12.8,10.5
				c-0.1,6.2-5.4,11.9-11.1,12.1c-5.6,0.1-12.7,1.2-20.2,2.3C145.4,112.3,135.3,113.7,125.9,113.7z"/>
			<path class="st2" d="M128.4,84.3c17.6,0,38,4,45,4.4c16.8,1,9.8,17.1,1.7,17.3c-13,0.3-32.7,5.2-49.3,5.2c-5.6,0-10.8-0.5-15.3-2
				c0.5-7.1,0.6-16.4-3.7-21.3C112.2,85.2,120,84.3,128.4,84.3L128.4,84.3z M128.4,79v5.3V79L128.4,79c-10.5,0-18.3,1.3-23.9,4.1
				l-6.1,3.1l4.5,5.2c3.3,3.7,2.6,14.1,2.4,17.5L105,113l3.9,1.3c4.7,1.5,10.2,2.3,16.9,2.3c9.6,0,20.2-1.6,29.6-2.9
				c7.4-1.1,14.4-2.1,19.9-2.2c7-0.2,13.6-7.2,13.7-14.7c0.1-5.9-3.9-12.5-15.3-13.2c-2.1-0.1-5.7-0.6-10-1.2
				C154,80.8,140.7,79,128.4,79L128.4,79z"/>
		</g>
		<g>
			<path class="st1" d="M136.9,101.1c-4.9,0-8.8-0.3-11.9-1l-3.2-0.7l1.4-3c0.8-1.7,1.9-7.3-0.2-11l-0.9-1.7l1.3-1.4
				c2.3-2.5,7.3-3.7,15.8-3.7c19.8,0,52.2,6.4,59.1,8c6.1,1.4,7.1,4,6.9,5.9c-0.3,3-3.9,4.9-8.8,4.9c-0.2,0-0.3,0-0.5,0
				c-0.9,0-1.9,0-2.8,0c-8.1,0-18.2,0.9-28,1.8C155.2,100.2,145.1,101.1,136.9,101.1z"/>
			<path class="st2" d="M139.2,81.4c18.7,0,49.7,5.9,58.5,7.9c8.3,1.9,4.7,5.7-1.4,5.7c-0.1,0-0.3,0-0.4,0c-0.9,0-1.9,0-2.9,0
				c-16.4,0-39.9,3.6-56.1,3.6c-4.4,0-8.3-0.3-11.3-0.9c0.9-2,2.4-8.6-0.2-13.3C127.2,82.2,132.4,81.4,139.2,81.4L139.2,81.4z
				 M139.2,76.1v5.3V76.1c-9.4,0-14.9,1.4-17.8,4.6l-2.5,2.8l1.8,3.3c1.5,2.8,0.6,7.5,0.1,8.6l-2.7,6l6.4,1.4
				c3.2,0.7,7.3,1.1,12.4,1.1c8.3,0,18.5-0.9,28.3-1.8c9.7-0.9,19.7-1.8,27.7-1.8c1,0,1.9,0,2.8,0c0.2,0,0.4,0,0.6,0
				c6.4,0,11-2.9,11.5-7.3c0.3-2.5-0.5-6.9-8.9-8.8C191.9,82.5,159.3,76.1,139.2,76.1L139.2,76.1z"/>
		</g>
		<g>
			<path class="st1" d="M164.8,129.6c-1.4,0-2.6-0.5-3.5-1.3c-1.6-1.5-3-2-5-2.6l-2.1-0.6l0.2-2.2c0.7-6.4,2-27.5,2.2-40.5
				c-0.3,1.3-0.6,2.7-0.8,3.8c-2.6,12.8-3.9,17.7-7.3,18.7c-1.1,0.3-2.6,0.7-4.3,0.7s-3.2-0.4-4.5-1.3c-2-1.3-1.6-4-1.4-5.3
				c0.7-4.9,3.9-14.1,6.7-21c6.1-15.2,8.4-15.9,9.7-16.2c0.8-0.2,1.7-0.3,2.6-0.3c3,0,5.9,1.1,7.6,2.8c1.1,1.1,1.7,2.4,1.6,3.9
				c-0.1,4.8-0.9,11.6-1.9,19.5c-1.3,10.6-2.8,22.6-2.5,31.5c0.8,0.9,4,2.6,5.5,2.9c2.2,0.6,2.9,2.3,2.8,3.7
				C170,128.2,167.2,129.6,164.8,129.6z"/>
			<path class="st2" d="M157.2,64.1c3.1,0,6.7,1.6,6.6,4c-0.1,11.2-5,35.9-4.4,51.5c0.1,2.1,5.8,4.6,7.4,5.1c2,0.5-0.1,2.3-2,2.3
				c-0.6,0-1.2-0.2-1.7-0.6c-2-1.9-3.9-2.6-6.1-3.3c0.8-7.5,3.7-51.8,1.2-52.5c-0.1,0-0.1,0-0.2,0c-3.7,0-6.1,30.5-10.3,31.7
				c-0.9,0.3-2.2,0.6-3.6,0.6c-1,0-2.1-0.2-3.1-0.8l0,0c-2.6-1.6,10.5-36.7,14.2-37.7C155.9,64.2,156.5,64.1,157.2,64.1L157.2,64.1z
				 M157.2,58.8c-1.2,0-2.3,0.1-3.3,0.4c-2.8,0.8-4.6,3.3-6.7,7.3c-1.4,2.7-3.1,6.3-4.7,10.5c-2.6,6.6-6,16.2-6.8,21.6
				c-0.2,1.4-0.9,5.8,2.6,8c1.7,1.1,3.7,1.7,5.9,1.7c2.1,0,3.9-0.5,5-0.8h0.1c1.6-0.5,2.8-1.4,3.8-2.8c-0.4,7.6-0.9,14.5-1.3,18
				l-0.5,4.4l4.3,1.2c1.8,0.5,2.8,0.9,3.9,2c1.4,1.3,3.3,2.1,5.3,2.1c3.6,0,7.6-2.3,8.1-6.1c0.3-2.5-1-5.6-4.7-6.6
				c-0.8-0.2-2.5-1-3.5-1.7c-0.1-8.6,1.3-19.9,2.5-29.9c1-8,1.9-14.9,1.9-19.8c0-2.1-0.8-4.1-2.4-5.7
				C164.1,59.8,160.1,58.8,157.2,58.8L157.2,58.8z"/>
		</g>
		<g>
			<path class="st1" d="M111.5,127.8c-1.5,0-2.8-0.8-3.3-2.1c-0.3-0.7-0.7-2.7,1.6-4.8c1-1,1.6-2.8,2.1-4.5c0.8-2.5,1.6-5.3,4.5-5.9
				c3.4-0.7,11.4-2.2,12.6-4.9c0.3-0.7,0.1-1.5-0.4-2.7l-1.1-0.6l0.5-2l0.5-2h2.1c0.1,0,0.2,0,0.5,0c0.5,0,1.8,0.1,4.1,0.1
				c0.3,0,0.7,0,1.1,0h2.3l0.3,2.3c0.8,5.7-1.9,13.4-19.6,17.7l-0.3,0.1c-0.2,0.1-0.3,0.1-0.3,0.1c-0.1,0.2-0.1,1-0.1,1.5
				c0,1.4,0,3.4-1.6,4.9C115.1,126.8,113.2,127.8,111.5,127.8z M113.1,110.4c-1.2,0-2.9-0.4-4.4-2.4l-0.6-0.8l0.1-1
				c1.1-13.3-3.9-17.6-4.2-17.8c-2.1-1.5-1.7-3.3-1.5-3.9c0.4-1.4,1.2-3.6,14.5-3.6c1,0,3.4,0,4.6,0.2s3.3,1,4.6,4.4
				c1.6,4.4,1.1,11.7-2.8,16.2c-0.5,0.6-1,1.3-1.6,2C119.3,106.8,116.6,110.4,113.1,110.4z"/>
			<path class="st2" d="M116.9,83.5c1.9,0,3.5,0.1,4.2,0.2c3.8,0.6,4.7,11,0.2,16.2c-2.3,2.8-5.4,7.9-8.3,7.9
				c-0.8,0-1.6-0.4-2.3-1.4c1-13.3-3.5-18.8-5.2-20.1l0,0C102.6,84.2,111.2,83.5,116.9,83.5L116.9,83.5z M130.6,100.9
				c0.2,0,1.5,0.2,4.6,0.2c0.3,0,0.7,0,1.1,0c1.5,10.3-14.8,14.1-17.9,14.8c-4,1-1.4,5.5-3.2,7.2c-1.6,1.5-2.9,2.1-3.7,2.1
				c-1.1,0-1.3-1.1,0.1-2.4c3.2-3,2.7-9.2,5.4-9.7C125.9,111.3,135.4,108.9,130.6,100.9L130.6,100.9L130.6,100.9z M116.9,78.2
				L116.9,78.2c-3,0-6,0.2-8.2,0.4c-2.6,0.3-7.4,0.9-8.8,5.1c-0.6,2-0.3,4.7,2.4,6.8c0.2,0.2,4.1,4,3.2,15.5l-0.2,2l1.2,1.6
				c1.3,1.7,2.7,2.6,4,3c-0.5,1-0.8,2.1-1.1,2.9c-0.4,1.1-0.9,2.9-1.4,3.3c-2.4,2.3-3.3,5.2-2.3,7.7c0.9,2.3,3.2,3.8,5.7,3.8
				c2.4,0,4.9-1.2,7.3-3.5c2.1-2,2.3-4.6,2.4-6.3c19.5-5.2,21.1-14.9,20.3-20.3l-0.7-4.6l-4.6,0.1c-0.4,0-0.7,0-1,0
				c-2.2,0-3.4-0.1-3.9-0.1c-0.2,0-0.4,0-0.7,0H129c0.9-4,0.6-8.1-0.5-11c-1.3-3.4-3.7-5.6-6.7-6C120.5,78.3,118.2,78.2,116.9,78.2
				L116.9,78.2z M123.2,106.1c0.2-0.3,0.4-0.6,0.7-0.9c0.4-0.5,0.7-0.9,1-1.3l1.5,0.8C125.9,105.1,125,105.6,123.2,106.1
				L123.2,106.1z"/>
		</g>
		<g>
			<path class="st1" d="M100.1,124.1c-1,0-1.9-0.2-2.7-0.6c-10.9-5.5-16.9-13.2-18.7-24.3c-0.8-5,0.6-9,4.7-13
				c2.4-2.4,6.8-3.9,11.3-3.9c3.3,0,6.4,0.8,9.3,2.2c10.7,5.5,6.3,30.8,4.9,34.4C107.9,121.6,103.5,124.1,100.1,124.1L100.1,124.1z"
				/>
			<path class="st2" d="M94.7,85c2.6,0,5.3,0.5,8,1.9c8.7,4.5,4.9,27.8,3.7,31.1c-0.5,1.4-3.8,3.4-6.3,3.4c-0.6,0-1.1-0.1-1.5-0.3
				c-10-5-15.5-11.9-17.2-22.4l0,0c-0.6-3.5,0-6.8,3.9-10.7C86.9,86.5,90.5,85,94.7,85L94.7,85z M94.7,79.7V85V79.7
				c-5.2,0-10.3,1.8-13.2,4.6c-4.7,4.6-6.4,9.5-5.5,15.3c2,12,8.3,20.3,20.1,26.2c1.2,0.6,2.5,0.9,3.9,0.9c4.1,0,9.8-2.9,11.3-6.8
				c0.9-2.4,2.3-9.7,2.3-17c0-10.9-2.8-17.8-8.4-20.7C102,80.6,98.4,79.7,94.7,79.7L94.7,79.7z"/>
		</g>
		<path class="st2" d="M92.4,104.5c-2,0.3-4.6,0-6.2-3.6s-1.1-7.3,1.2-8.1c4.1-1.4,5.7,1.2,6.9,3.4C95.8,98.9,96.6,103.8,92.4,104.5
			z"/>
		<g>
			<path class="st2" d="M80.8,100.1c-0.4,0-0.7-0.3-0.8-0.7c-0.1-0.4-0.2-0.8-0.2-1.2c-0.4,0.1-0.9-0.2-1-0.6
				c-3-14.7,4-23.7,21.6-27.4c0.4-0.1,0.9,0.2,1,0.6s-0.2,0.9-0.6,1c-13.1,2.8-18.5,8.2-20.2,14c0.5-1.3,1.1-2.6,1.9-3.7
				c3.4-5,9.6-8.4,18.4-10c0.5-0.1,0.9,0.2,1,0.7c0.1,0.4-0.2,0.9-0.7,1c-8.4,1.5-14.2,4.6-17.3,9.3c-2.8,4.1-3.5,9.5-2.1,16.1
				c0.1,0.4-0.2,0.9-0.6,1C80.9,100.1,80.8,100.1,80.8,100.1z"/>
		</g>
	</g>
</g>

</svg>
