
<svg version="1.1" id="Layer_1" xmlns="http://www.w3.org/2000/svg" xmlns:xlink="http://www.w3.org/1999/xlink" x="0px" y="0px"
   viewBox="0 0 180 180" style="enable-background:new 0 0 180 180;" xml:space="preserve">


<style type="text/css">
  .st0{fill:#fff;}
  .st1{fill:#040000;}
  .st2{fill:#fff;stroke:#231815;stroke-width:5;stroke-miterlimit:9.9999;}
  .st3{fill:#fff;stroke:#231815;stroke-width:4.9966;stroke-miterlimit:9.9933;}
  .st4{fill:#fff;stroke:#231815;stroke-width:5;stroke-miterlimit:10;}
</style>
<title>gamma</title>
<g>
  <g id="Layer_1-2">
    <path class="st0" d="M43.2,159.5h94.2c0.5-6.1-3.6-11.7-12.3-17c-16.5-12.6-23.9-30-25.8-51.3h-18c-1.8,21.3-9.3,38.6-25.8,51.3
      C46.8,147.9,42.7,153.4,43.2,159.5z"/>
    <path class="st1" d="M125.3,135.1c-13.2-10.3-18.7-25.2-21.4-41.1h-5.6c1.7,19.3,8.6,35,23.6,46.5c8,4.9,11.7,10,11.3,15.6H46.8
      c-0.5-5.6,3.2-10.7,11.3-15.6c15-11.5,21.8-27.3,23.6-46.5h-5.6c-2.8,16-8.1,30.9-21.4,41.1c-9.2,5.9-14.8,11.9-14.3,21v6.4h99.2
      v-6.4C139.9,146.9,134.3,140.9,125.3,135.1z"/>

      <rect x="80.1" y="55.4" transform="matrix(0.3221 -0.9467 0.9467 0.3221 9.7797 138.8157)" class="st2" width="43.5" height="14.3"/>

      <rect x="68.9" y="41.3" transform="matrix(0.9507 -0.3102 0.3102 0.9507 -15.8065 26.6996)" class="st3" width="14.3" height="43.5"/>
    <rect x="59" y="81.4" class="st4" width="60" height="12.2"/>
  </g>
</g>

</svg>
