
<svg version="1.1" id="Layer_1" xmlns="http://www.w3.org/2000/svg" xmlns:xlink="http://www.w3.org/1999/xlink" x="0px" y="0px"
   viewBox="0 0 180 180" style="enable-background:new 0 0 180 180;" xml:space="preserve">

<style type="text/css">
  .st0{fill:#BF3B43;}
  .st1{fill:#040000;}
</style>
<title>h</title>
<g id="Layer_2">
  <g id="Layer_1-2">
    <path class="st0" d="M39.1,143.6c-0.7-15,3.9-28.1,14.9-37.5c7-2,10.2-4.8,12.2-9c1.8-3.9,4.2-7.5,7-10.8
      c-9.5-9.9-19.3-2.4-25.8-0.2c-4.2,1.7-6.7,2.6-8.9,5.3l-3.5,4L29,90.8l7-5.8l-11.2-10L19,78.6l-1.5-14l32.7-21.5
      c2.6-6.1,18.5-15,30.3-22.4l4.5-6.2l5.3,11.9c21.3,9.6,29.3,22.7,35.4,37.7c4.7,17.2,3.9,29.2,2.9,40.8s-2.5,22.9,1.6,38.7H39.1z"
      />
    <path class="st1" d="M27.4,64.1l2.8-0.4l3.2,2.7l-4,4.7l-4.9-2.3L27.4,64.1z M76.2,47.1L58,46.9l10-8.6
      C71.4,35.5,80.1,47.1,76.2,47.1z M51.2,44.5l-3.9-5.2c0.3-2.2,3.7-5.3,10-9.3s12.5-8,18.9-12.3L86,4.6l8.2,18.6
      c39.1,19.7,46,46.7,41.1,87.6c-1.7,12.5,0.2,25.1,5.3,36.6H34.1c-1-20.3,3.6-33.2,19-46.2c8.9-1.8,12.5-10,14.6-13.4
      c-13.5-2.4-21.9-0.7-25,5.1s-4.8,8.8-4.8,8.8L19.3,91.3l9.9-7L24.8,80l-10.5,7.4l-1-25.5l34-22.6c0,0,3.4-1.2,4-0.4
      S51.3,44.5,51.2,44.5L19.8,65.2l0.3,10.7l5.5-3.5l11.8,12.3l-6.7,5.6l4,2.4l3.3-3.9c2.5-2.8,5.7-4.9,9.3-6.2
      c6.2-2.1,21.4-5.5,30.5,4c-3.1,3.4-5.7,7.2-7.8,11.3c-2,4-6.3,6.9-13,8.8c-10.5,9-17.3,19.9-16.6,34.3h87.4
      c-4-15.2-2.8-26.1-1.6-37.2s1.8-22.7-2.8-39.3c-5.8-14.4-13.5-27-34-36.2L84.4,17L80.2,23C69,30.1,53.7,38.7,51.2,44.5L51.2,44.5z
      "/>
    <path class="st1" d="M73.3,83c-0.9,1,0.9,4.1,4.6,3.6c1.5-0.2,2.2-1.3,3.2-1.2c0.9,0.1,1.9,0.1,2.8-0.1
      c8.9-1.3,15.3-11.1,15.5-21.4l-1.6-5.7c-3.2,13.6-8.5,21-16.1,22c-1.2,0.2-2.5,0.3-3.9,0.4C76.1,80.9,74.5,81.7,73.3,83z"/>
    <path class="st0" d="M76.4,145.7c-0.1,0.3-0.2,0.7-0.3,1c-5.1,11.4-11.8,12-22.3,12H30.7c-7.7,0-13.8,8.1-13.8,11.2v2.2H60
      c9.2,0,26.4-9,26.6-26.3v-0.1H76.4z"/>
    <path class="st0" d="M149.3,158.5h-23.1c-10.8,0-17.2-0.6-22.3-12.1c-0.1-0.2-0.1-0.5-0.2-0.7H93.4c0.2,17.2,17.6,26.5,26.5,26.5
      h43.1v-2.3C163.1,166.8,156.8,158.5,149.3,158.5z"/>
    <path class="st1" d="M149,152.1h-24.1c-6.7,0-11.1,0.4-15.3-6.4h-7.8c5.8,13.2,13.8,13.6,24.5,13.6h23.1c6.6,0,11.6,7.3,11.6,9
      H120c-8.2,0-23.2-8.1-24.2-22.5H84.2C83,160.2,68.2,168.2,60,168.2H19.1c0-1.6,4.9-9,11.6-9h23.1c10.4,0,18.6-0.4,24.4-13.5h-7.9
      c-4.3,6.7-8.7,6.4-15.3,6.4H31c-9.9,0-20,8.2-20,23.2h47.7c15.7,0,31.3-12.6,31.3-27.3c0,14.6,15.4,27.3,31.2,27.3H169
      C169,160.3,158.8,152.1,149,152.1z"/>
  </g>
</g>
</svg>
