
<svg version="1.1" id="Layer_1" xmlns="http://www.w3.org/2000/svg" xmlns:xlink="http://www.w3.org/1999/xlink" x="0px" y="0px"
   viewBox="0 0 180 180" style="enable-background:new 0 0 180 180;" xml:space="preserve">

<style type="text/css">
  .st0{fill:#fff;}
  .st1{fill:#040000;}
</style>
<title>i</title>
<g id="Layer_2">
  <g id="Layer_1-2">
    <path class="st0" d="M64.2,124.8l0.9,0.8l1.2-0.4c7.7-2.5,15.7-3.7,23.8-3.5c8.1-0.2,16.1,1,23.8,3.5l1.2,0.4l0.9-0.8
      c11.3-10.8,15.6-21.4,12.7-31.7c-3.6-11.6-15.8-24-37.4-38l-1.1-0.8L89,55C67.2,69.1,55,81.6,51.5,93.1l0,0
      C48.5,103.4,52.8,114,64.2,124.8z"/>
    <path class="st0" d="M113.8,128l-1.3-0.4c-7.2-2.4-14.8-3.6-22.4-3.4c-7.6-0.2-15.2,0.9-22.5,3.4l-1.3,0.5v1.4
      c-0.2,4.3-1,8.6-2.5,12.6l-0.8,2.6h54.1l-0.9-2.6c-1.4-4.1-2.2-8.3-2.4-12.6V128z"/>
    <path class="st0" d="M90,38.8c3.7,0,5.6,1.5,5.5,4.7c0.1,3.8-1.7,5.7-5.5,5.7s-5.7-1.9-5.5-5.7C84.5,40.3,86.3,38.8,90,38.8z"/>
    <polygon class="st1" points="94.1,110.6 94.1,96.4 102.2,96.4 102.2,88.8 94.1,88.8 94.1,79.9 86,79.9 86,88.8 77.9,88.8
      77.9,96.4 86,96.4 86,110.6     "/>
    <path class="st1" d="M122.3,74.1c-4.9-5.3-13.7-12.3-26.7-21.1c1.8-1.3,6.4-3.7,6.4-9.9c0-6.6-5.5-11.5-12.1-11.5
      c-6.8,0-12.1,4.9-12.1,11.5c0,6.2,4.5,8.6,6.4,9.9c-12.9,8.8-21.9,15.8-26.8,21.1c-4.4,4.7-7.9,10.2-10.1,16.3
      c-4.8,13.6,1.4,24.7,14.4,38.3c-0.4,7-2.5,13.7-6.2,19.6h17.7l0,0h6.5l0,0h5l0,0H95l0,0h5v0.1h6.5v-0.1h17.8
      c-3.6-5.9-5.8-12.7-6.2-19.6c6.5-6.8,11.2-13.2,13.9-19.2C137.5,97.6,132,84.8,122.3,74.1z M65.7,142.1L65.7,142.1
      c1.5-4.3,2.3-8.7,2.5-13.2c7-2.4,14.4-3.5,21.8-3.2c7.4-0.2,14.8,0.9,21.8,3.3c0.2,4.5,1,9,2.5,13.2L65.7,142.1z M114.4,122.8
      c-7.9-2.6-16.1-3.8-24.4-3.6c-8.3-0.2-16.6,1-24.4,3.6c-10.9-10.3-14.9-20.2-12.2-29.7C56.7,82,69,69.8,90,56.1
      c21,13.6,33.2,25.9,36.6,37C129.3,102.7,125.2,112.6,114.4,122.8z"/>
  </g>
</g>
</svg>
