
<svg version="1.1" id="Layer_1" xmlns="http://www.w3.org/2000/svg" xmlns:xlink="http://www.w3.org/1999/xlink" x="0px" y="0px"
   viewBox="0 0 180 180" style="enable-background:new 0 0 180 180;" xml:space="preserve">

<style type="text/css">
	.st0{fill:none;}
	.st1{fill:#8c8a88;}
	.st2{fill:#1A1A1A;}
</style>
<title>i</title>
<g>
	<rect x="0" y="0" class="st0" width="180" height="180"/>
	<g>
		<g>
			<path class="st1" d="M39.1,67.4c-0.8,3.2-1.2,6.4-1.3,9.7c-0.2,8.3,3.3,17,4.6,27.3c2.1,16.6-6.6,31.2-8.4,36.7
				c-1.5,4.7-1.8,18.8-1.8,18.8h101.9l-1-10.2l-8.4-8.7l-0.8-7.5c-0.4-3.2-2.5-15.8-8.5-26.8l-25-39.3
				C90.4,67.4,39.1,67.4,39.1,67.4z"/>
			<path class="st2" d="M29,159.8c0.1-1.4,0.3-14.6,2-19.6c0.4-1.3,1.1-2.7,1.9-4.6c3-6.9,8-18.3,6.4-30.8c-0.5-4.2-1.4-8-2.3-11.8
				c-1.2-5.5-2.4-10.7-2.3-16c0.1-3.5,0.5-6.9,1.3-10.3l0.5-2.3H92l25.9,40.7l0.1,0.2c6.8,12.3,8.7,26.4,8.9,28l0.7,6.4l8.4,8.7
				l1.4,14.5H29.1L29,159.8z M130.3,151.1l-8.4-8.7L121,134c-0.2-1.5-1.9-14.4-8.1-25.7L88.8,70.5H41.5c-0.4,2.3-0.6,4.5-0.7,6.8
				c-0.1,4.5,1,9.4,2.2,14.5c0.9,3.9,1.8,7.9,2.4,12.3c1.8,14.1-3.6,26.5-6.8,33.9c-0.8,1.7-1.4,3.1-1.7,4.1
				c-0.9,2.8-1.4,10-1.6,14.8h95.5L130.3,151.1z"/>
		</g>
		<g>
			<path class="st2" d="M25.1,159.5c0.2-1.4,1.4-14.5,3-19.4c0.5-1.4,1.3-3.1,2.3-5.2c3.2-6.8,8.6-18.1,7-30.2
				c-0.3-1.9-0.5-3.8-0.8-5.7c-1.1-8.1-2.1-15-1.9-22c0.1-3.5,0.5-6.9,1.3-10.3l0.5-2.3H92l25.9,40.7l0.1,0.2
				c6.8,12.3,8.7,26.4,8.9,28l0.7,6.4l8.4,8.7l1.4,14.5H24.9L25.1,159.5z M130.3,151.1l-8.4-8.7L121,134c-0.2-1.5-1.9-14.4-8.1-25.7
				L88.8,70.5H41.5c-0.4,2.3-0.6,4.5-0.7,6.8c-0.2,6.4,0.7,13.2,1.8,21c0.3,1.9,0.5,3.8,0.8,5.8c1.8,13.8-4,26.1-7.5,33.5
				c-0.9,1.8-1.7,3.5-2,4.5c-1,2.8-1.9,10-2.4,14.8h99.3L130.3,151.1z"/>
		</g>
		<g>
			<path class="st1" d="M81.9,71.2c0,0-1.2,6.3-3,12.9c-2.7,9.9-4.6,13-5.5,14l-0.7,0.8l-1-0.4c-15.1-6.9-28-24.8-31.6-30.1L40,68.3
				v-0.1c-0.5-0.9-11.2-23.5-5.2-38l0.2-0.4l0.3-0.2c8.6-6.2,19.9-9.3,33.5-9.3H69c6.4,0,12.7,0.7,18.9,2.1c1.3,0,9.1,0.1,14.1,1.6
				c8.5,2.2,15.9,7.5,20.7,14.8c3.9,5.8,6.4,12.4,7.5,19.3l0,0l0,0c28.7,37.5,14.3,72.7,12.6,76.5c-1.2,2.8-1.5,5.9-1.1,9
				c0.1,1.3,0.4,2.6,0.7,3.9l0.2,0.9L142,149c-1.4,1.4-3.3,2.2-5.3,2.4h-0.1H136c-0.2,0-0.3,0-0.5,0c-0.5,0-1.1,0-1.6-0.1h-0.1h-0.1
				c-5.8-1.5-8.8-4.9-8.9-9.9c0-1.6,0.6-4,1.5-7.3c1.6-6.1,4.1-15.4,3.1-24.4l-0.2-1.5l-1.6-6.7l-25-11c-2,0.9-4.1,1.3-6.3,1.3
				c-2.4,0-4.8-0.5-6.9-1.5c-3.2-1.5-6.1-3.6-8.4-6.3l-1.5-1.8L81.9,71.2z"/>
			<path class="st2" d="M133.4,154.5l-0.5-0.1c-7-1.8-11-6.4-11.1-12.7c0-2.1,0.7-4.6,1.6-8.2c1.6-5.9,3.9-14.8,3-23.3l-0.2-1.4
				l-1.2-5.1l-22.3-9.9c-4.6,1.5-10,1.2-14.3-0.8c-2.7-1.2-5.2-2.8-7.3-4.8c-1.8,6.2-3.6,10.3-5.3,12.1l-2.2,2.3l-2.9-1.3
				c-15.9-7.2-29.2-25.7-32.9-31.2l-0.3-0.6c-1.2-2.5-11.7-25-5.3-40.5l0.5-1.2l1-0.7c9.1-6.5,20.9-9.8,35.2-9.8h0.2
				c6.4,0,12.9,0.7,19.2,2.1c2.1,0.1,9.5,0.3,14.5,1.7c9.2,2.4,17.2,8.1,22.3,16.1c4,5.9,6.7,12.7,7.9,19.8
				c28.9,38.5,14.4,74.6,12.6,79c-1,2.3-1.3,4.9-0.9,7.5c0.1,1.2,0.3,2.3,0.6,3.5l0.6,2.6l-1.9,1.8c-1.9,1.8-4.5,2.9-7.2,3.2h-0.1
				H136c-0.2,0-0.3,0-0.5,0C134.8,154.6,134.2,154.6,133.4,154.5z M136.5,148.6c1-0.1,2-0.5,2.8-1.1c-0.3-1.1-0.5-2.2-0.6-3.3
				c-0.5-3.5-0.1-7.2,1.2-10.5l0.1-0.1c1.6-3.8,15.4-37.4-12.3-73.6l-0.4-0.6l-0.1-0.8c-1-6.4-3.4-12.6-7-18
				c-4.3-6.7-11-11.5-18.9-13.6c-4.7-1.4-12.4-1.5-13.3-1.5h-0.3l-0.3-0.1c-6-1.3-12.1-2-18.2-2H69c-12.8,0-23.4,2.9-31.4,8.5
				c-5,12.9,4.4,33.4,5.2,35.1c3.5,5.1,15.4,21.5,29.2,28.4c0.8-1.4,2.2-4.6,4.2-11.9c0.2-0.7,0.3-1.3,0.5-2l2.4-10.8l5.9,1.2
				c0,0-0.8,4.3-2.1,9.6l0.5,0.6c2,2.3,4.5,4.2,7.4,5.5c3.3,1.6,7.3,1.6,10.7,0.2l1.2-0.5l27.6,12.1l1.9,8.2l0.2,1.9
				c1,9.5-1.5,19.1-3.2,25.5c-0.8,2.8-1.4,5.3-1.4,6.5c0.1,2.5,0.9,5.5,6.6,7c0.5,0.1,1,0.1,1.5,0.1l0,0L136.5,148.6z"/>
		</g>
		<g>
			<path class="st2" d="M133.4,154.5l-0.5-0.1c-7-1.8-11-6.4-11.1-12.7c0-2.1,0.7-4.6,1.6-8.2c1.6-5.9,3.9-14.8,3-23.3l-0.2-1.4
				l-1.2-5.1l-22.3-9.9c-4.6,1.5-10,1.2-14.3-0.8c-2.7-1.2-5.2-2.8-7.3-4.8c-2.6,8.5-5.2,12.9-6.3,14.1l-2.2,2.3l-2.9-1.3
				c-16.6-7.6-24.6-21-29.3-29c-1-1.7-1.8-3.1-2.6-4.2l-0.3-0.6c-1.2-2.5-11.7-25-5.3-40.5l0.5-1.2l1-0.7c9.1-6.5,20.9-9.8,35.2-9.8
				h0.2c6.4,0,12.9,0.7,19.2,2.1c2.1,0.1,9.5,0.3,14.5,1.7c9.2,2.4,17.2,8.1,22.3,16.1c4,5.9,6.7,12.7,7.9,19.8
				c28.9,38.5,14.4,74.6,12.6,79c-1,2.3-1.3,4.9-0.9,7.5c0.1,1.2,0.3,2.3,0.6,3.5l0.6,2.6l-1.9,1.8c-1.9,1.8-4.5,2.9-7.2,3.2h-0.1
				H136c-0.2,0-0.3,0-0.5,0C134.8,154.6,134.2,154.6,133.4,154.5z M136.5,148.6c1-0.1,2-0.5,2.8-1.1c-0.3-1.1-0.5-2.2-0.6-3.3
				c-0.5-3.5-0.1-7.2,1.2-10.5l0.1-0.1c1.6-3.8,15.4-37.4-12.3-73.6l-0.4-0.6l-0.1-0.8c-1-6.4-3.4-12.6-7-18
				c-4.3-6.7-11-11.5-18.9-13.6c-4.7-1.4-12.4-1.5-13.3-1.5h-0.3l-0.3-0.1c-6-1.3-12.1-2-18.2-2H69c-12.8,0-23.4,2.9-31.4,8.5
				c-5,12.9,4.4,33.4,5.2,35.1c0.8,1.3,1.7,2.7,2.7,4.4c4.6,7.6,11.4,19.2,25.5,26c1-1.8,3.2-6.3,5.2-13.9c0.2-0.7,0.3-1.3,0.5-2
				l2.4-10.8l5.9,1.2c0,0-0.8,4.3-2.1,9.6l0.5,0.6c2,2.3,4.5,4.2,7.4,5.5c3.3,1.6,7.3,1.6,10.7,0.2l1.2-0.5l27.6,12.1l1.9,8.2
				l0.2,1.9c1,9.5-1.5,19.1-3.2,25.5c-0.8,2.8-1.4,5.3-1.4,6.5c0.1,2.5,0.9,5.5,6.6,7c0.5,0.1,1,0.1,1.5,0.1l0,0L136.5,148.6z"/>
		</g>
		<g>
			<path class="st1" d="M126.2,106c-4.5,0-9.1-1-13-2.6c-4.8-2.2-8.9-5.8-11.7-10.3l-0.9-1.5l15.8-7l0.6,1.5c0,0,2.2,5.8,7.5,8.1
				c3.7,1.7,6.7,2,8.5,2c0.7,0,1.4,0,2-0.1c0.2-0.1,0.5-0.1,0.8-0.1c1.7,0,3,0.8,3.5,2.2c0.5,1.5-0.2,3.3-2,4.8
				C134.9,104.9,131,106,126.2,106L126.2,106z"/>
			<path class="st2" d="M112,106c-5.4-2.5-9.9-6.4-13-11.5l-2.7-4.4l21.9-9.7l1.6,4.5c0,0.1,1.8,4.7,5.9,6.5
				c3.3,1.4,5.8,1.7,7.3,1.7c0.6,0,1.1,0,1.5-0.1c3.4-0.6,6.6,1.2,7.6,4.1c1,2.8-0.1,5.9-2.9,8.2c-2.9,2.4-7.5,3.7-13,3.7l0,0
				C121.3,109,116.3,107.9,112,106z M135.6,98.9c-0.8,0.1-1.6,0.2-2.5,0.2c-2.1,0-5.5-0.4-9.7-2.2c-4.7-2-7.4-6.2-8.5-8.4l-9.8,4.3
				c2.5,3.3,5.7,6,9.5,7.7c3.5,1.6,7.6,2.5,11.7,2.5c4,0,7.4-0.9,9.2-2.4c0.8-0.7,1.1-1.3,1-1.5c-0.1-0.1-0.4-0.2-0.7-0.2
				C135.7,98.9,135.6,98.9,135.6,98.9z"/>
		</g>
		<path class="st2" d="M114.2,58.5c0,0-1.5-9-6.7-11.1s-10.2,4.4-6,7.7C106.6,59.1,109,54,114.2,58.5z"/>
	</g>
</g>
</svg>
