
<svg version="1.1" id="Layer_1" xmlns="http://www.w3.org/2000/svg" xmlns:xlink="http://www.w3.org/1999/xlink" x="0px" y="0px"
   viewBox="0 0 180 180" style="enable-background:new 0 0 180 180;" xml:space="preserve">

<style type="text/css">
  .st0{fill:#fff;}
  .st1{fill:#040000;}
</style>
<title>j</title>
<g>
  <path class="st0" d="M48.6,118.9l0.9,0.8l1.1-0.4c7.7-2.5,15.7-3.7,23.8-3.5c8.1-0.2,16.1,1,23.8,3.5l1.2,0.4l0.9-0.8
    c11.3-10.8,15.6-21.4,12.7-31.7c-3.6-11.6-15.8-24-37.4-38l-1.2-0.7l-1.1,0.7c-21.7,14.1-33.9,26.5-37.5,38l0,0
    C32.9,97.5,37.2,108.2,48.6,118.9z"/>
  <path class="st0" d="M98.2,122.1l-1.3-0.4c-7.2-2.4-14.8-3.6-22.4-3.3c-7.6-0.2-15.2,0.9-22.5,3.4l-1.3,0.5v1.4
    c-0.2,4.3-1,8.6-2.5,12.6l-0.8,2.6h54.1l-0.9-2.6c-1.4-4.1-2.2-8.3-2.4-12.6C98.2,123.7,98.2,122.1,98.2,122.1z"/>
  <path class="st0" d="M74.4,32.9c3.7,0,5.6,1.5,5.5,4.7c0.1,3.8-1.7,5.7-5.5,5.7s-5.7-1.9-5.5-5.7C68.8,34.5,70.6,32.9,74.4,32.9z"
    />
  <polygon class="st1" points="78.4,104.7 78.4,90.5 86.6,90.5 86.6,82.9 78.4,82.9 78.4,74 70.3,74 70.3,82.9 62.2,82.9 62.2,90.5
    70.3,90.5 70.3,104.7   "/>
  <path class="st1" d="M106.7,68.2C101.8,62.9,93,55.9,80,47.1c1.8-1.3,6.4-3.7,6.4-9.9c0-6.6-5.5-11.5-12.1-11.5
    c-6.8,0-12.1,4.9-12.1,11.5c0,6.2,4.5,8.6,6.4,9.9c-12.9,8.8-21.9,15.8-26.8,21.1c-4.4,4.7-7.9,10.2-10.1,16.3
    c-4.8,13.6,1.4,24.7,14.4,38.3c-0.4,7-2.5,13.7-6.2,19.6h17.7l0,0h6.7l0,0h5l0,0h10.1l0,0h5l0,0h6.5l0,0h17.8
    c-3.6-5.9-5.8-12.7-6.2-19.6c6.5-6.8,11.2-13.2,13.9-19.2C121.8,91.7,116.3,78.9,106.7,68.2z M50.1,136.2L50.1,136.2
    c1.5-4.3,2.3-8.7,2.5-13.2c7-2.4,14.4-3.5,21.8-3.2c7.4-0.2,14.8,0.9,21.8,3.3c0.2,4.5,1,9,2.5,13.2L50.1,136.2z M98.8,116.9
    c-7.9-2.6-16.1-3.8-24.4-3.6c-8.3-0.2-16.6,1-24.4,3.6c-10.9-10.3-14.9-20.2-12.2-29.7c3.2-11,15.5-23.3,36.5-37
    c21,13.6,33.2,25.9,36.6,37C113.6,96.8,109.6,106.7,98.8,116.9z"/>
</g>
<g>
  <path class="st0" d="M79.8,130.8l0.9,0.9l1.2-0.5c7.7-2.6,15.7-3.8,23.9-3.6c8.2-0.2,16.2,1.1,23.9,3.5l1.2,0.5l0.9-0.9
    c11.3-10.7,15.6-21.4,12.7-31.7c-3.6-11.6-15.9-24.2-37.6-38.2l-1.1-0.8l-1.1,0.8c-21.8,14-34,26.6-37.6,38.1l0,0
    C64.1,109.4,68.3,120,79.8,130.8z"/>
  <path class="st0" d="M129.5,134l-1.4-0.5c-7.3-2.4-14.8-3.6-22.5-3.3c-7.7-0.2-15.3,0.9-22.5,3.3l-1.4,0.5v1.4
    c-0.2,4.4-1.1,8.6-2.4,12.7l-0.8,2.6h54.2l-0.9-2.7c-1.5-4.1-2.3-8.3-2.4-12.7L129.5,134z"/>
  <path class="st0" d="M105.7,44.6c3.6,0,5.6,1.5,5.4,4.7c0.2,3.8-1.7,5.7-5.4,5.7c-3.8,0-5.7-1.8-5.6-5.7
    C100.2,46.1,101.8,44.6,105.7,44.6z"/>
  <polygon class="st1" points="109.7,116.5 109.7,102.4 117.8,102.4 117.8,94.7 109.7,94.7 109.7,85.8 101.7,85.8 101.7,94.7
    93.5,94.7 93.5,102.4 101.7,102.4 101.7,116.5   "/>
  <path class="st1" d="M138.1,79.9c-4.8-5.3-13.7-12.4-26.7-21.1c1.8-1.2,6.5-3.6,6.5-9.8c-0.2-6.5-5.4-11.6-11.9-11.5h-0.2
    c-6.8,0-12.1,4.8-12.1,11.5c0,6.2,4.5,8.6,6.5,9.8c-13,8.8-22.1,15.9-26.9,21.1c-4.4,4.7-7.9,10.3-10.1,16.3
    c-4.8,13.6,1.4,24.8,14.5,38.4c-0.5,6.9-2.6,13.7-6.2,19.6h24.3l0,0h5l0,0h15.1l0,0h6.6l0,0h17.7c-3.6-5.9-5.7-12.7-6.2-19.6
    c5.7-5.6,10.4-12.1,13.9-19.2C153.2,103.5,147.7,90.7,138.1,79.9z M81.3,148.1L81.3,148.1c1.5-4.2,2.3-8.8,2.6-13.3
    c7.1-2.4,14.5-3.5,21.9-3.3c7.4-0.2,14.8,0.9,21.8,3.3c0.2,4.5,1.1,8.9,2.6,13.3H81.3z M130.1,128.9c-7.9-2.6-16.2-3.8-24.5-3.6
    c-8.3-0.2-16.6,1.1-24.5,3.6c-11-10.3-15.1-20.2-12.2-29.8c3.3-11,15.6-23.4,36.7-37c21,13.6,33.2,26,36.7,37.2
    C145,108.6,140.9,118.6,130.1,128.9z"/>
</g>

</svg>
