
<svg version="1.1" id="Layer_1" xmlns="http://www.w3.org/2000/svg" xmlns:xlink="http://www.w3.org/1999/xlink" x="0px" y="0px"
   viewBox="0 0 180 180" style="enable-background:new 0 0 180 180;" xml:space="preserve">

<style type="text/css">
  .st0{fill:#BF3B43;}
  .st1{fill:#040000;}
  .st2{fill:none;}
</style>
<title>m</title>
<g id="Layer_2">
  <g id="Layer_1-2">
    <path class="st0" d="M34.9,162.3c-0.7-15,3.9-28.1,14.9-37.5c7-2,10.2-4.8,12.2-9c1.8-3.9,4.2-7.5,7-10.8
      c-9.6-9.9-19.3-2.4-25.8-0.2c-4.2,1.7-6.6,2.6-8.9,5.3l-3.5,4l-6.1-4.7l7-5.8l-11.2-10l-5.7,3.6l-1.4-14l32.7-21.5
      c2.6-6.1,18.5-15,30.3-22.4l4.4-6.2L86.1,45c21.3,9.6,29.3,22.7,35.4,37.7c4.7,17.2,3.9,29.2,2.9,40.8s-2.5,23,1.7,38.8
      L34.9,162.3z"/>
    <path class="st1" d="M23.3,82.8l2.9-0.3l3.2,2.7l-4,4.7l-4.9-2.3L23.3,82.8z M72.1,65.7l-18.2-0.2l10-8.6
      C67.3,54.1,75.9,65.7,72.1,65.7z M47.1,63.1L43.1,58c0.3-2.2,3.7-5.3,10-9.3s12.5-8,18.9-12.3l9.8-13.2L90,41.9
      c39.1,19.7,46,46.7,41.1,87.6c-1.7,12.5,0.2,25.1,5.3,36.6H29.9c-1-20.3,3.6-33.2,19-46.2c8.9-1.8,12.5-10,14.6-13.4
      c-13.5-2.4-21.9-0.7-25,5.1s-4.8,8.8-4.8,8.8L15.1,110l9.9-7l-4.4-4.3L10.1,106l-1-25.5l34-22.6c0,0,3.4-1.2,4-0.4
      S47.1,63.1,47.1,63.1L15.6,83.8L16,94.5l5.5-3.6l11.8,12.4l-6.7,5.6l4,2.4l3.3-3.9c2.5-2.8,5.7-5,9.3-6.3c6.2-2.1,21.3-5.5,30.5,4
      c-3.1,3.4-5.7,7.2-7.8,11.3c-2,4-6.3,6.9-13,8.8c-10.5,9-17.3,19.9-16.6,34.3h87.4c-4-15.2-2.8-26.1-1.6-37.2s1.8-22.7-2.8-39.2
      c-5.8-14.4-13.5-27-34-36.2l-5.1-11.4l-4.1,5.9C64.8,48.7,49.5,57.3,47.1,63.1L47.1,63.1z"/>
    <path class="st1" d="M69.1,101.6c-0.9,1,0.9,4.1,4.6,3.6c1.5-0.2,2.2-1.3,3.2-1.2c1,0.1,1.9,0.1,2.9-0.1
      c8.9-1.3,15.3-11.1,15.5-21.4l-1.6-5.7c-3.2,13.6-8.5,21-16.1,22c-1.2,0.2-2.5,0.3-3.9,0.4C72,99.5,70.4,100.4,69.1,101.6z"/>
    <path class="st0" d="M164.9,71.9c1.7-1.3,3-2.9,3.9-4.8c0.9-1.9,1.5-3.9,1.7-6c0.2-2,0.1-4.1-0.4-6.1c-0.5-1.9-1.3-3.7-2.5-5.2
      c-1.2-1.5-2.8-2.7-4.5-3.5c-1.9-0.9-3.9-1.5-6-1.8l-1.6-0.2l1.3-0.5c1.3-4.2,1.3-7.2-0.1-9.1c-1.4-1.8-4.4-2.7-8.8-2.4l-0.7,0.6
      l0.1-1.1c0.5-4.7-0.4-8.9-2.5-11.5c-2.7-3.2-6.6-5.3-10.8-5.7c-2-0.3-4-0.2-6,0.3c-2,0.5-3.8,1.3-5.4,2.6
      c-2.9,2.4-5.1,5.6-6.4,9.2c-1.7,4.8-2.6,9.8-2.7,14.8v0.2l-13.3,7.2l28.7,37l10.2-11.1l0.2,0.1c4.9,1.1,10,1.4,15,1
      C158.1,75.5,161.8,74.1,164.9,71.9z"/>
    <path class="st1" d="M155.4,33c1.1,0.7,2,1.8,2.4,3.1l5-3.9l2.7,3.5l3.1-2.4l-2.7-3.5l3.1-2.4l-2.4-3.1l-3.1,2.4l-2.7-3.5
      l-3.1,2.4l2.7,3.5L155.4,33z"/>
    <polygon class="st1" points="120.3,55.4 121,62.1 127.3,64.6 126.7,57.9     "/>
    <path class="st2" d="M154.7,43.8h0.6l-1.4-0.1c1.1-4,1.3-6.5,0.5-7.5c-0.8-1-3.3-1.5-7.4-1.4l0.1-0.6c-1.2,4.7-3.4,9-6.5,12.7
      C145,44.9,149.8,43.8,154.7,43.8z"/>
    <path class="st2" d="M129.1,56c-3.8-4.9-8.5-9.1-13.9-12.2l-1.7,0.9l0.6,5.8l-6.5-2.6l-3.5,1.8l24.9,32l8.5-9.2
      C135.7,66.5,132.9,60.9,129.1,56z"/>
    <path class="st2" d="M130.6,52.8c6.4-5,11-11.5,12.4-15.7c2.3-4.9,2.3-11.8-0.5-15.4c-3.5-4.5-12.6-6.7-18.5-2.1
      c-4.8,3.7-7.4,12.8-7.7,21.1C121.7,43.9,126.6,48,130.6,52.8z"/>
    <path class="st2" d="M165.5,51.5c-2.8-3.6-9.4-5.3-14.8-4.3c-4.4,0.2-11.9,3.1-18.3,8.1c3.7,5.1,6.4,10.8,8.1,16.8
      c8.1,1.8,17.6,1.5,22.4-2.2C168.8,65.3,169,56,165.5,51.5z"/>
    <path class="st1" d="M165,72.2c6.9-5.4,7.6-16.6,2.8-22.8c-2.4-3.2-7.1-5.1-11.9-5.6L157,44c1.5-4.4,1.4-7.7-0.1-9.7
      c-1.6-2-4.7-2.9-9.3-2.6c0,0.3-0.1,0.7-0.2,1.2c0.7-4.8,0-9.8-2.4-13c-4.8-6.1-15.8-8.3-22.7-2.9c-5.6,4.4-8.6,12.4-9.2,24.3
      l-13.5,7.3l29.3,37.7l10.4-11.3C150.8,77.4,159.4,76.5,165,72.2z M147,34.9c4.2-0.1,6.6,0.4,7.4,1.4c0.8,1,0.6,3.5-0.5,7.5
      l1.4,0.1h-0.6c-4.9,0-9.7,1-14,3.1c3.1-3.7,5.3-8,6.5-12.7L147,34.9z M123.9,19.7c5.9-4.6,15-2.4,18.5,2.1
      c2.8,3.6,2.8,10.4,0.5,15.4c-1.4,4.2-6,10.7-12.4,15.7c-4-4.8-8.9-8.9-14.3-12C116.5,32.5,119.2,23.4,123.9,19.7z M116.6,65.7
      l-12.4-16.1l3.4-1.9l6.6,2.7l-0.7-5.8l1.7-0.9c10.8,6.4,18.8,16.7,22.3,28.8l-1.4,1.5l-5.4-2l0.9,6.9l-2.6,2.9L116.6,65.7z
       M140.6,72.2c-1.6-6.1-4.4-11.8-8.1-16.9c6.4-5,13.9-7.8,18.3-8.1c5.3-1,11.9,0.7,14.8,4.3c3.4,4.5,3.3,13.8-2.6,18.4
      C158.2,73.6,148.6,73.9,140.6,72.2L140.6,72.2z"/>
  </g>
</g>
</svg>
