
<svg version="1.1" id="Layer_1" xmlns="http://www.w3.org/2000/svg" xmlns:xlink="http://www.w3.org/1999/xlink" x="0px" y="0px"
   viewBox="0 0 180 180" style="enable-background:new 0 0 180 180;" xml:space="preserve">
<defs>
<style>
.cls-1{fill:none;}.cls-2{fill:#BF3B43;}</style>
</defs>
<title>
n</title>
<rect class="cls-1" width="180" height="180"/>
<rect class="cls-1" width="180" height="180"/>
<path class="cls-2" d="M52.12,158.73c-.71-15,3.89-28.1,14.88-37.48,7-2,10.2-4.8,12.25-9a44.31,44.31,0,0,1,7-10.75c-9.55-9.91-19.32-2.4-25.75-.25-4.2,1.7-6.65,2.63-8.89,5.31l-3.48,4L42,105.85l7-5.8L37.77,90l-5.72,3.67-1.45-14L63.29,58.16c2.59-6.07,18.49-15,30.28-22.42L98,29.58l5.27,11.87c21.35,9.56,29.29,22.69,35.37,37.7,4.73,17.23,3.92,29.2,2.86,40.82s-2.5,22.95,1.69,38.76Z"/>
<path d="M40.48,79.23l2.83-.35,3.17,2.67-3.95,4.71L37.65,84ZM89.27,62.16,71.09,62l10-8.57C84.47,50.59,93.13,62.16,89.27,62.16Zm-25-2.57-3.94-5.15c.34-2.22,3.69-5.31,9.95-9.26s12.52-8,18.86-12.26L99,19.71l8.23,18.61C146.3,58,153.25,85,148.36,125.88a67.87,67.87,0,0,0,5.32,36.62H47.16c-1-20.32,3.61-33.19,19-46.22,8.91-1.8,12.52-10,14.57-13.38-13.46-2.4-21.87-.69-25,5.14s-4.8,8.75-4.8,8.75L32.33,106.41l9.86-7-4.37-4.29-10.46,7.38L26.33,77l34-22.56s3.38-1.15,4-.38,0,5.53,0,5.53L32.85,80.26,33.19,91l5.49-3.52L50.51,99.81l-6.69,5.58,4,2.4,3.34-3.86a22.91,22.91,0,0,1,9.27-6.26c6.17-2.06,21.35-5.49,30.53,4A53.33,53.33,0,0,0,83.18,113c-2,4-6.34,6.94-13,8.83-10.55,9-17.32,19.9-16.64,34.3H140.9c-4-15.17-2.75-26.07-1.63-37.21s1.8-22.65-2.75-39.2c-5.83-14.4-13.46-27-34-36.19l-5.06-11.4L93.3,38.06C82,45.18,66.71,53.76,64.23,59.59Z"/>
<path d="M86.36,98.1c-.91,1,.88,4.11,4.63,3.6,1.46-.2,2.23-1.29,3.17-1.2a11,11,0,0,0,2.83-.09c8.92-1.28,15.27-11.06,15.52-21.44l-1.63-5.74c-3.17,13.63-8.49,21-16.12,22-1.2.17-2.49.34-3.86.43A8.7,8.7,0,0,0,86.36,98.1Z"/>
</svg>
