
<svg version="1.1" id="Layer_1" xmlns="http://www.w3.org/2000/svg" xmlns:xlink="http://www.w3.org/1999/xlink" x="0px" y="0px"
   viewBox="0 0 180 180" style="enable-background:new 0 0 180 180;" xml:space="preserve">
<defs>
<style>
.cls-1{fill:none;}.cls-2{fill:#BF3B43;}</style>
</defs>
<title>
q</title>
<rect class="cls-1" width="180" height="180"/>
<rect class="cls-1" width="180" height="180"/>
<path class="cls-2" d="M130.44,129.74,127,128.43c-13.84-5.29-25.95-7.87-37-7.87s-23.16,2.58-37,7.87l-3.41,1.3-.61-3.6c-1.86-10.81-6.52-22.74-13.88-35.45L28.26,78.86,54.53,97.38,65.94,41.61,90,91.6l24-50,11.41,55.77L152,78.66l-7.15,12c-7.38,12.45-12,24.36-13.85,35.4Z"/>
<path class="cls-2" d="M135.43,159.15H44.57L46.22,155a51.12,51.12,0,0,0,3.48-22.7l-.13-2.18,2-.8c14.22-5.6,27.14-8.44,38.41-8.44,13.9,0,28.55,4.59,38.4,8.44l2,.8-.15,2.2A50.57,50.57,0,0,0,133.78,155Z"/>
<path d="M154.06,62.51a11.27,11.27,0,0,0-11.24,11.23,10.06,10.06,0,0,0,1.81,6.09L127.82,91.75l-8.58-41.68c7.21-3.52,7.47-11.23,3.69-16.64a10.82,10.82,0,0,0-15.78-2.05A11.15,11.15,0,0,0,107,48.7L90,84,73,48.7a11.2,11.2,0,0,0-.17-17.32,10.82,10.82,0,0,0-15.78,2.05c-3.86,5.41-3.6,13.12,3.69,16.64L52.18,91.75,35.38,79.83a10.76,10.76,0,0,0,1.79-6.09A11.24,11.24,0,1,0,25.94,85c.43,0,.94-.09,1.63-.17C44.29,110.45,53,136.09,40,162.5H140c-13-26.41-4.38-52,12.43-77.69.69.08,1.2.17,1.63.17a11.24,11.24,0,1,0,0-22.47ZM90,156.15H49A50.62,50.62,0,0,0,51.52,148l0,.28L63,140.89l-10.2-6.17c0-.86,0-1.71-.1-2.58C64,127.68,77.4,123.91,90,123.91c12.43,0,25.9,3.77,37.3,8.23-.06.87-.09,1.73-.11,2.59l0,0h0L117,140.89l11.49,7.38h0a52.93,52.93,0,0,0,2.47,7.88Zm38.08-30.52c-12.35-4.72-25.39-8.07-38.08-8.07s-25.73,3.35-38.08,8.07c-2.05-12-7.29-24.45-14.23-36.45l18.86,13.29L67.1,50.93,90,98.52l22.9-47.59,10.54,51.54,18.87-13.29C135.2,101.18,130.05,113.62,128.08,125.63Z"/>
<polygon points="78.08 138.75 90 146.21 101.92 139 90 131.63 78.08 138.75"/>
<path class="cls-2" d="M154.14,68.42c-3.59,0-5.39,1.8-5.39,5.32s1.8,5.32,5.39,5.32,5.32-1.8,5.32-5.32S157.66,68.42,154.14,68.42Z"/>
<path class="cls-2" d="M114.18,34.63c-3.52,0-5.31,1.81-5.31,5.32s1.79,5.32,5.31,5.32,5.32-1.8,5.32-5.32S117.7,34.63,114.18,34.63Z"/>
<path class="cls-2" d="M65.81,34.63c-3.51,0-5.31,1.81-5.31,5.32s1.8,5.32,5.31,5.32,5.33-1.8,5.33-5.32S69.33,34.63,65.81,34.63Z"/>
<path class="cls-2" d="M25.85,68.42c-3.51,0-5.31,1.8-5.31,5.32s1.8,5.32,5.31,5.32,5.4-1.8,5.4-5.32S29.46,68.42,25.85,68.42Z"/>
</svg>
