
<svg version="1.1" id="Layer_1" xmlns="http://www.w3.org/2000/svg" xmlns:xlink="http://www.w3.org/1999/xlink" x="0px" y="0px"
   viewBox="0 0 180 180" style="enable-background:new 0 0 180 180;" xml:space="preserve">

  <style type="text/css">
    .st0{fill:none;}
    .st1{fill:#BF3B43;}
  </style>
  <title>r</title>
  <g id="cannon_alpha">
    <rect class="st0" width="180" height="180"/>
    <g id="cannon_2_">
      <path class="st1" d="M155.2,52.6h-2.6c-4.4,0-7.9,3.6-7.9,7.9v39.6h-9.5V76.4V37.5l-1.8-1c-5.4-3-9.9-4.5-16.2-4.5h-2.3l-0.5,2.3
        l-3.5,15.4l-0.3,1.4H103l-0.2-1.5l-2-17.9l-0.3-2.3L98.3,29c-2.8-0.7-5.6-1.1-8.5-1l0,0c-2.9-0.1-5.7,0.3-8.5,1l-2.2,0.4l-0.3,2.3
        l-2,17.9l-0.2,1.5H69l-0.3-1.4l-3.4-15.4L64.8,32h-2.3c-6.2,0-10.7,1.5-16.2,4.5l-1.8,1v62.6H35V60.5c0-4.4-3.6-7.9-7.9-7.9h-2.6
        c-4.4,0-7.9,3.6-7.9,7.9v92.2c0,4.4,3.6,7.9,7.9,7.9h2.6c4.4,0,7.9-3.5,7.9-7.9v-39.6h9.5v1.7c0.1,3.6,0.3,7.4,1.8,10.7
        c2.1,4.7,6.3,7.7,13,9.2h0.1c3.1,0.6,3.1,0.8,3.5,0.8H63c9,1.2,18.1,1.8,27.2,1.7c9.1,0.1,18.2-0.4,27.3-1.7h0.1
        c0.1,0,1.5-0.3,3.4-0.6c7.1-1.5,10-4.4,12.1-9.2c1.5-3.3,1.8-7.2,1.9-10.9v-1.7h9.5v39.6c0,4.4,3.6,7.9,7.9,7.9h2.6
        c4.4,0,7.9-3.5,7.9-7.9V60.5C163.1,56.2,159.6,52.6,155.2,52.6z"/>
      <path d="M155.2,49.4h-2.6c-6.1,0-11.1,5-11.1,11.1v36.4h-3.1V35.6l-3.4-1.9c-5.3-2.9-10.4-4.9-17.7-4.9h-4.9l-4.3,19.1h-2.2
        l-2.4-21.2L99.1,26c-3-0.8-6.1-1.1-9.2-1.1h-0.5l0,0c-2.9,0-5.8,0.4-8.6,1.1l-4.4,0.7L74,48h-2.2l-4.2-19.1h-4.9
        c-7.4,0-12.4,2-17.7,4.9l-3.4,1.9V97h-3.1V60.6c0-6.1-5-11.1-11.1-11.1h-2.6c-6.1,0-11.1,5-11.1,11.1v92.2c0,6.1,5,11.1,11.1,11.1
        h2.6c6.1,0,11.1-5,11.1-11.1v-36.4h3.2c0.1,3.5,0.5,7.2,2,10.6c2.5,5.6,7.5,9.2,15.2,11l0.4,0.1h0.1c1.6,0.3,2.2,0.5,2.5,0.6
        s0.6,0.2,1.1,0.2c8.3,1.1,16.7,1.7,25,1.7c0.8,0,1.6,0,2.4,0c9.2,0.1,18.4-0.4,27.5-1.7h0.4c0.1,0,1.5-0.3,3.5-0.7
        c7.4-1.6,11.5-4.7,14.4-11c1.5-3.4,2-7.1,2.1-10.8h3.1v36.4c0,6.1,5,11.1,11.1,11.1h2.6c6.1,0,11.1-5,11.1-11.1V60.6
        C166.3,54.4,161.3,49.4,155.2,49.4z M32.2,152.8c0,2.6-2.1,4.7-4.7,4.7h-2.6c-2.6,0-4.7-2.1-4.7-4.7V60.6c0-2.6,2.1-4.7,4.7-4.7
        h2.6c2.6,0,4.7,2.1,4.7,4.7V152.8z M48.2,39.3c5.3-2.9,9.2-4.1,14.3-4.1l3.4,15.3l0.9,3.9h13l2.5-22.1l0,0
        c2.5-0.6,5.1-0.9,7.6-0.9H91h0.1c2.2,0,4.4,0.3,6.6,0.9l2.5,22.2h13.1l4.3-19.1c5.1,0,9,1.2,14.3,4.1l0.1,0.1v36.7H48.1V39.6
        L48.2,39.3z M41.7,110h-3.1v-6.7h3.1V110z M63.6,132.5c-0.4-0.1-1.3-0.4-3.2-0.7h-0.2c-5.6-1.3-8.9-3.6-10.6-7.3
        c-1.2-2.8-1.4-6.2-1.5-9.5v-14.8V97V82.6h38.7v51.6c-7.7-0.1-15.5-0.6-23.1-1.6L63.6,132.5z M120.6,131.8c-1.4,0.3-2.6,0.5-3,0.6
        h-0.3c-7.9,1.1-16,1.6-24.1,1.7V82.5H132v28.7v3.6c-0.1,3.4-0.3,6.8-1.6,9.6C128.7,128.3,126.6,130.6,120.6,131.8z M138.4,110
        v-6.6h3.1v6.6H138.4z M159.9,152.8c0,2.6-2.1,4.7-4.7,4.7h-2.6c-2.6,0-4.7-2.1-4.7-4.7V60.6c0-2.6,2.1-4.7,4.7-4.7h2.6
        c2.6,0,4.7,2.1,4.7,4.7V152.8z"/>
    </g>
  </g>
</svg>
