
<svg version="1.1" id="Layer_1" xmlns="http://www.w3.org/2000/svg" xmlns:xlink="http://www.w3.org/1999/xlink" x="0px" y="0px"
   viewBox="0 0 180 180" style="enable-background:new 0 0 180 180;" xml:space="preserve">

<style type="text/css">
  .st0{fill:none;}
  .st1{fill:#fff;}
</style>
<title>r</title>
<g id="sailboat_alpha">
  <rect y="0" class="st0" width="180" height="180"/>
  <g>
    <path class="st1" d="M160.5,111.9c-0.2,0-0.4,0-0.6,0.1l-40.5,7.8l0,0c-1.7,0.4-2.9,2-2.8,3.7l0.1,3.9v1.6l-1.6,0.2
      c-1.1,0.1-2.3,0.3-3.6,0.4l-2,0.2v-27.5l2.1,0.4c3.6,0.7,7.3,1.3,11,1.9c9,1.3,18.1,2,27.2,2.2h0.2l3-68.6h-0.1
      c-10.8,0-25-4-42.3-12l-1-0.5v-4.9c0.1-3.2-2.5-5.8-5.7-5.9c-2.3,0-4.4,1.3-5.3,3.3l-0.8,1.6l-1.6-0.9c-4.5-2.4-7.2-4-7.2-4.1
      l-0.3-0.2L83,44.3l-0.4,2l-1.9-0.6c-3.1-1.1-6.7-2.5-10.7-4.3l-6-2.8v-7.5c0.1-3.2-2.3-5.9-5.5-6s-5.9,2.3-6,5.5
      c0,0.2,0,0.3,0,0.5V33l-2.6-1.4c-9.1-4.9-11.1-6.7-11.2-6.8l-0.3-0.2l-16,74.2l0.1,0.1c9.7,5.7,30.8,13.1,30.8,13.1l-0.1,1.9v12.8
      l4.3,2l-2-0.3c-2.9-0.4-5.6-0.9-8-1.4c-5.1-1.1-11.7-3.1-13.9-6.3c-0.8-1-0.9-2.3-0.4-3.5c0.5-1.4,0.3-3-0.5-4.3
      c-0.7-1.2-2-2-3.3-2.3c-0.7-0.1-1.4-0.2-2.2-0.2c-4.6,0-8.5,2.7-11,7.5c-1.7,3.6-2.4,7.6-2,11.6c0.4,4.8,1.9,9.4,4.5,13.5
      c3.2,5.3,7.9,9.5,13.4,12.3c6.6,3.4,14.5,5.1,23.6,5.1l0,0h82h0.2c2.9-0.3,5.6-3.1,7.2-5.9v-0.1l0.1-0.1l10.4-14.9l0,0l0.2-0.3
      l0.4-0.2l5.6-3l0.2-0.1l0.1-0.1c1.1-0.9,1.7-2.3,1.7-3.7v-17C163.6,113.5,162.3,112,160.5,111.9z M98.3,131.3l-33.7-1.6l0.1-15
      l22.7,1.4l1.8-19.3l9.4,2.6L98.3,131.3z"/>
    <path d="M161.2,109h-1.3l-40.8,7.9h-0.3l-0.5,0.2c-2.9,1-4.7,3.7-4.6,6.7v2.8c-0.4,0-0.8,0.1-1.2,0.1V106
      c11.5,2.1,23.3,3.4,35.1,3.8l5.3,0.5l3.3-74.6l-5.2-0.3c-9.8-0.5-22.4-4.2-37.6-10.9l-0.8-0.4v-3.2c0-4.8-3.9-8.7-8.8-8.7
      c-3,0-5.6,1.5-7.2,3.8c-1.6-0.9-2.8-1.5-3.6-2l-6.2-3.6l-7,32.2c-4.5-1.7-8.4-3.3-12-5.1l-1.2-0.6v-5.8V31c-0.2-4.4-3.7-8-8.2-8.3
      h-0.5c-3.6,0-6.7,2.2-8,5.4c-2.4-1.3-4.8-2.7-7.2-4.1l-6.2-3.6l-17.6,80.3l3.4,1.8c8.2,4.6,17.2,8.3,26.7,11.1l0.2,0.1v11.2
      c-9.8-2-12.6-4.3-13.4-5.4c-0.1-0.2-0.2-0.3-0.2-0.3c0-0.1,0-0.2,0.1-0.4c0.2-0.3,0.3-0.8,0.4-1.4c0.3-2.1-0.1-4-1.2-5.6
      c-1.1-1.8-2.9-3-5.1-3.5h-0.3c-0.8-0.1-1.6-0.2-2.6-0.2c-3.4,0-9.6,1.2-13.6,9.1c-3.9,7.6-2.8,19.1,2.6,27.9
      c4.2,7,15,18.9,39.5,18.9h82.4h0.2c3.6-0.4,6.8-2.9,9.4-7.4l10.2-14.7l5.5-3l0.5-0.2l0.3-0.2c1.8-1.4,2.8-3.6,2.8-6v-17
      C166.6,112.1,164.3,109.4,161.2,109z M149.6,41.7l-2.7,61.5c-11.5-0.4-23-1.7-34.2-3.9V31C127.2,37.5,139.6,41,149.6,41.7z
       M103.8,18.6c1.3,0,2.4,1.1,2.4,2.3v0.2h-0.1v83.6h0.1v22.5c-1.1,0.1-2.2,0.2-3.3,0.2c-0.4,0-0.9,0-1.3,0.1v-24.1V20.3
      C101.9,19.3,102.8,18.6,103.8,18.6z M91.2,20.3c1.2,0.7,2.5,1.4,3.9,2.1v1.7h0.1V95c-6.6-2-12.9-4.6-18.5-7.7l0,0l0,0L86,44.7l0,0
      L91.2,20.3z M66.7,44c3.6,1.6,7.4,3.2,11.7,4.8l-2.2,10.3l-6.4,29.2l-0.5,2.4l2.1,1.2c4.7,2.6,9.6,4.9,14.7,6.8l-0.6,14.5
      c-6-0.3-12.3-1-18.8-2.2L66.7,44L66.7,44z M26.2,97.2l14.7-67c2.8,1.6,5.6,3.2,8.3,4.7v71.9C41.1,104.4,33.4,101.2,26.2,97.2z
       M55.6,31.3v-0.2c0.1-1.2,1.1-2.1,2.3-2.1h0.2c1.2,0.1,2.1,1,2.1,2.1v95.2c-1.5-0.2-3.1-0.3-4.6-0.6v-10.5h0.1L55.6,31.3
      L55.6,31.3z M66.6,117.5c6.8,1.2,13.4,1.9,19.7,2.2l5.4,0.5l0.8-19.4c0.8,0.3,1.6,0.5,2.5,0.8l0.3,0.1v26.1c-0.6,0-1.3,0-1.9,0
      c-10.8,0-19.6-0.3-26.7-0.9v-9.4H66.6z M160.2,132.2c0,0.3-0.1,0.6-0.3,0.9l-6.7,3.7l-11.1,16l-0.2,0.2c-1.4,2.5-3.1,4.1-4.4,4.3
      h-82c-21.4,0-30.5-9.9-34.1-15.8c-4.3-7-5.3-16.1-2.4-21.7c1.9-3.7,4.6-5.6,7.9-5.6c0.4,0,0.9,0.1,1.5,0.1c0.5,0.1,0.8,0.4,1,0.7
      c0.2,0.3,0.3,0.6,0.3,1.2l-0.1,0.4c-0.3,1.1-1.1,3.7,1,6.5c5.4,7.4,26.5,11.1,62.7,11.1c0.6,0,1.2,0,1.9,0v0.1l5.4-0.3
      c0.3,0,0.7,0,1-0.1c5.5-0.3,10.7-0.8,15.8-1.5l2.8-0.4l-0.1-8.5v-0.1c0-0.1,0-0.1,0.1-0.2l40-7.7L160.2,132.2L160.2,132.2z"/>
  </g>
</g>
</svg>
