
<svg version="1.1" id="Layer_1" xmlns="http://www.w3.org/2000/svg" xmlns:xlink="http://www.w3.org/1999/xlink" x="0px" y="0px"
   viewBox="0 0 180 180" style="enable-background:new 0 0 180 180;" xml:space="preserve">

<style type="text/css">
  .st0{fill:#fff;}
  .st1{fill:#040000;}
</style>
<title>s</title>
<g id="Layer_2">
  <g id="Layer_1-2">
    <path class="st0" d="M120.1,46.2l4.5,61l13.8,10.2l1.6,15.9H40l1.6-15.9l13.8-10.2l4.5-61"/>
    <path class="st1" d="M142.5,113.6l-13.6-10.1l-4.3-56.5l0,0l-6.8-3.1H62l-0.1-0.1l-7,2.8l0.6,0.4l-4.3,56.5l-13.6,10.1L35,136.2
      h110L142.5,113.6z M61.5,50.2h57l3.7,50.4H57.8L61.5,50.2z M90,129.9H42.2l1.3-12.8l13.8-10.2h65.4l13.8,10.2l1.3,12.8H90z"/>
  </g>
</g>
</svg>
