
<svg version="1.1" id="Layer_1" xmlns="http://www.w3.org/2000/svg" xmlns:xlink="http://www.w3.org/1999/xlink" x="0px" y="0px"
   viewBox="0 0 180 180" style="enable-background:new 0 0 180 180;" xml:space="preserve">

<style type="text/css">
  .st0{fill:none;}
  .st1{fill:#fff;}
</style>
<title>v</title>
<g id="camel_knight_alpha">
  <rect class="st0" width="180" height="180"/>
  <g>
    <g>
      <path class="st1" d="M166.7,52.5l-4.9-0.1c-2.2-0.8-4.3-1.6-6.3-2.5c-2-0.9-3.3-1.2-3.9-0.9c-0.1,0-0.1-0.1-0.1-0.1l-11.4-4.5
        L134,49l3.6,1.3l-0.3,1.8l-3.4-1.2l0.6,6.4c0,0,1-0.1,3-0.3s3.9,1.6,5.6,5.3c-1.2,0.1-3.8,0.6-5.8-1.3c-5.8-1.5-9.8-0.4-14.6,3.3
        L141,90.5c2-3.2,4.8-5.9,8.1-7.6c10.8-5.9,16.3-12.2,14.4-25.2L166.7,52.5z"/>
      <path d="M142,48.4l0.6,0.6l-0.1,1.2l-1.8-0.2l-0.3-1.6H142z M154.6,57.4l-3.1-4.5l3.8,1C156.6,54.3,155.2,58.4,154.6,57.4z
         M150.9,50.9l0.6-1.9c0.6-0.3,1.9,0,4,0.9c2,0.9,4.1,1.7,6.3,2.5l4.9,0.1l-3.2,5.2c1.9,13-3.6,19.3-14.4,25.2
        c-3.3,1.7-6.1,4.4-8.1,7.6l-18.3-26.2c4.8-3.7,8.8-4.8,14.6-3.3c2,1.9,4.6,1.4,5.8,1.3c-1.7-3.7-3.6-5.5-5.6-5.3s-3,0.3-3,0.3
        l-0.6-6.4l3.4,1.2l0.3-1.8L134,49l6.1-4.6l11.4,4.5c0,0,0.9,0.6,0.8,0.9C152.2,50.2,150.9,50.9,150.9,50.9l-10.5-4.2l-2.6,1.9
        l1.8,0.7l-1,5l-2.5-0.7l0.1,1.4l1.5,0.2c1.1,0.1,2.2,0.5,3.1,1.2c1.6,1.2,5,4.3,4.3,8.2c-1.4-0.2-2.8-0.2-4.1,0s-2.8-0.4-4.4-1.7
        c-4-1-7.9-0.8-11.3,1.8l15,21.5c3-3.6,5.9-5.2,8.9-6.8s5.9-3.5,9.2-7.4c2.5-3.9,4.3-8,3-14.6l1.9-3.2h-2.2
        C157.5,52.7,152.7,50.4,150.9,50.9L150.9,50.9z"/>
      <path d="M145.2,62.9c-0.4-0.1-0.9,0.9-0.1,1.8c0.3,0.3,0.7,0.3,0.8,0.6c0.1,0.2,0.3,0.5,0.5,0.7c1.8,2,5.3,1.8,7.9,0.1l1.1-1.4
        c-3.9,1.6-6.6,1.5-8.2-0.2c-0.2-0.3-0.5-0.6-0.8-0.9C146.2,63.2,145.8,63,145.2,62.9z"/>
    </g>
    <g id="camel_2_">
      <path class="st1" d="M166.7,161.9h-63.3l-1.8-3c-14.1-23-22.2-49.3-24.1-77.9c-0.1-0.8,0-1.6,0-2.5c0-1.8,0.1-2.4-5.5-4
        c-3-0.9-5.7-1.4-8-1.8c-5.9-1.1-11.5-2.2-15.6-7.5l-10.8,3.2c-4.6,1.4-8.2,2.1-11.1,2.1c-6.8,0-8.9-4-9.5-5.8
        c-1.2-3.4-0.1-7.3,3.2-11.6c-0.1-0.1-0.1-0.2-0.2-0.3c-1.9-2.9-2.4-6.6-1.4-10.8c2.3-9.8,11.8-12.1,17.2-12.6
        c3.1-4.5,6.7-7.3,13.4-7.3c2.5,0,5.3,0.4,8.8,0.8l0.7,0.1c2,0.3,4.2,0.6,6.5,1c4.9,0.8,9.9,1.6,14.4,1.6c2.8,0,5.1-0.3,6.9-1
        c3.3-1.1,7.2-1.7,11.7-1.7c4.2,0,8.1,0.5,10.6,1c4.7-3.4,10.9-7,15.7-7c2.1,0,4.1,0.6,5.6,1.9c3.7,2.9,4.5,8.4,4.6,12.5
        c0.1,5.3-1.3,12.4-5,17.2c1.4,6.6,9.8,28.2,23.1,46.5c0.4,0.6,12.7,17,13.3,17.7l0.7,0.9v48.3H166.7z"/>
      <g>
        <path d="M93.7,47.6c5.2,1,10.9-2.8,12.1-8l-20.4-3.9C84.5,41,88.5,46.6,93.7,47.6z"/>
        <path d="M111.3,38.2c3.2,1.3,5.7,4,6.7,7.2c3.7-3.8,5-9.9,3.2-14.9C117.3,32.2,113.9,34.8,111.3,38.2z"/>
        <path d="M166.1,112.7c-0.6-0.7-12.9-17.1-13.3-17.7c-13.3-18.3-21.7-39.9-23.1-46.5c0.4-0.6,0.8-1.2,1.2-1.8c0,0,0,0,0,0
          c0.2-0.4,0.5-0.9,0.7-1.3c0.1-0.3,0.3-0.6,0.4-0.9c0-0.1,0.1-0.2,0.1-0.3c1.9-4.2,2.6-9,2.5-13c-0.1-4.1-0.9-9.6-4.6-12.5
          c-1.5-1.3-3.5-1.9-5.6-1.9c-4.8,0-11,3.6-15.7,7c-2.5-0.5-6.4-1-10.6-1c-4.5,0-8.4,0.6-11.7,1.7c-1.8,0.7-4.1,1-6.9,1
          c-4.5,0-9.5-0.8-14.4-1.6c-2.3-0.4-4.5-0.7-6.5-1L58,22.9c-3.5-0.4-6.3-0.8-8.8-0.8c-6.7,0-10.3,2.8-13.4,7.3
          c-5.4,0.5-14.9,2.8-17.2,12.6c-1,4.2-0.5,7.9,1.4,10.8c0.1,0.1,0.1,0.2,0.2,0.3c-3.3,4.3-4.4,8.2-3.2,11.6
          c0.6,1.8,2.7,5.8,9.5,5.8c2.9,0,6.5-0.7,11.1-2.1l10.8-3.2c4.1,5.3,9.7,6.4,15.6,7.5c1.5,0.3,3.2,0.6,5,1l0,0.1l3.1,0.8
          c0.8,0.2,1.7,0.5,2.5,0.7c2.9,1,2.9,1.7,2.9,3.2c0,0.9-0.1,1.7,0,2.5c1.9,28.6,10,54.9,24.1,77.9l1.8,3h59.3h0.1h3.9h0.1v-48.3
          L166.1,112.7z M156.3,155.5H107c-13.5-22.1-21.3-47.3-23.2-74.9c0-0.5,0-1.2,0-1.8c0-0.2,0-0.3,0-0.5c4.6,1.6,8.2,2.9,8.3,2.9
          l3,1.1l2.2-6l-3-1.1c-0.5-0.2-12.5-4.6-20.5-6.8l-3.1-0.8l0,0.1c-2-0.5-3.9-0.8-5.6-1.2c-6-1.2-10-2-12.7-6.6l-1.3-2.2
          l-15.5,4.6c-3.9,1.2-7,1.8-9.2,1.8c-1.4,0-3.1-0.3-3.5-1.5c-0.4-1.2,0.4-3.8,3.7-7.4c0.2,0,0.5,0,0.7,0c6.5,0,15.4-1.3,15.7-1.4
          l3.2-0.5L45.3,47l-3.2,0.5c-0.1,0-9.7,1.4-15.7,1.3l-1.4,0c-0.7-1.4-0.8-3.2-0.3-5.4c1.3-5.6,7-7.2,11.2-7.7
          c1.9,1.7,4.4,2.9,7.1,3c2.7,0.1,5.4-0.8,7.4-2.5c1-0.8,1.9-2.1,1.5-3.4c-0.2-0.7-10.4-0.2-11.1,1L40.3,34
          c2.8-4.3,4.8-5.6,8.8-5.6c2.1,0,4.7,0.4,8,0.8l0.7,0.1c2,0.3,4.1,0.6,6.3,1c5.1,0.8,10.3,1.7,15.4,1.7c3.5,0,6.5-0.4,9-1.3
          c2.7-0.9,5.9-1.4,9.6-1.4c4.6,0,8.7,0.7,10.8,1.1l1.4,0.3l1.1-0.8c5.4-4,10.4-6.5,13-6.5c0.7,0,1.2,0.2,1.6,0.5
          c1.3,1,2.2,3.9,2.2,7.6c0.1,4.6-1.2,10.8-4.3,13.9l-1,1l0.1,1.4c0.4,5.1,5.4,30.2,20.6,51c0.4,0.5,10,13.4,12.7,16.9V155.5z"/>
      </g>
    </g>
  </g>
</g>
</svg>
