
<svg version="1.1" id="Layer_1" xmlns="http://www.w3.org/2000/svg" xmlns:xlink="http://www.w3.org/1999/xlink" x="0px" y="0px"
   viewBox="0 0 180 180" style="enable-background:new 0 0 180 180;" xml:space="preserve">

<style type="text/css">
  .st0{fill:#fff;}
  .st1{fill:#040000;}
</style>
<title>y</title>
<g id="Layer_2">
  <g id="Layer_1-2">
    <path class="st0" d="M112.3,99.4l3.3,45.1l10.2,7.5l1.2,11.7H53l1.2-11.7l10.2-7.5l3.3-45.1"/>
    <path class="st1" d="M128.8,149.2l-10.1-7.5l-3.2-41.8l0,0l-5-2.3H69.3l-0.1-0.1l-5.2,2l0.4,0.3l-3.2,41.8l-10.1,7.5l-1.9,16.7
      h81.3L128.8,149.2z M68.9,102.3h42.1l2.7,37.2H66.2L68.9,102.3z M90,161.2H54.7l1-9.4l10.2-7.5h48.3l10.2,7.5l1,9.4H90z"/>
    <path class="st0" d="M70.5,83l0.7,0.6l0.9-0.3c5.7-1.9,11.6-2.7,17.6-2.6c6-0.1,11.9,0.7,17.6,2.6l0.9,0.3l0.7-0.6
      c8.4-8,11.5-15.8,9.4-23.4c-2.7-8.6-11.7-17.7-27.7-28.1l-0.8-0.6l-0.8,0.5C72.7,41.8,63.7,51,61.1,59.5l0,0
      C58.9,67.1,62.1,75,70.5,83z"/>
    <path class="st0" d="M107.1,85.3l-1-0.3c-5.3-1.8-10.9-2.6-16.6-2.5C83.9,82.4,78.3,83.2,73,85l-1,0.3v1c-0.1,3.2-0.7,6.3-1.8,9.3
      l-0.6,1.9h39.9l-0.7-2c-1.1-3-1.6-6.1-1.8-9.3L107.1,85.3z"/>
    <path class="st0" d="M89.6,19.4c2.7,0,4.1,1.1,4.1,3.5c0.1,2.8-1.3,4.2-4.1,4.2c-2.8,0-4.2-1.4-4.1-4.2
      C85.5,20.5,86.8,19.4,89.6,19.4z"/>
    <polygon class="st1" points="92.6,72.4 92.6,62 98.6,62 98.6,56.3 92.6,56.3 92.6,49.7 86.6,49.7 86.6,56.3 80.6,56.3 80.6,62
      86.6,62 86.6,72.4     "/>
    <path class="st1" d="M113.4,45.4c-3.6-3.9-10.1-9.1-19.7-15.6c1.3-1,4.8-2.7,4.8-7.3c0-4.9-4-8.5-8.9-8.5c-5,0-8.9,3.6-8.9,8.5
      c0,4.6,3.3,6.3,4.8,7.3c-9.6,6.5-16.2,11.7-19.8,15.6c-3.3,3.5-5.8,7.6-7.5,12c-3.6,10.1,1,18.3,10.7,28.3
      c-0.3,5.1-1.9,10.1-4.6,14.5h13.1l0,0h4.8l0,0h3.7l0,0h7.5l0,0H97v0h4.8v0h13.1c-2.7-4.4-4.3-9.4-4.6-14.5
      c4.8-5,8.2-9.8,10.3-14.2C124.6,62.9,120.6,53.4,113.4,45.4z M71.6,95.7L71.6,95.7c1.1-3.1,1.7-6.4,1.8-9.8
      c5.2-1.7,10.6-2.6,16.1-2.4c5.5-0.1,10.9,0.7,16.1,2.4c0.1,3.3,0.7,6.6,1.8,9.8L71.6,95.7z M107.6,81.5
      c-5.8-1.9-11.9-2.8-18.1-2.7c-6.1-0.2-12.2,0.7-18.1,2.7c-8.1-7.6-11-14.9-9-21.9c2.5-8.2,11.5-17.2,27.1-27.4
      c15.5,10.1,24.5,19.1,27.1,27.4C118.6,66.6,115.6,73.9,107.6,81.5z"/>
  </g>
</g>
</svg>
