
<svg version="1.1" id="Layer_1" xmlns="http://www.w3.org/2000/svg" xmlns:xlink="http://www.w3.org/1999/xlink" x="0px" y="0px"
   viewBox="0 0 180 180" style="enable-background:new 0 0 180 180;" xml:space="preserve">

<style type="text/css">
  .st0{fill:#fff;}
  .st1{fill:#040000;}
</style>
<title>z</title>
<g>
  <path class="st0" d="M98.4,95.3l3.2,43.5l9.8,7.3l1.2,11.3H41.2l1.1-11.3l9.8-7.3l3.2-43.5"/>
  <path class="st1" d="M114.4,143.4l-9.8-7.3l-3-40.3l0,0l-4.9-2.2H56.9l-0.1-0.1l-5,1.9l0.4,0.3l-3,40.3l-9.8,7.2l-1.7,16.2h78.5
    L114.4,143.4z M56.6,98.2h40.7l2.7,36h-46L56.6,98.2z M76.9,155H42.8l0.9-9.1l9.8-7.3h46.7l9.8,7.3l0.9,9.1H76.9z"/>
  <path class="st0" d="M58,79.5l0.6,0.6l0.8-0.3c5.4-1.8,11.2-2.7,16.9-2.5c5.8-0.1,11.5,0.7,16.9,2.5l0.8,0.3l0.6-0.6
    c8.1-7.7,11.1-15.3,9.1-22.6c-2.6-8.3-11.3-17.1-26.7-27.2l-0.7-0.6l-0.7,0.6c-15.5,10-24.2,19-26.7,27.2l0,0
    C46.9,64.1,49.9,71.7,58,79.5z"/>
  <path class="st0" d="M93.5,81.7l-0.9-0.3c-5.2-1.7-10.6-2.6-16-2.4c-5.4-0.2-10.9,0.6-16,2.4l-0.9,0.4v1c-0.1,3-0.7,6.1-1.7,9
    l-0.6,1.8h38.6l-0.6-1.8c-1-2.9-1.6-5.9-1.7-9L93.5,81.7z"/>
  <path class="st0" d="M76.5,18c2.7,0,4,1.1,4,3.4c0.1,2.7-1.2,4-4,4c-2.7,0-4-1.4-4-4C72.5,19.1,73.8,18,76.5,18z"/>
  <polygon class="st1" points="79.4,69.3 79.4,59.1 85.2,59.1 85.2,53.7 79.4,53.7 79.4,47.4 73.6,47.4 73.6,53.7 67.8,53.7
    67.8,59.1 73.6,59.1 73.6,69.3   "/>
  <path class="st1" d="M99.5,43.2c-3.5-3.8-9.8-8.8-19.1-15.1c1.3-0.9,4.6-2.7,4.6-7c0-4.7-3.9-8.2-8.7-8.2c-4.9,0-8.7,3.5-8.7,8.2
    c0,4.4,3.2,6.1,4.6,7c-9.2,6.3-15.6,11.2-19.1,15.1c-3.1,3.3-5.6,7.3-7.3,11.6c-3.3,9.8,1.1,17.7,10.4,27.4c-0.3,5-1.8,9.8-4.4,14
    h12.6l0,0h4.7l0,0h3.6l0,0H80l0,0h3.6l0,0h4.6l0,0h12.7c-2.6-4.2-4.1-9-4.4-14c4.7-4.9,7.9-9.4,9.9-13.7
    C110.4,60.1,106.4,50.9,99.5,43.2z M59.1,91.8L59.1,91.8c1-3,1.7-6.3,1.7-9.4c5-1.7,10.3-2.5,15.6-2.3c5.2-0.2,10.6,0.6,15.6,2.3
    c0.1,3.2,0.7,6.4,1.7,9.4H59.1z M93.9,78c-5.6-1.8-11.5-2.8-17.5-2.6C70.6,75.2,64.7,76.2,59,78c-7.8-7.4-10.7-14.4-8.7-21.2
    c2.4-7.9,11.1-16.7,26.1-26.4c15,9.8,23.7,18.5,26.1,26.4C104.5,63.6,101.7,70.7,93.9,78z"/>
</g>
<g>
  <path class="st0" d="M124.5,102.8l3.2,43.6l9.8,7.3l1.2,11.4H67.2l1.1-11.4l9.8-7.3l3.2-43.6"/>
  <path class="st1" d="M140.4,150.9l-9.6-7.3l-3-40.4l0,0l-4.8-2.1H83l0,0l-5,2l0.4,0.4l-3,40.4l-9.8,7.3l-1.8,16h78.5L140.4,150.9z
     M82.5,105.6h40.8l2.7,36H80L82.5,105.6z M103,162.6H68.8l0.9-9.1l9.8-7.3h46.6l9.8,7.3l0.9,9.1H103z"/>
  <path class="st0" d="M84.1,87l0.7,0.5l0.9-0.4c5.5-1.8,11.2-2.7,16.9-2.5c5.7-0.2,11.6,0.7,16.9,2.5l0.9,0.4l0.7-0.5
    c8-7.7,11.2-15.3,9.1-22.6c-2.5-8.4-11.4-17.1-26.7-27.2l-0.7-0.5l-0.7,0.5c-15.5,10.1-24.2,19-26.7,27.2l0,0
    C72.9,71.6,75.9,79.3,84.1,87z"/>
  <path class="st0" d="M119.5,89.3l-0.9-0.4c-5.2-1.8-10.5-2.5-16-2.3c-5.5-0.2-10.9,0.7-16,2.3l-0.9,0.4v1.1c-0.2,3-0.7,6.1-1.8,9.1
    l-0.5,1.8H122l-0.7-2c-1.1-2.8-1.6-5.9-1.8-9.1L119.5,89.3z"/>
  <path class="st0" d="M102.4,25.5c2.7,0,3.9,1.1,3.9,3.4c0,2.8-1.2,4.1-3.9,4.1c-2.7,0-4.1-1.4-3.9-4.1
    C98.5,26.6,99.8,25.5,102.4,25.5z"/>
  <polygon class="st1" points="105.5,76.8 105.5,66.7 111.2,66.7 111.2,61.1 105.5,61.1 105.5,54.9 99.6,54.9 99.6,61.1 93.9,61.1
    93.9,66.7 99.6,66.7 99.6,76.8   "/>
  <path class="st1" d="M125.6,50.6c-3.6-3.7-9.8-8.9-19-15.1c1.2-0.9,4.6-2.7,4.6-7.1c-0.2-4.8-4.3-8.5-8.9-8.4
    c-4.5,0.2-8.2,3.7-8.4,8.4c0,4.5,3.2,6.1,4.6,7.1c-9.3,6.2-15.7,11.2-19,15.1c-3.2,3.4-5.7,7.3-7.3,11.6
    c-3.4,9.6,1.1,17.6,10.3,27.4c-0.4,5-1.8,9.8-4.3,14.1h17.3l0,0H99l0,0h10.9l0,0h4.6l0,0h12.6c-2.7-4.3-4.1-9.1-4.5-13.9
    c4.1-3.9,7.5-8.7,10-13.7C136.4,67.6,132.5,58.3,125.6,50.6z M85.2,99.2L85.2,99.2c1.1-3,1.6-6.2,1.8-9.4c5-1.8,10.3-2.5,15.5-2.3
    c5.3-0.2,10.5,0.7,15.5,2.3c0.2,3.2,0.7,6.4,1.8,9.4H85.2z M119.9,85.5c-5.7-1.8-11.6-2.7-17.4-2.7c-5.9-0.2-11.9,0.7-17.4,2.7
    c-7.8-7.3-10.7-14.4-8.7-21.2c2.3-7.8,11.2-16.7,26.2-26.3c15,9.6,23.7,18.5,26.2,26.3C130.6,71.1,127.7,78.2,119.9,85.5
    L119.9,85.5z"/>
</g>

</svg>
