<svg version="1.1" id="Layer_1" xmlns="http://www.w3.org/2000/svg" x="0" y="0" viewBox="0 0 180 180" style="enable-background:new 0 0 180 180" xml:space="preserve"><style>.st1{fill:#fff}.st2{fill:#1a1a1a}.st3{fill-opacity:.2}</style><path style="fill:none" d="M0 0h180v180H0z"/><path class="st1" d="M114.4 126c-.9 0-1.7-.5-2-1.2-.2-.5-.4-1.7 1.3-3.3 1.3-1.2 1.9-3.3 2.5-5.1.7-2.3 1.4-4.5 3.5-4.9 5.9-1.2 12.2-2.8 13.6-5.9.6-1.3.3-2.8-.8-4.7l-.9-1.4 1.8-.4h.2c.2 0 .5 0 .9.1.9.1 2.3.3 4.2.3h1.6l.2 1.1c.8 5.1-1.8 12-18.5 16.1l-.3.1c-1.4.3-1.5 1.1-1.5 3 0 1.3 0 2.8-1.1 3.9-1.7 1.5-3.4 2.3-4.7 2.3z" transform="translate(-80.15 -24.39) scale(1.2091)"/><path class="st2" d="M133.6 100.3c.5 0 2.3.4 5.1.4h.5c1.5 10.3-14.8 14.1-17.9 14.8-4 1-1.4 5.5-3.2 7.2-1.6 1.5-2.9 2.1-3.7 2.1-1.1 0-1.3-1.1.1-2.4 3.2-3 2.7-9.2 5.4-9.7 9-1.7 18.4-4.4 13.7-12.4-.1 0-.1 0 0 0zm0-2.5c-.2 0-.4 0-.7.1l-3.3.8 1.7 2.9c.9 1.5 1.2 2.7.8 3.5-1.3 2.9-9.6 4.6-12.7 5.2-2.8.5-3.7 3.3-4.4 5.8-.5 1.7-1.1 3.6-2.2 4.6-2.2 2.1-1.8 4-1.6 4.7.5 1.2 1.7 2 3.1 2 1.6 0 3.5-1 5.4-2.8 1.5-1.4 1.5-3.4 1.5-4.8 0-.5 0-1.5.2-1.7 0 0 .1-.1.4-.2l.3-.1c17.6-4.3 20.3-11.9 19.5-17.5l-.3-2.2h-2.7c-1.8 0-3.2-.2-4-.3h-1z" transform="translate(-80.15 -24.39) scale(1.2091)"/><path class="st3" d="M118.9 118.2c-.1.9 0 2.6-.2 3.3h-.3c.1-1.2 0-2.5.2-3.2.1 0 .3-.1.3-.1z" transform="translate(-80.15 -24.39) scale(1.2091)"/><path class="st1" d="M161.7 128.1c-1 0-1.9-.3-2.6-1-1.9-1.9-3.7-2.5-5.9-3.1l-1-.3.1-1c.9-9.2 2.7-44.8 1.6-52-1.1 2.4-2.5 9.1-3.4 13.7-2.4 12-3.7 17.4-6.4 18.1-1 .3-2.4.7-4 .7-1.5 0-2.8-.4-4-1.1-1.1-.7-1-2.5-.8-4.2 1.2-7.7 11.2-35.6 15.6-36.8.7-.2 1.4-.3 2.2-.3 2.7 0 5.5 1 7 2.5.8.8 1.3 1.9 1.3 2.9 0 4.8-.9 12.2-1.8 19.9-1.3 11.1-2.8 23.7-2.4 33.1.1 1 4.4 3.5 6.9 4.2 1.5.4 1.9 1.4 1.8 2.2-.3 1.5-2.4 2.5-4.2 2.5z" transform="translate(-80.15 -24.39) scale(1.2091)"/><path class="st2" d="M153.1 62.1c3.2 0 7 1.7 7 4.2 0 11.5-4.9 37-4.2 53 .1 2.2 6.1 4.8 7.8 5.3 2.1.6-.1 2.4-2.1 2.4-.6 0-1.3-.2-1.8-.6-2.1-2-4.1-2.7-6.4-3.4.8-7.7 3.4-53.4.9-54.1h-.2c-3.8 0-6.2 31.4-10.5 32.6-.9.3-2.3.6-3.7.6-1.1 0-2.3-.2-3.3-.9-2.7-1.7 10.6-37.8 14.5-38.8.7-.3 1.3-.3 2-.3zm0-2.5c-.9 0-1.8.1-2.5.3-1.2.3-3.6.9-9.8 16.3-2.8 7-6 16.4-6.8 21.5-.2 1.4-.7 4.2 1.3 5.5 1.4.8 2.9 1.3 4.7 1.3 1.7 0 3.3-.4 4.3-.7h.1c3.3-.9 4.6-6 7.3-19 .4-2 .9-4.3 1.4-6.5.1 13-1.2 37.3-1.9 44.5l-.2 2.1 2 .6c2.1.6 3.6 1.2 5.4 2.8.9.9 2.1 1.3 3.5 1.3 2.4 0 5.1-1.4 5.4-3.7.2-1.2-.4-2.9-2.7-3.5-1.6-.4-5.2-2.3-6-3.3-.4-9.2 1.1-21.6 2.4-32.6 1-8.1 1.8-15.2 1.8-20.1 0-1.4-.6-2.7-1.7-3.8-1.9-1.9-5-3-8-3z" transform="translate(-80.15 -24.39) scale(1.2091)"/><path class="st3" d="M136.6 101c-2.7-1.7 10.6-37.8 14.5-38.8 3.4-.9 8.9.9 8.9 3.9 0 11.5-4.9 37-4.2 53 .1 2.2 6.1 4.8 7.8 5.3 2.8.8-1.9 3.6-3.9 1.7-2.1-2-4.1-2.7-6.4-3.4.8-7.7 3.4-53.4.9-54.1-3.9-1.2-6.3 31.3-10.7 32.6-1.5.5-4.5 1.4-6.9-.2z" transform="translate(-80.15 -24.39) scale(1.2091)"/><path class="st1" d="M125.9 112.2c-6.3 0-11.4-.7-15.7-2.1l-.9-.3.1-1c.5-7.2.5-15.9-3.4-20.4l-1.1-1.2 1.4-.7c5-2.5 12.2-3.7 22-3.7 12 0 25.2 1.8 34.8 3.1 4.5.6 8.1 1.1 10.3 1.2 10.8.6 11.5 7.1 11.5 9.1-.1 5.4-4.8 10.6-9.7 10.7-5.7.1-12.8 1.2-20.4 2.3-9.6 1.6-19.6 3-28.9 3z" transform="translate(-80.15 -24.39) scale(1.2091)"/><path class="st2" d="M128.4 84.2c17.6 0 38 4 45 4.4 16.8 1 9.8 17.1 1.7 17.3-13 .3-32.7 5.2-49.3 5.2-5.6 0-10.8-.5-15.3-2 .5-7.1.6-16.4-3.7-21.3 5.4-2.7 13.2-3.6 21.6-3.6zm0-2.5v2.5-2.5c-10.1 0-17.5 1.2-22.6 3.8l-2.9 1.4 2.1 2.4c3.6 4.1 3.5 12.6 3.1 19.5l-.1 1.9 1.8.6c4.4 1.4 9.7 2.1 16.1 2.1 9.4 0 19.4-1.5 29.2-2.9 7.5-1.1 14.6-2.1 20.2-2.3 5.5-.1 10.9-5.9 11-11.9 0-2.2-.8-9.6-12.6-10.3-2.2-.1-5.7-.6-10.2-1.2-9.8-1.3-23-3.1-35.1-3.1z" transform="translate(-80.15 -24.39) scale(1.2091)"/><path class="st1" d="M136.9 99.6c-4.8 0-8.6-.3-11.6-1l-1.5-.3.6-1.4c.8-1.6 2.2-7.9-.2-12.2l-.4-.8.6-.7c2-2.2 6.8-3.2 14.8-3.2 19.7 0 51.9 6.4 58.8 8 5.1 1.2 6 3 5.8 4.4-.2 2.2-3.3 3.7-7.5 3.7h-3.4c-8.2 0-18.3.9-28.1 1.8-9.7.8-19.8 1.7-27.9 1.7z" transform="translate(-80.15 -24.39) scale(1.2091)"/><path class="st2" d="M139.2 81.3c18.7 0 49.7 5.9 58.5 7.9 8.3 1.9 4.7 5.7-1.4 5.7H193c-16.4 0-39.9 3.6-56.1 3.6-4.4 0-8.3-.3-11.3-.9.9-2 2.4-8.6-.2-13.3 1.8-2.2 7-3 13.8-3zm0-2.5v2.5-2.5c-8.4 0-13.4 1.2-15.7 3.6l-1.2 1.3.8 1.6c2 3.7 1 9.4.2 11.1l-1.3 2.8 3 .7c3 .7 6.9 1 11.8 1 8.2 0 18.3-.9 28.1-1.8s19.9-1.8 28-1.8h3.3c4.1 0 8.3-1.5 8.7-4.8.2-1.9-.8-4.4-6.8-5.8-6.8-1.5-39.1-7.9-58.9-7.9z" transform="translate(-80.15 -24.39) scale(1.2091)"/><path class="st1" d="M164.8 128.1c-1 0-1.9-.3-2.5-1-1.8-1.8-3.5-2.3-5.6-3l-1-.3.1-1c1-8.9 2.9-42.9 1.9-50.3-1.1 2.4-2.4 8.8-3.3 13.2-2.4 11.7-3.7 16.9-6.3 17.6-1 .3-2.4.7-3.9.7-1.4 0-2.7-.3-3.8-1s-1-2.3-.8-3.9c1-6.9 10.9-34.8 15.3-36 .7-.2 1.4-.3 2.2-.3 2.6 0 5.2.9 6.6 2.4.8.8 1.2 1.8 1.2 2.8-.1 4.7-.9 11.8-1.9 19.3-1.4 10.8-2.9 23.1-2.5 32.1.1.9 4.2 3.3 6.5 3.9 1.4.4 1.8 1.4 1.7 2.1 0 1.6-2.1 2.7-3.9 2.7z" transform="translate(-80.15 -24.39) scale(1.2091)"/><path class="st2" d="M157.2 64c3.1 0 6.7 1.6 6.6 4-.1 11.2-5 35.9-4.4 51.5.1 2.1 5.8 4.6 7.4 5.1 2 .5-.1 2.3-2 2.3-.6 0-1.2-.2-1.7-.6-2-1.9-3.9-2.6-6.1-3.3.8-7.5 3.7-51.8 1.2-52.5h-.2c-3.7 0-6.1 30.5-10.3 31.7-.9.3-2.2.6-3.6.6-1 0-2.1-.2-3.1-.8-2.6-1.6 10.5-36.7 14.2-37.7.7-.2 1.3-.3 2-.3zm0-2.4c-.9 0-1.8.1-2.5.3-1.1.3-3.5.9-9.6 16.1-2.8 6.9-5.9 16.1-6.7 21-.2 1.3-.6 4 1.3 5.2 1.3.8 2.8 1.2 4.5 1.2s3.2-.4 4.2-.7h.1c3.2-.9 4.5-5.8 7.1-18.5.3-1.6.7-3.5 1.1-5.4-.1 12.8-1.5 35.4-2.2 42.1l-.2 2.1 2 .6c2 .6 3.4 1.1 5.1 2.7.9.9 2.1 1.3 3.4 1.3 2.3 0 5-1.5 5.3-3.7.2-1.3-.6-2.9-2.6-3.5-1.5-.4-4.9-2.1-5.6-3-.3-8.9 1.2-21 2.5-31.6 1-7.9 1.8-14.7 1.9-19.5 0-1.4-.5-2.7-1.6-3.7-1.6-2-4.6-3-7.5-3z" transform="translate(-80.15 -24.39) scale(1.2091)"/><path class="st1" d="M111.5 126.3c-.9 0-1.7-.5-2-1.2-.2-.5-.4-1.7 1.3-3.3 1.3-1.2 1.9-3.3 2.5-5.1.7-2.3 1.4-4.5 3.5-4.9 4.2-.8 12.1-2.4 13.6-5.7.5-1.2.3-2.7-.8-4.6-.2-.3-.3-.6-.2-1 .1-.6.7-1 1.2-1h.4c.5 0 1.8.2 4.2.2h1.1c.6 0 1.1.4 1.2 1.1.8 5.1-1.8 12-18.5 16.1l-.3.1c-1.4.3-1.5 1.1-1.5 3 0 1.3 0 2.8-1.1 3.9-1.7 1.5-3.3 2.4-4.6 2.4zm1.6-17.4c-1.3 0-2.4-.6-3.3-1.9-.2-.2-.3-.5-.2-.8 1.1-14.4-4.5-18.9-4.8-19.1-1.2-.9-1.2-1.8-1-2.3.2-.7.9-2.7 13.1-2.7 2 0 3.6.1 4.4.2 1.5.2 2.7 1.5 3.5 3.5 1.5 4 .9 10.7-2.5 14.8-.5.6-1.1 1.3-1.6 2.1-2.3 2.9-4.8 6.2-7.6 6.2z" transform="translate(-80.15 -24.39) scale(1.2091)"/><path class="st2" d="M116.9 83.4c1.9 0 3.5.1 4.2.2 3.8.6 4.7 11 .2 16.2-2.3 2.8-5.4 7.9-8.3 7.9-.8 0-1.6-.4-2.3-1.4 1-13.3-3.5-18.8-5.2-20.1-2.9-2.1 5.7-2.8 11.4-2.8zm13.7 17.4c.2 0 1.5.2 4.6.2h1.1c1.5 10.3-14.8 14.1-17.9 14.8-4 1-1.4 5.5-3.2 7.2-1.6 1.5-2.9 2.1-3.7 2.1-1.1 0-1.3-1.1.1-2.4 3.2-3 2.7-9.2 5.4-9.7 8.9-1.8 18.4-4.2 13.6-12.2zm-13.7-19.9c-2.9 0-5.7.1-7.9.4-3.4.4-5.8 1.1-6.4 3.1-.2.5-.5 2.2 1.5 3.7 1.9 1.4 5.1 7 4.2 18 0 .6.1 1.2.5 1.7 1.5 2 3.2 2.4 4.3 2.4 3.4 0 6.1-3.6 8.5-6.7.6-.8 1.1-1.5 1.6-2 3.8-4.5 4.4-11.6 2.7-16-1.2-3.3-3.3-4.1-4.5-4.2-1.1-.3-3.5-.4-4.5-.4zm13.7 17.4c-1.1 0-2.2.8-2.4 1.9-.2.7 0 1.4.3 1.9.9 1.4 1.1 2.6.8 3.4-1.2 2.8-9.3 4.3-12.7 5-2.8.5-3.7 3.3-4.4 5.8-.5 1.7-1.1 3.6-2.2 4.6-2.2 2.1-1.8 4-1.6 4.7.5 1.2 1.7 2 3.1 2 1.6 0 3.5-1 5.4-2.8 1.5-1.4 1.5-3.4 1.5-4.8 0-.5 0-1.5.2-1.7 0 0 .1-.1.4-.2l.3-.1c17.6-4.3 20.3-11.9 19.5-17.5-.2-1.2-1.2-2.1-2.5-2.1h-1.1c-2.3 0-3.6-.1-4.1-.1h-.5z" transform="translate(-80.15 -24.39) scale(1.2091)"/><path class="st1" d="M100.1 122.6c-.8 0-1.5-.2-2.1-.5-10.5-5.3-16.2-12.7-17.9-23.3-.7-4.5.5-8.1 4.3-11.8 2.1-2.1 6.2-3.5 10.4-3.5 3 0 5.9.7 8.6 2.1 9.8 5.1 5.4 29.6 4.2 32.7-.8 2.1-4.7 4.3-7.5 4.3z" transform="translate(-80.15 -24.39) scale(1.2091)"/><path class="st2" d="M94.7 84.9c2.6 0 5.3.5 8 1.9 8.7 4.5 4.9 27.8 3.7 31.1-.5 1.4-3.8 3.4-6.3 3.4-.6 0-1.1-.1-1.5-.3-10-5-15.5-11.9-17.2-22.4-.6-3.5 0-6.8 3.9-10.7 1.6-1.5 5.2-3 9.4-3zm0-2.5c-4.5 0-8.9 1.5-11.2 3.8-4 4-5.5 7.9-4.7 12.8 1.8 11 7.7 18.7 18.6 24.2.8.4 1.7.6 2.7.6 3.4 0 7.7-2.5 8.7-5 .7-1.9 2.1-8.9 2.1-16 0-9.7-2.3-15.8-6.9-18.2-2.9-1.4-6-2.2-9.3-2.2z" transform="translate(-80.15 -24.39) scale(1.2091)"/><path class="st2" d="M92.4 104.4c-2 .3-4.6 0-6.2-3.6s-1.1-7.3 1.2-8.1c4.1-1.4 5.7 1.2 6.9 3.4 1.5 2.7 2.3 7.6-1.9 8.3zm-11.6-4.7c-.2 0-.4-.2-.5-.4l-.3-1.8-.3.3c-.3.1-.5-.1-.5-.4-1.9-9.2-1.8-22.1 21.3-26.9.3 0 .5.1.6.4s-.1.5-.4.6C79.5 76 78.4 87.3 79.9 96c-.6-5.4.4-10 2.8-13.7 3.3-4.9 9.4-8.2 18.2-9.8.3 0 .5.1.5.4s-.1.5-.4.5c-8.5 1.5-14.4 4.7-17.5 9.4-2.8 4.2-3.6 9.7-2.2 16.3 0 .2-.2.5-.5.6 0-.1 0 0 0 0z" transform="translate(-80.15 -24.39) scale(1.2091)"/></svg>