<svg xmlns="http://www.w3.org/2000/svg" viewBox="0 0 180 180" style="enable-background:new 0 0 180 180" xml:space="preserve"><path style="fill:none" d="M0 0h180v180H0z"/><path d="M149.17 61.56a31.76 31.76 0 0 0-23-9.27c-11.63 0-19.33 3.41-23.56 6.06l-2.94-12.83h11.68v-18h-12v-12h-18v12h-12v18H81l-2.9 12.83c-4.22-2.65-11.93-6.06-23.55-6.06a31.75 31.75 0 0 0-23 9.27c-5.87 6-9.1 14.48-9.1 23.86 0 13.61 8.68 22.27 17.08 30.65 5.17 5.15 10.49 10.46 14 17-14 3.54-13.92 13-13.9 23.79v3.6h101.5v-3.6c0-10.82.05-20.25-13.89-23.79 3.45-6.53 8.78-11.84 13.94-17 8.4-8.38 17.09-17 17.09-30.65 0-9.42-3.27-17.85-9.1-23.86ZM128.51 89c-.92 6.43-10.42 12.08-16.78 20.2-3.2-.21-5.17-.38-7.87-.49V83.74s8-5.71 14.43-5.71c0-.03 11.71.41 10.22 10.97ZM62.49 78c6.44 0 14.43 5.71 14.43 5.71v24.92c-2.71.11-4.67.28-7.87.49C62.68 101 53.19 95.38 52.27 89c-1.5-10.56 10.22-11 10.22-11Z" style="fill:#fff"/><path style="opacity:.3;fill:#fff" d="M111.35 31.52H95.39l3-3.23h12.96v3.23zm-16-12h-10v12h-12v10l-4 4v-18h12V15.53h18l-4 3.99z"/><path d="M90.35 138.41c43.07 0 47.54 4.75 47.54 4.75h.59c-1.94-10.18-24.5-11.3-24.5-11.3h-47.1s-23.36.81-24.66 11.3h.59s4.47-4.75 47.54-4.75ZM64.07 54.82s-21.19-7.24-34.27 8.72c-18.12 22.1 2.35 43.09 2.35 43.09-13.3-24.35 1.17-53.17 31.92-51.81Z" style="opacity:.2;fill:#fff"/><path d="m144.56 101.34-29.69 29.78 12.37 1.94a96.69 96.69 0 0 1 15.24-18.69c9.87-9.5 15.77-15.91 15.77-31.56 0-11.49-5.79-16.61-10.95-20.77 0-.04 12.51 24.05-2.74 39.3Z" style="opacity:.2"/><path d="M62.41 79.79a19.36 19.36 0 0 1 11.94 4.63v22.44l-4.95.28c-2.59-3.09-5.11-5.74-7.4-8.14-4.8-5-8.27-8.69-8.27-12 0-5.33 4.47-7.23 8.65-7.23m0-4c-7 0-12.65 4.06-12.65 11.23s8.81 13 17.84 24.22c0 0 8.3-.47 10.75-.57V82.61a23.74 23.74 0 0 0-15.94-6.82Zm27.97 56.64a252.6 252.6 0 0 1 31.36 1.65 43.48 43.48 0 0 1 5.16 1l.67-4a46.89 46.89 0 0 0-5.33-1 254 254 0 0 0-31.86-1.69 254.29 254.29 0 0 0-31.87 1.69 47.37 47.37 0 0 0-5.58 1l.83 3.91a42.45 42.45 0 0 1 5.26-1 252.6 252.6 0 0 1 31.36-1.56Z" style="fill:#1a1a1a"/><path d="M97.35 17.52v12h12v14h-12l3.75 16.63a56 56 0 0 1 25.05-5.86c17.4 0 30.12 12.73 30.12 31.13 0 21.75-23.46 29.87-31.94 49.05 15.53 2.84 14.8 11.54 14.8 24H41.57c0-12.44-.74-21.14 14.8-24-8.49-19.18-31.94-27.3-31.94-49 0-18.4 12.72-31.13 30.12-31.13a58.23 58.23 0 0 1 25 5.58l3.75-16.35h-12v-14h12v-12h14m4-4h-22v12h-12v22h11l-1.53 6.73a64.5 64.5 0 0 0-22.22-4c-19.77 0-34.12 14.78-34.12 35.13 0 14.44 9 23.4 17.67 32.06 4.47 4.46 9.06 9 12.36 14.37-5.23 1.78-8.67 4.62-10.67 8.74-2.26 4.63-2.24 10-2.23 16.26v5.6h105.57v-5.6c0-10.57.06-20.62-12.89-25 3.29-5.33 7.89-9.91 12.36-14.37 8.68-8.66 17.67-17.62 17.67-32.06 0-20.35-14.35-35.13-34.12-35.13a62.21 62.21 0 0 0-22.23 4.2l-1.57-7h11v-22h-12v-12Z" style="fill:#1a1a1a"/><path d="M118.28 79.79c4.19 0 8.65 1.9 8.65 7.23 0 3.32-3.46 7-8.26 12-2.27 2.37-4.79 5-7.38 8.11l-4.94-.28V84.42a19.31 19.31 0 0 1 11.93-4.63m0-4a23.72 23.72 0 0 0-15.93 6.82v28.06c2.45.1 10.74.57 10.74.57 9-11.2 17.84-16.92 17.84-24.22s-5.62-11.23-12.65-11.23Z" style="fill:#1a1a1a"/></svg>