<svg xmlns="http://www.w3.org/2000/svg" viewBox="0 0 180 180" style="enable-background:new 0 0 180 180" xml:space="preserve"><path fill="#BF3B43" d="M89.939 118.259c-3.936-.096-7.996-.465-12.412-1.127l-1.917-.288-2.665-23.984H61.621l-4.7 21.1H54.9c-6.703 0-13.408-1.694-19.39-4.899l-1.459-.782 2.343-28.111.008-.062c1.25-9.374 5.967-15.147 15.297-18.72l.623-.239.66.101A291.901 291.901 0 0 0 90 64.52a291.899 291.899 0 0 0 37.018-3.27l.66-.101.623.239c9.329 3.573 14.047 9.346 15.296 18.72l.008.062 2.343 28.111-1.459.782c-5.982 3.205-12.687 4.899-19.39 4.899h-2.02l-4.7-21.1h-11.324l-2.665 23.985-1.917.288c-4.417.662-8.477 1.031-12.412 1.127l-.061-.001-.061-.002z"/><path opacity=".3" fill="#FFF" d="M51.5 113.54c-13.8-9.3-8.6-44.1-8.6-44.1-8.8 2.8-7.32 38.26-7.32 38.26s6.899 2.923 11.762 4.799l4.158 1.041zm42.7 2.7c-15.4-2.8-21.4-24.8-21.4-24.8 2.74 16.44 4.84 25.08 4.84 25.08s20.96.52 16.56-.28zm41.2-4.6c-6.625-3.445-12.24-11.191-15.276-16.027l3.572 17.276c.606 1.572 11.704-1.249 11.704-1.249z"/><path opacity=".2" fill="#040000" d="M127.2 61.54s4.8 3.2 6.5 4.3c5.539 3.584 8.439 10.758 9.46 21.43.966 10.091 1.74 19.97 1.74 19.97s-8.338 4.2-8.407 3.791C134.23 97.724 131.4 78.17 124.9 72.64c-6.1-5.2-9.8-6.5-10.7-6.7-1.8.2-3.6.4-5.7.6-6.093.554-19.726-.142-19.726-.142L127.2 61.54z"/><path d="M89.939 118.259c-3.936-.096-7.996-.465-12.412-1.127l-1.917-.288-2.665-23.984H61.621l-4.7 21.1H54.9c-6.703 0-13.408-1.694-19.39-4.899l-1.459-.782 2.343-28.111.008-.062c1.25-9.374 5.967-15.147 15.297-18.72l.623-.239.66.101A291.901 291.901 0 0 0 90 64.52a291.899 291.899 0 0 0 37.018-3.27l.66-.101.623.239c9.329 3.573 14.047 9.346 15.296 18.72l.008.062 2.343 28.111-1.459.782c-5.982 3.205-12.687 4.899-19.39 4.899h-2.02l-4.7-21.1h-11.324l-2.665 23.985-1.917.288c-4.417.662-8.477 1.031-12.412 1.127l-.061-.001-.061-.002zm12.161-3.619 2.7-24.3h15.6l4.7 21.1c6.4 0 12.6-1.6 18.2-4.6l-1.1-13.2-1.1-13.2c-1-7.5-4.3-13.1-13.7-16.7-12.4 1.9-24.9 3-37.4 3.3-12.5-.3-25-1.4-37.4-3.3-9.4 3.6-12.7 9.2-13.7 16.7l-1.1 13.2-1.1 13.2c5.6 3 11.8 4.6 18.2 4.6l4.7-21.1h15.6l2.7 24.3c4 .6 8 1 12.1 1.1 4.1-.1 8.1-.5 12.1-1.1z"/></svg>