<svg version="1.1" id="Layer_1" xmlns="http://www.w3.org/2000/svg" x="0" y="0" viewBox="0 0 180 180" style="enable-background:new 0 0 180 180" xml:space="preserve"><style>.wst2{fill:#7d868b}.wst4{fill:#fff}</style><path style="fill:none" d="M0 0h180v180H0z"/><path style="fill:#5d686e" d="M0 0h180v180H0z"/><path class="wst2" d="M16.4 1.8c6.2-.5 12.5-.3 18.6.3 2.7.3 5.8.9 7.3 3.2 1 1.5 1.2 3.4 1.2 5.3.2 7.6-1.4 16.2-7.6 20.5-3.4 2.4-7.6 3.1-11.7 3.8-2.8.5-5.9.9-8.5-.5-2.4-1.3-3.7-4-4.7-6.6-3-8.6-8.2-25.1 5.4-26zM77.7 1c3.7-.1 8 .2 9.9 3.4 1 1.6 1 3.6.9 5.5-.2 7-1.4 14.3-5.3 20.2s-10.9 10.1-17.9 9c-3.7-.6-7-2.5-10.3-4.4-2.5-1.5-5-3-6.6-5.4-2.8-4.1-2.5-9.8-2.4-14.5.2-3.2 0-7.8 2.2-10.3 2.9-3.3 8.4-3 12.4-3.1 5.7-.1 11.4-.2 17.1-.4zm20.8 2.3c3.4-1.8 7.3-1.8 11.1-1.8 5.4 0 11.2.2 15.5 3.5 3.1 2.4 4.8 6.1 6.5 9.7 3.8 8.4 7.6 17 9.3 26.1.4 1.9.6 3.9-.1 5.6-1.2 2.9-4.6 4-7.6 4.8-5.5 1.5-11.1 3.1-16.8 3.3-5.7.2-11.7-1.1-16.2-4.6-4.6-3.7-7.1-9.3-8.3-15.1-1.2-6.2-.9-12.5.7-18.6 1.2-4.8.8-10.3 5.9-12.9zm40.8-1.9c9.4 0 18.9.1 28.3.2 2.4 0 4.9.1 6.7 1.7 3 2.6 2.1 7.3 2.1 11.2 0 5.7 2.3 12-1 16.7-2 2.8-5.6 4.1-8.9 5.2-4 1.3-8.1 2.6-12.1 3.9-1.6.5-3.3 1.1-5 .6-2.3-.6-3.7-2.8-4.8-4.8-3.6-6.4-6.6-13.2-8.9-20.2-1.9-5.7-5.6-14.5 3.6-14.5zm32.4 35.4c-4.8 2.4-9.5 4.7-14.3 7.1-3 1.5-6.3 3.5-6.6 6.8-.1 1.9.9 3.8 1.9 5.4 4.7 8 9.4 15.9 14.8 23.5 1.1 1.5 2.2 3 3.8 3.9s3.8 1 5.2-.2 1.3-3.3 1.5-5.2c1.1-10.1.6-36.9.2-39.5-.7-4.1-3.8-3.1-6.5-1.8zm-7.9 52.1c-3 1-25.7 14.3-26.2 25.1-.2 3.2 1.1 6.2 3.4 8.2 8.1 7 20.3 7 30.6 3.9 2.4-.7 4.9-1.7 6.1-3.9 1-1.7.9-3.7.9-5.7-.2-7.5-.2-15-.6-22.4-.2-3.5-1.4-3.8-4.7-4.8-3.3-1-6.2-1.3-9.5-.4zm-7.3 43.3c-2.2.3-4.5.7-6 2.2-1.8 1.8-2 4.7-1.9 7.3 0 5.7.1 11.4.3 17 .1 4.3.5 8.9 3 12.4 2.7 3.7 7.5 5.3 12.1 6 2.7.4 5.5.5 8.3.7 2.9.3 5.5-1.9 5.6-4.9.4-9.8 1.2-28.8 1.2-31.1 0-3 .2-6.3-.3-9.3-.4-2.8-.9-3-3.8-2.8-6.2.6-12.4 1.7-18.5 2.5zM20 47.2c.1-2.2.3-4.6 1.6-6.3 1-1.3 2.6-2.1 4.1-2.7 9-3.6 19.4-3.2 28.1 1 3 1.4 6 3.6 6.8 6.9.6 2.5-.3 5.1-1.1 7.5-1 3-2.1 6-3.1 8.9-1.5 4.4-3.1 8.8-6 12.5-3.8 4.8-9.8 7.9-15.9 8.2-5.4.2-15.8-2.1-15.8-8.6 0-9.1.8-18.3 1.3-27.4zm41.8 6.1c1.3-3 2.8-5.9 5.1-8.2 4.9-4.8 12.9-5.6 19.3-3.1 6.4 2.5 11.3 7.9 14.8 13.8 2.2 3.8 3.9 7.9 4.4 12.3s-.4 9-3.1 12.5c-2.1 2.8-5.1 4.8-8.2 6.3-3.9 2-8.2 3.6-12.5 3.7-9 .4-19.2-5.3-25.5-11.5-3.2-3.2-1-7.3.2-11.2 1.5-4.9 3.3-9.8 5.5-14.6zm46.1 20.6c.1-3.7.8-7.6 3.2-10.4 2.4-2.8 6-4 9.5-5.2 6.2-2.1 12.5-4.2 18.7-6.2 1.6-.5 3.4-1.1 5.1-.5 1.3.5 2.2 1.6 3.1 2.7 5.6 7.2 10.6 15 14.8 23.1 1.3 2.5 2.5 5.5 1.1 7.9-.7 1.3-2 2.1-3.3 2.9-8.1 4.9-16.1 9.9-24.2 14.8-1.8 1.1-3.8 2.2-5.9 1.9-2.8-.4-4.5-3.1-6-5.5-3.1-4.7-6.9-8.8-11.4-12.1-1.6-1.2-3.2-1.9-4-3.8-1.1-2.6-.8-6.8-.7-9.6zm-27.3 31.7c.6-3 1.2-6.1 2.9-8.6 2.8-4.1 7.9-5.8 12.6-7.3 3.6-1.1 7.5-2.2 11-.7 2.1.9 3.7 2.7 5.2 4.4 4 4.5 7.9 9 11.8 13.5 1.8 2.1 3.7 4.6 3.1 7.3-.6 2.7-3.4 4.2-5.9 5.5-5.8 3.1-11.1 7.3-15.5 12.3-2.2 2.5-4.3 5.3-7 7.2-4.1 2.8-9.6 3.5-14.2 1.6-5-2-9.4-6.9-8.6-12.3 1.4-7.7 3.1-15.3 4.6-22.9zm23.6 31.7c2-1.8 14.6-15.2 20.7-17.1 6.5-2 13.5 2.4 16.8 8.4 3.3 5.9 3.6 13 4 19.7.2 3.6.3 7.3.5 10.9.1 1.9.2 3.9-.6 5.6-.9 2.3-3.1 3.8-5.4 4.7-4.9 1.8-10.6.7-15.2-1.8s-8.4-6.2-12.1-10c-3.4-3.5-7-7-10.2-10.7-3-3.5-1.9-6.7 1.5-9.7zM33.1 96.8c-.3-2.1-.5-4.3.3-6.3 1.2-2.9 4.3-4.3 7.2-5.5 3.7-1.5 7.5-3.1 11.5-2.8 3.1.2 6.1 1.6 8.8 3.2 4.3 2.4 8.4 5.2 11.6 9 3.2 3.7 5.4 8.4 5.5 13.4.1 5.1-2 10-4.1 14.6-1 2.2-2.1 4.5-4.2 5.8-2.6 1.6-5.8 1-8.8.4-5.2-1.1-10.3-2.1-15.5-3.2-2.7-.6-5.8-1-7.8-3.1-2.4-2.5-2.3-6.7-2.7-9.9-.5-5.1-1.8-10.5-1.8-15.6zm-23-14.5c6.4-2.8 14.7.1 18 6.2 1.7 3.1 2.1 6.7 2.5 10.2.8 6.7 1.5 13.3 2.3 20 .3 2.2.5 4.6-.2 6.7-1 2.9-3.7 4.9-6.3 6.7-2.7 1.9-5.6 3.9-9 4.2-3.3.2-6.4-1.4-9.4-2.9-2.3-1.2-4.7-2.5-5.8-4.9-.8-1.7-.8-3.7-.7-5.7.3-8 .9-16.1.6-24.1-.4-6.6 1.3-13.4 8-16.4zm62.1 89.9c0-.8.2-1.5.4-2.3l4.2-11.2c1.4-3.7 2.9-7.5 5.5-10.4 2.7-2.9 6.9-4.8 10.6-3.6 2.2.7 3.9 2.3 5.6 3.8l20 18.6c1.2 1.2 1.8 2.9 1.2 4.5-1.8 5-6.9 5-9 5.4-7.7 1.3-15.5 1.7-23.3 1.4-4.6-.1-15 .8-15.2-6.2zm-22.6 5.5c-4.8.2-9.9-.6-14-3.1-5-3-8.4-8.3-10.3-13.9-1.9-5.6-2.4-11.5-2.9-17.3-.2-1.9-.3-4.1 1-5.5 1.5-1.7 7.9-6.7 9.5-8 1.7-1.4 4.3-1.2 6.5-.9 9.2 1.2 18.4 2.5 27.6 3.7 1.6.2 3.2.4 4.5 1.2 1.4.8 2.4 2.1 3.4 3.4 2.1 2.7 4.3 5.7 4.3 9.1 0 2.9-1.5 5.5-3 8-3.6 6-7.2 12-10.8 18.1-1.8 3.1-2.9 3.2-6.4 3.9-3 .6-6.2 1.2-9.4 1.3zm-36-39.7c5.7 4.1 7.1 11.8 8 18.8.4 3.2.9 6.4 1.3 9.5.2 1.3.3 2.7-.3 3.9-.6 1.2-2 1.9-3.2 2.5-3 1.4-6.1 2.9-9.1 4.3-2.3 1.1-5.3 2.1-7.1.4-1.2-1.2-1.4-3.1-1.4-4.8-.1-9.8-.6-19.6-.4-29.3.1-7.6 5.7-10 12.2-5.3zM7.1 34.7c2.5-.2 5.1.9 6.6 2.9 1.7 2.3 1.9 5.2 2.1 8 .7 9.5 1.3 19.2-1.6 28.3-.8 2.7-2.1 5.4-4.3 7-2.3 1.7-4.8 1.9-6.7-.1-1.5-1.6-1.7-3.9-1.8-6.1-.3-8.1-.4-16-.1-24.2.2-5.7-2.3-15 5.8-15.8zm138.4 139c.8.4 1.7.9 2.2 1.6.5.8.5 1.9-.1 2.5-.5.4-1.1.5-1.7.6-4.7.5-9.5.7-14.3.6-2.1-.1-11.3.5-9-3.4 1.5-2.6 8.4-3.6 11-3.9 4-.4 8.2.2 11.9 2zM25 173.1c3.1 0 6.2.8 8.8 2.4 1.2.7.7 2.5-.6 2.5-5 .2-10.3.5-15.1-.1-7.8-.8 4.1-4.8 6.9-4.8z"/><path class="wst2" d="M7.4 22.7c.6 2.2 2.1 4.5 1.7 6.7s-2 4.4-4.2 4.8c-1 .1-2.4-.1-2.7-1.1-.8-2.6-.3-12.3-.3-17.5 0-2.7-1.3-11 2.1-10 3.5 1 .7 9.4 3.4 17.1z"/><g style="opacity:.2"><path class="wst4" d="M15.2 31.8c-3.2-8.6-8.4-25.1 5.2-26 6.2-.4 12.4-.3 18.6.4 1.4.2 2.8.4 4.1.8-.2-.6-.4-1.2-.8-1.7C40.8 3 37.8 2.5 35 2.1c-6.2-.7-12.4-.8-18.6-.4-13.6 1-8.4 17.5-5.2 26.1 1 2.6 2.3 5.3 4.7 6.6l.6.3c-.5-1-.9-1.9-1.3-2.9zm34.9-13.1c.1-3.1-.1-7.7 2.1-10.2 2.9-3.3 8.4-3 12.4-3.1l17.1-.3c2.1 0 4.5 0 6.5.7-.1-.5-.3-1-.6-1.4C85.7 1.3 81.4 1 77.7 1c-5.7.2-11.4.3-17.1.4-4 .1-9.5-.2-12.4 3.1-2.2 2.5-2 7.1-2.1 10.2-.1 4.7-.3 10.5 2.4 14.5 1 1.4 2.3 2.6 3.8 3.6-2.5-4-2.3-9.5-2.2-14.1zm45.8 20.1c-1.2-6.2-.9-12.5.7-18.6 1.3-4.8.9-10.3 6-12.9 3.4-1.8 7.3-1.8 11.1-1.8 5 0 10.4.2 14.5 2.8-.9-1.3-1.9-2.4-3.1-3.4-4.3-3.3-10.1-3.5-15.5-3.5-3.8 0-7.8 0-11.1 1.8-5.1 2.7-4.7 8.1-6 12.9-1.6 6.1-1.9 12.4-.7 18.6 1.1 5.7 3.7 11.4 8.3 15.1.2.2.4.3.6.4-2.4-3.2-4-7.3-4.8-11.4zm52.8 1.3c-3.6-6.4-6.6-13.2-8.9-20.2-1.9-5.7-5.6-14.5 3.6-14.5 9.4 0 18.9.1 28.3.2 1.5 0 3.1.1 4.5.5-.3-1.1-.9-2.1-1.8-2.9-1.8-1.5-4.4-1.6-6.7-1.7-9.4-.1-18.9-.1-28.3-.2-9.2 0-5.5 8.8-3.6 14.5 2.3 7 5.3 13.7 8.9 20.2 1.1 1.9 2.4 3.9 4.4 4.7-.2-.2-.3-.4-.4-.6zm23 43.6c-5.4-7.5-10.1-15.5-14.8-23.5-1-1.7-2-3.5-1.9-5.4.3-3.3 3.6-5.3 6.6-6.8 4.8-2.4 9.5-4.7 14.3-7.1.8-.4 1.7-.8 2.6-1 0-.6-.1-1-.1-1.2-.7-4.1-3.8-3.1-6.5-1.8-4.8 2.4-9.5 4.7-14.3 7.1-3 1.5-6.3 3.5-6.6 6.8-.1 1.9.9 3.8 1.9 5.4 4.7 8 9.4 15.9 14.8 23.5 1.1 1.5 2.2 3 3.8 3.9 0 0 .1 0 .2.1zM141.6 118c.5-10.8 23.3-24.1 26.2-25.1 3.3-.8 6.3-.6 9.5.4.2.1.4.1.6.2-.3-2.9-1.6-3.3-4.7-4.2-3.3-1-6.2-1.3-9.5-.4-3 1-25.7 14.3-26.2 25.1-.2 3.2 1.1 6.2 3.4 8.2.6.5 1.3 1 1.9 1.5-.8-1.7-1.3-3.6-1.2-5.7zm11.3 44.8c-.2-5.7-.2-11.4-.3-17 0-2.6.1-5.5 1.9-7.3 1.5-1.5 3.9-1.9 6-2.2 6.1-.8 12.2-1.9 18.3-2.5 0-.4-.1-.9-.2-1.3-.4-2.8-.9-3-3.8-2.8-6.1.6-12.3 1.6-18.4 2.5-2.2.3-4.5.7-6 2.2-1.8 1.8-2 4.7-1.9 7.3 0 5.7.1 11.4.3 17 .1 4.3.5 8.9 3 12.4.9 1.3 2.1 2.3 3.5 3.1-2-3.3-2.3-7.5-2.4-11.4zM22.7 78.6c0-9.1.9-18.3 1.3-27.4.1-2.2.3-4.6 1.6-6.3 1-1.3 2.6-2.1 4.1-2.7 9-3.6 19.4-3.2 28.1 1 .7.3 1.4.7 2.1 1.1-1.3-2.3-3.7-4-6.1-5.2-8.7-4.2-19.1-4.5-28.1-1-1.5.6-3.1 1.4-4.1 2.7-1.4 1.7-1.5 4.1-1.6 6.3-.4 9.1-1.3 18.3-1.3 27.4 0 2.8 1.9 4.8 4.5 6.2-.4-.6-.5-1.3-.5-2.1zM60.3 72c1.5-5 3.4-9.9 5.5-14.7 1.3-3 2.8-5.9 5.1-8.2 4.9-4.8 12.9-5.6 19.3-3.1 2.4 1 4.7 2.4 6.7 4-2.9-3.5-6.5-6.4-10.7-8.1-6.4-2.5-14.4-1.8-19.3 3.1-2.3 2.3-3.8 5.3-5.1 8.2-2.1 4.8-4 9.7-5.5 14.7-1.2 3.9-3.4 8-.2 11.2.9.9 2 1.8 3.1 2.7-1.7-2.9.1-6.4 1.1-9.8zm51.7 6c.1-3.7.8-7.6 3.2-10.4 2.4-2.8 6-4 9.5-5.2 6.2-2.1 12.5-4.2 18.7-6.2 1.6-.5 3.4-1.1 5.1-.5-.3-.4-.7-.9-1-1.3-.8-1.1-1.8-2.2-3.1-2.7-1.6-.6-3.4-.1-5.1.5-6.2 2.1-12.5 4.2-18.7 6.2-3.5 1.1-7.1 2.4-9.5 5.2-2.4 2.8-3.1 6.7-3.2 10.4-.1 2.8-.5 7 .7 9.6.8 1.8 2.4 2.6 4 3.8-1-2.7-.7-6.7-.6-9.4zm16 25.5c-2.4-3.6-5.2-6.8-8.4-9.7 1.6 1.8 3 3.7 4.4 5.6 1.3 2 2.7 4.2 4.8 5.1-.3-.3-.5-.7-.8-1zm-47.7 29c1.2-7.7 2.9-15.3 4.4-22.9.6-3 1.2-6.1 2.9-8.6 2.8-4.1 7.9-5.8 12.6-7.3 3.6-1.1 7.5-2.2 11-.7.7.3 1.3.7 1.9 1.1-.2-.3-.5-.5-.7-.8-1.5-1.7-3.1-3.5-5.2-4.4-3.4-1.5-7.4-.4-11 .7-4.7 1.5-9.8 3.2-12.6 7.3-1.7 2.5-2.3 5.6-2.9 8.6-1.4 7.6-3.1 15.2-4.4 22.9-.7 4.3 2 8.4 5.7 10.8-1.4-1.9-2.1-4.3-1.7-6.7zm26.4 18.5c-3-3.5-1.9-6.7 1.5-9.7 2-1.8 14.6-15.2 20.7-17.1 4-1.2 8.1 0 11.5 2.4-3.6-4.9-9.8-8.2-15.6-6.5-6 1.9-18.7 15.3-20.7 17.1-3.4 3.1-4.5 6.2-1.5 9.7 3.2 3.7 6.7 7.2 10.2 10.7 1.1 1.2 2.3 2.3 3.5 3.5-3.2-3.2-6.5-6.5-9.6-10.1zm-67.6-34.6c-.6-5-1.9-10.5-1.9-15.5-.3-2.1-.5-4.3.3-6.3 1.2-2.9 4.3-4.3 7.2-5.5 3.7-1.5 7.5-3.1 11.5-2.8 3.1.2 6.1 1.6 8.8 3.2 2.7 1.5 5.4 3.2 7.8 5.2-.1-.1-.2-.2-.2-.3-3.2-3.7-7.3-6.6-11.6-9-2.7-1.5-5.7-2.9-8.8-3.2-4-.3-7.8 1.3-11.5 2.8-2.9 1.2-6 2.6-7.2 5.5-.8 1.9-.6 4.2-.3 6.3 0 5.1 1.3 10.5 1.9 15.5.4 3.2.3 7.4 2.7 9.9.7.8 1.6 1.3 2.6 1.8-1-2.4-1-5.2-1.3-7.6zM5.5 126.9c.3-8 .9-16.1.6-24.1-.3-6.7 1.4-13.5 8.1-16.4 4.3-1.9 9.5-1.2 13.4 1.3-3.6-5.6-11.4-8.1-17.5-5.4-6.7 3-8.4 9.8-8.1 16.4.3 8-.3 16.1-.6 24.1-.1 1.9-.1 3.9.7 5.7.8 1.7 2.3 2.9 4 3.8-.7-1.6-.7-3.6-.6-5.4zm70.7 49.3c0-.8.2-1.5.4-2.3l4.2-11.2c1.4-3.7 2.9-7.5 5.5-10.4 2.7-2.9 6.9-4.8 10.6-3.6 2.2.7 3.9 2.3 5.6 3.8l16.8 15.6c-.2-.4-.5-.7-.8-1l-20-18.6c-1.7-1.5-3.4-3.1-5.6-3.8-3.8-1.2-7.9.7-10.6 3.6-2.7 2.9-4.1 6.7-5.5 10.4l-4.2 11.2c-.3.7-.5 1.5-.4 2.3.1 2.8 1.8 4.4 4.2 5.2-.1-.4-.2-.8-.2-1.2zm-46.9-11.4c-1.9-5.6-2.4-11.5-2.9-17.3-.2-1.9-.3-4.1 1-5.5 1.5-1.7 7.9-6.7 9.5-8 1.7-1.4 4.3-1.2 6.5-.9 9.2 1.2 18.4 2.5 27.6 3.7 1.5.2 3 .4 4.3 1.1-.1-.2-.3-.4-.4-.5-1-1.3-2-2.6-3.4-3.4-1.4-.8-3-1-4.5-1.2-9.2-1.2-18.4-2.5-27.6-3.7-2.2-.3-4.8-.5-6.5.9-1.6 1.3-8 6.4-9.5 8-1.3 1.4-1.2 3.6-1 5.5.5 5.8 1.1 11.8 2.9 17.3 1.7 4.9 4.5 9.6 8.7 12.8-2.1-2.7-3.6-5.7-4.7-8.8zM5.8 176.6c-.1-9.8-.6-19.6-.4-29.3.2-7.4 5.5-9.8 11.7-5.6-1-1.4-2.1-2.7-3.6-3.7-6.4-4.6-12-2.3-12.2 5.3-.2 9.8.3 19.6.4 29.3 0 1.7.1 3.6 1.4 4.8.8.7 1.7 1 2.8.9-.1-.6-.1-1.1-.1-1.7zm-.4-97.8c-.3-8.1-.4-16-.1-24.2.2-5.8-2.3-15.1 5.8-15.9 1.2-.1 2.4.1 3.5.5-.3-.6-.6-1.1-.9-1.7-1.5-2-4.1-3.2-6.6-2.9-8.1.9-5.6 10.2-5.8 16-.3 8.1-.2 16 .1 24.1.1 2.2.3 4.5 1.8 6.1.8.9 1.7 1.3 2.7 1.4-.3-1.1-.4-2.3-.5-3.4zm132.2 96.9c3.5-.3 7.1.1 10.4 1.3.2-.6 0-1.2-.3-1.8-.5-.8-1.3-1.2-2.2-1.6-3.7-1.8-7.9-2.4-12-2-2.6.2-9.5 1.3-11 3.9-1.4 2.4 1.6 3.1 4.7 3.3 2.2-2 8.1-2.9 10.4-3.1zM24 178.3c2-.7 4-1.2 5-1.2 1.6 0 3.2.2 4.8.7.8-.5.9-1.7-.1-2.3-2.6-1.6-5.7-2.5-8.8-2.4-2.8 0-14.7 4-7 4.9 2.1.2 4.1.3 6.1.3z"/><path class="wst4" d="M5.9 19.6c0-1.8-.6-6.2.1-8.5-.1-2.9-.4-5.1-2-5.5-3.4-1-2.1 7.3-2.1 10 0 5.3-.5 14.9.3 17.5.3 1 1.7 1.3 2.7 1.1.3 0 .7-.2 1-.3-.3-4 0-10.4 0-14.3z"/></g><path d="M43.6 10.6c0-1.8-.2-3.8-1.2-5.3-.8-1.1-1.9-1.8-3.3-2.3.3 1.1.4 2.4.4 3.6.2 7.6-1.4 16.2-7.6 20.5-3.4 2.4-7.6 3.1-11.7 3.8-2.6.4-5.4.8-7.8-.2.8 1.5 1.9 2.9 3.4 3.7 2.5 1.4 5.6 1 8.5.5 4.1-.7 8.3-1.4 11.7-3.8 6.2-4.4 7.8-12.9 7.6-20.5zm44-6.2c-.8-1.3-2-2.1-3.5-2.6.4 1.3.4 2.7.3 4.1-.2 7-1.4 14.3-5.3 20.2s-10.9 10.1-17.9 9c-3.7-.6-7-2.5-10.3-4.4-1-.6-1.9-1.2-2.9-1.8.1.2.2.3.3.5 1.6 2.4 4.2 3.9 6.6 5.4 3.2 1.9 6.5 3.9 10.3 4.4 7 1.1 14-3.1 17.9-9s5.1-13.1 5.3-20.2c.2-2 .2-4-.8-5.6zm53.3 36.4c-1.7-9.1-5.5-17.7-9.3-26.1-1.6-3.6-3.4-7.3-6.5-9.7-.3-.2-.6-.5-1-.7 1.3 1.9 2.4 4.2 3.4 6.3 3.8 8.4 7.6 17 9.3 26.1.4 1.9.6 3.9-.1 5.6-1.2 2.9-4.6 4-7.6 4.8-5.5 1.5-11.1 3.1-16.8 3.3-5.5.2-11.2-1-15.6-4.2 1 1.3 2.1 2.6 3.4 3.6 4.5 3.6 10.5 4.8 16.2 4.6s11.3-1.8 16.8-3.3c3-.8 6.4-2 7.6-4.8.8-1.7.5-3.7.2-5.5zm35.6-26.3c0-3.9.9-8.7-2.1-11.2-.7-.6-1.4-.9-2.3-1.2.7 2.5.3 5.6.3 8.4 0 5.7 2.3 12-1 16.7-2 2.8-5.6 4.1-8.9 5.2-4 1.3-8.1 2.6-12.1 3.9-1.6.5-3.3 1.1-5 .6-.2 0-.3-.1-.4-.2 1.1 1.8 2.4 3.7 4.5 4.2 1.6.4 3.4-.1 5-.6 4-1.3 8.1-2.6 12.1-3.9 3.3-1.1 6.9-2.3 8.9-5.2 3.3-4.7 1-11 1-16.7zm1.7 24.1c-.5-2.8-2.1-3.3-3.9-2.8.4 6 .7 29.1-.3 38.3-.2 1.8-.1 3.9-1.5 5.2-1.3 1.2-3.4 1.1-4.9.3 1.1 1.5 2.2 3 3.8 3.9s3.8 1 5.2-.2 1.3-3.3 1.5-5.2c1.1-10 .6-36.9.1-39.5zm.4 77.9c-.2-7.5-.2-15-.6-22.4-.1-3.2-1.2-3.7-4.1-4.6v.6c.3 7.5.4 15 .6 22.4 0 1.9.1 4-.9 5.7-1.2 2.2-3.7 3.2-6.1 3.9-9.5 2.9-20.6 3.1-28.7-2.4.5 1 1.3 1.8 2.1 2.6 8.1 7 20.3 7 30.6 3.9 2.4-.7 4.9-1.7 6.1-3.9 1.1-1.8 1-3.8 1-5.8zm.1 16c-.4-2.8-.9-3-3.8-2.8h-.1c.2 2.6.1 5.4.1 8 0 2.3-.8 21.3-1.2 31.1-.1 3-2.7 5.2-5.6 4.9-2.8-.2-5.5-.3-8.3-.7-3-.4-6-1.3-8.6-2.8l.6.9c2.7 3.7 7.5 5.3 12.1 6 2.7.4 5.5.5 8.3.7 2.9.3 5.5-1.9 5.6-4.9.4-9.8 1.2-28.8 1.2-31.1-.1-3 .1-6.3-.3-9.3zM60.6 46c-.6-2.5-2.5-4.4-4.7-5.7.3.5.5 1.1.7 1.7.6 2.5-.3 5.1-1.1 7.5-1 3-2.1 6-3.1 8.9-1.5 4.4-3.1 8.8-6 12.5-3.8 4.8-9.8 7.9-15.9 8.2-3.1.1-7.9-.6-11.4-2.5 2 4.9 10.7 6.7 15.4 6.5 6.1-.3 12.1-3.3 15.9-8.2 2.9-3.7 4.4-8.1 6-12.5 1-3 2.1-6 3.1-8.9.9-2.4 1.7-5 1.1-7.5zm44.7 22.1c-.5-4.4-2.2-8.5-4.4-12.3-2.1-3.7-4.9-7.1-8.1-9.8 1.5 1.8 2.9 3.8 4.1 5.8 2.2 3.8 3.9 7.9 4.4 12.3s-.4 9-3.1 12.5c-2.1 2.8-5.1 4.8-8.2 6.3-3.9 2-8.2 3.6-12.5 3.7-7.7.4-16.2-3.7-22.5-8.7.2.5.6.9 1 1.3 6.3 6.2 16.5 11.9 25.5 11.5 4.4-.2 8.6-1.7 12.5-3.7 3.1-1.6 6.1-3.6 8.2-6.3 2.7-3.6 3.6-8.2 3.1-12.6zm56.9 9.3c-4.2-8.1-9.1-15.9-14.8-23.1-.8-1.1-1.8-2.2-3-2.7 5.2 6.9 9.8 14.1 13.7 21.8 1.3 2.5 2.5 5.5 1.1 7.9-.7 1.3-2 2.1-3.3 2.9-8.1 4.9-16.1 9.9-24.2 14.8-1.8 1.1-3.8 2.2-5.9 1.9-.4-.1-.9-.2-1.2-.4 1.4 2 2.9 4.1 5.3 4.4 2.1.3 4.1-.8 5.9-1.9 8.1-4.9 16.1-9.9 24.2-14.8 1.3-.8 2.6-1.6 3.3-2.9 1.4-2.4.2-5.4-1.1-7.9zm-53.6 5.9c-.1 0-.1 0 0 0 0 .1 0 .2.1.2.8 1.9 2.4 2.6 4 3.8l3 2.4c-2.3-2.3-4.6-4.5-7.1-6.4zm15.6 23.6c-3.9-4.5-7.9-9-11.8-13.5-1-1.2-2.1-2.3-3.4-3.3 3.8 4.2 7.5 8.5 11.2 12.7 1.8 2.1 3.7 4.6 3.1 7.3-.6 2.7-3.4 4.2-5.9 5.5-5.8 3.1-11.1 7.3-15.5 12.3-2.2 2.5-4.3 5.3-7 7.2-4.1 2.8-9.6 3.5-14.2 1.6-1-.4-2-.9-2.9-1.5 1.6 2.5 4.2 4.5 6.9 5.6 4.6 1.8 10.1 1.2 14.2-1.6 2.8-1.9 4.8-4.7 7-7.2 4.4-5 9.6-9.2 15.5-12.3 2.4-1.3 5.3-2.8 5.9-5.5.6-2.7-1.3-5.3-3.1-7.3zm21.9 52.3c-.2-3.6-.3-7.3-.5-10.9-.3-6.8-.7-13.8-4-19.7-1.3-2.3-3.1-4.4-5.3-6 .5.6.9 1.3 1.2 1.9 3.3 5.9 3.6 13 4 19.7.2 3.6.3 7.3.5 10.9.1 1.9.2 3.9-.6 5.6-.9 2.3-3.1 3.8-5.4 4.7-4.9 1.8-10.6.7-15.2-1.8-3.2-1.7-6-4-8.6-6.6l.6.6c3.7 3.8 7.5 7.5 12.1 10s10.3 3.6 15.2 1.8c2.3-.8 4.4-2.4 5.4-4.7.8-1.6.7-3.6.6-5.5zM72.6 94.4c-1.2-1.4-2.4-2.6-3.8-3.7 3.1 3.7 5.2 8.3 5.3 13.1.1 5.1-2 10-4.1 14.6-1 2.2-2.1 4.5-4.2 5.8-2.6 1.6-5.8 1-8.8.4-5.2-1.1-10.3-2.1-15.5-3.2-1.7-.4-3.5-.7-5.2-1.4.3.8.8 1.6 1.4 2.3 2 2.1 5.2 2.5 7.8 3.1 5.1 1.1 10.3 2.1 15.5 3.2 2.9.6 6.2 1.2 8.8-.4 2.1-1.3 3.2-3.6 4.2-5.8 2.1-4.7 4.2-9.5 4.1-14.6-.1-5-2.4-9.7-5.5-13.4zm-39.8 24.3c-.8-6.7-1.5-13.3-2.3-20-.4-3.5-.8-7.1-2.5-10.2-1.1-2-2.7-3.6-4.6-4.9.2.3.3.5.5.8 1.7 3.1 2.1 6.7 2.5 10.2.8 6.7 1.5 13.3 2.3 20 .3 2.2.5 4.6-.2 6.7-1 2.9-3.7 4.9-6.3 6.7-2.7 1.9-5.6 3.9-9 4.2-3.3.2-6.4-1.4-9.4-2.9-.6-.3-1.3-.7-1.9-1 0 .1.1.1.1.2 1.1 2.3 3.6 3.7 5.8 4.9 2.9 1.5 6.1 3.1 9.4 2.9 3.3-.2 6.3-2.2 9-4.2 2.5-1.8 5.2-3.8 6.3-6.7.8-2.2.6-4.5.3-6.7zm85.7 48.5-3.2-3c.6 1.1.8 2.3.3 3.5-1.8 5-6.9 5-9 5.4-7.7 1.3-15.5 1.7-23.3 1.4-2.8-.1-7.6.1-11-1.1 1.3 5.7 10.7 4.9 15.1 5.1 7.8.3 15.6-.1 23.3-1.4 2-.3 7.1-.4 9-5.4.6-1.5.1-3.3-1.2-4.5zm-43.6-30c-1-1.3-2-2.6-3.4-3.4-.1 0-.1-.1-.2-.1 2 2.6 3.9 5.4 3.9 8.6 0 2.9-1.5 5.5-3 8-3.6 6-7.2 12-10.8 18.1-1.8 3.1-2.9 3.2-6.4 3.9-3.1.7-6.3 1.2-9.5 1.4-4.8.2-9.9-.6-14-3.1-.6-.3-1.1-.7-1.6-1.1 1.6 2 3.5 3.8 5.7 5.1 4.2 2.5 9.2 3.3 14 3.1 3.2-.1 6.4-.7 9.5-1.4 3.5-.7 4.5-.9 6.4-3.9 3.6-6 7.2-12 10.8-18.1 1.5-2.5 3-5.1 3-8-.1-3.4-2.3-6.4-4.4-9.1zm-52 29.1c-.4-3.2-.9-6.4-1.3-9.5-.9-7-2.3-14.7-8-18.8-.2-.1-.3-.2-.5-.3 2.8 4.2 3.8 9.9 4.5 15.1.4 3.2.9 6.4 1.3 9.5.2 1.3.3 2.7-.3 3.9-.6 1.2-2 1.9-3.2 2.5-3 1.4-6.1 2.9-9.1 4.3-1.3.6-2.9 1.2-4.4 1.3.1 1.2.4 2.3 1.3 3.1 1.9 1.7 4.8.7 7.1-.4 3-1.4 6.1-2.9 9.1-4.3 1.2-.6 2.6-1.3 3.2-2.5.6-1.2.5-2.6.3-3.9zM15.8 45.7c-.2-2.8-.4-5.8-2.1-8-.8-1.1-1.9-1.9-3.1-2.4.8 2 1 4.2 1.2 6.4.7 9.5 1.3 19.2-1.6 28.3-.8 2.7-2.1 5.4-4.3 7-1.3 1-2.7 1.4-4 1.3.3 1 .7 1.9 1.4 2.6 1.9 2 4.4 1.8 6.7.1s3.5-4.4 4.3-7c2.8-9.1 2.2-18.9 1.5-28.3zm131.9 129.6c-.5-.8-1.3-1.2-2.2-1.6-.5-.2-1.1-.5-1.6-.7-.1.3-.2.5-.4.7-.5.4-1.1.5-1.7.6-4.7.5-9.5.7-14.3.6-.8 0-2.6 0-4.3-.1-.2.2-.5.5-.6.7-2.3 3.9 6.9 3.3 9 3.4 4.8.2 9.5 0 14.3-.6.6-.1 1.3-.2 1.7-.6.6-.5.6-1.7.1-2.4zm-113.9.2c-1.3-.8-2.6-1.3-4-1.7-.2.1-.4.2-.7.2-3 .1-6.1.3-9.2.3-3.7 1.2-7 3.1-1.9 3.7 4.9.6 10.1.3 15.1.1 1.4-.1 1.9-1.9.7-2.6zM7.4 22.7C4.7 15 7.5 6.6 4 5.6c-1.1-.3-1.7.3-2 1.5.1 3.3 0 7.5 1.4 11.6.6 2.2 2.1 4.5 1.7 6.7-.3 1.9-1.5 3.8-3.3 4.5.1 1.4.2 2.5.4 3.2.3 1 1.7 1.3 2.7 1.1 2.3-.3 3.9-2.5 4.2-4.8.4-2.2-1.2-4.5-1.7-6.7z" style="opacity:.2;enable-background:new"/></svg>