<svg xmlns="http://www.w3.org/2000/svg" width="90" height="90" style="enable-background:new 0 0 90 90" xml:space="preserve"><path style="fill:none" d="M0 0h90v90H0z"/><circle cx="45" cy="45" r="45" style="fill:#414042"/><circle cx="45" cy="45" r="41.5" style="fill:#ebe8ce"/><path d="M66.2 32.4C57.3 32.4 50 41 50 51.7h-3.4c0-4 .4-7.6 2-10.9 3.5-7.6 4.8-11.4 4.8-15.5 0-8.5-8.3-15.3-8.3-15.3s-8.3 6.9-8.3 15.3c0 4 1.3 7.8 4.8 15.5 1.5 3.3 2 6.9 2 10.9h-3.4c0-10.6-7.2-19.3-16.2-19.3-6.8 0-12.3 4.7-12.3 10.5S17.2 53.4 24 53.4c1.7 0 3.3-.3 4.8-.8-.4-.3-.8-.6-1.2-1-2.6-2.6-3.3-6-1.5-7.7 1.7-1.7 5.2-1 7.7 1.5 1.6 1.6 2.4 3.8 2.7 6.3h-.1c-.5 0-.9.4-.9.9v1.3c0 .5.4.9.9.9h.3v.2c0 1.6-.1 3-.4 4.3-.2 1.2-.4 2.2-.8 3-.4 1.1-.9 2-1.8 2.3-1.1.4-2.2.2-2.9-.5-1-1-.9-2.8.2-4.3-2.6.6-4.6 2.8-4.6 5.5 0 3.1 2.7 5.6 5.9 5.6 6 0 7.6-7 7.8-16.2h3.4c-.1 5.1-.5 11.8-3.7 15.6 0 5.3 5.3 9.6 5.3 9.6s5.3-4.3 5.3-9.6c-3.1-3.8-3.6-10.5-3.7-15.6h3.4c.3 9.2 1.9 16.2 7.8 16.2 3.3 0 5.9-2.5 5.9-5.6 0-2.7-1.9-4.9-4.6-5.5 1 1.5 1.1 3.3.2 4.3-.7.7-1.8.9-2.9.5-.9-.3-1.4-1.2-1.8-2.3-.4-.8-.6-1.9-.8-3-.2-1.2-.4-2.7-.4-4.3v-.2h.3c.5 0 .9-.4.9-.9v-1.3c0-.5-.4-.9-.9-.9h-.1c.3-2.5 1.1-4.7 2.7-6.3 2.6-2.6 6-3.3 7.7-1.5 1.7 1.7 1 5.2-1.5 7.7-.4.4-.8.7-1.2 1 1.5.5 3.1.8 4.8.8 6.8 0 12.3-4.7 12.3-10.5-.1-5.8-5.6-10.5-12.3-10.5z" style="fill:#414042"/></svg>