<svg version="1.1" id="Layer_1" xmlns="http://www.w3.org/2000/svg" x="0" y="0" viewBox="0 0 180 180" style="enable-background:new 0 0 180 180" xml:space="preserve"><style>.st0,.st1{fill:#040000;stroke:#040000;stroke-miterlimit:10}.st1{stroke-width:4}.st2{fill:#fff}.st3{fill:#040000}</style><path class="st0" d="M75.3 146.1c-3.4 0-7.6-.1-12.5-.4l.2-3.7c7.5.6 15 .6 22.5 0l.4 3.7c-.2 0-4 .4-10.6.4z"/><path class="st1" d="M62 141.1c-4.9-.6-9.7-1.7-14.4-3.3l8.9-22.1-2.2-1.3c-8.8-5-10.9-7.2-12.7-10.8-2.2-4-3.3-8.5-3.1-13 0-8.1 3.8-15.8 10.4-20.6 7.3-5.6 14.5-11.3 21.6-19.5l1.3-1.4.8-1.1-2.5-1.9-.8 1-1.2 1.4c-7 8-14 13.6-21.2 19.1-7.2 5.4-11.5 13.9-11.5 22.9-.2 5.1 1 10.1 3.5 14.5 2 4.1 4.5 6.6 13.9 12l-9.1 22.6 1.4.5c5.3 1.9 10.7 3.2 16.3 3.9l.6-2.9zm40.1-1 1.5-.5-9.1-22.6c9-5.3 11.5-7.7 13.9-11.9 2.4-4.5 3.5-9.5 3.4-14.6-.3-6.7-2.4-16-11.5-22.9-8-5.9-14.7-11.4-21.2-19.1l-1.2-1.4-.7-1-2.4 1.7.8 1.1 1.3 1.5c6.7 7.9 13.5 13.5 21.6 19.5 8.1 6.2 10.1 14.6 10.3 20.6.1 4.5-.9 9-3 13.1-2.1 3.7-4.3 5.9-12.8 10.8l-2.2 1.3 8.9 22.1c-4.7 1.5-9.4 2.6-14.3 3.3l.4 2.7.6.2c5.4-.9 10.6-2.2 15.7-3.9z"/><path class="st2" d="m83.5 143 2.5-.3c5.6-.8 11-2.1 16.3-3.9l-9.1-22.5 1.1-.7c8.8-5.1 11.2-7.5 13.4-11.5 2.3-4.3 3.4-9.1 3.3-14-.2-6.4-2.3-15.4-11-22-8.2-6-15-11.6-21.7-19.5l-1.2-1.4-.7-1.1h-4.7l-.8 1.1-1.3 1.5C62.5 56.9 55.4 62.5 48 68.1c-7 5.2-11.1 13.3-11.1 22-.2 4.9.9 9.7 3.3 13.9 2 3.9 4.3 6.2 13.4 11.5l1.1.7-9.1 22.6c5.3 1.9 10.8 3.2 16.4 3.9l2.7.3h18.8z"/><path class="st3" d="M101.8 140.2c-5.2-1.9-10.5-3.3-15.9-4.2l-2.6-.4c-6.1-.6-12.2-.7-18.4-.4l-2.6.2c-5.5.6-10.9 1.7-16.1 3.4l-.9-2.9c5.4-1.8 11.1-3 16.8-3.6l2.7-.2c6.3-.3 12.7-.2 19 .4l2.6.4c5.6.9 11.2 2.4 16.5 4.4l-1.1 2.9zm-7.5-21.5c-6.7-1.6-13.5-2.3-20.3-2.2-6.8-.1-13.7.6-20.3 2.2l-.8-3.1c6.9-1.7 14.1-2.4 21.2-2.3 7.1-.1 14.3.7 21.2 2.3l-1 3.1z"/><circle class="st2" cx="74.1" cy="36.4" r="10"/><path class="st3" d="M74.1 47.9c-6.4 0-11.5-5.1-11.5-11.5s5.2-11.5 11.5-11.5c6.4 0 11.5 5.1 11.5 11.5s-5.1 11.5-11.5 11.5zm0-20c-4.7 0-8.5 3.8-8.5 8.5s3.8 8.5 8.5 8.5 8.5-3.8 8.5-8.5-3.8-8.5-8.5-8.5zm-3.2 68.5v-7.1l-7.3-.1c-1.4.2-2.8-.8-3-2.2v-.8c-.2-1.4.8-2.8 2.2-3h8.1v-7.7c0-2 1.1-3.1 3.2-3.1 1.5-.2 2.9.9 3.1 2.4v8.3h7.6c2 0 2.9 1 2.9 3s-1 3-2.9 3h-7.6v7.3c0 2.1-1.1 3.2-3.1 3.2-1.6.2-3-.9-3.2-2.4v-.8z"/><path class="st0" d="M108.3 155.1c-3.5 0-7.6-.2-12.5-.5l.3-3.6c7.4.6 15 .6 22.5 0l.3 3.6c-.1.2-3.9.5-10.6.5z"/><path class="st1" d="M95.2 150.2c-4.9-.6-9.7-1.7-14.4-3.3l8.9-22.2-2.2-1.3c-8.7-5.1-10.9-7.3-12.7-10.8-2.2-4-3.3-8.4-3.2-13 0-8.1 3.8-15.7 10.4-20.6 7.9-5.7 15-12.2 21.5-19.5l1.3-1.4.8-1.1-2.4-1.7-.8.9-1.3 1.4C94.9 64.9 87.8 71.2 80 76.9c-7.3 5.4-11.6 13.9-11.6 22.9-.2 5.1.9 10.1 3.5 14.4 2.1 4.1 4.4 6.5 13.8 12l-9.2 22.6 1.4.5c5.2 1.9 10.8 3.2 16.3 4l1-3.1zm40-1.1 1.4-.5-9.2-22.6c9-5.2 11.4-7.8 13.8-11.9 2.4-4.4 3.5-9.5 3.3-14.6-.2-9-4.3-17.4-11.6-22.8-7.8-5.4-14.9-11.9-21.2-19l-1.1-1.4-.6-.9-2.5 1.7.8 1.1 1.3 1.6c6.3 7.3 13.6 13.8 21.5 19.5 6.3 4.9 10.1 12.5 10.3 20.6.2 4.6-.9 9-3 13.1-2.1 3.6-4.3 5.9-12.7 10.8l-2.2 1.3 8.9 22c-4.6 1.6-9.3 2.7-14.2 3.3l.3 2.7.6.3c5.9-1.2 11.1-2.6 16.1-4.3z"/><path class="st2" d="m116.7 152.1 2.5-.3c5.5-.8 11.1-2.1 16.3-4l-9-22.5 1.1-.6c8.9-5.1 11.1-7.4 13.4-11.4 2.2-4.3 3.3-9.2 3.3-13.9-.2-8.5-4.1-16.8-10.9-22-8.1-5.5-15.3-12.2-21.7-19.5l-1.3-1.4-.8-1.1H105l-.8 1.1-1.3 1.4c-6.5 7.3-13.8 13.8-21.7 19.5-7 5.2-11.1 13.3-11.1 22-.2 4.9.9 9.7 3.3 13.9 1.9 4 4.3 6.2 13.4 11.4l1.1.6-9.3 22.5c5.2 1.9 10.8 3.2 16.3 4l2.7.3h19.1z"/><path class="st3" d="M134.9 149.2c-5.1-1.9-10.4-3.3-15.8-4.3l-2.5-.3c-6.2-.6-12.2-.8-18.4-.5l-2.5.2c-5.5.5-10.9 1.7-16.1 3.5l-.9-2.8c5.4-1.7 11.1-3 16.8-3.6l2.7-.3c6.3-.3 12.7-.2 19 .5l2.5.3c5.7.9 11.1 2.4 16.5 4.4l-1.3 2.9zm-7.4-21.5c-6.6-1.6-13.4-2.4-20.3-2.2-6.8-.2-13.6.6-20.3 2.2l-.8-3.2c7-1.6 14.1-2.4 21.2-2.4 7.1-.2 14.2.6 21.2 2.4l-1 3.2z"/><circle class="st2" cx="107.2" cy="45.6" r="10"/><path class="st3" d="M107.2 57c-6.3 0-11.6-5.2-11.6-11.6s5.2-11.6 11.6-11.6c6.3 0 11.6 5.2 11.6 11.6 0 6.5-5.2 11.6-11.6 11.6zm0-20c-4.7 0-8.5 3.8-8.4 8.5 0 4.7 3.8 8.5 8.5 8.4 4.7 0 8.4-3.8 8.4-8.5.1-4.6-3.7-8.4-8.5-8.4.2 0 0 0 0 0zm-3.1 68.6v-7.1h-7.3c-1.6-.2-2.8-1.6-2.8-3.2.2-1.4 1.3-2.7 2.8-2.8h7.3v-7.8c-.2-1.6.9-2.8 2.5-3.2h.6c1.6-.2 2.8.8 3 2.4v8.2h7.6c1.4-.2 2.7.8 3 2.2v.8c.2 1.4-.8 2.8-2.2 3h-8.4v7.3c.2 1.6-.8 3-2.4 3.2h-.8c-1.6.2-3-.9-3.2-2.4.3-.2.3-.5.3-.6z"/></svg>