<svg xmlns="http://www.w3.org/2000/svg" viewBox="0 0 180 180" style="enable-background:new 0 0 180 180" xml:space="preserve"><path style="fill:#fff" d="M62.1 45.7V86l-14 13.9v17.7H35.6v16.5h108.5v-16.5h-12.5V99.9L117.7 86V45.7"/><path style="fill:#040000" d="M133.2 116.4V99.7l-13.8-14V46.9l-3-1.8v41.7l13.8 14v18.5h12.6v13.6H37.2v-13.5h12.5v-18.5l14-14V45.2l-.2-.1-2.8 1.4.1.1v39l-14 14v16.7H34.2v19.6h111.6v-19.5z"/><path style="fill:#040000" d="M62.1 44.2h55.7v3H62.1zm0 40.3h55.7v3H62.1zm-14 13.9h83.5v3H48.1zm0 17.7h83.5v3H48.1z"/></svg>