<svg xmlns="http://www.w3.org/2000/svg" viewBox="0 0 180 180" style="enable-background:new 0 0 180 180" xml:space="preserve"><path style="fill:none" d="M0 0h180v180H0z"/><path d="m134.5 161.3.9-2.3 28.4-72.4-21.5-8.7-1.1-.5-.2-1.2c-1.9-11.3-8.1-21.3-17.4-27.9-15.9-11.4-22.7-16.5-32.7-28.6l-.2-.3-.2.3c-10 12.1-16.9 17.2-32.7 28.6-9.3 6.6-15.6 16.7-17.4 27.9l-.2 1.2-1.1.5-21.5 8.7L46 159l.9 2.3h87.6z" style="fill:#fff"/><path d="m164.3 85.3-20.8-8.5-.6-.3-.4-.1-.1-.4c-1.9-11.7-8.3-22-18-28.9-15.8-11.3-22.5-16.4-32.5-28.4l-.2-.3c-.3-.3-.7-.5-1.1-.5-.5 0-.9.2-1.2.5l-.3.3c-9.9 12-16.7 17-32.4 28.4C47 54 40.6 64.3 38.7 76l-.1.4-21.8 8.9c-.8.3-1.1 1.2-.8 1.9l28.4 72.4.9 2.3c.2.6.8.9 1.4.9h87.9c.6 0 1.2-.4 1.4-.9l29.3-74.7c.2-.8-.2-1.6-1-1.9zM41.4 77.7l.2-1.3c1.8-10.9 7.8-20.5 16.8-26.9 15.5-11.1 22.5-16.3 32.1-27.8 9.7 11.5 16.6 16.7 32.1 27.8 9 6.4 15 16 16.8 27l.2 1.2c.1.5.4.9.9 1.1-8.6 11.4-18 22.3-27.9 32.5-5.4 5.6-13 13-22 20.4l-1.4-1.1c-7-5.9-13.9-12.4-20.7-19.4-9.9-10.2-19.3-21.1-27.9-32.5.4-.1.8-.5.8-1zm46.2 56.5-1.2.9-1.2.9-1.2.9c-.5.3-.9.7-1.4 1-.3.2-.6.5-1 .7l-2.4 1.8-.7.5c-.9.7-1.8 1.3-2.8 1.9-.6.4-1.3.9-1.9 1.3-.7.5-1.5 1-2.2 1.5-1 .7-2 1.3-3 1.9l-.5.3c-.4.2-.7.5-1.1.7-1.3.8-2.6 1.6-3.9 2.3-.5.3-.9.5-1.4.8l-.6.3c-4.4 2.4-8.6 4.5-12.5 6.1l-1.5.6-28-71.4 18.4-7.5.3.4c8.7 11.5 18.3 22.6 28.3 33 6.8 7 13.9 13.6 21 19.6l.9.7c0 .5-.2.6-.4.8zm46.4 24.3-.5 1.3H52.8s.1 0 .1-.1c.2-.1.3-.2.5-.2.8-.4 1.6-.7 2.4-1.1.3-.2.6-.3.9-.5.7-.3 1.4-.7 2.1-1.1.3-.2.6-.3.9-.5 1-.5 2-1.1 3-1.6l.6-.3c.5-.3 1-.5 1.4-.8 1.3-.8 2.7-1.6 4-2.4.4-.2.7-.4 1.1-.7l.5-.3c1-.6 2.1-1.3 3.1-2 .8-.5 1.5-1 2.3-1.5.6-.4 1.3-.9 1.9-1.3.9-.7 1.9-1.3 2.8-2l.7-.5c.9-.6 1.7-1.3 2.6-1.9 1.8-1.3 3.5-2.7 5.2-4 .2-.1.3-.3.5-.4.7-.5 1.3-1.1 2-1.6l.2-.2c9.5-7.8 17.5-15.6 23.2-21.4 10.1-10.4 19.6-21.5 28.4-33l.3-.4 18.4 7.5-27.9 71z"/></svg>