<svg xmlns="http://www.w3.org/2000/svg" viewBox="0 0 180 180" style="enable-background:new 0 0 180 180" xml:space="preserve"><path d="M62 29.2c-6.2-5.3-13.2-9.5-20.8-12.4-.3 8.2 1 16.5 3.8 24.2l.3.9-.7.7c-.8.8-1.6 1.7-2.4 2.5l-.2.5c-.4.5-.8.9-1.2 1.3-.9 1.1-1.8 2.2-2.5 3.4-.2.4-.8 1.4-1.7 2.6-1.7 2.6-2.6 6.7-2.6 11.8v.2c-.5 5.2-5.2 13.3-11.5 23.3-5.3 8.4-9.4 13.6-9.4 18.2 0 3.2.4 6.4 1.4 9.4 1.6 5.6 7 10.3 13.2 12.7l4.9-2.7s4.6 3.8 9.1 3.8 10.7-8.4 11.9-10.7c0 0 1-6 4.7-9.8 4.2-4.3 10.2-5 18.1-7.9 7.5-2 12.7-9.5 12.7-9.5.2 5.3-.4 10.6-2 15.7-2.7 7.3-9.2 13.8-15.5 20.1l-3.6 3.6c-4.4 4.5-6 7-6.6 8.1-4.4 7.9-5.7 12.9-6 15.2-.5 3.2-.7 6.4-.4 9.7h107.9V146c0-15.5-.6-35.4-5.4-52.7-3.9-13.6-11.1-27.6-19.3-37.2-11.5-13.6-30.9-21.9-45.5-22.7-3.5-.2-7-.2-10.5 0-1.2-3-3.3-9.9-11.3-15.4C67 20.9 64 24.8 62 29.2z" style="fill:#fff"/><path d="M164.4 165.5H53.6l-.2-1.3c-.3-3.4-.1-6.8.4-10.2.4-2.3 1.7-7.6 6.2-15.7.7-1.4 2.5-4 6.8-8.4l3.6-3.6c6.2-6.2 12.6-12.6 15.1-19.5 1.1-3.5 1.7-7.2 1.9-10.8-2.9 3.1-6.6 5.4-10.6 6.7-2.2.8-4.3 1.4-6.1 2-4.8 1.5-8.5 2.6-11.3 5.5-3.3 3.4-4.3 8.9-4.3 9v.3l-.1.2c-.8 1.5-7.4 11.5-13.3 11.5-3.8 0-7.6-2.3-9.3-3.5l-4.7 2.6-.7-.3c-7-2.7-12.5-8-14.2-13.7-1-3.2-1.5-6.5-1.5-9.9 0-4.2 2.8-8.4 6.7-14.3.9-1.5 2-3 3-4.7 5.5-8.6 10.8-17.5 11.2-22.6v-.1c0-5.2 1-9.6 2.8-12.6.8-1.2 1.4-2.1 1.6-2.5.9-1.3 1.8-2.5 2.9-3.6.4-.4.7-.8 1.2-1.3l.3-.3c.8-.9 1.6-1.8 2.4-2.6-2.9-8-4.3-16.4-4-24.9l.1-2.2 2.1.8c7.1 2.7 13.8 6.6 19.7 11.4 2.1-3.9 5-7.3 8.5-10l.9-.7.9.6c5.4 3.6 9.4 8.9 11.5 15 3.1-.1 6.3-.1 9.4.1 13.6.7 34 8.3 46.6 23.3 8.3 9.8 15.7 23.9 19.6 37.7 4.9 17.5 5.5 37.6 5.5 53.2l.2 19.4zm-108-3.1h104.8V146c0-15.4-.6-35.2-5.4-52.3C152 80.2 145 66.5 137 57c-12-14.3-31.4-21.5-44.4-22.1-3.4-.2-6.8-.2-10.3 0l-1.1.1-.7-1.8c-1.7-5.3-5.1-9.9-9.5-13.3-3.2 2.7-5.8 6.1-7.5 9.9l-.9 1.9-1.6-1.3c-5.4-4.8-11.6-8.6-18.3-11.4 0 7.3 1.3 14.6 3.8 21.4l.7 1.9-1.4 1.4c-.8.8-1.5 1.6-2.3 2.4l-.3.4c-.5.6-.9 1-1.3 1.4-.8 1-1.6 2-2.3 3.1-.3.5-.9 1.4-1.7 2.7-1.5 2.3-2.3 6.2-2.3 10.9v.2c-.5 5.3-4.7 12.8-11.8 24.1-1 1.7-2.1 3.3-3.1 4.7-3.6 5.5-6.2 9.4-6.2 12.6 0 3 .4 6 1.3 8.9 1.4 4.6 5.9 9.1 11.6 11.5l5.2-2.9.8.7s4.3 3.4 8.1 3.4c3.3 0 8.9-7 10.4-9.6.3-1.3 1.5-6.7 5.1-10.4 3.3-3.4 7.7-4.7 12.7-6.3 1.9-.6 3.9-1.2 6.1-2h.2c6.8-1.9 11.7-8.8 11.8-8.9l2.5-3.5.3 4.4c.2 5.5-.5 11-2.1 16.3-2.8 7.6-9.4 14.3-15.8 20.7l-3.6 3.6c-4.4 4.5-5.9 6.9-6.3 7.7-4.3 7.7-5.5 12.6-5.9 14.7-.5 2.6-.6 5.2-.5 7.9z" style="fill:#040000"/><path d="M32.5 127.2c-.9 0-1.6-.7-1.6-1.6 0-.5.3-1.1.8-1.3 3.7-2.4 7.1-5.4 9.9-8.8.6-.7 1.6-.8 2.2-.2.7.6.8 1.6.2 2.2-3.1 3.7-6.7 6.9-10.7 9.5-.2.2-.5.3-.8.2zm56.5-34c-.9 0-1.6-.7-1.6-1.6 0-.3.1-.5.2-.8 1.9-3.7 3-7.8 3.2-12 0-.9.8-1.5 1.6-1.5h.1c.9.1 1.5.8 1.4 1.7-.3 4.6-1.5 9.2-3.6 13.3-.2.6-.7.9-1.3.9zm-64.3 17c-1.2 0-2.1-.9-2.1-2.1 0-.4.1-.7.3-1 1.4-2.2 4.5-5.8 7.3-4.9.9.3 2.4 1.2 2.2 4.2 0 .9-.6 1.6-1.4 1.9l-5.6 1.8c-.2.1-.5.1-.7.1z" style="fill:#040000"/><circle cx="53.6" cy="62.6" r="5" style="fill:#040000"/><path d="M59.6 39.8c-.9 0-1.6-.7-1.6-1.6.2-3.4 1.1-6.7 2.6-9.7.3-.8 1.2-1.3 2-1 .8.3 1.3 1.2 1 2v.1c0 .1-.1.1-.1.2-1.3 2.6-2.1 5.5-2.3 8.4 0 .9-.7 1.6-1.6 1.6zm24.7 5.8c-.8 0-1.4-.5-1.5-1.3-.7-3.8-1.7-9.6-2.1-10.4-.3-.8.2-1.8 1.1-2 .8-.2 1.6.1 2 .9.6 1.5 1.9 9.4 2.2 11 .1.9-.4 1.7-1.3 1.8h-.4zM47.5 68.5c-.3 0-.6-.1-.8-.2-1.1-.5-1.5-1.7-1-2.8 2.6-5.7 7.2-10.3 12.9-12.9 1.1-.4 2.3.1 2.7 1.2.4 1 0 2.2-1 2.6l-.2.1c-4.7 2.2-8.5 6-10.7 10.7-.3.8-1.1 1.3-1.9 1.3z" style="fill:#040000"/><path d="M125 39.2c-2.2-5.5-5.4-10.6-9.4-15.1-3 5.4-4.9 11.3-5.6 17.4l-.1.7-.7.2-2.4.9-.3.1c-.4.2-.8.4-1.2.5-1 .4-1.9.9-2.8 1.4-.3.2-1 .6-2 1.2-2 1.2-3.9 3.6-5.6 7v.1c-2.2 3.5-7.9 7.4-15.3 12-6.3 3.8-10.7 6-12.2 9-1.1 2.1-1.8 4.4-2.2 6.7-.8 4.2 1.1 9.2 4.4 12.8l4.1-.2s1.8 4 4.7 5.5c2.9 1.5 9.7-2.1 11.3-3.2 1.7-2.2 3.8-3.9 6.4-5 4.2-1.5 8.3 0 14.5.7 5.5 1 11.4-2.2 11.4-2.2-1.6 3.6-3.8 6.9-6.5 9.8-4.2 4-10.6 6.2-16.8 8.3l-3.6 1.2c-2.5.8-4.8 1.9-7 3.2-5.5 3.8-8 6.8-9 8.2-1.4 1.9-2.6 4.1-3.5 6.3l70.5 35.2 6-12c5.1-10.3 11.4-23.8 14-36.9 2-10.3 1.9-22-.2-31-3-12.8-13-24.7-22.2-30-2.2-1.3-4.5-2.4-6.9-3.4.8-4.8 0-9.7-2.3-13.9-3.5.7-6.8 2.3-9.5 4.5z" style="fill:#fff"/><path d="M166.9 81.7c-3.3-14.1-14-25.8-22.7-30.7-2-1.2-4-2.2-6.1-3.1.7-4.7-.2-9.6-2.6-13.7l-.4-.8-.8.2c-3.2.7-6.2 2-8.8 3.9-2.2-5.1-5.3-9.9-9.1-14l-1.1-1.2-.8 1.4c-3 5.5-4.9 11.6-5.7 17.9-.8.3-1.7.6-2.5.9l-.3.1c-.5.2-.8.4-1.2.5-1 .4-2.1.9-3.1 1.5-.3.2-1 .6-1.9 1.2-2.2 1.4-4.3 4-6 7.5-2 3.3-8.5 7.5-14.9 11.4-1.3.8-2.5 1.5-3.6 2.1-4.5 2.7-7.7 4.6-9.1 7.3-1.1 2.2-1.9 4.6-2.3 7-.8 4.4 1 9.7 4.7 13.8l.3.4 4-.2c.7 1.3 2.4 4.1 4.9 5.4 3.8 1.9 11.5-2.6 12.5-3.4l.1-.1.1-.2c1.5-2 3.5-3.6 5.8-4.6 2.8-1 5.6-.5 9.2.1 1.4.2 3 .5 4.7.7 3.1.5 6.3.1 9.2-1-1.3 2.4-2.9 4.6-4.8 6.6-4 3.8-10.3 6-16.4 8.1l-3.6 1.2c-2.6.8-5 1.9-7.2 3.4-5.7 4-8.3 7.1-9.3 8.5-1.5 2.1-2.7 4.3-3.7 6.7l-.3.8 3-1H77c.8-1.8 1.8-3.5 2.9-5 .9-1.3 3.3-4.2 8.7-7.9 2.1-1.3 4.3-2.4 6.7-3.1l3.6-1.2c6.3-2.2 12.9-4.4 17.2-8.6 2.8-3 5.1-6.4 6.8-10.2l1.2-3-2.8 1.6c-.1 0-5.6 3.1-10.7 2.1h-.1c-1.7-.2-3.1-.4-4.6-.6-3.8-.6-7-1.1-10.4 0-2.7 1.1-5 2.9-6.8 5.2-1.8 1.2-7.8 4-10 3-2.5-1.3-4.2-4.9-4.2-4.9l-.3-.7-4.3.2c-3-3.5-4.4-7.9-3.8-11.4.4-2.2 1.1-4.3 2.1-6.3 1-2.1 4.1-3.9 8.2-6.4 1.1-.7 2.3-1.4 3.6-2.2 8.4-5.2 13.6-8.8 15.7-12.2l.1-.1c1.6-3.1 3.4-5.4 5.1-6.5 1-.5 1.7-1 2-1.2.8-.5 1.7-.9 2.5-1.3.4-.1.8-.3 1.3-.5l.3-.2c.7-.3 1.5-.6 2.3-.9l1.4-.5.2-1.5c.7-5.4 2.2-10.6 4.6-15.5 3.4 4 6.2 8.6 8.2 13.5l.6 1.4 1.2-1c2.4-2 5.2-3.4 8.2-4.1 1.8 3.7 2.4 7.9 1.8 12l-.1 1.4.8.3c2.3 1 4.5 2.1 6.7 3.3 8.2 4.7 18.5 15.8 21.6 29.2 2.1 8.9 2.2 20.3.2 30.5-2.6 12.9-8.8 26.3-13.9 36.6l-5.3 10.7 1 3.1 6.4-12.9c5.2-10.4 11.4-23.9 14.1-37.2 2.2-10.6 2.1-22.4-.1-31.6z" style="fill:#040000"/><path d="M75.1 98.6c-.6-.3-.8-1-.5-1.6.2-.4.5-.6.9-.6 3.3-.4 6.4-1.3 9.4-2.6.6-.3 1.3 0 1.5.6.2.6 0 1.3-.7 1.5-3.2 1.5-6.6 2.4-10.2 2.8-.1 0-.3 0-.4-.1zm48.2-4.3c-.6-.3-.8-1-.5-1.6.1-.2.2-.3.4-.4 2.5-1.9 4.5-4.2 6.1-6.9.3-.5 1-.7 1.5-.4.5.3.7 1 .4 1.6-1.7 3-4 5.6-6.8 7.7-.3.1-.7.2-1.1 0zm-47.6-9.6c-.8-.4-1-1.3-.6-2.1.1-.2.3-.4.5-.6 1.6-1 4.8-2.4 6.4-.9.5.5 1.2 1.6.1 3.5-.3.6-.9.9-1.6.8l-4.3-.6c-.2 0-.4 0-.5-.1z" style="fill:#040000"/><ellipse transform="rotate(-63.481 110.354 62.463)" cx="110.4" cy="62.5" rx="3.7" ry="3.6" style="fill:#040000"/><path d="M121.8 49.2c-.6-.3-.8-1-.5-1.6 1.3-2.2 2.9-4.1 4.9-5.6.4-.5 1.2-.5 1.6 0 .4.5.4 1.2-.1 1.7l-.1.1c-1.7 1.3-3.2 3-4.3 4.8-.1.6-.8.9-1.5.6zm14.3 11.9c-.5-.3-.7-.8-.6-1.4.8-2.8 2.1-6.9 2.1-7.6.1-.6.7-1.1 1.3-1 .6.1 1.1.6 1.1 1.3-.1 1.2-1.9 6.9-2.2 8.1-.2.6-.8 1-1.4.8-.1-.1-.2-.1-.3-.2zm-31.7 3.3c-.2-.1-.4-.2-.5-.4-.5-.7-.4-1.6.2-2.2 3.6-2.9 8.1-4.4 12.7-4.3.8 0 1.5.7 1.5 1.6 0 .9-.7 1.5-1.6 1.5h-.1c-3.8 0-7.5 1.2-10.5 3.6-.5.4-1.2.4-1.7.2z" style="fill:#040000"/><path style="fill:none;stroke:#040000;stroke-width:2.5;stroke-miterlimit:10" d="m74.5 126.3 72.2 36.9"/></svg>