<svg version="1.1" id="Layer_1" xmlns="http://www.w3.org/2000/svg" x="0" y="0" viewBox="0 0 180 180" style="enable-background:new 0 0 180 180" xml:space="preserve"><defs><style>.b{fill:#1a1a1a}.c{fill:#fff}.d{opacity:.2}.e{fill:#fff}</style></defs><path class="e" d="M29.73 74.22c.41-5.84 6.11-13.57 12.76-18.87 6.65-5.29 5.59-6.34 8.82-9.09 3.66-3.12 9.36-6.24 16.42-7.06 7.06-.81 16.42-5.7 16.42-5.7s15.43-6.03 30.96 5.6c0 0 10.17-7.36 22.93-2.47 0 0 1.65 10.91-7.93 20.86.81 1.51 1.6 3.1 2.37 4.79 0 0 6.11 11.26 3.66 33.12s-7.33 30.05 8.01 53.53l-82.79-4.17s-1.13-11.54 13.54-23.33c9.77-7.86 8.91-20.95 7.43-22.95 0 0-11.6-1.99-18.32-10.84 0 0-7.33 2.43-11.3 7.01-3.97 4.59-9.16 2.15-10.38 1.23s-7.63-5.19-4.89-14.05c0 0-8.11-1.76-7.7-7.6Z"/><path d="M124.64 61.5s10.17 6.22 11.92 18.93l-2.76-14.91-3.2-8.03-3.93 2.83-2.03 1.18Z" class="d"/><path class="c d" d="M115.11 43.31c-15.53-11.63-30.96-5.6-30.96-5.6s-9.36 4.89-16.42 5.7c-7.06.81-12.76 3.94-16.42 7.06-3.23 2.75-2.17 3.8-8.82 9.09-5.94 4.73-11.12 11.4-12.45 16.93a5.4 5.4 0 0 1-.31-2.28c.41-5.84 6.11-13.57 12.76-18.87 6.65-5.29 5.59-6.34 8.82-9.09 3.66-3.12 9.36-6.24 16.42-7.06 7.06-.81 16.42-5.7 16.42-5.7s15.43-6.03 30.96 5.6c0 0 10.17-7.36 22.93-2.47 0 0 .24 1.63 0 4.2-12.75-4.88-22.92 2.48-22.92 2.48Z"/><path d="M135.32 101.78c-2.43 17.33-4.92 26.09 8.82 47.14h-6c-8.04-9.28-13.47-31.27-2.82-47.14Zm-34.27-.68s-4.11 6.95-24.14 18.48l4.26-9.52 2.1-8.67-.74-2.56 7.32.92 11.2 1.36Z" class="d"/><path class="b" d="M83.92 53.06s7.79-1.51 12.77-2.06 3.28 8.5-4.11 8.87c-8.65.43-8.65-6.82-8.65-6.82Z"/><path d="M80.9 85.76s-10.58 9.29 4.89 13.57l-9.81-2.83-8.27-4.98-3.7-3.89 7.54-1.91 9.36.04Z" class="d"/><path class="c d" d="M93.83 146.39c3.7-4.83 6.16-10.49 7.13-16.5 1.13-6.97 2.87-15.46 2.87-15.46s4.4 28.7 10.65 32.99l-20.65-1.04Z"/><path class="b" d="M39.37 66.51c-3.64 0-5.71-1.23-5.85-1.32a2.009 2.009 0 0 1-.66-2.75c.57-.93 1.79-1.23 2.73-.67.22.12 4.31 2.32 11.71-1.4a2.003 2.003 0 1 1 1.8 3.58c-3.92 1.97-7.2 2.56-9.72 2.56Zm80-22.96s5.9-4.75 13.03-3.19c0 0-1.63 7.48-6.51 10.63 0 0-1.83-4.79-6.51-7.44Z"/><path d="M53.97 80.43s-3.44 2.95-7.89 4.44-6.27 7.25-3.24 11.01c.16.2.33.39.51.58l-5.05-4.8-1.43-4.04.13-4.05-.65-2.06 4.38.82 4.8-.32 8.45-1.58Z" class="d"/><path class="b" d="M144.14 150.92h-.1l-82.79-4.17c-.99-.05-1.79-.82-1.89-1.8-.05-.51-1.06-12.75 14.27-25.08 8.2-6.59 7.97-16.86 7.27-19.65-3.01-.71-11.59-3.24-17.55-10.2-2.15.88-6.53 2.92-9.14 5.94-4.86 5.62-11.24 2.91-13.1 1.52l-.15-.11c-6.06-4.46-6.76-9.87-5.94-14.16-3.5-1.28-7.64-4.14-7.29-9.12.49-6.98 7.13-15.22 13.51-20.29 3.79-3.02 4.9-4.53 5.88-5.86.7-.96 1.43-1.94 2.89-3.19 2.79-2.38 8.77-6.52 17.49-7.52 6.6-.76 15.64-5.44 15.73-5.49.06-.03.13-.06.2-.09.66-.26 15.92-6.02 31.76 5.04 3.25-1.9 12.46-6.18 23.57-1.93.67.26 1.15.86 1.26 1.57.07.47 1.57 11.25-7.48 21.48.6 1.17 1.18 2.37 1.74 3.58.57 1.09 6.27 12.64 3.86 34.22-.41 3.63-.89 6.95-1.31 9.88-2.19 15.06-3.39 23.35 9.01 42.33.41.63.43 1.44.06 2.09-.36.62-1.02 1-1.73 1Zm-80.74-8.07 76.99 3.88c-10.99-18.02-9.66-27.18-7.54-41.81.44-3.04.9-6.18 1.3-9.75 2.33-20.85-3.38-31.84-3.44-31.95l-.06-.12c-.73-1.61-1.51-3.18-2.31-4.68a2 2 0 0 1 .32-2.33c7.08-7.35 7.58-15.13 7.48-18.02-10.98-3.58-19.5 2.38-19.87 2.65-.71.51-1.67.5-2.37-.02-13.96-10.45-27.59-5.86-28.94-5.37-1.15.59-10.01 5.05-17.01 5.86-7.66.88-12.91 4.51-15.35 6.59-1.11.94-1.62 1.64-2.26 2.51-1.07 1.46-2.4 3.27-6.61 6.62-6.62 5.27-11.67 12.6-12.01 17.44-.28 4 6.07 5.49 6.13 5.51.55.12 1.02.46 1.3.95.28.48.35 1.06.18 1.6-2.22 7.15 2.46 10.59 3.99 11.72l.18.13s4.31 2.95 7.67-.94c4.28-4.95 11.86-7.5 12.18-7.6.81-.27 1.71 0 2.22.69 6.17 8.13 16.96 10.06 17.07 10.08.51.09.96.37 1.27.78 2.18 2.94 2.88 17.13-7.78 25.7-10.42 8.38-12.4 16.46-12.74 19.87Z"/><path class="b" d="M41.56 84.32c-3.04 0-4.68-.57-4.81-.62a2.003 2.003 0 0 1-1.2-2.56 1.994 1.994 0 0 1 2.54-1.2c.13.04 5.27 1.65 14.8-2.02 1.03-.4 2.19.12 2.58 1.15.4 1.03-.12 2.19-1.15 2.58-5.51 2.12-9.81 2.67-12.78 2.67Zm59.49 18.23H101c-15.26-.41-19.16-2.1-19.55-2.29a2.004 2.004 0 0 1-.93-2.67c.48-.98 1.65-1.4 2.63-.95.22.09 3.88 1.53 17.95 1.9 1.1.03 1.98.95 1.95 2.05a2.002 2.002 0 0 1-2 1.95ZM64 89.63c-.83 0-1.61-.52-1.89-1.35-.36-1.05.2-2.18 1.25-2.54.42-.14 10.37-3.5 17.81-2.5a1.997 1.997 0 1 1-.54 3.96c-6.5-.87-15.89 2.29-15.98 2.32-.21.07-.43.11-.65.11Zm59.23-25.46c-.77 0-1.51-.45-1.84-1.2-.44-1.01.02-2.19 1.04-2.63 4-1.74 6.14-4.13 6.16-4.15.72-.84 1.98-.93 2.82-.21.84.72.93 1.98.21 2.82-.11.12-2.69 3.08-7.59 5.21-.26.11-.53.17-.8.17Z"/><path class="e" d="M52.7 166.46v3.47h97.58v-3.47c.03-10.4.05-19.45-13.35-22.86 0 0-47.49-4.72-70.89 0-13.4 3.4-13.38 12.46-13.35 22.86Z"/><path class="c d" d="M136.05 143.55c-9.22-1.86-22.27-2.22-34.56-1.98-12.29-.24-25.34.12-34.56 1.98-9.02 2.29-11.8 7.21-12.65 13.38 0 0 7.66-7.39 47.21-7.39s47.21 7.38 47.21 7.39c-.85-6.16-3.63-11.09-12.65-13.38Z"/><path class="b" d="M150.28 171.92H52.7c-1.1 0-2-.9-2-2v-3.46c-.03-10.33-.06-21.01 14.86-24.8 23.51-4.75 69.62-.25 71.58-.05.1 0 .2.03.29.05 14.91 3.79 14.89 14.47 14.86 24.8v3.46c0 1.1-.9 2-2 2Zm-95.58-2Zm0-2h93.58v-1.47c.03-10.35.05-17.83-11.7-20.88-2.95-.28-47.96-4.5-70.14-.02-11.79 3-11.77 10.5-11.75 20.89v1.47Z"/></svg>