<svg xmlns="http://www.w3.org/2000/svg" viewBox="0 0 180 180" style="enable-background:new 0 0 180 180" xml:space="preserve"><path style="fill:#fff" d="M63.4 111h58.8v8.4H63.4z"/><path d="M129.7 113.8c.4-1.5.9-3.4 1.5-5.5 2.4-8.6 5.8-20.3 5.8-28 0-18.1-5.7-33.3-16.6-43.9-9.2-8.9-21.3-14.3-34.1-15.2L74.9 9.7l-.5-.5h-.8c-2.5 0-5 2.3-5.7 5.2l-1.3 6.4c-1.2 2.9-3.3 5-6.6 7.7-2.6 2.1-4.5 4.9-5.6 8l-.3.5c-.8 2.1-1.4 4-2 5.6-1.2 4.2-3.1 8.3-5.7 11.9L35.7 69.6c-3.4 4.2-3 9.9.9 13.2s13.3 5.8 16.6 5.8c.8.1 1.6-.2 2.2-.8 1.3-1.4 2.5-2.9 3.4-4.5 2.1-3.3 3.7-5.7 9.2-5.8 8.1.1 15.1-7.3 18.4-10.8l2-2.3c1.4 2.2 2.9 5.7 1.9 9.4-.5 1.6-1.2 3.1-2.1 4.4-2.1 2.8-4.6 5.3-7.4 7.4l-.2.1c-7 5.6-18.5 14.9-20.4 28" style="fill:#fff"/><g style="opacity:.2"><path d="M71.1 27.7c7.5-4.6 2.4-16.7 2.4-16.7-2.2 0-4.2 1.5-4.6 3.7l-1.4 6.4c-1.3 3.1-3.4 5.3-6.9 8.1-2.5 2-4.3 4.6-5.3 7.6l-.1.4c-.8 2.1-1.4 3.9-2 5.6C52 47.2 50 51.3 47.5 55L36.7 70.2l-.4.4c-2 1.8-2.4 4.9-.9 7.2 0 0 17.6-21.7 19.9-24.7 4.1-5.6 1.5-16.5 15.8-25.4z" style="fill:#fff"/></g><path d="M72.2 36.5c-4.8 2-6.1 10.3-6.1 10.3 4.7-4.1 7 .6 11.7-3.1 3.9-3.1-.9-9.1-5.6-7.2z" style="fill:#1a1a1a"/><path d="M94.5 51.6c-1.7 3.2-5.9 9.8-5.9 9.8s-.4 1.3-1 3.2c0 0 1.9-.2 2.3 5.9.1 1.6.9 7.2 1.9 4.8 2.8-6.9 4.8-15.2 4.8-18-.1-2.9-.4-8.9-2.1-5.7z" style="opacity:.2;fill:#040000;enable-background:new"/><path d="M85.5 23s37.8 4.7 37.8 40.8c0 24.2-16.1 31-20.4 47.2 0 0 17.9.1 25.8 3.9 0 0 8.5-23 8.5-36.6 0-14-10.5-56.4-51.7-55.3zM71.6 75.8c-8.4-4.1-10.6-9.1-13.8.7-3.1 9.4-7.9 11-4.7 12s7.2-9.7 9.9-9.9c2.8-.2 11.7-1.3 8.6-2.8z" style="opacity:.2;fill:#040000;enable-background:new"/><path d="M82 89c3-2.2 5.6-4.8 7.8-7.8 1.1-1.5 1.9-3.2 2.4-5 1.7-5.9-2.1-11.2-3.5-12.8l-3.5 4.1c-3.6 3.7-9.9 10.3-17.1 10.3-9.3 0-9.5 6.6-13.9 10.8-.3.2-.6.2-.9.2-3 0-12-2.5-15.4-5.4-3-2.5-3.4-7.2-.6-10.7L48 57.5c4.8-7 5.1-10.8 7.8-17.9 1-3 2.8-5.7 5.2-7.7 3.5-2.9 5.8-5.2 7.2-8.6l1.4-6.5c.5-2 2.2-3.8 3.9-3.8l12 12c23.4 1.6 49.5 18.6 49.5 57.4 0 10-6.1 28.1-7.6 34.2l4.6-2.1h-.1c.3-1.1.7-2.4 1-3.7 2.5-8.7 5.8-20.5 5.8-28.5 0-39-25.7-58.6-51.6-60.9l-11-11L75 9.3h-1.5c-3.4 0-6.6 2.9-7.5 6.7v.1l-1.3 6.1c-1.1 2.5-2.9 4.3-6 6.8-2.8 2.3-5 5.3-6.2 8.8l-.1.4c-.9 2.2-1.5 4-2 5.7-1.2 4.1-3 8-5.4 11.5l-10.7 15c-3.9 5-3.5 11.8 1.1 15.7 4.3 3.6 14.2 6.2 17.8 6.2 1.3.1 2.5-.4 3.5-1.2 1.4-1.5 2.7-3.1 3.7-4.8 2-3.2 3.1-4.9 7.6-4.9 8.9 0 16.2-7.7 19.8-11.5l.1-.1.1-.1.2-.3c.8 1.7.9 3.7.5 5.6-.4 1.4-1 2.7-1.9 3.9-2 2.7-4.4 5-7 7l-.2.1c-6.9 5.6-18.2 14.7-20.8 27.8l3.2 3.1c1.2-12.8 13.2-22.3 20-27.9z" style="fill:#1a1a1a"/><path d="M129.3 117.1c8.7 3.1 13.1 8.3 14.2 16.8v.1l2 23.5.1 1.5-1.4.7c-5.5 2.9-11.6 4.4-17.8 4.4h-1.7l-.6-1.6-6.1-17.2h-5.8l-3.4 19.8-.3 1.7-1.7.2c-4.2.6-8.4.9-12.6 1-4.2-.1-8.4-.4-12.6-1l-1.7-.2-.3-1.7-3.4-19.8h-5.8l-6.1 17.2-.6 1.6h-1.6c-6.2 0-12.3-1.5-17.7-4.4L43 159l.1-1.5L45 134v-.1c1.2-8.4 5.6-13.7 14.2-16.8" style="fill:#fff"/><path d="M58.6 163.9c-12.8-8.6-8-40.8-8-40.8-8.2 2.6-8 37.1-8 37.1s19.6 6.1 16 3.7zm39.5 2.5c-14.3-2.6-19.8-22.9-19.8-22.9 1 15.2 4.2 24 4.2 24s19.6-.4 15.6-1.1zm38-4.2c-9.3-4.8-16.4-18.7-16.4-18.7-.5 5 6.5 22.2 6.5 22.2s13.4-1.7 9.9-3.5z" style="opacity:.3;fill:#fff;enable-background:new"/><path d="M128.6 115.8s4.4 4 6 4c12.7-.3 10.4 38.3 10.4 38.3l-7.6 4.7c-2.1-12.3-4.8-31.5-10.9-36.7-5.6-4.8-9-6-9.9-6.2-1.6.2-3.4.4-5.3.5-17.3 1.5-42.4-3.3-42.4-3.3" style="opacity:.2;fill:#040000;enable-background:new"/><path d="M61 113.1c11 1.6 22.1 2.6 33.2 2.9 11.1-.3 22.2-1.3 33.1-2.9v-.4l4.7 1.1c8.5 3.6 12.9 9.6 14.1 18.7v.3l2.1 24.5.3 3.2-2.8 1.5c-5.8 3.2-12.4 4.9-19 4.8h-3.8l-.9-3.8-3.5-15.7h-6.3l-2.1 18.2-.4 3.6-3.6.6c-3.9.6-7.9 1-11.9 1.1-4-.1-8-.4-11.9-1.1l-3.6-.6-.4-3.6-2.1-18.2H70L66.3 163l-.9 3.8h-3.8c-6.6 0-13.2-1.6-19-4.8l-2.8-1.5.2-3.2 2-24.4v-.3c1.2-9.1 5.6-15 14.1-18.7v-.1l4.9-.7zm-14.1 20.2-2 24.4c5.1 2.8 10.9 4.3 16.8 4.2l4.3-19.5h14.4l2.5 22.5c3.7.6 7.4.9 11.2 1 3.7-.1 7.4-.4 11.1-1l2.6-22.5h14.5l4.3 19.5c5.9 0 11.7-1.4 16.8-4.2l-2-24.4c-.9-7-4-12.1-12.6-15.4-11.5 1.8-23 2.8-34.6 3.1-11.6-.3-23.1-1.3-34.6-3.1-8.7 3.2-11.8 8.4-12.7 15.4z" style="fill:#1a1a1a"/></svg>