<svg xmlns="http://www.w3.org/2000/svg" viewBox="0 0 180 180" style="enable-background:new 0 0 180 180" xml:space="preserve"><path d="M32.1 167.7c-.7-15 3.9-28.1 14.9-37.5 7-2 10.2-4.8 12.2-9 1.8-3.9 4.2-7.5 7-10.8-9.5-9.9-19.3-2.4-25.8-.2-4.2 1.7-6.7 2.6-8.9 5.3l-3.5 4-6.1-4.7 7-5.8-11.2-10-5.7 3.7-1.4-14 32.7-21.5c2.6-6.1 18.5-15 30.3-22.4l4.4-6.2 5.3 11.9c21.3 9.6 29.3 22.7 35.4 37.7 4.7 17.2 3.9 29.2 2.9 40.8-1.1 11.6-2.5 23 1.7 38.8H32.1z" style="fill:#fff"/><path d="m20.4 88.2 2.9-.3 3.1 2.6-3.9 4.8-4.9-2.3 2.8-4.8zm48.8-17L51 71l10-8.6c3.4-2.8 12.1 8.8 8.2 8.8zm-25-2.6-3.9-5.2c.3-2.2 3.7-5.3 10-9.3s12.5-8 18.9-12.3L79 28.6l8.2 18.6c39.1 19.7 46 46.7 41.1 87.6-1.7 12.5.2 25.1 5.3 36.6H27.1c-1-20.3 3.6-33.2 19-46.2 8.9-1.8 12.5-10 14.6-13.4-13.5-2.4-21.9-.7-25 5.1s-4.8 8.8-4.8 8.8l-18.6-10.4 9.9-7-4.4-4.3-10.5 7.4-1-25.4 34-22.6s3.4-1.2 4-.4 0 5.6-.1 5.6L12.8 89.3l.3 10.7 5.5-3.5 11.8 12.3-6.7 5.6 4 2.4 3.3-3.9c2.5-2.8 5.7-5 9.3-6.3 6.2-2.1 21.3-5.5 30.5 4-3.1 3.4-5.7 7.2-7.8 11.3-2 4-6.3 6.9-13 8.8-10.5 9-17.3 19.9-16.6 34.3h87.4c-4-15.2-2.8-26.1-1.6-37.2s1.8-22.7-2.8-39.2c-5.8-14.4-13.5-27-34-36.2L77.3 41l-4.1 5.9c-11.2 7.3-26.5 15.9-29 21.7z" style="fill:#040000"/><path d="M66.3 107.1c-.9 1 .9 4.1 4.6 3.6 1.5-.2 2.2-1.3 3.2-1.2.9.1 1.9.1 2.8-.1 8.9-1.3 15.3-11.1 15.5-21.4l-1.6-5.7c-3.2 13.6-8.5 21-16.1 22-1.2.2-2.5.3-3.9.4-1.7.3-3.3 1.1-4.5 2.4z" style="fill:#040000"/><path d="m137 75.8-.6-1.8c-2.6-7.4-5.6-13.2-9.3-17.7-3.7-4.5-8.9-8.5-15.7-12.3l-1.7-.9 1.3-1.5c3.8-4.4 7-10.3 9.7-17.6l2.5-6.8 1.4 16.9 26.5-14.3L139 46.5l28.4-7.2-18.7 23.5 16.6 4.4-7.3 1.2c-6.7.9-13.1 3.1-19 6.4l-2 1z" style="fill:#fff"/><path d="M126.8 87.7 96 50.9l2.3-.7c3.9-1.3 7.4-3.4 10.4-6.3l.8-.8 1 .5c7.1 3.9 12.6 8.2 16.4 12.7 4.7 5.6 7.8 13.1 9.6 18.4l.4 1.1-.9.7c-3.3 2.4-6.1 5.5-8 9.1l-1.2 2.1z" style="fill:#fff"/><path d="M172.3 62.6c-2.1-2.5-5.8-2.8-8.4-.8-.9.7-1.6 1.7-1.9 2.8l-10.5-2.8 14-17.6c3.9 1.7 7.1-.8 8-4.1.8-3.1-1-6.2-4.1-7l-.4-.1c-3.2-.6-6.3 1.4-6.9 4.6-.1.4-.1.8-.1 1.2l-20.1 5.1 8.6-18.9c3.2.6 6.3-1.6 6.8-4.8.1-.4.1-.8.1-1.2 0-3.1-2.5-5.7-5.7-5.7h-.5c-3.5.3-6.5 3-5.5 7.1l-19.8 10.7-.9-10.8c1.1-.1 2.2-.6 3.1-1.3 2.5-2.1 2.8-5.9.7-8.4-2.1-2.5-5.9-2.8-8.4-.7-2.5 2.1-2.8 5.9-.7 8.4l.6.6c-4.7 15.5-12.2 27.7-27.3 31.3l33.9 40.5c6.3-14.2 19.6-19.4 35.7-21.2.2.3.3.5.5.7 2.1 2.5 5.9 2.8 8.4.7 2.4-2 2.8-5.5 1-8-.1-.1-.2-.2-.2-.3zm-59.7 5.7L98.7 51.7c1.4-.5 2.8-1 4.2-1.7l-.1.1 6.9 2.2-.9-6.2c.3-.3.7-.6 1-.9 5.6 3.1 11.7 7.2 16 12.3 4.3 5.1 7.2 11.8 9.3 17.9-.4.3-.7.6-1.1.8l-6-2 .9 7.2c-.9 1.2-1.7 2.4-2.4 3.7l-13.9-16.8zm25.3 5.1c-2.3-6.6-5.3-13-9.6-18.2-4.3-5.2-10.1-9.3-16.2-12.7 4.2-4.9 7.4-11.2 9.9-18.1l1 12.1 24.5-13.2L136 48.8l27-6.8-17.4 21.7 11.8 3.1c-6.8 1-13.5 3.2-19.5 6.6z" style="fill:#040000"/><path style="fill:#040000" d="m115.6 57.6 1 7.3 7 2.4-1.1-7.3z"/><path d="M169.9 64.6c-.9-1.2-2.7-1.5-3.9-.5-1.2.9-1.5 2.7-.5 3.9 0 .1.1.1.1.2.9 1.2 2.7 1.5 3.9.5s1.5-2.7.5-3.9c0-.1-.1-.1-.1-.2zM170 37c-.7-1.2-2.3-1.5-3.4-.8-.2.1-.4.3-.6.5-1.2.7-1.6 2.2-.8 3.4.1.2.3.4.5.6.7 1.2 2.3 1.6 3.4.8.2-.1.4-.3.6-.5 1.2-.7 1.6-2.3.8-3.4-.1-.3-.3-.5-.5-.6zm-16.3-19.6c-.7-1.2-2.3-1.5-3.4-.8-.2.1-.4.3-.6.5-1.2.7-1.5 2.3-.8 3.5.1.2.3.4.5.5.7 1.2 2.3 1.5 3.5.8.2-.1.4-.3.5-.5 1.2-.7 1.6-2.3.8-3.4-.2-.3-.4-.5-.5-.6zm-27.3-4.8c-.7-1.2-2.2-1.6-3.4-.9-.2.1-.4.3-.6.5-1.2.7-1.6 2.2-.8 3.4.1.2.3.4.5.6.7 1.2 2.3 1.6 3.5.8.2-.1.4-.3.5-.4 1.2-.7 1.6-2.3.9-3.4l-.6-.6z" style="fill:#fff"/></svg>