<svg xmlns="http://www.w3.org/2000/svg" xml:space="preserve" id="Layer_1" x="0" y="0" style="enable-background:new 0 0 180 180" version="1.1" viewBox="0 0 180 180"><defs><style>.b{fill:#1a1a1a}.c,.e{fill:#fff}.f{opacity:.2}</style></defs><path d="m98.77 25.95 3.28-15.54H77.94l3.28 15.54C68.7 29.72 59.58 41.33 59.58 55.07c0 16.8 13.62 39.44 30.41 39.44s30.41-22.64 30.41-39.44c0-13.75-9.12-25.36-21.64-29.12Z" class="e"/><path d="m81.23 25.95 1.83-11.64 19-3.9H77.94l3.29 15.54z" class="c f"/><path d="M59.59 55.07c0 4.81 1.12 10.1 3.1 15.2-3.14-25.57 18.54-44.32 18.54-44.32-12.52 3.77-21.64 15.38-21.64 29.12Z" class="c f"/><path d="M67.58 79.75C73.14 88.19 81.13 94.52 90 94.52c16.8 0 30.41-22.64 30.41-39.44 0-2.26-.25-4.46-.72-6.57 0 0-8.81 39.73-52.12 31.25Z" class="f"/><path d="M90 96.51c-17.46 0-32.41-22.79-32.41-41.44 0-13.57 8.68-25.84 21.32-30.46l-2.92-13.8a1.992 1.992 0 0 1 1.95-2.41h24.11c.6 0 1.17.27 1.55.74.38.47.53 1.08.4 1.67l-2.92 13.8c12.64 4.62 21.32 16.88 21.32 30.46 0 18.65-14.96 41.44-32.41 41.44Zm-9.59-84.1 2.78 13.13a2.01 2.01 0 0 1-1.38 2.33c-11.9 3.58-20.22 14.77-20.22 27.21 0 16.5 13.38 37.44 28.41 37.44s28.41-20.94 28.41-37.44c0-12.44-8.31-23.63-20.22-27.21-1-.3-1.6-1.31-1.38-2.33l2.78-13.13H80.41Z" class="b"/><path d="M48.05 126.84a33.978 33.978 0 0 0 21.42 19.84l1.13.35h38.79l1.13-.35a33.978 33.978 0 0 0 21.42-19.84H48.05Z" class="e"/><path d="M131.95 126.84a33.978 33.978 0 0 1-21.42 19.84l-1.13.35H70.61l-1.13-.35a33.911 33.911 0 0 1-14.12-8.64c1.93.13 3.91.2 5.93.2 16.72 0 30.94-4.76 36.21-11.41h34.45Z" class="f"/><path d="M109.39 149.03H70.6c-.2 0-.4-.03-.59-.09l-1.13-.35c-10.39-3.24-18.66-10.9-22.68-21.01-.25-.62-.17-1.31.2-1.86s.99-.88 1.66-.88h83.89c.66 0 1.28.33 1.66.88s.45 1.25.2 1.86c-4.03 10.11-12.29 17.76-22.68 21.01l-1.13.35c-.19.06-.39.09-.59.09Zm-38.48-4h38.18l.84-.26a31.822 31.822 0 0 0 18.92-15.93h-77.7c3.89 7.62 10.65 13.35 18.92 15.93l.84.26Z" class="b"/><path d="M40.88 166.99v3.49h98.23v-3.49c.03-10.46.05-19.58-13.44-23.01 0 0-47.81-4.76-71.35 0-13.49 3.43-13.47 12.54-13.44 23.01Z" class="e"/><path d="M124.79 143.93c-9.28-1.87-22.42-2.23-34.79-2-12.37-.24-25.51.12-34.79 2-9.08 2.31-11.88 7.26-12.74 13.47 0 0 7.71-7.44 47.53-7.44s47.52 7.43 47.53 7.44c-.85-6.21-3.65-11.16-12.74-13.47Z" class="c f"/><path d="M139.11 172.48H40.89c-1.1 0-2-.9-2-2V167c-.03-10.39-.06-21.14 14.94-24.95 23.67-4.78 70.08-.25 72.04-.05.1 0 .2.03.29.05 15 3.81 14.97 14.56 14.95 24.95v3.48c0 1.1-.9 2-2 2Zm-96.22-4h94.22v-1.49c.03-10.42.05-17.96-11.78-21.03-2.96-.29-48.27-4.53-70.61-.02-11.88 3.02-11.86 10.58-11.83 21.04v1.49Z" class="b"/><path d="M131.95 126.84c-21.86-11.87-26.46-36.86-26.46-36.86H74.51s-4.59 25-26.46 36.86h83.89Z" class="e"/><path d="M97.49 126.84h34.45c-21.86-11.87-26.46-36.86-26.46-36.86H74.5s34.68 9.9 22.98 36.86Z" class="f"/><path d="M131.95 128.84h-83.9c-.92 0-1.71-.62-1.94-1.51s.18-1.81.98-2.25c20.78-11.28 25.4-35.23 25.44-35.47.17-.95 1-1.64 1.97-1.64h30.98c.96 0 1.79.69 1.97 1.64.04.24 4.71 24.22 25.44 35.47.8.44 1.21 1.36.98 2.25a2 2 0 0 1-1.94 1.51Zm-77.05-4h70.2c-14.84-11.01-19.92-27.59-21.22-32.86H76.11c-1.29 5.27-6.38 21.85-21.22 32.86Z" class="b"/><path d="M105.51 85.98c2.95 0 5.53 1.6 6.91 3.99a7.968 7.968 0 0 1-6.91 3.99H74.49c-2.95 0-5.53-1.6-6.91-3.99a7.968 7.968 0 0 1 6.91-3.99h31.02Z" class="e"/><path d="M105.51 85.98H83.17c5.18.06 5.18 7.92 0 7.98h22.34c2.95 0 5.53-1.6 6.91-3.99a7.968 7.968 0 0 0-6.91-3.99Z" class="f"/><path d="M105.51 95.96H74.49c-3.55 0-6.86-1.91-8.64-4.99-.36-.62-.36-1.38 0-2 1.78-3.08 5.09-4.99 8.64-4.99h31.02c3.55 0 6.86 1.91 8.64 4.99.36.62.36 1.38 0 2a10.007 10.007 0 0 1-8.64 4.99Zm-35.47-5.99a5.99 5.99 0 0 0 4.45 1.99h31.02c1.71 0 3.33-.74 4.45-1.99a5.99 5.99 0 0 0-4.45-1.99H74.49c-1.71 0-3.33.74-4.45 1.99Z" class="b"/></svg>