<svg xmlns="http://www.w3.org/2000/svg" viewBox="0 0 180 180" style="enable-background:new 0 0 180 180" xml:space="preserve"><path style="fill:none" d="M0 0h180v180H0z"/><path d="M23.4 51c-4-.6-7-3-5.4-9 2.2-9 15.4-8.2 15.4-8.2 5-8.8 7.4-8.2 19.4-6.6 9.8 1.2 22.8 4.8 32.2 1.4 9.4-3.2 22.8 0 22.8 0s13-10.2 16.6-7.2c3.6 2.8 3.2 18.2-2.8 23.4-2.2 1.8 8.2 31.6 25.4 55.2.6.8 13.4 18 14 18.6l-1 41.2h-55.8C92.8 141.2 82.2 115 80 81c-.4-4 2.2-9-10.4-12.6S50 66.6 46 57.2c0 0-8 2.4-16.2 4.8-23.6 7-10.8-7.4-6.4-11z" style="fill:#fff"/><path d="M103 38c-1.2 5.4-7.2 9.4-12.8 8.4-5.6-1-9.6-7-8.8-12.4l21.6 4zm16.2-9.4c2 5.2.6 11.6-3.4 15.6-1-3.4-3.8-6.2-7-7.6 2.6-3.6 6.2-6.2 10.4-8zM34.8 32c.8-1.2 11.4-1.8 11.6-1 .4 1.4-.6 2.8-1.6 3.6-2.2 1.8-5 2.8-7.8 2.6s-5.6-1.4-7.6-3.2l5.4-2zm55 48c-.2 0-.6 0-.8-.2 0 0-5-2.8-13-5-.8-.2-1.2-1-1-1.8s1-1.2 1.8-1c8.4 2.2 13.6 5.2 13.8 5.4.8.4 1 1.4.6 2-.4.2-1 .6-1.4.6zM20.6 52.6h-1c-.8 0-1.4-.8-1.4-1.6s.8-1.4 1.6-1.4c6.4.2 16.6-1.4 16.8-1.4.8-.2 1.6.4 1.8 1.2s-.4 1.6-1.2 1.8c-.6 0-9.8 1.4-16.6 1.4z"/><path d="M122.6 20.8c.8 0 1.4.2 1.8.6 3.6 2.8 3.2 18.2-2.8 23.4-2.2 1.8 8.2 31.6 25.4 55.2.6.8 13.4 18 14 18.6l-1 41.2h-55.8C92.8 141.2 82.2 115 80 81c-.4-4 2.2-9-10.4-12.6S50 66.6 46 57.2c0 0-8 2.4-16.2 4.8-4.6 1.4-7.8 2-10 2-9.2 0 0-10 3.6-12.8-4-.6-7-3-5.4-9 1.8-7.8 11.8-8.2 14.6-8.2h.8c3.4-5.8 5.6-7.6 10.4-7.6 2.2 0 5.2.4 9.2 1 6.6.6 14.8 2.6 22.4 2.6 3.4 0 6.6-.4 9.4-1.4 3.2-1 6.8-1.4 10-1.4 6.8 0 12.8 1.4 12.8 1.4s10-7.8 15-7.8zm0-3c-4.8 0-12.4 5.2-15.6 7.6-2.2-.4-6.8-1.2-12-1.2-4.2 0-8 .6-11 1.6-2.4.8-5 1.2-8.4 1.2-5 0-10.4-.8-15.6-1.8-2.4-.4-4.6-.8-6.8-1h-.8c-3.6-.4-6.4-.8-8.8-.8-6 0-9 2.6-12 7.6-4.2.2-14.4 1.4-16.6 10.6-.8 3.2-.6 6.2 1 8.4.6.8 1.2 1.6 2 2.2-2.8 3-6 7.6-4.8 11.2.6 1.6 2.2 3.6 6.6 3.6 2.6 0 6-.6 10.6-2 5.4-1.6 10.8-3.2 13.8-4.2 3.6 6.2 9 7.2 15.6 8.6 2.6.4 5.4 1 8.8 2C77 73.8 77 76 77 79.2v2.4c2 29.4 10.2 56.4 24.8 80l.8 1.4H163v-3l.8-41v-1l-.6-.8c-.6-.6-13.4-18-14-18.6-15.4-21-24.8-46.4-25.2-52 4.2-4.2 5.6-11.6 5.4-17 0-2.8-.6-8-3.4-10.4-.8-1-2-1.4-3.4-1.4z"/></svg>