<svg xmlns="http://www.w3.org/2000/svg" xml:space="preserve" id="Layer_1" x="0" y="0" style="enable-background:new 0 0 180 180" version="1.1" viewBox="0 0 180 180"><defs><style>.b{fill:#1a1a1a}.c{fill:#fff}.d{opacity:.2}.e{fill:#fff}</style></defs><path d="M105.33 86.46s15.74-4.5 18.82-12.98L90 30.74 55.85 73.47c3.08 8.49 18.82 12.98 18.82 12.98h30.66Z" class="e"/><path d="M90 86.46s21.12-2.68 23.21-21.02l-12.97-9.53s2.2-4.57-2.01-14.87l25.92 32.44-1.86 3.77-7.04 5.01-9.92 4.2H90Z" style="opacity:.2"/><path d="m58.77 69.82 26.89-26.94L90 31.26 58.77 69.82z" class="c d"/><path d="M105.33 88.46H74.67c-.19 0-.37-.03-.55-.08-.68-.19-16.76-4.88-20.15-14.22-.24-.66-.12-1.39.32-1.93L88.44 29.5c.76-.95 2.37-.95 3.12 0l34.15 42.73c.44.54.56 1.28.32 1.93-3.39 9.34-19.47 14.03-20.15 14.22-.18.05-.36.08-.55.08Zm-30.37-4h30.08c4.06-1.21 13.87-5.16 16.79-10.68L90 33.95 58.17 73.78c2.92 5.53 12.73 9.47 16.79 10.68Z" class="b"/><path d="M58.09 71.83 90 54.35l11.42 2.42L90 48.39 58.09 71.83z" class="c d"/><path d="M124.15 75.48c-.41 0-.83-.13-1.18-.39L90 50.87 57.03 75.09a2 2 0 0 1-2.8-.43 2.01 2.01 0 0 1 .43-2.8l34.15-25.09c.7-.52 1.66-.52 2.37 0l34.15 25.09c.89.65 1.08 1.91.43 2.8-.39.53-1 .82-1.61.82Z" class="b"/><path d="M125.33 139.41c-19.32-12.14-21-27.3-21.55-33.33h12.15l.61-1.13.42-.78c1.3-2.37 2.15-3.94 2.15-7.46v-1.16l-.97-.64-12.82-8.46H74.67l-12.82 8.46-.97.64v1.16c0 3.52.86 5.09 2.15 7.46l.42.78.61 1.13h12.15c-.54 6.04-2.19 21.17-21.55 33.33-8.66 5.44-13.63 15.79-13.63 28.39v2.15h97.94v-2.15c0-12.6-4.97-22.94-13.64-28.39Z" class="e"/><path d="M117.14 134.06c-11.58-8.1-12.37-23.89-13.1-27.5l11.67-.02 4.17-9.65s-9.32-9.96-15.29-10.15l-3.08-.22c.18.16 10.1 10.78-.11 17.4H63.29l.48 2.69 12.33-.02s14.25 14.45 26.06 25.58c11.34 10.69 28.54 12.18 28.54 12.18s-7.65-6.18-13.55-10.3Z" class="d"/><g class="d"><path d="M73.86 96.72c.7-4.79.71-10.16.81-10.25L60.43 96.72h13.43Z" class="c"/></g><g class="d"><path d="M42.57 168.39c4.69-15.4 11.92-17.98 24.13-26.87 8.11-5.9 7.97-25.44 7.97-25.44.19-.93-2.9 8.88-7.51 12.89-1.51 1.32-11.79 8.47-16.22 13.1-9.5 9.93-9.27 29.25-8.37 26.31Z" class="c"/></g><path d="M138.97 171.95H41.03c-1.1 0-2-.9-2-2v-2.15c0-13.3 5.31-24.26 14.57-30.08 16.72-10.5 19.62-23.11 20.41-29.64h-9.94c-.74 0-1.41-.4-1.76-1.05l-1.03-1.9c-1.34-2.45-2.39-4.38-2.39-8.41v-1.16c0-.67.34-1.3.9-1.67l13.68-9.02c.34-.26.76-.41 1.21-.41h30.66c.39 0 .77.12 1.1.33l13.79 9.1c.56.37.9 1 .9 1.67v1.16c0 4.03-1.06 5.97-2.4 8.42l-1.03 1.9a1.99 1.99 0 0 1-1.76 1.05h-9.93c.8 6.54 3.73 19.17 20.4 29.64 9.26 5.82 14.57 16.78 14.57 30.08v2.15c0 1.1-.9 2-2 2Zm-95.94-4h93.94v-.15c0-11.89-4.63-21.62-12.7-26.69-20.46-12.86-21.98-29.41-22.48-34.84-.05-.56.14-1.12.51-1.53.38-.42.92-.65 1.48-.65h10.96l.47-.86c1.23-2.25 1.91-3.49 1.91-6.5v-.08l-12.39-8.17H75.28l-12.39 8.17v.08c0 3.01.68 4.25 1.9 6.5l.47.87h10.96c.56 0 1.1.24 1.48.65s.57.97.52 1.53c-.48 5.43-1.96 21.96-22.48 34.85-8.07 5.07-12.7 14.8-12.7 26.69v.15Z" class="b"/></svg>