<svg xmlns="http://www.w3.org/2000/svg" xml:space="preserve" id="Layer_1" x="0" y="0" style="enable-background:new 0 0 180 180" version="1.1" viewBox="0 0 180 180"><defs><style>.b{fill:#1a1a1a}.c,.d{fill:#fff}.e{opacity:.2}</style></defs><circle cx="90" cy="109.46" r="49.4" class="d"/><path d="M59.4 83.59s4.69-17.1 30.6-23.53l-7.1.51-8.2 1.91-8.43 3.65-6.87 4.55-6.16 5.88 6.16 7.04Z" class="c e"/><path d="M90 160.86c-28.34 0-51.4-23.06-51.4-51.4s23.06-51.4 51.4-51.4 51.4 23.06 51.4 51.4-23.06 51.4-51.4 51.4Zm0-98.81c-26.14 0-47.4 21.26-47.4 47.4s21.27 47.4 47.4 47.4 47.4-21.26 47.4-47.4-21.26-47.4-47.4-47.4Z" class="b"/><path d="M90 132.59c36.23-14.77 49.14-33.6 49.14-33.6s.65.71 1.54 2.03c7.59 11.22 5.43 26.31-4.74 35.25-2.73 2.4-6.13 4.93-10.25 7.18-13.84-2.98-25.66-6.76-35.7-10.85Z" class="d"/><path d="M90 109.46c21.43-13.56 36.76-32.91 36.76-32.91 13.02 8.51 12.38 22.44 12.38 22.44s-6.98 10.17-25.07 21.43c-8.5-2.26-16.66-6.27-24.08-10.96Z" class="d"/><path d="M126.72 111.44c-18.53 9.37-18.97-1.99-18.97-1.99-.02-.14-.04-.28-.07-.42-.17-.93-.19-1.87-.19-2.81v-.02c0-5.54-3.74-10.2-8.82-11.62 2.81-13.37 1.81-33.42 1.81-33.42l-1.92 18.15-3.16 14.82c-6.93.02-12.49 5.88-12 12.93.42 6.1 5.48 10.97 11.59 11.19 3.08.11 5.91-.93 8.1-2.74l10.99 4.89 12.64-8.98Z" class="e"/><path d="M114.08 122.42c-.17 0-.35-.02-.51-.07-7.93-2.11-16.22-5.88-24.63-11.2-.58-.37-.93-1-.93-1.69s.35-1.32.93-1.69c20.88-13.21 36.11-32.27 36.26-32.46.64-.81 1.8-1 2.66-.43 13.82 9.03 13.32 23.59 13.29 24.21-.02.37-.14.73-.35 1.04-.29.43-7.43 10.65-25.66 22-.32.2-.69.3-1.06.3Zm-20.33-13.01c6.85 4.07 13.56 7.04 20.01 8.85 14.79-9.34 21.82-17.88 23.39-19.94-.05-2.47-.84-12.19-10.02-19.07-3.83 4.57-16.42 18.81-33.39 30.16Z" class="b"/><path d="M114.08 120.42c-33.06-8.8-60.84-43.87-60.84-43.87-13.02 8.51-12.38 22.44-12.38 22.44s12.91 18.83 49.14 33.6c9.77-3.98 17.85-8.26 24.43-12.39l-.36.22Z" class="d"/><path d="M40.86 98.99s28.18 25.24 37.82 10.47l21.1 4.98 13.45 5.99-14.67 8.38-8.55 3.78-14.38-6.64-17.7-10.92-17.07-16.04Z" class="e"/><path d="M41.33 94.17s6.52-11.55 12.43-12.93l5.64 2.35-6.16-7.04-6.56 5.94-4.14 7.39-1.21 4.3Z" class="c e"/><path d="M90 134.59c-.26 0-.51-.05-.75-.15-36.37-14.83-49.5-33.53-50.04-34.32-.21-.31-.33-.67-.35-1.04-.03-.62-.53-15.18 13.29-24.21.86-.56 2.02-.38 2.66.43.27.34 27.34 34.12 59.04 42.98a2 2 0 0 1 2.28.85c.59.94.3 2.17-.63 2.75-.1.07-.21.13-.31.2l-.05.03h-.02c-7.36 4.59-15.55 8.73-24.36 12.32-.24.1-.5.15-.75.15ZM42.85 98.33c2.26 2.95 15.69 19.11 47.15 32.1 6.82-2.81 13.24-5.96 19.17-9.39-27.89-9.37-50.85-35.25-56.31-41.78-9.11 6.84-9.95 16.63-10.01 19.08Z" class="b"/><path d="m125.7 143.44-46.6 12.2-24.79-12.2a56.672 56.672 0 0 1-10.25-7.18c-10.17-8.94-12.33-24.04-4.74-35.25.89-1.32 1.54-2.03 1.54-2.03s21.06 30.71 84.84 44.45" class="d"/><path d="M40.58 132.59s22.64 10.54 34.02 3.77c11.37-6.77-5.11-13.79-5.11-13.79l23.62 11.26 32.59 9.62-57.01 4.37-15.45-4.97-12.66-10.26Z" class="e"/><path d="M79.1 157.64c-.3 0-.61-.07-.88-.21l-24.79-12.2a58.632 58.632 0 0 1-10.69-7.47c-10.97-9.65-13.15-25.93-5.07-37.88.95-1.4 1.64-2.17 1.72-2.25a2.006 2.006 0 0 1 3.13.21c.21.3 21.5 30.24 83.61 43.63.91.2 1.56.99 1.58 1.91s-.6 1.74-1.49 1.98l-46.6 12.2c-.17.04-.34.07-.51.07Zm-38.22-55.36c-6.84 10.26-4.92 24.2 4.5 32.49 3.03 2.67 6.36 4.99 9.89 6.92l24.05 11.83 38.05-9.96c-49.15-12.3-70.67-34.28-76.48-41.28Z" class="b"/><path d="M40.86 166.46v3.49h98.28v-3.49c.03-10.47.05-19.59-13.44-23.02 0 0-47.83-4.76-71.39 0-13.5 3.43-13.47 12.55-13.45 23.02Z" class="d"/><path d="M124.81 143.39c-9.28-1.88-22.43-2.23-34.81-2-12.37-.24-25.52.12-34.81 2-9.09 2.31-11.89 7.27-12.74 13.47 0 0 7.71-7.44 47.55-7.44s47.55 7.44 47.55 7.44c-.85-6.21-3.66-11.17-12.74-13.47Z" class="c e"/><path d="M139.14 171.95H40.86c-1.1 0-2-.9-2-2v-3.48c-.03-10.4-.06-21.15 14.95-24.96 23.68-4.79 70.12-.25 72.08-.05.1 0 .2.03.29.05 15.01 3.81 14.98 14.56 14.95 24.96v3.49c0 1.1-.9 2-2 2Zm-96.28-4h94.28v-1.49c.03-10.43.05-17.97-11.79-21.04-2.97-.29-48.3-4.53-70.65-.02-11.89 3.02-11.87 10.59-11.84 21.06v1.49Z" class="b"/><path d="M135.95 136.27c2.17-1.91 3.97-4.1 5.39-6.47-27.51 9.15-16.66-16.73-16.66-16.73l-19.63 12.53c-4.83 2.61-8.93 4.5-15.04 6.99 10.04 4.09 21.86 7.87 35.7 10.85 4.12-2.25 7.52-4.78 10.25-7.18Z" class="e"/><path d="M78.18 44.62c0-6.53 5.29-11.82 11.82-11.82s11.82 5.29 11.82 11.82-5.29 62.31-11.82 62.31-11.82-55.78-11.82-62.31Z" class="d"/><path d="M93.1 33.22c-.99-.27-2.03-.41-3.1-.41-6.53 0-11.82 5.29-11.82 11.82 0 2.52.79 12.37 2.13 23.52-.58-5.31-2.55-30.77 12.79-34.92Z" class="c e"/><path d="M90 108.93c-2.87 0-6.27-2.35-10.34-30.42-2.13-14.68-3.48-30.51-3.48-33.89C76.18 37 82.38 30.8 90 30.8s13.82 6.2 13.82 13.82c0 3.38-1.36 19.21-3.48 33.89-4.07 28.07-7.47 30.42-10.34 30.42Zm.33-3.92ZM90 34.8c-5.41 0-9.82 4.4-9.82 9.82 0 9.25 5.31 55.1 9.82 60.09 4.51-4.99 9.82-50.84 9.82-60.09 0-5.41-4.4-9.82-9.82-9.82Z" class="b"/><circle cx="90" cy="109.46" r="10.97" class="d"/><circle cx="90" cy="109.46" r="10.97" class="c e"/><path d="M90 122.43c-7.15 0-12.97-5.82-12.97-12.97S82.85 96.49 90 96.49s12.97 5.82 12.97 12.97-5.82 12.97-12.97 12.97Zm0-21.94c-4.95 0-8.97 4.02-8.97 8.97s4.02 8.97 8.97 8.97 8.97-4.03 8.97-8.97-4.02-8.97-8.97-8.97Zm35.7 44.95c-.14 0-.28-.01-.42-.04-12.89-2.78-25.01-6.46-36.03-10.96a1.997 1.997 0 0 1 .01-3.7c35.27-14.38 48.12-32.7 48.25-32.88a2.004 2.004 0 0 1 3.13-.21c.08.08.77.86 1.72 2.26 8.08 11.94 5.9 28.22-5.07 37.87a58.626 58.626 0 0 1-10.61 7.43c-.3.16-.63.24-.96.24Zm-30.4-12.92c9.35 3.53 19.45 6.48 30.09 8.81 3.29-1.86 6.4-4.06 9.24-6.56 9.42-8.29 11.34-22.23 4.5-32.49-4.31 5.16-17.29 18.58-43.82 30.24Z" class="b"/></svg>