<svg xmlns="http://www.w3.org/2000/svg" viewBox="0 0 180 180" style="enable-background:new 0 0 180 180" xml:space="preserve"><path d="M125.94 138.61c18.33-29.5 4.41-44.32 3.34-49.14-1.07-4.81.27-11.77-4.28-19.53-4.55-7.76-18.72-12.3-18.72-12.3-15.25-10.7-19.53-9.36-38.79-14.71-19.26-5.35-2.1-29.96 15.46-17.38 11.91 8.53 11 15.21 23.05 25.14 10.06 8.29 16.58-2.67 16.58-2.67l-4.1-4.34s-3.4 7.36-9.09-.93C103.7 34.46 92.53 7.78 67.48 8.32c-25.06.53-32.94 31.63-18.25 49.05l10.25 14.04s-9.95 3.2-13.68 6.57c0 0 4.02.53 4.85 2.13s1.01 4.62 3.68 6.75c0 0-2.49 11.55 3.02 19.55 0 0-10.13 13.15-11.02 21.15-.89 8 15.67 10.72 15.67 10.72l59.67 5.08 4.25-4.74Z" style="fill:#f8f8f8"/><path d="M90.44 32.31c4.91 5.71 6.85 11.2 15.57 18.38 10.06 8.29 16.58-2.67 16.58-2.67l-4.1-4.34s-2.86 6.19-7.72.82c-6.56 1.47-20.33-12.18-20.33-12.18Zm32.45 55.55c-2.74 3.55-9.84 5.58-17.74 4.64l9.95 3.46 5.67 3.37s7.26 10.3 4.28 18.2c-2.97 7.9-9.28 15.06-20.96 16.64l-1.96 7.51 19.55 1.67 4.25-4.74c18.33-29.5 4.41-44.32 3.34-49.14-1.07-4.81.27-11.77-4.28-19.53 0 0 .64 14.37-2.1 17.91Z" style="opacity:.15"/><path d="m70.99 99.09-8.25 2.32c-5.73.31-8.93-9.84-8.93-9.84l2.48 13.04c.32.61.67 1.21 1.07 1.79 0 0-10.13 13.15-11.02 21.15-.67 5.99 8.45 9.01 13.07 10.16-.46-.83-1.21-1.62-2.38-2.3-4.98-2.86-3.49-9.49-.59-18.68 2.9-9.19 14.54-17.64 14.54-17.64ZM52.53 13.34c-12.57 9.61-14.47 30.77-3.29 44.02l3.49 4.77 3.15-2.11s-19.69-19.43-3.35-46.68Z" style="fill:#fff;opacity:.2"/><path d="M121.69 145.35h-.17l-59.67-5.08c-.05 0-.1-.01-.15-.02-1.89-.31-18.41-3.31-17.34-12.91.79-7.13 8.06-17.58 10.58-21.02-4.06-6.98-3.23-15.62-2.76-18.72-1.67-1.73-2.31-3.7-2.79-5.2-.17-.54-.34-1.05-.5-1.36-.29-.33-1.96-.89-3.34-1.08-.77-.1-1.41-.64-1.65-1.39a2.01 2.01 0 0 1 .57-2.08c2.79-2.52 8.48-4.86 11.82-6.09l-8.62-11.8c-8.21-9.77-10.16-24.22-4.84-35.98C47.4 12.5 56.38 6.56 67.45 6.32h.78c21.93 0 33.6 19.84 39.91 30.55 1.12 1.91 2.09 3.56 2.92 4.75 1.37 1.99 2.75 3.14 3.64 3.07.86-.07 1.71-1.28 1.99-1.86.28-.59.85-1.02 1.5-1.12.65-.1 1.31.12 1.77.6l4.1 4.34c.61.65.72 1.63.26 2.4-.14.23-3.4 5.6-9.09 6.59-3.48.61-7.01-.54-10.49-3.4-6.02-4.96-8.88-9.07-11.64-13.05-2.78-4-5.41-7.78-11.3-12.01-7.31-5.24-13.26-2.7-15.47-1.36-3.53 2.13-5.69 5.83-5.25 9.01.39 2.85 2.86 5.05 6.96 6.19 4.76 1.32 8.58 2.23 11.94 3.03 10.05 2.38 15.62 3.71 27.22 11.81 2.18.74 14.99 5.33 19.54 13.1 3.41 5.82 3.74 11.17 4.01 15.48.11 1.78.21 3.32.5 4.63.13.57.66 1.65 1.23 2.8 3.58 7.23 11.03 22.29-4.83 47.82-.06.1-.13.19-.21.28l-4.25 4.74c-.38.42-.92.67-1.49.67Zm-59.42-9.07 58.6 4.99 3.46-3.86c14.57-23.55 7.8-37.22 4.55-43.79-.74-1.49-1.32-2.67-1.55-3.71-.36-1.61-.47-3.38-.58-5.24-.25-4.08-.54-8.71-3.47-13.7-4.1-7-17.48-11.37-17.61-11.41-.19-.06-.37-.15-.54-.27C94 51.48 89 50.29 79.05 47.93c-3.4-.81-7.25-1.72-12.09-3.06-7.74-2.15-9.5-6.87-9.86-9.5-.65-4.79 2.22-10 7.15-12.97 6.03-3.63 13.45-3.06 19.87 1.54 6.46 4.62 9.28 8.68 12.26 12.98 2.61 3.76 5.31 7.64 10.9 12.25 2.52 2.08 4.96 2.94 7.24 2.55 2.51-.43 4.43-2.27 5.48-3.52l-1.29-1.37c-.86.89-2.08 1.72-3.67 1.86-2.49.21-4.95-1.4-7.28-4.79-.9-1.31-1.9-3.02-3.06-4.99-6.31-10.72-16.82-28.58-36.46-28.58h-.69c-9.47.2-17.15 5.29-21.06 13.95-4.7 10.41-2.97 23.19 4.3 31.81.03.04.06.07.09.11l10.25 14.04c.38.52.49 1.19.29 1.8-.2.61-.68 1.09-1.29 1.29-1.91.61-6.31 2.21-9.68 4 .84.46 1.59 1.07 2.01 1.87.32.61.53 1.28.76 1.99.47 1.47.96 2.99 2.39 4.13a2 2 0 0 1 .71 1.98c-.02.11-2.23 10.82 2.71 17.99.49.71.47 1.67-.06 2.36-.1.13-9.8 12.8-10.62 20.15-.55 4.94 10.06 7.86 13.94 8.51Zm63.67 2.33Z"/><path d="M132.11 128.46h-.19c-1.1-.1-1.91-1.08-1.81-2.17 2.56-27.74-25.09-31.63-26.27-31.78a2.004 2.004 0 0 1-1.73-2.24c.14-1.1 1.15-1.87 2.23-1.73.33.04 32.66 4.5 29.75 36.12-.1 1.04-.97 1.82-1.99 1.82ZM57.37 108.4c-.52 0-1.04-.2-1.43-.6-.77-.79-.76-2.05.03-2.83.37-.37 9.31-8.97 20.02-8.21 1.1.08 1.93 1.04 1.85 2.14a1.998 1.998 0 0 1-2.14 1.85c-8.93-.64-16.86 7-16.94 7.08-.39.38-.89.57-1.4.57Z"/><path d="M65.48 63.07c-10.05-1.71-26.93-8.14-45.44-30.25 0 0 11.72 34.98 44.12 41.73h.06c7.31.44 8.49-10.26 1.26-11.49Z" style="fill:#fff"/><path d="M51.95 70.33c3.7 1.83 7.76 3.3 12.21 4.23h.06c6.25.38 8.01-7.38 3.88-10.41-.05.24-2.39 10.46-16.15 6.18Z" style="opacity:.15"/><path d="M64.65 76.57c-.18 0-.37 0-.55-.02-.1 0-.25-.02-.34-.04-33.13-6.91-45.11-41.58-45.6-43.05-.31-.91.08-1.91.92-2.38.84-.47 1.89-.28 2.51.46C39.36 52.77 55.46 59.33 65.83 61.1c4.8.82 6.89 4.95 6.47 8.6-.4 3.48-3.14 6.87-7.63 6.87Zm-.24-4.01c2.6.09 3.71-1.72 3.9-3.32.19-1.66-.52-3.75-3.17-4.2-9.18-1.56-22.54-6.6-37.46-21.03 6.23 10.43 17.88 24.56 36.72 28.55Z"/><path d="M98.97 68.78c-1.64-4.02-8.53-5.11-8.53-5.11 3.4 3.91-.5 5.79 2.59 9.69 2.57 3.25 7.56-.64 5.95-4.58Z" style="fill:#1a1a1a"/><path d="M40.97 157.5v3.5h98.55v-3.5c.03-10.5.05-19.65-13.48-23.08 0 0-47.96-4.77-71.59 0-13.53 3.44-13.51 12.58-13.48 23.08Z" style="fill:#f8f8f8"/><path d="M125.15 134.36c-9.31-1.88-22.49-2.24-34.9-2-12.41-.24-25.59.12-34.9 2-9.11 2.31-11.92 7.28-12.78 13.51 0 0 7.73-7.46 47.68-7.46s47.68 7.46 47.68 7.46c-.86-6.23-3.67-11.2-12.78-13.51Z" style="fill:#fff;opacity:.2"/><path d="M139.52 163H40.97c-1.1 0-2-.9-2-2v-3.49c-.03-10.43-.06-21.21 14.99-25.03 23.75-4.8 70.31-.25 72.28-.05.1 0 .2.03.29.05 15.05 3.82 15.02 14.6 14.99 25.03v3.5c0 1.1-.9 2-2 2Zm-96.55-4h94.55v-1.5c.03-10.46.05-18.03-11.83-21.1-2.97-.29-48.43-4.54-70.84-.02-11.92 3.03-11.91 10.62-11.88 21.12s0 1.5 0 1.5Z"/><path d="M114.28 112.54c-5.97 12.48-23.8 16.87-36.26 12.88-.87-.28-1.74-.57-2.59-.94 1.8-.58 3.53-.92 5.25-1.27 3.32-.78 6.66-1.35 9.96-2.18 8.31-1.91 15.94-4.46 23.64-8.48Zm-5.58-7.26c-6.98 5.99-18.77 6.09-26.45 1.37 4.43-.57 8.85-.49 13.26-.7 3.28-.15 9.9-.49 13.18-.67Z" style="opacity:.15"/></svg>