<svg version="1.1" id="Layer_1" xmlns="http://www.w3.org/2000/svg" x="0" y="0" viewBox="0 0 180 180" style="enable-background:new 0 0 180 180" xml:space="preserve"><style>.st0{fill:#fff}.st1{fill:#040000}</style><g id="Layer_2"><g id="Layer_1-2"><path class="st0" d="M50.3 51.8c-5.4-4.7-11.5-8.3-18.2-10.9-.2 7.2.9 14.4 3.4 21.2l.3.8-.6.6c-.7.7-1.4 1.4-2.1 2.2l-.3.3c-.3.4-.7.8-1 1.2-.8.9-1.5 1.9-2.2 2.9-.2.4-.7 1.2-1.5 2.3-1.5 2.3-2.3 5.9-2.3 10.3v.1c-.4 4.6-4.6 11.7-10.1 20.3-4.6 7.3-8.2 11.9-8.2 15.9 0 2.8.4 5.6 1.2 8.2 1.4 4.9 6.1 9 11.5 11.1l4.3-2.4s4 3.3 8 3.3 9.3-7.3 10.4-9.3c0 0 .9-5.3 4.1-8.6 3.7-3.8 8.9-4.4 15.8-6.9 6.5-1.8 11.1-8.3 11.1-8.3.2 4.6-.4 9.2-1.7 13.7-2.3 6.4-8 12.1-13.5 17.5l-3.2 3.2c-3.8 3.9-5.2 6.1-5.7 7-3.9 6.9-5 11.3-5.3 13.3-.5 2.8-.6 5.6-.4 8.4h94.2v-15.8c0-13.5-.5-30.9-4.7-46-3.4-11.9-9.7-24.1-16.8-32.5-10-11.9-27-19.2-39.7-19.8-3-.2-6.1-.2-9.2 0-1-2.5-2.8-8.6-9.9-13.4-3.3 2.9-6 6.3-7.7 10.1z"/><path class="st1" d="M139.7 170.9H42.9l-.2-1.2c-.3-3-.1-6 .4-8.9.3-2 1.5-6.6 5.4-13.7.6-1.2 2.2-3.5 5.9-7.3 1-1.1 2.1-2.1 3.2-3.2 5.4-5.4 11-11 13.2-17 1-3.1 1.5-6.2 1.6-9.5-2.5 2.7-5.7 4.8-9.3 5.9-1.9.7-3.8 1.3-5.4 1.8-4.2 1.3-7.5 2.3-9.9 4.8-2.9 2.9-3.8 7.8-3.8 7.8v.2l-.1.2c-.7 1.3-6.5 10.1-11.6 10.1-3.3 0-6.6-2-8.1-3.1l-4.1 2.3-.6-.2c-6.2-2.4-10.9-7-12.4-12-.9-2.8-1.3-5.7-1.3-8.6 0-3.7 2.4-7.3 5.8-12.5.8-1.3 1.7-2.6 2.7-4.1 4.8-7.6 9.5-15.3 9.8-19.7v-.1c0-4.6.9-8.4 2.5-11 .7-1.1 1.2-1.8 1.4-2.2.8-1.1 1.6-2.2 2.5-3.1.3-.3.6-.7 1-1.1l.2-.3c.7-.8 1.4-1.6 2.1-2.3-2.5-7-3.7-14.3-3.5-21.7l.1-1.9 1.8.7c6.2 2.4 12 5.7 17.2 10 1.8-3.4 4.3-6.4 7.4-8.7l.8-.6.8.6c4.7 3.2 8.2 7.8 10.1 13.1 2.7-.1 5.5-.1 8.2.1 11.9.6 29.7 7.2 40.7 20.3 7.2 8.5 13.6 20.9 17.1 33 4.2 15.3 4.8 32.8 4.8 46.4l.4 16.7zm-94.2-2.8H137v-14.3c0-13.4-.5-30.7-4.7-45.7-3.4-11.8-9.5-23.7-16.5-32C105.3 63.7 88.3 57.4 77 56.8c-3-.2-6-.2-9 0l-1 .1-.6-1.5c-1.5-4.6-4.4-8.7-8.3-11.6-2.8 2.4-5 5.3-6.6 8.6l-.8 1.7-1.4-1.2c-4.7-4.2-10.1-7.5-16-9.9 0 6.4 1.1 12.7 3.3 18.7l.6 1.6-1.2 1.2c-.7.7-1.3 1.4-2 2.1l-.1.4c-.4.5-.8.9-1.1 1.2-.7.9-1.4 1.7-2 2.7-.2.4-.8 1.3-1.5 2.3-1.3 2-2 5.4-2 9.5v.2c-.4 4.6-4.1 11.2-10.3 21.1-.9 1.5-1.8 2.9-2.7 4.1-3.1 4.8-5.4 8.2-5.4 11 0 2.6.3 5.3 1.1 7.8 1.2 4.1 5.1 7.9 10.1 10l4.6-2.5.7.6s3.7 3 7.1 3c2.9 0 7.8-6.1 9.1-8.4.2-1.1 1.3-5.9 4.5-9.1 2.9-3 6.7-4.1 11-5.5 1.7-.5 3.4-1 5.3-1.7h.1c6-1.6 10.3-7.7 10.3-7.8l2.2-3.1.3 3.8c.2 4.8-.4 9.6-1.8 14.2-2.4 6.7-8.2 12.4-13.8 18l-3.2 3.2c-3.8 3.9-5.1 6-5.5 6.7-3.8 6.7-4.8 11-5.1 12.8-.4 2.4-.6 4.7-.4 7z"/><path class="st1" d="M24.5 137.4c-.8 0-1.4-.6-1.4-1.4 0-.5.3-.9.7-1.2 3.3-2.1 6.2-4.7 8.6-7.7.5-.6 1.4-.7 1.9-.2.6.5.7 1.4.2 1.9-2.7 3.2-5.8 6-9.4 8.3-.1.3-.3.4-.6.3zm49.4-29.7c-.8 0-1.4-.6-1.4-1.4 0-.2.1-.5.2-.7 1.6-3.3 2.6-6.8 2.8-10.5 0-.7.7-1.3 1.4-1.3h.1c.8.1 1.3.7 1.3 1.5-.3 4.1-1.3 8-3.2 11.6-.3.5-.7.8-1.2.8zm-56.1 14.9c-1 0-1.8-.8-1.8-1.8 0-.3.1-.6.2-.9 1.2-1.9 3.9-5 6.4-4.2.8.2 2.1 1.1 1.9 3.7 0 .8-.5 1.4-1.3 1.6l-4.9 1.6c-.2-.1-.3 0-.5 0z"/><circle class="st1" cx="43" cy="81" r="4.3"/><path class="st1" d="M48.2 61.1c-.8 0-1.4-.6-1.4-1.4.2-2.9 1-5.8 2.3-8.5.2-.7 1-1.1 1.7-.9.7.2 1.1 1 .9 1.7v.1c0 .1 0 .1-.1.2-1.1 2.3-1.8 4.8-2 7.3 0 .9-.6 1.5-1.4 1.5zm21.6 5.1c-.7 0-1.2-.5-1.3-1.1-.6-3.3-1.5-8.4-1.8-9.1-.3-.7 0-1.5.7-1.9.7-.3 1.5 0 1.9.7 0 0 0 .1.1.1.5 1.3 1.7 8.2 1.9 9.6.1.7-.4 1.5-1.1 1.6-.2.1-.3.1-.4.1zM37.6 86.1c-.3 0-.5-.1-.7-.2-.9-.4-1.3-1.5-.9-2.4 2.3-5 6.3-9 11.3-11.2.9-.4 2 0 2.4.9s0 2-.9 2.4l-.1.1c-4.1 1.9-7.4 5.2-9.3 9.3-.4.7-1 1.1-1.8 1.1z"/><path class="st0" d="m164.6 60.7-23.4 17-5.6 1.8-4 3.5-3.5 8.1c-1.6-.1-1.8-6.8-5.4-9.2-4.6-3-6.2-6.5-10.2-10.3-4-3.8-6.2-4-9.6-8.3-2.6-3.4-11-4.1-11.2-5.7l7.8-4.1 3.1-4.2 1.3-5.8 14.9-24.7 1.4.6-4.6 24 18.2-18.7 1.3.7-10.4 24.4 21.7-16.1 1 .9-14.3 23L156.7 45l.8 1.2-17.1 19.7 23.4-6.6.8 1.4z"/><path class="st1" d="m132 83.2 3.7-3.2 5.6-1.8 24-17.4-1.3-2.4-21.7 6.1 15.9-18.3-1.5-2.2-21.6 11.4 13.1-21.2-1.9-1.7-20.1 14.9 9.6-22.5-2.3-1.3-16.9 17.3 4.3-22.1-2.5-1.1L103.1 43l-1.3 5.8-2.9 4-8.1 4.2 1.6.8 7.5-3.9 3.2-4.5 1.3-5.8L119 19.4l.3.1-5 25.7 19.5-20 .3.1-11.2 26.2 23.4-17.3.1.1L131 59.2l25.2-13.4.2.3-18.3 21.1 25.2-7.1.2.3-22.8 16.5-5.6 1.8-4.2 3.7-3.3 7.8h-.1l.9 1.5 3.6-8.5z"/><circle class="st0" cx="121.5" cy="14.6" r="4.8"/><path class="st1" d="M117.8 18.7c-2.2-2.1-2.3-5.5-.3-7.8s5.5-2.3 7.8-.3c2.2 2 2.3 5.5.3 7.7-2.1 2.3-5.5 2.4-7.8.4zm6.5-7.1c-1.7-1.5-4.2-1.4-5.8.2s-1.4 4.2.2 5.8c1.7 1.5 4.2 1.4 5.8-.2 1.5-1.7 1.4-4.3-.2-5.8-.1 0-.1 0 0 0z"/><circle class="st0" cx="150.2" cy="30.5" r="4.8"/><path class="st1" d="M146.4 34.5c-2.2-2.1-2.3-5.5-.3-7.8s5.5-2.3 7.8-.3a5.5 5.5 0 0 1 .3 7.7c-2 2.4-5.5 2.5-7.8.4.1.1.1.1 0 0zm6.5-7c-1.7-1.5-4.2-1.4-5.8.2s-1.4 4.2.2 5.8c1.7 1.5 4.2 1.4 5.8-.2 1.6-1.7 1.5-4.3-.2-5.8z"/><circle class="st0" cx="136.8" cy="20.7" r="4.8"/><path class="st1" d="M133.1 24.8c-2.2-2.1-2.3-5.5-.3-7.8s5.5-2.3 7.8-.3c2.2 2 2.3 5.5.3 7.7-2.1 2.3-5.5 2.5-7.8.4zm6.5-7.1c-1.7-1.5-4.2-1.4-5.8.2s-1.4 4.2.2 5.8 4.2 1.4 5.8-.2c1.5-1.7 1.4-4.2-.2-5.8z"/><circle class="st0" cx="161" cy="43" r="4.8"/><path class="st1" d="M157.3 47c-2.2-2.1-2.4-5.5-.3-7.8 2.1-2.2 5.5-2.4 7.8-.3 2.2 2 2.4 5.5.3 7.7-2.1 2.4-5.5 2.5-7.8.4 0 .1 0 .1 0 0zm6.5-7c-1.7-1.5-4.2-1.4-5.8.3-1.5 1.7-1.4 4.2.3 5.8 1.7 1.5 4.2 1.4 5.8-.2 1.4-1.8 1.3-4.4-.3-5.9z"/><circle class="st0" cx="168.4" cy="57.8" r="4.8"/><path class="st1" d="M164.7 61.8c-2.2-2.1-2.3-5.5-.3-7.8 2.1-2.2 5.5-2.3 7.8-.3a5.5 5.5 0 0 1 .3 7.7c-2.1 2.3-5.5 2.5-7.8.4 0 .1 0 0 0 0zm6.5-7c-1.7-1.5-4.2-1.4-5.8.2s-1.4 4.2.2 5.8 4.2 1.4 5.8-.2c1.5-1.7 1.4-4.3-.2-5.8zm-68.7-4.9.3-1.4c.3.1 8.2 2.1 19.4 12.4s13.8 18 13.9 18.3l-1.4.5c0-.1-2.7-7.7-13.6-17.7s-18.5-12.1-18.6-12.1z"/><path class="st1" d="M103.7 44.4c-.3-.2-.4-.6-.5-.9l1.4-.3v.1c.3.2 1.8-.4 3.2-1.5l.7-.5.3.8c.5 1.2 1.2 2.4 2 3.4 2.4 2.2 3.9 2 7.4 1.4l.8-.1.1.7c.5 4.1 4.2 7.1 8.3 6.6l.9-.1-.1.9c-.3 2.2.6 4.4 2.3 5.9 1.4 1.2 3.1 1.9 4.9 2h.8l-.1.8c-.4 3.5-.6 5.1 1.8 7.3 1.1.7 2.4 1.2 3.7 1.5l1 .3-.6.8c-.6.8-1.3 2.3-1.1 3 0 .2.2.3.3.3l-.6 1.3c-.5-.2-1-.7-1.1-1.3-.1-1.2.1-2.4.8-3.4-1.2-.3-2.4-.9-3.4-1.6-2.7-2.6-2.7-4.6-2.4-7.8-1.9-.2-3.7-1-5.1-2.3-1.8-1.6-2.8-3.8-2.7-6.2-4.3.1-8.1-2.9-8.9-7.2-3.2.5-5.3.7-8-1.8-.8-.9-1.5-2-2-3.1-1.1.7-2.7 1.6-3.9 1.1.1.2-.1.1-.2-.1zm27.2 38.8c-7.3-12.7-18.3-22.9-31.7-29.1l.6-1.3c13.6 6.3 24.9 16.7 32.4 29.8l-1.3.6zm-3.5 7.9c-.2-1-1-3.1-4.2-7.2-3.4-4.3-7.1-8.3-11.2-12-4-3.7-8.3-7.1-12.8-10.1-4.4-2.8-6.5-3.5-7.5-3.6l.1-1.4c1.8.1 4.4 1.4 8.2 3.8 4.6 3 9 6.5 13 10.3 4.1 3.7 7.9 7.8 11.3 12.1 2.7 3.5 4.2 6.1 4.5 7.9l-1.4.2z"/></g></g></svg>