<svg xmlns="http://www.w3.org/2000/svg" viewBox="0 0 180 180" style="enable-background:new 0 0 180 180" xml:space="preserve"><path d="M53.2 157.5v3.5h98.55v-3.5c.03-10.5.05-19.65-13.48-23.08 0 0-47.96-4.77-71.59 0C53.15 137.86 53.17 147 53.2 157.5Z" style="fill:#f8f8f8"/><path d="M137.38 134.36c-9.31-1.88-22.49-2.24-34.9-2-12.41-.24-25.59.12-34.9 2-9.11 2.31-11.92 7.28-12.78 13.51 0 0 7.73-7.46 47.68-7.46s47.68 7.46 47.68 7.46c-.86-6.23-3.67-11.2-12.78-13.51Z" style="fill:#fff;opacity:.2"/><path d="M151.75 163H53.2c-1.1 0-2-.9-2-2v-3.49c-.03-10.43-.06-21.21 14.99-25.03 23.75-4.8 70.31-.25 72.28-.05.1 0 .2.03.29.05 15.05 3.82 15.02 14.6 14.99 25.03v3.5c0 1.1-.9 2-2 2Zm-96.55-4h94.55v-1.5c.03-10.46.05-18.03-11.83-21.1-2.97-.29-48.43-4.54-70.84-.02C55.16 139.41 55.17 147 55.2 157.5s0 1.5 0 1.5Z"/><path d="M113.24 133.43s5.59 9.03 11.69 11.31c0 0 3.22-7.18 9.53-11.31 0 0 8.05 4.57 11.53 11.31 0 0 6.96-5.03 2.55-21.44-4.17-19.56-6.93-50.29-14.97-66.36-10.08-20.17-26.18-28.3-53.83-26.86-27.65 1.44-30.41 19.25-30.41 19.25l2.58 22.93s22.3 10.86 10.76 28.59c-8.32 12.77-7.53 25.2-6.44 31.15s1.24 8.03 4.14 12.74c0 0 4.68-9.37 12.08-11.16l.77-.1c.2.62 2.47 7.32 8.8 11.26 0 0 3.81-8.16 10.34-11.31 0 0 3.71 7.93 10.7 11.31 0 0 2.82-7.81 10.19-11.31Z" style="fill:#f8f8f8"/><path d="M148.54 123.3c-3.6-16.91-6.16-42.17-11.98-59.08 0 0 8.39 49.83 3.1 61.26-2.17-4.77-9.78-7.68-9.78-7.68-4.26 2.95-8 11.07-8 11.07s-.54-.33-1.37-.79c-3.93-2.59-7.01-7.5-7.01-7.5-7.21 3.11-11.94 12.73-11.94 12.73s-1.36-1.48-2.73-3.18c-2.37-3.9-3.83-9.38-3.83-9.38-8.35 3.44-13.75 12.56-13.75 12.56-3.11-5.61-1.48-14.53-1.48-14.53-19.82 13.26-19.41 25.96-19.41 25.96s4.68-9.37 12.08-11.16l.77-.1c.2.62 2.47 7.32 8.8 11.26 0 0 3.81-8.16 10.34-11.31 0 0 3.71 7.93 10.7 11.31 0 0 2.82-7.81 10.19-11.31 0 0 5.59 9.03 11.69 11.31 0 0 3.22-7.18 9.53-11.31 0 0 8.05 4.57 11.53 11.31 0 0 6.96-5.03 2.55-21.44Z" style="opacity:.15"/><path d="M79.74 30.08c-27.65 1.44-30.41 19.25-30.41 19.25v.04l4.51 3.29s3.06-18.33 33.01-22.73c-2.28-.03-4.65.02-7.11.15Z" style="fill:#fff;opacity:.2"/><path d="m51.26 66.51.65 5.75s11.3 5.5 13.65 15.07c9.06-8.52 10.03-22.07 10.03-22.07l-24.32 1.25Z" style="opacity:.15"/><path d="M124.92 146.74c-.23 0-.47-.04-.7-.13-5.07-1.9-9.64-7.72-11.63-10.56-5.41 3.36-7.64 9.3-7.67 9.37-.19.53-.61.96-1.13 1.17-.52.21-1.12.2-1.62-.05-5.41-2.62-8.96-7.62-10.6-10.36-4.81 3.25-7.72 9.34-7.75 9.41-.24.52-.7.91-1.24 1.07-.55.16-1.14.08-1.62-.22-5.13-3.2-7.83-8.04-8.97-10.63-5.9 2.09-9.79 9.75-9.83 9.83-.33.65-.98 1.07-1.7 1.1-.74.03-1.41-.33-1.79-.95-3.07-5-4.36-13.14-4.41-13.48-1.18-6.44-1.89-19.31 6.74-32.55 2.77-4.25 3.62-8.39 2.53-12.32-2.31-8.33-12.38-13.32-12.49-13.37-.62-.3-1.04-.89-1.11-1.57l-2.58-22.93c-.02-.18-.02-.36.01-.53.12-.79 3.35-19.43 32.28-20.94 28.52-1.49 45.18 6.87 55.72 27.96 5.79 11.58 8.9 30.54 11.64 47.27 1.16 7.08 2.26 13.78 3.48 19.51 4.68 17.51-3 23.29-3.33 23.53-.47.34-1.07.46-1.64.32-.57-.13-1.04-.51-1.31-1.03-2.45-4.75-7.49-8.41-9.69-9.84-5.09 3.83-7.75 9.68-7.77 9.74-.33.74-1.06 1.18-1.83 1.18Zm-11.69-15.32c.67 0 1.33.34 1.7.95 1.29 2.08 5.15 7.36 9.11 9.72 1.45-2.55 4.54-7.21 9.31-10.34.63-.41 1.43-.44 2.08-.07.31.17 6.7 3.84 10.77 9.59 1.39-2.5 2.99-7.81.4-17.47 0-.03-.02-.07-.02-.1-1.25-5.84-2.35-12.6-3.53-19.76-2.7-16.45-5.76-35.09-11.28-46.12-9.72-19.44-25.24-27.15-51.94-25.75-24.14 1.26-28.05 15.24-28.5 17.33l2.43 21.58c2.91 1.63 11.26 6.94 13.6 15.37 1.41 5.08.39 10.33-3.03 15.58-7.87 12.08-7.23 23.79-6.14 29.7.02.1.77 4.83 2.37 8.94 2.2-3.17 6.14-7.66 11.41-8.94.07-.02.13-.03.2-.04l.77-.1c.96-.13 1.87.45 2.17 1.37.08.24 1.75 5.29 6.21 8.93 1.67-2.82 5.15-7.76 10.15-10.17.48-.23 1.04-.26 1.54-.08s.92.55 1.14 1.04c.03.06 2.86 5.96 7.97 9.34 1.45-2.8 4.64-7.64 10.24-10.3.28-.13.57-.19.86-.19Z"/><path d="M86.52 45.15c-.82-.09-1.41 0-1.83.19l-1.67-.19H76.5l-7.16 1.56-3.6 2.12-.85.5s.03.05.1.15l-2.4 2.08s2.31-.85 6.75 2.09c2.03 1.35 4.75 2.52 8.13 2.62 4.21.12 6.89-2.59 8.5-5.29s4.11-3.41 7.42-2.33c0 0-2.61-3.03-6.87-3.49Z" style="opacity:.15"/><path d="M68.57 47.73s2.54-1.77 7.06-2.48c3.31-.52 6.47.96 6.77 3.86.3 2.89-2.7 4.55-6.77 4.27-4.07-.28-7.06-5.66-7.06-5.66Z" style="fill:#1a1a1a"/><path d="M63.47 50.31c4.21-5.97 12.49-7.78 19.36-6.68 2.34.38 4.61 1.16 6.67 2.35-1.2.27-2.34.33-3.47.46-7.73.72-15.08 1.52-22.57 3.88Z"/><path d="M33.05 83.1s-9.38-8.21-1.96-21.71c6.69-12.17 18.24-12.07 18.24-12.07s6.68 5.73 12.19 6.93c5.52 1.2 13.17 5.24 14.06 9 0 0-20.96 9.18-41.82 8.57 0 0-1.6 3.96-.71 9.28Z" style="fill:#fff"/><path d="M49.33 49.33s-3.06-.02-6.95 1.61h-.02c-3.65 1.54-8.03 4.55-11.27 10.44-7.42 13.5 1.96 21.71 1.96 21.71-.89-5.32.71-9.28.71-9.28s-.5-4.52 3.04-10.92c.06-.11 6.35-11.25 17.04-10.25l-4.51-3.33Z" style="fill:#fff;opacity:.2"/><path d="M33.05 85.1c-.47 0-.94-.17-1.32-.5-.11-.09-10.5-9.44-2.39-24.18 7.07-12.86 19.11-13.1 19.98-13.1h.03c.47 0 .93.17 1.28.48.06.05 6.37 5.41 11.32 6.49 5.79 1.26 14.42 5.6 15.58 10.5.22.94-.26 1.9-1.14 2.29-.85.37-20.65 8.93-41.14 8.76-.34 1.43-.72 3.95-.22 6.92.14.83-.26 1.67-1 2.08-.31.17-.64.25-.97.25Zm15.6-33.74c-2.4.2-10.62 1.56-15.81 11-3.28 5.96-2.96 10.72-1.78 14.01.32-1.97.81-3.2.84-3.3.31-.77 1.08-1.3 1.91-1.25 16.5.47 33.26-5.38 38.94-7.58-2.05-2.31-7.17-5.06-11.66-6.04-4.98-1.08-10.59-5.35-12.45-6.85Z"/><path d="M45.47 55.96s2.95-.78 3.62.39-.17 2.17-1.81 1.62-1.81-2.01-1.81-2.01Z" style="fill:#1a1a1a"/><path d="M128.05 90.07c3.94 6.31 4.56 16.46 1.55 23.25-.6-3.86-.74-7.73-1.03-11.61-.23-3.9-.53-7.67-.51-11.64Zm-9.53 5.6c3.09 6.77 2.39 16.91-1.47 23.25-.1-3.91.27-7.76.48-11.64.28-3.9.47-7.67 1-11.61Z" style="opacity:.15"/></svg>