<svg xmlns="http://www.w3.org/2000/svg" xml:space="preserve" style="enable-background:new 0 0 180 180" viewBox="0 0 180 180"><path d="M25.17 56.25c-1.96 2.52-5.88 7.56-9.1 12.78-3.22 5.22-5.75 10.62-7.75 15.92-2 5.29-3.47 10.49-4.35 16.53-.87 6.03-1.15 12.91-.52 20.39.63 7.47 2.17 15.54 3.19 19.16 1.01 3.61 1.5 2.77 2.81.47 1.3-2.29 3.43-6.05 5.38-8.35 1.94-2.29 3.74-3.15 5.64-3.47 1.89-.31 3.9-.09 6.19.75 2.29.85 5.08 2.47 7.28.83 2.19-1.63 3.91-6.45 6.22-10.15 2.3-3.7 5.2-6.28 6.88-8.07 1.68-1.78 2.15-2.78 2.39-5.56.23-2.77.23-6.99-.78-10.48-1.01-3.48-3.09-6.12-5.8-10.5-2.7-4.38-6.05-10.54-8.15-15.29-2.09-4.74-2.93-8.08-3.98-10.76-1.05-2.68-2.32-4.7-2.96-5.71-.63-1.01-.63-1.01-2.59 1.5zm127.38 2.09c2.39-1.31 5.35 1.12 8.1 4.59 2.74 3.46 5.27 7.95 7.69 14.13 2.42 6.17 4.73 14.03 6.24 21.9 1.5 7.86 2.21 15.72 1.75 23.54-.45 7.82-2.07 15.61-3.33 18.56-1.26 2.94-2.17 1.05-3.45-1.31-1.28-2.36-2.93-5.21-4.65-7.05-1.71-1.84-3.49-2.69-5.39-3-1.89-.31-3.9-.09-6.24.78-2.34.88-5.03 2.43-7.18 1.05-2.15-1.38-3.78-5.71-5.62-9.24-1.83-3.53-3.86-6.26-5.35-7.8-1.49-1.53-2.43-1.87-3.14-4.74-.7-2.86-1.18-8.24-.56-11.93.61-3.69 2.31-5.68 3.83-7.73 1.52-2.04 2.86-4.13 4.72-7.52 1.85-3.38 4.21-8.06 6.3-12.93 2.08-4.87 3.9-9.95 6.29-11.27z" style="fill:#fff"/><path d="M54.51 77.21c8.5 2.85 9.3 9.72 9.3 9.72l4.95-8.98-10.27-.2-3.98-.54ZM28.02 54.59s.31 28.67 20.25 57.69l6.43-1.75 5.66.47L49.9 96.9l-9.34-13.04-7.09-14.03-5.44-15.23Z" style="opacity:.2"/><path d="M27.14 53.73s-9.11 16.82-8.42 36.87c.69 20.05.49 32.23-3.69 41.12l5.34-2.54 6.03.65 8.05 4.66-6.94-23.48-3.87-23.27.98-20.87 2.53-13.13Z" style="opacity:.2"/><path d="m28.84 54.59 4.62 15.22 10.06 18.48 18.05 22.9-.64-8.49 1.63-11.92 4.04-9.85 5.62-5.88.58-4.33-2.41-3.11-3.36-.39-4.28 2.27-6.08 1.8-7.38-.52-7.6-3.38-8.38-6.55-4.47-6.25z" style="fill:#fff"/><path d="M32.93 62.75s17.5 19.75 16.76 33.36l11.88 15.07V94.1l6.2-16.61-13.26-.29-11.55-4.36-4.13-3.37-5.89-6.73Z" style="opacity:.2"/><path d="M58.42 70.77s-3.29 2.81-4.36 6.55l8.64.56 8.01-1.25 2.31-3.01-.72-4.13-3.54-2.39-10.34 3.68Z" style="opacity:.2"/><path d="M7.49 148.99c-.86 0-1.64-.56-1.9-1.39-16.15-50.69 13.26-92.49 20.9-95.77 1.8-.78 3.06 0 3.61.91.02.04.04.07.06.11 2 3.62 5.36 9.67 16.3 14.77 7.76 3.62 14.11 1.22 18.07-1.42a6.543 6.543 0 0 1 6-.71c2.07.78 3.61 2.5 4.2 4.72.05.19.09.38.13.56.4 1.98-.03 4.07-1.19 5.72-.91 1.3-2.17 2.22-3.62 2.65-9.99 14.86-6.66 31.07-6.54 31.61.15.66-.03 1.38-.55 1.89-.49.48-1.16.65-1.78.53-6.06-1.12-11.14-.15-15.11 2.87-8.05 6.13-9.23 18.82-9.24 18.95-.06.74-.53 1.38-1.21 1.67-.68.29-1.46.18-2.04-.28-5.76-4.65-10.65-6.25-14.54-4.78-7.35 2.8-9.55 15.61-9.58 15.74-.15.91-.91 1.6-1.83 1.67h-.15Zm19.36-92.65c-3.16 2.75-10.39 11.86-15.8 26.3-4.95 13.22-9.29 33.41-3.54 57.02 1.75-4.49 4.86-9.82 10.1-11.82 4.61-1.76 9.9-.63 15.76 3.37.96-4.73 3.55-13.23 10.26-18.36 3.62-2.77 7.93-4.16 12.84-4.16h.1c-7.6-8.63-24.99-30.25-29.72-52.35Zm8.09 12.04c6.64 15.64 17.9 29.85 23.94 36.85-.24-6.11.55-15.77 6.06-25.45-14.6.97-24.1-5-30-11.4Zm8.47 2.2c5.81 3.89 13.94 6.44 25.13 4.78.72-.11 1.38-.53 1.84-1.19.53-.75.73-1.71.54-2.62-.02-.11-.05-.21-.08-.32-.26-.95-.89-1.69-1.75-2.01-.79-.3-1.65-.19-2.38.29-3.94 2.63-12.04 6.36-21.98 1.72-.46-.21-.91-.43-1.35-.65Z" style="fill:#1a1a1a"/><path d="M34.84 136.8c-.81 0-1.58-.5-1.88-1.31-.81-2.22-19.77-54.6-6.37-82.57.48-1 1.67-1.42 2.67-.94s1.42 1.67.94 2.67c-12.67 26.45 6.33 78.94 6.52 79.46a2.001 2.001 0 0 1-1.88 2.69Z" style="fill:#1a1a1a"/><path d="M125.49 77.21c-8.5 2.85-9.3 9.72-9.3 9.72l-4.95-8.98 10.27-.2 3.98-.54Zm26.49-22.62s-.31 28.67-20.25 57.69l-6.43-1.75-5.66.47 10.46-14.1 9.34-13.04 7.09-14.03 5.44-15.23Z" style="opacity:.2"/><path d="M152.86 53.73s9.11 16.82 8.42 36.87c-.69 20.05-.49 32.23 3.69 41.12l-5.34-2.54-6.03.65-8.05 4.66 6.94-23.48 3.87-23.27-.98-20.87-2.53-13.13Z" style="opacity:.2"/><path d="m151.16 54.59-4.62 15.22-10.06 18.48-18.05 22.9.64-8.49-1.63-11.92-4.04-9.85-5.62-5.88-.58-4.33 2.41-3.11 3.36-.39 4.28 2.27 6.08 1.8 7.38-.52 7.6-3.38 8.38-6.55 4.47-6.25z" style="fill:#fff"/><path d="M147.07 62.75s-17.5 19.75-16.76 33.36l-11.88 15.07V94.1l-6.2-16.61 13.26-.29 11.55-4.36 4.13-3.37 5.89-6.73Z" style="opacity:.2"/><path d="M121.58 70.77s3.29 2.81 4.36 6.55l-8.64.56-8.01-1.25-2.31-3.01.72-4.13 3.54-2.39 10.34 3.68Z" style="opacity:.2"/><path d="M172.51 148.99h-.15a2.01 2.01 0 0 1-1.83-1.67c-.02-.13-2.23-12.94-9.58-15.74-3.89-1.48-8.78.13-14.54 4.78-.58.47-1.36.57-2.04.28-.68-.29-1.14-.93-1.21-1.67-.01-.12-1.18-12.81-9.24-18.94-3.97-3.02-9.05-3.99-15.11-2.87l-.17.03c-.16.02-.31.01-.46 0-.35-.04-.68-.17-.97-.4-.08-.06-.16-.13-.23-.2-.04-.04-.07-.08-.11-.12a1.993 1.993 0 0 1-.42-1.58c0-.05.02-.09.03-.14.11-.52 3.45-16.74-6.54-31.61-1.44-.43-2.7-1.35-3.62-2.65a7.426 7.426 0 0 1-1.19-5.72c.04-.18.08-.37.13-.55.6-2.22 2.13-3.94 4.2-4.72 2.01-.76 4.2-.5 6 .71 3.96 2.65 10.31 5.04 18.07 1.42 10.97-5.11 14.32-11.18 16.31-14.8.53-.96 1.8-1.79 3.65-.99 7.64 3.29 37.05 45.08 20.9 95.77-.27.83-1.04 1.39-1.9 1.39Zm-14.52-21.95c1.53 0 3 .27 4.4.8 5.24 2 8.35 7.33 10.1 11.82 5.75-23.62 1.41-43.8-3.54-57.02-5.41-14.44-12.64-23.55-15.8-26.3-4.73 22.1-22.11 43.72-29.72 52.35h.1c4.91 0 9.22 1.39 12.84 4.16 6.71 5.12 9.3 13.63 10.26 18.36 4.07-2.78 7.87-4.17 11.36-4.17Zm-42.94-47.26c5.51 9.68 6.3 19.34 6.06 25.45 6.04-7 17.3-21.21 23.94-36.85-5.9 6.4-15.4 12.36-30 11.4Zm-3.27-10.72c-.3 0-.61.05-.91.17-.85.32-1.49 1.05-1.75 2.01-.03.1-.05.21-.07.32-.18.91.01 1.87.54 2.62.46.66 1.12 1.09 1.84 1.19 11.2 1.66 19.33-.89 25.14-4.78-.44.22-.89.44-1.35.65-9.94 4.64-18.04.91-21.98-1.72-.45-.3-.96-.46-1.47-.46Z" style="fill:#1a1a1a"/><path d="M145.16 136.8a2.001 2.001 0 0 1-1.88-2.69c.19-.53 19.19-53.02 6.52-79.46-.48-1-.06-2.19.94-2.67s2.19-.06 2.67.94c13.4 27.97-5.56 80.35-6.37 82.57a2 2 0 0 1-1.88 1.31Z" style="fill:#1a1a1a"/><path d="M65.49 143.36c-.1 0-.09.02.02.03l.32.37 48.3.54.82-.91c.11 0 .13-.02.02-.03 6.92-5.79 16.26-18.22 16.26-38.81s-13.36-35.6-21.92-44.11l-1.81-1.8-1.3 2.19c-1.48 2.51-8.73 14.32-9.04 44.18H83.55c.47-44.54 17.84-61.39 18.01-61.56l.64-.64-.07-.91c-.48-6.66-6.1-11.88-12.78-11.88-7.07 0-12.81 5.75-12.81 12.82 0 3.25 1.24 6.36 3.41 8.7-2.89 2.32-8.59 7.24-14.34 14.11-10.72 12.79-16.39 26.24-16.39 38.89 0 20.59 9.34 33.02 16.26 38.81Z" style="fill:#fff"/><path d="M80.89 50.48c-2.65-1.21-26.18 21.54-30.42 43.67-3.95 20.6 1.8 28.28 1.36 28.1.02-.13 2.14-47.12 31.9-69.21 0 0-1.34-1.87-2.84-2.56ZM91.18 31.9c-4.3.38-11.67 6.6-12.29 15.21 0 0-5.89-5.52.06-12.38 4.69-5.4 12.23-2.83 12.23-2.83Z" style="opacity:.2;fill:#fff"/><path d="M89.36 66.35c1.82-5.01 12.87-25.34 12.87-25.34l-5.49-9.1-2.85.06c9.1 11.15-17.81 36.6-17.81 55.88 0 5.64 2.21 16.17 6.31 18.24 0 0 3.17-29.34 6.95-39.75Zm27.59 3.94c22.5 54.6-27.45 72.85-27.45 72.85l25.47.21c-2.41 1.83 15.88-5.19 15.88-40.97 0-20.76-13.9-32.1-13.9-32.1Z" style="opacity:.2"/><path d="M114.13 146.29h-.02l-48.3-.54c-.58 0-1.12-.26-1.5-.7l-.14-.16c-.09-.08-.18-.16-.26-.25-5.25-4.49-16.69-16.95-16.69-40.1 0-13.13 5.83-27.02 16.85-40.18 4.97-5.93 9.91-10.44 13.09-13.12-1.7-2.46-2.62-5.38-2.62-8.41 0-8.17 6.65-14.82 14.81-14.82 7.73 0 14.22 6.03 14.78 13.73l.07.91c.04.58-.17 1.15-.58 1.56l-.64.64c-.69.68-16.45 16.7-17.38 58.14h9.61c.29-13.46 2.18-31.18 9.22-43.08l1.37-2.31c.31-.53.86-.89 1.47-.97.61-.08 1.23.13 1.66.57l1.81 1.8c5.57 5.54 22.5 22.4 22.5 45.53s-11.44 35.61-16.69 40.1c-.09.1-.19.19-.29.28l-.64.71c-.38.42-.92.66-1.49.66Zm-47.42-4.53 46.54.52.22-.24.03-.03c.06-.07.13-.13.2-.19 4.67-3.91 15.55-15.38 15.55-37.28 0-14.44-6.97-28.4-21.31-42.68l-.06.1c-5.49 9.28-8.5 24.17-8.69 43.06-.01 1.1-.9 1.98-2 1.98H83.58c-.53 0-1.05-.21-1.42-.59-.38-.38-.58-.89-.58-1.43.47-44.41 17.73-62.1 18.59-62.95-.41-5.62-5.15-10.01-10.79-10.01-5.96 0-10.81 4.85-10.81 10.82 0 2.73 1.02 5.34 2.88 7.35.38.41.57.95.52 1.5a2.01 2.01 0 0 1-.74 1.41c-2.83 2.27-8.42 7.1-14.06 13.83-10.42 12.43-15.92 25.43-15.92 37.61 0 21.79 10.76 33.25 15.47 37.22Z" style="fill:#1a1a1a"/><path d="M41.02 166.99v3.49h98.27v-3.49c.03-10.47.05-19.59-13.44-23.02 0 0-47.83-4.76-71.38 0-13.49 3.43-13.47 12.55-13.44 23.02Z" style="fill:#fff"/><path d="M126.13 143.97c-9.59-1.87-23.18-2.23-35.97-1.99-12.79-.24-26.37.12-35.97 1.99-9.39 2.3-12.29 7.24-13.17 13.43 0 0 7.97-7.42 49.14-7.42s49.13 7.41 49.14 7.42c-.88-6.19-3.78-11.13-13.17-13.43Z" style="opacity:.2;fill:#fff"/><path d="M98.34 138.08c-.3 0-.6-.07-.88-.21-5.69-2.8-9.23-8.05-9.23-13.7 0-1.1.9-2 2-2s2 .9 2 2c0 3.83 2.32 7.45 6.11 9.64 3.79-2.19 6.11-5.81 6.11-9.64 0-1.1.9-2 2-2s2 .9 2 2c0 5.65-3.54 10.9-9.23 13.7-.28.14-.58.21-.88.21Z" style="fill:#1a1a1a"/><path d="M90.23 126.18c-.3 0-.6-.07-.88-.21-5.69-2.8-9.23-8.05-9.23-13.7 0-1.1.9-2 2-2s2 .9 2 2c0 3.83 2.32 7.45 6.11 9.64 3.79-2.19 6.11-5.81 6.11-9.64 0-1.1.9-2 2-2s2 .9 2 2c0 5.65-3.54 10.9-9.23 13.7-.28.14-.58.21-.88.21Z" style="fill:#1a1a1a"/><path d="M74.01 126.18c-.3 0-.6-.07-.88-.21-5.69-2.8-9.23-8.05-9.23-13.7 0-1.1.9-2 2-2s2 .9 2 2c0 3.83 2.32 7.45 6.11 9.64 3.79-2.19 6.11-5.81 6.11-9.64 0-1.1.9-2 2-2s2 .9 2 2c0 5.65-3.54 10.9-9.23 13.7-.28.14-.58.21-.88.21Zm32.45 0c-.3 0-.6-.07-.88-.21-5.69-2.8-9.23-8.05-9.23-13.7 0-1.1.9-2 2-2s2 .9 2 2c0 3.83 2.32 7.45 6.11 9.64 3.79-2.19 6.11-5.81 6.11-9.64 0-1.1.9-2 2-2s2 .9 2 2c0 5.65-3.54 10.9-9.23 13.7-.28.14-.58.21-.88.21Z" style="fill:#1a1a1a"/><path d="M82.12 138.08c-.3 0-.6-.07-.88-.21-5.69-2.8-9.23-8.05-9.23-13.7 0-1.1.9-2 2-2s2 .9 2 2c0 3.83 2.32 7.45 6.11 9.64 3.79-2.19 6.11-5.81 6.11-9.64 0-1.1.9-2 2-2s2 .9 2 2c0 5.65-3.54 10.9-9.23 13.7-.28.14-.58.21-.88.21Z" style="fill:#1a1a1a"/><path d="M106.18 143.54s7.9 1.88 9.92 8.6l3.07-8.52s3.73 5.53 4.26 8.52l3.34-3.93s2.29 1.38 3.09 5.4l2.3-6.87-5.93-4.88-20.06 1.68Zm-33.69-.42s-7.85 2.3-9.87 9.02l-3.07-8.52s-3.73 5.53-4.26 8.52l-3.34-3.93s-2.29 1.38-3.09 5.4l-2.3-6.87 5.93-4.88 20.01 1.26Zm-6.98-11.86s9.09 1.32 11.85 9.61l.26 1.38-7.18-.13-4.94-10.86Z" style="opacity:.2"/><path d="M139.29 172.48H41.03c-1.1 0-2-.9-2-2V167c-.03-10.4-.06-21.15 14.95-24.96 23.67-4.79 70.11-.25 72.07-.05.1 0 .2.03.29.05 15.01 3.81 14.98 14.56 14.95 24.96v3.49c0 1.1-.9 2-2 2Zm-96.26-4h94.26v-1.5c.03-10.42.05-17.97-11.79-21.04-2.96-.29-48.29-4.53-70.64-.02-11.89 3.02-11.87 10.58-11.84 21.05v1.49Z" style="fill:#1a1a1a"/><path d="M57.65 143.71s0-9.72-6.38-9.7c-5.83.02-7.25 5.22-7.54 8.7 0 0-.36 6.31 4.28 10.36 0 0-.2-1.58-.03-3.46.32-3.35 3.15-5.91 6.52-5.91h3.15" style="fill:#fff"/><path d="M48.01 155.07c-.47 0-.94-.17-1.32-.49-5.31-4.65-4.97-11.69-4.96-11.98.56-6.72 4.03-10.56 9.53-10.58h.03c1.95 0 3.69.71 5.04 2.06 3.22 3.21 3.31 8.99 3.31 9.64 0 1.1-.9 2-2 2h-3.15c-2.36 0-4.3 1.76-4.52 4.09-.15 1.61.02 3 .02 3.01.1.82-.31 1.63-1.04 2.02-.3.16-.62.24-.94.24Zm-2.28-12.2s-.08 2.04.75 4.39a8.515 8.515 0 0 1 8.02-5.56h.98c-.34-2.28-1.32-5.7-4.18-5.7h-.01c-3.31.01-5.17 2.32-5.55 6.86Z" style="fill:#1a1a1a"/><path d="M64.15 142.08s0-9.72-6.38-9.7c-5.83.02-7.25 5.22-7.54 8.7 0 0-.36 6.31 4.28 10.36 0 0-.2-1.58-.03-3.46.32-3.35 3.15-5.91 6.52-5.91h3.15" style="fill:#fff"/><path d="M54.51 153.44c-.47 0-.94-.17-1.32-.49-5.31-4.65-4.97-11.69-4.96-11.98.56-6.72 4.03-10.56 9.53-10.58h.03c1.95 0 3.69.71 5.04 2.06 3.22 3.21 3.31 8.99 3.31 9.64 0 1.1-.9 2-2 2h-3.15c-2.36 0-4.3 1.76-4.52 4.09-.15 1.61.02 3 .02 3.01.1.82-.31 1.63-1.04 2.02-.3.16-.62.24-.94.24Zm-2.28-12.2s-.08 2.04.75 4.39a8.515 8.515 0 0 1 8.02-5.56h.97c-.34-2.28-1.32-5.7-4.18-5.7h-.01c-3.31.01-5.17 2.32-5.55 6.86Z" style="fill:#1a1a1a"/><path d="M71.57 142.08s0-9.72-6.38-9.7c-5.83.02-7.25 5.22-7.54 8.7 0 0-.36 6.31 4.28 10.36 0 0-.2-1.58-.03-3.46.32-3.35 3.15-5.91 6.52-5.91h3.15" style="fill:#fff"/><path d="M61.93 153.44c-.47 0-.94-.17-1.32-.5-5.31-4.65-4.97-11.69-4.96-11.98.56-6.72 4.03-10.56 9.53-10.58h.03c1.95 0 3.69.71 5.04 2.06 3.22 3.21 3.31 8.99 3.31 9.64 0 1.1-.9 2-2 2h-3.15c-2.36 0-4.3 1.76-4.52 4.09-.15 1.61.02 3 .02 3.01.11.83-.31 1.63-1.04 2.02-.3.16-.62.24-.94.24Zm-2.28-12.2s-.08 2.04.75 4.39a8.515 8.515 0 0 1 8.02-5.56h.98c-.34-2.28-1.32-5.7-4.18-5.7h-.01c-3.31.01-5.17 2.32-5.55 6.86Z" style="fill:#1a1a1a"/><path d="M121.07 143.71s0-9.72 6.38-9.7c5.83.02 7.25 5.22 7.54 8.7 0 0 .36 6.31-4.28 10.36 0 0 .2-1.58.03-3.46-.32-3.35-3.15-5.91-6.52-5.91h-3.15" style="fill:#fff"/><path d="M130.71 155.07c-.32 0-.65-.08-.94-.24a2 2 0 0 1-1.04-2.02s.17-1.4.02-3.01a4.516 4.516 0 0 0-4.52-4.09h-3.15c-1.1 0-2-.9-2-2 0-.65.09-6.44 3.31-9.64 1.35-1.35 3.09-2.06 5.04-2.06h.03c5.5.02 8.97 3.86 9.52 10.53.02.35.36 7.39-4.95 12.04-.37.33-.84.5-1.32.5Zm-7.46-13.36h.97c3.67 0 6.81 2.27 8.02 5.55.84-2.36.75-4.42.75-4.45-.38-4.48-2.24-6.79-5.55-6.8h-.02c-.9 0-1.61.28-2.22.89-1.14 1.14-1.71 3.19-1.96 4.81Z" style="fill:#1a1a1a"/><path d="M114.57 142.08s0-9.72 6.38-9.7c5.83.02 7.25 5.22 7.54 8.7 0 0 .36 6.31-4.28 10.36 0 0 .2-1.58.03-3.46-.32-3.35-3.15-5.91-6.52-5.91h-3.15" style="fill:#fff"/><path d="M124.21 153.44c-.32 0-.65-.08-.94-.24a2 2 0 0 1-1.04-2.02s.17-1.4.02-3.01a4.516 4.516 0 0 0-4.52-4.09h-3.15c-1.1 0-2-.9-2-2 0-.65.09-6.44 3.31-9.64 1.35-1.34 3.09-2.06 5.04-2.06h.03c5.5.02 8.97 3.86 9.52 10.53.02.35.36 7.39-4.95 12.03-.37.33-.84.5-1.32.5Zm-7.46-13.36h.98c3.67 0 6.81 2.27 8.02 5.55.84-2.36.75-4.42.75-4.45-.38-4.48-2.24-6.79-5.55-6.8h-.01c-2.86 0-3.85 3.42-4.18 5.7Z" style="fill:#1a1a1a"/><path d="M107.15 142.08h3.15c3.37 0 6.2 2.55 6.52 5.91.18 1.88-.03 3.46-.03 3.46 4.64-4.06 4.28-10.36 4.28-10.36-.29-3.48-1.71-8.68-7.54-8.7-6.38-.02-6.38 9.7-6.38 9.7" style="fill:#fff"/><path d="M116.79 153.44c-.32 0-.65-.08-.94-.24a2 2 0 0 1-1.04-2.02s.17-1.4.02-3.01a4.516 4.516 0 0 0-4.52-4.09h-3.15c-1.1 0-2-.9-2-2 0-.65.09-6.44 3.31-9.64 1.35-1.34 3.09-2.06 5.04-2.06h.03c5.5.02 8.97 3.86 9.52 10.53.02.35.36 7.39-4.95 12.03-.37.33-.84.5-1.32.5Zm-7.46-13.36h.97c3.67 0 6.81 2.27 8.02 5.55.84-2.36.75-4.42.75-4.45-.38-4.48-2.24-6.79-5.55-6.8-.94-.03-1.62.28-2.23.89-1.14 1.14-1.71 3.19-1.96 4.81Z" style="fill:#1a1a1a"/></svg>