<svg xmlns="http://www.w3.org/2000/svg" viewBox="0 0 180 180" style="enable-background:new 0 0 180 180" xml:space="preserve"><path d="M62 30.5h-.8c-2.7 0-5.4 2.5-6.2 5.6L53.6 43c-1.3 3.1-3.5 5.4-7.1 8.3-2.8 2.3-4.9 5.3-6.1 8.7l-.2.4c-.9 2.3-1.6 4.3-2.2 6.1-1.3 4.6-3.4 8.9-6.1 12.9L20.3 95.8c-3.6 4.6-3.2 10.8.9 14.3s14.4 6.3 17.9 6.3c.9.1 1.7-.2 2.4-.8 1.4-1.5 2.7-3.1 3.7-4.8 2.3-3.6 4-6.2 9.9-6.2 8.7 0 16.3-8 19.9-11.8l2.2-2.5c1.5 2.3 3.1 6.1 2 10.1-.5 1.7-1.3 3.3-2.3 4.8-2.3 3-5 5.7-8 8l-.2.2c-7.5 6.1-20 16.1-22.1 30.3-13.3 3.6-13.3 12.9-13.3 23.6v3.6H135v-3.6c0-10.7.1-20-13.3-23.6.4-1.6 1-3.6 1.6-5.9 2.6-9.2 6.2-21.9 6.2-30.2 0-19.6-6.2-36-17.9-47.5-9.9-9.6-23-15.5-36.8-16.5L62.6 31.1l-.6-.6z" style="fill:#fff"/><path d="M84.6 148.7c43.1 0 47.5 4.8 47.5 4.8h.6c-1.9-10.2-24.5-11.3-24.5-11.3h-47s-23.4.8-24.7 11.3h.6c0-.1 4.5-4.8 47.5-4.8z" style="opacity:.2;fill:#fff;enable-background:new"/><g style="opacity:.2"><path d="M58.6 50.5c8.1-5 2.6-18 2.6-18-2.4 0-4.5 1.6-5 4l-1.5 6.9c-1.4 3.4-3.7 5.7-7.5 8.8-2.7 2.1-4.7 5-5.8 8.3l-.2.4c-.9 2.3-1.5 4.2-2.1 6C37.8 71.5 35.7 76 33 80L21.3 96.4c-.2.2-.3.3-.4.5-2.2 2-2.6 5.3-1 7.7 0 0 19-23.5 21.5-26.7 4.5-6 1.7-17.8 17.2-27.4z" style="fill:#fff"/></g><path d="M59.7 60c-5.2 2.1-6.6 11.1-6.6 11.1 5.1-4.4 7.5.7 12.6-3.4 4.2-3.3-.9-9.8-6-7.7z" style="fill:#1a1a1a"/><path d="M83.8 76.3c-1.8 3.5-6.3 10.6-6.3 10.6s-.5 1.4-1 3.5c0 0 2.1-.2 2.5 6.4.1 1.7.9 7.8 2 5.2 3-7.4 5.2-16.4 5.1-19.5s-.5-9.7-2.3-6.2z" style="opacity:.2;fill:#040000;enable-background:new"/><path d="M74.1 45.4s40.8 5.1 40.8 44.1c0 26.1-17.4 33.4-22 51 0 0 19.3.1 27.9 4.2 0 0 9.2-24.8 9.2-39.6 0-15-11.5-60.8-55.9-59.7zM59 102.5c-9.1-4.5-11.4-9.8-14.9.7-3.4 10.2-8.5 11.9-5.1 13s7.8-10.5 10.8-10.6 12.7-1.5 9.2-3.1z" style="opacity:.2;fill:#040000;enable-background:new"/><path d="m61.2 32.5 12.9 12.9c25.3 1.7 53.5 20.1 53.5 62 0 11.1-7 31.5-8.3 37.6 14.4 3.1 13.7 11.6 13.7 23.8H35.5c0-12-.7-20.5 13.1-23.6C50 131 63 120.7 70.3 114.7c3.2-2.4 6-5.2 8.4-8.4 1.1-1.6 2-3.5 2.6-5.4 1.8-6.4-2.3-12.1-3.8-13.9l-3.8 4.4c-3.9 4-10.7 11.1-18.5 11.1-10 0-10.3 7.1-15 11.7-.3.2-.7.2-1 .2-3.3 0-12.9-2.7-16.6-5.8-3.2-2.7-3.6-7.8-.6-11.5l11.7-16.4c5.2-7.6 5.5-11.7 8.5-19.3 1-3.3 3-6.1 5.6-8.3 3.8-3.2 6.3-5.6 7.8-9.3l1.5-7c.4-2.3 2.3-4.3 4.1-4.3m1.7-4h-1.7c-3.7 0-7.2 3.1-8.1 7.2v.1l-1.4 6.6c-1.2 2.7-3.1 4.6-6.5 7.4-3.1 2.5-5.4 5.8-6.7 9.5l-.2.4c-.9 2.3-1.6 4.4-2.2 6.2-1.3 4.4-3.2 8.6-5.9 12.4L18.7 94.6c-4.2 5.3-3.8 12.8 1.2 17 4.6 3.9 15.4 6.8 19.2 6.8 1.4.1 2.8-.4 3.8-1.3 1.5-1.6 2.9-3.3 4-5.2 2.2-3.4 3.4-5.3 8.2-5.3 9.6 0 17.5-8.4 21.4-12.4l.1-.1.1-.1.3-.3c.8 1.9 1 4 .5 6-.4 1.5-1.1 2.9-2 4.2-2.2 2.9-4.7 5.4-7.6 7.6l-.2.2c-7.5 6.1-19.8 16.1-22.6 30.3-5.8 1.8-9.6 5-11.6 9.5s-2 9.7-1.9 15.7v5.6H137v-5.6c0-6.1 0-11.3-2-15.9-2-4.3-5.4-7.3-10.8-9.1.3-1.2.7-2.6 1.1-4 2.7-9.4 6.3-22.2 6.3-30.7 0-42.1-27.7-63.3-55.7-65.8L64 29.7l-1.1-1.2z" style="fill:#1a1a1a"/><path d="M84.6 142.7c10.5-.1 21 .4 31.4 1.6 1.7.2 3.5.6 5.2 1l.7-4c-1.8-.4-3.5-.8-5.3-1-10.6-1.2-21.2-1.8-31.9-1.7-10.6-.1-21.3.5-31.8 1.7-1.9.2-3.7.6-5.6 1l.8 3.9c1.7-.4 3.5-.8 5.3-1 10.3-1.1 20.8-1.7 31.2-1.5z" style="fill:#1a1a1a"/><path d="m123.9 73.7 28.5-12.6c2.9 1.9 6.8 1.5 9.2-1 2.7-2.9 2.6-7.5-.3-10.2-2.9-2.6-7.4-2.5-10.2.3-.8 1-1.4 2.2-1.6 3.4l-11.9.7 13.1-15.2c2.8 1.2 6.1.6 8.1-1.7 2.9-3 2.8-7.7-.1-10.6l-.1-.1c-3-2.9-7.8-2.7-10.7.3-1.5 1.6-2.2 3.8-1.9 6l-16 8.3 7.4-16.4c2.2.2 4.4-.6 5.9-2.2 2.9-3 2.7-7.8-.3-10.7-3-2.9-7.7-2.8-10.6.1l-.1.1c-2.2 2.2-2.6 5.5-1.2 8.2l-14.5 13.9.1-11.9c1.3-.3 2.4-.9 3.3-1.8 2.6-2.9 2.6-7.4-.2-10.2-2.9-2.8-7.4-2.7-10.2.2-2.3 2.6-2.6 6.4-.6 9.3L98.1 49.1" style="fill:#fff"/><path d="M120.7 13.3c-.4 4.4-6 3.4-6.1 7.3l1 16.4 1.7-14.9s2.8-1.3 3.8-3.4c2.3-4.6-.4-5.4-.4-5.4z" style="opacity:.2;fill:#040000;enable-background:new"/><path d="M120.4 12.3c-2-1.6-6.7-2.2-11.2 1.3-.4.2-.3-3.8 5.3-4.3 2.4-.4 4.8.8 5.9 3zm41.5 39.4c-2-1.5-6.7-2.2-11.2 1.3-.3.3-.3-3.8 5.3-4.4 2.4-.3 4.8.9 5.9 3.1zm-18.5-38c-2.1-1.6-7.4-2.2-12.2 2.3 0 0 .6-4.7 6.2-5.3 2.5-.3 4.9.9 6 3zm15.4 14.6c-2.1-1.6-7.4-2.2-12.2 2.3 0 0 .6-4.6 6.2-5.3 2.5-.3 4.9.8 6 3z" style="opacity:.2;fill:#fff;enable-background:new"/><path d="M127.7 63.2c-12 .8-17.7-5-17.7-5l13.8 15.3 28.4-12.4s2.3 1.7 6.2.6c5.8-1.6 4-8.4 4-8.4-.1 2.9-2.8 5.3-5 5.3s-4.1-1.6-6.3-.7c.1.1-12 4.5-23.4 5.3zm32.2-33.4c-.9 6.7-7.6 2.8-10.7 6.7l-13.9 19 15.3-16.2s6 1.3 8.2-1.8c3.7-4.8 1.1-7.7 1.1-7.7zm-24.5-7.5L128 43.6l9.5-18.6s3.9-.8 5.8-2.9c2.1-1.9 2.5-5.1 1.1-7.5-.8 7-6.8 3-9 7.7z" style="opacity:.2;fill:#040000;enable-background:new"/><path d="M161.6 48.9c-3.3-3-8.5-2.8-11.6.3-.8.9-1.4 2-1.7 3.1l-8.7.5L150.7 40c3 1 6.4.2 8.6-2.2 3.3-3.4 3.2-8.7-.2-12l-.1-.1c-3.5-3.3-8.9-3.1-12.2.3-1.6 1.7-2.4 3.9-2.2 6.2l-12.7 6.6 5.9-13c2.3 0 4.4-.9 6-2.5 3.3-3.4 3.1-8.9-.3-12.1-3.4-3.2-8.7-3.2-12 .1l-.1.2c-2.3 2.3-2.9 5.7-1.7 8.7l-12.2 11.6v-8.7c1.1-.4 2.2-1 3-1.9 3-3.3 2.9-8.4-.2-11.6-3.3-3.1-8.5-3-11.7.3-2.6 2.8-3 6.9-1 10.1L97.1 47.4l-.7 2c.6.3 1.1.7 1.7 1.1l.2.2c4.3 3.3 8.5 6.9 12.4 10.7 3.9 3.7 7.6 7.6 11 11.7.5.6.9 1.2 1.3 1.8l1.9-.8-.1-.1 26.8-11.9c3.3 1.8 7.4 1.2 10.1-1.5 3.3-3.3 3.2-8.5-.1-11.7zm-9.5 10.8-28.2 12.5-.2-.3c-3.5-4.2-7.3-8.2-11.4-12-4-3.9-8.2-7.5-12.7-10.9-.2-.2-.5-.3-.7-.5L110 19.6c-2.1-2-2.1-6 .1-8.3 2.3-2.5 6.2-2.6 8.7-.3 2.4 2.4 2.4 6.2.2 8.7-1 .9-2.3 1.5-3.6 1.7l-.1 15.2 16.9-16.2c-1.7-2.4-1.4-5.6.6-7.7 2.4-2.6 6.5-2.8 9.1-.4 0 .1.1.1.2.2 2.6 2.5 2.7 6.6.2 9.2-1.5 1.6-3.7 2.2-5.8 1.7l-9 19.8 19.4-10c-.6-2.1 0-4.3 1.4-5.9 2.5-2.6 6.6-2.7 9.2-.2 2.6 2.4 2.8 6.5.4 9.1l-.1.1c-2 2.1-5.2 2.6-7.6 1L134.9 55l15.2-.9c.1-1.4.6-2.6 1.5-3.7 2.4-2.4 6.2-2.5 8.7-.3 2.5 2.3 2.6 6.2.3 8.7-2.4 2.7-6.4 2.8-8.5.9z" style="fill:#1a1a1a"/></svg>