<svg xmlns="http://www.w3.org/2000/svg" viewBox="0 0 180 180" style="enable-background:new 0 0 180 180" xml:space="preserve"><path d="M52 23.5c-5.3-4.6-11.3-8.2-17.8-10.6-.2 7 .9 14.1 3.3 20.7l.3.8-.6.6c-.7.7-1.4 1.4-2 2.2l-.3.3c-.3.4-.7.8-1 1.1-.8.9-1.5 1.9-2.2 2.9-.2.3-.7 1.2-1.4 2.2-1.4 2.2-2.2 5.7-2.2 10.1v.2c-.4 4.5-4.5 11.4-9.9 19.9-4.6 7.2-8.1 11.7-8.1 15.6 0 2.7.4 5.5 1.2 8.1 1.4 4.8 6 8.8 11.3 10.9l4.2-2.3s4 3.3 7.8 3.3 9.1-7.2 10.1-9.1c0 0 .9-5.2 4.1-8.4 3.6-3.7 8.7-4.3 15.5-6.7 6.4-1.7 10.8-8.1 10.8-8.1.2 4.5-.4 9.1-1.7 13.4-2.3 6.3-7.9 11.8-13.2 17.2l-3.1 3.1c-3.7 3.8-5.1 6-5.6 6.9-3.8 6.7-4.8 11.1-5.2 13-.5 2.7-.6 5.5-.4 8.3h92.2v-15.5c0-13.2-.5-30.3-4.6-45.1-3.4-11.7-9.5-23.6-16.5-31.8-9.8-11.7-26.4-18.8-38.9-19.4-3-.2-6-.2-9 0-1-2.5-2.8-8.4-9.7-13.1-3.1 2.3-5.7 5.5-7.4 9.3z" style="fill:#fff"/><path d="M139.6 140.1H44.8l-.2-1.1c-.3-2.9-.1-5.8.4-8.7.3-2 1.4-6.5 5.3-13.4.6-1.2 2.2-3.4 5.8-7.2l3.1-3.1c5.3-5.3 10.8-10.8 12.9-16.7.9-3 1.5-6.1 1.6-9.3-2.5 2.7-5.6 4.7-9.1 5.8-1.8.6-3.6 1.1-5.1 1.6-4.1 1.3-7.3 2.2-9.7 4.7-2.8 2.9-3.7 7.6-3.7 7.7v.2l-.1.2c-.7 1.3-6.3 9.9-11.3 9.9-3.3 0-6.5-2-7.9-3l-4 2.2-.6-.2c-6-2.3-10.7-6.8-12.1-11.7-.9-2.7-1.3-5.6-1.2-8.5 0-3.6 2.4-7.2 5.7-12.3.8-1.2 1.7-2.6 2.6-4 4.7-7.4 9.3-15 9.6-19.3v-.1c0-4.5.8-8.2 2.4-10.8.7-1 1.2-1.8 1.4-2.2.8-1.1 1.6-2.1 2.5-3.1.3-.3.6-.7 1-1.1l.2-.3c.7-.8 1.4-1.5 2.1-2.2-2.5-6.8-3.6-14-3.4-21.3l.1-1.9 1.8.7c6.1 2.3 11.8 5.6 16.8 9.8 1.8-3.3 4.3-6.2 7.2-8.5l.8-.6.8.6c4.6 3.1 8.1 7.6 9.9 12.8 2.7-.1 5.4-.1 8.1.1 11.7.6 29.1 7.1 39.9 19.9 7.1 8.4 13.4 20.4 16.7 32.3 4.2 15 4.7 32.2 4.7 45.5l-.2 16.6zm-92.3-2.7h89.6v-14c0-13.1-.5-30.1-4.6-44.7-3.3-11.5-9.3-23.2-16.2-31.3-10.2-12.3-26.9-18.4-37.9-19-2.9-.2-5.8-.2-8.8 0l-1 .1-.6-1.5c-1.5-4.5-4.3-8.5-8.2-11.4-2.7 2.3-4.9 5.2-6.4 8.5l-.7 1.6-1.4-1.2c-4.6-4.1-9.9-7.4-15.6-9.7 0 6.3 1.1 12.5 3.3 18.3l.6 1.6-1.2 1.2c-.7.7-1.3 1.3-1.9 2.1l-.3.3c-.4.5-.8.9-1.1 1.2-.7.8-1.4 1.7-2 2.6-.2.4-.7 1.2-1.5 2.3-1.3 2-2 5.3-2 9.3v.3c-.4 4.5-4 11-10.1 20.6-.9 1.5-1.8 2.8-2.6 4.1-3.1 4.7-5.3 8.1-5.3 10.8 0 2.6.3 5.1 1.1 7.6 1.2 4 5 7.8 9.9 9.8l4.5-2.4.7.6s3.6 2.9 7 2.9c2.8 0 7.6-6 8.9-8.2.2-1.1 1.3-5.7 4.4-8.9 2.9-2.9 6.5-4 10.8-5.4 1.6-.5 3.3-1 5.2-1.7h.1c5.8-1.6 10-7.5 10.1-7.6l2.1-3 .3 3.8c.2 4.7-.4 9.4-1.8 13.9-2.4 6.5-8.1 12.2-13.6 17.7l-3.1 3.1c-3.8 3.8-5 5.9-5.4 6.6-3.7 6.6-4.7 10.8-5 12.5-.3 2.1-.5 4.3-.3 6.6z" style="fill:#040000"/><path d="M26.8 107.4c-.7 0-1.3-.6-1.3-1.3 0-.5.2-.9.6-1.1 3.2-2.1 6.1-4.6 8.5-7.5.5-.6 1.3-.7 1.9-.2.6.5.7 1.3.2 1.9-2.6 3.2-5.7 5.9-9.2 8.1-.2 0-.5.1-.7.1zm48.3-29.2c-.7 0-1.3-.6-1.3-1.4 0-.2.1-.4.2-.6 1.6-3.2 2.5-6.7 2.8-10.3 0-.7.7-1.3 1.4-1.3h.1c.7.1 1.3.7 1.2 1.4-.3 4-1.3 7.8-3.1 11.4-.3.6-.8.8-1.3.8zM20.2 92.8c-1 0-1.8-.8-1.8-1.8 0-.3.1-.6.2-.9 1.2-1.9 3.8-4.9 6.3-4.2.8.2 2.1 1 1.9 3.6 0 .7-.5 1.4-1.2 1.6l-4.8 1.6c-.3.1-.5.1-.6.1z" style="fill:#040000"/><circle cx="44.9" cy="52.1" r="4.3" style="fill:#040000"/><path d="M50 32.6c-.7 0-1.3-.6-1.3-1.4.2-2.9 1-5.7 2.2-8.3.2-.7 1-1.1 1.7-.8.7.2 1.1 1 .8 1.7v.1c0 .1 0 .1-.1.2-1.1 2.2-1.8 4.7-2 7.2.1.7-.5 1.3-1.3 1.3zm21.1 5c-.7 0-1.2-.5-1.3-1.1-.6-3.3-1.5-8.2-1.8-8.9-.2-.7.2-1.5.9-1.7.7-.2 1.4.1 1.7.8.5 1.3 1.7 8.1 1.9 9.4.1.7-.4 1.4-1.1 1.6-.1-.1-.2-.1-.3-.1zM39.6 57.1c-.2 0-.5-.1-.7-.2-.9-.4-1.3-1.5-.9-2.4 2.2-4.9 6.1-8.8 11-11 .9-.4 2 .1 2.3 1 .3.9 0 1.8-.8 2.3l-.1.1c-4 1.9-7.2 5.1-9.1 9.1-.3.7-1 1.1-1.7 1.1z" style="fill:#040000"/><path d="m82.1 139.5-1.8 2.3c-2.3 2.9-5.2 5.4-8.5 7.1-1.6.9-3.7 1.5-8.6 1.4-5.9-.2-17-4.3-28.1-4.3-6.9.1-13.7 2-19.7 5.4l7.7 15.9c3.2-1.8 10.8-4.1 13.6-4.1 12 0 21.1 4.1 31.9 4.1 5.2-.1 10.1-1.8 14.3-4.9 4.2-3 6-4.3 7.7-11.1l1.6-6.4 1.6 6.4c1.7 6.7 3.6 8.1 7.7 11.1 4.1 3.1 9.1 4.8 14.3 4.9 10.8 0 20-4.1 31.9-4.1 2.9 0 10.4 2.3 13.6 4.1l7.7-15.9c-6-3.4-12.8-5.3-19.8-5.4-11.1 0-22.1 4.1-28.1 4.3-4.8.2-7-.4-8.6-1.3-3.3-1.7-6.2-4.1-8.5-7.1l-1.8-2.3h-.1" style="fill:#fff"/><path d="M170 149.4c-6.3-3.6-13.4-5.5-20.6-5.6-6.8 0-13.6 1.5-19.1 2.7-3 .8-6 1.3-9.1 1.6-4.8.1-6.5-.5-7.7-1.2-3.1-1.6-5.8-3.9-8-6.6h.1l-3.4-1.3-1.1.9 1.8 2.3c2.4 3.1 5.5 5.7 9 7.5 2.2 1.2 4.9 1.7 9.4 1.6 3.3-.3 6.5-.8 9.7-1.6 5.3-1.2 11.9-2.6 18.3-2.6 6.1.1 12.2 1.7 17.6 4.5l-6.3 13.1c-3.9-1.8-10.1-3.5-12.9-3.5-5.7.1-11.4.9-17 2.2-4.9 1.2-9.8 1.8-14.8 2-4.8-.1-9.5-1.7-13.3-4.6-4-2.9-5.6-4-7.1-10.2L92.3 138 89 150.5c-1.5 6.1-3 7.2-7.1 10.1-3.9 2.9-8.5 4.5-13.4 4.6-5-.2-10-.8-14.8-1.9-5.6-1.3-11.3-2-17-2.2-2.7 0-9 1.8-12.9 3.5l-6.4-13.1c5.5-2.8 11.5-4.4 17.6-4.5 6.4 0 13 1.5 18.3 2.6 3.2.8 6.4 1.4 9.7 1.6 4.5.1 7.2-.3 9.4-1.5 3.5-1.8 6.6-4.4 9-7.5l3.6-4.6h-.3l-5.9 2.6h.2c-2.2 2.8-4.9 5-8 6.7-1.2.6-2.9 1.2-7.7 1.1-3.1-.3-6.1-.8-9.1-1.6-5.5-1.2-12.3-2.7-19-2.7-7.3.1-14.4 2-20.7 5.6l-1.3.8 9.1 18.8 1.5-.9c2.9-1.7 10.2-3.9 12.8-3.9 5.5.1 11 .8 16.4 2.1 5.1 1.2 10.3 1.8 15.5 2 5.5-.1 10.8-1.9 15.2-5.2 4.2-3 6.5-4.7 8.3-12l.1-.4.1.3c1.8 7.3 4.1 9 8.4 12 4.4 3.2 9.8 5 15.2 5.2 5.2-.1 10.4-.8 15.4-2 5.4-1.3 10.9-2 16.4-2.1 2.6 0 9.9 2.2 12.8 3.9l1.5.9L171 150l-1-.6z" style="fill:#040000"/></svg>