<svg xmlns="http://www.w3.org/2000/svg" xml:space="preserve" style="enable-background:new 0 0 180 180" viewBox="0 0 180 180"><path d="M0 0h180v180H0z" style="fill:none"/><path d="M90 28.1c2.9-.1 5.7.3 8.5 1l2.2.4.3 2.3 2 17.9.2 1.5h7.6l.3-1.4 3.5-15.4.5-2.3h2.3c6.2 0 10.7 1.5 16.2 4.5l1.8 1v62.7h6.5V60.7c0-4.4 3.6-7.9 7.9-7.9h2.6c4.4 0 7.9 3.6 7.9 7.9v92.2c0 4.4-3.6 7.9-7.9 7.9h-2.6c-4.4 0-7.9-3.5-7.9-7.9v-39.6h-6.5v1.7c-.1 3.7-.3 7.6-1.9 10.9-2.2 4.8-5 7.7-12.1 9.2-1.9.4-3.3.6-3.4.6h-.1c-9 1.2-18.2 1.8-27.3 1.7-9.1.1-18.2-.4-27.2-1.7h-.1c-.3 0-.4-.2-3.5-.8h-.1c-6.7-1.5-10.9-4.5-13-9.2-1.4-3.3-1.7-7.1-1.8-10.7v-1.7h-6.5v39.6c0 4.4-3.6 7.9-7.9 7.9h-2.6c-4.4 0-7.9-3.5-7.9-7.9V60.7c0-4.4 3.6-7.9 7.9-7.9h2.6c4.4 0 7.9 3.6 7.9 7.9v39.6h6.5V37.7l1.8-1c5.4-3 9.9-4.5 16.2-4.5h2.3l.5 2.3 3.4 15.4.3 1.4H77l.2-1.5 2-17.9.3-2.3 2.2-.4c2.6-.8 5.4-1.1 8.3-1.1z" style="fill:#fff"/><path d="M45.1 62.4c.1-11.5.1-26.1.1-26.1s18.8-6 15.3-3.6c-12.3 8.4-13.6 31.6-13.6 31.6l-1.8-1.9zm48.3-32.2c-13.7 2.5-16.2 22.4-16.2 22.4.9-14.9 4-23.4 4-23.4s16.1.3 12.2 1zm31.1 4.1c-8.9 4.7-14.3 18.3-14.3 18.3-.5-4.8 6.2-21.6 6.2-21.6s11.4 1.6 8.1 3.3z" style="opacity:.2;enable-background:new;fill:#fff"/><path d="M155 54.2c0 .2.1 3.7.1 3.9v92.2c0 3.1-2.5 5.7-5.7 5.7h-4.8c-.7 0 3 4.6 5.9 4.6h2.6c3.1 0 5.7-2.5 5.7-5.7V59.5c-.1-2.3-1.6-4.5-3.8-5.3zm-19.3-10.9-2.6-5.5c-2 12-1 59.6-17.2 75-12 11.4-19.3 13.4-24.5 13.7-.5 0-1 .1-1.4.1-.5 0-.9 0-1.4-.1-5.2-.3-12.5-2.3-24.5-13.7-7.1-6.7-9.7-19.6-12.2-33h-7.7c.3 21.2 1.2 44.6 4.2 48.9 0 0 3.1 8.2 40.4 8.5h2.5c37.3-.4 40.4-8.5 40.4-8.5 5.5-8.1 4-85.4 4-85.4zM33.2 54.2c0 .2.1 3.7.1 3.9v92.2c0 3.1-2.5 5.7-5.7 5.7H23c-.7 0 2.8 4.6 5.6 4.6h2.6c3.1 0 5.7-2.5 5.7-5.7V59.5c0-2.3-1.5-4.5-3.7-5.3zm5.2 45.9h5.9v12.2h-5.9z" style="opacity:.2;enable-background:new"/><path d="M134.4 99.9h7v12.6h-7z" style="opacity:.2;enable-background:new"/><path d="M152.2 50.6h-2.6c-5.5 0-9.9 4.5-9.9 9.9v37.6h-2.5V36.3l-2.8-1.6c-5.2-2.8-10-4.7-17.1-4.7h-3.9l-4.3 19.1h-4.2l-2.4-21.4-3.6-.6c-2.9-.7-5.9-1.1-8.9-1h-.4c-2.9 0-5.7.3-8.5 1l-3.6.6-2.4 21.4h-4.2L66.7 30h-3.9c-6.2 0-11 1.3-17.1 4.7l-2.8 1.6v61.8h-2.5V60.5c0-5.5-4.5-9.9-9.9-9.9h-2.6c-5.5 0-9.9 4.5-9.9 9.9v92.2c0 5.5 4.5 9.9 9.9 9.9h2.6c5.5 0 9.9-4.4 9.9-9.9v-37.6h2.5c.1 3.8.4 7.7 1.9 11.3 2.4 5.3 7.1 8.7 14.4 10.3l.3.1c1.7.3 2.4.5 2.7.6.2.1.5.1.9.2 8.2 1.1 16.6 1.7 24.9 1.7h2.4c9.1.1 18.4-.4 27.4-1.7h.3c.1 0 1.5-.3 3.5-.6 8.1-1.7 11.3-5.4 13.5-10.3 1.6-3.6 1.9-7.6 2-11.5h2.5v37.6c0 5.5 4.5 9.9 9.9 9.9h2.6c5.5 0 9.9-4.4 9.9-9.9V60.6c.1-5.5-4.3-10-9.8-10zM47.6 38.3c5.6-3.1 9.7-4.2 15.2-4.2h.7l3.6 16.2.7 2.9h11l2.4-22 .7-.1h.2c2.6-.7 5.3-1 7.9-.9h.8c2.5 0 4.9.3 7.3.9l.8.1 2.4 22h11l4.3-19.1h.7c5.5 0 9.6 1.1 15.2 4.2l.8.4v38.6H47V38.7l.6-.4zM36.4 152.8c0 3.3-2.7 5.9-5.9 5.9h-2.6c-3.3 0-5.9-2.7-5.9-5.9V60.6c0-3.3 2.7-5.9 5.9-5.9h2.6c3.3 0 5.9 2.7 5.9 5.9v92.2zm6.5-41.6h-2.5v-9.1h2.5v9.1zm20.6 22.5h-.2c-.4-.1-1.2-.3-3.2-.7h-.2c-5.9-1.4-9.7-4-11.4-8-1.3-3-1.5-6.6-1.6-9.9V81.5H88v54c-8.2-.2-16.4-.8-24.5-1.8zm68-8.7c-1.8 4-4.2 6.6-10.7 8-1.5.3-2.7.5-3.2.6h-.2c-8.4 1.1-17 1.7-25.5 1.7v-54h41.2v33.5c0 3.6-.2 7.2-1.6 10.2zm5.7-13.8v-9h2.5v9h-2.5zm20.9 41.6c0 3.3-2.7 5.9-5.9 5.9h-2.6c-3.3 0-5.9-2.7-5.9-5.9V60.6c0-3.3 2.7-5.9 5.9-5.9h2.6c3.3 0 5.9 2.7 5.9 5.9v92.2z"/></svg>