<svg version="1.1" id="Layer_1" xmlns="http://www.w3.org/2000/svg" x="0" y="0" viewBox="0 0 180 180" style="enable-background:new 0 0 180 180" xml:space="preserve"><defs><style>.b{fill:#1a1a1a}.c{fill:#fff}.d,.e{opacity:.2}.f{fill:#fff}</style></defs><path class="f" d="M144.53 59.37c-7.31 0-13.72 6.49-13.72 13.89 0 2.81 1.28 5.38 2.24 6.92l-15.68 16.71-1.83-38.56c5.34-1.78 9.18-7.11 9.18-13.09 0-8.16-6.39-14.55-14.55-14.55s-14.55 6.53-14.55 14.55c0 4.25 2.07 8.35 5.39 10.88L89.67 88.81 78.33 56.12c3.32-2.53 5.39-6.63 5.39-10.88 0-8.02-6.53-14.55-14.55-14.55s-14.55 6.39-14.55 14.55c0 6.1 3.77 11.35 9.18 13.1l-1.83 38.55-15.68-16.71c.96-1.54 2.24-4.12 2.24-6.92 0-7.4-6.41-13.89-13.72-13.89-3.73 0-7.22 1.44-9.83 4.05-2.61 2.61-4.05 6.1-4.05 9.83 0 6.57 5.43 12.8 11.53 13.63l21.77 56.71c-13.4 3.4-13.38 12.46-13.35 22.85v3.46h97.57v-3.47c.03-10.39.05-19.45-13.35-22.85l21.77-56.71c6.1-.83 11.53-7.06 11.53-13.63 0-7.66-6.23-13.89-13.89-13.89Z"/><g class="d"><path class="c" d="M37.46 60.95c-4.78.45-12.16 5.82-13.86 16.77-.12.78-5.46-4.94 1.6-13.15 5.56-6.47 12.26-3.62 12.26-3.62Z"/></g><g class="d"><path class="c" d="M147.9 60.95c-4.78.45-12.16 5.82-13.86 16.77-.12.78-5.46-4.94 1.6-13.15 5.56-6.47 12.26-3.62 12.26-3.62Z"/></g><g class="d"><path class="c" d="M71.68 32.37c-5.12.54-13.16 6.76-13.93 19.36 0 0-5.26-7.33 1.71-15.61 5.49-6.53 12.22-3.75 12.22-3.75Z"/></g><g class="d"><path class="c" d="M112.78 32.37c-5.12.54-13.16 6.76-13.93 19.36 0 0-5.26-7.33 1.71-15.61 5.49-6.53 12.22-3.75 12.22-3.75Z"/></g><path d="M40.39 61.97c5.28 6.76-3.49 13.81 1.61 19.3l19.56 16.7-13.77-18.24s2.19-5.61.81-9.75c-3.09-9.26-8.21-8-8.21-8Zm76.62-27.81c7.61 10.49-6.85 13.89-5.98 23.46l4.99 39.02.76-37.07s10.04-6.08 9.14-13.36c-1.41-11.39-8.91-12.05-8.91-12.05Zm-43.95 22 15.11 32.18-8.67-31.15s4.34-6.31 4.34-11.77c0-10.01-8.42-11.99-8.42-11.99 8.1 10.89-5.52 13.22-2.35 22.72Z" class="e"/><g class="d"><path class="c" d="M125.12 143.6c-9.45-1.91-22.84-2.27-35.44-2.03-12.6-.24-25.99.12-35.44 2.03-9.25 2.35-12.1 7.4-12.97 13.72 0 0 7.85-7.58 48.41-7.58s48.41 7.57 48.41 7.58c-.87-6.32-3.72-11.37-12.97-13.72Z"/></g><path d="M151.86 61.47c3.59 4.17 3.03 13.19 0 16.02-2.94 2.74-7.82 3.29-9.65 7.45 0 0-22.69 37.94-22.88 38.14-8.75-16.42-28.42-16.25-28.42-16.25l20.86 21.33c-12.22 9.19-26.64 12.68-26.64 12.68l29.48 1.43.31.49h5.06v-.23l4.72.23 23.21-54.87s5.4-.62 9.42-7.31c5.96-9.9-5.47-19.11-5.47-19.11Z" class="e"/><path d="M123.53 142.97s-4.47 19.78-25.72 19.8c-21.24.02 19.01-21.27 19.01-21.27l6.71 1.46Z" class="e"/><path class="b" d="M138.46 171.92H40.9c-1.1 0-2-.9-2-2v-3.46c-.03-9.8-.05-19.93 12.7-24.17L31.01 88.65c-6.65-1.56-12.06-8.33-12.06-15.39 0-4.26 1.65-8.26 4.64-11.25 2.99-2.99 6.98-4.64 11.25-4.64 8.38 0 15.72 7.42 15.72 15.89 0 2.52-.85 4.84-1.78 6.63l11.44 12.19 1.53-32.39c-5.51-2.44-9.11-8.06-9.11-14.45 0-9.28 7.27-16.55 16.55-16.55s16.55 7.42 16.55 16.55c0 4.37-1.86 8.58-5.05 11.52l9 25.94 9-25.94c-3.18-2.95-5.05-7.15-5.05-11.52 0-9.12 7.42-16.55 16.55-16.55s16.55 7.27 16.55 16.55c0 6.22-3.68 11.94-9.11 14.42l1.54 32.41 11.44-12.19c-.93-1.78-1.77-4.1-1.77-6.63 0-8.46 7.35-15.89 15.72-15.89s15.89 7.13 15.89 15.89c0 7.06-5.41 13.83-12.06 15.39l-20.59 53.64c12.76 4.24 12.73 14.36 12.7 24.17v3.46c0 1.1-.9 2-2 2Zm-95.57-4h93.57v-1.47c.03-10.39.05-17.89-11.84-20.91-.55-.14-1.02-.51-1.28-1.02s-.3-1.1-.09-1.64l21.77-56.71c.26-.68.87-1.17 1.6-1.27 5.22-.71 9.8-6.15 9.8-11.65 0-6.55-5.33-11.89-11.89-11.89s-11.72 5.55-11.72 11.89c0 2.4 1.21 4.7 1.94 5.86.48.77.38 1.77-.24 2.43l-15.68 16.71c-.55.59-1.39.79-2.15.51-.75-.28-1.27-.98-1.31-1.78l-1.83-38.56c-.04-.9.52-1.71 1.37-1.99 4.6-1.53 7.81-6.13 7.81-11.19 0-7.04-5.51-12.55-12.55-12.55s-12.55 5.63-12.55 12.55c0 3.57 1.76 7.13 4.6 9.29.69.52.96 1.43.68 2.25L91.56 89.47c-.28.81-1.04 1.34-1.89 1.34s-1.61-.54-1.89-1.34L76.44 56.78c-.28-.82 0-1.72.68-2.25 2.84-2.16 4.6-5.72 4.6-9.29 0-6.92-5.63-12.55-12.55-12.55S56.62 38.2 56.62 45.24c0 5.19 3.13 9.69 7.79 11.2.86.28 1.43 1.1 1.38 2l-1.83 38.55a2 2 0 0 1-1.31 1.78c-.75.28-1.6.08-2.15-.51L44.82 81.55c-.62-.66-.72-1.66-.24-2.43.73-1.16 1.94-3.47 1.94-5.86 0-6.33-5.48-11.89-11.72-11.89-3.19 0-6.18 1.23-8.42 3.47s-3.47 5.23-3.47 8.42c0 5.49 4.58 10.94 9.8 11.65a2 2 0 0 1 1.6 1.27l21.77 56.71c.2.53.17 1.13-.09 1.64s-.73.88-1.28 1.02c-11.89 3.02-11.87 10.52-11.84 20.91v1.47Z"/><path class="b" d="M138.46 171.92H40.9c-1.1 0-2-.9-2-2v-3.46c-.03-10.33-.06-21.01 14.85-24.8 23.51-4.75 69.62-.25 71.57-.05.1 0 .2.03.29.05 14.91 3.79 14.88 14.47 14.86 24.8v3.46c0 1.1-.9 2-2 2Zm-95.57-4h93.57v-1.47c.03-10.35.05-17.83-11.69-20.87-2.95-.28-47.95-4.49-70.13-.02-11.79 3-11.77 10.5-11.75 20.89v1.47Z"/><circle class="f" cx="90" cy="135.71" r="27.06"/><path class="b" d="M90 164.77c-16.02 0-29.06-13.04-29.06-29.06S73.98 106.65 90 106.65s29.06 13.04 29.06 29.06-13.04 29.06-29.06 29.06Zm0-54.12c-13.82 0-25.06 11.24-25.06 25.06S76.18 160.77 90 160.77s25.06-11.24 25.06-25.06-11.24-25.06-25.06-25.06Z"/><path class="b" d="M94.33 120.36v30.69h-5.88v-25.52H82v-5.17h12.32Z"/></svg>