<svg version="1.1" id="Layer_1" xmlns="http://www.w3.org/2000/svg" x="0" y="0" viewBox="0 0 180 180" style="enable-background:new 0 0 180 180" xml:space="preserve"><style>.st0{fill:#fff}.st1{fill:#040000}</style><path class="st0" d="M47.8 39.9v40.4l-14 13.9v17.7H21.3v16.5h108.5v-16.5h-12.5V94.2l-13.8-13.9V39.9"/><path class="st1" d="M119 110.7V94l-13.9-14V41.2l-3-1.8v41.7l13.9 14v18.5h12.5v13.5H23v-13.4h12.4V95.2l14-14V39.5l-.1-.1-2.9 1.4.1.1v39l-14 14v16.7H20v19.5h111.5v-19.4z"/><path class="st1" d="M47.8 38.4h55.7v3H47.8zm0 40.4h55.7v3H47.8zm-14 13.9h83.5v3H33.8zm0 17.7h83.5v3H33.8z"/><path class="st0" d="M76.3 51.2v40.5l-13.9 13.9v17.6H49.8v16.6h108.5v-16.6h-12.4v-17.6L132 91.7V51.2"/><path class="st1" d="M147.5 122v-16.7l-13.9-13.9V52.6l-2.9-1.8v41.6l13.9 14.1V125H157v13.4H51.4V125H64v-18.5l13.9-14V50.8l-.1-.2-3 1.5.2.2v38.9l-13.9 14.1V122H48.5v19.6H160V122z"/><path class="st1" d="M76.3 49.7H132v3H76.3zm0 40.5H132v3H76.3zm-13.9 13.9h83.5v3H62.4zm0 17.6h83.5v3H62.4z"/></svg>