<svg xmlns="http://www.w3.org/2000/svg" viewBox="0 0 180 180" style="enable-background:new 0 0 180 180" xml:space="preserve"><path style="fill:none" d="M0 0h180v180H0z"/><path d="M114.4 129.3c-1.1 0-2-.6-2.4-1.5-.2-.5-.5-2 1.4-3.7 1.2-1.1 1.8-3.2 2.4-4.9.7-2.3 1.5-4.8 3.8-5.2 3.5-.7 11.8-2.3 13.3-5.7.5-1.1.2-2.5-.8-4.3l-1.2-1.9 2.4-.6h.3c.2 0 .5 0 .9.1.8.1 2.3.3 4.2.3h1.9l.2 1.4c.8 5.3-1.8 12.4-18.9 16.6l-.3.1c-1 .3-1.2.6-1.2 2.6 0 1.3 0 3-1.2 4.2-1.6 1.6-3.4 2.5-4.8 2.5z" style="fill:#fff" transform="translate(-80.15 -24.39) scale(1.2091)"/><path d="M133.6 103.2c.5 0 2.3.4 5.1.4h.5c1.5 10.3-14.8 14.1-17.9 14.8-4 1-1.4 5.5-3.2 7.2-1.6 1.5-2.9 2.1-3.7 2.1-1.1 0-1.3-1.1.1-2.4 3.2-3 2.7-9.2 5.4-9.7 9-1.7 18.4-4.4 13.7-12.4-.1 0-.1 0 0 0m0-3.3c-.3 0-.6 0-.8.1l-4.4 1.1 2.3 3.9c.5.9 1.1 2 .7 2.8-.8 1.7-4.8 3.3-12.1 4.7-3.3.6-4.3 3.8-5 6.3-.5 1.6-1 3.4-1.9 4.2-2.6 2.4-2.1 4.7-1.8 5.6.6 1.6 2.1 2.5 3.9 2.5 1.9 0 3.9-1 6-3 1.7-1.7 1.7-3.9 1.8-5.4v-1.1h.2c1.9-.5 7-1.7 11.6-4.3 8.1-4.6 9.1-10.2 8.5-14.2l-.4-2.9h-3.3c-1.8 0-3.1-.2-3.9-.3h-1.4z" style="fill:#1a1a1a" transform="translate(-80.15 -24.39) scale(1.2091)"/><path d="M118.9 121.1c-.1.9 0 2.6-.2 3.3h-.3c.1-1.2 0-2.5.2-3.2.1 0 .3-.1.3-.1z" style="fill-opacity:.2" transform="translate(-80.15 -24.39) scale(1.2091)"/><path d="M161.7 131.5c-1.1 0-2.2-.4-2.9-1.1-1.9-1.8-3.6-2.4-5.7-3l-1.3-.4.1-1.4c.9-8.5 2.5-40.5 1.7-50.3-1 3-2 8.2-2.8 12.1-2.4 12.2-3.8 17.6-6.7 18.4-1 .3-2.5.7-4.1.7-1.6 0-3-.4-4.2-1.1-1.3-.8-1.3-2.7-1-4.6 1.1-6.9 11-35.8 16-37.1.7-.2 1.5-.3 2.3-.3 2.8 0 5.7 1 7.3 2.6.9.9 1.4 2 1.4 3.2 0 4.9-.8 11.9-1.8 20-1.3 11.1-2.8 23.7-2.4 33 .3 1 4.5 3.2 6.6 3.8 1.7.5 2.2 1.7 2.1 2.6-.3 1.7-2.6 2.9-4.6 2.9z" style="fill:#fff" transform="translate(-80.15 -24.39) scale(1.2091)"/><path d="M153.1 64.9c3.2 0 7 1.7 7 4.2 0 11.5-4.9 37-4.2 53 .1 2.2 6.1 4.8 7.8 5.3 2.1.6-.1 2.4-2.1 2.4-.6 0-1.3-.2-1.8-.6-2.1-2-4.1-2.7-6.4-3.4.8-7.7 3.4-53.4.9-54.1h-.2c-3.8 0-6.2 31.4-10.5 32.6-.9.3-2.3.6-3.7.6-1.1 0-2.3-.2-3.3-.9-2.7-1.7 10.6-37.8 14.5-38.8.7-.2 1.3-.3 2-.3m0-3.3c-1 0-1.9.1-2.7.3-1.5.4-4 1-10.3 16.8-2.8 7.1-6.1 16.5-6.9 21.7-.2 1.5-.7 4.8 1.7 6.3 1.5.9 3.2 1.4 5.1 1.4 1.9 0 3.5-.5 4.5-.7h.1c3.6-1 5-5.8 7.5-17.9-.3 13.2-1.3 30.2-1.9 35.9l-.3 2.7 2.6.8c2 .6 3.4 1.1 5 2.6 1 1 2.5 1.6 4 1.6 2.7 0 5.9-1.7 6.2-4.4.2-1.7-.7-3.7-3.3-4.4-1.4-.4-4.4-1.9-5.4-2.8-.4-9.1 1.1-21.3 2.4-32.2 1-8.2 1.8-15.2 1.8-20.2 0-1.6-.7-3.1-1.9-4.4-1.6-1.8-4.9-3.1-8.2-3.1z" style="fill:#1a1a1a" transform="translate(-80.15 -24.39) scale(1.2091)"/><path d="M136.6 103.9c-2.7-1.7 10.6-37.8 14.5-38.8 3.4-.9 8.9.9 8.9 3.9 0 11.5-4.9 37-4.2 53 .1 2.2 6.1 4.8 7.8 5.3 2.8.8-1.9 3.6-3.9 1.7-2.1-2-4.1-2.7-6.4-3.4.8-7.7 3.4-53.4.9-54.1-3.9-1.2-6.3 31.3-10.7 32.6-1.5.5-4.5 1.4-6.9-.2z" style="fill-opacity:.2" transform="translate(-80.15 -24.39) scale(1.2091)"/><path d="M98.2 152.9v-3c0-9 0-16.7 11.4-19.6 1.3-.3 2.8-.6 4.5-.8 7.3-.9 15.9-1.4 26.1-1.4 10.3 0 18.8.5 26.1 1.4 1.7.2 3.2.5 4.6.8 11.3 2.9 11.3 10.7 11.3 19.6v3h-84z" style="fill:#fff;stroke:#1a1a1a;stroke-width:4;stroke-miterlimit:10" transform="translate(-80.15 -24.39) scale(1.2091)"/><path d="M140.2 134.7c-35.6 0-39.3 3.9-39.3 3.9h-.5c1.6-8.4 20.3-9.3 20.3-9.3h39s19.3.7 20.4 9.3h-.5c-.1 0-3.8-3.9-39.4-3.9z" style="opacity:.2;fill:#fff" transform="translate(-80.15 -24.39) scale(1.2091)"/><path d="M98.2 152.9v-3c0-9 0-16.7 11.4-19.6 1.3-.3 2.8-.6 4.5-.8 7.3-.9 15.9-1.4 26.1-1.4 10.3 0 18.8.5 26.1 1.4 1.7.2 3.2.5 4.6.8 11.3 2.9 11.3 10.7 11.3 19.6v3h-84z" style="fill:none;stroke:#1a1a1a;stroke-width:4;stroke-miterlimit:10" transform="translate(-80.15 -24.39) scale(1.2091)"/><path d="M125.9 115.6c-6.3 0-11.5-.7-15.8-2.1l-1.2-.4.1-1.3c.5-7.1.5-15.8-3.3-20.1l-1.4-1.6 1.9-1c5-2.5 12.3-3.7 22.2-3.7 12 0 25.2 1.8 34.8 3.1 4.5.6 8.1 1.1 10.3 1.2 11.1.7 11.9 7.4 11.8 9.5-.1 5.6-5 11-10.2 11.1-5.7.1-12.8 1.2-20.3 2.3-9.6 1.5-19.6 3-28.9 3z" style="fill:#fff" transform="translate(-80.15 -24.39) scale(1.2091)"/><path d="M128.4 87.1c17.6 0 38 4 45 4.4 16.8 1 9.8 17.1 1.7 17.3-13 .3-32.7 5.2-49.3 5.2-5.6 0-10.8-.5-15.3-2 .5-7.1.6-16.4-3.7-21.3 5.4-2.7 13.2-3.6 21.6-3.6m0-3.3v3.3-3.3c-10.2 0-17.7 1.3-23 3.9l-3.8 1.9 2.8 3.2c3.8 4.4 3.1 14.9 2.9 18.9l-.2 2.6 2.4.8c4.5 1.5 9.8 2.2 16.3 2.2 9.4 0 19.5-1.5 29.3-2.9 7.5-1.1 14.5-2.1 20.1-2.3 6-.2 11.7-6.2 11.8-12.7.1-5-3.4-10.6-13.4-11.2-2.1-.1-5.9-.6-10.2-1.2-9.6-1.4-22.8-3.2-35-3.2z" style="fill:#1a1a1a" transform="translate(-80.15 -24.39) scale(1.2091)"/><path d="M183.6 100.8c-.9-.2-4.4 6.2-10.9 6.5-3.2.1-24.2 4.3-23.1 4.6 4.1-.7 17.9-2.5 21.2-2.8 2.5-.1 5.6.2 6.5-.7 5.3-2.2 6-6.5 6.3-7.6z" style="fill-opacity:.2" transform="translate(-80.15 -24.39) scale(1.2091)"/><path d="M136.9 102.9c-4.9 0-8.7-.3-11.7-1l-2-.4.9-1.9c.7-1.6 2.1-7.6-.2-11.9l-.6-1 .8-.9c2.1-2.3 6.9-3.4 15.1-3.4 19.7 0 52 6.4 58.9 8 5.4 1.2 6.3 3.3 6.1 4.9-.3 2.4-3.5 4.1-7.9 4.1h-3.4c-8.2 0-18.3.9-28.1 1.8-9.7.8-19.8 1.7-27.9 1.7z" style="fill:#fff" transform="translate(-80.15 -24.39) scale(1.2091)"/><path d="M139.2 84.2c18.7 0 49.7 5.9 58.5 7.9 8.3 1.9 4.7 5.7-1.4 5.7H193c-16.4 0-39.9 3.6-56.1 3.6-4.4 0-8.3-.3-11.3-.9.9-2 2.4-8.6-.2-13.3 1.8-2.2 7-3 13.8-3m0-3.3v3.3-3.3c-8.8 0-13.8 1.2-16.3 3.9l-1.6 1.7 1.1 2.1c1.9 3.4.9 8.8.1 10.4l-1.7 3.7 4 .9c3.1.7 7 1 12 1 8.2 0 18.4-.9 28.2-1.8 9.7-.9 19.8-1.8 27.9-1.8h3.3c5.3 0 9.1-2.2 9.5-5.5.2-2.2-.8-5.2-7.4-6.7-6.8-1.5-39.2-7.9-59.1-7.9z" style="fill:#1a1a1a" transform="translate(-80.15 -24.39) scale(1.2091)"/><path d="M125.4 87c.3.7.4.4.7 1.5 1.8-3.4 48.9-.2 71 3.5-5.2-1.9-38.1-6.9-43.3-7-5.6-.6-15.2-1-18.1-.8-8.8.6-10 2.5-10.3 2.8z" style="fill:#fff;fill-opacity:.2" transform="translate(-80.15 -24.39) scale(1.2091)"/><path d="M164.8 131.4c-1.1 0-2.1-.4-2.8-1.1-1.8-1.7-3.4-2.3-5.4-2.9l-1.3-.4.2-1.4c.9-8.2 2.7-38.4 2.1-48.4-.9 2.9-1.9 7.8-2.7 11.4-2.5 12.1-3.8 17.1-6.6 17.9-1 .3-2.5.7-4.1.7-1.5 0-2.9-.4-4-1.1-1.3-.8-1.2-2.6-1-4.3 1-6.5 10.8-35.1 15.6-36.4.7-.2 1.5-.3 2.3-.3 2.7 0 5.4 1 6.9 2.5.9.9 1.4 2 1.4 3.1-.1 4.7-.9 11.5-1.9 19.4-1.3 10.8-2.9 23-2.5 32 .3.9 4.3 3 6.2 3.5 1.7.5 2.2 1.7 2 2.6-.1 2-2.4 3.2-4.4 3.2z" style="fill:#fff" transform="translate(-80.15 -24.39) scale(1.2091)"/><path d="M157.2 66.9c3.1 0 6.7 1.6 6.6 4-.1 11.2-5 35.9-4.4 51.5.1 2.1 5.8 4.6 7.4 5.1 2 .5-.1 2.3-2 2.3-.6 0-1.2-.2-1.7-.6-2-1.9-3.9-2.6-6.1-3.3.8-7.5 3.7-51.8 1.2-52.5h-.2c-3.7 0-6.1 30.5-10.3 31.7-.9.3-2.2.6-3.6.6-1 0-2.1-.2-3.1-.8-2.6-1.6 10.5-36.7 14.2-37.7.7-.2 1.3-.3 2-.3m0-3.3c-1 0-1.9.1-2.8.3-1.5.4-3.9 1-10.1 16.6-2.8 7-6 16.2-6.7 21.1-.2 1.3-.7 4.5 1.7 6 1.4.9 3.1 1.4 4.9 1.4 1.8 0 3.5-.5 4.5-.8h.1c3.3-1 4.8-5.2 7-15.9-.4 12.5-1.4 27.9-2 33.1l-.3 2.8 2.7.8c1.9.6 3.2 1 4.7 2.5 1 1 2.4 1.5 4 1.5 2.7 0 5.8-1.7 6.1-4.4.2-1.7-.7-3.7-3.2-4.4-1.2-.3-4.1-1.7-5-2.6-.3-8.8 1.2-20.7 2.5-31.2 1-7.9 1.8-14.8 1.9-19.6 0-1.6-.6-3.1-1.8-4.3-2.3-2.1-5.7-2.9-8.2-2.9z" style="fill:#1a1a1a" transform="translate(-80.15 -24.39) scale(1.2091)"/><path d="M145 105.7c1-.1 3.2-.1 4.3-2.2 2.5-6.6 4-16.5 5.1-20.5-.4-1.9-3.5 9.7-5.6 15.7-1.5 4.3-4.7 6.6-3.8 7z" style="fill-opacity:.2" transform="translate(-80.15 -24.39) scale(1.2091)"/><path d="M111.5 129.6c-1.1 0-2-.6-2.4-1.5-.2-.5-.5-2 1.4-3.7 1.2-1.1 1.8-3.2 2.4-4.9.7-2.3 1.5-4.8 3.8-5.2 4.2-.8 11.9-2.3 13.3-5.5.5-1.1.2-2.5-.8-4.2-.2-.4-.3-.8-.2-1.3.2-.7.9-1.3 1.6-1.3h.4c.5 0 1.8.2 4.2.2h1.1c.8 0 1.5.6 1.6 1.4.8 5.3-1.8 12.4-18.9 16.6l-.3.1c-1 .3-1.2.6-1.2 2.6 0 1.3 0 3-1.2 4.2-1.7 1.6-3.4 2.5-4.8 2.5zm1.6-17.3c-1 0-2.4-.4-3.6-2.1-.2-.3-.4-.7-.3-1.1 1.1-14.2-4.4-18.5-4.6-18.7-1.5-1.1-1.3-2.3-1.2-2.8.3-.9.9-3 13.5-3 2 0 3.6.1 4.5.2 1.7.3 3 1.6 3.8 3.7 1.5 4.1 1 11-2.6 15.2-.5.6-1.1 1.3-1.6 2.1-2.3 3.1-4.9 6.5-7.9 6.5z" style="fill:#fff" transform="translate(-80.15 -24.39) scale(1.2091)"/><path d="M116.9 86.3c1.9 0 3.5.1 4.2.2 3.8.6 4.7 11 .2 16.2-2.3 2.8-5.4 7.9-8.3 7.9-.8 0-1.6-.4-2.3-1.4 1-13.3-3.5-18.8-5.2-20.1-2.9-2.1 5.7-2.8 11.4-2.8m13.7 17.4c.2 0 1.5.2 4.6.2h1.1c1.5 10.3-14.8 14.1-17.9 14.8-4 1-1.4 5.5-3.2 7.2-1.6 1.5-2.9 2.1-3.7 2.1-1.1 0-1.3-1.1.1-2.4 3.2-3 2.7-9.2 5.4-9.7 8.9-1.8 18.4-4.2 13.6-12.2M116.9 83c-2.9 0-5.8.2-8 .4-3 .4-6.2 1-7.1 3.7-.2.6-.7 2.8 1.7 4.6.3.2 5 4.3 3.9 17.2-.1.8.2 1.6.7 2.2 1.7 2.2 3.6 2.7 5 2.7.3 0 .6 0 .8-.1-1.4 1.3-2.1 3.4-2.6 5.1-.5 1.6-1 3.4-1.9 4.2-2.6 2.4-2.1 4.7-1.8 5.6.6 1.6 2.1 2.5 3.9 2.5 1.9 0 3.9-1 6-3 1.7-1.7 1.7-3.9 1.8-5.4v-1.1h.2c1.9-.5 7-1.7 11.6-4.3 8.1-4.6 9.1-10.2 8.5-14.2-.2-1.6-1.6-2.8-3.3-2.8h-1.1c-2.3 0-3.5-.1-4-.1h-.5c-1.5 0-2.9 1.1-3.2 2.5-.2.9 0 1.8.4 2.5s1 1.9.7 2.6c-1 2.2-7.9 3.7-11.3 4.4 1.9-1.4 3.6-3.6 5.2-5.6.6-.7 1.1-1.5 1.6-2 4-4.7 4.6-12.2 2.9-16.8-1.4-3.7-3.8-4.6-5.1-4.8h-5z" style="fill:#1a1a1a" transform="translate(-80.15 -24.39) scale(1.2091)"/><path d="M106 87.4c-.3.1-1.5.5-.9 1.4.9.8.9.7 2.4 2.6 1.2 1.5 13.4-3.1 16.1-2.3-1.1-2.7-2.4-2.6-4.4-2.7-3.8-.1-10.4.1-13.2 1z" style="fill:#fff;fill-opacity:.2" transform="translate(-80.15 -24.39) scale(1.2091)"/><path d="M100.1 125.9c-.9 0-1.6-.2-2.3-.5-10.6-5.3-16.4-12.8-18.1-23.6-.8-4.6.6-8.4 4.4-12.1 2.2-2.2 6.4-3.6 10.6-3.6 3.1 0 6.1.7 8.8 2.1 10.1 5.2 5.8 29.7 4.4 33.2-.8 2.2-4.8 4.5-7.8 4.5z" style="fill:#fff" transform="translate(-80.15 -24.39) scale(1.2091)"/><path d="M94.7 87.8c2.6 0 5.3.5 8 1.9 8.7 4.5 4.9 27.8 3.7 31.1-.5 1.4-3.8 3.4-6.3 3.4-.6 0-1.1-.1-1.5-.3-10-5-15.5-11.9-17.2-22.4-.6-3.5 0-6.8 3.9-10.7 1.6-1.5 5.2-3 9.4-3m0-3.3c-4.7 0-9.3 1.6-11.8 4.1-4.2 4.2-5.7 8.3-4.9 13.6 1.8 11.3 7.9 19.2 19 24.8.9.5 1.9.7 3 .7 3.7 0 8.3-2.7 9.4-5.5.9-2.2 2.1-9.3 2.1-16.3 0-10-2.5-16.4-7.4-19-2.8-1.6-6-2.4-9.4-2.4z" style="fill:#1a1a1a" transform="translate(-80.15 -24.39) scale(1.2091)"/><path d="M92.4 107.3c-2 .3-4.6 0-6.2-3.6-1.6-3.6-1.1-7.3 1.2-8.1 4.1-1.4 5.7 1.2 6.9 3.4 1.5 2.7 2.3 7.6-1.9 8.3z" style="fill:#1a1a1a" transform="translate(-80.15 -24.39) scale(1.2091)"/><path d="M91.4 87.8c-5.7 1.4-5.9 2.7-6.8 3.6 8.7-3.1 22.6 2.2 19.7-.8-.5-.6-.1-.3-1.7-1.3-3.3-1.8-8.3-2.2-11.2-1.5z" style="fill:#fff;fill-opacity:.2" transform="translate(-80.15 -24.39) scale(1.2091)"/><path d="M80.8 102.1c-2.2-10.5-.2-22.6 20.1-26.3m-21.3 24.4c-2.2-10.5-.3-21.9 20.9-26.4" style="fill:none;stroke:#1a1a1a;stroke-width:1.1252;stroke-linecap:round" transform="translate(-80.15 -24.39) scale(1.2091)"/></svg>