<svg xmlns="http://www.w3.org/2000/svg" viewBox="0 0 180 180" style="enable-background:new 0 0 180 180" xml:space="preserve"><path d="M70.2 14.6h-.9c-2.9 0-5.8 2.7-6.6 6.1L61.2 28c-1.4 3.4-3.8 5.8-7.7 9-3 2.4-5.3 5.7-6.5 9.4l-.2.5c-1 2.5-1.7 4.6-2.3 6.5-1.4 4.9-3.6 9.6-6.6 13.8L25.4 84.8c-3.9 4.9-3.5 11.6 1 15.4 4.5 3.8 15.5 6.8 19.3 6.8 1 .1 1.9-.3 2.6-.9 1.5-1.6 2.9-3.3 4-5.2 2.5-3.9 4.3-6.7 10.7-6.7 9.4.1 17.5-8.5 21.4-12.6l2.3-2.7c1.6 2.5 3.4 6.6 2.2 10.9-.5 1.8-1.4 3.6-2.5 5.2-2.4 3.3-5.3 6.2-8.6 8.6l-.2.2c-8.1 6.5-21.5 17.4-23.8 32.6-14.3 3.9-14.3 14-14.3 25.4v3.9h109.4v-3.9c0-11.5.1-21.5-14.3-25.4.4-1.7 1.1-3.9 1.8-6.4 2.8-9.9 6.7-23.6 6.7-32.5 0-21.1-6.7-38.7-19.3-51.1C113.1 36 99.1 29.8 84.2 28.7L70.9 15.2l-.7-.6z" style="fill:#fff"/><path d="M94.6 141.7c46.4 0 51.2 5.1 51.2 5.1h.7c-2.1-11-26.4-12.2-26.4-12.2H69.3s-25.1.9-26.5 12.2h.6s4.9-5.1 51.2-5.1z" style="opacity:.2;fill:#fff;enable-background:new"/><g style="opacity:.2"><path d="M66.6 36.1c8.7-5.4 2.8-19.4 2.8-19.4-2.6-.1-4.9 1.8-5.4 4.3l-1.6 7.4c-1.5 3.6-4 6.1-8 9.5-2.9 2.3-5 5.4-6.2 8.9l-.2.5c-1 2.4-1.6 4.5-2.3 6.5-1.4 5-3.7 9.8-6.7 14.1L26.5 85.5l-.5.5c-2.4 2.1-2.8 5.7-1.1 8.3 0 0 20.4-25.2 23.2-28.8 4.8-6.4 1.8-19.1 18.5-29.4z" style="fill:#fff"/></g><path d="M67.8 46.3c-5.6 2.3-7.1 11.9-7.1 11.9 5.5-4.8 8.1.7 13.6-3.6 4.5-3.5-1-10.5-6.5-8.3z" style="fill:#1a1a1a"/><path d="M93.7 63.9c-2 3.8-6.8 11.4-6.8 11.4s-.5 1.5-1.1 3.7c0 0 2.2-.2 2.7 6.9.1 1.9 1 8.4 2.2 5.6 3.2-8 5.6-17.7 5.5-21s-.5-10.4-2.5-6.6z" style="opacity:.2;fill:#040000;enable-background:new"/><path d="M83.3 30.6s43.9 5.5 43.9 47.5c0 28.1-18.7 36-23.7 54.9 0 0 20.8.2 30 4.5 0 0 9.9-26.7 9.9-42.6 0-16.2-12.3-65.5-60.1-64.3zM67.1 92.1c-9.8-4.8-12.3-10.5-16 .8-3.7 11-9.2 12.8-5.5 14 3.7 1.2 8.4-11.3 11.6-11.5 3.2-.4 13.5-1.6 9.9-3.3z" style="opacity:.2;fill:#040000;enable-background:new"/><path d="m69.3 16.7 13.9 13.9c27.2 1.8 57.6 21.6 57.6 66.7 0 12-7.5 33.9-8.9 40.4 15.5 3.2 14.7 12.5 14.7 25.6h-105c0-12.9-.7-22 14.1-25.4 1.5-15.3 15.5-26.4 23.4-32.8 3.4-2.6 6.5-5.6 9.1-9.1 1.2-1.8 2.2-3.7 2.8-5.8 2-6.9-2.5-13-4.1-14.9L82.8 80c-4.1 4.4-11.5 12-19.9 12-10.8.1-11.1 7.6-16.1 12.5-.3.2-.7.3-1.1.2-3.5 0-13.9-2.9-17.9-6.3-3.5-2.9-3.9-8.4-.7-12.4l12.6-17.8c5.6-8.2 5.9-12.5 9.1-20.8 1.1-3.5 3.2-6.6 6.1-8.9 4.1-3.4 6.8-6 8.4-10l1.6-7.5c.5-2.1 2.5-4.3 4.4-4.3m1.9-4.3h-1.8c-4 0-7.7 3.3-8.7 7.7v.1l-1.5 7.1c-1.3 2.9-3.4 5-7 8-3.3 2.7-5.8 6.2-7.2 10.2l-.2.5c-1 2.5-1.7 4.7-2.4 6.6-1.4 4.7-3.5 9.2-6.3 13.3L23.6 83.5c-4.6 5.8-4.1 13.8 1.3 18.3 5 4.2 16.5 7.3 20.7 7.3 1.5.1 3-.4 4.1-1.4 1.7-1.7 3.1-3.6 4.3-5.6 2.3-3.7 3.6-5.7 8.9-5.7 10.3 0 18.9-9 23-13.3l.1-.1.1-.1.3-.3c.9 2 1.1 4.3.5 6.5-.5 1.6-1.2 3.2-2.2 4.5-2.3 3.1-5.1 5.9-8.2 8.2l-.2.2c-8.1 6.5-21.3 17.2-24.3 32.5-6.2 2-10.3 5.4-12.5 10.3s-2.2 10.4-2.1 16.9v6H151v-6c0-6.5 0-12.2-2.2-17.1-2.2-4.6-5.9-7.8-11.6-9.8.4-1.3.8-2.8 1.2-4.3 2.9-10.1 6.8-23.9 6.8-33.1 0-45.3-29.9-68.1-60-70.8L72.4 13.7l-1.2-1.3z" style="fill:#1a1a1a"/><path d="M94.6 135.3c11.3-.1 22.5.5 33.8 1.8 1.9.2 3.7.6 5.6 1.1l.7-4.3c-1.9-.5-3.8-.8-5.7-1.1-11.4-1.3-22.8-1.9-34.3-1.8-11.4-.1-22.9.5-34.2 1.8-2 .2-4 .6-6 1.1l.9 4.2c1.9-.5 3.8-.8 5.7-1.1 11-1.3 22.2-1.9 33.5-1.7z" style="fill:#1a1a1a"/><path d="M136.8 134.6c.8-1.2 1.9-2.8 3.2-4.6 4.9-7.1 11.8-16.9 14.3-24 5.7-16.8 5.2-32.8-1.7-46.1-5.9-11.3-15.6-20.2-27.3-25.2l-7.2-14.3-.3-.7-.7-.2c-2.4-.8-5.5.5-7 3l-3.3 5.5c-2.1 2.3-4.7 3.5-8.7 5-3.1 1.1-5.8 3.1-7.9 5.6l-.3.3c-1.5 1.7-2.6 3.2-3.7 4.6-2.5 3.5-5.6 6.7-9.1 9.2l-15 10.6c-4.5 2.8-6 8.3-3.4 12.5s10.8 9.7 13.8 10.8c.8.3 1.6.3 2.3 0 1.7-.8 3.2-1.8 4.7-3.1 3.1-2.4 5.3-4.1 10.5-2.4 7.6 2.7 16.6-1.9 20.9-4.1l2.6-1.5c.6 2.4.9 6.2-1.2 9.3-.9 1.3-2.1 2.5-3.4 3.4-2.9 1.9-6 3.4-9.3 4.5l-.2.1c-8.4 3-22.3 7.9-28.3 19.4" style="fill:#fff"/><g style="opacity:.2"><path d="M108.9 35.8c8.5-1.9 7.5-14.7 7.5-14.7-2.1-.7-4.3.1-5.5 1.9l-3.4 5.5c-2.2 2.5-4.9 3.8-9.1 5.3-3 1-5.5 2.9-7.5 5.4l-.3.3C89.2 41.2 88 42.6 87 44c-2.6 3.6-5.7 6.8-9.3 9.4L62.7 64l-.5.3c-2.5 1-3.8 3.7-3.1 6.3 0 0 23.5-14.4 26.7-16.5 5.8-3.7 6.7-14.7 23.1-18.3z" style="fill:#fff"/></g><path d="M107.1 44.4c-5.2.3-9.1 7.5-9.1 7.5 5.7-2.3 6.4 2.8 12 .9 4.7-1.6 2.2-8.7-2.9-8.4z" style="fill:#1a1a1a"/><path d="M123.3 65.6c-2.6 2.5-8.6 7.2-8.6 7.2s-.8 1.1-1.9 2.6c0 0 1.9.4.3 6.2-.4 1.5-1.5 6.9.2 5 4.9-5.5 9.4-12.6 10.2-15.2s2.5-8.3-.2-5.8z" style="opacity:.2;fill:#040000;enable-background:new"/><path d="M124 36.1s34.2 16.6 22.7 50.1c-7.7 22.4-25 23.5-34.2 37.2 0 0 16.9 5.9 23.2 12 0 0 15.3-18.6 19.7-31.2 4.3-13 7.8-55.7-31.4-68.1zM94 80.6c-6.7-6.6-7.1-11.8-13.2-3.9-6 7.7-11 7.7-8.3 9.7s9.8-6.7 12.5-5.9c2.7.8 11.5 2.5 9 .1z" style="opacity:.2;fill:#040000;enable-background:new"/><path d="M99.6 96.2c3.5-1.1 6.8-2.7 9.8-4.7 1.5-1.1 2.8-2.4 3.8-3.8 3.5-4.9 1.5-11.1.8-13l-4.6 2.6c-4.6 2.3-12.6 6.3-19.4 4-8.8-3-11.1 3-16.5 5.5-.3.1-.6 0-.9-.1-2.9-1-10.5-6.2-12.8-10-2-3.6-.7-8.1 2.8-10.1l15-10.6c6.8-5 8.2-8.4 13.1-14 1.9-2.5 4.4-4.4 7.4-5.4 4.3-1.6 7.1-2.9 9.5-5.6l3.4-5.7c1.1-1.7 3.2-2.8 4.9-2.2l7.5 14.9c21.6 9.1 40.9 33.3 28.6 69.3-3.2 9.3-14.7 24.1-18 29.3l5-.5-.1-.1c.6-.9 1.4-2 2.2-3.1 5.1-7.2 12-17.1 14.6-24.5 12.4-36.1-5.6-62.6-29.4-73.2l-7-13.8-.6-1.3-1.5-.5c-3.2-1.1-7.2.5-9.2 3.7v.1l-3.2 5.3c-1.8 1.9-4.1 3-7.8 4.4-3.4 1.2-6.4 3.3-8.6 6.2l-.3.3c-1.5 1.7-2.7 3.2-3.7 4.6-2.4 3.4-5.4 6.4-8.8 8.8l-15 10.5c-5.3 3.3-7.1 9.8-3.9 15 2.9 4.7 11.5 10.4 14.8 11.6 1.2.5 2.5.5 3.7 0 1.8-.9 3.5-2 5-3.2 3-2.4 4.5-3.6 8.8-2.1 8.4 2.9 17.8-1.9 22.3-4.2h.2l.3-.2c.2 1.8-.3 3.7-1.3 5.2-.8 1.2-1.8 2.2-3 3-2.8 1.8-5.7 3.2-8.9 4.2l-.2.1c-8.3 2.9-21.9 7.7-28.5 18.9l2.1 3.9c5.1-11.6 19.4-16.6 27.6-19.5z" style="fill:#1a1a1a"/><path style="fill:none;stroke:#040000;stroke-width:3.5;stroke-miterlimit:10" d="m69.6 111.9 69.1 24.1"/></svg>