<svg xmlns="http://www.w3.org/2000/svg" viewBox="0 0 180 180" style="enable-background:new 0 0 180 180" xml:space="preserve"><path style="fill:none" d="M0 0h180v180H0z"/><path style="fill:none" d="M0 0h180v180H0z"/><path d="M161.44 85.14a29 29 0 0 0-2.92-12.52 35.71 35.71 0 0 0-7.61-10.39 37.25 37.25 0 0 0-10.56-7.07 29.38 29.38 0 0 0-11.67-2.6 25.67 25.67 0 0 0-11.28 2.9 42.28 42.28 0 0 0-10.69 7.62l-2.33 2.26.81-2.77c-5.15-7.5-10.2-11.3-15-11.3s-10 3.83-15.07 11.39l.13 2-1.59-1.53c-7-6.72-15-10.57-22-10.57-8 0-16.56 3.88-23 10.38a34.93 34.93 0 0 0-7.08 10.14 28.68 28.68 0 0 0-2.65 12.06c0 7.11 2.37 14.49 6.9 22s11.58 15.37 20.75 23.29l.37.31-5.14 30.78h96.77l-5.15-30.78.36-.31c9.17-7.93 16.14-15.77 20.73-23.29s6.88-14.91 6.92-22Z" style="fill:#fff"/><path d="M86 51.27a11.87 11.87 0 0 1 8.06 0V38.15h9.18V30H94v-8.14h-8V30h-9.2v8.14H86Zm-7.92 85.76 11.75 7.37 12.09-7.2-11.75-7.37-12.09 7.2z"/><path d="M102.69 66.11c.29-.34.59-.67.88-1-.59.66-1.22 1.38-1.91 2.2-5.14-7-9-10.38-11.66-10.38s-6.6 3.43-11.66 10.38l-.81-.92C84.35 74.85 88.64 86.33 90 93.12c1.37-6.86 5.57-18.52 12.69-27.01ZM90 123.39a102.74 102.74 0 0 0-37.64 7.21l-.68 4 10.19 6.25-12.47 7.3-1.33 8h83.87l-4.29-25.55A102.83 102.83 0 0 0 90 123.39Zm-3.18-6.34c-.08-16.81-4.88-32.59-10-40.14-5.15-10-16.39-18.69-25.74-18.69-11.74 0-26.84 12.09-26.84 27.61 0 12.44 11.5 28.39 24.79 39.37a106.07 106.07 0 0 1 37.79-8.15Zm42.11-58.83c-9.52 0-20.66 8.66-25.72 18.69-5.23 7.55-10 23.33-10 40.14A106 106 0 0 1 131 125.2c13.12-11 24.79-26.93 24.79-39.37-.01-15.52-15.19-27.61-26.86-27.61Z" style="fill:none"/><path d="M162.12 85.32c0-18.18-17.58-33.45-33.61-33.45-8.23 0-17.32 5.11-24.14 12.36.58-.62 1.12-1.17 1.58-1.64-5.4-8-10.72-12-16-12s-10.64 4-16 12c.5.5 1.06 1.1 1.68 1.78-7-7.33-16-12.5-24.24-12.5-16.12 0-33.69 15.27-33.61 33.45.08 14.58 9.35 29.84 28 45.88l-5.18 31.3h98.8l-5.23-31.3q27.83-24.06 27.95-45.88Zm-83.78-18c5.06-7 9-10.38 11.66-10.38s6.52 3.43 11.66 10.38c.69-.82 1.32-1.54 1.91-2.2-.29.33-.59.66-.88 1-7.12 8.48-11.32 20.14-12.69 27-1.36-6.79-5.65-18.27-12.47-26.73ZM24.22 85.83c0-15.52 15.1-27.61 26.84-27.61 9.35 0 20.59 8.66 25.74 18.69 5.14 7.55 9.94 23.33 10 40.14A106.07 106.07 0 0 0 49 125.2c-13.28-10.98-24.78-26.93-24.78-39.37ZM90 156.15H48.07l1.33-8 12.68-7.28-10.4-6.27.68-4a101.88 101.88 0 0 1 75.29 0l.68 4.08-10.2 6.21 12.46 7.25 1.35 8Zm41-30.95a106 106 0 0 0-37.82-8.15c0-16.81 4.81-32.59 10-40.14 5.06-10 16.2-18.69 25.72-18.69 11.67 0 26.85 12.09 26.85 27.61.03 12.44-11.64 28.39-24.75 39.37Z"/></svg>