<svg xmlns="http://www.w3.org/2000/svg" viewBox="0 0 180 180" style="enable-background:new 0 0 180 180" xml:space="preserve"><path style="fill:none" d="M0 0h180v180H0z"/><path d="M135.7 106.7c.7-.3 1.6-.6 2.7-.9 4.2-1.4 9.9-3.4 13-5.6 7.4-5.2 11.9-11.8 13.2-19.3 1-6.3-.2-12.7-3.5-18.2l1.4-7.9.1-.4-.2-.3c-.7-1-2.4-1.4-3.7-.8l-3 1.3c-1.5.3-3 .1-5-.5-1.6-.5-3.3-.5-4.9 0h-.2c-1.1.3-2 .5-2.9.8-2.1.7-4.3 1.1-6.5 1.1l-9.2-.1c-2.7-.2-4.9 1.6-5.1 4.1-.2 2.5 1.4 7.1 2.3 8.4.2.3.5.6.9.7.9.2 1.9.2 2.8.1 2-.1 3.4-.1 5 2.1 2.3 3.3 7.3 4 9.7 4.4l1.5.2c-.5 1.2-1.5 2.8-3.3 3.4-.8.3-1.6.4-2.4.4-1.7-.1-3.5-.4-5.1-.9h-.1c-4.3-1.2-11.4-3.3-17.2-.3l19.7 28.2z" style="fill:#fff"/><path d="M154.1 58.4c4 1.7 7.5-3.8 7.5-3.8-.6-.9-1.8-1.3-2.8-.8l-3 1.3c-1.6.4-3.1.1-5.3-.5-1.5-.4-3.1-.4-4.6 0l-.2.1c-1.1.3-2 .5-2.8.8-2.1.7-4.3 1.1-6.6 1.1h-9.6c-1.3-.3-2.7.4-3.2 1.7 0 0 13.9 1 15.7 1 3.5 0 7.2-4.2 14.9-.9z" style="opacity:.2;fill:#fff;enable-background:new"/><path d="M150.8 61.3c-2.2-1.4-5.9.4-5.9.4 3 .7 1.7 3 4.6 3.9 2.3.7 3.4-2.9 1.3-4.3z"/><path d="M151 74.7c-1.8.2-5.7.4-5.7.4s-.7.2-1.6.5c0 0 .6.7-1.8 2.6-.6.5-2.7 2.4-1.4 2.1 3.6-.8 7.6-2.4 8.7-3.2 1.2-.8 3.6-2.6 1.8-2.4z" style="opacity:.2;enable-background:new"/><path d="M160.1 62.9s8.9 16.7-5.8 27c-9.8 6.9-17.2 2.3-25 5.2 0 0 5 7.3 5.8 11.6 0 0 11.8-3.1 17.3-7 5.6-4 19.8-20.4 7.7-36.8zm-25.5 9.4c-.7-4.6.7-6.9-4.2-5.4-4.7 1.4-6.7-.1-6.2 1.5s6 .2 6.8 1.3 3.9 4.3 3.6 2.6z" style="opacity:.2;enable-background:new"/><path d="m135.4 107.8-20.7-29.7.9-.5c6-3.1 13.2-1.1 17.6.1l.4.1c1.5.5 3.2.8 4.9.9.7 0 1.4-.1 2-.3 1-.3 1.7-1.1 2.2-1.8l-.5-.1c-2.6-.4-7.6-1.2-10-4.7-1.3-1.8-2.3-1.8-4.2-1.7-.7.1-1.9.1-3-.1-.6-.1-1.1-.5-1.5-1.1-1-1.4-2.7-6.2-2.5-9 .2-3 2.9-5.2 6.1-4.9l9.1.1c2 0 4.1-.4 6.2-1.1.6-.2 1.3-.4 1.9-.5.3-.1.7-.2 1-.3h.3c1.7-.5 3.6-.5 5.3 0 1.9.6 3.2.7 4.5.5l2.9-1.3c1.7-.8 3.8-.3 4.8 1.1l.4.7-.2.8-1.3 7.5c3.2 5.6 4.5 12.1 3.4 18.5-1.3 7.7-6 14.6-13.6 19.9-3.1 2.2-8.4 4.1-13.2 5.7-1.1.3-2 .6-2.6.9l-.6.3zm-18-28.9 18.7 26.7c.6-.2 1.3-.4 2.1-.7 4.6-1.6 9.8-3.4 12.7-5.5 7.1-5 11.6-11.5 12.8-18.7 1-6.1-.2-12.3-3.4-17.6l-.2-.3 1.5-8.3c-.4-.5-1.6-.9-2.5-.4l-3.2 1.4c-1.6.3-3.2.2-5.4-.5-1.4-.4-2.9-.4-4.4 0h-.4c-.3.1-.6.2-.9.2-.7.2-1.2.3-1.8.5-2.3.8-4.6 1.1-6.8 1.1l-9.2-.1c-2.2-.2-4 1.2-4.2 3.3-.2 2.3 1.3 6.6 2.1 7.8.1.2.3.3.4.3.9.2 1.8.2 2.5.1 1.9-.1 3.9-.2 5.8 2.5 2 2.9 6.4 3.6 8.8 4l3 .4-.5 1.1c-.5 1.1-1.6 3.2-3.9 3.9-.8.3-1.7.4-2.7.4-1.9-.1-3.7-.4-5.3-.9l-.5-.1c-3.9-1-10-2.7-15.1-.6z"/><path d="M22.4 63.4c4.3.8 10-.7 11.4-1.1.2-.1.3-.1.3-.1s-.1 0-.3.1c-1.3.4-7 1.9-11.4 1.1-3.5-.6-6-2.6-4.8-7.8 1.9-7.9 13.4-7.2 13.4-7.2 4.4-7.6 6.5-7.2 17-5.8 8.6 1.1 19.9 4.1 28.2 1.3 8.2-2.8 19.9 0 19.9 0s11.4-8.9 14.6-6.3c3.2 2.5 2.8 16-2.5 20.5-2 1.6 7.7 29.4 23.7 50.3v50.3H93c-10-16.3-19.3-39.1-21.2-68.9-.3-3.6 1.9-7.9-9.2-11.1-11.1-3.2-17.1-1.6-20.6-9.8 0 0-7 2.1-14.2 4.2-20.5 6-9.2-6.7-5.4-9.7z" style="fill:#fff"/><path d="M22.4 63.4h.3c-2.9 4.2-3.2 8.3 10.3 4.3 7.2-2.1 14.2-4.2 14.2-4.2 3.5 8.2 9.5 6.6 20.6 9.8s8.9 7.5 9.2 11.1v.3c3.6 1.3 5.6 2.2 5.6 2.2s1.5 4.7.4 5.8c-1.4 1.4-2.8.1-5.4-1.6 3.3 27.2 15 52.3 24.3 67.5h-9c-10-16.3-19.3-39.1-21.2-68.9v-1.4c-.1 0-.3-.1-.4-.1l-4-6.2c1.1.2 2.1.5 3.1.7-1.2-1.5-3.5-2.8-7.8-4.1C51.5 75.4 45.5 77 42 68.8c0 0-7 2.1-14.2 4.2-20.5 6.1-9.2-6.6-5.4-9.6z" style="opacity:.2"/><g style="opacity:.2"><path d="M48.1 42.5c8.6 1.1 19.9 4.1 28.2 1.3 8.2-2.8 19.9 0 19.9 0s11.4-8.9 14.6-6.3c3.2 2.5 2.8 16-2.5 20.5-2 1.6 7.7 29.4 23.7 50.3v11.6c-19.1-21.1-31.2-54.8-29-56.6 5.4-4.5 8.3-20.6 5.2-23.1-3.2-2.5-14.6 6.3-14.6 6.3s-11.7-2.8-19.9 0-19.6-.2-28.2-1.3c-5.6-.7-11.4 1.5-13.9 2.3 4.1-6.8 6.4-6.3 16.5-5z" style="fill:#fff"/></g><g style="opacity:.2"><path d="M25.8 51s-4.2 2.4-7.9 3.9c1.9-5.8 9.3-6.5 12.1-6.6-1.4 1-2.7 0-4.2 2.7z" style="fill:#fff"/></g><path d="M81 59.3c4.8.9 10-2.5 11.1-7.3l-18.7-3.6c-.8 4.8 2.8 10 7.6 10.9zm16.1-8.5c2.9 1.2 5.2 3.6 6.1 6.6 3.4-3.5 4.7-9.1 3-13.7-3.6 1.6-6.7 3.9-9.1 7.1z"/><path d="M135.2 106c-14-18.4-22.2-40.5-23.1-46 3.5-4 4.8-10.3 4.7-15.3 0-3.4-.7-7.9-3.5-10.2-.8-.8-2.1-1.5-4.1-1.5-4.4 0-10.7 4.1-14 6.5-2.2-.4-6-1-10.2-1-3.9 0-7.3.5-10.1 1.5-1.9.7-4.2 1-6.9 1-4.3 0-9-.8-13.5-1.5-2.1-.3-4-.7-5.9-.9l-.6-.1c-3.2-.4-5.7-.7-7.8-.7-5.5 0-8.5 2.3-11.3 6.7-8 .4-13.6 4.2-15.1 10.3-.8 3.4-.5 6.3 1 8.6.3.4.6.8 1 1.2-2.4 2.8-4.7 6.7-3.5 10.1.5 1.5 2.2 4.1 7.1 4.1 2.4 0 5.6-.6 9.7-1.8l11.1-3.3c3.4 5.1 8.4 6.1 13.9 7.2 2.2.4 4.7.9 7.5 1.7 6.4 1.8 6.3 3.1 6.3 5.4v2.2c1.7 25.9 9 49.7 21.8 70.6.7 1.2 2 1.9 3.4 1.9H132c2.2 0 4-1.8 4-4v-50.3c0-.9-.3-1.7-.8-2.4zm-3.3 52.6H93c-10-16.3-19.3-39.1-21.2-68.9-.1-1.2.1-2.5-.1-3.8 4.9 1.6 7.8 3.2 7.8 3.2.3.2.7.3 1 .3.7 0 1.3-.4 1.7-1.1.6-.9.3-2.2-.7-2.7-.2-.1-4.7-2.7-12.2-4.7-.4-.1-.7-.1-1.1 0-1.3-.8-3.1-1.6-5.6-2.3C51.5 75.4 45.5 77 42 68.8c0 0-7 2.1-14.2 4.2-3.9 1.2-6.6 1.6-8.5 1.6-6.5 0-2.5-5.7.9-9.2 5.8 0 13.8-1.2 14.3-1.2 1.1-.2 1.9-1.2 1.7-2.3-.2-1.1-1.2-1.9-2.3-1.7-.2 0-10.2 1.5-15.6 1.2-1-1.2-1.4-3.1-.7-5.8 1.3-5.3 6.9-6.7 10.4-7.1 1.8 1.6 4.1 2.7 6.5 2.8 2.4.1 4.9-.7 6.8-2.3.9-.8 1.8-2 1.4-3.2-.2-.7-9.6-.2-10.2.9l-.5.2c2.5-3.9 4.4-5.1 8.2-5.1 2 0 4.5.3 8 .8 6 .8 13.3 2.5 19.9 2.5 2.9 0 5.7-.3 8.2-1.2 2.7-.9 5.9-1.3 8.8-1.3 5.9 0 11.1 1.3 11.1 1.3s8.7-6.9 13-6.9c.6 0 1.1.1 1.5.5 3.2 2.5 2.8 16-2.5 20.5-2 1.6 7.7 29.4 23.7 50.3v50.3z"/><path d="M44.5 160.5v-3.6c0-10.8-.1-20.2 13.8-23.8 1.6-.4 3.4-.7 5.4-1 8.8-1.1 19.2-1.7 31.6-1.7 12.4 0 22.8.5 31.6 1.7 2 .3 3.9.6 5.5 1 13.7 3.6 13.7 12.9 13.7 23.7v3.6H44.5v.1z" style="fill:#fff"/><path d="M95.3 138.5c-43.1 0-47.5 4.8-47.5 4.8h-.6c1.9-10.2 24.5-11.3 24.5-11.3h47.1s23.4.8 24.7 11.3h-.6c0-.1-4.5-4.8-47.6-4.8z" style="opacity:.2;fill:#fff;enable-background:new"/><path d="M148.1 162.5H42.6v-5.6c0-10.2-.1-20.8 13.4-25.1v-.1l1.9-.5c1.7-.4 3.6-.8 5.6-1 8.9-1.1 19.3-1.7 31.9-1.7 12.5 0 22.9.6 31.9 1.7 2.1.3 4 .6 5.8 1.1l1.9.5v.1c13.3 4.4 13.3 14.9 13.3 25.1l-.2 5.5zm-101.6-4h97.6v-1.6c0-10.8 0-18.6-12.2-21.8l-.7-.2c-1.4-.3-2.9-.6-4.6-.8-8.8-1.1-19-1.7-31.4-1.7-12.3 0-22.6.5-31.4 1.7-1.7.2-3.2.5-4.6.8l-.6.2c-12.3 3.2-12.3 11-12.3 21.8l.2 1.6z" style="fill:#1a1a1a"/></svg>