<svg version="1.1" id="Layer_1" xmlns="http://www.w3.org/2000/svg" x="0" y="0" viewBox="0 0 180 180" style="enable-background:new 0 0 180 180" xml:space="preserve"><defs><style>.cls-2{fill:#fff}</style></defs><path style="fill:none" d="M0 0h180v180H0z"/><path class="cls-2" d="M102.1 63.19s3.44-11.07 28.18-11.07a32.56 32.56 0 0 1 32.56 32.56 32 32 0 0 1-23.57 31.14L136 133.27l5.67 20c-2.62 2.1-8.41 3.93-17.23 5.43a196.66 196.66 0 0 1-34.22 2.6A196.66 196.66 0 0 1 56 158.67c-8.82-1.5-14.61-3.33-17.24-5.43l5.43-20.05-3.41-17.37a32 32 0 0 1-23.62-31.14 32.56 32.56 0 0 1 32.56-32.56c24.74 0 28.18 11.07 28.18 11.07"/><path d="M90.17 162.77a198.59 198.59 0 0 1-34.48-2.62c-9.19-1.57-15-3.45-17.91-5.74l-.77-.62 5.59-20.66L39.44 117a33.39 33.39 0 0 1-23.78-32.32 34.1 34.1 0 0 1 34.06-34.06c25.55 0 29.46 11.63 29.61 12.12l-2.86.89c0-.08-3.65-10-26.75-10a31.1 31.1 0 0 0-31.06 31.05 30.43 30.43 0 0 0 22.47 29.69l.9.25 3.65 18.62-5.24 19.38c2.08 1.29 6.48 3 15.76 4.58a195.92 195.92 0 0 0 34 2.57 195.59 195.59 0 0 0 34-2.57c9.27-1.59 13.68-3.28 15.77-4.58l-5.48-19.28 3.51-18.72.9-.25a30.43 30.43 0 0 0 22.47-29.69 31.1 31.1 0 0 0-31.06-31.06c-23.1 0-26.72 9.93-26.75 10l-2.86-.91c.15-.49 4.06-12.12 29.61-12.12a34.1 34.1 0 0 1 34.06 34.06 33.39 33.39 0 0 1-23.8 32.35l-3.08 16.2 5.85 20.59-.78.62c-2.86 2.29-8.73 4.17-17.92 5.74a198.39 198.39 0 0 1-34.47 2.62Zm2.83-129-.08 13H87V33.69h-7c-2 0-2.88-.93-2.88-2.79v-.08C77.07 29 78 28 80 28h7v-7.15c0-1.94 1-3 3-3a2.64 2.64 0 0 1 3 3V28h7.26a2.47 2.47 0 0 1 2.74 2.82v.08a2.47 2.47 0 0 1-2.79 2.79Z"/><path d="M135.53 134.71c-9.7-2.8-26.71-5.8-45.36-5.8-19.53 0-36.36 3-45.6 5.71l-.86-2.87c9.44-2.82 26.61-5.84 46.46-5.84 19 0 36.3 3.06 46.2 5.92Zm3.32-17.45c-11-3.17-31.2-6.38-48.68-6.38-18.17 0-38.41 3.21-49 6.37l-.86-2.87c10.81-3.23 31.41-6.5 49.87-6.5 17.76 0 38.35 3.27 49.51 6.49Z"/><path transform="translate(-1.12 1)" d="M88.58 94.09h3v15.29h-3z"/><path d="M140.69 154.41c-1.67-1.33-5.89-3.31-16.56-5.13a195.71 195.71 0 0 0-34-2.58 195.62 195.62 0 0 0-34 2.58c-10.67 1.82-14.89 3.8-16.56 5.13l-1.87-2.34c2.86-2.3 8.72-4.17 17.92-5.75a199.38 199.38 0 0 1 34.47-2.62 198.51 198.51 0 0 1 34.48 2.63c9.18 1.57 15 3.44 17.91 5.74Z"/><path class="cls-2" d="M90 94.09c.54-2 11.45-29.17 12.1-30.9a13.2 13.2 0 0 0 .87-4.65 13 13 0 0 0-25.94 0 13.2 13.2 0 0 0 .87 4.65C78.55 64.92 89.46 92 90 94.09Z"/><path d="m90 100-1.45-5.52C88.18 93.08 82 77.54 79 70.07c-1.35-3.4-2.33-5.86-2.51-6.36a14.43 14.43 0 1 1 28-5.17 14.69 14.69 0 0 1-1 5.19c-.18.48-1.16 2.94-2.51 6.34-3 7.47-9.17 23-9.54 24.4Zm0-52.7a11.38 11.38 0 0 0-11.47 11.24 11.57 11.57 0 0 0 .77 4.11c.18.48 1.2 3.05 2.5 6.31C85 77 88.21 85.06 90 89.73 91.79 85.06 95 77 98.2 69c1.3-3.26 2.32-5.83 2.49-6.3A11.26 11.26 0 0 0 90 47.29Z"/></svg>