<svg xmlns="http://www.w3.org/2000/svg" xml:space="preserve" style="enable-background:new 0 0 180 180" viewBox="0 0 180 180"><path d="M125.33 139.41c-19.32-12.14-21-27.3-21.55-33.33h12.15l.61-1.13.42-.78c1.3-2.37 2.15-3.94 2.15-7.46v-1.16l-.97-.64-12.82-8.46H74.67l-12.82 8.46-.97.64v1.16c0 3.52.86 5.09 2.15 7.46l.42.78.61 1.13h12.15c-.54 6.04-2.19 21.17-21.55 33.33-8.66 5.44-13.63 15.79-13.63 28.39v2.15h97.94v-2.15c0-12.6-4.97-22.94-13.64-28.39Z" style="fill:#fff"/><path d="M117.14 134.06c-11.58-8.1-12.37-23.89-13.1-27.5l11.67-.02 4.17-9.65s-9.32-9.96-15.29-10.15l-3.08-.22c.18.16 10.1 10.78-.11 17.4H63.29l.48 2.69 12.33-.02s14.25 14.45 26.06 25.58c11.34 10.69 28.54 12.18 28.54 12.18s-7.65-6.18-13.55-10.3Z" style="opacity:.2"/><g style="opacity:.2"><path d="M73.86 96.72c.7-4.79.71-10.16.81-10.25L60.43 96.72h13.43Z" style="fill:#fff"/></g><g style="opacity:.2"><path d="M42.57 168.39c4.69-15.4 11.92-17.98 24.13-26.87 8.11-5.9 7.97-25.44 7.97-25.44.19-.93-2.9 8.88-7.51 12.89-1.51 1.32-11.79 8.47-16.22 13.1-9.5 9.93-9.27 29.25-8.37 26.31Z" style="fill:#fff"/></g><path d="M138.97 171.95H41.03c-1.1 0-2-.9-2-2v-2.15c0-13.3 5.31-24.26 14.57-30.08 16.72-10.5 19.62-23.11 20.41-29.64h-9.94c-.74 0-1.41-.4-1.76-1.05l-1.03-1.9c-1.34-2.45-2.39-4.38-2.39-8.41v-1.16c0-.67.34-1.3.9-1.67l13.68-9.02c.34-.26.76-.41 1.21-.41h30.66c.39 0 .77.12 1.1.33l13.79 9.1c.56.37.9 1 .9 1.67v1.16c0 4.03-1.06 5.97-2.4 8.42l-1.03 1.9a1.99 1.99 0 0 1-1.76 1.05h-9.93c.8 6.54 3.73 19.17 20.4 29.64 9.26 5.82 14.57 16.78 14.57 30.08v2.15c0 1.1-.9 2-2 2Zm-95.94-4h93.94v-.15c0-11.89-4.63-21.62-12.7-26.69-20.46-12.86-21.98-29.41-22.48-34.84-.05-.56.14-1.12.51-1.53.38-.42.92-.65 1.48-.65h10.96l.47-.86c1.23-2.25 1.91-3.49 1.91-6.5v-.08l-12.39-8.17H75.28l-12.39 8.17v.08c0 3.01.68 4.25 1.9 6.5l.47.87h10.96c.56 0 1.1.24 1.48.65s.57.97.52 1.53c-.48 5.43-1.96 21.96-22.48 34.85-8.07 5.07-12.7 14.8-12.7 26.69v.15Z" style="fill:#1a1a1a"/><path d="M123.91 74.09c-5.06-12.3-9.83-19.14-9.83-19.14H65.92s-4.77 6.84-9.83 19.14h67.82Zm0 0c-5.06 7.95-18.58 12.37-18.58 12.37H74.68S61.16 82.04 56.1 74.09h67.81Zm-9.86-19.14c-.48-12.87-11.07-23.16-24.05-23.16S66.43 42.08 65.95 54.95h48.11Z" style="fill:#fff"/><path d="M114.08 54.95h-.02c-.32-8.55-5.1-15.96-12.09-19.97.08.22 5.37 14.37-7.4 20 0 0 8.81 13.86-12.91 19.11h25.64s-3.68 12.37-29.57 12.37h27.61s13.52-4.42 18.58-12.37c-5.06-12.3-9.83-19.14-9.83-19.14Z" style="opacity:.2"/><path d="M105.33 88.46H74.68c-.21 0-.42-.03-.62-.1-.58-.19-14.26-4.74-19.65-13.2-.39-.62-.42-1.4-.07-2.04.35-.64 1.02-1.04 1.75-1.04h67.82c.73 0 1.4.4 1.75 1.04.35.64.33 1.42-.07 2.04-5.39 8.46-19.07 13.01-19.65 13.2-.2.07-.41.1-.62.1Zm-30.32-4H105c1.61-.57 9.6-3.54 14.66-8.37H60.35C65.4 80.92 73.39 83.9 75 84.46Z" style="fill:#1a1a1a"/><path d="M76.48 54.95h-5.06s-1.21-9.85 7.81-20.61c-7.63 3.82-12.95 11.58-13.29 20.61h-.02s-4.77 6.84-9.83 19.14c0 0 9.2-19.14 20.39-19.14Z" style="opacity:.2;fill:#fff"/><path d="M114.05 56.95H65.94c-.54 0-1.06-.22-1.44-.61s-.58-.92-.56-1.46c.53-14.07 11.97-25.08 26.05-25.08s25.52 11.02 26.05 25.08c.02.54-.18 1.07-.56 1.46s-.9.61-1.44.61Zm-45.94-4h43.76c-1.42-10.9-10.66-19.16-21.88-19.16s-20.46 8.26-21.88 19.16Z" style="fill:#1a1a1a"/><path d="M123.91 76.09H56.09c-.67 0-1.29-.33-1.66-.89-.37-.55-.44-1.26-.19-1.87 5.09-12.36 9.84-19.23 10.04-19.52.37-.54.99-.86 1.64-.86h48.16c.65 0 1.27.32 1.64.86.2.29 4.96 7.16 10.04 19.52a2.005 2.005 0 0 1-1.85 2.76Zm-64.8-4h61.78c-3.47-7.95-6.64-13.18-7.89-15.14H67c-1.25 1.95-4.42 7.19-7.89 15.14Z" style="fill:#1a1a1a"/></svg>