<svg version="1.1" id="Layer_1" xmlns="http://www.w3.org/2000/svg" x="0" y="0" viewBox="0 0 180 180" style="enable-background:new 0 0 180 180" xml:space="preserve"><defs><style>.cls-1{fill:none}.cls-2{fill:#fff}</style></defs><path class="cls-1" d="M0 0h180v180H0z"/><path class="cls-1" d="M0 0h180v180H0z"/><path class="cls-2" d="m83.56 72.27-20.73 18h54.35l-20.84-18c9-2 11.61-7.36 11.61-16.13 0-9.52-8.21-16.69-18-16.69s-17.89 7.17-17.89 16.69c0 8.77 2.47 14.15 11.5 16.13Z"/><path class="cls-2" d="M42.88 157.63h94.25c.47-6.07-3.65-11.68-12.34-17C108.33 128 100.85 110.6 99 89.38H81c-1.84 21.22-9.32 38.62-25.78 51.23-8.79 5.39-12.9 10.95-12.34 17.02Z"/><path d="M86.32 71.6 67 88h46L93.69 71.6c7.64-1.8 11.49-6.69 11.49-14.67a15.18 15.18 0 0 0-30.36 0c0 7.98 3.86 12.87 11.5 14.67Zm53.25 90.9H40.44v-6.35C40 147 45.58 141 54.76 135.14c13.37-10.37 18.7-25.47 21.44-41.59H51.58l24.36-20.5a20.39 20.39 0 0 1-7.38-16.12 21.44 21.44 0 1 1 42.88 0 20.35 20.35 0 0 1-7.37 16.12l24.35 20.5h-24.61c2.66 16.12 8.06 31.22 21.44 41.59 9 5.84 14.67 11.84 14.32 21Zm-92.79-6.35h86.45c.42-5.57-3.35-10.71-11.32-15.6-15.1-11.58-22-27.53-23.67-47H81.77c-1.71 19.45-8.58 35.45-23.67 47-8.1 4.89-11.83 10.03-11.32 15.6Z"/></svg>