<svg xmlns="http://www.w3.org/2000/svg" viewBox="0 0 180 180" style="enable-background:new 0 0 180 180" xml:space="preserve"><path style="fill:none" d="M0 0h180v180H0z"/><path d="M23.4 51.1c-4-.7-6.9-3-5.5-9 2.2-9 15.4-8.3 15.4-8.3 5-8.7 7.4-8.2 19.5-6.7 9.8 1.3 22.8 4.7 32.2 1.4s22.8 0 22.8 0 13-10.1 16.6-7.2c3.6 2.9 3.3 18.3-2.9 23.4-2.2 1.8 8.1 31.7 25.5 55.3.5.7 13.4 18 14 18.7l-.9 41h-55.9C92.8 141 82.1 115 79.9 81c-.3-4.1 2.2-9-10.5-12.7-12.7-3.6-19.5-1.8-23.5-11.2 0 0-8 2.4-16.3 4.9-23.5 7-10.6-7.5-6.2-10.9z" style="fill:#fff"/><path d="M90.3 46.3c5.5 1.1 11.5-2.8 12.7-8.3l-21.4-4.2c-.9 5.6 3.2 11.4 8.7 12.5zm18.4-9.7c3.3 1.4 5.9 4.2 7 7.6 3.9-4.1 5.3-10.5 3.4-15.7-4.1 1.8-7.6 4.5-10.4 8.1z"/><path d="M163.3 117c-.5-.7-13.4-17.9-14-18.6-15.3-20.9-24.8-46.5-25.2-51.9 4.1-4.2 5.6-11.6 5.5-16.9 0-2.9-.5-8.1-3.4-10.4-1-1-2.2-1.4-3.6-1.4-4.9 0-12.5 5.2-15.6 7.5-2.2-.4-6.9-1.2-12-1.2-4.3 0-8 .5-11.1 1.6-2.3.8-5.1 1.2-8.4 1.2-5.1 0-10.5-.9-15.7-1.8-2.4-.4-4.6-.8-6.7-1l-.7-.1c-3.6-.5-6.4-.8-8.8-.8-5.9 0-8.9 2.5-12.1 7.6-4.3.1-14.4 1.5-16.6 10.6-.8 3.4-.5 6.3 1 8.6.5.8 1.2 1.5 2 2.1-2.8 3-6.1 7.5-4.8 11.2.6 1.7 2.2 3.7 6.7 3.7 2.6 0 6.1-.7 10.6-2 5.5-1.6 10.9-3.2 13.9-4.1 3.6 6.2 8.9 7.2 15.5 8.5 2.6.5 5.5 1.1 8.7 2 3.4 1 5.4 1.9 6.6 2.9.1.1.2.3.4.3 1.4 1.3 1.4 2.8 1.3 4.5v2.3c1.9 29.4 10.2 56.3 24.7 80l.9 1.4h60.5l.1-2.9.9-41v-1.1l-.6-.8zm-3.2 42.7h-55.9C92.8 141 82.1 115 79.9 81c-.1-1.6.2-3.3-.1-5 5.8 1.9 9.2 3.8 9.2 3.8.2.1.4.2.7.2.5 0 1-.3 1.3-.8.4-.7.1-1.6-.6-2-.3-.1-5-2.8-12.9-5-1.5-1.4-4-2.7-8.1-3.9-12.7-3.6-19.5-1.8-23.5-11.2 0 0-8 2.4-16.3 4.9-4.4 1.3-7.6 1.9-9.7 1.9-7.8 0-2.2-7.4 1.7-11.3 6.5-.1 14.9-1.4 15.3-1.4.9-.1 1.4-.8 1.3-1.7s-.9-1.4-1.7-1.3c-.1.1-10.3 1.5-16.7 1.4-1.9-1.3-2.8-3.7-1.9-7.6 1.5-6 7.7-7.7 11.8-8.1h-.1c2 2 4.7 3.1 7.5 3.3s5.7-.8 7.8-2.6c1.1-.9 2-2.3 1.6-3.6-.3-.8-11-.2-11.7 1l-.6.2c2.9-4.7 5.1-6.1 9.5-6.1 2.3 0 5.2.4 9.1.9 6.8.9 15.2 2.8 22.8 2.8 3.3 0 6.5-.4 9.4-1.4 3.1-1.1 6.7-1.4 10.1-1.4 6.8 0 12.7 1.4 12.7 1.4s9.9-7.6 14.8-7.6c.7 0 1.3.2 1.8.5 3.6 2.9 3.3 18.3-2.9 23.4-2.2 1.8 8.1 31.7 25.5 55.3.5.7 13.4 18 14 18.7l-.9 41z"/><path d="M58.5 79c-3-.5-5.2-2.3-4.1-6.7 1.6-6.8 11.5-6.2 11.5-6.2 3.8-6.5 5.6-6.2 14.6-5 7.3.9 17.1 3.5 24.2 1.1 7.1-2.4 17.1 0 17.1 0s9.8-7.6 12.5-5.4c2.7 2.2 2.4 13.7-2.2 17.6-1.6 1.4 6.1 23.7 19.1 41.5.4.6 10.1 13.5 10.5 14l-.7 30.8h-41.9c-8.6-14-16.5-33.5-18.2-59-.3-3.1 1.6-6.8-7.9-9.5s-14.7-1.4-17.6-8.4c0 0-6 1.8-12.2 3.6-17.6 5.1-8-5.8-4.7-8.4z" style="fill:#fff"/><path d="M108.6 75.5c4.2.8 8.7-2.2 9.6-6.3l-16.1-3.1c-.7 4.2 2.4 8.6 6.5 9.4zm13.9-7.4c2.5 1 4.5 3.2 5.3 5.7 2.9-3 3.9-7.8 2.5-11.7-3 1.3-5.7 3.4-7.8 6z"/><path d="M163.4 128.5c-.4-.5-10.1-13.5-10.5-14-11.5-15.7-18.6-34.9-18.9-38.9 3.1-3.1 4.2-8.7 4.1-12.7 0-2.2-.4-6.1-2.6-7.8-.6-.7-1.5-1-2.6-1-3.7 0-9.3 3.9-11.7 5.7-1.7-.3-5.2-.9-9-.9-3.2 0-6 .4-8.3 1.2-1.7.6-3.8.9-6.3.9-3.8 0-7.8-.7-11.8-1.3-1.8-.3-3.4-.6-5-.8l-.5-.1c-2.7-.3-4.8-.6-6.6-.6-4.5 0-6.7 1.9-9 5.7-3.2.1-10.8 1.1-12.4 7.9-.6 2.6-.4 4.7.7 6.4.4.6.9 1.2 1.5 1.6-2.1 2.3-4.5 5.6-3.6 8.4.4 1.3 1.7 2.8 5 2.8 2 0 4.5-.5 7.9-1.5 4.1-1.2 8.1-2.4 10.4-3.1 2.7 4.6 6.7 5.4 11.7 6.4 1.9.4 4.1.8 6.5 1.5 6.3 1.8 6.3 3.5 6.2 5.8v1.7c1.4 22.1 7.7 42.3 18.5 60l.7 1.1h45.4v-2.2l.7-30.8v-.8l-.5-.6zm-2.5 32.1H119c-8.6-14-16.5-33.5-18.2-59-.1-1.3.1-2.6-.2-4 4.4 1.5 7.1 3 7.1 3 .2.1.4.1.6.1.4 0 .7-.2.9-.6.3-.5.1-1.2-.4-1.5-.1-.1-4-2.3-10.2-4-1.2-.9-2.9-1.7-5.7-2.5-9.5-2.7-14.7-1.4-17.6-8.4 0 0-6 1.8-12.2 3.6-3.3 1-5.7 1.4-7.3 1.4-6.1 0-1.5-5.8 1.6-8.6 4.9-.1 11.1-1 11.3-1 .7-.1 1.1-.6 1-1.3s-.7-1.1-1.3-1c-.1 0-7.8 1.1-12.6 1-.1 0-.2 0-.3.1-1.2-1-1.8-2.8-1.1-5.5 1.1-4.6 6-5.8 9-6.1 1.4 1.4 3.4 2.2 5.4 2.3 2.1.1 4.2-.7 5.8-2 .8-.7 1.5-1.7 1.2-2.7-.1-.6-8.2-.1-8.7.8l-.4.1c2.1-3.3 3.8-4.3 7-4.3 1.7 0 3.9.3 6.8.7 5.1.7 11.4 2.1 17.1 2.1 2.5 0 4.9-.3 7.1-1 2.4-.8 5-1.1 7.6-1.1 5.1 0 9.5 1.1 9.5 1.1s7.4-6 11.1-6c.5 0 1 .1 1.3.4 2.7 2.2 2.4 13.7-2.2 17.6-1.6 1.4 6.1 23.7 19.1 41.5.4.6 10.1 13.5 10.5 14l-.7 30.8z"/></svg>