<svg version="1.1" id="Layer_1" xmlns="http://www.w3.org/2000/svg" x="0" y="0" viewBox="0 0 180 180" style="enable-background:new 0 0 180 180" xml:space="preserve"><style>.st0,.st1{fill:#fff}.st1{opacity:.2;enable-background:new}.st4{fill:#1a1a1a}.st5{opacity:.2;fill:#040000;enable-background:new}</style><g id="Layer_2"><g id="Layer_1-2"><path class="st0" d="M58.1 24.3h-.8c-2.7 0-5.4 2.5-6.2 5.6l-1.5 6.9c-1.3 3.1-3.5 5.4-7.1 8.3-2.8 2.3-4.9 5.3-6.1 8.7l-.2.4c-.9 2.3-1.6 4.3-2.2 6.1-1.3 4.6-3.4 8.9-6.1 12.8L16.4 89.5c-3.6 4.6-3.2 10.8.9 14.3s14.4 6.3 17.9 6.3c.9.1 1.7-.2 2.4-.8 1.4-1.5 2.7-3.1 3.7-4.8 2.3-3.6 4-6.2 9.9-6.2 8.7 0 16.3-8 19.9-11.8l2.2-2.5c1.5 2.3 3.1 6.1 2 10.1-.5 1.7-1.3 3.3-2.3 4.8-2.3 3-5 5.7-8 8l-.2.2c-7.5 6.1-20 16.2-22.1 30.3-13.3 3.6-13.3 12.9-13.3 23.6v3.6H131V161c0-10.7.1-20-13.3-23.6.4-1.6 1-3.6 1.6-5.9 2.6-9.2 6.2-21.9 6.2-30.2 0-19.6-6.2-36-17.9-47.5-9.9-9.6-23-15.4-36.8-16.4L58.7 24.9l-.6-.6z"/><path class="st1" d="M80.8 142.5c43.1 0 47.5 4.8 47.5 4.8h.6c-1.9-10.2-24.5-11.3-24.5-11.3H57.3s-23.4.8-24.7 11.3h.6c0-.1 4.5-4.8 47.6-4.8z"/><g style="opacity:.2"><path d="M54.7 44.2c8.1-5 2.6-18 2.6-18-2.4 0-4.5 1.6-5 4l-1.5 6.9c-1.4 3.4-3.7 5.7-7.5 8.8-2.7 2.2-4.7 5-5.8 8.3l-.2.4c-.9 2.3-1.5 4.2-2.1 6-1.3 4.7-3.4 9.1-6.2 13.1L17.5 90.2c-.1.2-.3.3-.4.5-2.2 2-2.6 5.3-1 7.7 0 0 19-23.5 21.5-26.7 4.4-6 1.6-17.8 17.1-27.5z" style="fill:#fff"/></g><path class="st4" d="M55.8 53.8c-5.2 2.1-6.6 11.1-6.6 11.1 5.1-4.4 7.5.7 12.6-3.4 4.2-3.3-.9-9.8-6-7.7z"/><path class="st5" d="M79.9 70.1c-1.8 3.5-6.3 10.6-6.3 10.6s-.5 1.4-1 3.5c0 0 2.1-.2 2.5 6.4.1 1.7.9 7.8 2 5.2 3-7.4 5.2-16.4 5.1-19.5s-.5-9.7-2.3-6.2z"/><path class="st5" d="M70.2 39.2S111 44.3 111 83.3c0 26.1-17.4 33.4-22 51 0 0 19.3.2 27.9 4.2 0 0 9.2-24.8 9.2-39.6 0-15-11.4-60.9-55.9-59.7zm-15 57c-9.1-4.5-11.4-9.8-14.9.7-3.4 10.2-8.5 11.9-5.1 13S43 99.4 46 99.3s12.6-1.4 9.2-3.1z"/><path class="st4" d="m57.3 26.3 12.9 12.9c25.3 1.7 53.5 20.1 53.5 62 0 11.1-7 31.5-8.3 37.6 14.4 3 13.7 11.6 13.7 23.8H31.6c0-12-.7-20.5 13.1-23.6 1.4-14.2 14.4-24.5 21.7-30.5 3.2-2.4 6-5.2 8.4-8.4 1.1-1.6 2-3.5 2.6-5.4 1.8-6.4-2.3-12.1-3.8-13.9l-3.8 4.4c-3.9 4-10.7 11.1-18.5 11.1-10 0-10.3 7.1-15 11.7-.3.2-.7.2-1 .2-3.3 0-12.9-2.7-16.6-5.8-3.2-2.7-3.6-7.8-.6-11.5l11.7-16.5c5.2-7.6 5.5-11.7 8.5-19.3 1-3.3 3-6.1 5.6-8.3 3.8-3.2 6.3-5.6 7.8-9.3l1.5-7c.4-2.3 2.3-4.2 4.1-4.2m1.7-4h-1.7c-3.7 0-7.2 3.1-8.1 7.2v.1l-1.4 6.6c-1.2 2.7-3.1 4.6-6.5 7.4-3.1 2.5-5.4 5.8-6.7 9.5l-.2.4c-.9 2.3-1.6 4.4-2.2 6.2C31 64.1 29 68.3 26.4 72L14.8 88.3c-4.2 5.3-3.8 12.8 1.2 17 4.6 3.9 15.4 6.8 19.2 6.8 1.4.1 2.8-.4 3.8-1.3 1.5-1.6 2.9-3.3 4-5.2 2.2-3.4 3.4-5.3 8.2-5.3 9.6 0 17.5-8.4 21.4-12.4l.1-.1.1-.1.3-.3c.8 1.9 1 4 .5 6-.4 1.5-1.1 2.9-2 4.2-2.2 2.9-4.7 5.4-7.6 7.6l-.2.2c-7.6 6.1-19.8 16.1-22.6 30.3-5.8 1.8-9.6 5-11.6 9.5s-2 9.7-1.9 15.7v5.6h105.5v-5.6c0-6.1 0-11.3-2-15.9-2-4.3-5.4-7.3-10.8-9.1.3-1.2.7-2.6 1.1-4 2.7-9.4 6.3-22.2 6.3-30.8 0-42.1-27.7-63.3-55.7-65.8l-12-11.8-1.1-1.2z"/><path class="st4" d="M80.8 136.5c10.5-.1 21 .5 31.4 1.7 1.7.2 3.5.6 5.2 1l.7-4c-1.8-.4-3.5-.8-5.3-1-10.6-1.2-21.2-1.8-31.9-1.7-10.6-.1-21.3.4-31.8 1.6-1.9.2-3.7.6-5.6 1l.8 3.9c1.7-.4 3.5-.8 5.3-1 10.2-1.1 20.7-1.6 31.2-1.5z"/><path class="st0" d="M162.9 65.6c.7-4.6-.5-9.3-3.4-13-2.6-3.7-6.1-6.5-10.2-8.2l4.6-5.4 3.8 5 7.8-5.8-3.9-5.2 5.2-3.9-5.8-7.8-5.2 3.9-3.9-5.1-7.8 5.8 3.8 5-6.5 2.9c-.5-4.4-2.2-8.7-5-12.2-2.7-3.8-6.8-6.3-11.4-7-4.7-.5-9.5.9-13.2 3.8-5.9 4.4-6.8 10.9-7.8 17.3-.6 3.9-1.2 7.9-2.8 11.6L125 79.2c3.9-.6 8 0 11.9.6 6.3.9 12.9 1.9 18.8-2.5 3.8-2.9 6.4-7.1 7.2-11.7zm-43.7-16.1c-.9-1.1-1.6-1.9-2.8-3.2 1.5-5.4.8-11.3 3.3-13.8 4.1-4.1 8.1.9 8.1.9 2.1 2.8 2.2 8.1 2.2 8.1l-10.8 8zm25.2 16c-3.1 1.7-8.6-.6-14.2-.8-.9-1.5-1.5-2.4-2.3-3.6l10.8-8s5.1 1.6 7.1 4.4c.1 0 3.6 5.2-1.4 8z"/><path d="m163.8 39.5-5.2-6.9 2.4.2 4.2 5.6zm0-10.8-3.2-4.3-5.2 3.8-3.9-5.2-4.3 3.3-3.1-.5 7.8-5.8 3.9 5.2 5.2-3.9 5.8 7.8z" style="opacity:.3;fill:#fff;enable-background:new"/><path class="st1" d="M138.4 26.5s-3.7-11.5-14.8-12c-15.4-.7-17.9 14.9-17.9 14.9 6.2-13.6 23.4-16.6 32.7-2.9z"/><path class="st5" d="m144.2 76.4-22.5-3.2 3.2 6c4.3-.4 8.7-.2 13 .6 7.3 1.2 12 1.7 18.8-3.3 5-3.7 5.3-7.9 5.5-11.5-.1-.1-6.5 13.1-18 11.4z"/><path class="st4" d="M127.1 33.9c1.4 1.9 2 4.3 1.9 6.6l-9.7 7.2-1.7-2c.5-2.1.8-4.1 1.1-5.8.6-3.7 1.1-6.4 2.5-7.4 2.3-1.8 4.5-.4 5.9 1.4m1.7-1.3c-2.2-3-5.8-4.2-8.9-1.9s-2.8 8-4.7 15.5c0 0 2.9 3.5 3.7 4.5l12.1-9c.4-3.2-.3-6.4-2.2-9.1zm-15.5 30.3c3.4 4.5 6.6 9.2 9.4 14.1.5.8.9 1.7 1.3 2.6l2-1c-.4-.9-.8-1.8-1.3-2.6-2.9-5-6.1-9.8-9.6-14.3-3.4-4.6-7.1-9.1-11-13.3-.7-.7-1.4-1.4-2.2-2.1l-1.5 1.6c.8.6 1.5 1.3 2.1 2 3.8 4.1 7.5 8.5 10.8 13z"/><path class="st4" d="M136.3 80.8c6.6 1 13.3 2 19.6-2.7 8.8-6.6 10.6-17.5 4.2-26.1-2.5-3.3-5.5-6.1-9-8.3l2.5-2.9 3.6 4.8 9.5-7.1-3.9-5.2 5.2-3.9-7.1-9.5-5.2 3.9-3.9-5.2-9.5 7.1 3.6 4.8-3.4 1.5c-1.2-4-3-7.7-5.5-11-6.4-8.5-17.4-10-26.2-3.4-6.2 4.6-7.2 11.4-8.2 18-.3 3.4-1.1 6.7-2.2 9.9l.7 3.5c5.6-9.9 1.5-22.6 10.9-29.6 8-5.9 17.6-4.5 23.2 3 2.8 3.7 4.7 8 5.7 12.6l8.3-3.7-3.9-5.2 6.1-4.5 3.9 5.2 5.2-3.9L165 29l-5.2 3.9 3.9 5.2-6.1 4.5-3.9-5.2-6 7c4.2 2.1 7.8 5.2 10.6 9 5.6 7.5 4.2 17.2-3.8 23.1-9.4 7-20.5-.5-31.6 2l3.1 1.7c3.6-.2 7 0 10.3.6z"/><path class="st4" d="M145.1 58.1c1.4 1.8 2 4.4-.3 6.1-1.4 1.1-4.1.8-7.9.3-1.8-.2-3.7-.5-5.9-.6l-1.5-2.2 9.7-7.2c2.3.4 4.4 1.7 5.9 3.6m1.7-1.3c-2-2.5-4.9-4.2-8.1-4.7l-12.1 9c.8 1.1 3.2 4.8 3.2 4.8 7.8.3 13.1 2.3 16.2-.1 3.2-2.3 3.1-6 .8-9z"/></g></g></svg>