<svg xmlns="http://www.w3.org/2000/svg" viewBox="0 0 180 180" style="enable-background:new 0 0 180 180" xml:space="preserve"><path style="fill:none" d="M0 0h180v180H0z"/><path d="M70 81.1c0-29.6-30-38.6-25-56.6-36 1-36 58.3-36 126.6 0-14.4 7.1-19.8 16-17.1.9-11.2 6.1-16.6 14.6-13.5 4-19.7 12.8-24.9 30.5-24.9V81.1z" style="fill:#fff"/><path d="M44.7 25.6c.1-.4.1-.7.2-1.1-36 1-36 58.3-36 126.6 0-9 2.8-14.5 7-16.7.2-55.9 2.6-101.3 28.8-108.8z" style="opacity:.2;fill:#fff"/><path d="M56 45.9c-6.3-7.4-11.2-13.3-9.2-20.8v-1.3s0-.1-.1-.1v-.1s0-.1-.1-.1c0 0 0-.1-.1-.1v-.1l-.1-.1-.1-.1c-.1-.1-.1-.1-.2-.1l-.1-.1h-.1c-.1 0-.1-.1-.2-.1s-.1 0-.2-.1H45C7 23.8 7 82.8 7 151.3c0 1.1.9 2 2 2s2-.9 2-2c0-6.9 1.7-11.9 4.9-14.3 2.8-2.1 6.1-1.6 8.5-.9h1.1c.1 0 .2 0 .3-.1h.1c.1-.1.3-.1.4-.2.1-.1.2-.2.3-.2l.1-.1.2-.2.1-.1c0-.1.1-.2.1-.2v-.6c.4-5.8 2.1-9.9 4.7-11.6 1.8-1.2 4.3-1.3 7.2-.2h.1c.1 0 .2 0 .3.1h.5c.1 0 .2 0 .3-.1h.1c.1 0 .2-.1.2-.1h.1s.1 0 .1-.1c.1 0 .1-.1.2-.1l.1-.1.2-.2.1-.1c0-.1.1-.1.1-.2 0 0 0-.1.1-.1 0-.1.1-.2.1-.2v-.1c3.4-18 10.3-23.7 28.4-23.7 1.1 0 2-.9 2-2V81.1c0-16.3-8.8-26.8-16-35.2zm-42.6 87.7c-.8.6-1.7 1.4-2.5 2.5.1-27.9.7-53.8 4.5-73.1 4-20.3 11.2-31.8 22.4-35.3C21.3 45.1 22.1 87 22.7 118.5c.1 4.6.2 8.9.2 13-3.6-.6-6.8.1-9.5 2.1zm16-14.4c-1 .7-1.9 1.5-2.7 2.6 0-1.1 0-2.2-.1-3.4-.6-30.8-1.4-71.9 14-88.1-4.2 15.2-5.3 44.5-3.3 87.5-3.6-.6-6.2.4-7.9 1.4zM68 93.6c-14.3.4-22.3 4.7-27 15.1-1.5-40.2.2-62.1 2.7-73.9 1.9 4.7 5.5 9.1 9.3 13.6 7 8.4 15 17.8 15 32.7v12.5z" style="fill:#1a1a1a"/><path d="M110 81.1c0-29.6 30.1-38.6 25.1-56.6 36 1 36 58.3 36 126.6 0-14.4-7.1-19.8-16-17.1-.9-11.2-6.1-16.6-14.6-13.5-4-19.7-12.8-24.9-30.5-24.9V81.1z" style="fill:#fff"/><path d="M135.3 25.6c-.1-.4-.1-.7-.2-1.1 36 1 36 58.3 36 126.6 0-9-2.8-14.5-7-16.7-.2-55.9-2.6-101.3-28.8-108.8z" style="opacity:.2;fill:#fff"/><path d="M135.1 22.5s-.1 0 0 0h-.5c-.1 0-.1 0-.2.1h-.2l-.1.1c-.1 0-.1.1-.2.1s-.1.1-.1.1l-.1.1v.2l-.1.1v.1s0 .1-.1.1c0 .1-.1.2-.1.3v.6c0 .1 0 .2.1.4 2.1 7.5-2.9 13.4-9.2 20.8-7.1 8.4-16 18.9-16 35.3v14.5c0 1.1.9 2 2 2 18.1 0 25 5.7 28.6 23.3v.1c0 .1 0 .2.1.3 0 0 0 .1.1.1 0 .1.1.1.1.2l.1.1.2.2.1.1c.1.1.1.1.2.1 0 0 .1 0 .1.1h.1c.1 0 .2.1.2.1s.1 0 .1.1h.8c.1 0 .2 0 .3-.1h.1c2.9-1 5.3-1 7.2.2 2.6 1.7 4.3 5.7 4.7 11.6v.6c0 .1.1.2.1.2s0 .1.1.1c.1.1.1.2.2.2l.1.1.3.3c.1.1.2.1.4.2h.1c.1 0 .2.1.3.1h1.1c2.3-.7 5.7-1.1 8.5.9 3.2 2.3 4.9 7.4 4.9 14.3 0 1.1.9 2 2 2s2-.9 2-2c-.4-68.3-.4-127.3-38.4-128.4zM112 93.6V81.1c0-14.9 8-24.3 15-32.7 3.8-4.5 7.4-8.8 9.3-13.6 2.5 11.8 4.2 33.6 2.7 73.9-4.7-10.4-12.7-14.7-27-15.1zm38.6 25.6c-1.6-1.1-4.2-2-7.9-1.4 2-42.9.9-72.3-3.3-87.5 15.4 16.1 14.6 57.2 14 88.1 0 1.1 0 2.2-.1 3.4-.8-1-1.7-1.9-2.7-2.6zm16 14.4c-2.1-1.5-4.5-2.3-7.2-2.3-.7 0-1.5.1-2.3.2 0-4 .1-8.4.2-13 .6-31.5 1.4-73.4-15.1-90.9 11.2 3.5 18.4 14.9 22.4 35.3 3.8 19.4 4.4 45.2 4.5 73.1-.9-1-1.7-1.8-2.5-2.4z" style="fill:#1a1a1a"/><path d="M89.1 16.9c-7.1 0-12.9 5.8-12.9 12.9 0 3.3 1.2 6.4 3.4 8.8-5.3 4.3-10.1 9-14.5 14.2-10.8 13-16.5 26.6-16.5 39.4 0 20.8 9.4 33.3 16.4 39.2-2.3.2-4.5.4-6.6.7-19.2 2.4-19.2 12.8-19.2 24.7v3.6h101.6v-3.6c0-12 .1-22.3-19.2-24.7-2.1-.3-4.3-.5-6.6-.7 7-5.8 16.4-18.4 16.4-39.2 0-20.5-13.5-35.9-22.1-44.5l-1.8-1.8-1.3 2.2c-1.5 2.5-8.8 14.5-9.1 44.6H83.3c.5-45 18-62 18.2-62.2l.7-.6-.1-.9c-.6-6.9-6.2-12.1-13-12.1z" style="fill:#fff"/><path d="M117 57.6c22.7 55.1-27.1 71.8-27.1 71.8l25.1 1.9c-2.4 1.9 16-5.2 16-41.4.1-12.2-5-23.9-14-32.3z" style="opacity:.2;enable-background:new"/><path d="M82.8 38.8c-2.7-1.2-28.6 20.6-32.9 42.9-4 20.8 3.2 26.6 2.8 26.4 0-.1 2.8-45.8 32.8-68.1 0 0-1.2-.5-2.7-1.2zm8.2-20c-4.3.4-11.8 6.7-12.4 15.4 0 0-6-5.6.1-12.5 4.7-5.5 12.3-2.9 12.3-2.9zm-1 119.6c43.1 0 47.5 4.8 47.5 4.8h.6c-1.9-10.2-24.5-11.3-24.5-11.3H66.5s-23.4.8-24.7 11.3h.6c.1 0 4.5-4.8 47.6-4.8z" style="opacity:.2;fill:#fff;enable-background:new"/><path d="M88 57c1.8-5.1 14.1-29 14.1-29l-5.5-9.2-2.9.1c9.2 11.3-18 37-18 56.4 0 5.7 1.4 17.2 5.5 19.3.1.1 3-27.1 6.8-37.6z" style="opacity:.2;enable-background:new"/><path d="M89.1 18.9c5.7 0 10.5 4.4 10.9 10.1 0 0-18.7 17.7-18.7 65.6H99c0-29.9 7-42.4 8.9-45.6 9.5 9.4 21.5 24 21.5 43.1 0 26.2-15.3 38.4-20.3 40.8 4.3.3 8.4.6 12.3 1.1 18.3 2.3 17.4 11.3 17.4 24.4H41.2c0-13.1-.8-22.1 17.4-24.4 3.8-.5 8-.9 12.3-1.1-5-2.4-20.3-14.5-20.3-40.8 0-30.1 32.1-53.4 32.1-53.4-4.9-3.5-6-10.4-2.5-15.3 2.1-2.8 5.4-4.5 8.9-4.5zm0-4c-8.2 0-14.9 6.7-14.9 14.9 0 3 .9 6 2.7 8.5-4.8 4-9.2 8.5-13.2 13.3-11.1 13.3-17 27.3-17 40.5 0 18.4 7.2 30.6 13.9 37.6l-2.3.3c-21 2.7-21 14.4-20.9 26.7v5.6H143v-5.6c0-12.4.1-24.1-20.9-26.7-.8-.1-1.6-.2-2.3-.3 6.7-7 13.9-19.3 13.9-37.6 0-15.7-7.4-30.7-22.7-46l-3.7-3.6-2.6 4.5c-5.8 9.8-9 24.8-9.4 43.6h-9.7c.5-21.5 5-36 8.8-44.5 4.3-9.8 8.7-14.1 8.7-14.1l1.3-1.3-.1-1.9c-.9-7.8-7.4-13.9-15.2-13.9z" style="fill:#1a1a1a"/><path d="M90 132.4c9 0 17.2.3 24.6.9l1.9-3.8c-7.7-.7-16.4-1.1-26.5-1.1-10.2 0-19 .4-26.7 1.1l1.2 3.9c7.6-.7 16.1-1 25.5-1z" style="fill:#1a1a1a"/><path d="M44.2 160.5c0 5-5 9-5 9s-5-4-5-9 2.2-9 5-9 5 4 5 9zm10 0c0 5-5 9-5 9s-5-4-5-9 2.2-9 5-9 5 4 5 9zm10 0c0 5-5 9-5 9s-5-4-5-9 2.2-9 5-9 5 4 5 9zm61.6 0c0 5-5 9-5 9s-5-4-5-9 2.2-9 5-9c2.7 0 5 4 5 9zm10 0c0 5-5 9-5 9s-5-4-5-9 2.2-9 5-9c2.7 0 5 4 5 9zm10 0c0 5-5 9-5 9s-5-4-5-9 2.2-9 5-9c2.7 0 5 4 5 9z" style="fill:#fff"/><g style="opacity:.2"><path d="M39.2 151.5c-2.8 0-5 4-5 9h10c0-5-2.2-9-5-9zm10 0c-2.8 0-5 4-5 9h10c0-5-2.2-9-5-9zm10 0c-2.8 0-5 4-5 9h10c0-5-2.2-9-5-9zm61.6 0c-2.8 0-5 4-5 9h10c0-5-2.3-9-5-9zm10 0c-2.8 0-5 4-5 9h10c0-5-2.3-9-5-9zm10 0c-2.8 0-5 4-5 9h10c0-5-2.3-9-5-9z" style="fill:#fff"/></g><path d="m39.2 172-1.3-1c-.2-.2-5.7-4.7-5.7-10.6 0-6.3 3-11 7-11s7 4.7 7 11c0 5.9-5.5 10.4-5.7 10.6l-1.3 1zm0-18.5c-1.2 0-3 2.8-3 7 0 2.5 1.7 4.9 3 6.2 1.3-1.4 3-3.7 3-6.2 0-4.3-1.8-7-3-7z" style="fill:#1a1a1a"/><path d="m49.2 172-1.3-1c-.2-.2-5.7-4.7-5.7-10.6 0-6.3 3-11 7-11s7 4.7 7 11c0 5.9-5.5 10.4-5.7 10.6l-1.3 1zm0-18.5c-1.2 0-3 2.8-3 7 0 2.5 1.7 4.9 3 6.2 1.3-1.4 3-3.7 3-6.2 0-4.3-1.8-7-3-7z" style="fill:#1a1a1a"/><path d="m59.2 172-1.3-1c-.2-.2-5.7-4.7-5.7-10.6 0-6.3 3-11 7-11s7 4.7 7 11c0 5.9-5.5 10.4-5.7 10.6l-1.3 1zm0-18.5c-1.2 0-3 2.8-3 7 0 2.5 1.7 4.9 3 6.2 1.3-1.4 3-3.7 3-6.2 0-4.3-1.8-7-3-7zm61.6 18.5-1.3-1c-.2-.2-5.7-4.7-5.7-10.6 0-6.3 3-11 7-11s7 4.7 7 11c0 5.9-5.5 10.4-5.7 10.6l-1.3 1zm0-18.5c-1.2 0-3 2.8-3 7 0 2.5 1.7 4.9 3 6.2 1.3-1.4 3-3.7 3-6.2 0-4.3-1.8-7-3-7z" style="fill:#1a1a1a"/><path d="m130.8 172-1.3-1c-.2-.2-5.7-4.7-5.7-10.6 0-6.3 3-11 7-11s7 4.7 7 11c0 5.9-5.5 10.4-5.7 10.6l-1.3 1zm0-18.5c-1.2 0-3 2.8-3 7 0 2.5 1.7 4.9 3 6.2 1.3-1.4 3-3.7 3-6.2 0-4.3-1.8-7-3-7z" style="fill:#1a1a1a"/><path d="m140.8 172-1.3-1c-.2-.2-5.7-4.7-5.7-10.6 0-6.3 3-11 7-11s7 4.7 7 11c0 5.9-5.5 10.4-5.7 10.6l-1.3 1zm0-18.5c-1.2 0-3 2.8-3 7 0 2.5 1.7 4.9 3 6.2 1.3-1.4 3-3.7 3-6.2 0-4.3-1.8-7-3-7z" style="fill:#1a1a1a"/></svg>