<svg xmlns="http://www.w3.org/2000/svg" viewBox="0 0 180 180" style="enable-background:new 0 0 180 180" xml:space="preserve"><path style="fill:none" d="M0 0h180v180H0z"/><path d="M39.1 67.4c-.8 3.2-1.2 6.4-1.3 9.7-.2 8.3 3.3 17 4.6 27.3 2.1 16.6-6.6 31.2-8.4 36.7-1.5 4.7-1.8 18.8-1.8 18.8h101.9l-1-10.2-8.4-8.7-.8-7.5c-.4-3.2-2.5-15.8-8.5-26.8l-25-39.3H39.1z" style="fill:#8c8a88"/><path d="M29 159.8c.1-1.4.3-14.6 2-19.6.4-1.3 1.1-2.7 1.9-4.6 3-6.9 8-18.3 6.4-30.8-.5-4.2-1.4-8-2.3-11.8-1.2-5.5-2.4-10.7-2.3-16 .1-3.5.5-6.9 1.3-10.3l.5-2.3H92l25.9 40.7.1.2c6.8 12.3 8.7 26.4 8.9 28l.7 6.4 8.4 8.7 1.4 14.5H29.1l-.1-3.1zm101.3-8.7-8.4-8.7-.9-8.4c-.2-1.5-1.9-14.4-8.1-25.7L88.8 70.5H41.5c-.4 2.3-.6 4.5-.7 6.8-.1 4.5 1 9.4 2.2 14.5.9 3.9 1.8 7.9 2.4 12.3 1.8 14.1-3.6 26.5-6.8 33.9-.8 1.7-1.4 3.1-1.7 4.1-.9 2.8-1.4 10-1.6 14.8h95.5l-.5-5.8z" style="fill:#1a1a1a"/><path d="M25.1 159.5c.2-1.4 1.4-14.5 3-19.4.5-1.4 1.3-3.1 2.3-5.2 3.2-6.8 8.6-18.1 7-30.2-.3-1.9-.5-3.8-.8-5.7-1.1-8.1-2.1-15-1.9-22 .1-3.5.5-6.9 1.3-10.3l.5-2.3H92l25.9 40.7.1.2c6.8 12.3 8.7 26.4 8.9 28l.7 6.4 8.4 8.7 1.4 14.5H24.9l.2-3.4zm105.2-8.4-8.4-8.7-.9-8.4c-.2-1.5-1.9-14.4-8.1-25.7L88.8 70.5H41.5c-.4 2.3-.6 4.5-.7 6.8-.2 6.4.7 13.2 1.8 21 .3 1.9.5 3.8.8 5.8 1.8 13.8-4 26.1-7.5 33.5-.9 1.8-1.7 3.5-2 4.5-1 2.8-1.9 10-2.4 14.8h99.3l-.5-5.8z" style="fill:#1a1a1a"/><path d="M81.9 71.2s-1.2 6.3-3 12.9c-2.7 9.9-4.6 13-5.5 14l-.7.8-1-.4c-15.1-6.9-28-24.8-31.6-30.1l-.1-.1v-.1c-.5-.9-11.2-23.5-5.2-38l.2-.4.3-.2c8.6-6.2 19.9-9.3 33.5-9.3h.2c6.4 0 12.7.7 18.9 2.1 1.3 0 9.1.1 14.1 1.6 8.5 2.2 15.9 7.5 20.7 14.8 3.9 5.8 6.4 12.4 7.5 19.3 28.7 37.5 14.3 72.7 12.6 76.5-1.2 2.8-1.5 5.9-1.1 9 .1 1.3.4 2.6.7 3.9l.2.9-.6.6c-1.4 1.4-3.3 2.2-5.3 2.4h-1.2c-.5 0-1.1 0-1.6-.1h-.2c-5.8-1.5-8.8-4.9-8.9-9.9 0-1.6.6-4 1.5-7.3 1.6-6.1 4.1-15.4 3.1-24.4l-.2-1.5-1.6-6.7-25-11c-2 .9-4.1 1.3-6.3 1.3-2.4 0-4.8-.5-6.9-1.5-3.2-1.5-6.1-3.6-8.4-6.3l-1.5-1.8 2.4-11z" style="fill:#8c8a88"/><path d="m133.4 154.5-.5-.1c-7-1.8-11-6.4-11.1-12.7 0-2.1.7-4.6 1.6-8.2 1.6-5.9 3.9-14.8 3-23.3l-.2-1.4-1.2-5.1-22.3-9.9c-4.6 1.5-10 1.2-14.3-.8-2.7-1.2-5.2-2.8-7.3-4.8-1.8 6.2-3.6 10.3-5.3 12.1l-2.2 2.3-2.9-1.3c-15.9-7.2-29.2-25.7-32.9-31.2l-.3-.6c-1.2-2.5-11.7-25-5.3-40.5l.5-1.2 1-.7c9.1-6.5 20.9-9.8 35.2-9.8h.2c6.4 0 12.9.7 19.2 2.1 2.1.1 9.5.3 14.5 1.7 9.2 2.4 17.2 8.1 22.3 16.1 4 5.9 6.7 12.7 7.9 19.8 28.9 38.5 14.4 74.6 12.6 79-1 2.3-1.3 4.9-.9 7.5.1 1.2.3 2.3.6 3.5l.6 2.6-1.9 1.8c-1.9 1.8-4.5 2.9-7.2 3.2h-1.3c-.7 0-1.3 0-2.1-.1zm3.1-5.9c1-.1 2-.5 2.8-1.1-.3-1.1-.5-2.2-.6-3.3-.5-3.5-.1-7.2 1.2-10.5l.1-.1c1.6-3.8 15.4-37.4-12.3-73.6l-.4-.6-.1-.8c-1-6.4-3.4-12.6-7-18-4.3-6.7-11-11.5-18.9-13.6-4.7-1.4-12.4-1.5-13.3-1.5h-.3l-.3-.1c-6-1.3-12.1-2-18.2-2H69c-12.8 0-23.4 2.9-31.4 8.5-5 12.9 4.4 33.4 5.2 35.1 3.5 5.1 15.4 21.5 29.2 28.4.8-1.4 2.2-4.6 4.2-11.9.2-.7.3-1.3.5-2l2.4-10.8 5.9 1.2s-.8 4.3-2.1 9.6l.5.6c2 2.3 4.5 4.2 7.4 5.5 3.3 1.6 7.3 1.6 10.7.2l1.2-.5 27.6 12.1 1.9 8.2.2 1.9c1 9.5-1.5 19.1-3.2 25.5-.8 2.8-1.4 5.3-1.4 6.5.1 2.5.9 5.5 6.6 7 .5.1 1 .1 1.5.1h.6z" style="fill:#1a1a1a"/><path d="m133.4 154.5-.5-.1c-7-1.8-11-6.4-11.1-12.7 0-2.1.7-4.6 1.6-8.2 1.6-5.9 3.9-14.8 3-23.3l-.2-1.4-1.2-5.1-22.3-9.9c-4.6 1.5-10 1.2-14.3-.8-2.7-1.2-5.2-2.8-7.3-4.8-2.6 8.5-5.2 12.9-6.3 14.1l-2.2 2.3-2.9-1.3c-16.6-7.6-24.6-21-29.3-29-1-1.7-1.8-3.1-2.6-4.2l-.3-.6c-1.2-2.5-11.7-25-5.3-40.5l.5-1.2 1-.7c9.1-6.5 20.9-9.8 35.2-9.8h.2c6.4 0 12.9.7 19.2 2.1 2.1.1 9.5.3 14.5 1.7 9.2 2.4 17.2 8.1 22.3 16.1 4 5.9 6.7 12.7 7.9 19.8 28.9 38.5 14.4 74.6 12.6 79-1 2.3-1.3 4.9-.9 7.5.1 1.2.3 2.3.6 3.5l.6 2.6-1.9 1.8c-1.9 1.8-4.5 2.9-7.2 3.2h-1.3c-.7 0-1.3 0-2.1-.1zm3.1-5.9c1-.1 2-.5 2.8-1.1-.3-1.1-.5-2.2-.6-3.3-.5-3.5-.1-7.2 1.2-10.5l.1-.1c1.6-3.8 15.4-37.4-12.3-73.6l-.4-.6-.1-.8c-1-6.4-3.4-12.6-7-18-4.3-6.7-11-11.5-18.9-13.6-4.7-1.4-12.4-1.5-13.3-1.5h-.3l-.3-.1c-6-1.3-12.1-2-18.2-2H69c-12.8 0-23.4 2.9-31.4 8.5-5 12.9 4.4 33.4 5.2 35.1.8 1.3 1.7 2.7 2.7 4.4 4.6 7.6 11.4 19.2 25.5 26 1-1.8 3.2-6.3 5.2-13.9.2-.7.3-1.3.5-2l2.4-10.8 5.9 1.2s-.8 4.3-2.1 9.6l.5.6c2 2.3 4.5 4.2 7.4 5.5 3.3 1.6 7.3 1.6 10.7.2l1.2-.5 27.6 12.1 1.9 8.2.2 1.9c1 9.5-1.5 19.1-3.2 25.5-.8 2.8-1.4 5.3-1.4 6.5.1 2.5.9 5.5 6.6 7 .5.1 1 .1 1.5.1h.6z" style="fill:#1a1a1a"/><path d="M126.2 106c-4.5 0-9.1-1-13-2.6-4.8-2.2-8.9-5.8-11.7-10.3l-.9-1.5 15.8-7 .6 1.5s2.2 5.8 7.5 8.1c3.7 1.7 6.7 2 8.5 2 .7 0 1.4 0 2-.1.2-.1.5-.1.8-.1 1.7 0 3 .8 3.5 2.2.5 1.5-.2 3.3-2 4.8-2.4 1.9-6.3 3-11.1 3z" style="fill:#8c8a88"/><path d="M112 106c-5.4-2.5-9.9-6.4-13-11.5l-2.7-4.4 21.9-9.7 1.6 4.5c0 .1 1.8 4.7 5.9 6.5 3.3 1.4 5.8 1.7 7.3 1.7.6 0 1.1 0 1.5-.1 3.4-.6 6.6 1.2 7.6 4.1 1 2.8-.1 5.9-2.9 8.2-2.9 2.4-7.5 3.7-13 3.7-4.9 0-9.9-1.1-14.2-3zm23.6-7.1c-.8.1-1.6.2-2.5.2-2.1 0-5.5-.4-9.7-2.2-4.7-2-7.4-6.2-8.5-8.4l-9.8 4.3c2.5 3.3 5.7 6 9.5 7.7 3.5 1.6 7.6 2.5 11.7 2.5 4 0 7.4-.9 9.2-2.4.8-.7 1.1-1.3 1-1.5-.1-.1-.4-.2-.7-.2h-.2zm-21.4-40.4s-1.5-9-6.7-11.1-10.2 4.4-6 7.7c5.1 4 7.5-1.1 12.7 3.4z" style="fill:#1a1a1a"/></svg>