<svg xmlns="http://www.w3.org/2000/svg" viewBox="0 0 180 180" style="enable-background:new 0 0 180 180" xml:space="preserve"><path d="M122.7 132.7c-17.6-11.1-19.4-24.8-20-30.7H77c-.5 5.8-2.3 19.5-20 30.7-8 5-12.7 14.7-12.7 26.4v2h91v-2c.1-11.7-4.6-21.4-12.6-26.4z" style="fill:#fff"/><path d="M115 127.7c-10.8-7.5-11.5-22.2-12.2-25.5h.1l-.3-.2H76.8v.4h.1s13.2 13.3 24.2 23.7c10.5 9.9 26.5 11.3 26.5 11.3s-7.1-5.9-12.6-9.7z" style="opacity:.2;fill:#040000;enable-background:new"/><path d="M46.3 159c4.3-14.3 10.5-16.1 21.8-24.4 7.5-5.5 8.5-22 8.5-22 .2-.9-3.8 6.7-8.1 10.4-1.4 1.2-11 7.8-15.1 12.2-7 7.4-7.9 26.6-7.1 23.8z" style="opacity:.2;fill:#fff;enable-background:new"/><path d="M123.9 130.2c-14.8-9.3-17.9-20.5-18.8-26.9l-4.4-3.7v.3c.5 4.6.8 20.9 21.1 33.7 7.5 4.7 11.8 13.7 11.8 24.7h-87c0-11 4.3-20 11.7-24.7 20.3-12.7 20.6-29.1 21-33.7l.1-.8-4.8 3.8h.3c-2.5 17-14.3 24.4-18.8 27.3-8.6 5.4-13.6 15.6-13.6 28.1v4h95v-4c0-12.4-5-22.6-13.6-28.1z" style="fill:#1a1a1a"/><path d="M102.9 46.7h11.2l.6 1 .4.7c1.4 2.1 2 4.5 2 6.9v1.1l-.9.6-11.9 7.9c9.9 7.9 11.6 22.4 3.7 32.3-4.3 5.5-10.9 8.7-17.9 8.7-12.7 0-23-10.4-22.9-23.1 0-7 3.2-13.6 8.7-17.9L64 57l-1-.5v-1.1c0-2.5.6-4.9 2-6.9l.4-.7.6-1h11.3v-.2l25.6.1c0-.1 0 0 0 0z" style="fill:#fff"/><path d="M100.8 64.8zm11.7 12.8c2.9 24-16.1 27.3-16.1 27.3 8.6-4.3 15.1-18.9 7.3-29.8-5.5-7.8-16.3-10.2-16.3-10.2h13.3l.1-.1h2.7c.1 0 8.3 6.8 9 12.8zm-9.4-31.3h10.8l3.9 9s-11.3 9.2-17 9.4c1-1.1 8.8-10.2-.2-16H65.2l.5-2.5h11.4l26 .1c0-.1 0 0 0 0z" style="opacity:.2;fill:#040000;enable-background:new"/><path d="M75.1 55.4c.6 4.5 4.1 9.5 4.2 9.5l-16.8-9.5h12.6zm17.1 48.5c-8-.7-20.8-10.3-22.3-30 0 0-8.1 11.6 3.1 24.4 8.7 10.1 19.2 5.6 19.2 5.6z" style="opacity:.2;fill:#fff;enable-background:new"/><path d="M79.3 48.9H67c-1.4 2.7-2.2 3.6-2.2 6.7L79.2 65l-1.1.7c-9.6 6.6-12 19.6-5.4 29.2 3.9 5.7 10.3 9.1 17.2 9.1 11.6-.1 20.9-9.6 20.8-21.2-.1-6.8-3.4-13.2-9-17.1l-1.1-.8 14.4-9.3c0-3.1-.7-4-2.2-6.7h-12.3l.1-.7 4.7-3.3h10l1.1 2.1.4.7c1.5 2.3 2.3 5.1 2.2 7.9v2.1l-1.8 1.2-9.7 6.5c9.8 9.7 9.9 25.6.1 35.4-4.7 4.7-11 7.4-17.7 7.4C76.1 108 65 96.8 65.1 83c0-6.6 2.7-12.9 7.3-17.6l-9.7-6.5-1.8-1.2v-2.1c0-2.8.7-5.5 2.2-7.9l.4-.7 1.1-2.1h9.6l5.1 3.7v.3z" style="fill:#1a1a1a"/><path style="fill:#1a1a1a" d="M73.7 44.9H107V49H73.7z"/></svg>