<svg xmlns="http://www.w3.org/2000/svg" xml:space="preserve" id="Layer_1" x="0" y="0" style="enable-background:new 0 0 180 180" version="1.1" viewBox="0 0 180 180"><defs><style>.b{fill:#1a1a1a}.c{fill:#fff}.d{opacity:.2}.f{fill:#fff}.g{opacity:.2}</style></defs><path d="M129.36 126.29c-23.88-26.24-3.99-63.27 8.18-82.91l-16.22-2.63c-.58 5.01-4.59 8.88-9.46 8.88-5.26 0-9.53-4.55-9.53-10.16 0-.61.05-1.2.15-1.77H77.5c.1.57.15 1.16.15 1.77 0 5.61-4.27 10.16-9.53 10.16-4.86 0-8.88-3.87-9.46-8.88l-16.22 2.63c12.17 19.64 32.06 56.67 8.18 82.91h78.73Z" class="f"/><circle cx="90" cy="25.54" r="12.1" class="f"/><path d="M79.27 30.98c0-8.66 7.02-15.69 15.69-15.69.54 0 1.07.03 1.6.08A12.052 12.052 0 0 0 90 13.44c-6.68 0-12.1 5.42-12.1 12.1 0 2.02.5 3.92 1.37 5.59v-.15Z" class="c d"/><path d="M97.54 16.08c.65 1.55 1.02 3.25 1.02 5.04 0 7.16-5.81 12.97-12.97 12.97-1.79 0-3.49-.36-5.04-1.02 2.22 2.78 5.63 4.56 9.46 4.56 6.68 0 12.1-5.42 12.1-12.1 0-3.83-1.78-7.24-4.56-9.46Z" class="d"/><path d="M90 39.63c-7.77 0-14.1-6.32-14.1-14.1s6.32-14.1 14.1-14.1 14.1 6.32 14.1 14.1-6.32 14.1-14.1 14.1Zm0-24.19c-5.57 0-10.1 4.53-10.1 10.1s4.53 10.1 10.1 10.1 10.1-4.53 10.1-10.1-4.53-10.1-10.1-10.1Z" class="b"/><path d="M118.81 88.22s-10.44 20.97-3.92 37.92c.02.05.04.1.06.14h14.41c-10.39-11.42-12.49-24.88-10.55-38.07Z" class="g"/><path d="M57.49 126.29c15.32-18.84 0-52.74 0-52.74 6.05 17.41 7.46 37.02-6.85 52.74h6.85Z" class="c d"/><path d="m102.1 44.15.18 11 2.35 5.98 3.96 2.35 3.58-.82 3.23-3.48 2.71-5.69 2.25-7.75-3.7 2.52-3.45 1.27-3.33-.12-4.32-2.32-3.46-2.94zm-24.2 0-.18 11-2.35 5.98-3.96 2.35-3.58-.82-3.23-3.48-2.71-5.69-2.25-7.75 3.7 2.52 3.45 1.27 3.33-.12 4.32-2.32 3.46-2.94z" class="g"/><path d="M42.45 43.38s10.29.3 13.08 5.29c2.78 4.99 5.95 15.34 15.07 14.87L65.61 52.8l-5.56-6.77-1.37-5.27-16.22 2.63Z" class="g"/><path d="M70.68 65.53c-1.21 0-2.39-.31-3.51-.93-7.47-4.16-10.19-21.59-10.48-23.56-.16-1.09.6-2.11 1.69-2.27 1.09-.17 2.11.6 2.27 1.69.97 6.7 4.13 18.23 8.47 20.64.98.55 1.97.57 3.1.08 4.82-2.1 4.59-15.32 3.32-23.16-.18-1.09.56-2.12 1.65-2.3a2.01 2.01 0 0 1 2.3 1.65c.39 2.39 3.55 23.45-5.67 27.47-1.05.46-2.1.69-3.14.69Z" class="b"/><path d="m85.28 37.7.44.14c6.35 1.99 11.17 7.13 12.94 13.55 1.3 4.7 3.82 9.78 8.69 12.09l-5.13-11.74-.13-9.89-.39-4.15H85.28Zm26.23 25.78s6.25-.86 12.86-13.17c2.45-4.56 7.42-7.28 12.55-6.63l.62.09-16.22-3.02-1.78 11.4-8.03 11.33Z" class="g"/><path d="M129.36 128.29H50.64c-.79 0-1.51-.47-1.83-1.19-.32-.72-.18-1.57.35-2.15 24.68-27.13-.22-67.31-8.4-80.51a1.994 1.994 0 0 1 1.38-3.02l16.22-2.63c.54-.08 1.09.05 1.53.38.44.33.72.82.78 1.37.47 4.05 3.68 7.11 7.47 7.11 4.15 0 7.53-3.66 7.53-8.16 0-.48-.04-.96-.12-1.44-.1-.58.06-1.17.44-1.62.38-.45.94-.71 1.53-.71h24.98c.59 0 1.15.26 1.53.71.38.45.54 1.04.44 1.62-.08.48-.12.96-.12 1.44 0 4.5 3.38 8.16 7.53 8.16 3.79 0 7-3.06 7.47-7.11.06-.54.34-1.04.78-1.37.44-.33.99-.46 1.53-.38l16.22 2.63c.66.11 1.22.54 1.5 1.15.28.61.23 1.31-.12 1.88-8.18 13.2-33.09 53.38-8.4 80.51.53.58.67 1.43.35 2.15-.32.72-1.04 1.19-1.83 1.19Zm-74.47-4h70.21c-20.74-27.45-.18-64.13 9.17-79.41l-11.37-1.84c-1.45 5.02-5.89 8.6-11.03 8.6-6.28 0-11.41-5.33-11.53-11.93H79.66c-.12 6.6-5.24 11.93-11.53 11.93-5.14 0-9.58-3.58-11.03-8.6l-11.37 1.84c9.35 15.28 29.91 51.96 9.17 79.41Z" class="b"/><path d="M50.64 126.29c3.55 9.51 10.94 16.8 20.1 19.85l1.06.35h36.4l1.06-.35c9.16-3.05 16.55-10.34 20.1-19.85H50.64Z" class="f"/><path d="M129.36 126.29c-3.55 9.51-10.94 16.8-20.1 19.85l-1.06.35H71.8l-1.06-.35c-5.08-1.69-9.61-4.69-13.25-8.64 1.81.13 3.67.2 5.57.2 15.69 0 42.6-1.31 51.84-11.41h14.47Z" class="g"/><path d="M108.2 148.49H71.8c-.21 0-.43-.03-.63-.1l-1.06-.35c-9.78-3.26-17.56-10.93-21.34-21.05-.23-.61-.14-1.3.23-1.84s.99-.86 1.64-.86h78.73c.66 0 1.27.32 1.64.86.37.54.46 1.23.23 1.84-3.78 10.12-11.56 17.79-21.34 21.05l-1.06.35c-.2.07-.42.1-.63.1Zm-36.07-4h35.75l.75-.25c7.74-2.58 14.07-8.31 17.71-15.95H53.66c3.64 7.64 9.97 13.37 17.71 15.95l.75.25Z" class="b"/><path d="M40.86 166.46v3.49h98.28v-3.49c.03-10.47.05-19.59-13.44-23.02 0 0-47.83-4.76-71.39 0-13.5 3.43-13.47 12.55-13.45 23.02Z" class="f"/><path d="M124.81 143.39c-9.28-1.88-22.43-2.23-34.81-2-12.37-.24-25.52.12-34.81 2-9.09 2.31-11.89 7.27-12.74 13.47 0 0 7.71-7.44 47.55-7.44s47.55 7.44 47.55 7.44c-.85-6.21-3.66-11.17-12.74-13.47Z" class="c d"/><path d="M139.14 171.95H40.86c-1.1 0-2-.9-2-2v-3.48c-.03-10.4-.06-21.15 14.95-24.96 23.68-4.78 70.12-.25 72.08-.05.1 0 .2.03.29.05 15.01 3.81 14.98 14.56 14.95 24.96v3.49c0 1.1-.9 2-2 2Zm-96.28-4h94.28v-1.49c.03-10.43.05-17.97-11.79-21.04-2.97-.29-48.3-4.53-70.65-.02-11.89 3.02-11.87 10.59-11.84 21.06v1.49Zm66.46-102.42c-1.03 0-2.09-.23-3.14-.69-9.21-4.02-6.06-25.08-5.67-27.47a2.002 2.002 0 0 1 3.95.65c-1.28 7.84-1.5 21.05 3.32 23.16 1.13.5 2.12.47 3.1-.08 4.33-2.41 7.49-13.94 8.47-20.64.16-1.09 1.18-1.86 2.27-1.69a2 2 0 0 1 1.69 2.27c-.29 1.97-3.01 19.4-10.48 23.56-1.12.62-2.3.93-3.51.93Z" class="b"/></svg>