<svg xmlns="http://www.w3.org/2000/svg" viewBox="0 0 180 180" style="enable-background:new 0 0 180 180" xml:space="preserve"><path d="M43.2 159.5h94.2c.5-6.1-3.6-11.7-12.3-17-16.5-12.6-23.9-30-25.8-51.2h-18c-1.8 21.2-9.3 38.6-25.8 51.2-8.7 5.4-12.8 11-12.3 17z" style="fill:#fff"/><path d="M125.3 135.2c-13.2-10.3-18.7-25.2-21.4-41.1h-5.6c1.7 19.3 8.6 35.1 23.6 46.6 8 4.9 11.7 10 11.3 15.6H46.8c-.5-5.6 3.2-10.7 11.3-15.6 15-11.5 21.8-27.3 23.6-46.6h-5.6C73.3 110 68 125 54.7 135.2c-9.2 5.9-14.8 11.9-14.3 21v6.3h99.2v-6.4c.3-9.1-5.3-15.1-14.3-20.9z" style="fill:#040000"/><path d="m95.3 64.1 20.7-18H61.7l20.8 18c-9 2-11.6 7.4-11.6 16.1 0 9.5 8.2 16.7 18 16.7s17.9-7.2 17.9-16.7c0-8.8-2.5-14.1-11.5-16.1z" style="fill:#fff"/><path d="m104.1 62.6 24.4-20.5H51.6L76 62.6c-4.8 4-7.5 9.9-7.4 16.1 0 11.8 9.6 21.4 21.4 21.4s21.4-9.6 21.4-21.4c.2-6.2-2.5-12.1-7.3-16.1zM90 93.9c-8.4 0-15.2-6.8-15.2-15.2 0-8 3.8-12.9 11.5-14.7L67 47.7h46L93.7 64.1c7.6 1.8 11.5 6.7 11.5 14.7 0 8.3-6.8 15.1-15.2 15.1z" style="fill:#040000"/></svg>