<svg xmlns="http://www.w3.org/2000/svg" viewBox="0 0 180 180" style="enable-background:new 0 0 180 180" xml:space="preserve"><path d="M116 146.2c7-5.8 16.4-18.4 16.4-39.2 0-20.5-13.5-35.9-22.1-44.5l-1.8-1.8-1.3 2.2c-1.5 2.5-8.8 14.5-9.1 44.6H84.4c.5-45 18-62 18.2-62.2l.6-.7-.1-.9c-.5-6.7-6.1-12-12.9-12v.1c-7.1 0-12.9 5.8-12.9 12.9 0 3.3 1.2 6.4 3.4 8.8-5.3 4.3-10.1 9-14.5 14.2C55.4 80.6 49.7 94.2 49.7 107c0 20.8 9.4 33.3 16.4 39.2" style="fill:#fff"/><path d="M118 72.4c22.7 55.1-27.1 71.8-27.1 71.8l25.1 2c-2.4 1.9 16-5.2 16-41.4.1-12.3-4.9-24.1-14-32.4z" style="opacity:.2;fill:#040000;enable-background:new"/><path d="M83.8 53.5c-2.7-1.2-28.6 20.6-32.9 42.9-4 20.8 3.2 26.6 2.8 26.4 0-.1 2.8-45.8 32.8-68.1 0 .1-1.1-.5-2.7-1.2zM92 33.6c-4.3.4-11.8 6.7-12.4 15.4 0 0-6-5.6.1-12.5C84.4 31 92 33.6 92 33.6z" style="opacity:.2;fill:#fff;enable-background:new"/><path d="M89.1 71.8c1.8-5.1 14.1-29 14.1-29l-5.6-9.2-2.9.1c9.2 11.3-18 37-18 56.4 0 5.7 1.4 17.2 5.5 19.3.2 0 3.1-27.1 6.9-37.6z" style="opacity:.2;fill:#040000;enable-background:new"/><path d="M70.9 148.2c-5-2.3-20.3-14.5-20.3-40.7C50.6 77.4 82.7 54 82.7 54c-4.9-3.5-6-10.4-2.5-15.3s10.4-6 15.3-2.5c2.6 1.9 4.3 4.9 4.5 8.1 0 0-18.7 17.7-18.7 65.6H99c0-29.9 7-42.4 8.9-45.6 9.5 9.4 21.5 24 21.5 43.1 0 26.1-15.1 38.3-20.2 40.7l10.6-3.3c6.6-7 13.6-19.2 13.6-37.4 0-15.7-7.4-30.7-22.7-46l-3.7-3.6-2.6 4.5c-5.8 9.8-9 24.8-9.4 43.6h-9.7c.5-21.5 5-36 8.8-44.5 4.3-9.8 8.7-14.1 8.7-14.1l1.3-1.3-.1-2c-.6-7.8-7.1-13.8-14.9-13.9-8.2 0-14.9 6.7-14.9 14.9 0 3.1.9 6 2.7 8.5-4.8 4-9.2 8.5-13.2 13.3-11.1 13.3-17 27.3-17 40.6 0 17.8 6.8 29.8 13.3 36.9l10.9 3.9z" style="fill:#1a1a1a"/><path d="M90 148.8c9 0 17.2.3 24.6.9l1.9-3.8c-7.7-.7-16.4-1.1-26.5-1.1-10.2 0-19 .4-26.7 1.1l1.2 3.9c7.6-.7 16.1-1 25.5-1z" style="fill:#1a1a1a"/><path transform="rotate(-41.359 62.614 145)" style="fill:#1a1a1a" d="M60.9 140.2h3.5v9.7h-3.5z"/><path transform="rotate(-45.001 116.734 145.168)" style="fill:#1a1a1a" d="M111.9 143.4h9.7v3.5h-9.7z"/></svg>