<svg version="1.1" id="Layer_1" xmlns="http://www.w3.org/2000/svg" x="0" y="0" viewBox="0 0 180 180" style="enable-background:new 0 0 180 180" xml:space="preserve"><style>.st0{fill:#fff}.st1{fill:#040000}</style><g id="Layer_1-2"><path class="st0" d="m111.1 102.4.3-.2h-40c.1.1.2.1.3.2-23.2 9.8-35.7 35-29.5 59.3h98.3c6.4-24.3-6.2-49.6-29.4-59.3z"/><path class="st1" d="m112.7 101.4.2-.1-6 .4-.4.2 2.7 1.1c22.1 9.3 34.3 33.1 28.9 56.4h-96c-5.4-23.3 6.8-47.1 28.8-56.4l2.7-1.1-.3-.2-6.2-.5.1.1c-22.4 10.8-34 35.9-27.9 60l.3 1.1h100.7l.3-1.1c6.2-24-5.5-49.1-27.9-59.9z"/><path class="st0" d="M51.8 49.1c-.8 2.5-1.3 5.2-1.3 7.9 0 13.5 10.7 25 25.8 29.5-8.9 8-9.6 21.6-1.7 30.5s21.6 9.6 30.5 1.7 9.6-21.6 1.7-30.5c-.5-.6-1.1-1.2-1.7-1.7 15.1-4.6 25.8-16.1 25.8-29.5 0-2.7-.4-5.3-1.3-7.8l-77.8-.1z"/><path class="st1" d="M128.5 49.1c.7 2.3 1.1 4.6 1.1 7 0 12.1-9.8 23.3-24.5 27.7l-3.3 1 2.6 2.3c8.1 7.2 8.8 19.7 1.6 27.8s-19.7 8.8-27.8 1.6c-8.2-7.2-8.9-19.7-1.6-27.8.5-.6 1-1.1 1.6-1.6l2.5-2.3-3.2-1C62.8 79.4 53 68.3 53 56.1c0-2.4.4-4.7 1.1-7h-3.9c-.6 2.3-.9 4.6-.9 7 0 13 9.6 24.9 24.2 30.4-8.4 9.9-7.3 24.7 2.6 33.1s24.7 7.3 33.1-2.6c7.5-8.8 7.5-21.8 0-30.6 14.6-5.4 24.2-17.3 24.2-30.3 0-2.4-.3-4.7-.9-7h-4zm-78.3-3h82.1v3H50.2z"/></g></svg>