<svg xmlns="http://www.w3.org/2000/svg" viewBox="0 0 180 180" style="enable-background:new 0 0 180 180" xml:space="preserve"><path style="fill:none" d="M0 0h180v180H0z"/><path d="M160.5 111.9c-.2 0-.4 0-.6.1l-40.5 7.8c-1.7.4-2.9 2-2.8 3.7l.1 3.9v1.6l-1.6.2c-1.1.1-2.3.3-3.6.4l-2 .2v-27.5l2.1.4c3.6.7 7.3 1.3 11 1.9 9 1.3 18.1 2 27.2 2.2h.2l3-68.6h-.1c-10.8 0-25-4-42.3-12l-1-.5v-4.9c.1-3.2-2.5-5.8-5.7-5.9-2.3 0-4.4 1.3-5.3 3.3l-.8 1.6-1.6-.9c-4.5-2.4-7.2-4-7.2-4.1l-.3-.2L83 44.3l-.4 2-1.9-.6c-3.1-1.1-6.7-2.5-10.7-4.3l-6-2.8v-7.5c.1-3.2-2.3-5.9-5.5-6s-5.9 2.3-6 5.5V33l-2.6-1.4c-9.1-4.9-11.1-6.7-11.2-6.8l-.3-.2-16 74.2.1.1c9.7 5.7 30.8 13.1 30.8 13.1l-.1 1.9v12.8l4.3 2-2-.3c-2.9-.4-5.6-.9-8-1.4-5.1-1.1-11.7-3.1-13.9-6.3-.8-1-.9-2.3-.4-3.5.5-1.4.3-3-.5-4.3-.7-1.2-2-2-3.3-2.3-.7-.1-1.4-.2-2.2-.2-4.6 0-8.5 2.7-11 7.5-1.7 3.6-2.4 7.6-2 11.6.4 4.8 1.9 9.4 4.5 13.5 3.2 5.3 7.9 9.5 13.4 12.3 6.6 3.4 14.5 5.1 23.6 5.1h82.2c2.9-.3 5.6-3.1 7.2-5.9v-.1l.1-.1 10.4-14.9.2-.3.4-.2 5.6-3 .2-.1.1-.1c1.1-.9 1.7-2.3 1.7-3.7v-17c-.2-1.5-1.5-3-3.3-3.1zm-62.2 19.4-33.7-1.6.1-15 22.7 1.4 1.8-19.3 9.4 2.6-.3 31.9z" style="fill:#fff"/><path d="M161 110.7h-1.1l-40.7 7.9c-.1 0-.3 0-.4.1-2.2.7-3.6 2.8-3.4 4.9l.1 4.4c-1.5.2-3 .4-4.6.5v-24.7c12.1 2.4 24.5 3.8 36.9 4.2l2 .2h.1c.4 0 .7-.1 1-.4s.5-.7.5-1.1l3-68c0-.8-.6-1.5-1.4-1.6l-2-.1c-10-.5-22.9-4.2-38.2-11.1L111 25v-4.3c0-3.9-3.2-7-7.1-7-2.9 0-5.4 1.8-6.5 4.3-1.9-1-3.7-2-5.2-2.8l-2.4-1.4c-.4-.2-.9-.3-1.4-.1-.4.2-.8.6-.9 1.1L81 44.6c-5.3-1.9-9.9-3.8-14-5.8l-2.2-1v-7c-.1-3.5-3-6.4-6.6-6.6h-.4c-3.6 0-6.5 2.7-7 6.3-3-1.7-6-3.4-9.1-5.2l-2.4-1.4c-.4-.2-.9-.3-1.4-.1-.4.2-.8.6-.9 1.1L20.9 98.5c-.1.7.2 1.3.8 1.6l1.3.7c8.1 4.6 17 8.2 26.3 10.9l1.4.4v14.5c-11.7-2.1-15.3-4.8-16.5-6.4-.6-.9-.5-1.4-.3-2.3.1-.3.3-.6.3-1 .2-1.7-.1-3.2-.9-4.5-.9-1.4-2.3-2.4-4-2.8h-.1c-.7-.1-1.5-.2-2.3-.2-3 0-8.5 1.1-12.1 8.2s-2.6 17.9 2.5 26.3c4 6.7 14.4 18 38.1 18h82.4c3-.3 5.8-2.6 8.1-6.6l10.4-14.9.1-.1 5.8-3.2.2-.1c.1 0 .2-.1.3-.2 1.4-1.1 2.2-2.8 2.2-4.7v-17c0-2.2-1.7-4.1-3.9-4.4zm-49.5-81.9c15.7 7 29 10.8 39.3 11.3h.5l-2.9 64.9h-.5c-12.3-.4-24.7-1.8-36.8-4.2l-.3-.1V28.4l.7.4zm-7.7-11.9c2.3 0 4.1 1.8 4.1 4v4.7c-.1.2-.1.3-.1.5V102c0 .2 0 .4.1.5v26.2h-.4c-2.1.2-4.2.3-6.2.4-.4 0-.9 0-1.4.1v-109c.3-1.8 2-3.3 3.9-3.3zm-13.8.7.6.4c1.7 1 3.7 2.1 6 3.2l.3.2v75.9l-.7-.2c-7.7-2.3-14.8-5.2-21.2-8.8l-.3-.2L83.6 47 90 17.6zM65 41.3l.8.4c4.3 2.1 9.1 4.1 14.7 6.1l-8.9 40.9v.5c0 .5.3 1.1.8 1.3 4.8 2.7 10 5.1 15.2 7l.4.1-.7 17.5-.6-.1c-6.7-.3-13.9-1.1-21.2-2.5l-.4-.1V41.3H65zm-7.1-14h.2c2.1.2 3.7 1.8 3.8 3.7v97.2h-.5c-2.4-.2-4.7-.5-7.1-.9l-.5-.1v-15.5c.1-.2.1-.3.1-.5V33.3c0-.2 0-.3-.1-.5v-1.6c.3-2.3 2-3.9 4.1-3.9zM50.3 109c-9.1-2.6-17.8-6.2-25.7-10.7l-.3-.2 15.4-70.5.6.4c3.5 2 7 4 10.4 5.9l.2.1v75.1l-.6-.1zm14.6 6.5c7.4 1.4 14.7 2.2 21.5 2.5l2.1.2h.1c.4 0 .7-.1 1-.4s.5-.7.5-1.1l.7-18.3c1.5.5 3 1 4.6 1.4l1.5.4v29.1c-1.2 0-2.4.1-3.6.1-11.6 0-20.9-.4-28.4-1v-12.9zm97 16.7c0 .5-.1 1.5-.9 2.2l-6.3 3.4c-.3.1-.5.4-.6.6l-.1.1-10.5 15.1s0 .1-.1.1c-1.8 3.1-3.8 4.9-5.8 5.1H55.5c-22.2 0-31.8-10.4-35.5-16.6-4.6-7.6-5.6-17.1-2.4-23.3 2.8-5.4 6.7-6.6 9.5-6.6.6 0 1.2.1 1.8.2.7.2 1.6.5 2.1 1.4.5.8.6 1.6.5 2.6v.1s0 .1-.1.1c0 .1-.1.2-.1.2-.3 1-.9 2.9.7 5 5 6.8 26.2 10.4 61.3 10.4 1.7 0 3.3-.1 5-.1h.2l2.1-.1c.3 0 .7 0 1-.1 5.4-.3 10.6-.8 15.6-1.5.8-.1 1.3-.8 1.3-1.5l-.1-5.8c-.1-.8.4-1.6 1.2-1.9h.1l40.7-7.9h.3c.7.1 1.2.8 1.2 1.5v17.3z"/></svg>